<svg width="252" height="200" viewBox="0 0 252 200" fill="none" xmlns="http://www.w3.org/2000/svg">
<g clip-path="url(#clip0_82_182)">
<path d="M83.7071 4.03027L60.2437 29.1388C55.507 75.3401 51.4449 120.585 53.2486 192.292L185.128 191.689C185.128 191.689 204.47 158.3 204.984 156.034C208.928 138.869 187.797 15.018 187.797 15.018C158.057 4.78044 124.24 4.47155 83.7071 4.03027Z" fill="#8CA54F"/>
<path d="M56.7684 29.6389C56.5227 34.5525 55.6605 39.4154 54.2021 44.1127C53.5022 46.5247 52.9681 48.982 52.6036 51.4673C52.4179 54.0223 52.3787 56.5859 52.4863 59.1454C52.4863 61.4989 51.9437 63.7641 51.8704 66.0882C51.7677 68.7358 52.193 71.3982 51.8704 74.0458C51.2939 79.0646 51.0392 84.1153 51.1078 89.1668C51.2691 91.2916 51.2691 93.4257 51.1078 95.5505C50.6732 98.1801 50.3844 100.832 50.2426 103.493C50.2426 106.126 50.3306 108.759 50.2426 111.378C50.1546 113.996 49.3628 116.158 49.4361 118.732C49.5534 123.145 48.5122 127.558 47.9696 131.97C47.7885 134.417 47.7444 136.873 47.8376 139.325C47.8376 142.149 47.8376 144.973 47.8376 147.797V180.29C47.8376 182.29 47.8376 184.261 47.7057 186.173C47.5115 187.91 47.6207 189.667 48.0282 191.366C49.5974 196.867 55.1846 196.19 59.6426 197.044C61.9743 197.499 64.3207 197.426 66.6377 197.852C69.1403 198.373 71.6933 198.61 74.2486 198.559C79.7039 198.338 85.1592 198.441 90.5997 198.441H172.355C174.364 198.441 176.403 198.441 178.412 198.441C180.758 198.603 183.398 198.367 184.761 196.146C185.531 194.6 185.802 192.853 185.539 191.145C185.407 189.159 185.304 187.232 185.304 185.261V136.471C185.304 125.675 185.04 114.864 185.304 104.111C185.304 101.552 185.671 99.0219 185.92 96.4625C185.961 95.266 186.069 94.0727 186.242 92.8882C186.573 91.6081 186.808 90.3053 186.946 88.9903C186.946 87.9459 186.844 86.9016 186.873 85.8425C186.956 84.6669 187.113 83.4977 187.342 82.3417C187.655 79.8296 187.763 77.2962 187.665 74.7665C187.763 72.4272 188.022 70.0976 188.442 67.7944C188.75 65.1615 188.545 62.4697 188.765 59.822C188.853 58.6894 189.043 57.5716 189.175 56.439C189.337 55.0416 189.175 53.6736 189.263 52.2763C189.454 49.9228 190.261 47.7753 190.173 45.3483C190.003 43.3007 190.092 41.2399 190.437 39.2146C190.79 37.2167 191.006 35.1968 191.082 33.1691C191.331 29.8154 191.859 25.3733 189.161 22.7992C187.416 21.1518 185.48 21.5195 183.295 21.1076C182.088 20.7723 180.857 20.5265 179.614 20.3722C178.618 20.3821 177.627 20.228 176.681 19.9162C172.194 18.4453 167.164 19.5485 162.544 19.5485H113.99C108.916 19.5485 103.842 19.3131 98.7679 19.269C96.3835 19.2297 94.0012 19.4268 91.6555 19.8574C89.2505 20.3428 86.9042 21.1959 84.5432 21.8578C82.2704 22.6018 79.9475 23.1818 77.5922 23.5935C74.9555 23.77 72.31 23.77 69.6733 23.5935C67.4582 23.3151 65.2121 23.4146 63.0301 23.8877C61.1043 24.5836 59.3422 25.6702 57.8536 27.0796C57.1747 27.7751 56.7944 28.7097 56.7944 29.6831C56.7944 30.6564 57.1747 31.5911 57.8536 32.2866C58.5515 32.9529 59.4783 33.3246 60.4419 33.3246C61.4055 33.3246 62.3322 32.9529 63.0301 32.2866C63.4739 31.7862 64.0255 31.3938 64.6429 31.1389C65.2603 30.8841 65.9274 30.7735 66.5937 30.8156C68.9401 30.8156 71.2717 31.0069 73.6181 31.0657C78.4566 30.9772 83.2533 30.1488 87.8428 28.6093C89.9894 27.8731 92.1846 27.2883 94.4125 26.8589C96.7072 26.6211 99.0181 26.5817 101.32 26.7412C106.027 26.9177 110.72 26.9471 115.442 26.9471H162.559C166.533 26.9471 171.167 25.8145 174.995 27.1384C176.96 27.8297 178.954 27.5502 180.861 28.1092C181.832 28.4836 182.873 28.6392 183.911 28.5652C184.747 28.4034 184.6 28.8446 184.131 28.1239C183.676 27.6238 183.573 27.5797 183.837 27.9915C183.676 27.6238 183.647 27.6532 183.837 28.0945C183.869 28.5842 183.869 29.0756 183.837 29.5654C183.837 30.3302 183.837 31.0363 183.735 31.86C183.647 33.3309 183.735 34.9489 183.442 36.4198C182.96 38.6098 182.69 40.8412 182.635 43.0831C182.635 44.1568 182.767 45.2453 182.767 46.3191C182.691 47.3753 182.504 48.4205 182.21 49.4374C181.946 51.664 181.8 53.9028 181.77 56.1448C181.491 58.8365 181.183 61.4548 181.154 64.1613C181.091 66.2866 180.88 68.4049 180.523 70.5009C180.272 73.0176 180.203 75.5494 180.318 78.0761C180.176 80.246 179.917 82.4065 179.541 84.5481C179.467 85.7139 179.467 86.8831 179.541 88.0489C179.499 89.1238 179.332 90.1902 179.042 91.226C178.558 93.6089 178.544 96.1242 178.294 98.5806C178.02 101.141 177.878 103.713 177.869 106.288C177.869 111.407 177.869 116.511 177.869 121.63C177.972 142.605 177.869 163.58 177.869 184.555C177.869 186.335 177.869 188.1 177.986 189.88C177.986 190.601 178.133 191.351 178.148 192.072C178.111 192.468 178.111 192.867 178.148 193.263C177.84 191.998 181.476 191.483 179.731 191.189C177.826 190.996 175.909 190.956 173.998 191.072H134.843C114.195 191.072 93.5473 191.072 72.9142 191.233C70.8645 191.15 68.8246 190.904 66.8136 190.498C65.5965 190.336 64.4087 190.351 63.1915 190.248C61.9744 190.145 60.9771 189.836 59.8626 189.674C58.7481 189.512 57.487 189.542 56.2991 189.395C55.7688 189.332 55.2473 189.208 54.7447 189.027C54.5247 188.953 55.0526 189.174 55.0086 189.189C55.5219 188.983 54.6567 190.218 55.0966 189.086C54.9206 189.542 55.0966 188.512 55.0966 188.409C55.0966 187.541 55.0966 186.674 55.214 185.791C55.5366 181.378 55.3166 176.833 55.3166 172.362V156.402C55.3166 151.386 55.3166 146.356 55.3166 141.34C55.3166 138.781 55.2433 136.221 55.3166 133.662C55.3166 131.5 56.0205 129.396 56.1232 127.234C56.2258 125.072 56.8124 123.38 56.9297 121.424C56.8779 119.177 56.9955 116.93 57.2816 114.702C58.3375 109.774 57.2816 104.641 57.9269 99.6691C58.3087 97.5787 58.5585 95.4662 58.6748 93.3442C58.6748 90.976 58.5135 88.6078 58.5135 86.225C58.5135 83.8421 58.5134 81.2385 58.7334 78.7527C58.9534 76.2668 59.408 73.884 59.364 71.3981C59.2027 69.1947 59.2027 66.9824 59.364 64.779C59.718 62.3436 59.8945 59.8856 59.892 57.4245C59.7348 55.099 59.8579 52.763 60.2586 50.4671C60.7719 48.143 61.4317 45.8484 62.0183 43.539C63.31 39.003 64.039 34.3246 64.1887 29.6095C64.1594 24.9026 56.8271 24.9026 56.7684 29.6389Z" fill="#004D2B"/>
<path d="M66.3884 28.1974C66.4617 27.5796 66.0951 28.3151 66.3884 28.0797C66.6817 27.8444 66.8137 27.6826 67.0336 27.5208C67.8751 26.934 68.7572 26.408 69.6732 25.9469C71.8786 24.6414 73.7551 22.8447 75.1578 20.6957C78.2374 16.283 82.1822 12.7822 84.7778 8.06059C85.2911 7.14862 84.9391 7.44283 85.6284 7.3987C87.0033 7.36933 88.3789 7.41352 89.7491 7.53108C92.6821 7.63404 95.527 8.16359 98.4453 8.32539C104.707 8.6784 110.925 9.16377 117.201 9.16377C120.208 9.16377 123.184 9.07552 126.191 8.98727C129.197 8.89901 131.719 9.6933 134.579 9.89923C135.782 9.86698 136.987 9.90136 138.186 10.0022C139.556 10.3908 140.953 10.676 142.366 10.8554C143.664 10.8016 144.965 10.8655 146.252 11.0465C147.85 11.3848 149.464 11.6496 151.077 11.8702C157.324 12.7528 163.483 13.7677 169.657 15.1063C172.59 15.7241 175.376 16.4742 178.309 16.8714C181.025 17.0112 183.712 17.5057 186.301 18.3423C188.105 19.1219 187.944 21.5341 187.944 23.3139C187.944 26.2558 187.445 29.0947 187.474 31.9924C187.474 34.64 188.501 37.1847 188.442 39.8029C188.354 41.1793 188.354 42.5598 188.442 43.9362C188.67 45.5814 188.993 47.212 189.41 48.8196C190.466 53.2323 191.067 57.7922 192.064 62.2343C192.534 64.3377 193.091 66.4264 193.531 68.5445C194.88 75.4431 196.009 82.4152 197.27 89.3432C197.813 92.2851 197.828 95.4328 198.267 98.4629C198.707 101.493 199.734 103.994 199.734 106.891C199.734 109.789 200.452 112.907 200.643 115.923C200.834 118.938 201.318 122.13 201.332 125.263C201.332 131.823 201.332 138.398 201.332 144.973V154.593C201.332 155.637 201.42 157.152 201.332 157.947C201.259 158.52 200.848 158.976 200.232 159.741C198.529 162.088 197.023 164.572 195.731 167.169C194.425 169.52 192.913 171.75 191.214 173.832C187.606 178.436 184.453 182.776 182.635 188.38C182.272 189.265 181.692 190.045 180.949 190.645C180.171 191.513 179.893 192.896 179.145 193.66C175.86 197.073 181.037 202.28 184.321 198.867C185.093 197.797 185.793 196.676 186.418 195.514C186.712 195.131 187.254 194.837 187.577 194.469C188.194 193.773 188.69 192.978 189.043 192.116C189.909 189.582 190.979 187.122 192.24 184.761C195.379 179.775 199.573 175.583 202.374 170.361C203.727 167.803 205.261 165.345 206.964 163.007C208.591 160.785 208.694 158.3 208.694 155.652C208.694 148.871 208.694 142.105 208.694 135.324C208.694 131.97 208.694 128.617 208.694 125.263C208.694 121.909 208.181 118.82 207.99 115.584C207.799 112.348 207.213 109.142 207.081 105.891C206.949 102.64 205.776 99.7867 205.38 96.6537C204.984 93.5206 204.881 90.2258 204.28 87.0192L203.18 81.0326C202.447 76.9582 201.714 72.8984 201.01 68.824C199.969 62.9403 198.311 57.2185 197.388 51.3201C196.962 48.5842 195.921 45.8336 195.731 43.083C195.628 41.7004 195.906 40.3177 195.848 38.9351C195.705 37.448 195.455 35.9732 195.1 34.5223C193.927 28.5504 196.669 22.3873 194.249 16.5183C191.83 10.6494 184.541 10.4729 179.101 9.63447C172.81 8.67838 166.665 6.81031 160.374 5.81009C157.045 5.26586 153.672 4.95696 150.329 4.33918C148.774 4.05971 147.22 3.60373 145.636 3.47135C144.204 3.53364 142.77 3.45481 141.354 3.236C138.524 2.41228 135.664 2.883 132.819 2.25051C129.82 1.67477 126.757 1.50164 123.712 1.73568C117.221 2.00055 110.72 1.82361 104.252 1.20613C101.026 0.911946 97.8294 0.926654 94.6178 0.514798C91.7627 0.105384 88.8782 -0.0619059 85.995 0.0146932C84.5485 -0.0452754 83.1126 0.286388 81.838 0.974818C80.5633 1.66325 79.497 2.68307 78.7507 3.92733C77.4905 6.16811 76.0172 8.28137 74.3513 10.2376C72.3569 12.4881 70.5238 14.7827 68.7494 17.195C67.416 18.6889 65.8012 19.9037 63.998 20.7693C62.0623 21.9902 59.76 23.7111 59.4374 26.2264C59.2143 27.1651 59.3534 28.1537 59.8266 28.9939C60.2998 29.8342 61.0723 30.4639 61.989 30.7568C63.7047 31.2275 66.2417 30.1684 66.5056 28.1827L66.3884 28.1974Z" fill="#004D2B"/>
<path d="M122.29 42.5388H113.843C112.482 42.353 111.098 42.4839 109.796 42.9212C108.508 43.8064 107.177 44.6263 105.807 45.3776C101.305 47.0545 95.2189 51.3496 94.2364 56.6302C93.9941 59.4442 93.9941 62.2739 94.2364 65.0879C94.1161 68.0142 94.4475 70.9416 95.2189 73.7663C96.1438 75.9769 97.2219 78.1198 98.4451 80.1794C99.5156 82.4299 102.141 84.1362 104.091 85.8131C105.637 87.2698 107.386 88.4936 109.282 89.4462C111.699 90.3179 114.18 90.9966 116.703 91.4761C119.416 92.1821 122.73 91.6526 125.501 91.6526C126.844 91.7333 128.191 91.7333 129.534 91.6526C130.913 91.4614 132.1 90.976 133.538 90.6377C135.618 90.1326 137.499 89.0099 138.934 87.4164C139.776 86.6017 140.462 85.6396 140.958 84.5775C141.574 83.239 141.808 81.8122 142.571 80.356C145.328 75.0313 144.771 69.3829 144.771 63.4552C144.771 60.5869 145.372 56.8508 144.184 54.4091C142.906 51.8016 140.97 49.5753 138.568 47.9517C136.266 46.2991 133.769 44.9403 131.133 43.9067C130.602 43.6752 130.058 43.4739 129.505 43.3037C128.83 43.0683 127.848 42.6418 127.159 42.48C125.692 42.1123 123.947 42.8183 122.436 42.377C122.392 42.1858 122.348 41.9651 122.29 42.5388Z" fill="#D1C8E1"/>
<path d="M122.29 38.8615C118.902 38.8615 115.485 38.7586 112.024 38.8615C110.423 38.8495 108.847 39.255 107.449 40.0383C106.379 40.6414 105.484 41.5092 104.384 42.0387C99.4715 44.4069 94.5148 47.1722 91.9192 52.3351C90.6671 55.1033 90.1373 58.1453 90.3794 61.1753C90.4967 64.3378 90.3794 67.559 90.834 70.7068C91.2923 73.9755 92.4046 77.1175 94.1042 79.9441C95.3465 82.4463 97.0595 84.684 99.1488 86.5338C101.403 88.6563 103.859 90.553 106.481 92.1968C109.382 93.5558 112.457 94.5062 115.617 95.021C118.902 95.7564 122.099 95.3152 125.413 95.3299C126.757 95.4034 128.103 95.4034 129.446 95.3299C131.132 95.0873 132.795 94.7035 134.417 94.1826C137.363 93.3926 140.001 91.7259 141.984 89.4021C144.067 86.9898 144.785 84.1656 146.076 81.3268C148.833 75.2225 148.158 68.8976 148.378 62.4109C148.481 59.0278 148.759 55.7035 147.264 52.5557C145.949 49.9298 144.053 47.6405 141.72 45.8631C139.035 43.7574 136.074 42.0302 132.922 40.7296C131.49 40.0824 130.021 39.5224 128.522 39.0528C127.57 38.7794 126.579 38.6651 125.589 38.7144C124.834 38.8415 124.066 38.881 123.302 38.8321L125.868 41.4062C125.711 40.7482 125.383 40.1438 124.916 39.6553C124.45 39.1667 123.862 38.8115 123.214 38.6262C120.677 37.8613 118.814 39.9059 118.579 42.1711V42.5094C118.587 43.4823 118.976 44.4132 119.662 45.1012C120.348 45.7891 121.276 46.179 122.246 46.1867C123.212 46.1679 124.134 45.7744 124.817 45.0888C125.501 44.4032 125.893 43.4788 125.912 42.5094V42.1711L121.263 45.716L118.712 43.1419V43.3331C118.873 43.9496 119.194 44.5123 119.642 44.9643C120.09 45.4163 120.649 45.7416 121.263 45.9072C122.563 46.1592 123.892 46.2138 125.208 46.069C126.224 46.0665 127.228 46.298 128.141 46.7456C130.356 47.5188 132.493 48.5039 134.52 49.6875C136.341 50.7388 137.969 52.0972 139.33 53.703C140.52 55.0963 141.147 56.8853 141.09 58.7189C141.09 61.1459 140.928 63.5729 140.958 65.9999C141.073 68.5276 140.99 71.0605 140.708 73.5751C140.084 76.1834 139.21 78.7251 138.098 81.165C137.595 83.0445 136.486 84.7045 134.945 85.8866C133.088 87.0405 130.99 87.7502 128.815 87.9606C127.652 88.0096 126.486 87.9851 125.325 87.8871C123.947 87.8871 122.583 88.0047 121.205 88.0489C116.069 88.3064 111.012 86.7096 106.95 83.5479C105.134 82.2566 103.458 80.7776 101.95 79.1351C101.402 78.2513 100.912 77.3325 100.483 76.3845C99.8449 75.3707 99.2765 74.314 98.7822 73.2221C98.0026 70.8878 97.6548 68.4302 97.7558 65.9704C97.5384 63.2449 97.5041 60.5077 97.6531 57.7775C98.1957 53.5266 102.771 50.5406 106.291 48.952C107.456 48.4937 108.571 47.917 109.619 47.231C110.326 46.5196 111.273 46.0998 112.274 46.0543C115.573 46.0543 118.873 46.0543 122.172 46.0543C127.041 46.2161 127.041 38.8615 122.29 38.8615Z" fill="#004D2B"/>
<path d="M116.776 111.069C111.629 111.069 106.408 110.76 101.73 111.863C99.634 112.584 97.5823 113.429 95.5855 114.393C94.5149 114.79 93.4444 115.614 92.3739 115.937C91.0934 116.25 89.8423 116.673 88.6344 117.202C84.7691 118.95 81.1935 121.282 78.0319 124.116C75.4716 126.586 73.3008 129.433 71.5941 132.559C70.8928 133.974 70.3234 135.451 69.8931 136.971C69.4936 137.81 69.2643 138.72 69.2185 139.648C69.2185 140.737 69.2185 141.825 69.2185 142.899C69.2185 147.121 69.2185 151.327 69.2185 155.549C69.1088 157.291 69.6295 159.015 70.6849 160.403C71.7078 161.861 72.9552 163.147 74.3804 164.213C76.7956 166.482 79.4008 168.539 82.1674 170.361C83.825 171.233 85.5515 171.966 87.3293 172.553C89.441 173.303 91.7287 172.994 94.0897 173.406C94.2804 173.406 94.7202 173.935 95.1015 174.009C95.4828 174.083 96.3041 173.891 96.8906 174.009C98.1225 174.141 98.3571 174.583 99.4276 174.789C101.965 175.303 105.484 174.789 108.109 174.789H123.243C128.42 174.789 133.142 174.921 137.908 173.435C142.307 172.067 146.384 171.258 150.475 169.184C152.101 168.518 153.572 167.521 154.794 166.255C156.016 164.989 156.962 163.482 157.573 161.83C158.291 159.903 158.717 158.005 159.289 156.049C159.597 154.975 160.051 153.872 160.389 152.784C160.726 151.695 160.682 150.636 161.019 149.533C162.222 145.562 161.635 141.09 161.694 136.898C161.803 135.954 161.58 135.002 161.063 134.206C160.403 133.088 160.081 131.764 159.333 130.72C158.736 129.961 158.084 129.249 157.382 128.587C156.503 127.832 155.549 127.166 154.537 126.601C150.402 123.895 145.9 121.38 141.984 118.453C138.155 115.815 134.031 113.638 129.695 111.966C124.753 109.583 119.196 109.627 116.776 111.069Z" fill="#F3BC61"/>
<path d="M116.776 107.362C111.643 107.362 106.511 107.068 101.378 108.142C99.1991 108.738 97.0901 109.566 95.087 110.613C94.0898 111.054 93.0926 111.466 92.1541 111.981C91.1044 112.441 90.0209 112.82 88.9132 113.113C79.9617 116.3 72.5504 122.777 68.1773 131.235C67.3177 133.089 66.5876 135.001 65.9923 136.957C65.4889 139.374 65.3407 141.851 65.5524 144.311C65.5524 146.65 65.5524 148.989 65.5524 151.328C65.3525 153.783 65.4608 156.254 65.875 158.682C67.0041 162.977 70.509 165.669 73.6912 168.434C77.2032 171.702 81.3248 174.242 85.8189 175.906C87.8758 176.63 90.0488 176.964 92.2274 176.892C93.6938 176.818 92.0221 176.539 92.8873 177.024C93.4382 177.321 94.0319 177.529 94.647 177.642C95.2121 177.708 95.783 177.708 96.3481 177.642C97.052 177.642 96.5828 177.642 97.184 177.819C101.246 179.393 106.056 178.378 110.382 178.378C120.325 178.378 130.693 179.334 140.342 176.495C148.76 174.009 157.94 171.714 161.283 162.654C162.075 160.55 162.5 158.344 163.19 156.226C164.031 153.682 164.693 151.082 165.169 148.445C165.55 146.131 165.698 143.786 165.609 141.443C165.777 139.062 165.678 136.669 165.316 134.309C164.916 133.225 164.425 132.177 163.849 131.176C163.35 129.958 162.695 128.811 161.899 127.763C160.358 125.963 158.529 124.432 156.488 123.233C151.912 120.291 147.381 117.423 142.923 114.408C138.588 111.51 133.882 109.214 128.933 107.583C124.607 106.112 119.064 105.641 114.943 107.936C110.822 110.23 114.503 116.673 118.668 114.334C119.92 113.903 121.249 113.738 122.569 113.849C124.722 114.02 126.831 114.562 128.801 115.452C133.114 117.207 137.213 119.453 141.017 122.145C145.123 125.086 149.537 127.616 153.804 130.352C155.032 131.11 156.042 132.174 156.737 133.441C157.231 134.334 157.667 135.258 158.042 136.207C158.262 136.795 158.042 136.295 158.042 136.207C158.108 137.063 158.108 137.924 158.042 138.781C158.368 143.576 157.821 148.391 156.429 152.99C155.168 156.593 154.831 161.271 151.839 163.904C148.847 166.537 144.14 167.714 140.21 168.831C138.015 169.543 135.783 170.133 133.523 170.596C131.215 170.911 128.886 171.048 126.557 171.008C120.691 171.008 114.738 171.008 108.828 171.008C106.423 171.008 104.032 171.317 101.627 171.258C100.787 171.278 99.954 171.101 99.1931 170.744C97.8625 170.374 96.4796 170.23 95.1016 170.317L96.964 170.817C96.3582 170.447 95.726 170.123 95.0723 169.846C94.1085 169.635 93.1259 169.522 92.1394 169.508C90.5278 169.466 88.9313 169.183 87.4026 168.67C84.4087 167.518 81.6576 165.812 79.2931 163.639C77.1521 161.771 74.2338 159.947 73.0607 157.241C73.2073 157.564 72.8261 156.27 72.8847 156.638C72.826 155.81 72.826 154.979 72.8847 154.152V148.18C72.8847 146.326 72.8847 144.458 72.8847 142.59C72.7643 141.18 72.8985 139.76 73.2807 138.398C74.1566 135.594 75.4896 132.955 77.2255 130.588C79.2401 127.876 81.7236 125.55 84.5578 123.718C86.0243 122.821 87.4907 122.012 88.9572 121.218C90.5227 120.51 92.1289 119.896 93.7671 119.379C97.184 118.056 100.22 115.879 103.886 115.231C108.158 114.67 112.473 114.498 116.776 114.717C121.601 114.79 121.601 107.362 116.776 107.362Z" fill="#004D2B"/>
<path d="M94.1484 123.718H93.7085C93.27 123.747 92.8339 123.806 92.4033 123.895C92.1568 123.969 91.9165 124.062 91.6848 124.174C91.4607 124.251 91.2446 124.35 91.0395 124.469C90.1235 125.03 89.4529 125.918 89.1624 126.954C88.8988 128.041 89.0561 129.187 89.6023 130.161C89.8758 130.643 90.2335 131.071 90.6582 131.426C91.3124 132.039 92.1088 132.479 92.9753 132.706C93.5451 132.822 94.1243 132.886 94.7057 132.897H95.6149L94.6324 132.765C94.9007 132.827 95.1651 132.906 95.4242 133C95.5965 133.058 95.773 133.102 95.9522 133.132C96.3399 133.208 96.7316 133.262 97.1253 133.294H97.2867C97.6275 133.274 97.966 133.225 98.2986 133.147C98.8041 133.028 99.2797 132.806 99.696 132.495C100.112 132.184 100.46 131.79 100.718 131.338C100.874 131.04 101.006 130.73 101.114 130.411C101.18 130.066 101.224 129.717 101.246 129.367C101.26 128.967 101.2 128.568 101.07 128.19C100.906 127.544 100.597 126.943 100.168 126.434C99.7386 125.924 99.1997 125.519 98.5918 125.248C97.7852 124.895 96.964 124.601 96.1575 124.263L97.0373 124.645H96.9347C96.5262 124.383 96.0553 124.236 95.5709 124.219C95.0909 124.086 94.5844 124.086 94.1044 124.219C93.6401 124.331 93.2115 124.558 92.8579 124.88C92.4589 125.133 92.1348 125.489 91.9194 125.91C91.6722 126.335 91.5124 126.805 91.4494 127.292C91.3864 127.78 91.4216 128.275 91.5528 128.749C91.6742 129.207 91.8844 129.636 92.1712 130.012C92.4581 130.388 92.816 130.703 93.2246 130.941C94.0018 131.308 94.8083 131.573 95.5855 131.897L94.7204 131.529C94.9641 131.617 95.1957 131.735 95.4096 131.882L94.6617 131.308H94.7496L94.1778 130.558C94.1778 130.676 94.3097 130.794 94.3683 130.911L94.0017 130.029V130.19L93.8698 129.22V129.426L94.0017 128.44L94.3683 127.558L94.9403 126.807L95.6882 126.234L96.5535 125.866H96.4361L97.4186 125.734H97.0814L98.0492 125.866C97.6798 125.792 97.3169 125.689 96.964 125.557H96.8321H96.7147C96.3041 125.557 95.9082 125.439 95.4976 125.41C95.0869 125.381 94.647 125.41 94.2217 125.41L95.1897 125.542L94.7057 125.41L95.5855 125.778C95.446 125.719 95.3133 125.645 95.1897 125.557L95.9375 126.131C95.8011 126.023 95.678 125.9 95.5709 125.763L96.1428 126.513C96.0839 126.433 96.0301 126.35 95.9815 126.263L96.3628 127.146C96.3497 127.098 96.3497 127.047 96.3628 126.999L96.4947 127.969C96.4802 127.926 96.4802 127.88 96.4947 127.837L96.3628 128.823C96.3564 128.793 96.3564 128.763 96.3628 128.734L95.9815 129.602L95.4096 130.338C95.4409 130.291 95.4807 130.251 95.5269 130.22L94.779 130.897L94.999 130.779L94.1191 131.147C94.2792 131.085 94.447 131.045 94.6177 131.029L93.6351 131.161C93.8206 131.147 94.0069 131.147 94.1924 131.161C94.6996 131.187 95.2049 131.081 95.6588 130.852C96.1099 130.705 96.5144 130.441 96.8321 130.088C97.4914 129.377 97.8763 128.454 97.9173 127.484C97.9119 126.507 97.5219 125.571 96.8321 124.88C96.1366 124.21 95.2153 123.827 94.2511 123.807L94.1484 123.718Z" fill="#004D2B"/>
<path d="M136.338 125.322H136.25C135.921 125.256 135.588 125.212 135.253 125.189H135.092C134.66 125.201 134.232 125.266 133.816 125.381C133.472 125.505 133.134 125.647 132.804 125.807L132.658 125.881C132.288 126.109 131.94 126.37 131.616 126.66C131.197 127.03 130.836 127.461 130.546 127.94C130.486 128.04 130.433 128.143 130.385 128.249C130.193 128.624 130.041 129.019 129.93 129.426C129.93 129.72 129.827 130.132 129.798 130.441C129.797 130.465 129.797 130.49 129.798 130.514C129.821 130.88 129.87 131.244 129.945 131.603C130.028 131.99 130.172 132.362 130.37 132.706C130.75 133.386 131.308 133.951 131.983 134.338C132.328 134.532 132.692 134.689 133.068 134.809L133.361 134.883C133.883 134.988 134.413 135.042 134.945 135.045C135.501 135.018 136.055 134.954 136.602 134.853L137.218 134.721C137.827 134.546 138.382 134.218 138.828 133.767C139.275 133.316 139.599 132.759 139.77 132.147L139.858 131.75C139.992 131.269 139.992 130.76 139.858 130.279C139.845 129.792 139.698 129.319 139.433 128.911C138.911 128.114 138.136 127.518 137.233 127.219L136.265 127.087C135.611 127.082 134.967 127.255 134.403 127.587L133.669 128.161C133.214 128.609 132.89 129.174 132.731 129.793L132.643 130.176L135.209 127.602C134.955 127.678 134.695 127.732 134.432 127.763L135.415 127.631C135.069 127.675 134.719 127.675 134.373 127.631L135.341 127.763C135.186 127.74 135.034 127.7 134.887 127.646L135.766 128.014C135.684 127.978 135.605 127.934 135.532 127.881L136.265 128.455L136.148 128.322L136.72 129.058C136.685 129.017 136.656 128.973 136.632 128.926L136.998 129.808V129.602L137.13 130.588C137.116 130.515 137.116 130.44 137.13 130.367L136.998 131.338C137.012 131.236 137.042 131.136 137.086 131.044L136.72 131.911C136.784 131.752 136.874 131.603 136.984 131.47L136.412 132.22C136.533 132.064 136.671 131.921 136.822 131.794L136.089 132.367C136.228 132.259 136.381 132.17 136.544 132.103L135.664 132.47C135.762 132.428 135.866 132.398 135.972 132.382L135.004 132.515H135.253L134.271 132.382H134.373C134.847 132.538 135.353 132.563 135.84 132.456C136.314 132.411 136.773 132.264 137.185 132.026C137.598 131.787 137.954 131.462 138.23 131.073C138.551 130.718 138.778 130.288 138.89 129.823L139.022 128.837C139.02 128.186 138.848 127.547 138.523 126.984L137.951 126.234C137.498 125.785 136.938 125.461 136.324 125.292L136.338 125.322Z" fill="#004D2B"/>
<path d="M114.283 134.589C110.265 134.589 106.1 134.206 102.272 135.706C98.495 137.141 95.4093 139.973 93.6496 143.62C92.0218 147.135 90.8634 152.107 92.6818 155.726C94.4492 159.173 97.1943 162.019 100.571 163.904C102.268 164.839 104.051 165.608 105.895 166.198C107.818 166.698 109.78 167.033 111.76 167.199C113.82 167.611 115.909 167.857 118.008 167.934C119.885 167.934 121.791 167.934 123.668 167.816C127.789 167.655 131.734 164.433 133.655 160.844C134.4 159.254 134.895 157.557 135.121 155.814C135.515 153.604 135.461 151.338 134.96 149.151C134.265 147.24 133.21 145.482 131.851 143.973C130.341 142.244 128.447 140.893 126.322 140.031C124.401 139.031 122.818 137.501 120.633 137.089C120.196 137.008 119.755 136.949 119.313 136.913C120.046 137.03 118.975 136.839 118.829 136.795C118.09 136.604 117.412 136.224 116.864 135.692C116.164 135.029 115.238 134.659 114.275 134.659C113.313 134.659 112.387 135.029 111.687 135.692C111.005 136.385 110.622 137.321 110.622 138.295C110.622 139.27 111.005 140.205 111.687 140.899C112.861 141.974 114.21 142.84 115.676 143.458C116.849 143.944 118.184 143.826 119.313 144.267C119.665 144.4 120.97 145.429 121.644 145.856C123.017 146.468 124.345 147.175 125.619 147.974C126.552 148.702 127.264 149.677 127.673 150.79C128.083 151.902 128.174 153.108 127.936 154.269C127.613 156.74 126.806 159.02 124.387 160.271C123.47 160.55 122.502 160.615 121.556 160.462C120.002 160.462 118.433 160.712 116.893 160.594C115.353 160.477 114.136 160.182 112.758 159.991C111.088 159.854 109.435 159.568 107.816 159.138C105.343 158.405 103.084 157.083 101.231 155.284C100.358 154.441 99.6469 153.444 99.1342 152.342C99.3248 152.843 99.1342 152.342 99.1342 152.078C99.1342 151.813 99.1342 151.357 99.1342 151.004C99.1357 150.329 99.2195 149.658 99.3835 149.003C99.6784 147.635 100.288 146.354 101.164 145.264C102.04 144.173 103.158 143.303 104.428 142.723C107.361 141.428 111.042 141.973 114.195 141.987C119.005 141.973 119.005 134.618 114.283 134.589Z" fill="#004D2B"/>
<path d="M112.377 132.676C117.084 132.676 117.099 125.322 112.377 125.322C107.655 125.322 107.64 132.676 112.377 132.676Z" fill="#004D2B"/>
<path d="M24.0956 104.788C22.4782 106.287 21.1029 108.028 20.0188 109.951C18.9227 112.122 18.1094 114.426 17.5991 116.805C17.3403 117.988 17.2563 119.202 17.3499 120.409C17.4231 121.279 17.3787 122.155 17.2178 123.012C16.893 125.622 16.7948 128.255 16.9245 130.882C16.9245 131.857 17.3108 132.792 17.9983 133.482C18.6859 134.172 19.6184 134.559 20.5907 134.559C21.563 134.559 22.4956 134.172 23.1831 133.482C23.8707 132.792 24.2569 131.857 24.2569 130.882C24.2569 129.72 24.2569 128.573 24.2569 127.41C24.2569 126.91 24.2569 126.396 24.2569 125.94C24.2232 125.632 24.2232 125.321 24.2569 125.013C24.5198 123.754 24.6672 122.474 24.6969 121.189C24.6969 120.806 24.6968 120.438 24.6235 120.071C24.5501 119.703 24.6235 118.438 24.6235 119.218C24.7834 118.272 25.0239 117.342 25.3421 116.438C25.588 115.557 25.9119 114.701 26.3099 113.878C27.0434 112.408 28.0661 111.102 29.3162 110.039C29.6668 109.7 29.9466 109.295 30.1394 108.847C30.3321 108.398 30.4339 107.916 30.4388 107.428C30.4438 106.939 30.3516 106.455 30.1679 106.003C29.9842 105.551 29.7126 105.14 29.3689 104.794C29.0252 104.448 28.6162 104.175 28.1659 103.989C27.7157 103.804 27.2331 103.71 26.7463 103.713C26.2595 103.717 25.7783 103.818 25.3307 104.01C24.8832 104.202 24.4783 104.481 24.1396 104.832L24.0956 104.788Z" fill="#004D2B"/>
<path d="M9.4309 95.168C9.4309 94.7562 8.90299 96.0947 8.80033 96.3153C8.59503 96.786 8.47772 97.3891 8.25775 97.7862C7.8618 98.5364 7.21656 99.1542 6.79128 99.9191C6.36601 100.684 5.92609 101.758 5.53015 102.699C4.06368 106.318 3.25709 110.127 1.92261 113.805C1.47759 115.673 1.28042 117.592 1.33608 119.512C1.1601 121.644 0.866733 123.748 0.705422 125.866C0.353471 130.19 0.485521 134.5 0.500185 138.825C0.500185 143.561 7.83251 143.561 7.83251 138.825C7.83251 134.618 7.68585 130.426 8.00847 126.219C8.16979 124.101 8.40439 121.983 8.62436 119.865C8.72702 118.894 8.62438 117.908 8.72703 116.923C8.86906 116.122 9.12075 115.345 9.47494 114.613C10.0317 112.879 10.4968 111.116 10.8681 109.333C11.3549 107.56 12.0181 105.84 12.8478 104.199C14.3143 101.258 16.5726 98.5512 16.734 95.1092C16.9686 90.3876 9.63627 90.3876 9.40163 95.1092L9.4309 95.168Z" fill="#004D2B"/>
<path d="M219.062 105.979C219.081 107.094 219.305 108.196 219.722 109.23L220.132 110.215C220.323 110.701 220.499 111.186 220.646 111.686C220.924 112.584 221.129 113.481 221.32 114.393C221.511 115.305 221.657 116.114 221.716 116.776C221.925 118.867 222.253 120.944 222.699 122.998C222.699 123.439 222.699 123.468 222.699 123.101C222.699 123.351 222.699 123.601 222.699 123.851C222.699 124.101 222.699 124.63 222.772 125.013C222.843 125.719 222.95 126.421 223.095 127.116C223.095 127.572 223.095 127.616 223.095 127.278C223.109 127.538 223.109 127.798 223.095 128.058C223.095 129.033 223.481 129.968 224.168 130.658C224.856 131.347 225.788 131.735 226.761 131.735C227.733 131.735 228.666 131.347 229.353 130.658C230.041 129.968 230.427 129.033 230.427 128.058C230.427 126.822 230.075 125.631 229.943 124.41C230.016 125.057 229.943 123.851 229.943 123.851C229.943 123.145 229.796 122.453 229.694 121.762C229.591 121.071 229.386 120.071 229.195 119.232C229.012 118.425 228.899 117.603 228.858 116.776C228.663 114.654 228.29 112.553 227.743 110.495C227.506 109.616 227.217 108.751 226.878 107.906C226.702 107.509 226.541 107.112 226.365 106.7C226.511 107.068 226.511 107.053 226.365 106.7C226.218 106.347 226.233 106.288 226.189 106.082C226.189 106.509 226.189 106.479 226.189 106.009C226.189 105.033 225.803 104.098 225.115 103.408C224.427 102.719 223.495 102.331 222.523 102.331C221.55 102.331 220.618 102.719 219.93 103.408C219.243 104.098 218.856 105.033 218.856 106.009L219.062 105.979Z" fill="#004D2B"/>
<path d="M230.002 94.8445C230.631 94.7396 231.276 94.7734 231.891 94.9436C232.507 95.1138 233.078 95.4162 233.565 95.83C234.662 96.8099 235.646 97.9102 236.498 99.1101C237.407 100.316 238.463 101.419 239.431 102.626C240.356 103.992 241.096 105.476 241.631 107.038C242.202 108.509 243.009 109.892 243.522 111.451C243.901 112.863 244.113 114.314 244.153 115.776C244.49 119.438 244.256 123.13 244.27 126.881C244.27 131.617 251.602 131.617 251.602 126.881C251.737 122.677 251.644 118.469 251.324 114.275C251.201 112.067 250.731 109.893 249.931 107.833C249.183 106.082 248.464 104.361 247.716 102.596C246.25 99.0072 243.581 96.1977 241.22 93.1823C239.967 91.5349 238.445 90.1125 236.718 88.9755C234.728 87.8129 232.427 87.299 230.133 87.5046C225.411 87.5046 225.397 94.8592 230.133 94.8592L230.002 94.8445Z" fill="#004D2B"/>
<path d="M106.878 54.6738H104.297C103.333 54.7184 102.415 55.098 101.701 55.7476C101.045 56.4588 100.665 57.3826 100.63 58.3511L100.762 59.3219C100.927 59.9392 101.251 60.5022 101.701 60.9546L102.449 61.5283C103.01 61.8542 103.648 62.0266 104.297 62.0284H106.878C107.387 62.0587 107.894 61.9466 108.344 61.7048C108.791 61.5469 109.197 61.2906 109.532 60.9545C109.867 60.6185 110.122 60.2114 110.28 59.7632C110.522 59.3128 110.634 58.8032 110.602 58.2923L110.47 57.3215C110.306 56.7042 109.982 56.1411 109.532 55.6887L108.784 55.1151C108.222 54.7892 107.585 54.6167 106.936 54.615L106.878 54.6738Z" fill="#004D2B"/>
<path d="M125.677 50.6141H123.83C123.321 50.5693 122.811 50.6768 122.363 50.923C121.907 51.0683 121.497 51.3322 121.175 51.6878C120.83 52.0126 120.569 52.4164 120.413 52.8646C120.185 53.3199 120.079 53.8267 120.105 54.3355L120.237 55.3063C120.405 55.9178 120.729 56.4752 121.175 56.9243L121.923 57.498C122.484 57.8284 123.121 58.0059 123.771 58.0128H125.619C126.128 58.0431 126.636 57.9311 127.085 57.6892C127.525 57.5192 127.925 57.2586 128.258 56.9242C128.592 56.5898 128.852 56.1889 129.021 55.7476C129.262 55.2966 129.374 54.7874 129.344 54.2766L129.212 53.2911C129.038 52.6786 128.71 52.1214 128.258 51.6731L127.525 51.0995C126.966 50.7669 126.327 50.594 125.677 50.5994V50.6141Z" fill="#004D2B"/>
<path d="M33.8472 50.6582L34.1992 50.7465L31.7208 46.2308C31.6475 46.4514 31.5742 46.672 31.4862 46.878C31.4384 46.9824 31.3991 47.0907 31.3689 47.2016C31.2516 47.4516 31.3689 47.334 31.5155 46.8338C31.3317 47.1515 31.1795 47.4865 31.0609 47.8341C30.5916 48.8343 30.137 49.8492 29.7557 50.8935C29.4624 51.7172 29.1839 52.541 28.9052 53.3794C28.6201 54.3391 28.4285 55.3243 28.3333 56.3212L28.4653 55.3504C28.4653 55.5564 28.392 55.7475 28.348 55.9535C28.3545 56.0367 28.3545 56.1203 28.348 56.2035C28.4549 55.793 28.6672 55.4177 28.9639 55.1151H34.1551L32.9673 53.8354L32.3514 53.0999L32.0434 52.7175C32.762 53.5265 32.3221 53.0705 32.1607 52.8499C31.8313 52.3765 31.5278 51.8855 31.2515 51.379C31.7355 52.2468 31.5155 52.0409 31.4128 51.6878L31.2809 51.1142C31.1802 50.6872 31.1018 50.2551 31.0462 49.8198L31.1782 50.8053C31.0914 49.0819 30.8856 47.3666 30.5624 45.6718C29.8731 43.2154 27.6294 41.009 24.9458 41.7445C23.9136 42.1169 22.9865 42.734 22.2435 43.5433C21.5005 44.3526 20.9634 45.3301 20.6783 46.3925C20.4437 46.9956 20.2677 47.6281 20.0477 48.2606C19.9451 48.5401 19.6518 49.0402 20.1504 48.0841C20.1504 48.1871 20.0478 48.3047 19.9891 48.4224L19.7105 48.8931C19.3879 49.4373 20.2824 48.2312 19.8278 48.7313C19.159 49.4239 18.7881 50.3523 18.795 51.3165C18.802 52.2807 19.1863 53.2036 19.8651 53.8864C20.5439 54.5692 21.4628 54.9572 22.4241 54.967C23.3854 54.9767 24.312 54.6073 25.0044 53.9383C26.1026 52.6576 26.9085 51.1515 27.3655 49.5256C27.4535 49.2461 27.5268 48.9814 27.6294 48.7166C27.6998 48.5813 27.754 48.4381 27.7907 48.29C27.7907 48.29 27.3948 49.1138 27.6294 48.6725L27.8493 48.2753C28.0546 47.937 28.1573 48.1135 27.6587 48.4813C27.7576 48.4046 27.8463 48.3157 27.9226 48.2165C27.7052 48.4615 27.4269 48.6442 27.1161 48.746C26.7495 48.8784 26.6762 48.9078 26.8962 48.8637L25.9283 48.9961H25.855L24.8725 48.8637C25.2244 48.9373 25.0191 48.8637 24.2858 48.5989C23.8688 48.3694 23.5236 48.0283 23.2887 47.6134C23.6113 48.3195 23.098 46.9368 23.2007 47.3045C23.3033 47.6723 23.406 48.04 23.4646 48.4224L23.3327 47.4369C23.6993 50.1581 23.6113 52.9234 24.8871 55.4092C25.9575 57.2091 27.27 58.8524 28.7879 60.2927C29.4795 60.9772 30.412 61.3609 31.3836 61.3609C32.3551 61.3609 33.2876 60.9772 33.9792 60.2927C35.0246 59.0197 35.6042 57.4262 35.6216 55.777L35.5043 56.7625C35.822 55.249 36.2887 53.7708 36.8975 52.3498C37.0441 51.9085 36.5015 53.2029 36.8975 52.4969L37.1321 51.9967C37.2787 51.6584 37.44 51.3201 37.5867 50.9965C38.0289 50.0372 38.4205 49.0553 38.7598 48.0547C39.0045 47.113 38.8733 46.1128 38.394 45.2667C37.9148 44.4206 37.1253 43.7955 36.1935 43.5243L35.8416 43.436C34.9065 43.1865 33.9112 43.3148 33.0694 43.7934C32.2276 44.2719 31.6065 45.0626 31.3395 45.9954C31.0981 46.935 31.229 47.9318 31.7048 48.7766C32.1806 49.6214 32.9642 50.2483 33.8912 50.5258L33.8472 50.6582Z" fill="#004D2B"/>
<path d="M216.892 54.2473L217.42 54.4238L216.554 54.0561C216.8 54.1699 217.032 54.3131 217.244 54.4826L216.496 53.909C216.998 54.3391 217.442 54.8336 217.815 55.3799L217.244 54.6297C217.962 55.5711 218.622 56.5566 219.399 57.4392C220.304 58.4604 221.455 59.2304 222.743 59.6749C223.215 59.8057 223.709 59.8406 224.195 59.7774C224.681 59.7143 225.149 59.5544 225.573 59.3072C226.377 58.8012 226.975 58.0242 227.26 57.1156C227.467 56.3895 227.551 55.6338 227.509 54.8798C227.478 54.39 227.478 53.8987 227.509 53.4089L227.377 54.3797C227.479 53.7031 227.699 53.0706 227.861 52.4087C228.088 51.5301 228.191 50.6241 228.169 49.7169C228.013 48.4631 227.944 47.2 227.963 45.9366L227.831 46.9074C227.87 46.6119 227.939 46.3212 228.037 46.0396L227.67 46.9222L227.831 46.6427L227.26 47.3929C227.335 47.2845 227.424 47.1857 227.523 47.0987L226.79 47.687C226.918 47.5813 227.061 47.4969 227.215 47.437L226.336 47.8047C226.497 47.7451 226.664 47.7008 226.834 47.6723L225.852 47.8047C226.105 47.7826 226.361 47.7826 226.614 47.8047L225.646 47.6723C226.024 47.7321 226.393 47.8357 226.746 47.9812L225.866 47.6135C226.138 47.7284 226.394 47.8766 226.629 48.0547L225.896 47.4811C226.051 47.6031 226.194 47.7411 226.321 47.893L225.749 47.1575C225.846 47.2757 225.929 47.4039 225.998 47.5399L225.632 46.6721C225.638 46.7504 225.638 46.8291 225.632 46.9074C225.895 47.8463 226.518 48.643 227.363 49.1248C228.209 49.6067 229.209 49.7349 230.148 49.4815C231.072 49.204 231.853 48.5793 232.329 47.7379C232.804 46.8964 232.937 45.9033 232.7 44.9658C231.879 41.5827 227.465 39.6558 224.312 40.7149C223.104 41.086 222.066 41.8725 221.379 42.936C220.799 43.953 220.491 45.1032 220.484 46.275C220.484 47.7459 220.866 49.2168 220.675 50.7612L220.807 49.7904C220.675 50.6141 220.367 51.4084 220.22 52.2321C220.084 52.8899 220.02 53.5608 220.03 54.2326C220.075 54.7219 220.075 55.2142 220.03 55.7035L220.162 54.718C220.162 54.8651 220.162 54.9975 220.059 55.1446L224.561 52.5705L224.356 52.4969L225.221 52.8647C224.978 52.7454 224.747 52.6025 224.532 52.4381L225.265 53.0117C224.77 52.574 224.327 52.0804 223.945 51.5408L224.517 52.291C222.948 50.2317 221.438 47.7312 218.651 47.1428C217.695 46.9068 216.686 47.0379 215.821 47.5105C215.001 48.0055 214.398 48.7939 214.135 49.7169C213.89 50.6566 214.022 51.6549 214.502 52.4986C214.981 53.3423 215.77 53.9646 216.701 54.2326L216.892 54.2473Z" fill="#004D2B"/>
<path d="M108.417 74.59C110.303 74.4787 112.14 73.9514 113.799 73.0456C115.448 72.3336 117.132 71.7052 118.844 71.1628C119.284 71.0304 119.724 70.9422 120.163 70.8392C120.325 70.8392 120.882 70.7509 120.163 70.8392H120.794L122.847 70.7215C123.214 70.7215 123.58 70.7215 123.947 70.7215C124.128 70.7343 124.309 70.7343 124.49 70.7215C124.49 70.7215 123.815 70.545 124.182 70.7215C124.339 70.7916 124.508 70.8316 124.68 70.8392C125.135 70.8392 124.079 70.5303 124.475 70.7656C124.871 71.001 123.947 70.2802 124.299 70.6332C124.651 70.9863 123.888 69.8537 124.211 70.5156C124.28 70.6672 124.359 70.8146 124.446 70.9568C124.651 71.3099 124.666 71.0745 124.446 70.8245C124.622 70.9863 124.68 71.5158 124.739 71.7658C124.798 72.0159 124.739 72.1336 124.856 72.3248C125.003 72.8396 124.856 71.6629 124.856 72.1777C124.885 72.5792 124.885 72.9823 124.856 73.3838C124.856 73.3838 125.047 72.4425 124.856 73.1044C124.666 73.7663 124.856 72.8984 124.959 72.8837C124.877 72.9908 124.804 73.1039 124.739 73.2221C124.519 73.6633 125.149 72.7955 124.739 73.2221C124.328 73.6486 123.683 74.34 123.14 74.8842L123.287 74.7665C123.522 74.6047 123.492 74.6194 123.199 74.7665C123.287 74.6488 123.932 74.5606 123.272 74.693L122.261 74.8842L121.058 75.0901L120.515 75.1931C120.515 75.1931 119.313 75.3696 120.031 75.2813C119.137 75.399 118.213 75.4578 117.319 75.4872H116.013C114.928 75.4872 116.013 75.4872 116.013 75.4872C116.013 75.4872 115.251 75.2813 115.148 75.2519C115.046 75.2225 115.647 75.5167 115.324 75.2519C115.002 74.9872 114.855 74.9871 114.635 74.8548C114.063 74.5164 114.459 74.7518 114.635 74.8548L113.916 74.2223C113.726 74.0311 113.124 73.575 113.08 73.325C113.08 73.325 113.506 73.9722 113.3 73.5898L113.037 73.1779C112.861 72.869 112.714 72.5601 112.567 72.2513C112.476 72.1084 112.403 71.9553 112.347 71.7953C112.347 72.163 112.553 72.3395 112.347 71.7953C112.142 71.251 112.113 71.1039 112.025 70.7509C112.012 70.6057 111.983 70.4625 111.937 70.3244L112.025 70.898C112.025 70.5008 112.025 70.6627 111.922 71.3834C112.155 70.4461 112.021 69.4546 111.546 68.6141C111.071 67.7736 110.292 67.1484 109.37 66.8677C107.611 66.4706 105.162 67.3972 104.854 69.4271C104.208 73.678 106.789 77.9731 110.03 80.4884C112.167 82.1101 114.823 82.8898 117.495 82.68C119.999 82.5956 122.489 82.2655 124.93 81.6945C127.208 80.9958 129.172 79.5242 130.487 77.5318C131.228 76.5158 131.735 75.3475 131.971 74.1113C132.206 72.8751 132.166 71.6017 131.851 70.3832C131.698 69.1809 131.296 68.0239 130.673 66.9857C130.049 65.9474 129.217 65.0507 128.229 64.3525C126.257 63.3666 124.031 63.0074 121.85 63.3228C119.311 63.4568 116.808 63.9827 114.43 64.882C113.286 65.3085 112.171 65.794 111.042 66.2352C110.5 66.4412 109.942 66.6323 109.414 66.853L108.857 67.0736L108.27 67.2796C108.769 67.2796 108.813 67.2796 108.388 67.2796C107.418 67.2873 106.49 67.6771 105.804 68.3651C105.118 69.0531 104.729 69.9839 104.722 70.9568C104.748 71.9239 105.142 72.8442 105.824 73.5283C106.506 74.2124 107.424 74.6081 108.388 74.6341L108.417 74.59Z" fill="#004D2B"/>
</g>
<defs>
<clipPath id="clip0_82_182">
<rect width="251" height="200" fill="white" transform="translate(0.5)"/>
</clipPath>
</defs>
</svg>
