<svg width="240" height="131" viewBox="0 0 240 131" fill="none" xmlns="http://www.w3.org/2000/svg">
<g clip-path="url(#clip0_195_1592)">
<path d="M46.1097 14.2879C45.9052 13.6667 44.3872 12.5635 43.7843 12.028C42.422 10.8981 40.6911 10.3037 38.9183 10.3572C36.6335 10.1706 34.3342 10.2605 32.0712 10.6249C29.2664 11.3712 26.599 12.557 24.1692 14.138C22.3067 15.4232 20.8426 16.912 18.9263 18.208C16.6528 19.735 14.4939 21.4246 12.4669 23.2633C9.76246 25.7993 7.53491 28.7952 5.88903 32.1102C4.11257 35.5295 3.03082 39.2636 2.70571 43.099C2.38059 46.9344 2.81847 50.796 3.99425 54.463C6.24055 61.8369 11.0483 68.1765 17.559 72.3495C23.1266 75.7863 29.3652 78.006 35.8607 78.8615C39.2196 79.3649 49.6624 80.8429 48.6181 76.548" fill="#F3BC61"/>
<path d="M48.435 12.9383C47.6598 11.321 45.2806 9.5431 43.7196 8.78265C41.2973 7.59379 38.5521 7.62591 35.9145 7.60449C30.6591 7.70279 25.5852 9.5336 21.4884 12.8098C19.3998 14.4271 17.3005 16.0229 15.1905 17.5974C12.8855 19.259 10.7475 21.1385 8.80633 23.2097C5.24528 27.1453 2.63466 31.838 1.17347 36.9298C-0.107808 41.7429 -0.304113 46.7782 0.598523 51.6756C1.50116 56.573 3.4804 61.2114 6.39482 65.2591C12.4021 73.8275 22.0375 78.84 32.1572 80.9071C36.8618 81.871 53.1504 85.0842 51.2556 75.841C51.0571 75.1605 50.5996 74.5839 49.9803 74.2339C49.3611 73.8838 48.6289 73.788 47.9397 73.9667C47.2587 74.1689 46.6827 74.6249 46.3316 75.2396C45.9806 75.8542 45.8816 76.5801 46.0557 77.2655C45.9911 76.9442 46.0557 76.987 46.0557 76.8371C46.1177 76.682 46.2091 76.5402 46.3248 76.4194C46.0772 76.73 46.4002 76.4194 46.4755 76.323C46.3752 76.3957 46.2669 76.4568 46.1527 76.5051C46.7448 76.3123 46.0557 76.5051 45.8189 76.5908C45.582 76.6764 45.2913 76.7086 45.0222 76.7514C45.4313 76.7514 44.5916 76.8264 45.0222 76.7514H44.6347C43.8811 76.7514 43.1383 76.7514 42.3954 76.7514C41.0067 76.7514 39.6179 76.58 38.2291 76.4194L37.6477 76.3444L37.1633 76.2802C36.2052 76.1409 35.2577 75.9803 34.2996 75.7982C25.8377 74.1809 17.5051 70.5072 11.9823 63.706C9.46705 60.6434 7.60716 57.1019 6.51677 53.2987C5.42639 49.4955 5.12848 45.5107 5.64127 41.5889C6.37101 37.248 8.05859 33.1219 10.5827 29.5074C13.1557 25.7374 16.7945 22.8884 20.5087 20.2964C22.5434 18.8612 24.309 17.0833 26.4513 15.7873C28.4235 14.589 30.5643 13.6901 32.8031 13.1204C33.99 12.8871 35.2023 12.8079 36.4096 12.8848C37.6031 12.8489 38.7977 12.8991 39.9839 13.0347C40.7733 13.1655 41.5152 13.4976 42.1371 13.9987C42.5139 14.2985 42.9014 14.6092 43.2136 14.9305L43.5904 15.2732C44.1287 15.8302 43.5904 15.0804 43.8057 15.5624C44.1711 16.17 44.7618 16.6104 45.4505 16.7887C46.1392 16.967 46.8709 16.8689 47.4876 16.5156C48.0938 16.1481 48.5333 15.5613 48.714 14.8784C48.8946 14.1954 48.8024 13.4694 48.4565 12.8526L48.435 12.9383Z" fill="#004D2B"/>
<path d="M189.035 16.7623C191.188 16.6659 192.265 14.7916 193.977 14.2667C196.7 13.442 200.587 13.3778 203.569 13.3242C210.48 13.2064 217.812 16.6659 222.086 20.0183C224.454 21.8712 226.747 23.3707 228.481 25.502C230.168 27.5665 231.613 29.816 232.787 32.2068C235.282 36.9436 236.718 42.161 236.996 47.5014C237.072 49.8363 237.782 52.4496 237.104 54.7738C236.932 55.3522 236.727 56.0698 236.533 56.616C236.306 57.7589 236.004 58.8859 235.629 59.9898C235.102 60.9966 234.187 62.0462 233.584 63.0637C233.097 63.8678 232.565 64.6438 231.99 65.3879C230.729 67.1114 229.286 68.695 227.684 70.1112C224.873 72.4421 221.708 74.3147 218.307 75.6593C216.875 76.2483 215.68 76.666 214.356 77.3622C213.829 77.63 212.461 78.4333 211.902 78.6475C210.739 79.0009 208.672 79.1295 207.423 79.3544C206.037 79.596 204.631 79.7036 203.224 79.6757C200.856 79.6757 195.624 78.6046 195.613 76.5161" fill="#D1C8E1"/>
<path d="M189.035 19.4285C191.188 19.225 192.427 18.2717 194.128 17.1686C195.409 16.3439 197.357 16.2689 198.897 16.1511C202.948 15.733 207.042 16.0966 210.954 17.2221C214.635 18.4332 218.074 20.2745 221.117 22.663C222.852 23.8809 224.479 25.2424 225.983 26.733C227.389 28.3258 228.603 30.0763 229.601 31.949C231.813 35.8331 233.318 40.0754 234.047 44.4803C234.359 46.5367 234.402 48.6467 234.596 50.7138C234.72 51.6595 234.72 52.6171 234.596 53.5628C234.434 54.516 234.025 55.4157 233.778 56.3475C233.642 57.1993 233.433 58.0378 233.153 58.8538C232.57 59.8579 231.923 60.8239 231.215 61.7456C230.118 63.486 228.86 65.121 227.458 66.6296C224.526 69.5655 220.994 71.841 217.102 73.3022C215.939 73.7735 214.765 74.2126 213.635 74.7589C212.784 75.1552 211.999 75.7014 211.137 76.087C210.867 76.1761 210.59 76.2442 210.308 76.2905C209.889 76.3762 209.469 76.4297 209.049 76.4833C208.037 76.6118 207.025 76.7831 206.013 76.901C204.268 77.1411 202.494 77.0795 200.77 76.7189C200.037 76.5791 199.317 76.3784 198.617 76.1191C198.617 76.1191 197.842 75.7764 198.014 75.8085C198.186 75.8406 197.96 75.8085 197.928 75.7121C198.025 76.0548 198.175 76.1512 198.208 76.5475C198.191 75.8425 197.902 75.1709 197.401 74.6722C196.9 74.1736 196.225 73.8862 195.516 73.8699C194.805 73.8782 194.125 74.163 193.622 74.6634C193.12 75.1637 192.833 75.84 192.825 76.5475C193.148 80.6068 197.82 81.7528 201.19 82.2027C203.398 82.4652 205.633 82.4003 207.821 82.0099C209.781 81.6993 211.816 81.6671 213.635 80.7889C215.454 79.9106 217.403 78.9145 219.373 78.0898C221.682 77.1604 223.895 76.0126 225.983 74.6625C230.037 71.8625 233.458 68.2509 236.028 64.0591C236.724 63.1421 237.357 62.1795 237.922 61.178C238.384 59.9378 238.744 58.6627 238.999 57.365C239.751 55.1511 240.033 52.8061 239.828 50.4782C239.58 48.0041 239.494 45.5192 239.107 43.0558C238.686 40.4934 238 37.981 237.061 35.5585C235.253 30.878 232.755 26.0261 229.181 22.4488C227.407 20.8252 225.533 19.3121 223.572 17.9183C221.8 16.5431 219.896 15.3449 217.888 14.341C213.049 11.8573 207.668 10.6026 202.223 10.6887C199.551 10.6787 196.883 10.9225 194.257 11.417C193.103 11.6563 192.006 12.1145 191.027 12.7666C190.446 13.1843 189.671 14.0304 188.938 14.1054C188.23 14.1217 187.555 14.4091 187.054 14.9077C186.552 15.4064 186.263 16.078 186.247 16.783C186.253 17.4914 186.538 18.1692 187.042 18.6702C187.545 19.1711 188.226 19.455 188.938 19.4606L189.035 19.4285Z" fill="#004D2B"/>
<path d="M161.744 15.5301C164.672 15.3801 167.03 14.7375 170.012 14.6411C173.242 14.5233 176.612 14.0841 179.701 14.6411C184.535 15.5515 188.012 16.4512 191.673 18.9253C194.314 20.5897 196.67 22.6654 198.649 25.0731C201.879 29.2288 204.484 33.845 205.108 38.5041C205.345 40.3677 206.185 42.0492 206.185 43.9557C206.185 45.4766 206.282 46.9975 206.336 48.5077C206.465 51.5816 206.885 54.6876 206.282 57.7401C205.754 60.3642 205.733 62.9989 204.699 65.5909C203.611 67.8959 202.157 70.0116 200.393 71.8565C199.729 72.9058 198.921 73.8575 197.992 74.6841C196.824 75.4381 195.716 76.2795 194.676 77.2011C192.448 79.5681 191.274 81.4853 187.259 82.6848C183.606 83.7028 179.824 84.1898 176.03 84.1307C174.2 84.1307 172.693 83.7666 170.895 83.713C169.349 83.7575 167.802 83.6895 166.266 83.5095" fill="#8CA54F"/>
<path d="M161.744 18.2076C163.843 18.0791 165.91 17.6828 167.999 17.4579C170.087 17.233 172.456 17.158 174.674 17.0723C178.603 16.993 182.511 17.6694 186.182 19.0645C193.234 21.6671 199.101 28.3505 201.566 35.3123C202.223 37.1866 202.395 39.1359 202.912 41.0424C203.194 41.92 203.403 42.8191 203.537 43.7307C203.644 44.8018 203.612 45.8728 203.655 47.0081C203.741 49.2252 203.935 51.4423 203.967 53.6593C203.903 55.8665 203.665 58.0652 203.257 60.2356C203.073 62.2537 202.499 64.2175 201.566 66.0193C200.524 67.6067 199.376 69.1237 198.132 70.5605C197.738 71.1478 197.306 71.7095 196.84 72.242C196.215 72.7889 195.545 73.2833 194.838 73.7201C193.462 74.7805 192.199 75.9793 191.07 77.2974C188.529 79.9857 184.869 80.8533 181.122 81.2174C178.684 81.4958 176.224 81.5282 173.78 81.3138C171.562 81.0568 169.291 81.2496 167.095 80.939C166.407 80.7681 165.68 80.8661 165.063 81.2129C164.446 81.5596 163.987 82.1286 163.779 82.8026C163.596 83.4884 163.691 84.218 164.044 84.8348C164.396 85.4516 164.977 85.9063 165.663 86.1014C167.988 86.4334 170.314 86.2728 172.65 86.5298C174.977 86.7868 177.322 86.8406 179.658 86.6905C183.9 86.412 188.777 85.8015 192.351 83.2846C193.682 82.285 194.899 81.1428 195.979 79.8786C197.325 78.3899 199.047 77.5223 200.501 76.1621C201.779 74.7957 202.955 73.3388 204.021 71.8029C205.522 70.0202 206.711 68.0001 207.541 65.8265C208.184 63.4964 208.634 61.1178 208.887 58.7147C209.312 56.196 209.431 53.6358 209.242 51.0888C209.102 48.7218 209.059 46.3441 208.941 43.9663C208.822 41.5886 207.994 39.4358 207.606 37.1438C206.852 32.6132 204.376 28.3826 201.739 24.7196C199.046 21.0572 195.609 17.9992 191.651 15.7442C187.435 13.4627 182.777 12.1077 177.989 11.7706C172.531 11.3208 167.159 12.5203 161.744 12.8417C158.31 13.0559 158.278 18.4111 161.744 18.1969V18.2076Z" fill="#004D2B"/>
<path d="M87.73 15.9697C87.8377 12.8958 81.938 8.9436 77.7286 7.95824C71.5276 6.4909 66.3492 6.9943 60.342 8.81508C53.8622 10.9586 47.9674 14.5617 43.1168 19.3435C39.1766 23.1029 37.5617 28.2975 35.1717 32.5174C33.0186 36.2661 32.6311 40.411 31.7483 44.2989C30.8225 48.3689 31.6191 52.9423 32.9541 56.8945C34.289 60.8466 36.0331 64.7024 39.8334 67.8406C44.699 72.0223 50.0135 75.6573 55.6805 78.6796C57.1877 79.4615 59.1362 79.7507 60.7726 80.4468C62.409 81.143 63.8193 82.032 65.8863 82.1819C69.7322 82.3341 73.5841 82.1405 77.3949 81.6036" fill="#D1C8E1"/>
<path d="M90.4215 15.969C90.3569 11.4599 85.4369 8.20393 81.755 6.56522C76.6082 4.47565 70.9703 3.88502 65.4988 4.86225C59.8951 5.74397 54.5317 7.75588 49.7378 10.7744C45.4315 13.4949 41.0499 16.8687 38.1539 21.1315C36.8304 23.1833 35.6644 25.3315 34.6658 27.5578C33.39 29.8981 32.24 32.3042 31.2208 34.7659C30.4207 37.3717 29.7914 40.0263 29.3368 42.7131C28.6739 45.6255 28.5354 48.6317 28.9277 51.5921C29.5644 56.7407 31.4405 61.6604 34.3967 65.9335C36.1229 68.1222 38.1361 70.071 40.3825 71.7278C42.6002 73.4951 44.861 75.2087 47.2187 76.7832C49.8657 78.7067 52.7223 80.3271 55.7344 81.6136C57.0693 82.117 58.4688 82.3848 59.793 82.9203C61.0956 83.5661 62.4451 84.1139 63.8301 84.559C66.1666 84.9799 68.55 85.0808 70.914 84.8589C73.3369 84.8146 75.7539 84.6071 78.1485 84.2377C78.8341 84.0426 79.4155 83.5878 79.7677 82.971C80.12 82.3543 80.215 81.6246 80.0325 80.9389C79.8271 80.2634 79.3678 79.6927 78.7502 79.3456C78.1326 78.9985 77.4043 78.9016 76.7168 79.0752C75.1214 79.3046 73.515 79.4511 71.9044 79.5144C70.0802 79.6303 68.2514 79.6554 66.4247 79.5893C64.3469 79.4822 62.5921 78.2612 60.6758 77.5972C59.5992 77.233 58.5227 77.0188 57.4461 76.5261C56.27 75.9965 55.1331 75.3844 54.0441 74.6946C49.8484 72.2042 45.866 69.3742 42.1373 66.2334C38.8706 63.4071 36.5213 59.6794 35.3872 55.5229C34.5938 53.1802 34.1583 50.7324 34.0952 48.2612C34.2115 45.8992 34.5723 43.5555 35.1718 41.2672C35.546 38.9218 36.2377 36.6375 37.2281 34.4768C38.2293 32.5167 39.2305 30.5567 40.1994 28.5753C41.1007 26.5901 42.2047 24.7023 43.4938 22.9416C44.8679 21.3084 46.4164 19.8288 48.1122 18.5288C51.7008 15.5308 55.8037 13.2015 60.2236 11.6527C65.4595 9.7499 71.1207 9.31638 76.5876 10.3996C78.6347 10.8709 80.5716 11.729 82.2933 12.9272C83.093 13.4605 83.8172 14.0982 84.4465 14.823C84.6573 15.0709 84.8413 15.3401 84.9955 15.6263C84.9955 15.7013 85.2001 16.1083 84.9955 15.7227C85.2001 16.2261 84.9955 15.3907 84.9955 15.9476C84.9955 19.3964 90.3784 19.4071 90.3784 15.9476L90.4215 15.969Z" fill="#004D2B"/>
<path d="M129.361 3.56691C125.829 3.56691 122.794 2.75292 119.23 2.7315C116.962 2.68505 114.704 3.04793 112.566 3.80254C109.928 4.67009 107.043 5.07709 104.492 6.26595C100.713 8.03318 97.8386 11.1499 94.5335 13.5277C89.5608 16.996 85.4813 21.583 82.6267 26.9158C78.0836 36.1054 74.0141 46.6231 74.1433 57.023C74.1433 60.3539 73.7987 63.8455 74.3155 67.1444C74.6169 69.1365 75.3922 71.043 75.6505 73.0351C75.8981 74.5882 75.6505 76.2483 76.0058 77.7799C77.5668 84.6989 80.6135 91.982 83.5418 98.4725C84.4669 100.396 85.6004 102.213 86.9222 103.892C88.9569 106.72 91.0132 110.115 93.6723 112.46C96.1161 114.603 99.7011 117.505 102.888 118.415C105.31 119.112 107.657 119.572 110.068 120.461C115.182 122.368 120.091 122.228 125.399 121.307C131.858 120.236 136.983 116.691 142.139 112.878C147.651 108.797 151.743 103.881 156.598 99.1473C160.613 95.2273 163.154 88.4368 164.478 83.0816C166.233 75.8948 167.643 68.933 167.643 61.5428C167.643 58.651 168.042 55.5021 167.45 52.6638C166.653 48.7545 167.277 44.888 166.599 41.0001C164.952 31.4999 162.293 20.3931 155.769 12.9172C152.098 8.70795 146.758 4.94857 141.354 3.62047C138.886 3.03602 136.354 2.75899 133.818 2.79576C132.849 2.79576 131.858 2.79576 130.9 2.79576C129.307 2.79576 128.316 3.47051 126.831 3.6633" fill="#FFF34A"/>
<path d="M129.361 0.889185C126.293 0.889185 123.289 0.225133 120.232 0.0751857C117.31 -0.035884 114.393 0.377724 111.619 1.29618C108.777 2.18515 105.838 2.68855 103.125 3.95239C100.569 5.29626 98.1957 6.95911 96.0627 8.90064C93.9095 10.6786 91.6057 12.2637 89.4956 14.0952C87.3507 15.9556 85.3994 18.026 83.6713 20.2752C80.011 25.0306 77.6425 30.8143 75.5539 36.3409C73.3426 42.0277 71.9859 48.0077 71.5276 54.0882C71.3338 57.2157 71.2908 60.4288 71.3446 63.5777C71.3625 65.1614 71.51 66.7411 71.7859 68.301C72.0874 69.8754 72.6257 71.3856 72.9164 72.9494C73.164 74.2989 73.0348 75.6698 73.1855 77.0301C73.42 78.609 73.78 80.1669 74.2621 81.6891C75.1234 84.6988 76.1676 87.6549 77.3088 90.5681C78.4499 93.4814 79.645 96.2982 80.8938 99.1365C82.1279 101.639 83.6025 104.017 85.297 106.238C86.8534 108.647 88.5916 110.935 90.4968 113.082C92.416 115.006 94.5261 116.732 96.7947 118.233C99.1602 119.786 101.785 120.907 104.546 121.543C107.582 122.325 110.51 123.578 113.6 124.103C119.555 125.083 125.666 124.461 131.299 122.303C136.768 119.972 141.83 116.79 146.296 112.878C150.652 109.024 154.806 104.948 158.741 100.668C162.444 96.8659 164.662 91.7463 166.201 86.7445C167.989 80.8002 169.225 74.7054 169.894 68.5366C170.238 65.4306 170.238 62.3353 170.357 59.2292C170.357 57.7297 170.486 56.2303 170.357 54.7308C170.228 53.2313 169.862 51.5926 169.732 50.0075C169.474 46.7194 169.668 43.4527 169.13 40.1753C168.72 37.6797 168.214 35.1949 167.633 32.6779C166.484 27.413 164.653 22.3186 162.186 17.5226C159.593 12.6919 155.908 8.52667 151.42 5.35546C146.482 1.87559 140.58 0.00461613 134.529 0.000212602C133.03 -0.101633 131.527 -0.101633 130.028 0.000212602C128.661 0.150159 127.412 0.664263 126.067 0.878472C125.38 1.07112 124.796 1.52546 124.444 2.14298C124.091 2.7605 123.997 3.49144 124.183 4.17731C124.388 4.85278 124.847 5.42344 125.465 5.77056C126.083 6.11768 126.811 6.21451 127.499 6.04093C128.575 5.86956 129.652 5.36617 130.728 5.26977C132.241 5.17886 133.758 5.17886 135.271 5.26977C137.916 5.33983 140.531 5.84283 143.012 6.75854C147.614 8.61833 151.624 11.6828 154.617 15.6268C157.456 19.5103 159.584 23.8611 160.905 28.4794C162.47 33.1146 163.524 37.9053 164.048 42.7672C164.296 45.7983 164.102 48.8293 164.543 51.8497C164.89 54.6561 164.994 57.4869 164.856 60.311C164.774 66.1951 164.11 72.057 162.875 77.8119C161.798 82.728 160.614 87.6977 158.235 92.1747C155.855 96.6517 151.958 99.9291 148.481 103.474C141.225 110.875 132.386 118.073 121.674 119.079C118.976 119.391 116.245 119.261 113.589 118.694C110.769 118.041 108.045 116.969 105.235 116.241C100.586 114.852 96.4617 112.11 93.3928 108.369C91.7349 106.42 90.3783 104.224 88.8927 102.157C87.3596 100.042 86.0603 97.769 85.017 95.3771C82.6662 90.1999 80.7084 84.8547 79.1604 79.3864C78.782 78.1758 78.5508 76.9245 78.4715 75.6591C78.4559 74.1228 78.2936 72.5915 77.987 71.0857C77.6748 69.6934 77.2335 68.3331 76.9751 66.9301C76.7483 65.5138 76.6582 64.0792 76.706 62.6459C76.706 56.9479 76.8674 51.3677 78.2454 45.809C79.654 40.3625 81.6164 35.0728 84.102 30.0217C86.3503 25.2605 89.5993 21.0348 93.6296 17.6297C95.5351 16.0124 97.5914 14.6093 99.5184 13.0135C101.409 11.2694 103.532 9.79181 105.827 8.62216C108.174 7.55111 110.812 7.18695 113.255 6.48006C115.819 5.66668 118.519 5.36459 121.201 5.59109C123.914 5.8053 126.584 6.3194 129.34 6.34082C132.806 6.34082 132.806 0.985576 129.34 0.985576L129.361 0.889185Z" fill="#004D2B"/>
<path d="M102.177 39.2537C105.644 39.2537 105.644 33.8984 102.177 33.8984C98.7105 33.8984 98.7105 39.2537 102.177 39.2537Z" fill="#004D2B"/>
<path d="M145.498 37.5193C148.965 37.5193 148.976 32.1641 145.498 32.1641C142.021 32.1641 142.032 37.5193 145.498 37.5193Z" fill="#004D2B"/>
<path d="M125.119 38.9222H124.268C123.895 38.9012 123.522 38.9827 123.192 39.1578C122.862 39.2614 122.565 39.4498 122.331 39.704C122.07 39.939 121.877 40.2383 121.771 40.5716C121.592 40.8989 121.513 41.2713 121.545 41.6426L121.642 42.3602C121.761 42.8073 121.999 43.2142 122.331 43.5384L122.869 43.9561C123.283 44.1996 123.756 44.3256 124.236 44.3202H125.087C125.459 44.3393 125.83 44.2618 126.163 44.0953C126.642 43.8815 127.052 43.5383 127.345 43.1048C127.638 42.6713 127.803 42.1647 127.821 41.6426L127.724 40.9357C127.597 40.4865 127.356 40.0772 127.025 39.7469L126.486 39.3292C126.074 39.0918 125.606 38.9663 125.13 38.965L125.119 38.9222Z" fill="#004D2B"/>
<path d="M118.315 56.9587H119.155C119.564 56.9587 119.155 57.023 119.047 56.9587C119.172 57.0036 119.303 57.0254 119.435 57.023C119.941 57.1194 120.436 57.2479 120.942 57.3657C122.172 57.6637 123.433 57.8183 124.699 57.8263C127.151 57.8653 129.553 57.1386 131.568 55.7484C132.157 55.3732 132.595 54.8048 132.806 54.1419C132.9 53.7984 132.924 53.4399 132.878 53.0869C132.832 52.734 132.716 52.3937 132.537 52.0855C131.826 51.0144 130.05 50.2218 128.855 51.1215C128.434 51.4191 127.996 51.6909 127.542 51.9355C127.262 52.0533 127.305 52.0426 127.649 51.9355L127.294 52.0641C127.114 52.1309 126.931 52.1881 126.745 52.2354C126.497 52.3104 126.239 52.3639 125.991 52.4175L125.615 52.4818C126.013 52.4282 126.056 52.4175 125.754 52.4818C125.275 52.5299 124.794 52.5514 124.312 52.546H123.623C123.321 52.546 123.354 52.546 123.731 52.546L123.332 52.4818C122.858 52.3961 122.374 52.2783 121.9 52.1604C120.728 51.8608 119.525 51.699 118.315 51.6785C117.602 51.6785 116.917 51.9606 116.412 52.4627C115.908 52.9649 115.624 53.6459 115.624 54.3561C115.624 55.0662 115.908 55.7473 116.412 56.2495C116.917 56.7516 117.602 57.0337 118.315 57.0337V56.9587Z" fill="#004D2B"/>
<path d="M64.7986 39.8006C68.2652 39.8006 68.2652 34.4453 64.7986 34.4453C61.3321 34.4453 61.3321 39.8006 64.7986 39.8006Z" fill="#004D2B"/>
<path d="M46.1097 42.0603C49.5762 42.0603 49.5762 36.7051 46.1097 36.7051C42.6431 36.7051 42.6431 42.0603 46.1097 42.0603Z" fill="#004D2B"/>
<path d="M52.9027 49.6004C56.3692 49.6004 56.3692 44.2451 52.9027 44.2451C49.4361 44.2451 49.4361 49.6004 52.9027 49.6004Z" fill="#004D2B"/>
<path d="M46.7552 57.1085C47.5659 57.859 48.5611 58.3836 49.6405 58.6294C50.4479 58.8758 51.2769 59.0578 52.0951 59.2292C52.6765 59.347 53.2363 59.4541 53.8176 59.5184C54.5786 59.5666 55.3427 59.5126 56.0892 59.3577C56.631 59.256 57.1665 59.1237 57.6932 58.9614L58.4576 58.758L58.9206 58.6508C59.1143 58.6508 59.6633 58.5437 58.8451 58.6508C59.5548 58.6296 60.2323 58.3516 60.7507 57.869C61.2536 57.3671 61.536 56.6873 61.536 55.9786C61.536 55.2699 61.2536 54.5901 60.7507 54.0882C60.5049 53.8328 60.2088 53.6306 59.881 53.4942C59.5531 53.3579 59.2005 53.2902 58.8451 53.2956C57.6405 53.4925 56.4475 53.7535 55.271 54.0775L54.5712 54.2167C55.2817 54.0346 54.905 54.2167 54.6574 54.2167H54.3236H53.9037C53.5807 54.2167 54.5065 54.3345 54.0113 54.2167L53.6238 54.1417C52.8917 53.9811 52.1596 53.8311 51.4706 53.6276L50.857 53.4348C50.0066 53.0493 50.6094 53.3599 50.857 53.4348L50.4587 53.2313C50.4587 53.2313 50.3295 53.1242 50.2757 53.1135C50.2218 53.1028 50.8786 53.6383 50.5987 53.3384C50.0928 52.8407 49.41 52.5615 48.6985 52.5615C47.987 52.5615 47.3042 52.8407 46.7984 53.3384C46.305 53.8475 46.0293 54.5271 46.0293 55.2342C46.0293 55.9413 46.305 56.6209 46.7984 57.13L46.7552 57.1085Z" fill="#004D2B"/>
<path d="M20.6167 39.8006C24.0832 39.8006 24.094 34.4453 20.6167 34.4453C17.1393 34.4453 17.1501 39.8006 20.6167 39.8006Z" fill="#004D2B"/>
<path d="M11.6484 49.9646C15.1042 49.9646 15.115 44.6094 11.6484 44.6094C8.18183 44.6094 8.17107 49.9646 11.6484 49.9646Z" fill="#004D2B"/>
<path d="M6.31936 61.4995C7.96006 61.555 9.60254 61.5193 11.2392 61.3924C12.7117 61.203 14.1688 60.9095 15.5994 60.5141C16.9188 60.2157 18.1855 59.721 19.3566 59.0468C20.5947 58.2649 21.6605 57.2688 22.9739 56.6048C23.5864 56.243 24.0313 55.6561 24.2126 54.9708C24.3939 54.2854 24.297 53.5567 23.9428 52.9418C23.5679 52.3418 22.9754 51.9083 22.288 51.7308C21.6007 51.5534 20.871 51.6457 20.2501 51.9886C19.1051 52.6654 18.0015 53.4093 16.9451 54.2164C16.6719 54.4041 16.3879 54.5757 16.0946 54.7305L15.7178 54.9233C16.0838 54.7733 16.1269 54.7519 15.8362 54.859C15.2872 55.0304 14.7596 55.2124 14.1675 55.3517C13.5754 55.4909 13.091 55.6301 12.4773 55.7587L11.6591 55.9515L11.0885 56.0586C11.3361 56.0586 11.293 56.0586 10.9593 56.0586C9.41981 56.1871 7.86962 56.1335 6.31936 56.1335C5.60729 56.1391 4.926 56.423 4.42248 56.924C3.91895 57.4249 3.63356 58.1027 3.62793 58.8112C3.64171 59.517 3.92963 60.1901 4.43142 60.6893C4.9332 61.1886 5.60986 61.4751 6.31936 61.4888V61.4995Z" fill="#004D2B"/>
<path d="M176.116 45.1228C179.583 45.1228 179.583 39.7676 176.116 39.7676C172.649 39.7676 172.649 45.1228 176.116 45.1228Z" fill="#004D2B"/>
<path d="M199.403 46.2049C202.869 46.2049 202.88 40.8496 199.403 40.8496C195.925 40.8496 195.936 46.2049 199.403 46.2049Z" fill="#004D2B"/>
<path d="M189.412 51.3357C192.868 51.3357 192.879 45.9805 189.412 45.9805C185.946 45.9805 185.935 51.3357 189.412 51.3357Z" fill="#004D2B"/>
<path d="M186.473 63.2991C187.959 63.2991 189.434 63.3847 190.909 63.2991C193.18 63.1812 195.904 62.7421 196.679 60.2466C196.862 59.5622 196.768 58.8339 196.418 58.2173C196.068 57.6008 195.489 57.1451 194.806 56.9477C194.117 56.7746 193.387 56.8729 192.769 57.2222C192.151 57.5714 191.693 58.1446 191.49 58.8221C191.49 58.8221 191.49 58.8221 191.49 58.897L191.759 58.2544C191.729 58.3185 191.693 58.3795 191.651 58.4365L192.071 57.901C192.014 57.9694 191.949 58.0306 191.878 58.0831L192.416 57.6653C192.29 57.7603 192.152 57.8394 192.007 57.901L192.653 57.6225C192.222 57.7823 191.774 57.8902 191.318 57.9438L192.039 57.8474C190.187 58.0831 188.346 57.8474 186.495 57.9438C185.781 57.9438 185.096 58.2259 184.591 58.7281C184.087 59.2302 183.803 59.9113 183.803 60.6214C183.803 61.3316 184.087 62.0127 184.591 62.5148C185.096 63.017 185.781 63.2991 186.495 63.2991H186.473Z" fill="#004D2B"/>
<path d="M217.833 39.1687C221.3 39.1687 221.3 33.8135 217.833 33.8135C214.367 33.8135 214.367 39.1687 217.833 39.1687Z" fill="#004D2B"/>
<path d="M224.4 54.7088C223.647 54.6338 224.487 54.7088 224.648 54.7838L225.197 54.9337C225.621 55.0602 226.053 55.1603 226.489 55.2336C227.625 55.3746 228.773 55.3925 229.912 55.2872C232.066 55.1693 234.219 55.1158 236.372 55.0301C237.086 55.0301 237.77 54.748 238.275 54.2459C238.78 53.7437 239.063 53.0626 239.063 52.3525C239.063 51.6423 238.78 50.9613 238.275 50.4591C237.77 49.957 237.086 49.6749 236.372 49.6749C234.219 49.7605 232.066 49.8141 229.912 49.9319C229.406 49.9319 228.9 50.0069 228.405 50.0176H227.609C226.973 50.0176 228.125 50.1675 227.544 50.0176C226.517 49.7098 225.465 49.4912 224.4 49.3643C223.687 49.3643 223.002 49.6464 222.497 50.1485C221.993 50.6507 221.709 51.3317 221.709 52.0419C221.725 52.7469 222.014 53.4185 222.515 53.9172C223.017 54.4158 223.692 54.7032 224.4 54.7195V54.7088Z" fill="#004D2B"/>
<path d="M94.6197 54.5811C93.5884 54.3392 92.5036 54.4842 91.5729 54.9881C90.8475 55.4221 90.2354 56.0203 89.7859 56.7339C89.4271 57.2677 89.1613 57.8579 88.9999 58.4797C88.8745 59.09 88.8026 59.71 88.7846 60.3326C88.6339 62.1427 90.1519 63.4387 91.5729 64.2205C93.0349 65.1333 94.7704 65.512 96.4822 65.2916C97.2658 65.1245 98.0001 64.7795 98.6275 64.2834C99.255 63.7873 99.7588 63.1537 100.099 62.4319C100.746 61.0442 100.938 59.4893 100.648 57.987C100.413 56.7216 99.8108 55.5525 98.9152 54.6239C97.9688 53.4761 96.7521 52.5784 95.3733 52.0106C94.5375 51.7462 93.6494 51.689 92.7863 51.8439C91.9232 51.9988 91.1113 52.3612 90.4211 52.8996C89.2174 53.8738 88.3667 55.2128 87.9988 56.7125C87.7694 57.5514 87.7217 58.4292 87.8591 59.2878C87.9964 60.1464 88.3156 60.9662 88.7954 61.6929C89.4984 62.8865 90.4997 63.879 91.7021 64.574C92.6308 65.07 93.703 65.2327 94.7381 65.0345C95.5046 64.8764 96.2102 64.505 96.7729 63.9635C97.7439 62.906 98.3049 61.5392 98.3554 60.1077C98.4499 58.9624 98.296 57.8103 97.9041 56.7293C97.5122 55.6483 96.8915 54.6636 96.0838 53.8421C95.4274 53.1324 94.5495 52.6639 93.5922 52.5123C92.6348 52.3607 91.6541 52.5349 90.8086 53.0067C89.5024 53.8731 88.5514 55.1764 88.128 56.6804C87.1375 59.4865 87.7296 63.8671 91.2285 64.5633C91.8869 64.6704 92.553 64.7241 93.2201 64.7239C93.9339 64.7239 94.6186 64.4418 95.1233 63.9397C95.628 63.4375 95.9115 62.7565 95.9115 62.0463C95.9115 61.3362 95.628 60.6551 95.1233 60.153C94.6186 59.6508 93.9339 59.3687 93.2201 59.3687C92.8325 59.3687 92.4558 59.3687 92.0682 59.3687L92.7895 59.4544C92.6199 59.4367 92.4535 59.3971 92.2943 59.3366L92.9294 59.6043C92.7994 59.5475 92.6766 59.4756 92.5634 59.3901L93.1017 59.8078C93.0075 59.7267 92.921 59.637 92.8433 59.5401L93.2632 60.0756C93.1275 59.8978 93.0153 59.7034 92.9294 59.4972L93.1986 60.1398C93.1174 59.8989 93.0562 59.6517 93.0156 59.4008L93.1125 60.1077C93.0479 59.5992 93.0479 59.0846 93.1125 58.5761L93.0156 59.283C93.0945 58.7601 93.2391 58.2491 93.4462 57.7621L93.177 58.4047C93.3332 58.0224 93.5396 57.6622 93.7907 57.3337L93.3708 57.8799C93.5101 57.6986 93.673 57.5365 93.8553 57.398L93.3062 57.8157C93.4278 57.7226 93.5619 57.6469 93.7045 57.5907L93.0586 57.8585C93.1773 57.8151 93.2998 57.7829 93.4246 57.7621L92.7142 57.8585C92.8428 57.8425 92.973 57.8425 93.1017 57.8585L92.3911 57.7621C92.5121 57.7841 92.631 57.8163 92.7465 57.8585L92.1004 57.5907C92.2439 57.6565 92.3808 57.7354 92.5095 57.8264L91.9605 57.4087C92.1648 57.5763 92.3491 57.7667 92.5095 57.9763L92.0897 57.4301C92.4462 57.8873 92.7496 58.3831 92.9941 58.9081L92.7249 58.2655C92.8695 58.6266 92.9672 59.0045 93.0156 59.3901L92.9294 58.6832C92.9994 59.2165 92.9994 59.7565 92.9294 60.2898L93.0263 59.5722C92.9818 59.9401 92.8877 60.3004 92.7465 60.6432L93.0156 60.0006C92.9352 60.1951 92.8303 60.3786 92.7034 60.5468L93.1233 60.0113C93.0304 60.1287 92.9257 60.2363 92.811 60.3326L93.3493 59.9042C93.233 59.9993 93.1022 60.0752 92.9617 60.1291L93.6077 59.8614C93.5033 59.9012 93.3952 59.9299 93.2848 59.9471L94.006 59.8507H93.6508L94.372 59.9471C94.1896 59.9236 94.0118 59.873 93.8445 59.7971L94.4797 60.0649C94.2719 59.9654 94.0736 59.8471 93.8876 59.7114L94.4366 60.1291C94.0366 59.8156 93.6752 59.4561 93.3601 59.0581L93.78 59.5936C93.4526 59.1789 93.1778 58.7256 92.9617 58.2441L93.2417 58.8867C93.1424 58.6418 93.0701 58.3868 93.0263 58.1263L93.1233 58.8439C93.091 58.5484 93.091 58.2504 93.1233 57.9549L93.037 58.6618C93.1075 58.2541 93.2231 57.8554 93.3816 57.4729L93.1125 58.1049C93.2823 57.7248 93.4954 57.3654 93.7476 57.0338L93.3277 57.5693C93.4956 57.3559 93.687 57.1619 93.8984 56.991L93.3493 57.4087C93.5384 57.2633 93.7444 57.141 93.9629 57.0445L93.3277 57.323C93.5236 57.2385 93.7301 57.1809 93.9415 57.1516L93.2201 57.2373C93.4955 57.2052 93.7737 57.2052 94.0491 57.2373L93.3385 57.1409C93.5636 57.1714 93.7841 57.229 93.9952 57.3123L93.3493 57.0445C93.6203 57.161 93.8767 57.3084 94.1136 57.4836L93.5646 57.0659C94.2014 57.5671 94.7794 58.1384 95.2872 58.7689L94.8673 58.2227C95.0689 58.4916 95.2386 58.7827 95.3733 59.0902L95.1041 58.4583C95.2593 58.8403 95.3677 59.2394 95.4271 59.6472L95.3301 58.9403C95.3732 59.3211 95.3732 59.7055 95.3301 60.0863L95.4271 59.3794C95.3844 59.7211 95.2976 60.0559 95.1688 60.3755L95.4379 59.7436C95.3194 60.0002 95.1751 60.2442 95.0073 60.4719L95.4271 59.9256C95.2696 60.1246 95.0889 60.3044 94.8889 60.4612L95.4379 60.0435C95.2791 60.1501 95.1136 60.2466 94.9426 60.3326L95.5885 60.0649C95.3972 60.1361 95.1987 60.1864 94.9965 60.2148L95.7071 60.1291C95.4212 60.1666 95.1316 60.1666 94.8457 60.1291L95.5563 60.2255C95.1854 60.1691 94.8235 60.0647 94.4797 59.9149L95.1257 60.1934C94.4951 59.93 93.8986 59.592 93.3493 59.1866L93.8984 59.6043C93.7845 59.523 93.6797 59.4296 93.5861 59.3259L94.006 59.8721C93.9298 59.759 93.8615 59.6409 93.8015 59.5186L94.0706 60.1613C94.0659 60.1114 94.0659 60.0612 94.0706 60.0113L94.1675 60.7182C94.1268 60.3623 94.1268 60.003 94.1675 59.6472L94.0706 60.3541C94.1239 60.0596 94.2106 59.7722 94.329 59.4972L94.0491 60.1398C94.1664 59.877 94.3146 59.629 94.4905 59.4008L94.0706 59.9363C94.1991 59.7657 94.3512 59.6143 94.5227 59.4865L93.9737 59.9042C94.0903 59.8153 94.2168 59.7398 94.3506 59.6793L93.7045 59.9471C93.8398 59.8951 93.9807 59.8592 94.1244 59.84L93.4032 59.9363C93.521 59.9201 93.6405 59.9201 93.7584 59.9363L93.0478 59.84H93.1448C93.8446 60.0068 94.5818 59.9075 95.2117 59.5615C95.8184 59.2112 96.2629 58.6382 96.4498 57.9656C96.6295 57.2799 96.5331 56.5516 96.1812 55.9355C95.8294 55.3195 95.2498 54.8643 94.5658 54.6668L94.6197 54.5811Z" fill="#004D2B"/>
<path d="M74.5739 85.1268C74.2833 85.3089 74.0356 85.5552 73.745 85.7266C74.0356 85.5445 74.1648 85.5338 73.745 85.6195C73.0408 85.8049 72.3766 86.1171 71.7855 86.5406C70.7297 87.2236 69.6168 87.8149 68.459 88.3078C66.0129 89.441 63.3855 90.1371 60.6969 90.3642C59.3164 90.396 57.9392 90.514 56.5736 90.7177C55.2519 90.9948 53.9145 91.1915 52.5688 91.3068C51.2617 91.3159 49.9568 91.2012 48.6716 90.964C48.2752 90.9246 47.8828 90.853 47.4982 90.7498C47.3367 90.7498 47.1322 90.6641 46.9922 90.6106C46.8522 90.557 46.5831 90.3214 46.8091 90.5356C44.2684 88.19 40.4573 91.9708 42.998 94.3164C44.9682 96.1372 48.0472 96.3621 50.5987 96.6299C53.8284 96.9726 56.9934 95.8587 60.2016 95.7409C65.0198 95.3691 69.696 93.9427 73.8957 91.5638C74.3989 91.2228 74.941 90.9423 75.5106 90.7284C76.1337 90.463 76.7287 90.1365 77.2868 89.7537C80.2581 87.9865 77.556 83.3274 74.5739 85.1268Z" fill="#004D2B"/>
<path d="M45.4314 88.1153C44.9151 87.7844 44.3577 87.5215 43.7734 87.3334C42.9386 87.1317 42.0675 87.1317 41.2327 87.3334C40.0659 87.5725 39.0213 88.2135 38.2829 89.1435C37.515 90.1 36.931 91.1893 36.5604 92.3566C36.3015 92.9808 36.1764 93.6518 36.1931 94.3268C36.2098 95.0018 36.3678 95.6659 36.6573 96.2767C36.9706 96.8014 37.393 97.2534 37.8962 97.6025C38.3993 97.9516 38.9717 98.1897 39.5749 98.301C40.8072 98.6119 42.1005 98.5897 43.3213 98.2367C45.8943 97.3906 48.3381 95.0235 48.5642 92.2174C48.5805 90.6995 48.0146 89.2325 46.9817 88.1153C46.3483 87.2472 45.542 86.518 44.6132 85.9732C43.9121 85.5744 43.1211 85.3585 42.3136 85.3454C41.5062 85.3323 40.7085 85.5224 39.9948 85.8982C39.2573 86.3006 38.6091 86.847 38.0892 87.5048C35.5916 90.5573 33.3415 96.4373 37.9169 98.8579C40.1454 100.025 43.472 100.464 45.4529 98.5687C45.975 98.0384 46.3663 97.3949 46.5961 96.6887C46.8259 95.9824 46.8878 95.2328 46.7771 94.4987C46.712 93.4161 46.4224 92.3586 45.9265 91.3927C44.957 89.6373 43.3814 88.2904 41.4911 87.6012C40.3458 87.2384 39.1063 87.3102 38.011 87.8026C36.9158 88.295 36.0423 89.1732 35.5592 90.2681C34.81 91.6807 34.5671 93.3051 34.8703 94.8736C35.0393 95.5242 35.3392 96.134 35.7518 96.666C36.1645 97.198 36.6813 97.6413 37.271 97.9689C38.3222 98.5455 39.4948 98.8683 40.6944 98.9114C42.1237 98.9418 43.5092 98.4197 44.5594 97.4548C45.0969 96.9852 45.5325 96.4116 45.8398 95.7689C46.1471 95.1263 46.3194 94.428 46.3464 93.7169C46.3396 92.5593 45.9625 91.4339 45.2699 90.5037C43.8595 88.4366 41.2328 86.3266 38.6383 87.8582C37.6464 88.4898 36.8809 89.4175 36.4516 90.5084C36.0223 91.5993 35.951 92.7974 36.2482 93.9311C36.731 95.2201 37.7061 96.2671 38.9612 96.8443C39.7179 97.3032 40.5986 97.5185 41.4829 97.461C42.3673 97.4035 43.2123 97.0759 43.9026 96.523C44.864 95.5549 45.425 94.2629 45.4745 92.9029C45.5331 91.6194 45.1867 90.3499 44.484 89.272C43.7474 88.0013 42.5734 87.0387 41.179 86.5623C40.4165 86.3869 39.6187 86.4421 38.888 86.7207C38.1572 86.9993 37.5266 87.4886 37.0772 88.126C36.0321 89.1485 35.3871 90.5078 35.2578 91.9604C35.2607 92.6696 35.5451 93.349 36.0492 93.8506C36.5533 94.3521 37.2363 94.6352 37.9492 94.638C38.6587 94.6243 39.3353 94.3378 39.8371 93.8385C40.3388 93.3393 40.6269 92.6662 40.6407 91.9604C40.6353 91.8855 40.6353 91.8103 40.6407 91.7354L40.5437 92.453C40.5731 92.3334 40.6092 92.2154 40.6515 92.0996L40.3715 92.7422C40.4649 92.5404 40.569 92.3438 40.6836 92.1531C40.7707 92.0484 40.85 91.9374 40.9206 91.8211C40.9206 91.8211 40.4684 92.3888 40.7914 92.0032L41.1897 91.5319C41.1897 91.5319 41.3942 91.2963 41.4158 91.307C41.4373 91.3177 40.7482 91.7354 41.2219 91.4891L40.576 91.7568L40.7591 91.7033L40.0485 91.7997H40.3392L39.6286 91.7033C39.7034 91.7132 39.7761 91.7349 39.844 91.7676L39.2088 91.4998C39.3387 91.5592 39.4647 91.6272 39.5857 91.7033C39.8871 91.8532 39.3595 91.5319 39.3272 91.4891C39.4671 91.6605 39.6718 91.789 39.8225 91.9604C39.9732 92.1317 39.9409 92.3031 39.6825 91.7676C39.6825 91.8532 39.8116 91.9389 39.8654 92.0353C39.9859 92.2392 40.0938 92.4503 40.1885 92.6672L39.9193 92.0246C40.0367 92.3405 40.1233 92.6669 40.1777 92.9993L40.0808 92.2924C40.1078 92.5344 40.1078 92.7786 40.0808 93.0207L40.1777 92.3031C40.1209 92.6152 40.0307 92.9204 39.9085 93.2135L40.1777 92.5708C40.1131 92.7101 40.027 92.8386 39.9624 92.9778C39.8978 93.1171 40.3715 92.4852 40.1992 92.6565C40.027 92.8279 40.8237 92.2388 40.4899 92.4102L41.1359 92.1424C41.0503 92.1826 40.9598 92.2114 40.8667 92.2281L41.5773 92.1317C41.4306 92.1478 41.2825 92.1478 41.1359 92.1317L41.8464 92.2281C41.6517 92.1873 41.4607 92.13 41.2758 92.0567L41.911 92.3245C41.7489 92.2546 41.5908 92.1759 41.4373 92.0889L41.2112 91.9389C40.7698 91.6283 41.1143 91.9389 41.2112 91.9389C41.6526 92.2495 41.1574 91.8425 41.0606 91.7783C40.9637 91.714 41.362 92.2388 41.3297 92.1103C41.3054 92.0476 41.2766 91.9868 41.2435 91.9282L41.5126 92.5708C41.4617 92.4359 41.4256 92.2958 41.405 92.1531L41.5019 92.86C41.4856 92.6747 41.4856 92.4884 41.5019 92.3031L41.405 93.01C41.4472 92.7086 41.5267 92.4136 41.6418 92.1317L41.3727 92.7743C41.4236 92.65 41.4811 92.5285 41.545 92.4102C41.545 92.3566 41.6203 92.3031 41.6526 92.2388C41.8464 91.9068 41.2328 92.7208 41.4373 92.5066C41.6419 92.2924 41.8787 92.1103 41.4373 92.4316C40.9959 92.7529 41.4373 92.4852 41.5342 92.4316L40.8883 92.6994C40.9653 92.6716 41.0445 92.6501 41.1251 92.6351L40.4037 92.7315H40.7375L40.0162 92.6351C40.1339 92.6558 40.2494 92.6881 40.3608 92.7315L39.7256 92.4637C39.8483 92.5159 39.9669 92.5768 40.0808 92.6458C40.6084 92.9671 39.6502 92.2495 39.9732 92.5494C40.1775 92.7277 40.3715 92.9172 40.5545 93.1171C40.9959 93.6098 40.2638 92.6779 40.5545 93.0421L40.7483 93.3313C40.9055 93.5657 41.0423 93.8129 41.1574 94.0703L40.8883 93.4277C40.9733 93.6373 41.0312 93.8569 41.0606 94.081L40.9636 93.3741C40.9851 93.5377 40.9851 93.7033 40.9636 93.8668L41.0606 93.1492C41.032 93.3504 40.9814 93.548 40.9098 93.7383L41.179 93.0957C41.1144 93.2456 41.0389 93.3848 40.9636 93.5348C40.7806 93.8668 41.1682 93.2884 41.1682 93.2884C41.1682 93.2884 40.9959 93.4812 40.9528 93.5241L40.7699 93.6847C40.5653 93.8882 41.2651 93.3634 41.0174 93.4919C40.7698 93.6205 40.6945 93.674 40.5223 93.749L41.1682 93.4812C40.9393 93.5716 40.7009 93.6362 40.4576 93.674L41.179 93.5776C40.8748 93.61 40.5681 93.61 40.2639 93.5776L40.9743 93.674C40.5603 93.6126 40.1554 93.5011 39.7686 93.342L40.4037 93.6098C40.2659 93.5564 40.1327 93.4919 40.0054 93.417L39.8117 93.2992L40.1024 93.5134C40.0435 93.469 39.9894 93.4188 39.9409 93.3634C39.7579 93.1706 39.8332 93.2777 40.1561 93.6633C40.0741 93.5482 40.0022 93.4264 39.9409 93.2992L40.21 93.9418C40.14 93.7694 40.0894 93.5898 40.0593 93.4063L40.1454 94.1132C40.1077 93.775 40.1077 93.4338 40.1454 93.0957L40.0485 93.8025C40.103 93.4123 40.208 93.0307 40.3608 92.6672L40.0916 93.3099C40.1776 93.1049 40.2747 92.9047 40.3823 92.7101L40.5437 92.4637C40.7052 92.2174 40.8237 92.2924 40.3608 92.6887C40.462 92.604 40.5556 92.5109 40.6407 92.4102C40.6407 92.4745 40.0163 92.7958 40.3608 92.6458L40.5545 92.5494L39.9193 92.8172C40.0744 92.7532 40.2372 92.71 40.4037 92.6887L39.6933 92.785C39.8652 92.769 40.0381 92.769 40.21 92.785L39.4887 92.6887C39.7589 92.7257 40.0231 92.7977 40.2745 92.9029L39.6394 92.6351C39.7873 92.7016 39.9311 92.7767 40.0701 92.86C40.2008 92.9629 40.3414 93.0526 40.4899 93.1278C40.4899 93.1278 39.9301 92.6779 40.1885 92.9029L40.3931 93.0742C40.523 93.1875 40.6453 93.3091 40.7591 93.4384C40.8667 93.5455 40.9744 93.6633 41.0713 93.7811C41.362 94.1024 40.7375 93.3099 40.8775 93.5241L41.0174 93.7383C41.1988 94.001 41.3538 94.2808 41.4803 94.5737L41.2112 93.9311C41.302 94.167 41.3705 94.4108 41.4158 94.6594L41.3189 93.9418C41.419 94.482 41.4551 95.0319 41.4266 95.5805L41.5234 94.8736C41.5044 95.0385 41.4646 95.2005 41.405 95.3556L41.6849 94.7129C41.5773 94.97 41.2435 95.2913 41.7494 94.7129C41.5557 94.895 41.6203 94.8522 41.9541 94.5737C41.8753 94.6264 41.7925 94.6729 41.7065 94.7129L42.3524 94.4452C42.1791 94.5149 41.9986 94.5652 41.8141 94.5951L42.5247 94.4987C42.1029 94.5522 41.676 94.5522 41.2543 94.4987L41.9756 94.5951C41.4137 94.5183 40.8638 94.3707 40.3392 94.156L40.9743 94.4345L40.5652 94.231L40.3823 94.1132C40.1562 93.9632 40.2531 94.0382 40.6622 94.3381C40.5663 94.23 40.4619 94.1297 40.35 94.0382C40.899 94.5309 40.6407 94.4238 40.4899 94.1239L40.7699 94.7665C40.6886 94.5861 40.6342 94.3949 40.6083 94.1988L40.7052 94.9164C40.6555 94.5611 40.6555 94.2007 40.7052 93.8454L40.6083 94.563C40.7133 93.8717 40.9125 93.1979 41.2005 92.5601L40.9206 93.2028C41.0927 92.8068 41.2867 92.4206 41.5019 92.046C41.5987 91.8854 41.6957 91.7247 41.8033 91.5641C41.911 91.4034 42.3093 90.8679 41.9756 91.2856C41.6419 91.7033 42.051 91.2106 42.1371 91.1142C42.2232 91.0178 42.3955 90.8464 42.5247 90.7286L42.6968 90.568C42.9229 90.3752 42.0833 90.9857 42.4063 90.8036C42.5462 90.7286 42.6753 90.6322 42.826 90.568L42.1801 90.8357C42.3443 90.7745 42.5137 90.7279 42.6862 90.6965L41.9756 90.7929C42.1364 90.7715 42.2992 90.7715 42.46 90.7929L41.7494 90.6965C41.9486 90.7286 42.1436 90.7825 42.3308 90.8572L41.6849 90.5787C41.8356 90.6537 41.9864 90.7286 42.1263 90.8143C42.2663 90.9 42.4063 91.1678 41.9972 90.6965C42.1909 90.9214 42.4385 91.1035 42.6431 91.3284C42.8476 91.5533 42.8045 91.5105 42.8907 91.6069C42.9349 91.6723 42.9854 91.7332 43.0414 91.789C43.1921 91.9925 43.1383 91.9175 42.8583 91.5641C42.9768 91.8639 43.2351 92.1317 43.3751 92.4423L43.1059 91.7997C43.1796 91.9983 43.2373 92.2024 43.2782 92.4102L43.1814 91.6926C43.1975 91.8922 43.1975 92.0928 43.1814 92.2924L43.2782 91.5855C43.2459 91.7871 43.1918 91.9846 43.1167 92.1746L43.3859 91.5426C43.3119 91.7075 43.2293 91.8684 43.1383 92.0246C43.1026 92.0877 43.0631 92.1485 43.0199 92.2067C42.9014 92.3673 43.0199 92.2924 43.2029 91.9711C43.0953 91.9711 42.9229 92.2817 42.8476 92.3673L42.5031 92.7101L42.2124 92.9671C42.8153 92.5601 41.8787 93.267 42.2124 92.9671C41.9707 93.1259 41.7149 93.2621 41.4481 93.3741L42.094 93.0957C41.8222 93.2002 41.541 93.2791 41.2543 93.3313L41.9648 93.2349C41.568 93.2831 41.1667 93.2831 40.7699 93.2349L41.4803 93.3313C41.0896 93.2867 40.7063 93.1931 40.3392 93.0528L40.9851 93.3206C40.8452 93.2563 40.4469 92.9778 40.8883 93.3206C41.3297 93.6633 40.8883 93.1813 41.2005 93.6205C41.5127 94.0596 41.3404 93.8026 41.2758 93.6847L41.545 94.3274C41.5014 94.2203 41.4689 94.109 41.4481 93.9953L41.545 94.7022C41.5289 94.5277 41.5289 94.352 41.545 94.1774L41.4481 94.895C41.5613 94.3251 41.7344 93.7687 41.9648 93.2349L41.6957 93.8775C41.7889 93.6582 41.8931 93.4438 42.0079 93.2349C42.0625 93.1277 42.1236 93.024 42.1909 92.9243C42.2555 92.8279 42.5785 92.3888 42.2555 92.8065C42.2555 92.86 41.9326 93.2242 42.2555 92.8065C42.2555 92.7529 42.4278 92.6565 42.5031 92.5708C42.5785 92.4852 41.8571 92.9564 42.3093 92.7315L42.6431 92.5601L42.0079 92.8279C42.2372 92.7432 42.4756 92.6857 42.7184 92.6565L41.9972 92.7529C42.2083 92.7315 42.4211 92.7315 42.6323 92.7529L41.911 92.6565C42.0981 92.6903 42.2818 92.7405 42.46 92.8065L41.8141 92.5387C42.0909 92.6639 42.3573 92.8108 42.6108 92.9778C43.2294 93.3274 43.961 93.4223 44.649 93.2421C45.3371 93.062 45.9271 92.6212 46.2927 92.0139C46.6395 91.3984 46.7333 90.6733 46.5547 89.9905C46.3761 89.3077 45.9389 88.7201 45.3345 88.3509L45.4314 88.1153Z" fill="#004D2B"/>
<path d="M164.209 85.8341C164.597 87.5585 166.083 88.0512 167.364 88.9509C168.79 90.1321 170.325 91.1757 171.95 92.0676C173.834 92.9245 175.815 93.5457 177.753 94.2847C179.589 95.1207 181.495 95.798 183.448 96.309C185.353 96.6839 187.162 97.3265 189.078 97.6478L194.849 98.6653C196.087 98.98 197.346 99.2055 198.617 99.3401C200.425 99.3401 202.374 98.0976 202.137 96.1269C202.116 95.4236 201.825 94.7549 201.325 94.2574C200.825 93.7598 200.153 93.4708 199.446 93.4493C198.733 93.4521 198.05 93.7351 197.546 94.2367C197.042 94.7382 196.757 95.4176 196.754 96.1269L196.84 95.7627L197.529 94.5846L198.832 94.0384C198.574 94.0384 198.541 94.0384 198.724 94.0384C198.907 94.0384 198.531 94.0384 198.369 93.9527L197.443 93.7492C195.947 93.46 194.44 93.2244 192.943 92.9566C191.316 92.7427 189.704 92.4207 188.12 91.9927C186.667 91.5214 185.149 91.35 183.706 90.9216C180.789 89.9577 177.839 88.8545 175.007 87.7085C173.783 87.1749 172.638 86.4757 171.606 85.6306C171.034 85.1315 170.429 84.6699 169.797 84.249C169.635 84.1526 169.452 84.0776 169.291 83.9812C168.365 83.4778 169.205 83.692 169.399 84.5275C168.634 81.1644 163.445 82.5889 164.209 85.9519V85.8341Z" fill="#004D2B"/>
<path d="M207.584 97.0904C207.839 96.2305 207.759 95.3067 207.36 94.5028C206.961 93.699 206.272 93.0742 205.431 92.7527C204.782 92.4698 204.075 92.3409 203.367 92.3762C202.659 92.4115 201.969 92.6101 201.351 92.9562C200.096 93.8042 199.172 95.056 198.735 96.5014C198.427 97.173 198.28 97.9062 198.303 98.6439C198.327 99.3816 198.521 100.104 198.871 100.755C199.221 101.405 199.717 101.967 200.321 102.396C200.925 102.825 201.62 103.109 202.352 103.228C203.114 103.387 203.903 103.362 204.653 103.153C205.403 102.944 206.091 102.558 206.658 102.028C207.448 101.173 208.027 100.148 208.35 99.0329C208.673 97.9177 208.732 96.7432 208.521 95.6017C208.271 94.2657 207.595 93.0452 206.594 92.1208C205.967 91.523 205.203 91.0852 204.369 90.8446C203.535 90.604 202.654 90.5678 201.803 90.7391C200.351 91.1187 199.107 92.0492 198.337 93.3311C197.585 94.4264 197.208 95.7332 197.26 97.0583C197.334 97.8807 197.597 98.675 198.031 99.3792C198.464 100.083 199.055 100.678 199.758 101.118C200.832 101.827 202.096 102.2 203.386 102.189C204.237 102.155 205.066 101.903 205.791 101.456C206.515 101.01 207.111 100.384 207.52 99.6395C207.937 98.8872 208.134 98.0341 208.09 97.1761C208.037 96.3908 207.82 95.6251 207.455 94.9269C206.518 92.9026 204.225 90.8891 201.846 91.0497C201.053 91.0812 200.283 91.3254 199.618 91.7566C198.933 92.2595 198.339 92.8753 197.863 93.5774C197.141 94.5961 196.582 95.7197 196.205 96.9084C195.936 97.6801 195.879 98.5096 196.042 99.3103C196.205 100.111 196.581 100.854 197.131 101.46C197.985 102.384 199.119 103.004 200.36 103.228C201.134 103.393 201.934 103.393 202.707 103.228C203.561 103.013 204.348 102.594 205 102.007C206.013 101.127 206.775 99.996 207.207 98.7291C207.686 97.363 207.631 95.8675 207.053 94.54C206.474 93.2125 205.415 92.1501 204.085 91.5638C203.322 91.1769 202.477 90.975 201.62 90.9747C200.515 91.011 199.465 91.4626 198.681 92.2386C197.718 93.2134 196.983 94.3873 196.528 95.6766C196.03 96.9279 195.885 98.2908 196.108 99.6181C196.29 100.442 196.683 101.206 197.249 101.835C197.814 102.463 198.534 102.936 199.338 103.206C202.277 104.277 205.334 101.889 205.797 99.0183C206.217 96.6192 205.733 93.8773 203.472 92.5278C202.855 92.1894 202.17 91.9901 201.467 91.9438C200.764 91.8975 200.059 92.0055 199.402 92.26C198.013 92.8196 196.838 93.8018 196.043 95.0662C195.307 96.159 194.876 97.4268 194.795 98.7398C194.771 99.4912 194.904 100.239 195.183 100.938C195.463 101.636 195.884 102.269 196.42 102.799C197.507 103.883 198.963 104.522 200.5 104.588C201.966 104.56 203.365 103.974 204.408 102.949C205.062 102.436 205.543 101.738 205.786 100.946C205.981 100.11 205.925 99.2345 205.625 98.4292C205.435 97.7447 204.98 97.1632 204.359 96.8127C203.738 96.4622 203.003 96.3714 202.314 96.5603C201.626 96.7492 201.042 97.2023 200.69 97.8199C200.337 98.4376 200.246 99.1692 200.436 99.8537C200.5 100.079 200.587 100.304 200.63 100.539L200.533 99.8216C200.549 99.9245 200.549 100.029 200.533 100.132L200.63 99.4253C200.62 99.4963 200.598 99.565 200.565 99.6288L200.834 98.9969C200.795 99.0765 200.748 99.1518 200.694 99.2218L201.114 98.6756C200.942 98.8825 200.747 99.0693 200.533 99.2325L201.071 98.8148C200.736 99.069 200.375 99.2879 199.995 99.4682L200.63 99.1897C200.505 99.2533 200.37 99.2967 200.231 99.3182L200.953 99.2218C200.716 99.2432 200.478 99.2432 200.242 99.2218L200.963 99.3182C200.695 99.2733 200.431 99.2015 200.177 99.104L200.813 99.3718C200.526 99.2517 200.254 99.097 200.005 98.9112L200.554 99.3289C200.343 99.1617 200.152 98.9713 199.984 98.7613L200.404 99.3075C200.239 99.0931 200.102 98.8593 199.995 98.6113L200.264 99.254C200.176 99.0369 200.115 98.8104 200.081 98.5792L200.177 99.2861C200.145 99.0408 200.145 98.7924 200.177 98.5471L200.081 99.254C200.144 98.8493 200.256 98.4537 200.414 98.0758L200.145 98.7184C200.341 98.2812 200.586 97.8679 200.877 97.4867L200.457 98.033C200.719 97.6962 201.019 97.3906 201.351 97.1226L200.813 97.5403C201.011 97.3917 201.224 97.2625 201.448 97.1547L200.813 97.4332C201.044 97.3377 201.286 97.2694 201.534 97.2297L200.813 97.3261C201.017 97.3047 201.222 97.3047 201.426 97.3261L200.705 97.2297C200.882 97.2583 201.055 97.305 201.222 97.3689L200.576 97.1011C200.706 97.158 200.829 97.2299 200.942 97.3154L200.393 96.8869C200.521 96.9912 200.636 97.1098 200.737 97.2404L200.317 96.7049C200.434 96.8661 200.535 97.0383 200.619 97.219L200.35 96.5763C200.478 96.8848 200.565 97.209 200.608 97.5403L200.522 96.8334C200.576 97.2709 200.576 97.7133 200.522 98.1508L200.619 97.4332C200.571 97.8016 200.473 98.162 200.328 98.5042L200.597 97.8616C200.486 98.1074 200.349 98.3407 200.188 98.5578L200.608 98.0115C200.471 98.178 200.32 98.3321 200.156 98.4721L200.694 98.0544C200.533 98.1804 200.355 98.2848 200.167 98.365L200.813 98.0972C200.651 98.1513 200.485 98.1943 200.317 98.2257L201.039 98.1294C200.867 98.1507 200.694 98.1507 200.522 98.1294L201.243 98.2257C201.062 98.1971 200.885 98.1468 200.716 98.0758L201.362 98.3543C201.173 98.2676 200.993 98.1637 200.823 98.0437L201.372 98.4614C201.203 98.3394 201.048 98.1993 200.91 98.0437L201.329 98.5792C201.221 98.4374 201.13 98.2827 201.06 98.1186L201.34 98.7613C201.273 98.5886 201.227 98.4089 201.2 98.2257L201.297 98.9326C201.252 98.577 201.252 98.2172 201.297 97.8616L201.2 98.5685C201.278 98.0302 201.426 97.5044 201.642 97.0047L201.362 97.6474C201.602 97.1134 201.906 96.61 202.266 96.1479L201.846 96.6834C202.085 96.3675 202.359 96.08 202.664 95.8266L202.126 96.2443C202.22 96.1703 202.325 96.1124 202.438 96.0729L201.792 96.3407C201.908 96.3022 202.027 96.2735 202.148 96.255L201.437 96.3514C201.602 96.3354 201.768 96.3354 201.932 96.3514L201.211 96.255C201.462 96.295 201.708 96.3633 201.943 96.4585L201.308 96.1908C201.611 96.3231 201.897 96.4922 202.158 96.6942L201.609 96.2764C201.866 96.4762 202.1 96.7024 202.309 96.9512L201.879 96.4157C202.045 96.6248 202.183 96.8554 202.288 97.1011L202.018 96.4585C202.101 96.6699 202.162 96.8887 202.201 97.1119L202.105 96.3943C202.126 96.633 202.126 96.8731 202.105 97.1119L202.201 96.3943C202.149 96.741 202.051 97.0795 201.911 97.401L202.191 96.7691C202.001 97.2039 201.759 97.6139 201.469 97.9901L201.889 97.4546C201.666 97.7373 201.413 97.9958 201.136 98.2257L201.674 97.808C201.461 97.9701 201.23 98.1067 200.985 98.215L201.631 97.9366C201.458 98.009 201.278 98.0594 201.092 98.0865L201.814 97.9901C201.581 98.0169 201.347 98.0169 201.114 97.9901L201.835 98.0865C201.522 98.046 201.214 97.9669 200.92 97.8509L201.566 98.1186C201.276 97.9931 201.002 97.835 200.748 97.6474L201.297 98.0651C201.141 97.9395 200.997 97.7996 200.866 97.6474L201.286 98.1829C201.191 98.0551 201.108 97.9189 201.039 97.7759L201.308 98.4185C201.253 98.2693 201.214 98.115 201.189 97.958L201.286 98.6649C201.276 98.533 201.276 98.4005 201.286 98.2686L201.189 98.9755C201.284 98.515 201.428 98.0661 201.62 97.6367L201.351 98.2793C201.666 97.5392 202.067 96.8382 202.546 96.1908L202.126 96.737C202.332 96.4562 202.57 96.2009 202.837 95.9766L202.298 96.3943C202.428 96.2993 202.569 96.2202 202.718 96.1586L202.083 96.4264C202.194 96.383 202.31 96.3507 202.427 96.33L201.717 96.4264C201.864 96.4104 202.012 96.4104 202.158 96.4264L201.448 96.33C201.662 96.3606 201.872 96.4182 202.072 96.5014L201.426 96.2336C201.702 96.3558 201.962 96.5105 202.201 96.6942L201.652 96.2764C201.987 96.5379 202.287 96.8401 202.546 97.1761L202.126 96.6299C202.414 96.994 202.652 97.3936 202.837 97.8187L202.567 97.1868C202.646 97.381 202.707 97.5817 202.75 97.7866L202.654 97.069C202.675 97.2648 202.675 97.4623 202.654 97.6581L202.75 96.9512C202.718 97.1389 202.664 97.3222 202.589 97.4974L202.858 96.8548C202.782 97.0305 202.685 97.196 202.567 97.3475L202.987 96.8012C202.871 96.9489 202.737 97.082 202.589 97.1975L203.127 96.7798C202.976 96.8891 202.814 96.9824 202.643 97.0583L203.289 96.7905C203.109 96.8617 202.921 96.912 202.729 96.9405L203.45 96.8441H203.03L203.741 96.9405C203.37 96.8777 203.009 96.7698 202.664 96.6192L203.31 96.8869C202.965 96.7417 202.64 96.5546 202.341 96.33L202.88 96.7477C202.682 96.5884 202.501 96.4089 202.341 96.2122L202.761 96.7477C202.652 96.6084 202.558 96.4575 202.481 96.2979L202.75 96.9298C202.684 96.7672 202.634 96.5986 202.6 96.4264L202.697 97.1333C202.664 96.888 202.664 96.6396 202.697 96.3943L202.6 97.1011C202.654 96.7978 202.737 96.5002 202.847 96.2122L202.578 96.8548C202.737 96.476 202.94 96.1166 203.181 95.7838L202.761 96.33C202.972 96.0528 203.218 95.8043 203.493 95.591L202.955 96.0087C203.124 95.8824 203.309 95.7781 203.504 95.6981L202.858 95.9658C203.04 95.9029 203.228 95.8563 203.418 95.8266L202.697 95.923C202.893 95.9016 203.092 95.9016 203.289 95.923L202.578 95.8266C202.805 95.8595 203.026 95.9244 203.235 96.0194L202.6 95.7516C202.812 95.8485 203.014 95.967 203.203 96.1051L202.654 95.6874C202.906 95.8923 203.134 96.1259 203.332 96.3835L202.912 95.8373C203.1 96.1033 203.263 96.3866 203.396 96.6834L203.127 96.0408C203.246 96.3371 203.329 96.6462 203.375 96.9619L203.278 96.255C203.332 96.6567 203.332 97.0637 203.278 97.4653L203.375 96.7584C203.317 97.2381 203.201 97.7092 203.03 98.1615L203.3 97.5188C203.174 97.8175 203.015 98.1013 202.826 98.365L203.246 97.8187C203.099 98.0106 202.929 98.1834 202.74 98.3329L203.289 97.9151C203.166 98.0003 203.036 98.0755 202.901 98.1401L203.547 97.8723C203.376 97.9349 203.199 97.9816 203.02 98.0115L203.741 97.9151C203.565 97.9312 203.389 97.9312 203.213 97.9151L203.935 98.0115C203.679 97.9766 203.429 97.9081 203.192 97.808L203.838 98.0865C203.599 97.9842 203.374 97.8509 203.17 97.6902L203.709 98.1079C203.57 97.9967 203.444 97.871 203.332 97.7331L203.752 98.2793C203.67 98.1679 203.598 98.0496 203.536 97.9259L203.805 98.5685C203.755 98.44 203.715 98.3074 203.687 98.1722L203.784 98.8898C203.757 98.6478 203.757 98.4035 203.784 98.1615L203.687 98.8791C203.752 98.4529 203.868 98.0359 204.032 97.6367L203.763 98.2793C203.914 97.9011 204.109 97.5416 204.344 97.2083L203.924 97.7545C204.078 97.546 204.259 97.3588 204.462 97.1975L203.924 97.6153C204.032 97.5205 204.156 97.4444 204.29 97.3903L203.644 97.6581C203.77 97.6159 203.9 97.5837 204.032 97.5617L203.321 97.6581C203.521 97.6367 203.723 97.6367 203.924 97.6581L203.203 97.5617C203.371 97.5932 203.536 97.6361 203.698 97.6902L203.052 97.4225C203.175 97.4758 203.29 97.5442 203.396 97.626L202.847 97.2083C202.903 97.2528 202.953 97.303 202.998 97.3582L202.578 96.8227L202.686 97.0047L202.417 96.3728C202.423 96.419 202.423 96.4659 202.417 96.5121L202.32 95.7945C202.331 95.8726 202.331 95.9519 202.32 96.0301L202.417 95.3232C202.406 95.4111 202.384 95.4974 202.352 95.5803C202.17 96.266 202.265 96.9957 202.617 97.6124C202.969 98.2292 203.551 98.684 204.236 98.8791C204.925 99.0522 205.655 98.9539 206.273 98.6046C206.89 98.2554 207.349 97.6822 207.552 97.0047L207.584 97.0904Z" fill="#004D2B"/>
<path d="M164.63 59.2823C164.63 59.3894 164.845 58.6396 164.63 59.3465C164.554 59.5822 164.5 59.8178 164.425 60.0641C164.231 60.7175 163.994 61.3601 163.768 61.992C163.383 63.204 162.916 64.3885 162.369 65.5372C161.292 67.4865 160.539 69.5322 159.537 71.4922C158.517 73.3094 157.396 75.0687 156.178 76.7618C151.872 83.3166 146.36 89.0574 139.158 92.4527L142.84 96.1156L142.937 95.9121L140.611 97.2402H140.902C141.608 97.2162 142.279 96.9264 142.778 96.4294C143.278 95.9323 143.569 95.2651 143.593 94.5626C143.588 93.8542 143.302 93.1764 142.799 92.6754C142.295 92.1745 141.614 91.8906 140.902 91.885C140.351 91.8743 139.807 92.0133 139.329 92.2869C138.851 92.5605 138.457 92.9584 138.189 93.438C137.908 93.9499 137.801 94.5387 137.884 95.1162C137.967 95.6937 138.236 96.2288 138.651 96.6413C139.066 97.0539 139.604 97.3216 140.184 97.4045C140.764 97.4874 141.356 97.3809 141.871 97.101C149.88 93.3309 156.028 86.7761 160.829 79.5037C162.145 77.6829 163.336 75.7757 164.393 73.795C164.953 72.6383 165.383 71.428 165.943 70.2712C166.406 69.3287 167.02 68.429 167.418 67.4865C168.035 66.0867 168.581 64.6568 169.054 63.2023C169.638 61.9926 169.968 60.6769 170.023 59.3358C170.004 58.6317 169.714 57.9615 169.214 57.4634C168.713 56.9653 168.04 56.6771 167.332 56.6582C166.62 56.6638 165.938 56.9477 165.435 57.4486C164.931 57.9496 164.646 58.6274 164.64 59.3358L164.63 59.2823Z" fill="#004D2B"/>
<path d="M141.278 89.5074C139.979 89.2479 138.637 89.2956 137.36 89.6466C136.601 89.897 135.903 90.3001 135.309 90.8308C134.714 91.3615 134.236 92.0085 133.904 92.7313C133.172 94.1764 132.894 95.8074 133.107 97.4117C133.297 98.0796 133.622 98.7017 134.063 99.2396C134.503 99.7775 135.05 100.22 135.669 100.539C136.175 100.884 136.731 101.151 137.316 101.332C138.388 101.59 139.518 101.437 140.482 100.903C141.26 100.471 141.918 99.8535 142.397 99.1058C142.877 98.358 143.162 97.5036 143.227 96.6192C143.347 95.2463 143.039 93.8698 142.344 92.6777C141.591 91.3604 140.37 90.371 138.92 89.9037C138.155 89.6052 137.333 89.481 136.513 89.5403C135.693 89.5996 134.897 89.8409 134.184 90.2464C132.783 91.2079 131.733 92.5943 131.191 94.1986C130.894 95.0437 130.837 95.9538 131.027 96.8288C131.217 97.7038 131.646 98.5096 132.267 99.1575C133.166 100.05 134.277 100.702 135.497 101.053C137.833 101.824 140.675 101.76 142.57 100.047C144.82 98.0222 144.433 94.2843 142.753 92.0351C141.858 90.7032 140.495 89.7521 138.931 89.3682C137.844 89.1034 136.698 89.2365 135.702 89.743C134.88 90.2242 134.223 90.9409 133.818 91.7994C132.461 94.4235 132.676 98.1722 135.314 99.9394C136.634 100.713 138.196 100.969 139.696 100.657C141.41 100.249 142.899 99.1976 143.851 97.7223C144.349 97.0659 144.68 96.2992 144.815 95.4877C144.95 94.6763 144.885 93.8444 144.626 93.0633C144.047 91.5188 142.958 90.2159 141.537 89.3682C140.851 88.914 140.078 88.6055 139.266 88.4617C138.455 88.318 137.623 88.3422 136.821 88.5327C135.291 89.0182 134.013 90.079 133.258 91.4888C132.543 92.6409 132.198 93.9819 132.267 95.3339C132.388 96.9036 132.989 98.3988 133.99 99.6181C135.949 101.974 139.825 101.653 142.193 100.121C144.82 98.4078 146.327 94.8734 144.734 91.9601C144.046 90.8231 143.05 89.9024 141.86 89.3039C140.506 88.4949 138.949 88.0828 137.37 88.115C135.586 88.2469 133.907 89.0062 132.633 90.2571C131.41 91.4648 130.7 93.0949 130.653 94.8091C130.58 96.2806 130.929 97.7423 131.659 99.0242C132.389 100.306 133.47 101.355 134.776 102.049C135.916 102.588 137.168 102.853 138.43 102.823C139.692 102.793 140.929 102.47 142.043 101.878C142.72 101.507 143.286 100.963 143.684 100.302C144.081 99.6418 144.295 98.8883 144.303 98.1186C144.298 97.4102 144.012 96.7324 143.509 96.2315C143.005 95.7305 142.324 95.4466 141.612 95.441C140.902 95.4547 140.226 95.7412 139.724 96.2404C139.222 96.7396 138.934 97.4128 138.92 98.1186C138.926 98.2078 138.926 98.2972 138.92 98.3864L139.017 97.6688C138.997 97.779 138.964 97.8867 138.92 97.9901L139.2 97.3582C139.2 97.4225 139.039 97.5724 139.039 97.6367C139.039 97.7009 139.523 97.1118 139.308 97.2832C139.25 97.3248 139.199 97.3755 139.157 97.4332C139.028 97.5724 139.674 97.0904 139.491 97.1654C139.438 97.1937 139.388 97.2259 139.34 97.2618L138.974 97.4332L139.61 97.1654C139.191 97.3335 138.754 97.4486 138.307 97.5081L139.017 97.4117C138.495 97.4707 137.968 97.4707 137.446 97.4117L138.167 97.5081C137.798 97.4485 137.437 97.3479 137.09 97.2082L137.726 97.476C137.464 97.3653 137.211 97.2328 136.972 97.0797C136.466 96.7477 137.22 97.3046 137.08 97.1654L136.767 96.8869C136.694 96.7928 136.615 96.7033 136.531 96.6192C136.821 97.0047 136.886 97.0904 136.735 96.8762L136.595 96.6727C136.445 96.4321 136.312 96.1816 136.197 95.923L136.466 96.5549C136.263 96.0749 136.121 95.571 136.046 95.0554L136.143 95.7623C136.089 95.3284 136.089 94.8896 136.143 94.4556L136.046 95.1733C136.103 94.8054 136.204 94.4458 136.348 94.1022L136.078 94.7448C136.18 94.5251 136.299 94.3138 136.434 94.1129C136.595 93.8452 136.003 94.5949 136.315 94.2736L136.627 93.963C136.703 93.8987 137.069 93.6095 136.703 93.888C136.337 94.1665 136.703 93.888 136.789 93.888C137.02 93.7364 137.265 93.6072 137.521 93.5024L136.875 93.7702C137.22 93.6278 137.582 93.5306 137.952 93.481L137.23 93.5774C137.631 93.5292 138.036 93.5292 138.436 93.5774L137.715 93.481C138.193 93.5576 138.66 93.6943 139.104 93.888L138.458 93.6202C138.773 93.7485 139.079 93.8988 139.373 94.0701C139.517 94.1442 139.657 94.2265 139.793 94.3164C139.997 94.4449 140.374 94.8198 139.707 94.22L140.309 94.7984C139.728 94.22 140.029 94.4128 140.169 94.6591C140.233 94.7701 140.291 94.8845 140.342 95.0019L140.073 94.3593C140.158 94.5681 140.212 94.7882 140.234 95.0126L140.148 94.295C140.175 94.5334 140.175 94.7741 140.148 95.0126L140.245 94.295C140.193 94.607 140.106 94.9123 139.986 95.2054L140.255 94.5735C140.134 94.8451 139.998 95.1097 139.846 95.366C139.567 95.8373 140.277 94.9055 139.965 95.2268C139.892 95.3141 139.812 95.3964 139.728 95.4732C139.642 95.5588 139.545 95.6231 139.47 95.7088C140.008 95.1625 139.825 95.441 139.62 95.5695C139.381 95.726 139.129 95.8622 138.867 95.9765L139.513 95.7088C139.057 95.8991 138.58 96.0322 138.092 96.1051L138.802 96.0087C138.409 96.0515 138.011 96.0515 137.618 96.0087L138.328 96.0944C138.077 96.0618 137.831 95.997 137.596 95.9016L138.242 96.18C138.113 96.1158 137.693 95.8159 138.113 96.1265C138.533 96.4371 138.113 96.0515 137.984 95.9444C137.855 95.8373 138.328 96.4692 138.21 96.2336C138.092 95.998 138.113 96.0836 138.059 96.0087C138.005 95.9337 137.887 95.6766 137.812 95.5053L138.081 96.1479C137.912 95.7305 137.789 95.296 137.715 94.8519L137.812 95.5588C137.779 95.2526 137.779 94.9439 137.812 94.6377L137.715 95.3553C137.767 94.9866 137.869 94.6265 138.016 94.2843L137.747 94.9162C137.844 94.6913 137.952 94.4771 138.07 94.2629C138.127 94.1547 138.192 94.0509 138.264 93.9523C138.415 93.7273 138.619 93.6417 138.124 94.1129C138.124 94.1129 138.587 93.5881 138.619 93.6202C138.651 93.6524 137.962 94.0272 138.393 93.8023L138.738 93.6202L138.102 93.888C138.312 93.7986 138.533 93.7374 138.759 93.7059L138.038 93.8023C138.281 93.7702 138.527 93.7702 138.77 93.8023L138.059 93.7059C138.335 93.7546 138.606 93.8299 138.867 93.9308L138.221 93.6631C138.483 93.7802 138.738 93.9125 138.985 94.0594L139.297 94.2736C138.598 93.8344 139.017 94.0486 139.19 94.2093C139.303 94.3073 139.41 94.411 139.513 94.5199C139.674 94.702 139.793 95.0233 139.405 94.3593C139.545 94.6056 139.706 94.8198 139.825 95.0769L139.556 94.4449C139.641 94.656 139.706 94.8748 139.749 95.0983L139.653 94.3807C139.685 94.6045 139.685 94.8317 139.653 95.0554L139.749 94.3485C139.717 94.5397 139.663 94.7266 139.588 94.9055L139.857 94.2629C139.75 94.4885 139.628 94.7068 139.491 94.9162C139.211 95.3339 139.62 94.8305 139.62 94.7663C139.62 94.702 139.351 95.0554 139.33 95.0876C139.245 95.1752 139.155 95.2574 139.06 95.3339C138.662 95.6874 139.222 95.2589 139.222 95.2268C139.222 95.1947 138.565 95.6017 138.49 95.6338L139.125 95.3553C138.882 95.4604 138.624 95.529 138.361 95.5588L139.071 95.4624C138.713 95.5007 138.352 95.5007 137.995 95.4624L138.705 95.5588C138.451 95.5188 138.202 95.4506 137.962 95.3553L138.598 95.6231C138.479 95.6231 138.371 95.4839 138.253 95.441C138.135 95.3982 138.716 95.848 138.598 95.7088L138.447 95.5695C138.414 95.5279 138.378 95.4885 138.339 95.4517C138.339 95.4517 138.738 96.0515 138.619 95.7945C138.501 95.5374 138.479 95.5481 138.425 95.4089L138.694 96.0515C138.59 95.7905 138.521 95.5168 138.49 95.2375L138.587 95.9551C138.533 95.4675 138.533 94.9754 138.587 94.4878L138.49 95.2054C138.543 94.8832 138.63 94.5673 138.748 94.2629L138.479 94.9055C138.599 94.6455 138.732 94.3917 138.878 94.145C139.125 93.7273 138.436 94.5413 138.791 94.2629L138.425 94.5306L138.63 94.4235L137.984 94.702C138.124 94.6403 138.273 94.6006 138.425 94.5842L137.704 94.6806H138.167L137.456 94.5842C137.745 94.6299 138.026 94.709 138.296 94.8198L137.65 94.552C137.877 94.655 138.096 94.7731 138.307 94.9055C138.468 94.9912 137.726 94.4021 138.156 94.7984L138.404 95.0447C138.565 95.2375 138.673 95.516 138.285 94.8733C138.35 94.9805 138.425 95.0769 138.49 95.1733C138.64 95.4176 138.773 95.6717 138.888 95.9337L138.619 95.2911C138.793 95.698 138.909 96.1269 138.964 96.5656L138.867 95.848C138.904 96.1539 138.904 96.4632 138.867 96.7691L138.964 96.0622C138.926 96.3078 138.861 96.5484 138.77 96.7798L139.039 96.1372C138.974 96.2657 138.888 96.3728 138.834 96.4906C138.781 96.6085 139.233 96.0515 139.093 96.1586L138.942 96.3193C138.748 96.5335 139.254 96.0622 139.287 96.0622C139.319 96.0622 139.168 96.1372 139.136 96.1586C139.011 96.2314 138.882 96.2958 138.748 96.3514L139.383 96.0836C139.096 96.1948 138.796 96.2704 138.49 96.3086L139.2 96.2122C138.704 96.2764 138.201 96.2764 137.704 96.2122L138.415 96.2978C137.779 96.2095 137.158 96.0441 136.563 95.8052L137.209 96.0729C136.889 95.9461 136.582 95.7883 136.294 95.6017L136.121 95.4839C136.67 95.8052 136.412 95.6981 136.218 95.4839C136.025 95.2696 136.531 96.0194 136.326 95.6231L136.165 95.3018L136.434 95.9444C136.434 95.8052 136.348 95.6659 136.315 95.516L136.412 96.2336C136.385 96.013 136.385 95.7901 136.412 95.5695L136.315 96.2871C136.359 96.0185 136.435 95.756 136.541 95.5053L136.272 96.1479C136.478 95.7069 136.727 95.2872 137.015 94.8948C137.198 94.6484 136.574 95.4089 136.897 95.0661L137.187 94.777C137.51 94.4664 136.638 95.0876 137.047 94.8948L137.36 94.7341L136.724 95.0019C136.902 94.9379 137.086 94.8913 137.273 94.8626L136.552 94.959C136.785 94.9376 137.019 94.9376 137.252 94.959L136.541 94.8626C137.012 94.9319 137.471 95.0615 137.909 95.2482L137.273 94.9805C137.441 95.0593 137.602 95.1487 137.758 95.2482C138.005 95.3982 137.22 94.777 137.489 95.0554L137.715 95.2696C138.016 95.6445 137.79 95.366 137.715 95.2696C137.629 95.1733 137.413 94.8948 137.715 95.2696C137.829 95.4603 137.934 95.6569 138.027 95.8587L137.758 95.2161C137.895 95.5617 137.996 95.9207 138.059 96.2871L137.962 95.5802C138.008 95.9358 138.008 96.2957 137.962 96.6513L138.059 95.9337C138.018 96.1819 137.953 96.4258 137.865 96.662L138.135 96.0194C138.135 96.1586 138.006 96.2764 137.941 96.405C137.747 96.7691 138.415 95.9123 138.07 96.2336L137.93 96.3621C137.779 96.4906 137.876 96.4264 138.221 96.1479C138.07 96.1479 137.919 96.33 137.758 96.405L138.404 96.1372C138.247 96.1997 138.085 96.2464 137.919 96.2764L138.63 96.18H138.275L138.996 96.2764C138.878 96.2521 138.762 96.2162 138.651 96.1693L139.297 96.4371C138.92 96.2476 138.559 96.0254 138.221 95.773C137.984 95.6124 138.802 96.2657 138.425 95.923L138.21 95.7302L138.027 95.5374C137.833 95.3553 138.479 96.2229 138.275 95.8373L138.544 96.4799C138.496 96.3446 138.464 96.2046 138.447 96.0622L138.544 96.7798C138.506 96.4919 138.506 96.2002 138.544 95.9123L138.447 96.6192C138.526 96.0559 138.678 95.5052 138.899 94.9805L138.63 95.6124C138.705 95.441 138.791 95.2589 138.888 95.0876C138.985 94.9162 139.351 94.4128 139.007 94.8519C138.662 95.2911 138.899 94.9912 139.007 94.9162C139.114 94.8412 139.427 94.5628 139.007 94.8519C138.587 95.1411 139.007 94.8519 139.071 94.8519L139.427 94.6806L138.781 94.9483C139.062 94.8444 139.355 94.7725 139.653 94.7341L138.931 94.8305C139.752 94.7771 140.576 94.8202 141.386 94.959C141.74 94.962 142.091 94.8944 142.418 94.7601C142.746 94.6258 143.042 94.4276 143.291 94.1772C143.789 93.6695 144.071 92.9904 144.077 92.2814C144.075 91.5715 143.793 90.8908 143.291 90.3857C142.759 89.925 142.09 89.6504 141.386 89.6038L141.278 89.5074Z" fill="#004D2B"/>
<path d="M81.4965 94.5416C79.9894 95.409 78.6183 96.4915 77.427 97.7548C76.281 98.9421 75.066 100.061 73.7882 101.107C72.7762 101.814 71.6997 102.425 70.677 103.11C69.6543 103.795 68.6853 104.684 67.6195 105.37C66.5029 106.07 65.3413 106.696 64.1421 107.244L62.452 108.08C62.452 108.08 61.806 108.38 62.0213 108.294C61.8598 108.358 61.1062 108.455 61.6875 108.433L64.379 111.111V110.918L63.5931 112.814L63.7007 112.707L62.5165 113.392H62.7319C64.1745 113.199 64.9604 111.368 64.6159 110.104C64.4104 109.428 63.9515 108.856 63.3343 108.508C62.7172 108.159 61.9888 108.059 61.3 108.23C60.6307 108.362 60.0315 108.729 59.6107 109.263C59.19 109.798 58.9757 110.465 59.0069 111.143C59.0153 111.85 59.3015 112.527 59.8045 113.027C60.3074 113.527 60.9871 113.812 61.6983 113.82C63.1251 113.669 64.5003 113.205 65.7247 112.46C66.9089 111.86 68.1255 111.389 69.2882 110.672C70.4852 109.941 71.6323 109.132 72.7224 108.251C73.799 107.469 74.8755 106.848 75.9521 106.109C77.601 104.92 79.146 103.594 80.5706 102.146C81.2919 101.471 82.0132 100.807 82.7238 100.175L83.2728 99.7255C83.7035 99.3613 82.9176 99.9504 83.3912 99.6398C83.6392 99.4664 83.8981 99.309 84.1663 99.1685C84.7831 98.8106 85.2317 98.2236 85.4134 97.5367C85.5951 96.8497 85.495 96.1191 85.1353 95.5056C84.7755 94.892 84.1855 94.4457 83.4951 94.265C82.8046 94.0842 82.0701 94.1837 81.4534 94.5416H81.4965Z" fill="#004D2B"/>
<path d="M85.1352 107.48C85.1352 107.919 85.3505 106.656 85.1352 107.33C85.0598 107.577 84.9845 107.823 84.8983 108.059C84.7153 108.573 84.5107 109.13 84.3062 109.59C84.2416 109.751 83.9832 110.276 84.3062 109.515C84.3062 109.622 84.2201 109.719 84.177 109.826C84.1339 109.933 84.0263 110.158 83.9617 110.329L83.6818 110.961C83.8433 110.586 83.8756 110.511 83.7787 110.747C83.6818 110.983 83.5956 111.143 83.4988 111.336C83.2834 111.775 83.0574 112.193 82.8205 112.611C82.4006 113.371 81.9592 114.131 81.464 114.86C81.3671 115.01 81.238 115.17 81.1411 115.331C81.0442 115.492 81.3887 115.042 81.0657 115.417C80.7919 115.743 80.5009 116.054 80.1937 116.349C79.5801 116.938 78.9233 117.42 78.3527 118.073C77.6511 118.845 77.0139 119.672 76.4473 120.547L81.4532 121.897L79.9783 123.867C80.6663 123.679 81.2511 123.228 81.6044 122.611C81.9576 121.995 82.0504 121.264 81.8623 120.579C81.6546 119.905 81.1954 119.335 80.5789 118.986C79.9624 118.638 79.2353 118.537 78.5466 118.705C77.8372 118.868 77.2068 119.271 76.7631 119.846C76.3193 120.42 76.0897 121.13 76.1135 121.854C76.1219 122.44 76.3188 123.007 76.6753 123.474C77.0318 123.94 77.5291 124.281 78.0943 124.446C78.6663 124.582 79.267 124.537 79.8117 124.316C80.3564 124.095 80.8176 123.71 81.1303 123.214C81.2595 123.01 81.3995 122.828 81.5287 122.636C81.8409 122.175 81.3026 122.871 81.701 122.389C81.9701 122.068 82.2499 121.747 82.5406 121.447C83.1542 120.826 83.8648 120.322 84.4569 119.679C85.7654 118.208 86.8765 116.573 87.7621 114.817C87.9989 114.388 88.2142 113.96 88.408 113.521C88.5372 113.264 88.6448 112.996 88.7632 112.728C89.1938 111.657 88.4833 113.35 88.7632 112.793L89.5706 110.897C90.1434 109.827 90.4776 108.647 90.5503 107.437C90.5339 106.732 90.2451 106.061 89.7438 105.562C89.2426 105.063 88.5676 104.776 87.8589 104.76C87.1477 104.768 86.468 105.053 85.9651 105.553C85.4621 106.054 85.1759 106.73 85.1675 107.437L85.1352 107.48Z" fill="#004D2B"/>
<path d="M76.2429 119.475C75.3238 119.384 74.3981 119.566 73.5838 120C72.9961 120.35 72.4809 120.808 72.0658 121.35C71.5706 121.949 70.9892 122.485 70.5801 123.138C70.2567 123.625 70.0406 124.175 69.946 124.751C69.8514 125.326 69.8803 125.916 70.031 126.48C70.3375 127.531 71.029 128.429 71.9689 128.997C72.7558 129.469 73.6461 129.745 74.5635 129.8C75.2869 129.881 76.0194 129.816 76.7166 129.607C77.7234 129.295 78.6518 128.773 79.4403 128.076C80.0817 127.594 80.6107 126.981 80.9906 126.276C81.4796 125.28 81.6271 124.151 81.4105 123.063C81.2331 122.295 80.8975 121.572 80.425 120.94C79.9525 120.308 79.3532 119.78 78.6652 119.39C77.8735 118.932 76.9755 118.688 76.0599 118.683C74.8941 118.713 73.7767 119.154 72.9055 119.925C72.3145 120.438 71.8189 121.051 71.4414 121.735C71.0402 122.385 70.7254 123.083 70.5048 123.813C70.2395 124.698 70.2208 125.638 70.4509 126.533C70.7473 127.565 71.4088 128.455 72.3134 129.04C73.1343 129.539 74.066 129.829 75.0264 129.886C75.7499 129.958 76.4805 129.892 77.1795 129.693C77.9176 129.495 78.6065 129.147 79.2031 128.672C79.7996 128.196 80.2909 127.603 80.646 126.93C81.0349 126.161 81.2284 125.308 81.2097 124.448C81.1909 123.587 80.9604 122.744 80.5384 121.992C80.0507 121.193 79.3974 120.507 78.6221 119.979C77.9265 119.433 77.1174 119.049 76.2537 118.854C75.6354 118.712 74.9945 118.698 74.3704 118.812C73.7464 118.926 73.1526 119.166 72.6256 119.518C71.8319 120.114 71.1441 120.838 70.5909 121.66C70.126 122.316 69.7631 123.039 69.5143 123.802C69.231 124.723 69.1939 125.701 69.4067 126.641C69.6101 127.518 70.0364 128.33 70.6448 128.997C71.0835 129.518 71.6213 129.947 72.2273 130.261C73.6868 131.035 75.3873 131.231 76.9858 130.807C78.4534 130.4 79.7137 129.46 80.5168 128.172C81.2712 126.929 81.5359 125.453 81.2597 124.027C81.0352 122.998 80.5043 122.061 79.7361 121.337C78.9679 120.613 77.9982 120.136 76.9535 119.968C76.2512 119.802 75.5123 119.897 74.8756 120.236C74.5689 120.412 74.3005 120.647 74.0859 120.927C73.8714 121.207 73.715 121.527 73.6258 121.868C73.5367 122.208 73.5165 122.564 73.5666 122.912C73.6166 123.261 73.7359 123.596 73.9175 123.899C74.0886 124.2 74.3187 124.464 74.5942 124.676C74.8698 124.888 75.1851 125.042 75.5217 125.13C75.806 125.172 76.0841 125.248 76.3505 125.355L75.7154 125.087C75.9277 125.181 76.1298 125.296 76.3183 125.43L75.7693 125.013C75.9407 125.14 76.0929 125.292 76.2213 125.462L75.8014 124.916C75.9258 125.078 76.0307 125.254 76.1137 125.441L75.8446 124.798C75.9319 125.026 75.9934 125.264 76.0276 125.505L75.9306 124.798C75.9629 125.044 75.9629 125.292 75.9306 125.537L76.0276 124.82C75.989 125.092 75.9166 125.358 75.8122 125.612L76.0814 124.98C75.9733 125.24 75.8322 125.485 75.6615 125.709L76.0814 125.173C75.9133 125.383 75.722 125.574 75.5109 125.741L76.0492 125.323C75.8247 125.5 75.5787 125.647 75.317 125.762L75.9522 125.494C75.659 125.615 75.3515 125.698 75.0371 125.741L75.7585 125.644C75.4369 125.687 75.1111 125.687 74.7895 125.644L75.5109 125.741C75.166 125.7 74.8287 125.61 74.5096 125.473L75.1555 125.752C74.8917 125.639 74.6424 125.495 74.4128 125.323L74.951 125.741C74.7302 125.569 74.5313 125.371 74.3589 125.152L74.7788 125.698C74.6433 125.51 74.5279 125.309 74.4343 125.098L74.7035 125.741C74.6197 125.52 74.5618 125.29 74.5312 125.055L74.628 125.762C74.5957 125.51 74.5957 125.254 74.628 125.002L74.5312 125.709C74.5736 125.454 74.6496 125.205 74.7572 124.97L74.4881 125.602C74.7122 125.119 74.9903 124.662 75.317 124.241L74.8972 124.777C75.1783 124.381 75.5074 124.021 75.8769 123.706L75.3278 124.124C75.4792 124.014 75.6415 123.921 75.8122 123.845L75.1663 124.113C75.3251 124.049 75.4915 124.006 75.6615 123.984L74.9403 124.081C75.101 124.059 75.2639 124.059 75.4247 124.081L74.7142 123.984C74.9485 124.016 75.1768 124.081 75.3923 124.177L74.7572 123.899C75.1579 124.086 75.537 124.316 75.8877 124.584L75.3494 124.156C75.6113 124.357 75.8464 124.591 76.0492 124.852L75.6293 124.306C75.7887 124.514 75.9224 124.74 76.0276 124.98L75.7585 124.338C75.8336 124.539 75.8878 124.747 75.92 124.959L75.823 124.241C75.8445 124.444 75.8445 124.649 75.823 124.852L75.92 124.145C75.8892 124.365 75.8313 124.581 75.7477 124.788L76.0168 124.145C75.9254 124.351 75.8097 124.545 75.6723 124.723L76.0921 124.188C75.9491 124.369 75.7826 124.531 75.597 124.67L76.146 124.252C75.9332 124.414 75.7019 124.551 75.457 124.659L76.1029 124.391C75.8361 124.495 75.5578 124.567 75.2739 124.606L75.9953 124.509C75.6597 124.557 75.319 124.557 74.9834 124.509L75.6938 124.606C75.3871 124.565 75.0869 124.486 74.8003 124.37L75.4462 124.638C75.2789 124.562 75.1202 124.468 74.9726 124.359L75.5109 124.777C75.4051 124.682 75.3044 124.582 75.2094 124.477L75.6401 125.013C75.5554 124.905 75.4865 124.786 75.4355 124.659L75.7046 125.302C75.6537 125.17 75.6176 125.034 75.597 124.895L75.6938 125.612C75.6669 125.413 75.6669 125.212 75.6938 125.013L75.6077 125.719C75.6521 125.403 75.7352 125.094 75.8553 124.798L75.5862 125.441C75.8365 124.839 76.1621 124.27 76.5551 123.749L76.1352 124.295C76.3103 124.074 76.5088 123.873 76.7274 123.695L76.1784 124.113C76.3451 123.989 76.5257 123.885 76.7166 123.802L76.0706 124.07C76.2273 124.013 76.3898 123.974 76.5551 123.952L75.8338 124.049C76.0126 124.027 76.1933 124.027 76.3721 124.049L75.6615 123.952C75.8904 123.986 76.1146 124.048 76.3291 124.134L75.683 123.866C75.8957 123.963 76.0978 124.082 76.286 124.22L75.7477 123.802C75.9732 123.984 76.1788 124.188 76.3613 124.413L75.9306 123.877C76.0898 124.082 76.2237 124.305 76.3291 124.541L76.0599 123.899C76.1437 124.109 76.2014 124.328 76.2321 124.552L76.1352 123.834C76.1676 124.029 76.1676 124.228 76.1352 124.423L76.2321 123.717C76.2063 123.863 76.1667 124.006 76.1137 124.145L76.3828 123.502C76.3102 123.668 76.22 123.826 76.1137 123.974L76.5336 123.427C76.2131 123.798 75.852 124.132 75.457 124.423L75.9953 124.006C75.6824 124.241 75.3428 124.439 74.9834 124.595L75.6293 124.327C75.3629 124.423 75.0893 124.499 74.8111 124.552L75.5217 124.456C75.2034 124.493 74.8818 124.493 74.5635 124.456L75.2739 124.552C74.9899 124.508 74.7119 124.433 74.4451 124.327L75.091 124.595C74.9031 124.522 74.7257 124.425 74.5635 124.306L75.1126 124.723C74.9946 124.631 74.8863 124.527 74.7895 124.413L75.2094 124.959C75.1421 124.856 75.0809 124.748 75.0264 124.638L75.2955 125.28C75.2483 125.162 75.2123 125.041 75.1879 124.916L75.2847 125.623C75.274 125.513 75.274 125.401 75.2847 125.291L75.1879 125.998C75.2108 125.851 75.2505 125.707 75.3063 125.569L75.0371 126.212C75.1326 126.015 75.2481 125.829 75.3817 125.655L74.9618 126.191C75.231 125.859 75.5431 125.559 75.823 125.216C76.0492 124.916 76.3054 124.64 76.5875 124.391L76.0384 124.809C76.1562 124.716 76.2867 124.64 76.4259 124.584L75.7908 124.852C75.9154 124.801 76.0454 124.765 76.1784 124.745L75.4678 124.841C75.7291 124.814 75.9924 124.814 76.2537 124.841C76.6075 124.843 76.9581 124.774 77.2853 124.64C77.6125 124.506 77.9098 124.309 78.16 124.06C78.4102 123.811 78.6083 123.515 78.7431 123.19C78.8778 122.864 78.9465 122.516 78.9451 122.164C78.9463 121.812 78.8775 121.463 78.7426 121.137C78.6077 120.812 78.4095 120.517 78.1592 120.268C77.6366 119.792 76.9616 119.515 76.2537 119.486L76.2429 119.475Z" fill="#004D2B"/>
<path d="M61.5259 112.471C61.5636 111.622 61.3502 110.78 60.9122 110.051C60.3611 109.232 59.5498 108.621 58.6083 108.315C58.1782 108.157 57.7352 108.035 57.2842 107.951C56.6568 107.761 55.9941 107.716 55.3467 107.82C54.6993 107.924 54.0842 108.173 53.5484 108.549C53.0125 108.925 52.5701 109.418 52.2548 109.99C51.9396 110.562 51.7597 111.198 51.729 111.85C51.3659 113.328 51.5375 114.887 52.2136 116.252C52.9399 117.597 54.1577 118.613 55.6154 119.09C56.3626 119.431 57.1824 119.583 58.0028 119.535C58.8231 119.486 59.6188 119.238 60.3201 118.812C61.0791 118.32 61.7012 117.646 62.1288 116.852C62.5377 116.029 62.7758 115.133 62.8286 114.217C62.8765 113.453 62.7515 112.687 62.4627 111.977C62.1739 111.267 61.7287 110.631 61.1598 110.115C60.6566 109.654 60.1001 109.255 59.502 108.926C58.7212 108.498 57.8597 108.235 56.9719 108.155C55.1525 107.962 53.6669 109.226 52.7411 110.682C51.0939 113.157 51.4923 117.055 54.216 118.63C54.9954 119.056 55.8673 119.288 56.7567 119.304C57.0151 119.304 57.2842 119.304 57.5533 119.304C58.0261 119.269 58.4946 119.19 58.9529 119.069C60.443 118.582 61.6929 117.553 62.4518 116.188C62.8876 115.585 63.1856 114.896 63.325 114.167C63.4645 113.438 63.4421 112.687 63.2592 111.968C62.7752 110.644 61.8674 109.515 60.6754 108.755C59.807 108.142 58.809 107.735 57.7579 107.566C56.9358 107.416 56.0931 107.416 55.271 107.566C54.9969 107.627 54.7299 107.717 54.4743 107.833C54.1923 107.934 53.9245 108.071 53.6777 108.24C52.9929 108.702 52.4283 109.318 52.0305 110.04C51.6513 110.779 51.4313 111.589 51.3846 112.418C51.3053 113.554 51.62 114.683 52.2763 115.617C52.9326 116.551 53.8908 117.232 54.9911 117.548C55.6902 117.727 56.432 117.627 57.0581 117.269C57.6648 116.919 58.1093 116.346 58.2962 115.674C58.4735 114.989 58.3773 114.264 58.028 113.648C57.6787 113.033 57.1034 112.577 56.4229 112.375C56.3265 112.352 56.2328 112.32 56.1431 112.278L56.789 112.546C56.6183 112.477 56.4587 112.383 56.3152 112.268L56.8535 112.685C56.7174 112.571 56.5913 112.446 56.4768 112.31L56.8966 112.846C56.7791 112.687 56.6815 112.514 56.6059 112.332L56.8751 112.974C56.7879 112.765 56.7265 112.545 56.692 112.321L56.789 113.039C56.7622 112.79 56.7622 112.538 56.789 112.289L56.692 112.996C56.7322 112.746 56.8009 112.502 56.8966 112.268L56.6167 112.899C56.7141 112.688 56.8331 112.487 56.9719 112.3L56.5521 112.846C56.6737 112.7 56.807 112.564 56.9505 112.439L56.4122 112.867C56.5535 112.755 56.7091 112.661 56.8751 112.589L56.2399 112.867C56.4309 112.793 56.6294 112.739 56.832 112.707L56.1215 112.803C56.4113 112.771 56.7037 112.771 56.9935 112.803L56.2723 112.707C56.7246 112.769 57.1663 112.891 57.5857 113.071L56.9505 112.803C57.3754 112.987 57.7766 113.221 58.1455 113.499L57.5964 113.082C57.8722 113.29 58.1215 113.531 58.3392 113.799L57.9193 113.253C58.0712 113.457 58.2011 113.676 58.3069 113.906L58.0271 113.264C58.0985 113.427 58.1455 113.601 58.1669 113.778L58.0701 113.071C58.0754 113.167 58.0754 113.264 58.0701 113.36L58.1563 112.653C58.1182 112.888 58.0531 113.118 57.9624 113.339L58.2316 112.696C58.0103 113.194 57.7321 113.665 57.4026 114.099L57.8225 113.553C57.6548 113.77 57.4634 113.967 57.2519 114.142L57.7901 113.724C57.5991 113.875 57.3893 114.001 57.1658 114.099L57.8117 113.831C57.5412 113.935 57.2593 114.007 56.9719 114.046L57.6825 113.949C57.2644 114.003 56.841 114.003 56.4229 113.949L57.1334 114.046C56.9308 114.013 56.7324 113.96 56.5414 113.885L57.1873 114.163C57.0166 114.087 56.8542 113.994 56.7028 113.885L57.2519 114.303C57.1105 114.19 56.9839 114.061 56.8751 113.917L57.295 114.463C57.1887 114.316 57.0984 114.158 57.0258 113.992L57.295 114.635C57.1907 114.391 57.1184 114.136 57.0797 113.874L57.1766 114.592C57.13 114.236 57.13 113.876 57.1766 113.521L57.0797 114.238C57.1139 113.986 57.1751 113.738 57.2626 113.499L56.9935 114.142C57.142 113.803 57.3299 113.484 57.5533 113.189L57.1334 113.724C57.3215 113.475 57.5423 113.251 57.7901 113.06L57.2411 113.478C57.3603 113.39 57.4906 113.318 57.6286 113.264L56.9827 113.531C57.0619 113.499 57.1452 113.477 57.2303 113.467L56.5091 113.553C56.6594 113.537 56.8109 113.537 56.9612 113.553L56.2507 113.456C56.5246 113.499 56.7921 113.574 57.0474 113.681L56.4015 113.414C56.8065 113.594 57.1894 113.821 57.5426 114.088L57.0043 113.671C57.297 113.891 57.561 114.146 57.7901 114.431L57.3703 113.885C57.4657 114.01 57.5453 114.147 57.6072 114.292L57.3381 113.649C57.4231 113.855 57.4809 114.071 57.5102 114.292L57.4134 113.574C57.4565 113.887 57.4565 114.204 57.4134 114.517L57.5102 113.81C57.4557 114.121 57.3691 114.426 57.2519 114.72L57.521 114.078C57.4323 114.274 57.3242 114.46 57.1981 114.635L57.618 114.088C57.4744 114.279 57.3039 114.449 57.1119 114.592L57.661 114.174C57.5064 114.29 57.3405 114.391 57.1658 114.474L57.8117 114.195C57.669 114.25 57.521 114.289 57.3703 114.313L58.0808 114.217C57.9021 114.238 57.7213 114.238 57.5426 114.217L58.2531 114.313C57.8046 114.25 57.3666 114.127 56.9505 113.949L57.5964 114.217C57.314 114.099 57.0466 113.948 56.7998 113.767L57.3488 114.185C57.1316 114.017 56.9363 113.822 56.7675 113.606L57.1873 114.153C57.0302 113.943 56.8967 113.717 56.789 113.478L57.0689 114.12C56.9624 113.855 56.8864 113.578 56.8428 113.296L56.9397 114.003C56.894 113.647 56.894 113.287 56.9397 112.932L56.8428 113.649C56.9123 113.171 57.0425 112.703 57.2303 112.257L56.9612 112.899C57.0487 112.687 57.1608 112.486 57.295 112.3L56.8751 112.846C56.9523 112.762 57.035 112.683 57.1227 112.61L56.5844 113.028L56.7998 112.899L56.1537 113.178C56.2474 113.14 56.3449 113.111 56.4444 113.092L55.734 113.189C55.9336 113.156 56.1371 113.156 56.3368 113.189L55.6154 113.092C56.1531 113.168 56.6805 113.305 57.1873 113.499L56.5414 113.232C56.694 113.297 56.8384 113.38 56.9719 113.478L56.4337 113.06C56.5064 113.12 56.5715 113.188 56.6275 113.264L56.2076 112.717C56.268 112.797 56.3186 112.883 56.3583 112.974L56.0892 112.332C56.1413 112.452 56.1775 112.578 56.1968 112.707L56.1 112C56.1107 112.16 56.1107 112.321 56.1 112.482C56.1028 113.191 56.3872 113.87 56.8914 114.372C57.3955 114.874 58.0785 115.157 58.7914 115.159C59.5001 115.143 60.1751 114.856 60.6763 114.357C61.1776 113.858 61.4664 113.187 61.4828 112.482L61.5259 112.471Z" fill="#004D2B"/>
<path d="M159.871 98.9004C160.56 99.3288 159.741 98.7504 160.097 99.0503C160.276 99.1999 160.445 99.3609 160.603 99.5323C160.838 99.7777 161.048 100.047 161.227 100.336C161.865 101.279 162.562 102.18 163.316 103.035C164.783 104.576 166.363 106.008 168.042 107.319C168.947 108.091 169.9 108.806 170.895 109.461C171.756 110.007 172.671 110.393 173.554 110.885C174.458 111.458 175.431 111.915 176.45 112.246C176.784 112.331 177.128 112.385 177.526 112.46L178.043 112.599L177.774 112.481C178.183 112.717 178.022 112.535 177.29 111.935C177.649 112.549 178.239 112.995 178.93 113.176C179.62 113.356 180.355 113.257 180.971 112.899C181.588 112.541 182.037 111.954 182.218 111.267C182.4 110.58 182.3 109.85 181.94 109.236C181.298 108.27 180.301 107.593 179.163 107.351C178.786 107.255 178.409 107.18 178.022 107.105C178.022 107.105 177.483 106.965 177.785 107.105C178.086 107.244 177.386 106.901 177.311 106.858C175.426 105.945 173.625 104.87 171.928 103.645C170.209 102.308 168.593 100.843 167.094 99.2645C165.706 97.7115 164.661 95.623 162.67 94.402C162.364 94.2247 162.027 94.1091 161.677 94.0616C161.326 94.0141 160.97 94.0358 160.628 94.1253C160.286 94.2148 159.965 94.3704 159.684 94.5833C159.402 94.7962 159.166 95.0621 158.988 95.3659C158.81 95.6697 158.693 96.0055 158.646 96.354C158.598 96.7025 158.62 97.0569 158.71 97.397C158.8 97.7372 158.956 98.0563 159.17 98.3363C159.384 98.6163 159.651 98.8517 159.957 99.0289L159.871 98.9004Z" fill="#004D2B"/>
<path d="M184.234 108.647L183.9 108.518L184.546 108.786C183.877 108.467 183.19 108.184 182.49 107.94C181.586 107.652 180.618 107.629 179.701 107.876C178.189 108.559 177.007 109.808 176.413 111.351C175.819 112.895 175.859 114.609 176.526 116.123C177.3 117.332 178.496 118.213 179.884 118.597C180.999 118.836 182.157 118.795 183.252 118.479C184.347 118.163 185.347 117.582 186.161 116.787C186.577 116.391 186.955 115.957 187.291 115.491C187.519 115.197 187.717 114.881 187.883 114.548C188.412 113.561 188.675 112.454 188.648 111.335C188.562 109.973 188.011 108.681 187.087 107.672C186.397 106.886 185.479 106.332 184.46 106.087C183.468 105.894 182.442 105.974 181.494 106.32C180.545 106.665 179.709 107.263 179.077 108.047C178.396 108.846 177.874 109.765 177.537 110.757C177.429 111.055 177.354 111.364 177.311 111.678C177.218 112.165 177.178 112.661 177.193 113.156C177.262 114.301 177.671 115.401 178.366 116.316C179.154 117.354 180.262 118.106 181.521 118.458C182.544 118.751 183.637 118.69 184.621 118.286C185.565 117.862 186.352 117.154 186.871 116.262C187.321 115.483 187.552 114.598 187.541 113.699C187.529 112.8 187.276 111.921 186.807 111.153C186.028 109.757 184.771 108.686 183.265 108.133C182.753 107.964 182.211 107.903 181.673 107.952C181.136 108.002 180.615 108.162 180.143 108.422C179.276 108.971 178.628 109.805 178.313 110.778C178.112 111.359 177.996 111.965 177.968 112.578C177.967 113.108 178.125 113.627 178.42 114.068C178.716 114.509 179.137 114.853 179.629 115.056C180.121 115.259 180.663 115.312 181.186 115.208C181.709 115.105 182.189 114.849 182.565 114.474C183.04 113.951 183.317 113.281 183.351 112.578C183.351 112.503 183.351 112.439 183.351 112.374L183.254 113.081C183.297 112.778 183.373 112.48 183.48 112.192L183.211 112.835C183.276 112.674 183.363 112.522 183.469 112.385L183.049 112.92C183.106 112.848 183.171 112.784 183.243 112.728L182.694 113.145C182.766 113.085 182.846 113.035 182.931 112.995L182.285 113.274L182.49 113.21L181.779 113.306C181.915 113.29 182.052 113.29 182.188 113.306L181.478 113.21C181.651 113.245 181.82 113.295 181.984 113.36L181.338 113.092C181.532 113.178 181.717 113.286 181.887 113.413L181.338 112.995C181.658 113.246 181.944 113.538 182.188 113.863L181.768 113.317C182.005 113.611 182.2 113.935 182.35 114.281L182.081 113.638C182.147 113.808 182.198 113.984 182.231 114.163L182.134 113.456C182.156 113.659 182.156 113.864 182.134 114.067L182.231 113.36C182.192 113.562 182.13 113.759 182.048 113.949L182.328 113.317C182.245 113.48 182.152 113.637 182.048 113.788L182.468 113.242C182.304 113.448 182.116 113.635 181.908 113.799L182.447 113.381L182.199 113.531L182.845 113.253C182.697 113.316 182.542 113.36 182.382 113.381L183.103 113.285C182.939 113.301 182.773 113.301 182.608 113.285L183.329 113.381C183.063 113.342 182.803 113.27 182.554 113.167L183.189 113.445C182.896 113.32 182.618 113.162 182.361 112.974L182.91 113.392C182.706 113.232 182.521 113.048 182.361 112.846L182.78 113.381C182.632 113.191 182.509 112.982 182.414 112.76L182.683 113.392C182.578 113.139 182.509 112.872 182.479 112.599L182.576 113.317C182.538 113 182.538 112.68 182.576 112.364L182.479 113.081C182.541 112.662 182.653 112.252 182.813 111.86L182.544 112.503C182.718 112.095 182.942 111.71 183.211 111.357L182.791 111.903C183.016 111.612 183.276 111.349 183.566 111.121L183.028 111.539C183.247 111.371 183.485 111.231 183.739 111.121L183.093 111.389C183.307 111.301 183.531 111.24 183.76 111.207L183.039 111.303C183.218 111.282 183.398 111.282 183.577 111.303L182.856 111.207C183.041 111.234 183.222 111.284 183.394 111.357L182.748 111.078C182.951 111.169 183.143 111.284 183.319 111.421L182.78 111.003C183.018 111.19 183.232 111.406 183.416 111.646L182.996 111.11C183.144 111.307 183.27 111.519 183.373 111.742L183.093 111.1C183.193 111.336 183.262 111.585 183.297 111.839L183.2 111.121C183.238 111.413 183.238 111.708 183.2 111.999L183.297 111.292C183.242 111.634 183.148 111.968 183.017 112.289L183.286 111.646C183.105 112.058 182.874 112.447 182.597 112.803L183.017 112.256C182.698 112.635 182.337 112.976 181.941 113.274L182.479 112.846C182.148 113.106 181.787 113.325 181.402 113.499L182.038 113.231C181.693 113.373 181.331 113.47 180.961 113.52L181.682 113.424C181.411 113.456 181.136 113.456 180.864 113.424L181.585 113.52C181.334 113.488 181.088 113.423 180.853 113.328L181.499 113.595C181.258 113.491 181.03 113.358 180.821 113.199L181.359 113.617C181.147 113.451 180.953 113.264 180.778 113.06L181.209 113.606C181.103 113.48 181.016 113.339 180.95 113.188L181.23 113.831C181.178 113.712 181.145 113.585 181.133 113.456L181.23 114.163C181.198 113.95 181.198 113.733 181.23 113.52L181.133 114.238C181.209 113.658 181.357 113.089 181.575 112.546L181.305 113.188C181.409 112.95 181.539 112.723 181.693 112.513L181.273 113.049C181.392 112.9 181.525 112.764 181.672 112.642L181.123 113.07C181.233 112.987 181.352 112.916 181.478 112.856L180.843 113.124C180.986 113.06 181.139 113.017 181.295 112.995L180.584 113.081C180.77 113.065 180.958 113.065 181.144 113.081L180.434 112.985C180.822 113.055 181.202 113.17 181.564 113.328L180.918 113.06C181.51 113.317 182.091 113.595 182.694 113.809C183.395 113.997 184.142 113.901 184.772 113.542C185.374 113.181 185.817 112.607 186.01 111.935C186.104 111.592 186.128 111.233 186.082 110.88C186.036 110.527 185.92 110.187 185.741 109.879C185.361 109.296 184.791 108.861 184.126 108.647H184.234Z" fill="#004D2B"/>
<path d="M151.818 105.659L152.755 107.801L153.368 109.183C153.444 109.354 153.519 109.515 153.584 109.675C153.648 109.836 153.67 109.89 153.713 109.965C153.39 109.44 153.713 110.104 153.831 110.243C154.499 111.85 155.263 113.403 156.081 114.945C156.459 115.791 157.002 116.554 157.678 117.19C158.355 117.826 159.151 118.323 160.022 118.651C160.708 118.835 161.44 118.743 162.059 118.394C162.678 118.045 163.133 117.468 163.327 116.787C163.504 116.103 163.408 115.377 163.059 114.762C162.709 114.147 162.134 113.69 161.453 113.488C160.98 113.338 162.089 113.799 161.55 113.488C161.012 113.178 161.776 113.756 161.647 113.574C161.541 113.448 161.426 113.33 161.303 113.221C160.969 112.867 161.636 113.735 161.303 113.285C160.969 112.835 160.678 112.214 160.398 111.678C160.118 111.143 159.763 110.468 159.462 109.868C159.253 109.477 159.069 109.073 158.913 108.658C159.117 109.236 158.913 108.658 158.837 108.487L158.353 107.34C157.718 105.873 157.061 104.417 156.415 102.96C156.053 102.348 155.463 101.904 154.774 101.723C154.084 101.543 153.351 101.641 152.733 101.996C152.135 102.371 151.702 102.957 151.522 103.637C151.343 104.317 151.429 105.04 151.764 105.659H151.818Z" fill="#004D2B"/>
<path d="M164.974 116.723C163.286 116.35 161.518 116.621 160.022 117.483C159.056 118.109 158.331 119.041 157.965 120.129C157.774 120.714 157.711 121.334 157.781 121.946C157.852 122.557 158.054 123.147 158.375 123.674C158.967 124.708 159.87 125.532 160.957 126.03C162.044 126.527 163.261 126.673 164.436 126.448C166.653 125.837 167.784 123.685 168.117 121.585C168.301 120.861 168.301 120.103 168.117 119.379C167.934 118.834 167.653 118.326 167.289 117.88C166.849 117.156 166.352 116.469 165.803 115.823C165.346 115.349 164.784 114.987 164.161 114.768C163.539 114.548 162.873 114.477 162.218 114.559C161.542 114.678 160.898 114.936 160.327 115.316C159.756 115.695 159.271 116.189 158.902 116.766C158.374 117.507 158.007 118.349 157.825 119.24C157.595 120.054 157.557 120.911 157.714 121.742C157.871 122.574 158.218 123.358 158.73 124.034C159.242 124.71 159.903 125.259 160.663 125.639C161.423 126.018 162.261 126.218 163.111 126.223C164.299 126.352 165.492 126.048 166.472 125.369C167.452 124.69 168.151 123.68 168.44 122.528C168.701 121.367 168.586 120.154 168.11 119.063C167.634 117.971 166.822 117.058 165.792 116.455C164.78 115.796 163.566 115.515 162.366 115.662C161.166 115.809 160.057 116.375 159.236 117.258C157.707 119.004 156.749 121.746 157.976 123.91C159.936 127.326 164.866 126.898 167.375 124.402C170.421 121.371 168.634 116.38 165.222 114.484C164.3 113.944 163.247 113.667 162.177 113.684C161.108 113.701 160.064 114.012 159.16 114.581C158.227 115.154 157.433 115.926 156.835 116.841C156.154 118.001 155.932 119.371 156.211 120.686C156.4 121.669 156.812 122.595 157.416 123.395C158.049 124.339 158.879 125.136 159.849 125.73C161.916 126.887 164.414 126.426 166.449 125.441C166.975 125.158 167.454 124.797 167.87 124.37C168.182 124.059 168.451 123.727 168.785 123.449C169.035 123.2 169.234 122.905 169.368 122.579C169.503 122.254 169.572 121.905 169.571 121.553C169.567 120.847 169.285 120.17 168.785 119.668C168.535 119.418 168.239 119.219 167.912 119.083C167.585 118.947 167.234 118.876 166.879 118.876C166.174 118.91 165.503 119.191 164.985 119.668C164.543 120.022 164.21 120.482 163.768 120.836L164.317 120.418C164.093 120.574 163.855 120.71 163.607 120.825L164.253 120.557C163.605 120.817 162.929 121.004 162.239 121.114L162.95 121.018C162.696 121.044 162.44 121.044 162.186 121.018L162.907 121.114C162.666 121.083 162.43 121.018 162.207 120.921L162.853 121.2C162.625 121.094 162.408 120.965 162.207 120.814L162.745 121.232C162.341 120.923 161.979 120.563 161.669 120.161L162.089 120.707C161.798 120.337 161.553 119.935 161.357 119.508L161.626 120.139C161.495 119.83 161.401 119.507 161.346 119.175L161.443 119.882C161.416 119.633 161.416 119.382 161.443 119.133L161.346 119.84C161.374 119.607 161.435 119.38 161.529 119.165L161.249 119.807C161.352 119.596 161.474 119.396 161.615 119.208L161.195 119.743C161.434 119.453 161.705 119.191 162.003 118.961L161.454 119.379C161.786 119.129 162.147 118.92 162.53 118.758L161.884 119.026C162.102 118.939 162.33 118.878 162.562 118.843L161.841 118.94C162.073 118.908 162.309 118.908 162.541 118.94L161.82 118.843C162.129 118.896 162.433 118.982 162.724 119.101L162.078 118.833C162.406 118.976 162.717 119.155 163.004 119.368L162.455 118.951C162.801 119.218 163.115 119.523 163.391 119.861L162.972 119.325C163.233 119.655 163.453 120.015 163.628 120.396L163.359 119.754C163.493 120.076 163.583 120.415 163.628 120.761L163.531 120.043C163.558 120.314 163.558 120.586 163.531 120.857L163.617 120.139C163.588 120.367 163.53 120.59 163.445 120.803L163.714 120.161C163.628 120.354 163.519 120.538 163.391 120.707L163.811 120.161C163.62 120.401 163.399 120.617 163.154 120.803L163.693 120.386C163.411 120.597 163.103 120.774 162.778 120.911L163.424 120.643C163.042 120.803 162.64 120.912 162.229 120.964L162.95 120.868C162.639 120.911 162.324 120.911 162.013 120.868L162.735 120.964C162.492 120.923 162.254 120.858 162.024 120.771L162.67 121.039C162.499 120.959 162.337 120.863 162.186 120.75L162.735 121.168C162.58 121.051 162.443 120.914 162.325 120.761L162.745 121.296C162.668 121.197 162.603 121.089 162.552 120.975L162.821 121.617C162.757 121.456 162.714 121.286 162.692 121.114L162.788 121.821C162.767 121.6 162.767 121.378 162.788 121.157L162.702 121.875C162.755 121.528 162.853 121.189 162.993 120.868L162.713 121.51C162.862 121.174 163.046 120.855 163.262 120.557L162.842 121.093C163.01 120.876 163.201 120.678 163.413 120.504L162.864 120.921C163.034 120.794 163.218 120.686 163.413 120.6L162.767 120.878C162.927 120.816 163.093 120.769 163.262 120.739L162.541 120.836C162.748 120.809 162.958 120.809 163.165 120.836L162.455 120.739C162.676 120.774 162.892 120.831 163.101 120.911L162.465 120.643C162.766 120.772 163.051 120.933 163.316 121.125L162.767 120.707C163.004 120.886 163.218 121.095 163.402 121.328L162.982 120.782C163.129 120.985 163.252 121.204 163.348 121.435L163.079 120.803C163.159 121 163.217 121.205 163.251 121.414L163.154 120.696C163.187 120.949 163.187 121.204 163.154 121.457L163.251 120.739C163.208 120.963 163.143 121.182 163.058 121.393L163.338 120.75C163.26 120.928 163.163 121.097 163.047 121.253L163.467 120.718C163.352 120.853 163.226 120.979 163.09 121.093L163.628 120.675C163.487 120.774 163.336 120.856 163.176 120.921L163.811 120.654C163.613 120.73 163.407 120.784 163.198 120.814L163.919 120.718C163.636 120.75 163.351 120.75 163.068 120.718L163.79 120.814C163.42 120.756 163.059 120.655 162.713 120.514L163.359 120.782C163.08 120.664 162.816 120.513 162.573 120.332L163.122 120.75C162.944 120.615 162.784 120.456 162.649 120.279L163.068 120.825C162.931 120.649 162.818 120.454 162.735 120.247L163.004 120.889C162.932 120.703 162.882 120.509 162.853 120.311L162.95 121.028C162.912 120.74 162.912 120.449 162.95 120.161L162.853 120.878C162.915 120.446 163.027 120.022 163.187 119.615L162.918 120.247C163.068 119.902 163.256 119.576 163.477 119.272L163.058 119.818C163.208 119.617 163.386 119.436 163.585 119.283L163.036 119.7C163.188 119.594 163.35 119.505 163.521 119.433L162.875 119.7L163.187 119.615L162.465 119.711H162.853L162.132 119.615L162.401 119.69L161.766 119.422C161.91 119.482 162.047 119.557 162.175 119.647L161.626 119.229C161.837 119.4 162.028 119.594 162.196 119.807L161.777 119.272C161.994 119.575 162.195 119.89 162.379 120.214C162.605 120.568 162.885 120.878 163.079 121.285L162.81 120.643C162.846 120.736 162.872 120.833 162.885 120.932L162.788 120.225C162.805 120.378 162.805 120.533 162.788 120.686L162.885 119.979C162.805 120.549 162.665 121.109 162.465 121.65L162.735 121.007C162.64 121.236 162.517 121.452 162.369 121.65L162.788 121.103C162.661 121.268 162.512 121.416 162.347 121.543L162.896 121.125C162.762 121.231 162.613 121.317 162.455 121.382L163.101 121.114C162.972 121.165 162.839 121.201 162.702 121.221L163.413 121.125C163.273 121.141 163.133 121.141 162.993 121.125L163.704 121.221C163.496 121.192 163.293 121.134 163.101 121.05L163.747 121.318C163.417 121.173 163.106 120.99 162.821 120.771L163.37 121.189C163.134 121.001 162.917 120.789 162.724 120.557L163.144 121.103C163.023 120.939 162.919 120.763 162.832 120.579L163.101 121.21C163.049 121.094 163.012 120.972 162.993 120.846L163.09 121.564C163.074 121.404 163.074 121.242 163.09 121.082L162.993 121.789C163.027 121.61 163.077 121.434 163.144 121.264L162.875 121.896C162.948 121.746 163.034 121.603 163.133 121.468L162.713 122.003C162.821 121.878 162.94 121.763 163.068 121.66L162.53 122.078C162.711 121.944 162.906 121.829 163.111 121.735L162.465 122.003C162.791 121.875 163.131 121.785 163.477 121.735L162.756 121.832C163.178 121.778 163.605 121.778 164.027 121.832L163.305 121.735H163.467C164.166 121.896 164.9 121.801 165.534 121.468C166.139 121.11 166.582 120.535 166.772 119.861C166.868 119.518 166.894 119.159 166.848 118.805C166.802 118.452 166.684 118.112 166.503 117.805C166.333 117.502 166.104 117.236 165.828 117.024C165.552 116.812 165.236 116.659 164.899 116.573L164.974 116.723Z" fill="#004D2B"/>
<path d="M76.7166 77.9295C76.8787 77.9435 77.038 77.9795 77.1903 78.0366C76.9426 77.9188 76.9642 77.9295 77.2549 78.0366L78.17 78.5614C78.6975 78.8506 79.2465 79.0434 79.7741 79.3326C80.4022 79.7415 81.0783 80.0724 81.7872 80.318C82.009 80.3637 82.2282 80.4209 82.4439 80.4893C82.1963 80.4036 82.2179 80.4251 82.4439 80.575C82.72 80.734 83.0124 80.8633 83.316 80.9606C84.6951 81.4521 86.1925 81.5101 87.6059 81.127C89.0192 80.7439 90.2802 79.938 91.218 78.8185C92.5829 77.5979 93.6223 76.0597 94.2431 74.3415C94.2431 74.2665 94.62 73.3668 94.4585 73.7417C94.8746 72.9265 95.1614 72.0522 95.3089 71.1498C95.3089 70.7856 95.3089 70.4429 95.3089 70.0787C95.3089 69.3611 95.1905 70.4322 95.3736 69.661C95.5566 68.8899 95.7181 68.0759 95.8365 67.2726C95.9668 66.4546 96.0171 65.6261 95.9871 64.7985C95.9871 64.445 95.9871 64.4129 95.9871 64.7128C95.9871 64.5414 96.084 64.37 96.1271 64.1987C96.2518 63.7193 96.3169 63.2265 96.3209 62.7313C96.3019 62.0272 96.0122 61.357 95.5115 60.8589C95.0109 60.3608 94.3373 60.0726 93.6295 60.0537H93.3065C92.5936 60.0565 91.9107 60.3395 91.4066 60.8411C90.9025 61.3426 90.6179 62.0221 90.6151 62.7313C90.6392 63.4338 90.9305 64.101 91.4301 64.5981C91.9297 65.0951 92.6004 65.3849 93.3065 65.409H93.6295L90.9381 62.7313C91.0242 62.4529 91.0242 62.4422 90.9381 62.7313C90.9381 62.8491 90.8628 62.9777 90.8305 63.1062C90.7107 63.5472 90.6384 63.9995 90.6151 64.4557C90.6151 65.0448 90.6151 65.6232 90.6151 66.2122C90.6151 65.998 90.6151 66.0516 90.6151 66.3943C90.6151 66.7371 90.5397 66.7906 90.5074 66.9941L90.3137 67.8938C90.1454 68.5975 90.0373 69.3141 89.9907 70.0359V70.5714C89.9907 70.8927 89.9907 70.9249 89.9907 70.6357C89.8615 71.1391 90.0876 70.4643 89.84 70.9891C89.5924 71.5139 89.3556 72.2423 89.0864 72.8635C89.3017 72.3815 88.8603 73.2598 88.8065 73.3347C88.7527 73.4097 88.5481 73.7524 88.4082 73.9559C87.9775 74.5664 88.7419 73.6239 88.2251 74.1701C88.0206 74.3844 87.8376 74.5986 87.6223 74.8021C87.2455 75.1769 86.8363 75.5197 86.438 75.8731C86.6102 75.7446 86.6102 75.7446 86.438 75.8731C86.2657 76.0016 86.3196 75.9802 86.5995 75.8088C86.3519 75.8731 86.3626 75.8624 86.5995 75.8088C86.8471 75.7446 86.8041 75.8088 86.5134 75.8088H85.9967H85.2C84.4141 75.8088 85.3723 75.8088 85.3184 75.8088C85.2646 75.8088 84.0373 75.2198 84.1019 75.2412C83.8482 75.1402 83.5849 75.0649 83.316 75.0163C82.8531 74.9413 83.7035 75.359 83.2514 75.0163C82.7939 74.6906 82.2987 74.4209 81.7765 74.213C80.672 73.5347 79.4854 72.9984 78.2453 72.6171C77.5572 72.4282 76.8218 72.519 76.2009 72.8695C75.5801 73.22 75.1247 73.8015 74.9349 74.4861C74.745 75.1707 74.8362 75.9023 75.1885 76.5199C75.5408 77.1376 76.1254 77.5907 76.8135 77.7796L76.7166 77.9295Z" fill="#004D2B"/>
</g>
<defs>
<clipPath id="clip0_195_1592">
<rect width="240" height="131" fill="white"/>
</clipPath>
</defs>
</svg>
