<svg width="312" height="141" viewBox="0 0 312 141" fill="none" xmlns="http://www.w3.org/2000/svg">
<g clip-path="url(#clip0_195_1785)">
<path d="M106.583 2.91534H93.2767C90.4281 2.88717 87.5862 3.19581 84.8102 3.83479C81.1272 4.64211 78.5222 6.20067 75.1087 7.74802C69.2697 10.3942 65.4184 14.5317 60.6911 18.6132C58.1422 20.8557 54.8859 22.3246 52.438 24.5896C49.4672 27.4392 46.929 30.7066 44.9036 34.2885C41.535 40.2313 38.3685 45.6022 36.134 52.0607C33.7535 58.9902 31.5414 67.1643 31.6425 74.4862C31.6425 80.3168 31.6425 86.1586 31.6425 91.9892C31.6425 97.8198 33.6412 102.944 36.134 108.023C38.9973 113.764 43.2193 119.696 48.4855 123.486C51.8009 126.037 55.2654 128.388 58.8608 130.527C61.9375 132.22 65.4858 133.017 68.7758 134.295C74.1256 136.362 79.7308 137.697 85.4391 138.264C91.0535 138.802 96.432 136.291 101.721 134.9C116.475 130.998 127.704 117.868 134.374 104.682C135.89 101.688 137.877 99.0756 138.977 95.8912C139.965 92.9983 140.931 90.0831 141.931 87.179C142.739 84.8131 144.244 82.6939 145.018 80.3504C145.658 78.4218 145.12 76.4259 145.221 74.4525C145.429 72.846 145.756 71.257 146.197 69.6983C147.478 63.1389 146.197 56.243 144.951 49.7733C143.469 42.29 140.7 35.1198 136.765 28.5813C132.948 22.3022 130.477 16.4491 124.762 11.4258C122.373 9.37879 119.66 7.74191 116.733 6.58192C114.667 5.74097 109.996 2.92654 106.56 2.97139" fill="#D1C8E1"/>
<path d="M106.582 0.11202C99.295 0.11202 91.7494 -0.482257 84.5855 1.02025C81.2683 1.86095 78.064 3.09572 75.0411 4.69805C72.1022 6.04702 69.3197 7.71264 66.7431 9.66528C64.1942 11.6499 61.8474 13.87 59.422 16.0004C56.9966 18.1308 54.313 19.5213 51.8539 21.4386C46.4753 25.6322 43.0956 31.7319 39.8393 37.5849C36.42 43.6368 33.693 50.0534 31.7097 56.7138C30.7349 60.0234 29.9846 63.3949 29.464 66.8053C29.0022 70.3139 28.8033 73.8519 28.8688 77.3901C28.8688 81.1277 28.8688 84.8652 28.8688 88.6028C28.7248 92.1706 29.0341 95.7424 29.7895 99.2325C31.523 105.668 34.4689 111.715 38.4694 117.049C40.3889 119.713 42.6247 122.134 45.1279 124.259C47.8677 126.502 50.8209 128.565 53.7628 130.527C56.6443 132.483 59.7749 134.044 63.0713 135.169C66.2603 136.291 69.4043 137.479 72.6269 138.443C79.2968 140.462 86.4608 141.863 93.3439 140.215C96.589 139.43 99.7442 138.275 102.967 137.378C105.954 136.533 108.839 135.36 111.568 133.88C122.145 128.15 130.264 118.305 135.901 107.844C137.349 105.164 138.966 102.54 140.392 99.8268C141.919 96.4274 143.202 92.9239 144.232 89.3429C144.726 87.8696 145.326 86.4343 146.029 85.0484C146.95 83.4776 147.638 81.7818 148.072 80.0139C148.241 78.2921 148.263 76.5592 148.14 74.8336C148.33 73.1349 148.661 71.4547 149.128 69.8103C150.397 62.5332 149.128 55.0768 147.59 47.9343C146.112 41.0517 143.575 34.4397 140.066 28.3344C136.945 22.9075 134.014 17.1217 129.882 12.3787C127.716 9.85584 125.147 7.70772 122.28 6.02115C119.853 4.67608 117.353 3.46692 114.791 2.39939C112.283 1.0588 109.521 0.26038 106.684 0.0559697C103.068 0.0559697 103.068 5.66233 106.684 5.66233C108.929 5.66233 111.254 6.89573 113.308 7.90488C115.704 8.92718 118.036 10.0916 120.293 11.392C125.346 14.5876 128.546 19.5997 131.443 24.6791C134.508 30.0612 137.731 35.2639 139.819 41.1282C142.049 47.4249 143.431 53.9894 143.929 60.6495C144.23 63.8816 144.01 67.141 143.278 70.3036C142.796 71.939 142.547 73.6337 142.537 75.3382C142.757 76.8843 142.666 78.4588 142.267 79.969C141.762 81.2921 141.01 82.5256 140.403 83.8038C139.659 85.4608 139.014 87.1606 138.472 88.8944C137.609 91.9756 136.482 94.9767 135.103 97.8645C132.472 102.989 129.552 107.961 126.356 112.755C123.171 117.349 119.349 121.468 115.004 124.988C110.83 128.324 106.021 130.778 100.867 132.198C97.7792 133.039 94.7812 134.183 91.6596 134.911C88.7596 135.535 85.7655 135.588 82.845 135.068C76.3773 134.059 70.3027 131.794 64.1494 129.653C61.2459 128.568 58.5005 127.101 55.9861 125.291C53.301 123.551 50.7248 121.649 48.272 119.595C43.9163 115.538 40.4256 110.645 38.009 105.209C36.625 102.393 35.5917 99.4179 34.9323 96.3508C34.4697 93.0758 34.3381 89.7626 34.5394 86.4612C34.5394 79.8681 34.0453 73.118 35.213 66.5922C36.3018 60.2663 38.1647 54.098 40.7599 48.2258C42.1186 45.2432 43.6794 42.3728 45.2514 39.5135C46.7283 36.6948 48.3823 33.9722 50.2033 31.3619C51.8283 29.0401 53.8102 26.9891 56.0759 25.2846C58.6982 23.5981 61.2248 21.7676 63.644 19.8016C65.8897 17.8169 68.0456 15.7313 70.3812 13.9037C72.7205 12.1745 75.2435 10.7081 77.9045 9.53074C80.5755 8.12521 83.4121 7.05917 86.3484 6.35751C89.5597 5.81569 92.8174 5.59779 96.0724 5.70716H106.605C110.221 5.70716 110.221 0.100796 106.605 0.100796L106.582 0.11202Z" fill="#004D2B"/>
<path d="M67.8775 39.3565L68.2704 40.1526C68.5152 40.567 68.8634 40.9107 69.281 41.1505C69.5945 41.3502 69.9542 41.4661 70.3254 41.4869C70.6926 41.5893 71.081 41.5893 71.4482 41.4869C71.9214 41.3655 72.3523 41.1173 72.6946 40.7693C72.8743 40.5451 73.0539 40.3208 73.2111 40.0853L73.3009 39.9508L73.3683 39.8274C73.4875 39.5756 73.5925 39.3173 73.6827 39.0537C73.6891 39.0053 73.6891 38.9563 73.6827 38.908C73.6827 38.6613 73.7501 38.381 73.7838 38.1343C73.7838 38.1343 73.7838 38.0783 73.7838 38.0558V37.9325C73.7838 37.9325 73.7838 37.9324 73.7838 37.854C73.7838 37.5961 73.7838 37.3158 73.6827 37.0691C73.5923 36.7556 73.4719 36.4515 73.3233 36.1609C73.2884 36.0644 73.2392 35.9737 73.1774 35.8917C73.0202 35.6563 72.8405 35.432 72.6609 35.2078L72.5486 35.0845C72.4569 34.9854 72.3594 34.8918 72.2567 34.8041C72.0056 34.5387 71.6933 34.3386 71.3471 34.221C71.007 34.0657 70.6375 33.9854 70.2636 33.9854C69.8896 33.9854 69.5201 34.0657 69.18 34.221C68.8362 34.3368 68.5272 34.5374 68.2817 34.8041L67.8437 35.376C67.5899 35.8034 67.4579 36.2919 67.462 36.7888L67.563 37.5288C67.6917 37.9984 67.9392 38.427 68.2817 38.7734C68.4402 38.8981 68.5835 39.0412 68.7084 39.1995L68.2704 38.6276C68.3528 38.7382 68.4207 38.8588 68.4726 38.9865L68.1919 38.3137C68.2336 38.4021 68.2601 38.4969 68.2704 38.594L68.1694 37.854C68.1812 37.947 68.1812 38.0412 68.1694 38.1343L68.2704 37.383C68.2565 37.4795 68.2302 37.5737 68.1919 37.6634L68.4726 36.9906C68.4192 37.1199 68.3473 37.2408 68.2592 37.3494L68.6971 36.7776L73.1101 37.3382L72.7171 36.5421C72.5409 36.2254 72.2904 35.9561 71.9872 35.7572C71.7179 35.5096 71.3892 35.3359 71.0328 35.2527C70.6656 35.1497 70.2771 35.1497 69.9099 35.2527C69.5365 35.261 69.1735 35.3779 68.8656 35.589L68.2929 36.0263C67.9508 36.3687 67.7033 36.7936 67.5743 37.2597L67.4732 37.9997C67.4676 38.5003 67.5996 38.9929 67.855 39.4238L67.8775 39.3565Z" fill="#004D2B"/>
<path d="M113.836 32.2929C117.452 32.2929 117.452 26.6865 113.836 26.6865C110.221 26.6865 110.221 32.2929 113.836 32.2929Z" fill="#004D2B"/>
<path d="M92.8613 41.5656V42.7654C92.8393 43.1547 92.9247 43.5425 93.1083 43.8867C93.2196 44.2322 93.4211 44.5419 93.6922 44.7837C93.9354 45.0532 94.2452 45.2542 94.5905 45.3668C94.9359 45.5473 95.3245 45.6288 95.7134 45.6022L96.4657 45.5013C96.9325 45.3725 97.3581 45.1253 97.7009 44.7837L98.1387 44.2119C98.3926 43.7845 98.5247 43.296 98.5206 42.7991V41.5993C98.5521 41.2106 98.4701 40.8212 98.2847 40.478C98.155 40.1416 97.9561 39.836 97.7008 39.5811C97.4455 39.3262 97.1395 39.1275 96.8026 38.9979C96.4589 38.8128 96.0689 38.731 95.6797 38.7624L94.9386 38.8522C94.471 38.9851 94.0456 39.2362 93.7034 39.581L93.2655 40.1417C93.0119 40.5738 92.8764 41.0648 92.8725 41.5656H92.8613Z" fill="#004D2B"/>
<path d="M93.2764 60.1002C95.0954 60.1002 96.9145 60.3693 98.7335 60.2236C100.41 60.0806 102.036 59.5837 103.506 58.7659C106.234 57.3083 109.457 54.6508 109.39 51.2534C109.39 50.5099 109.094 49.7969 108.567 49.2712C108.041 48.7455 107.327 48.4502 106.582 48.4502C105.838 48.4502 105.124 48.7455 104.597 49.2712C104.071 49.7969 103.775 50.5099 103.775 51.2534C103.775 51.9486 103.932 50.5358 103.775 51.3319C103.685 51.7692 103.775 51.2309 103.887 51.1076C103.811 51.2297 103.744 51.3572 103.685 51.4889C103.629 51.5898 103.551 51.6907 103.483 51.8028C103.416 51.9149 103.91 51.3094 103.596 51.6682C103.281 52.027 103.191 52.1168 102.978 52.3186C102.765 52.5204 102.506 52.7447 102.271 52.9465C102.035 53.1483 102.641 52.6886 102.349 52.8792C102.228 52.9588 102.112 53.0449 102.001 53.1371C101.487 53.4855 100.95 53.8002 100.395 54.079L100.047 54.2584C99.6319 54.4602 100.047 54.2584 100.238 54.1799L99.542 54.4378C99.273 54.4825 99.0069 54.5424 98.7448 54.6172C99.3623 54.5611 98.7448 54.5275 98.7448 54.6172H98.1946C96.5552 54.6172 94.927 54.4714 93.2876 54.4602C92.5449 54.4661 91.8344 54.7633 91.3092 55.2877C90.784 55.8122 90.4863 56.5217 90.4805 57.2634C90.4948 58.0023 90.7951 58.7071 91.3185 59.2297C91.8419 59.7523 92.5476 60.0522 93.2876 60.0666L93.2764 60.1002Z" fill="#004D2B"/>
<path d="M255.565 17.7835C255.497 18.1198 247.491 18.4786 243.763 18.9047C239.07 19.4766 234.443 21.2706 229.952 22.5713C224.18 24.242 217.342 27.3479 213.21 31.9002C208.292 37.3048 203.688 43.113 200.623 49.8406C198.691 54.0678 196.434 59.6405 196.255 64.2826C196.041 70.0908 196.333 75.9663 196.311 81.7857C196.446 90.3548 198.957 98.7189 203.565 105.949C204.606 107.663 205.809 109.274 207.158 110.759C208.752 112.486 210.077 115.323 211.964 116.612C216.253 119.561 221.822 121.355 226.842 122.555C235.536 124.829 244.728 124.303 253.105 121.053C258.484 119.113 262.908 117.509 267.546 113.977C273.616 109.258 278.621 103.313 282.233 96.5304C284.797 91.9343 286.91 87.1016 288.543 82.0996C290.452 76.1793 293.147 69.945 293.035 63.6883C292.945 55.8394 292.889 49.0221 290.722 41.431C290.037 39.4502 289.181 37.5329 288.162 35.7014C287.589 34.4904 287.409 32.4721 286.747 31.3172C285.444 29.0747 283.816 28.615 282.053 26.8321C279.482 24.2868 278.392 22.5601 275.013 20.7324C272.602 19.4655 270.018 18.5588 267.344 18.0413C264.323 17.4134 261.011 17.3125 255.52 17.761" fill="#8CA54F"/>
<path d="M253.139 16.3708L254.15 15.3616C254.936 14.9243 254.7 15.0588 254.307 15.2158C253.914 15.3728 254.914 15.1485 254.509 15.2158L253.937 15.2832C253.038 15.3729 252.129 15.4401 251.231 15.5074C249.187 15.6643 247.132 15.7989 245.088 16.0007C239.216 16.5726 233.624 18.5012 228.032 20.2615C220.047 22.3373 213 27.0475 208.034 33.6272C206.136 35.8617 204.355 38.1933 202.7 40.6127C199.508 45.3534 196.977 50.5063 195.177 55.9293C193.234 61.7038 193.335 67.5569 193.437 73.5781C193.538 79.5993 193.313 85.8 194.694 91.81C196.007 97.475 198.286 102.872 201.431 107.766C202.824 110.008 204.62 111.78 206.103 113.888C207.455 116.093 209.243 118.001 211.358 119.494C216.321 122.422 221.759 124.46 227.426 125.515C233.248 126.82 239.265 127.003 245.156 126.054C250.786 124.971 256.258 123.193 261.449 120.761C271.555 116.276 279.28 107.598 284.569 98.1116C287.543 92.6035 290.005 86.8347 291.923 80.8776C293.9 75.0694 295.966 69.3172 295.909 63.1054C296.016 57.0287 295.557 50.9553 294.54 44.9632C294.014 42.0032 293.077 39.1311 291.755 36.4303C291.171 35.3635 290.708 34.2353 290.374 33.0665C290.118 31.7856 289.656 30.5548 289.004 29.4224C287.623 27.2696 285.388 26.0586 283.637 24.3206C282.047 22.5481 280.304 20.9196 278.426 19.4543C273.946 16.4958 268.727 14.8453 263.358 14.6889C260.769 14.5953 258.177 14.6703 255.599 14.9131C254.859 14.9302 254.155 15.231 253.632 15.7531C253.11 16.2751 252.809 16.9782 252.791 17.7163C252.794 18.4588 253.091 19.1701 253.617 19.6952C254.143 20.2202 254.855 20.5165 255.599 20.5195C260.281 20.1495 264.582 20.0261 268.905 21.2371C271.322 21.8449 273.606 22.8941 275.642 24.3318C277.438 25.6997 278.797 27.5611 280.448 29.0748C281.84 30.3418 284.007 31.3173 284.58 33.1786C284.905 34.2999 285.096 35.3427 285.512 36.3855C286.028 37.6525 286.713 38.8298 287.297 40.052C288.379 42.6463 289.094 45.3786 289.419 48.17C289.818 50.803 290.054 53.458 290.127 56.1199C290.25 58.9343 290.374 61.7935 290.273 64.6192C290.093 67.4558 289.542 70.2567 288.633 72.9502C287.072 78.3993 285.156 83.7405 282.895 88.9395C278.617 98.3245 272.61 107.474 263.807 113.137C259.465 115.73 254.798 117.735 249.928 119.102C244.858 120.728 239.515 121.338 234.208 120.896C228.957 120.392 223.812 119.099 218.948 117.061C216.916 116.22 214.457 115.188 212.907 113.563C211.358 111.937 210.122 109.762 208.595 107.956C205.377 104.015 202.938 99.498 201.409 94.6468C200.521 92.0481 199.882 89.3713 199.5 86.6521C199.229 84.0001 199.12 81.334 199.175 78.6687C199.175 75.6524 199.073 72.6474 199.062 69.6312C198.925 66.8797 199.075 64.1213 199.511 61.401C200.64 56.4231 202.534 51.6497 205.126 47.2506C207.872 42.6182 211.105 38.2918 214.771 34.3448C218.067 30.8161 222.159 28.125 226.707 26.4959C229.11 25.5764 231.592 24.9149 234.039 24.1412C236.807 23.1915 239.631 22.4126 242.495 21.8089C246.223 21.0913 250.085 21.1025 253.858 20.6876C255.554 20.5194 256.957 20.4634 258.058 18.9946C258.427 18.3509 258.528 17.5879 258.339 16.8704C258.15 16.1529 257.686 15.5385 257.047 15.1598C256.399 14.8052 255.64 14.7122 254.925 14.8999C254.211 15.0877 253.596 15.5419 253.207 16.1689L253.139 16.3708Z" fill="#004D2B"/>
<path d="M29.0707 76.067C25.5573 78.4458 22.3187 81.2061 19.4141 84.2971C17.0561 86.9546 14.5746 89.511 12.4861 92.3927C10.7456 94.8146 9.53285 97.7188 7.35449 99.7819L12.0481 101.027L11.9359 100.567C11.105 97.0684 5.68142 98.5485 6.52357 102.058L6.63583 102.507C6.77087 102.976 7.02553 103.403 7.37491 103.745C7.72429 104.087 8.15654 104.332 8.62936 104.458C9.10219 104.583 9.59946 104.584 10.0727 104.46C10.5459 104.336 10.979 104.092 11.3295 103.751C13.5752 101.61 14.9114 98.784 16.6181 96.2499C18.6075 93.5581 20.7718 90.9999 23.0971 88.5916C25.71 85.6855 28.6659 83.1065 31.9004 80.9109C32.5305 80.5242 32.9872 79.91 33.1754 79.1958C33.3636 78.4816 33.2689 77.7224 32.911 77.0761C32.5317 76.4382 31.9164 75.9747 31.1979 75.7859C30.4794 75.5971 29.7153 75.6981 29.0707 76.067Z" fill="#004D2B"/>
<path d="M5.33357 97.3487C2.39166 98.0215 0.943067 100.78 0.606206 103.538C0.454181 104.76 0.560495 106 0.918312 107.178C1.27613 108.356 1.87746 109.446 2.68348 110.378C4.79448 112.733 8.29793 112.62 10.7907 110.894C12.1006 110.012 13.1443 108.79 13.8092 107.359C14.4742 105.929 14.735 104.344 14.5635 102.776C14.4142 101.168 13.8577 99.6245 12.9465 98.2906C12.3737 97.4121 11.6383 96.6509 10.7795 96.0481C9.97487 95.5589 9.09448 95.2065 8.17432 95.0053C7.19644 94.7006 6.15278 94.6745 5.16087 94.9301C4.16896 95.1856 3.26819 95.7126 2.55998 96.4517C1.48982 97.7039 0.721546 99.1847 0.31425 100.78C-0.194875 102.548 -0.0758054 104.438 0.651165 106.128C1.06734 106.949 1.67735 107.657 2.42854 108.191C3.17972 108.724 4.04949 109.067 4.96294 109.189C6.20827 109.433 7.499 109.272 8.64598 108.73C9.583 108.254 10.3627 107.518 10.8917 106.61C11.2397 106.009 11.5437 105.383 11.8013 104.738C12.3055 103.712 12.6139 102.602 12.7108 101.464C12.7714 100.46 12.4999 99.4636 11.9378 98.6288C11.3758 97.794 10.5544 97.167 9.60039 96.8442C7.68028 96.3508 6.0746 97.4833 4.98542 98.9522C4.16265 100.141 3.68473 101.534 3.60431 102.978C3.41342 105.074 4.46885 107.799 6.90548 107.9C7.35337 107.914 7.79927 107.833 8.21394 107.664C8.6286 107.494 9.00277 107.239 9.31213 106.915C9.62149 106.592 9.85913 106.206 10.0094 105.785C10.1597 105.363 10.2192 104.915 10.1843 104.469C10.155 103.731 9.86457 103.028 9.36463 102.484C8.83244 101.966 8.12047 101.673 7.37713 101.666C5.996 101.666 4.3903 102.91 4.56996 104.469C4.67102 105.702 5.44575 104.985 6.90548 102.294L9.33091 103.684C9.22985 103.549 8.93789 102.966 9.17369 103.505C9.40949 104.043 9.08386 103.336 9.17369 103.247C9.26352 103.157 9.17369 104.099 9.17369 103.684C9.17932 103.576 9.17932 103.467 9.17369 103.359V103.135C9.17369 102.484 9.03895 103.774 9.17369 103.336C9.30844 102.899 9.40953 102.619 9.48813 102.215C9.33093 102.944 9.24114 102.742 9.38711 102.484L9.48813 102.294C9.58919 102.114 9.72397 101.957 9.8138 101.778C9.43203 102.484 9.42075 102.249 9.62287 102.047L9.78008 101.89C9.91483 101.733 10.3078 101.598 9.43193 102.148C9.49511 102.1 9.56287 102.059 9.63411 102.024C9.71271 102.024 8.82558 102.327 9.15121 102.226C9.47684 102.125 8.29791 102.226 8.66846 102.226C9.039 102.226 8.0172 102.125 8.11826 102.148C8.47758 102.226 7.33218 101.733 7.75887 102.013C7.17498 101.643 7.19747 101.553 7.37713 101.722C7.55679 101.89 6.99541 101.06 7.15261 101.453C7.15261 101.542 7.2986 101.643 7.30983 101.744C7.32106 101.845 7.01788 101.015 7.16385 101.43C7.30983 101.845 7.16385 100.69 7.16385 101.217C7.16385 101.744 7.16377 100.948 7.21991 100.914C7.0964 101.195 7.07397 101.565 6.97292 101.856C6.90132 102.009 6.84123 102.166 6.79322 102.327C6.91673 101.71 6.95042 101.946 6.79322 102.193C6.63602 102.439 6.54624 102.708 6.42272 102.955C6.32775 103.178 6.21896 103.396 6.09705 103.605C6.0359 103.692 5.97964 103.782 5.92859 103.875C6.22802 103.501 6.28419 103.422 6.09705 103.639C6.03856 103.715 5.97071 103.783 5.89501 103.841C6.16449 103.404 6.38904 103.516 6.142 103.639C5.89497 103.762 5.91734 103.639 6.3328 103.639C6.22035 103.652 6.11066 103.683 6.00727 103.729C5.70409 103.841 6.78202 103.729 6.2655 103.673C6.00724 103.673 5.64792 103.538 6.40024 103.729L6.08581 103.673L5.58057 103.527C5.07528 103.392 6.13079 103.841 5.73779 103.583C5.34478 103.325 5.41215 103.235 5.87253 103.74C5.80516 103.661 5.71524 103.594 5.64787 103.527C5.5805 103.46 5.52438 103.157 5.81633 103.774C5.76312 103.669 5.70307 103.568 5.63663 103.471C5.51312 103.258 5.63663 103.123 5.77137 103.807C5.7407 103.689 5.70324 103.573 5.65911 103.46C5.65378 103.378 5.65378 103.295 5.65911 103.213C5.54682 102.764 5.65911 104.043 5.65911 103.336C5.64791 103.116 5.64791 102.895 5.65911 102.675C5.52437 103.359 5.65911 101.946 5.65911 102.675C5.76017 102.181 5.93983 101.722 6.08581 101.251C5.81632 102.159 6.0185 101.408 6.15324 101.161C6.28799 100.914 6.41148 100.701 6.54622 100.477L6.71468 100.23C6.9954 99.7707 6.2431 100.724 6.60242 100.365L6.78198 100.174C6.9841 99.9949 6.88302 100.062 6.47878 100.387L6.68096 100.264C7.04028 100.118 6.31047 100.387 6.3217 100.399L6.66972 100.309C5.95108 100.556 6.08582 100.309 6.37776 100.376C6.50103 100.387 6.62513 100.387 6.7484 100.376L6.3217 100.32L6.636 100.376L6.95044 100.455L7.43333 100.589L7.68033 100.679L7.39961 100.556C7.5381 100.654 7.68919 100.733 7.84879 100.791C8.33162 101.004 7.51193 100.421 7.71405 100.656C7.91616 100.892 8.07333 101.004 8.24176 101.195L8.41022 101.408C7.84879 100.802 8.15198 101.071 8.28672 101.273C8.4346 101.493 8.56955 101.722 8.69094 101.957C8.72376 102.038 8.76122 102.116 8.8032 102.193C9.02777 102.652 8.55621 101.509 8.71342 102.002C8.78079 102.204 8.85931 102.406 8.91545 102.619C8.9716 102.832 9.00528 103.034 9.05019 103.247C9.15125 103.762 8.98282 102.495 9.05019 103.011C9.05019 103.135 9.05019 103.269 9.05019 103.392C9.05019 103.516 9.05019 103.818 9.05019 104.02V104.402C9.05019 103.493 9.11757 103.908 9.05019 104.155C8.98282 104.402 8.94912 104.559 8.89298 104.76C8.83683 104.962 8.83689 104.917 8.81444 104.996C8.57863 105.646 9.07269 104.491 8.81444 104.895C8.71338 105.086 8.62353 105.265 8.51124 105.444C8.39895 105.624 8.3877 105.612 8.34278 105.702C8.16312 105.994 8.83687 105.119 8.51124 105.489C8.36527 105.646 8.23051 105.803 8.0733 105.949C7.9161 106.095 7.87118 106.106 7.78135 106.196C8.3091 105.669 8.1519 105.915 7.92733 106.072C7.74059 106.198 7.54549 106.31 7.34341 106.409C7.08515 106.543 6.81569 106.498 7.51187 106.353C7.39377 106.383 7.27761 106.421 7.16385 106.465C6.96174 106.532 6.74835 106.554 6.55746 106.622C7.37715 106.341 7.24244 106.622 7.00663 106.554H6.636C6.3216 106.554 7.09644 106.554 7.11889 106.622C7.03293 106.615 6.94662 106.615 6.86066 106.622C6.22062 106.453 7.29849 106.868 7.05146 106.734L6.68096 106.521C6.33287 106.319 7.2761 107.036 6.98416 106.745C6.98416 106.689 6.84936 106.633 6.79322 106.566C6.73707 106.498 6.68089 106.431 6.61352 106.375C6.3328 106.106 7.02905 106.992 6.82694 106.655C6.73711 106.498 6.62481 106.353 6.53498 106.184C6.44515 106.016 6.4564 106.016 6.41148 105.926C6.19814 105.568 6.66972 106.655 6.53498 106.252C6.53498 106.061 6.4002 105.87 6.35528 105.68C6.29478 105.489 6.24602 105.294 6.20931 105.097C6.20931 104.996 6.20931 104.895 6.20931 104.794C6.42265 105.725 6.27668 105.388 6.20931 105.142C6.18125 104.731 6.18125 104.319 6.20931 103.908C6.21481 103.807 6.21481 103.706 6.20931 103.605C6.20931 104.581 6.11948 104.211 6.20931 103.964C6.29913 103.718 6.2879 103.583 6.34404 103.392C6.40019 103.202 6.4115 103.202 6.43396 103.112C6.60239 102.596 6.29922 103.437 6.29922 103.437C6.29922 103.437 6.54625 102.966 6.57994 102.899C6.89434 102.327 6.05214 103.426 6.52374 102.966C6.63603 102.865 7.14131 102.428 6.65848 102.798C6.17565 103.168 6.74838 102.798 6.8719 102.72C6.99541 102.641 6.09702 102.977 6.49002 102.888L6.86066 102.787C7.57527 102.583 8.18074 102.106 8.54633 101.46C8.91191 100.814 9.00824 100.05 8.81444 99.3334C8.60248 98.6266 8.12606 98.0285 7.48418 97.6631C6.8423 97.2977 6.08417 97.1932 5.36715 97.3711L5.33357 97.3487Z" fill="#004D2B"/>
<path d="M144.187 85.7437L143.828 85.5867C144.019 85.71 144.019 85.71 143.828 85.5867C143.637 85.4633 143.648 85.4409 143.761 85.5867L143.963 85.7997C144.037 85.9102 144.124 86.0118 144.221 86.1025C144.008 85.8222 143.963 85.7773 144.086 85.9343C144.125 85.9887 144.166 86.0411 144.21 86.0913C144.479 86.465 144.76 86.8388 145.052 87.2125C145.052 87.2125 145.445 87.6835 145.243 87.448C145.041 87.2126 145.445 87.7171 145.479 87.762C146.444 89.0738 147.264 90.4867 148.117 91.8658C148.533 92.5498 148.96 93.2338 149.341 93.9402C149.566 94.3214 149.757 94.7251 149.959 95.0614C150.161 95.3978 149.847 94.9045 149.88 94.8708C149.914 94.8372 150.026 95.2521 150.038 95.2969C150.395 96.8314 151.173 98.2366 152.283 99.3559C152.643 99.6963 153.082 99.9413 153.56 100.069C154.039 100.196 154.542 100.201 155.023 100.085C155.488 99.9495 155.912 99.6986 156.253 99.3554C156.595 99.0122 156.844 98.588 156.977 98.1225L157.1 97.674C157.198 97.3192 157.225 96.9485 157.18 96.5831C157.135 96.2178 157.018 95.865 156.836 95.5448C156.654 95.2246 156.41 94.9434 156.12 94.7171C155.829 94.4909 155.496 94.324 155.141 94.2261C154.786 94.1282 154.414 94.1011 154.048 94.1464C153.683 94.1918 153.329 94.3087 153.009 94.4903C152.688 94.672 152.406 94.915 152.18 95.2054C151.953 95.4958 151.786 95.8279 151.688 96.1827L151.565 96.6313L156.258 95.3978C156.16 95.2892 156.051 95.1914 155.933 95.1063C155.73 95.0054 156.191 95.5885 156 95.1736C155.94 95.0334 155.869 94.8984 155.787 94.7699C155.966 95.2969 155.584 94.512 155.787 94.7699C155.517 94.0074 155.248 93.245 154.922 92.5274C154.181 90.9756 153.333 89.477 152.384 88.0423C151.464 86.4854 150.448 84.9875 149.341 83.5572C149.094 83.2096 149.083 83.2432 149.341 83.5572L149.061 83.1648C148.757 82.7611 148.454 82.3462 148.129 81.9538C147.476 81.192 146.631 80.619 145.681 80.2943C144.965 80.098 144.2 80.1931 143.554 80.5588C142.908 80.9245 142.433 81.5309 142.234 82.2453C142.054 82.9613 142.157 83.7186 142.521 84.3612C142.884 85.0037 143.481 85.4825 144.187 85.6988V85.7437Z" fill="#004D2B"/>
<path d="M159.571 94.8596C158.055 94.5905 156.561 94.0523 155.023 94.5233C153.237 95.1165 151.739 96.3567 150.824 97.9992C150.071 99.3366 149.54 100.787 149.252 102.294C148.886 103.838 148.909 105.448 149.319 106.981C149.793 108.572 150.857 109.924 152.295 110.759C153.749 111.53 155.389 111.884 157.033 111.78C160.143 111.623 163.377 110.109 164.702 107.138C165.398 105.681 165.699 104.067 165.575 102.457C165.45 100.848 164.906 99.2991 163.995 97.9656C162.929 96.4916 161.405 95.4113 159.661 94.8933C158.766 94.6504 157.832 94.5897 156.914 94.7149C155.996 94.8402 155.112 95.1487 154.316 95.6221C151.654 97.2255 150.599 100.242 150.464 103.202C150.33 106.162 151.587 108.92 154.507 109.694C155.383 109.959 156.313 109.995 157.208 109.799C158.102 109.602 158.931 109.18 159.616 108.573C160.679 107.539 161.416 106.218 161.738 104.772C161.984 103.937 162.017 103.054 161.833 102.204C161.648 101.354 161.253 100.563 160.682 99.9053C160.392 99.6055 160.055 99.3554 159.683 99.1653C159.103 98.8538 158.439 98.7348 157.787 98.8255C157.135 98.9162 156.529 99.2119 156.056 99.6699C155.507 100.161 155.109 100.799 154.911 101.508C154.712 102.217 154.719 102.968 154.933 103.673C155.15 104.378 155.629 104.974 156.273 105.337C156.916 105.7 157.675 105.803 158.392 105.624C160.143 105.332 160.974 103.538 161.098 101.957C161.151 100.886 160.934 99.8181 160.469 98.8513C159.694 97.147 157.246 97.147 156.056 98.2907C155.365 98.9158 154.908 99.7569 154.759 100.676C154.61 101.595 154.779 102.537 155.236 103.348C155.48 103.772 155.832 104.123 156.256 104.368C156.68 104.612 157.161 104.74 157.651 104.738C158.485 104.774 159.309 104.538 159.997 104.065L156.629 99.6699L156.236 100.017C155.71 100.545 155.416 101.258 155.416 102.002C155.416 102.746 155.71 103.459 156.236 103.987C156.77 104.495 157.48 104.778 158.218 104.778C158.955 104.778 159.665 104.495 160.199 103.987L160.604 103.628C161.08 103.146 161.365 102.507 161.406 101.831C161.447 101.155 161.242 100.487 160.828 99.9502C160.418 99.4061 159.821 99.0323 159.152 98.8999C158.483 98.7675 157.789 98.886 157.201 99.2326C156.954 99.3896 157.033 99.3784 157.437 99.2326C157.841 99.0868 158.01 99.2326 157.684 99.2326L160.11 100.623C160.302 100.963 160.373 101.358 160.312 101.744L160.166 102.125C159.889 102.447 159.855 102.503 160.065 102.294L155.652 101.733C155.192 100.724 155.461 101.341 155.551 101.655C155.641 101.968 155.551 100.971 155.551 101.296C155.551 101.419 155.551 101.531 155.551 101.655V101.946C155.551 102.417 155.674 101.195 155.551 101.621V101.722C155.637 101.37 155.825 101.05 156.09 100.802L156.528 100.466C157.089 100.275 157.224 100.208 156.954 100.264L160.402 102.226C160.402 102.013 160.402 101.991 160.402 102.226C160.463 102.458 160.463 102.701 160.402 102.933C160.296 103.355 160.035 103.723 159.672 103.964L157.516 104.245C156.685 103.942 156.921 103.976 157.123 104.099C157.325 104.222 156.505 103.572 156.797 103.852C157.089 104.133 156.337 103.168 156.595 103.639C156.213 102.933 156.348 103.011 156.415 103.269C156.483 103.527 156.337 103.516 156.415 102.854C156.415 103.011 156.415 103.202 156.415 103.359C156.415 104.009 156.561 102.619 156.415 103.269C156.415 103.426 156.337 103.572 156.292 103.718C156.247 103.863 156.225 103.897 156.202 103.998C156.101 104.323 156.528 103.28 156.326 103.706C156.236 103.886 156.146 104.054 156.045 104.222C155.944 104.39 155.596 104.861 155.944 104.413C156.292 103.964 155.944 104.413 155.809 104.525C155.394 104.973 156.393 104.144 155.91 104.446C155.427 104.749 156.618 104.245 156.079 104.368C157.1 104.133 156.516 104.368 156.146 104.312C156.038 104.324 155.928 104.324 155.82 104.312C155.82 104.312 156.606 104.48 156.202 104.312H155.989C155.54 104.211 156.573 104.626 156.303 104.458L156.079 104.334C155.708 104.155 156.595 104.85 156.326 104.525L156.18 104.39C155.854 104.133 156.55 104.951 156.404 104.693C156.258 104.435 156.258 104.424 156.18 104.301C155.978 103.998 156.382 104.682 156.337 104.693C156.292 104.704 156.269 104.469 156.258 104.446C156.2 104.259 156.155 104.068 156.123 103.875C156.123 103.875 156.202 104.682 156.191 104.289C156.191 104.211 156.191 104.144 156.191 104.065C156.191 103.987 156.191 103.684 156.191 103.493C156.191 103.303 156.191 103.146 156.191 102.978V102.686C156.191 102.226 156.067 103.449 156.191 102.966C156.314 102.484 156.314 102.316 156.404 101.98C156.404 101.845 156.472 101.711 156.516 101.576L156.618 101.251C156.696 100.982 156.314 101.879 156.618 101.329C156.753 101.139 156.877 100.941 156.988 100.735C156.865 101.139 156.629 101.161 156.876 100.881L157.145 100.612C157.225 100.554 157.3 100.491 157.37 100.421C157.022 100.847 156.943 100.713 157.157 100.589L157.471 100.41C157.965 100.096 157.1 100.5 157.336 100.41C157.554 100.369 157.768 100.309 157.976 100.23C157.527 100.444 157.381 100.23 157.673 100.23H158.044C158.302 100.23 158.549 100.365 157.841 100.23H158.145L158.538 100.343C158.268 100.186 159.122 100.533 158.538 100.343L159.144 100.69C159.515 100.915 158.976 100.556 158.942 100.522C158.908 100.488 159.144 100.679 159.223 100.769C159.367 100.934 159.521 101.091 159.683 101.24C159.301 100.971 159.357 100.791 159.515 101.027L159.75 101.385L159.919 101.711C160.053 101.935 160.02 102.182 159.851 101.498C159.851 101.711 159.997 101.912 160.053 102.114C160.11 102.316 160.132 102.563 160.199 102.765C159.997 102.17 160.199 102.204 160.199 102.451C160.199 102.697 160.199 102.753 160.199 102.899C160.199 103.045 160.199 103.393 160.199 103.639C160.199 103.886 160.087 104.133 160.199 103.348C160.199 103.449 160.199 103.55 160.199 103.639C160.153 103.889 160.093 104.136 160.02 104.379L159.919 104.671C159.75 105.198 160.211 104.133 159.919 104.57C159.806 104.785 159.682 104.995 159.548 105.198C159.402 105.433 159.335 105.198 159.728 104.974C159.659 105.039 159.595 105.11 159.537 105.187L159.279 105.433C159.099 105.613 158.841 105.669 159.458 105.31L158.863 105.702C158.751 105.77 158.055 106.084 158.549 105.871C159.043 105.657 158.347 105.938 158.201 105.971C157.968 106.039 157.732 106.095 157.493 106.14L157.213 106.196C158.01 105.994 157.628 106.14 157.37 106.196C156.936 106.224 156.501 106.224 156.067 106.196C155.607 106.196 156.393 106.196 156.393 106.196C156.274 106.19 156.157 106.167 156.045 106.128C155.764 106.128 155.461 105.915 155.192 105.882C155.697 105.949 155.674 106.117 155.45 105.983L155.135 105.803C154.877 105.657 154.922 105.467 155.315 105.96C155.257 105.895 155.193 105.835 155.124 105.781C155.059 105.723 154.999 105.659 154.945 105.59C154.596 105.254 155.248 106.095 155.102 105.803C155.102 105.702 154.989 105.624 154.945 105.523C154.9 105.422 154.843 104.985 155.012 105.736C155.012 105.523 154.866 105.321 154.821 105.108C154.827 105.018 154.827 104.929 154.821 104.839C155.068 105.635 154.821 105.276 154.821 104.974C154.799 104.716 154.799 104.457 154.821 104.2C154.815 104.103 154.815 104.005 154.821 103.908C154.821 103.359 154.686 104.626 154.821 104.076C154.915 103.543 155.039 103.015 155.192 102.495C155.281 102.204 155.371 101.912 155.483 101.621C155.483 101.509 155.573 101.408 155.607 101.296C155.506 101.531 155.371 102.036 155.607 101.296C155.741 101.022 155.891 100.756 156.056 100.5C156.141 100.395 156.216 100.282 156.281 100.163L156.045 100.488L156.247 100.253C156.329 100.195 156.405 100.127 156.472 100.051L156.258 100.208L156.483 100.051L156.764 99.8829C157.336 99.5577 156.618 99.8829 156.606 99.8829C156.595 99.8829 156.865 99.8156 156.91 99.8044C157.145 99.7035 156.09 99.8044 156.618 99.8044C155.944 99.6586 157.381 99.8044 156.618 99.8044C157.291 99.9502 157.74 100.062 158.268 100.163C159.002 100.339 159.774 100.235 160.435 99.8717C160.914 99.5954 161.299 99.1839 161.543 98.6889C161.788 98.1939 161.88 97.6377 161.808 97.0907C161.735 96.5436 161.503 96.0301 161.139 95.615C160.774 95.2 160.295 94.902 159.762 94.7587L159.571 94.8596Z" fill="#004D2B"/>
<path d="M194.683 65.2133C193.005 65.8437 191.476 66.8132 190.191 68.0613C189.069 69.0929 188.193 70.3039 187.059 71.2345C184.588 73.3526 181.455 74.5424 178.199 74.5984C175.56 74.5199 174.056 72.838 172.304 70.8533C170.058 68.3641 170.058 65.0451 168.767 62.1298C168.388 61.4918 167.772 61.0284 167.054 60.8396C166.335 60.6508 165.572 60.7517 164.927 61.1206C164.299 61.5092 163.844 62.1235 163.656 62.8369C163.468 63.5503 163.561 64.3086 163.916 64.9554C164.635 66.5476 164.736 68.4089 165.365 70.046C166.057 71.8033 167.061 73.4214 168.329 74.8226C170.71 77.4912 173.348 79.6665 177.009 80.1038C181.208 80.6084 185.105 79.0611 188.653 76.9531C190.195 75.9915 191.594 74.8175 192.808 73.4659C193.712 72.2965 194.862 71.3396 196.176 70.6627C196.883 70.4463 197.481 69.968 197.846 69.3259C198.212 68.6838 198.317 67.9265 198.141 67.2092C197.937 66.4956 197.46 65.8909 196.813 65.5259C196.165 65.1608 195.4 65.0646 194.683 65.2581V65.2133Z" fill="#004D2B"/>
<path d="M216.264 50.5468C219.869 50.5468 219.88 44.9404 216.264 44.9404C212.649 44.9404 212.649 50.5468 216.264 50.5468Z" fill="#004D2B"/>
<path d="M256.654 46.7685C260.27 46.7685 260.281 41.1621 256.654 41.1621C253.027 41.1621 253.038 46.7685 256.654 46.7685Z" fill="#004D2B"/>
<path d="M232.67 53.0697C236.285 53.0697 236.296 47.4634 232.67 47.4634C229.043 47.4634 229.054 53.0697 232.67 53.0697Z" fill="#004D2B"/>
<path d="M226.247 66.2001C225.73 66.0543 226.819 66.357 226.247 66.2001L226.179 66.144L226.336 66.2786C226.78 66.677 227.245 67.0513 227.729 67.3998C228.745 68.026 229.845 68.5054 230.996 68.8239C232.98 69.4726 235.101 69.5771 237.138 69.1266C240.687 68.308 244.28 65.4488 244.83 61.6813C245.006 60.964 244.9 60.2067 244.535 59.5646C244.17 58.9225 243.572 58.4443 242.865 58.2278C241.54 57.9251 239.631 58.6315 239.407 60.1901C239.361 60.5286 239.286 60.8625 239.182 61.1879C239.002 61.7822 239.182 61.1207 239.182 61.1207C239.107 61.2907 239.021 61.4555 238.924 61.614C238.831 61.7366 238.745 61.8639 238.665 61.9953C238.497 62.2868 239.115 61.5244 238.665 61.9392L237.992 62.6008C238.486 62.2868 237.531 63.0493 237.992 62.6008L237.588 62.8699C237.284 63.0605 236.97 63.2175 236.656 63.3744C236.341 63.5314 237.037 63.2735 236.712 63.3744L236.251 63.5314C235.921 63.641 235.583 63.7272 235.241 63.7893C234.724 63.9014 235.297 63.6884 235.342 63.7893C235.189 63.7794 235.035 63.7794 234.881 63.7893C234.668 63.7893 234.084 63.666 233.905 63.7893H234.298L233.905 63.722L233.242 63.5763C232.748 63.4529 232.276 63.3072 231.805 63.139C231.648 63.139 231.232 62.9036 231.591 63.0717C231.344 62.9596 231.097 62.8475 230.862 62.7129L230.525 62.4999C231.086 62.825 230.525 62.4999 230.435 62.3989C229.664 61.6232 228.722 61.0394 227.684 60.6946C226.966 60.4969 226.199 60.5919 225.552 60.9588C224.904 61.3258 224.429 61.9346 224.231 62.6513C224.033 63.3679 224.128 64.1338 224.496 64.7804C224.863 65.427 225.473 65.9014 226.19 66.0991L226.247 66.2001Z" fill="#004D2B"/>
<path d="M289.194 77.3676C289.294 78.5483 289.766 79.667 290.542 80.5632C290.938 81.0016 291.365 81.4102 291.822 81.7854C292.928 82.8754 293.95 84.0487 294.876 85.295C295.348 85.878 295.83 86.4163 296.347 86.9657C296.527 87.1563 296.92 87.4478 297.01 87.7057C296.807 87.4292 296.762 87.3731 296.875 87.5375C296.941 87.6164 296.998 87.703 297.043 87.7955C297.122 87.9076 297.178 88.0309 297.257 88.143C297.549 88.6252 297.908 89.0849 298.222 89.5671C298.379 89.8138 298.537 90.0492 298.683 90.3071L298.784 90.5201C298.885 90.722 298.784 90.621 298.649 90.2061V90.3407C298.731 90.6322 298.731 90.5089 298.649 89.9707C298.663 90.7097 298.964 91.4144 299.487 91.937C300.01 92.4596 300.716 92.7596 301.456 92.7739C302.198 92.7652 302.907 92.467 303.431 91.9432C303.956 91.4194 304.255 90.7115 304.263 89.9707C304.049 88.4686 303.428 87.0534 302.467 85.8781C302.006 85.2165 301.602 84.5325 301.097 83.8934C300.591 83.2543 300.153 82.8619 299.682 82.3461C298.649 81.2248 297.773 79.9241 296.729 78.7804C296.257 78.2758 295.763 77.8274 295.258 77.3676C295.258 77.3676 294.629 76.7285 294.618 76.7397L294.786 76.9639L294.651 76.7397L294.797 77.1097C294.719 76.8182 294.719 76.8967 294.797 77.3676C294.797 76.6242 294.502 75.9112 293.975 75.3855C293.449 74.8598 292.735 74.5645 291.99 74.5645C291.246 74.5645 290.532 74.8598 290.005 75.3855C289.479 75.9112 289.183 76.6242 289.183 77.3676H289.194Z" fill="#004D2B"/>
<path d="M307.149 87.7956C305.218 87.7505 303.3 88.1334 301.535 88.9169C300.74 89.3253 300.039 89.8955 299.479 90.5908C298.918 91.286 298.509 92.0908 298.279 92.9535C297.736 94.5545 297.654 96.2756 298.043 97.9207C298.286 98.842 298.781 99.6773 299.474 100.333C300.166 100.989 301.028 101.438 301.962 101.632C303.364 101.978 304.837 101.918 306.207 101.46C307.577 101.001 308.788 100.162 309.698 99.042C311.416 96.9003 312.382 93.8617 311.293 91.1931C310.696 89.6216 309.563 88.3112 308.093 87.4929C306.645 86.6189 304.927 86.3076 303.264 86.6183C300.648 87.1902 298.863 89.7355 298.189 92.2247C297.515 94.7139 297.785 97.9095 299.851 99.7148C301.081 100.814 302.692 101.393 304.342 101.329C306.329 101.19 308.215 100.402 309.709 99.0869C310.545 98.4095 311.181 97.5198 311.553 96.5114C311.924 95.5031 312.017 94.4135 311.82 93.3571C311.304 90.7333 308.766 89.2421 306.296 88.9842C305.451 88.9274 304.604 89.0444 303.806 89.328C303.008 89.6115 302.277 90.0554 301.658 90.6324C301.119 91.1772 300.774 91.8848 300.679 92.6452C300.583 93.4057 300.742 94.1763 301.131 94.8372C301.407 95.3225 301.801 95.7313 302.275 96.0269C302.749 96.3225 303.29 96.4955 303.848 96.5303C304.835 96.5419 305.789 96.1723 306.509 95.4988C307.239 94.7528 307.751 93.8225 307.991 92.8077C308.149 92.2121 308.109 91.5814 307.876 91.011C307.643 90.4405 307.23 89.9613 306.7 89.6457C306.263 89.414 305.78 89.2838 305.285 89.2645C304.916 89.2607 304.55 89.3312 304.208 89.4719C303.867 89.6125 303.557 89.8203 303.298 90.083C303.107 90.2961 303.208 90.2288 303.601 89.8924L303.388 90.0045L304.061 89.7242L303.814 89.7803C303.109 89.9749 302.509 90.4379 302.141 91.0697C301.953 91.3918 301.831 91.7478 301.781 92.1172C301.731 92.4866 301.754 92.8622 301.849 93.2226C302.066 93.9286 302.545 94.5253 303.188 94.8901C303.831 95.2549 304.589 95.3603 305.308 95.1848C306.065 95.0292 306.754 94.6364 307.273 94.0635L302.579 91.3276C302.512 91.5595 302.434 91.7878 302.344 92.0116L302.624 91.3501C302.624 91.4398 302.377 91.7201 302.377 91.821C302.377 91.9219 302.86 91.2491 302.624 91.4846C303.107 90.9912 303.141 91.1258 302.86 91.2603L303.522 90.98H303.332L304.073 90.8791C303.998 90.8905 303.923 90.8905 303.848 90.8791L305.836 91.7089C305.769 91.6294 305.694 91.5579 305.611 91.4958C305.69 91.4958 306.049 92.1798 305.892 91.7986L306.172 92.4601C306.166 92.4193 306.166 92.3776 306.172 92.3368L306.274 93.088V92.9647L306.172 93.7047V93.5814L305.892 94.2542C306.071 93.8169 305.364 94.8148 305.633 94.5457C305.903 94.2766 305.106 94.8933 305.33 94.7699C305.519 94.658 305.714 94.5569 305.914 94.4672L305.24 94.7475C305.601 94.6006 305.978 94.4989 306.363 94.4448L305.611 94.5345C305.846 94.5121 306.083 94.5121 306.318 94.5345L305.566 94.4336C305.953 94.4747 306.331 94.573 306.689 94.7251L306.026 94.4448C306.177 94.5106 306.323 94.5855 306.464 94.6691C307.037 95.0166 306.083 94.2766 306.386 94.5906C306.451 94.6446 306.511 94.7047 306.565 94.7699C306.745 94.9718 306.678 94.882 306.352 94.4784C306.419 94.6242 306.52 94.7476 306.588 94.8933L306.307 94.2317C306.396 94.4435 306.456 94.6659 306.487 94.8933L306.386 94.142C306.403 94.351 306.403 94.561 306.386 94.7699L306.476 94.0187C306.445 94.257 306.385 94.4905 306.296 94.7139L306.577 94.0524C306.577 94.1757 306.464 94.299 306.397 94.4223C306.33 94.5457 306.172 94.6914 306.161 94.7811C306.15 94.8709 306.644 94.2205 306.397 94.4784L306.251 94.6466C306.136 94.7709 306.012 94.887 305.88 94.9942L305.712 95.14C305.488 95.3418 306.262 94.7587 306.004 94.9157L305.611 95.1736C305.328 95.3409 305.036 95.4906 304.735 95.6221L305.409 95.3418C304.94 95.5359 304.45 95.6751 303.949 95.7567L304.702 95.6558C304.358 95.6955 304.012 95.6955 303.668 95.6558L304.41 95.7567C304.09 95.7142 303.776 95.6313 303.477 95.51L304.14 95.7903C303.96 95.7163 303.787 95.6263 303.623 95.5212C303.208 95.2858 304.106 95.9361 303.904 95.7567C303.702 95.5772 303.758 95.6221 303.68 95.5436C303.601 95.4651 303.343 95.1287 303.68 95.5997C303.792 95.7454 304.017 96.0706 303.68 95.5997C303.579 95.4299 303.489 95.2539 303.41 95.0727L303.691 95.7454C303.545 95.3858 303.447 95.0089 303.399 94.6242L303.489 95.3642C303.421 94.8394 303.421 94.3081 303.489 93.7832L303.388 94.5345C303.469 93.9179 303.631 93.3146 303.871 92.7404L303.59 93.402C303.713 93.1251 303.851 92.8555 304.005 92.5947L304.23 92.2471C304.555 91.7537 303.702 92.8414 304.106 92.4153L304.376 92.135C304.6 91.9219 305.049 91.6752 304.174 92.2583C304.391 92.1065 304.62 91.9716 304.859 91.8546L304.196 92.135C304.416 92.0442 304.646 91.9802 304.881 91.9444L304.14 92.034C304.386 92.006 304.635 92.006 304.881 92.034L304.14 91.9331C304.563 92.0015 304.974 92.1259 305.364 92.3031L304.69 92.0228C304.974 92.1385 305.249 92.2773 305.51 92.4377L305.701 92.5611C305.982 92.7405 305.33 92.2695 305.341 92.2807C305.442 92.3832 305.551 92.477 305.667 92.5611L305.914 92.8301C306.229 93.1777 305.465 92.1798 305.746 92.6171C305.894 92.8285 306.022 93.0538 306.128 93.2898L305.847 92.6283C305.995 92.9878 306.097 93.3646 306.15 93.7496L306.049 93.0095C306.105 93.4413 306.105 93.8785 306.049 94.3102L306.15 93.559C306.084 94.025 305.959 94.4808 305.779 94.9157L306.06 94.243C305.925 94.5605 305.768 94.8678 305.588 95.1624C305.499 95.2858 305.094 95.8239 305.487 95.3306C305.88 94.8372 305.487 95.3306 305.341 95.4651C305.234 95.5857 305.118 95.6982 304.993 95.8015L304.791 95.9809C304.589 96.1491 305.51 95.4763 305.072 95.7567C304.785 95.9464 304.485 96.1151 304.174 96.2612L304.836 95.9697C304.478 96.1265 304.1 96.2358 303.713 96.2949L304.466 96.194C304.048 96.25 303.625 96.25 303.208 96.194L303.949 96.2837C303.522 96.2218 303.103 96.1088 302.703 95.9472L303.376 96.2276L303.073 96.0706C302.815 95.9585 303.444 96.3621 303.455 96.3733C303.409 96.3255 303.361 96.2806 303.309 96.2388C303.219 96.1603 303.062 95.9248 303.399 96.3733C303.736 96.8218 303.556 96.5864 303.5 96.4855L303.332 96.1491L303.612 96.8219C303.508 96.538 303.429 96.2452 303.376 95.9472L303.477 96.6873C303.41 96.1512 303.41 95.6088 303.477 95.0727L303.376 95.8239C303.46 95.1812 303.626 94.5519 303.871 93.9514L303.59 94.613C303.668 94.415 303.761 94.2237 303.871 94.0411C303.916 93.9513 303.969 93.865 304.028 93.7832C304.286 93.3683 303.534 94.3438 303.803 94.0635L303.96 93.8954C304.342 93.4917 303.388 94.2654 303.769 94.0411C304.151 93.8169 304.23 93.7832 304.477 93.6711L303.803 93.9514C304.6 93.6379 305.434 93.4269 306.285 93.3235L305.544 93.4244C306.06 93.348 306.582 93.3106 307.104 93.3123C307.847 93.3064 308.558 93.0092 309.083 92.4847C309.608 91.9603 309.906 91.2507 309.912 90.5091C309.897 89.7701 309.597 89.0655 309.073 88.5428C308.55 88.0202 307.844 87.7203 307.104 87.7059L307.149 87.7956Z" fill="#004D2B"/>
<path d="M167.408 54.3254C167.436 53.7942 167.332 53.2644 167.106 52.7826C166.881 52.3007 166.54 51.8814 166.115 51.5615C165.689 51.2416 165.191 51.0309 164.665 50.9478C164.139 50.8647 163.6 50.9119 163.097 51.085C162.023 51.4803 161.055 52.1172 160.267 52.9463C159.436 53.755 158.772 54.7189 158.313 55.7831C157.834 56.7545 157.584 57.8229 157.584 58.9058C157.584 59.9888 157.834 61.0572 158.313 62.0285C159.081 63.5435 160.385 64.7202 161.972 65.3312C163.558 65.9421 165.315 65.944 166.903 65.3363C168.526 64.7146 169.971 63.706 171.114 62.3986C171.88 61.611 172.465 60.6662 172.829 59.6299C173.192 58.5935 173.325 57.4906 173.218 56.3977C173.111 55.3049 172.767 54.2484 172.21 53.3019C171.653 52.3553 170.895 51.5414 169.991 50.9168C168.783 50.0519 167.322 49.6104 165.836 49.6609C163.979 49.7868 162.224 50.5562 160.873 51.8362C160.492 52.2211 160.139 52.6333 159.818 53.0696C159.313 53.7199 158.796 54.3703 158.336 55.043C157.37 56.2898 156.803 57.7979 156.708 59.3711C156.707 60.239 156.946 61.0904 157.397 61.832C157.849 62.5736 158.496 63.1769 159.268 63.5759C160.475 64.1582 161.801 64.4537 163.142 64.4393C164.654 64.4651 166.145 64.0773 167.453 63.318C168.696 62.6244 169.809 61.7216 170.743 60.6494C171.847 59.345 172.451 57.6924 172.45 55.9849C172.513 54.5684 172.212 53.1593 171.574 51.8923C171.228 51.2719 170.763 50.726 170.204 50.2862C169.646 49.8463 169.006 49.5211 168.321 49.3294C167.637 49.1376 166.921 49.083 166.215 49.1688C165.509 49.2546 164.827 49.479 164.208 49.8292C163.372 50.4701 162.702 51.3032 162.256 52.2577C161.81 53.2122 161.602 54.26 161.648 55.3121C161.51 57.2036 162.092 59.0774 163.276 60.5597C163.709 61.0454 164.265 61.4058 164.885 61.6031C165.506 61.8004 166.168 61.8273 166.802 61.6809C167.549 61.4492 168.214 61.0097 168.719 60.4138C169.224 59.818 169.548 59.0906 169.654 58.3171C169.84 57.5592 169.834 56.7673 169.638 56.012C169.443 55.2567 169.062 54.5616 168.531 53.989C168.145 53.6269 167.682 53.3556 167.177 53.195C166.672 53.0343 166.137 52.9883 165.612 53.0603C165.087 53.1323 164.585 53.3205 164.142 53.6111C163.699 53.9018 163.326 54.2875 163.052 54.7403C162.426 55.8617 162.126 57.1356 162.187 58.4181C162.157 59.9446 162.698 61.4276 163.703 62.578C164.038 62.9466 164.444 63.2443 164.897 63.4535C165.349 63.6626 165.839 63.7791 166.337 63.7958C166.836 63.8125 167.332 63.7292 167.798 63.5508C168.264 63.3725 168.689 63.1027 169.048 62.7574C169.689 62.075 170.151 61.2452 170.394 60.3416C170.637 59.4379 170.653 58.4883 170.44 57.5771C170.21 56.6895 169.741 55.8817 169.084 55.2413C168.427 54.6009 167.607 54.1523 166.712 53.9442C165.808 53.7216 164.863 53.7227 163.959 53.9474C163.055 54.1721 162.219 54.6136 161.525 55.2336C160.955 55.8011 160.507 56.4785 160.207 57.2245C159.908 57.9705 159.764 58.7696 159.784 59.573C159.744 60.3164 159.864 61.0597 160.137 61.7525C160.411 62.4452 160.83 63.0709 161.367 63.5871C162.402 64.4591 163.708 64.9449 165.062 64.9613C166.416 64.9776 167.734 64.5236 168.79 63.6768C169.343 63.148 169.747 62.4833 169.962 61.7492C170.177 61.0152 170.195 60.2376 170.013 59.4945C169.82 58.7867 169.357 58.1829 168.722 57.8126C168.078 57.4407 167.313 57.3381 166.594 57.5272C165.875 57.7162 165.259 58.1815 164.882 58.8217C164.543 59.4898 164.444 60.2536 164.601 60.9858C164.444 60.0103 164.534 60.3242 164.534 60.5373C164.534 60.7503 164.534 61.0082 164.534 60.4363C164.534 59.8645 164.534 60.1448 164.534 60.2794C164.534 60.4139 164.882 59.573 164.725 59.8309C164.568 60.0888 165.298 59.2254 164.905 59.6066C164.512 59.9878 165.634 59.1469 165.107 59.4384C164.579 59.7299 165.881 59.203 165.331 59.3375L164.983 59.416C164.983 59.416 165.792 59.416 165.443 59.3487H165.253H164.781C165.612 59.3487 165.399 59.4497 165.05 59.3487C164.938 59.3487 164.815 59.2702 164.691 59.2366C165.511 59.4496 165.219 59.4496 164.916 59.3039C164.815 59.3039 164.601 59.0684 165.017 59.3936C165.432 59.7187 165.163 59.5169 165.084 59.3936C164.758 59.0348 165.511 60.0439 165.275 59.6291C165.039 59.2142 165.5 60.3578 165.455 60.0775C165.455 59.9878 165.455 59.8981 165.376 59.8084C165.383 59.7114 165.383 59.6139 165.376 59.5169C165.376 59.5169 165.376 60.2794 165.376 59.8421C165.376 59.7076 165.286 59.2478 165.376 59.1357C165.466 59.0236 165.208 59.9206 165.376 59.4833C165.376 59.3936 165.376 59.3038 165.432 59.2254C165.488 59.1469 165.5 59.0572 165.522 58.9787C165.398 59.6178 165.264 59.5057 165.387 59.2927L165.522 59.0796C165.724 58.7096 165.331 59.3936 165.309 59.3487C165.286 59.3039 165.5 59.1581 165.522 59.1357C165.724 58.9002 164.938 59.5281 165.32 59.3151C165.702 59.102 164.994 59.4496 165.006 59.4384C165.017 59.4272 165.208 59.3712 165.264 59.3487C165.735 59.1693 164.657 59.3487 165.017 59.3487H165.32C165.792 59.3487 165.443 59.3487 165.32 59.3487C165.241 59.3487 164.848 59.3487 165.32 59.3487C165.399 59.3487 165.556 59.3487 165.567 59.4384C165.578 59.5281 164.882 59.0909 165.309 59.3487C165.735 59.6066 164.848 58.889 165.05 59.1469C165.05 59.1469 165.286 59.3263 165.264 59.36C165.241 59.3936 164.815 58.7544 165.05 59.102C165.286 59.4496 164.949 59.3039 164.916 58.7881C164.916 58.7881 164.983 59.0123 164.994 59.0348C164.736 58.575 164.994 58.3956 164.994 58.6984C164.983 58.7952 164.983 58.8931 164.994 58.9899C165.062 58.519 165.084 58.3956 164.994 58.6311C164.999 58.7133 164.999 58.7956 164.994 58.8778C164.994 58.9787 164.927 59.0796 164.905 59.1693C165.028 58.5414 165.152 58.6871 165.017 58.8778C164.669 59.4272 165.399 58.4853 165.118 58.7544C165.491 58.3919 165.99 58.187 166.51 58.1826C166.364 58.1826 167.15 58.2947 167.296 58.362C167.442 58.4293 167.633 58.519 167.465 58.4293L167.869 58.7432C167.959 58.7432 168.284 59.2366 167.869 58.7432C167.667 58.2947 167.779 58.7432 167.869 58.7432C168.071 59.1917 167.869 58.7432 167.869 58.6087C167.874 58.5153 167.874 58.4217 167.869 58.3283C167.869 58.3283 167.936 59.1693 167.936 58.8105C167.942 58.7097 167.942 58.6086 167.936 58.5078C167.919 58.209 167.919 57.9096 167.936 57.6108C167.936 57.2071 167.936 58.0032 167.936 58.0032C167.943 57.9286 167.943 57.8536 167.936 57.7789C167.936 57.6107 168.06 57.4202 168.082 57.252C168.026 57.7565 167.779 57.9023 167.914 57.6556L168.004 57.5098L167.678 57.9359C167.801 57.8238 167.745 57.8574 167.51 58.0593C167.214 58.3084 166.85 58.461 166.465 58.4966C165.78 58.5863 166.634 58.5863 165.949 58.4966C165.564 58.461 165.2 58.3084 164.905 58.0593L164.68 57.8799C164.86 58.0705 164.77 57.8798 164.388 57.4874C164.455 57.5995 164.568 57.8687 164.388 57.3753C164.208 56.8819 164.276 57.1174 164.321 57.2407C164.366 57.3641 164.242 57.6444 164.321 56.8147C164.309 56.9452 164.309 57.0765 164.321 57.2071C164.327 57.2742 164.327 57.3418 164.321 57.4089C164.253 57.4089 164.523 56.5792 164.321 56.9604C164.316 57.0239 164.316 57.0876 164.321 57.151C164.253 57.4874 164.062 57.3417 164.467 56.8371C164.467 56.8371 164.466 56.9492 164.388 56.994C164.175 57.2968 164.725 56.5904 164.68 56.6352C164.444 56.8819 165.118 56.3213 165.073 56.3549C164.781 56.5231 165.612 56.1531 165.544 56.1643C165.219 56.2652 166.185 56.097 166.106 56.097C165.78 56.097 166.982 56.254 166.701 56.1867C166.42 56.1195 167.431 56.5455 167.139 56.3773C166.847 56.2092 167.835 56.9828 167.498 56.6464C167.161 56.3101 167.846 57.1734 167.768 57.0053C167.689 56.8371 167.667 56.8483 167.622 56.7698C167.476 56.5119 167.42 56.097 167.734 57.0613C167.594 56.6353 167.482 56.2009 167.397 55.7607C167.622 56.8819 167.397 55.9961 167.397 55.6709C167.38 55.4058 167.38 55.14 167.397 54.8749C167.476 54.2245 167.397 54.7403 167.397 54.8749C167.397 54.9646 167.319 55.5252 167.397 54.8749C167.487 54.6455 167.559 54.4093 167.611 54.1685C167.611 54.1685 167.263 54.8748 167.42 54.6169L167.487 54.4824C167.487 54.3927 167.599 54.3142 167.644 54.2245C167.689 54.1348 167.364 54.6394 167.341 54.6169L167.453 54.4824L167.566 54.3815C167.813 54.1012 167.218 54.7067 167.184 54.6618C167.222 54.6347 167.264 54.6121 167.307 54.5946C167.42 54.5273 167.678 54.4152 167.161 54.5946C167.004 54.6843 166.645 54.774 167.161 54.5946C167.588 54.4488 166.297 54.5945 166.836 54.6506H167.004C167.386 54.6506 166.263 54.5048 166.566 54.5833C166.721 54.6453 166.883 54.6868 167.049 54.7067C167.049 54.7067 166.42 54.3703 166.768 54.5946C166.842 54.6477 166.921 54.6928 167.004 54.7291C166.555 54.6058 166.555 54.3254 166.746 54.5384L166.926 54.7179C166.488 54.4151 166.578 54.2133 166.712 54.4488C166.847 54.6843 166.825 54.6842 166.892 54.7739C166.544 54.3142 166.679 54.2021 166.757 54.4599C166.757 54.5384 166.757 54.617 166.836 54.7067C166.914 54.7964 166.914 55.0879 166.959 55.2785C167.004 55.4691 166.903 54.5833 166.959 54.9309C166.954 55.0205 166.954 55.1104 166.959 55.2C166.959 55.4131 166.959 55.6373 166.959 55.8615C166.959 56.0858 166.959 56.2428 166.959 56.4334C166.959 56.8034 167.083 55.8167 166.959 56.1531C166.959 56.2764 166.959 56.3998 166.881 56.5231C166.802 56.6465 166.881 56.7586 166.78 56.7922C166.679 56.8258 167.128 56.1194 166.892 56.5007C166.808 56.7181 166.686 56.9192 166.533 57.095C166.533 57.095 167.027 56.5343 166.701 56.8483L166.51 57.0501C166.38 57.1931 166.241 57.3279 166.095 57.4538C165.937 57.5883 165.769 57.7004 165.623 57.835C166.274 57.2407 165.623 57.835 165.41 57.9808C165.196 58.1265 164.669 58.4405 164.287 58.6647C163.905 58.889 164.916 58.4629 164.59 58.5414L164.276 58.6423C164.141 58.6423 163.433 58.7993 163.961 58.7208C164.489 58.6423 163.658 58.7208 163.535 58.7208H163.018H162.547C163.243 58.8554 161.862 58.6536 162.547 58.7208L162.075 58.6087C161.457 58.4068 162.558 58.8778 162.187 58.6087L161.94 58.4741C161.648 58.3508 162.445 58.9339 162.232 58.7096C161.749 58.205 162.479 59.1469 162.232 58.8217C161.985 58.4965 162.445 59.4496 162.356 59.1245C162.356 59.0011 162.277 58.7208 162.356 59.203C162.356 59.3824 162.434 59.6851 162.356 59.203C162.356 58.8666 162.546 58.889 162.356 59.4945C162.415 59.3219 162.463 59.1459 162.502 58.9675C162.569 58.7432 162.726 58.732 162.389 59.2366C162.468 59.1132 162.513 58.9451 162.591 58.8217C162.796 58.4362 163.02 58.0619 163.265 57.7004C163.389 57.5098 163.523 57.3304 163.647 57.1622L163.849 56.8932C164.175 56.4446 163.478 57.3641 163.793 56.9717C164.107 56.5792 164.276 56.3325 164.545 56.0298C164.683 55.8656 164.833 55.712 164.994 55.5701C165.342 55.2673 165.14 55.6373 164.882 55.6373C164.972 55.6373 165.151 55.4579 165.23 55.4131L165.522 55.2448C165.893 55.043 165.758 55.2448 165.387 55.2448C165.609 55.207 165.824 55.1391 166.027 55.043C166.319 54.9645 166.185 55.1664 165.758 55.043C165.866 55.06 165.976 55.06 166.083 55.043H166.409C166.903 55.043 165.724 54.8861 166.196 55.043L166.69 55.1776C167.128 55.2897 166.342 55.043 166.387 55.0318C166.467 55.0578 166.542 55.0956 166.611 55.144C166.78 55.2337 166.926 55.3458 167.094 55.4355C167.262 55.5252 166.589 54.9982 166.825 55.2225L167.06 55.4243C167.195 55.5588 167.307 55.7046 167.431 55.8392C167.554 55.9737 167.049 55.2897 167.229 55.5588C167.267 55.6338 167.312 55.7052 167.364 55.7719C167.465 55.9289 167.543 56.097 167.633 56.254C167.723 56.411 167.723 56.6801 167.498 55.9289C167.498 56.041 167.588 56.1643 167.622 56.2765C167.679 56.4336 167.724 56.5948 167.756 56.7586V57.0053C167.756 57.0053 167.689 56.2092 167.7 56.6241C167.7 56.7923 167.7 56.9492 167.7 57.1174C167.7 57.2856 167.7 57.2856 167.7 57.3641C167.7 57.8686 167.846 56.6577 167.7 57.1174C167.67 57.2807 167.629 57.4417 167.577 57.5996L167.498 57.835C167.644 57.1734 167.745 57.3192 167.611 57.5771L167.352 58.0257C167.274 58.1173 167.203 58.2147 167.139 58.3171C167.24 58.1153 167.487 57.8799 167.206 58.2162C166.874 58.5833 166.522 58.9314 166.151 59.259C165.848 59.5169 166.151 59.1133 166.308 59.1357C166.465 59.1581 166.005 59.3487 166.016 59.3375C165.78 59.5041 165.532 59.6539 165.275 59.786C165.167 59.8278 165.062 59.8765 164.961 59.9318C164.961 59.9318 165.589 59.7076 165.152 59.8421L164.5 60.0327C164.006 60.1785 164.747 60.0327 164.759 60.0327C164.632 60.0545 164.503 60.0545 164.377 60.0327C163.905 60.0327 164.253 60.0327 164.377 60.0327C164.848 60.0327 164.377 60.0327 164.298 60.0327L164.006 59.943C163.49 59.7972 164.5 60.2009 164.186 60.0103L163.658 59.6963C163.355 59.5057 164.186 60.1897 163.804 59.7972L163.591 59.5842C163.525 59.5042 163.454 59.4293 163.377 59.36C163.523 59.4609 163.748 59.8757 163.49 59.4833C163.366 59.2815 163.276 59.0572 163.153 58.8666C163.153 58.9339 163.344 59.5057 163.265 59.0908C163.246 58.9639 163.212 58.8397 163.164 58.7208C163.332 58.9339 163.164 59.2927 163.164 58.9227C163.164 58.8105 163.164 58.6872 163.164 58.5638C163.164 58.1041 163.164 58.6984 163.164 58.7769C163.22 58.6535 163.243 58.3956 163.288 58.2611L163.4 57.9247C163.4 57.9247 163.13 58.4742 163.332 58.0929C163.535 57.7117 163.579 57.6108 163.725 57.3753C163.871 57.1398 164.006 56.9717 164.141 56.7698C164.276 56.568 163.636 57.3416 163.984 56.994C164.141 56.8371 164.287 56.6913 164.455 56.5456L164.747 56.2876C165.196 55.8952 164.152 56.6913 164.646 56.3661L164.972 56.1643C165.432 55.8728 164.343 56.355 164.68 56.2765C165.017 56.198 164.051 56.3437 164.141 56.2765C164.455 56.2765 163.478 56.1755 163.568 56.198C163.214 56.1128 162.886 55.9426 162.612 55.7024C162.338 55.4621 162.126 55.1588 161.996 54.8188L161.884 54.5497C161.944 54.8188 161.921 54.6618 161.817 54.0788C161.817 54.8222 162.112 55.5352 162.639 56.0609C163.165 56.5866 163.879 56.8819 164.624 56.8819C165.368 56.8819 166.082 56.5866 166.609 56.0609C167.135 55.5352 167.431 54.8222 167.431 54.0788L167.408 54.3254Z" fill="#004D2B"/>
<path d="M32.2263 68.6555C33.7229 69.1706 35.1729 69.812 36.5605 70.5729C38.3422 71.2319 40.1561 71.8007 41.9952 72.2772C45.6782 73.3984 49.4398 73.6452 53.2238 74.4301C57.0079 75.215 61.084 76.0335 64.9804 76.5941C69.0027 77.087 73.0563 77.2781 77.1073 77.1659C81.0485 77.1659 84.9 76.6277 88.8076 76.3026C90.8288 76.1344 92.805 76.1456 94.8261 75.854C96.8473 75.5625 98.5541 75.3607 100.44 75.2261C104.415 74.9458 108.413 74.4076 112.365 73.8133C115.969 73.3906 119.542 72.7466 123.066 71.8848C125.02 71.3353 126.895 70.4719 128.827 69.844C130.758 69.2161 132.79 68.6555 134.755 67.9603C136.72 67.2651 138.786 66.5475 140.763 65.7178C141.65 65.3477 142.571 64.9777 143.424 64.5292C144.086 64.1816 144.872 63.3407 145.501 63.1949C149.005 62.3315 147.522 56.927 144.008 57.7904C142.447 58.1604 141.234 59.405 139.786 60.0329C138.146 60.7729 136.417 61.4121 134.778 61.9951C131.331 63.1164 127.67 64.0022 124.313 65.3589C121.138 66.5141 117.842 67.304 114.488 67.7136C110.715 68.3751 106.931 68.8349 103.113 69.2946C101.328 69.4964 99.5422 69.5749 97.7568 69.7431C95.9715 69.9113 93.8941 70.3711 91.9515 70.5056C88.0776 70.7747 84.215 71.1335 80.3299 71.3577C76.4524 71.6044 72.5632 71.6044 68.6858 71.3577C64.8647 70.9822 61.0699 70.3756 57.3223 69.5413C55.1664 69.1152 53.0555 68.6555 50.8771 68.3639C48.9227 68.1538 46.9862 67.8015 45.0831 67.3099C43.0394 66.7381 40.9285 66.1887 38.9298 65.4599C37.1781 64.832 35.5612 63.5986 33.7421 63.2173C30.2163 62.4773 28.7117 67.8818 32.2488 68.633L32.2263 68.6555Z" fill="#004D2B"/>
<path d="M34.708 103.695C36.049 103.875 37.3507 104.277 38.5595 104.884C40.2862 105.579 42.0613 106.149 43.8706 106.588C47.3189 107.465 50.8124 108.154 54.3357 108.651C55.1618 108.814 55.9988 108.915 56.8398 108.954C57.5502 108.909 58.2627 108.909 58.9731 108.954C60.736 109.189 62.4653 109.133 64.217 109.358C67.7052 109.644 71.2079 109.711 74.7045 109.559C78.2977 109.559 82.1267 109.93 85.675 109.346C87.1684 109.1 88.6842 109.346 90.1664 109.089C91.9518 108.819 93.7597 109.089 95.5562 108.864C98.9249 108.483 102.372 108.651 105.797 108.259C107.526 108.057 109.266 108.046 110.996 107.855C112.725 107.665 114.544 107.339 116.318 107.115C120.369 106.556 124.384 105.766 128.344 104.749C129.995 104.357 131.567 103.718 133.228 103.314C135.099 102.833 136.916 102.165 138.652 101.318C139.289 100.937 139.751 100.323 139.94 99.6064C140.128 98.8897 140.029 98.1278 139.663 97.4834C139.275 96.8542 138.66 96.3982 137.945 96.2102C137.23 96.0223 136.469 96.1169 135.822 96.4743C134.515 97.0932 133.144 97.5706 131.735 97.8983C130.219 98.2683 128.793 98.8289 127.244 99.2438C123.983 100.196 120.659 100.912 117.295 101.385C115.555 101.598 113.825 101.845 112.096 102.103C110.367 102.361 108.537 102.361 106.751 102.54C105.224 102.686 103.708 102.933 102.181 103.011C100.16 103.123 98.1389 102.877 96.1289 103.157C94.7038 103.299 93.2712 103.352 91.8395 103.314C90.9075 103.314 90.0205 103.516 89.0885 103.606C88.1565 103.695 87.494 103.606 86.6968 103.606C85.1809 103.606 83.7212 103.953 82.2053 103.953H76.8043C73.256 103.953 69.6742 104.076 66.1147 103.953C65.2725 103.953 64.4752 103.796 63.6443 103.706C62.8134 103.617 62.0273 103.706 61.2189 103.706C60.4104 103.706 59.7704 103.482 58.9731 103.404C58.0524 103.314 57.1204 103.493 56.1997 103.404C52.5806 102.979 48.9995 102.278 45.4876 101.307C43.7432 100.906 42.0315 100.373 40.3673 99.7148C38.547 98.8455 36.5838 98.3136 34.5732 98.1449C30.9576 97.9992 30.9688 103.606 34.5732 103.751L34.708 103.695Z" fill="#004D2B"/>
<path d="M39.2219 71.6043C40.371 72.9154 41.4112 74.3179 42.3323 75.7978C43.4551 77.4797 44.9597 78.9486 46.2061 80.5857C47.5546 82.3296 49.0056 83.992 50.5516 85.5641C51.855 87.052 53.077 88.609 54.2121 90.2286C56.8284 93.5251 59.6356 96.7432 62.3754 99.9388C63.3748 101.06 64.3292 102.26 65.3398 103.415C65.6911 103.812 66.0209 104.227 66.3279 104.659C66.6648 105.108 66.9792 105.579 67.361 105.994C67.7428 106.409 68.1134 106.565 68.3604 106.891L70.0335 102.776L69.8313 102.832C66.3392 103.74 67.8213 109.144 71.3246 108.236H71.5268C73.1213 107.821 74.3115 105.579 73.2111 104.121C72.5823 103.303 71.8187 102.675 71.1787 101.879C70.6846 101.262 70.2468 100.589 69.719 99.9724C68.8207 98.8512 67.8887 97.8869 67.0016 96.8104C64.2169 93.4466 61.2414 90.1389 58.4903 86.719C57.2103 85.1156 56.1099 83.3552 54.695 81.8415C53.2455 80.3919 51.8843 78.8567 50.619 77.2442C49.4176 75.6408 47.9803 74.2168 46.8574 72.5685C45.7949 70.8461 44.5812 69.2213 43.2306 67.7134C40.7042 65.1233 36.7404 69.0926 39.2556 71.6828L39.2219 71.6043Z" fill="#004D2B"/>
<path d="M38.8512 101.946C40.5746 100.66 42.3827 99.4911 44.2634 98.4476C45.1954 97.887 46.0376 97.2254 46.9471 96.62C47.9101 96.042 48.9206 95.5468 49.9677 95.1399C51.8338 94.2416 53.6248 93.1955 55.3236 92.0115C57.356 90.6997 59.4447 89.4999 61.4658 88.188C63.2849 87.0667 65.2387 86.0463 67.0802 84.8802C68.0506 84.2852 68.9774 83.622 69.8536 82.8956C70.6298 82.3873 71.4319 81.9194 72.2566 81.494C73.458 80.6867 74.6146 79.7448 75.7374 78.8366C76.6945 78.1469 77.582 77.3658 78.3874 76.5043C78.8994 75.9701 79.1851 75.2591 79.1851 74.5197C79.1851 73.7802 78.8994 73.0693 78.3874 72.5351C77.8597 72.014 77.1476 71.7217 76.4055 71.7217C75.6634 71.7217 74.9512 72.014 74.4236 72.5351C73.6156 73.3939 72.7284 74.1747 71.7737 74.8673L71.1 75.4055C70.5835 75.8092 71.4593 75.1588 70.8642 75.5737C70.2475 76.0805 69.6026 76.5521 68.9328 76.9865C67.9158 77.4956 66.9496 78.1001 66.0471 78.7917C65.2623 79.3982 64.4411 79.9562 63.5881 80.4624C61.668 81.6397 59.6692 82.705 57.7828 83.9384C55.8964 85.1718 53.864 86.3154 51.9327 87.5488C50.1203 88.7393 48.2167 89.7854 46.2397 90.6772C44.2953 91.6724 42.4197 92.7962 40.6253 94.041C38.6167 95.2049 36.6953 96.5127 34.8763 97.9543C34.3517 98.4797 34.0571 99.1914 34.0571 99.9333C34.0571 100.675 34.3517 101.387 34.8763 101.912C35.408 102.425 36.1186 102.712 36.8581 102.712C37.5976 102.712 38.3082 102.425 38.84 101.912L38.8512 101.946Z" fill="#004D2B"/>
<path d="M51.7079 73.5556C52.4939 74.6769 53.3137 75.7982 54.1671 76.9194C54.7692 77.7521 55.6295 78.363 56.6148 78.6574C57.4986 78.8163 58.4094 78.7231 59.2425 78.3883C59.8676 78.2003 60.4643 77.9287 61.0165 77.581C61.5443 77.2222 62.0496 76.8298 62.5549 76.4597C63.1688 76.0669 63.6257 75.4719 63.8462 74.7778C63.9449 74.423 63.9721 74.0521 63.9266 73.6866C63.8812 73.3211 63.7637 72.9682 63.5811 72.6482C63.3984 72.3283 63.1542 72.0475 62.8624 71.8222C62.5707 71.5969 62.2372 71.4316 61.8812 71.3355C61.5221 71.2295 61.1448 71.1996 60.7735 71.2479C60.4022 71.2961 60.0451 71.4215 59.7252 71.6158C59.0428 72.2089 58.2883 72.7137 57.4795 73.1183L58.1419 72.838C57.7006 73.0354 57.2368 73.1785 56.7608 73.2641L57.5132 73.1632H57.3223L58.0634 73.2641H57.8949L58.5686 73.5444C58.4893 73.512 58.414 73.4706 58.3441 73.4211L58.9055 73.8584C58.4904 73.5278 58.1137 73.1517 57.7827 72.7371L58.2206 73.2978C57.6143 72.5129 57.0303 71.7055 56.4576 70.8982C56.074 70.2763 55.4744 69.8172 54.7733 69.6087C54.4132 69.5112 54.0373 69.4858 53.6673 69.5339C53.2973 69.582 52.9406 69.7027 52.6175 69.889C52.2989 70.0745 52.0201 70.3209 51.7969 70.614C51.5737 70.9071 51.4104 71.2412 51.3166 71.5974C51.2227 71.9535 51.2 72.3246 51.2498 72.6894C51.2997 73.0543 51.421 73.4058 51.6069 73.7238L51.7079 73.5556Z" fill="#004D2B"/>
<path d="M51.4837 105.837L52.921 104.536C53.2397 104.285 53.5433 104.015 53.8305 103.729C54.1738 103.325 54.5494 102.95 54.9533 102.607L54.3807 103.045C54.5179 102.954 54.6604 102.872 54.8074 102.798L54.1449 103.078C54.2498 103.037 54.3591 103.007 54.4706 102.989L53.7182 103.09C53.7889 103.078 53.8608 103.078 53.9315 103.09L53.1905 102.989C53.294 103.004 53.3955 103.031 53.4935 103.067L52.8199 102.787C52.9962 102.858 53.1624 102.952 53.314 103.067L52.7413 102.63C53.557 103.356 54.3084 104.152 54.987 105.007C55.526 105.624 56.1098 106.252 56.5927 106.88C56.8529 107.142 57.1626 107.35 57.5036 107.492C57.8447 107.635 58.2105 107.709 58.5802 107.709C59.3222 107.701 60.0315 107.403 60.5564 106.88C60.8181 106.621 61.0263 106.314 61.1689 105.976C61.3114 105.637 61.3857 105.273 61.3873 104.906C61.354 104.167 61.0596 103.464 60.5564 102.921C59.703 101.901 58.8609 100.847 57.9177 99.9052C56.7275 98.7167 55.5485 97.3936 53.6957 97.4833C52.5067 97.5793 51.395 98.1103 50.5741 98.9746C50.1699 99.3782 49.8331 99.8492 49.3839 100.219C48.7477 100.757 48.1188 101.318 47.4975 101.901C47.0194 102.435 46.7642 103.132 46.7843 103.848C46.8044 104.564 47.0981 105.245 47.6053 105.751C48.1126 106.258 48.7948 106.551 49.5118 106.571C50.2289 106.591 50.9264 106.337 51.4612 105.859L51.4837 105.837Z" fill="#004D2B"/>
<path d="M86.8873 75.7982C89.7365 78.1885 92.8258 80.2778 96.106 82.0325C98.2688 83.1526 100.361 84.4033 102.372 85.7776C104.191 87.1231 106.133 88.2555 108.065 89.4441C109.996 90.6326 112.051 92.3258 114.049 93.7161C116.048 95.1065 117.957 96.026 119.877 97.2257C123.246 99.3337 126.828 101.027 130.286 102.933L132.453 97.8088C133.688 98.3022 131.937 97.506 131.634 97.3603C131.095 97.0912 130.511 96.8333 129.994 96.609C129.278 96.4127 128.513 96.5079 127.867 96.8735C127.221 97.2392 126.746 97.8456 126.547 98.56C126.362 99.2763 126.462 100.036 126.827 100.68C127.191 101.324 127.791 101.802 128.501 102.014C127.266 101.509 129.017 102.305 129.309 102.451C129.859 102.731 130.432 102.989 130.96 103.213C133.935 104.402 135.855 99.6028 133.116 98.0891C129.747 96.2054 126.165 94.5347 122.853 92.4828C121.034 91.3615 119.08 90.3972 117.306 89.175C115.262 87.7846 113.32 86.2148 111.276 84.8357C109.232 83.4565 107.391 82.5932 105.583 81.2252C103.771 79.8884 101.852 78.7033 99.8451 77.682C96.642 76.0754 93.6289 74.1159 90.8622 71.8401C88.1673 69.4406 84.1924 73.3987 86.8873 75.7982Z" fill="#004D2B"/>
<path d="M93.299 108.651C94.7251 108.371 95.9602 106.992 96.9371 106.005C97.914 105.018 99.0144 103.942 100.014 102.877C101.406 101.206 102.943 99.6598 104.606 98.2569C106.297 96.8026 107.884 95.2327 109.356 93.5588C110.26 92.7175 111.101 91.8105 111.871 90.8452C112.471 89.9963 113.115 89.1803 113.803 88.4009C114.589 87.5711 115.42 86.775 116.206 85.9565C116.992 85.138 117.632 84.1849 118.451 83.3888C119.271 82.5927 119.922 82.1778 120.551 81.4378C121.18 80.6978 121.842 79.7783 122.572 79.0046C124.178 77.3227 125.941 75.7753 127.58 74.1046C129.297 72.2983 130.905 70.3926 132.397 68.3974C132.904 67.8606 133.186 67.1506 133.186 66.4127C133.186 65.6749 132.904 64.9649 132.397 64.4281C131.87 63.907 131.157 63.6147 130.415 63.6147C129.673 63.6147 128.961 63.907 128.434 64.4281C127.246 66.0653 125.976 67.6409 124.627 69.1486C123.246 70.6063 121.786 71.9967 120.315 73.3646C118.844 74.7326 117.609 76.493 116.149 77.9618C115.487 78.6234 114.712 79.1391 114.095 79.8455C113.477 80.5519 112.691 81.5387 111.916 82.3348C110.321 83.9663 108.821 85.6884 107.425 87.4926C106.156 89.1521 104.449 90.6098 103.023 92.1459C101.597 93.6821 99.7218 94.8482 98.3519 96.5189C96.982 98.1896 95.4773 99.4566 94.0625 100.937C93.5572 101.464 93.052 101.979 92.5354 102.495C92.2435 102.764 91.9516 103.045 91.6485 103.303H91.7158C91.4912 103.46 91.4912 103.437 91.7158 103.303C91.9403 103.146 91.9741 103.213 91.7944 103.303C91.0767 103.5 90.467 103.975 90.0996 104.621C89.7321 105.268 89.637 106.034 89.835 106.75C90.0331 107.467 90.508 108.076 91.1556 108.443C91.8031 108.81 92.5701 108.905 93.2878 108.707L93.299 108.651Z" fill="#004D2B"/>
<path d="M105.987 74.6768L105.246 74.7777L104.494 74.6768H104.685L104.011 74.3852C104.415 74.5931 104.792 74.8491 105.134 75.1477L104.573 74.7104C105.168 75.159 105.696 75.6972 106.369 76.1008C106.873 76.3915 107.431 76.5783 108.009 76.6502C108.881 76.9227 109.826 76.838 110.636 76.4147C111.186 76.0447 111.692 75.6074 112.219 75.2037C112.784 74.7749 113.324 74.3145 113.836 73.8246C114.353 73.296 114.646 72.5895 114.656 71.8511C114.657 71.296 114.493 70.7531 114.184 70.2912C113.876 69.8293 113.437 69.4692 112.924 69.2566C112.41 69.0441 111.845 68.9885 111.3 69.0971C110.755 69.2057 110.254 69.4735 109.861 69.8665C109.197 70.4948 108.491 71.0791 107.75 71.6157L108.323 71.1784L107.807 71.5821L109.221 71.1896C109.064 71.2006 108.907 71.2006 108.75 71.1896L109.502 71.2905C109.21 71.254 108.924 71.1825 108.649 71.0775L109.311 71.3578C109.19 71.2975 109.077 71.2222 108.974 71.1336L109.547 71.5708C108.896 71.0775 108.278 70.5617 107.616 70.0796C107.392 69.9172 107.16 69.7674 106.919 69.6311C106.639 69.4771 106.341 69.3566 106.032 69.2722C105.493 69.1489 104.932 69.1489 104.393 69.2722C103.686 69.4636 103.084 69.9274 102.72 70.5617C102.532 70.8787 102.409 71.2297 102.357 71.5944C102.306 71.9591 102.327 72.3304 102.42 72.6868C102.513 73.0433 102.676 73.3778 102.899 73.6712C103.122 73.9647 103.401 74.2111 103.719 74.3965L104.393 74.6768C104.882 74.8114 105.398 74.8114 105.886 74.6768H105.987Z" fill="#004D2B"/>
<path d="M112.59 103.976V103.83L112.489 104.581C112.533 104.376 112.589 104.174 112.657 103.976L112.377 104.648C112.549 104.248 112.771 103.871 113.039 103.527L112.601 104.088C112.826 103.807 113.05 103.538 113.286 103.269C113.502 102.981 113.747 102.714 114.016 102.473L113.454 102.91L113.623 102.81L112.96 103.09C113.043 103.053 113.13 103.027 113.219 103.011L112.478 103.112H112.736L111.995 103.011C112.117 103.035 112.237 103.068 112.354 103.112L111.68 102.832C111.87 102.923 112.051 103.032 112.219 103.157L111.647 102.72C112.332 103.247 112.96 103.841 113.634 104.402L114.959 105.445C115.498 105.946 116.199 106.236 116.935 106.263C117.304 106.265 117.67 106.193 118.011 106.053C118.353 105.912 118.663 105.706 118.924 105.445C119.185 105.185 119.391 104.875 119.532 104.534C119.672 104.194 119.744 103.828 119.742 103.46C119.75 103.091 119.681 102.724 119.54 102.382C119.399 102.04 119.189 101.732 118.923 101.475L117.463 100.354C116.599 99.6588 115.801 98.8403 114.869 98.2236C114.389 97.899 113.845 97.6818 113.273 97.587C112.701 97.4921 112.116 97.5219 111.557 97.6742C110.655 97.9892 109.871 98.5722 109.311 99.3448C108.788 99.9213 108.304 100.532 107.863 101.173C107.606 101.59 107.395 102.033 107.234 102.496C107.083 102.961 106.989 103.443 106.953 103.931C106.953 104.675 107.248 105.388 107.773 105.915C108.305 106.434 109.017 106.727 109.76 106.734C110.505 106.732 111.218 106.438 111.748 105.915L112.186 105.355C112.439 104.923 112.571 104.431 112.567 103.931L112.59 103.976Z" fill="#004D2B"/>
<path d="M86.5618 103.83C85.7041 102.243 84.6558 100.767 83.4402 99.4345C82.3174 97.988 81.0485 96.5864 79.8919 95.1287C78.8598 93.8613 77.7338 92.6732 76.5233 91.5743L75.6026 90.7894C75.4005 90.6212 75.2208 90.4307 75.03 90.2625C74.8054 90.0158 74.8391 90.0943 75.03 90.2625C75.1313 90.5103 75.1993 90.7705 75.2321 91.0361L74.8503 92.4489C74.6594 92.7965 74.3562 92.9199 74.8503 92.6171C75.2177 92.3999 75.5636 92.1484 75.8833 91.8659C76.4116 91.3931 76.9788 90.9655 77.5789 90.5876C79.152 89.6355 80.633 88.5394 82.0029 87.3135C82.6093 86.7417 83.2381 86.1922 83.8444 85.6652C84.1654 85.4325 84.4493 85.1528 84.6866 84.8355C84.9449 84.3758 84.7989 84.8355 84.754 84.7682L83.5525 84.8691C83.8332 84.9588 83.9006 84.9701 83.7547 84.8691C83.6087 84.7682 84.3274 85.2055 84.4846 85.3401C84.1589 85.071 84.6979 85.5979 84.7765 85.6764C85.4356 86.3553 86.1369 86.9919 86.8763 87.5826C88.3809 88.7824 90.0877 89.8251 91.525 91.0585C91.7046 91.2155 93.4787 92.7741 93.7033 92.6508C93.4338 92.7965 93.1868 90.61 93.4675 90.6997C93.157 91.0502 92.8753 91.4252 92.6253 91.821C92.2323 92.404 91.8505 93.0095 91.435 93.5926L90.9971 94.2093L90.6716 94.6354C90.447 94.9157 89.5487 95.6669 89.5487 95.8912C89.5487 95.8351 91.0084 95.4652 91.0196 95.4427L90.8175 95.2745C90.3909 94.8821 89.8967 94.5569 89.4363 94.2093C88.9759 93.8617 88.2349 93.2338 87.6622 92.7181L85.2255 90.5539C84.6892 90.0452 83.9779 89.7616 83.2382 89.7616C82.4985 89.7616 81.787 90.0452 81.2507 90.5539C80.7308 91.0841 80.4397 91.7966 80.4397 92.5386C80.4397 93.2806 80.7308 93.9931 81.2507 94.5233C82.8115 95.8912 84.3161 97.3152 85.9667 98.5711C86.9821 99.5383 88.1756 100.3 89.4813 100.814C90.2859 101.031 91.1359 101.015 91.9315 100.766C92.7271 100.518 93.4353 100.048 93.9727 99.412C95.1351 98.1248 96.1798 96.7364 97.0943 95.2633L97.7343 94.299C97.3188 94.9045 98.1947 93.7159 98.2733 93.5926C98.4954 93.2423 98.6728 92.8656 98.8011 92.4713C99.2952 90.4979 98.1386 88.9281 96.5554 87.8517C95.4325 87.0444 94.3096 86.1474 93.1868 85.3401C91.8849 84.498 90.6498 83.557 89.4925 82.5257C87.2468 80.3952 84.3946 77.9284 81.318 80.2831C80.2452 81.1486 79.2182 82.0693 78.2413 83.0415C77.2308 83.9497 76.1452 84.7712 74.9962 85.4971C74.491 85.8334 73.9407 86.1137 73.4467 86.4726C73.0519 86.745 72.6767 87.0447 72.3238 87.3696C72.234 87.4481 71.3806 88.0984 72.0431 87.6611C70.5272 88.6702 69.135 89.8364 69.6066 91.8771C70.024 93.1425 70.8391 94.2396 71.9308 95.0054C72.9991 95.9078 74.0046 96.8818 74.9402 97.9207C76.209 99.3335 77.3543 100.87 78.567 102.327C79.7787 103.608 80.8135 105.045 81.6437 106.599C82.0269 107.236 82.6451 107.698 83.3653 107.884C84.0854 108.071 84.8501 107.968 85.495 107.597C86.1232 107.209 86.5777 106.594 86.7637 105.88C86.9498 105.166 86.8533 104.408 86.4944 103.763L86.5618 103.83Z" fill="#004D2B"/>
<path d="M133.958 67.1082C134.957 67.9043 135.923 68.7228 136.877 69.5526C137.338 69.9562 137.843 70.315 138.303 70.7299C138.764 71.1448 139.235 71.5709 139.729 71.9633C140.729 72.7931 141.773 73.578 142.716 74.4974C143.247 75.0073 143.956 75.2889 144.692 75.2815C145.428 75.2741 146.132 74.9783 146.652 74.4578C147.171 73.9373 147.466 73.2338 147.471 72.4988C147.476 71.7638 147.192 71.056 146.68 70.5281C145.759 69.6311 144.749 68.8686 143.761 68.0501C143.244 67.6352 142.772 67.1867 142.278 66.7606C141.784 66.3345 141.313 65.9981 140.852 65.6393C139.887 64.7984 138.921 63.9799 137.922 63.195C137.381 62.6897 136.674 62.3987 135.934 62.3765C135.191 62.3794 134.478 62.6757 133.952 63.2007C133.427 63.7258 133.13 64.4371 133.127 65.1796C133.124 65.5477 133.197 65.9124 133.339 66.2516C133.482 66.5909 133.693 66.8975 133.958 67.153V67.1082Z" fill="#004D2B"/>
<path d="M138.955 92.0228C139.427 92.2022 138.955 92.0229 138.73 91.8771C138.506 91.7314 138.27 91.5856 138.045 91.4398C137.63 91.1595 138.124 91.5407 137.765 91.2268C137.405 90.9128 137.248 90.7334 136.968 90.4979C135.93 89.6669 134.83 88.9172 133.678 88.2554C132.555 87.605 131.578 86.8762 130.489 86.2483L128.771 85.2616C128.446 85.083 128.113 84.922 127.771 84.7795C127.592 84.6884 127.404 84.6169 127.21 84.5664L126.974 84.4991L128.097 87.4481L128.535 87.022C129.001 86.5399 129.429 86.0226 129.815 85.4746C130.545 84.4879 131.32 83.2321 132.061 82.3575C132.91 81.6 133.611 80.6913 134.127 79.6777C134.295 79.6104 134.217 79.4198 134.127 79.6777L134.003 79.8346C131.656 79.7561 130.904 79.9131 131.757 80.3056C131.96 80.4401 132.173 80.541 132.375 80.6756C132.577 80.8101 133.004 81.1241 132.813 80.9783C132.941 81.098 133.076 81.2103 133.217 81.3147C134.228 82.1444 135.182 83.0302 136.193 83.8488C136.797 84.352 137.452 84.7916 138.147 85.1606L138.944 85.6204L139.281 85.8335C139.674 86.0913 138.843 85.441 139.415 85.9456C139.946 86.4555 140.655 86.737 141.391 86.7296C142.127 86.7222 142.831 86.4265 143.351 85.906C143.87 85.3855 144.165 84.6819 144.17 83.9469C144.175 83.2119 143.891 82.5042 143.379 81.9763C142.776 81.4456 142.121 80.9761 141.425 80.5747L140.651 80.1486L140.179 79.8795C139.55 79.5207 140.359 80.0701 140.067 79.8122C139.022 78.8704 137.967 77.9733 136.878 77.0875C135.541 75.9663 133.936 74.6656 132.105 74.9123C131.581 74.9768 131.077 75.1584 130.632 75.4438C130.187 75.7291 129.812 76.1108 129.534 76.5605C129.42 76.7477 129.319 76.9425 129.231 77.1436C129.164 77.2781 129.096 77.4127 129.018 77.5472C128.939 77.6818 129.231 77.379 128.872 77.6818C127.692 78.8773 126.667 80.2143 125.817 81.6623C125.615 81.965 125.402 82.2566 125.189 82.5481C125.323 82.3687 124.919 82.8621 124.829 82.9518C124.307 83.4248 123.84 83.9551 123.437 84.5327C123.14 85.0071 122.957 85.5432 122.901 86.0995C122.846 86.6559 122.919 87.2177 123.115 87.7413C123.312 88.2649 123.626 88.7363 124.035 89.119C124.443 89.5018 124.934 89.7856 125.469 89.9485L125.817 90.0494C125.391 89.9149 125.818 90.0494 125.907 90.1055L126.952 90.711C127.659 91.1258 128.378 91.5183 129.074 91.9556C130.444 92.8077 131.937 93.6151 133.217 94.5794C132.914 94.3551 133.296 94.6578 133.329 94.6915L133.812 95.14C134.221 95.4981 134.649 95.835 135.092 96.1492C135.85 96.6996 136.682 97.1412 137.563 97.461C138.282 97.6572 139.05 97.5609 139.698 97.1931C140.346 96.8254 140.822 96.2161 141.021 95.4988C141.197 94.7829 141.091 94.0272 140.725 93.3869C140.36 92.7466 139.762 92.2705 139.056 92.0565L138.955 92.0228Z" fill="#004D2B"/>
<path d="M30.3398 76.1907C31.5525 77.4016 32.6978 78.6799 33.8768 79.9245C34.4383 80.5188 34.9997 81.0458 35.5836 81.6849C36.1675 82.324 36.83 83.2435 37.5374 83.9275C37.6496 84.0582 37.7737 84.1783 37.908 84.2863C38.6716 84.8805 38.6041 80.6421 37.6497 81.6625C37.3352 81.9876 37.0658 82.3577 36.7514 82.6829C36.1002 83.3444 35.359 83.8826 34.7077 84.5441C34.3709 84.903 34.0453 85.2618 33.6748 85.5981C33.5401 85.7215 33.2032 85.9457 33.5288 85.7327L32.8887 86.1476C31.9406 86.6956 31.0557 87.3462 30.25 88.0874C29.7229 88.6138 29.4268 89.3276 29.4268 90.072C29.4268 90.8164 29.7229 91.5303 30.25 92.0567C30.7771 92.583 31.492 92.8787 32.2375 92.8787C32.9829 92.8787 33.6979 92.583 34.225 92.0567C34.3036 91.9782 34.8313 91.5073 34.4495 91.81C34.6516 91.6531 34.865 91.5185 35.0784 91.3839C35.5388 91.0924 36.0216 90.8121 36.4595 90.4981C37.4207 89.7472 38.3218 88.9224 39.1544 88.0313C40.8948 86.3494 44.2073 83.9835 42.523 81.1916C41.8842 80.3196 41.1784 79.4986 40.412 78.736C39.772 77.9623 39.0757 77.2559 38.3795 76.4934C36.9984 75.0582 35.6846 73.5669 34.281 72.1541C33.7539 71.6277 33.0391 71.332 32.2937 71.332C31.5482 71.332 30.8333 71.6277 30.3062 72.1541C29.7791 72.6805 29.483 73.3944 29.483 74.1388C29.483 74.8832 29.7791 75.597 30.3062 76.1234L30.3398 76.1907Z" fill="#004D2B"/>
<path d="M150.801 61.0758L150.408 61.3673L150.947 60.9637C151.215 60.7546 151.47 60.5299 151.711 60.2909C152.193 59.8424 152.62 59.3266 153.114 58.8893C154.17 57.9474 155.36 56.9607 156.483 56.1198C158.728 54.4603 160.974 53.1372 163.085 51.2759C164.062 50.3901 165.05 49.4818 166.106 48.6857C167.161 47.8896 168.52 47.0038 169.609 46.0283C170.698 45.0528 171.361 44.0661 172.338 43.2139C172.832 42.7878 173.46 42.5299 173.977 42.0926C174.145 41.9469 174.303 41.7899 174.46 41.6329C174.586 41.4865 174.721 41.3478 174.864 41.218C175.111 40.9825 175.032 41.0274 174.639 41.3638L172.472 41.0835C172.079 40.9041 172.36 40.6686 172.405 41.0835C172.464 41.1536 172.516 41.2286 172.562 41.3077C172.764 41.6441 172.742 41.4423 172.495 40.6798L172.877 39.267L172.764 39.424L173.775 38.4148C173.427 38.6839 173.034 38.8297 172.652 39.0652C172.025 39.5665 171.435 40.1137 170.889 40.7023C169.912 41.5432 168.924 42.4963 167.891 43.2587C166.618 44.2207 165.283 45.0973 163.894 45.8825C162.711 46.6743 161.586 47.5473 160.525 48.4951C158.279 50.2331 155.91 51.9822 153.788 53.8323C151.362 55.873 148.847 57.7568 146.534 59.9657C143.918 62.4662 147.893 66.4242 150.509 63.9238C154.226 60.3693 158.448 57.4989 162.389 54.1911C163.388 53.3614 164.421 52.599 165.432 51.7804C166.443 50.9619 167.363 50.5246 168.351 49.8518C170.544 48.3413 172.647 46.7052 174.651 44.9519C175.226 44.3828 175.849 43.865 176.515 43.4045C177.179 43.0316 177.692 42.4386 177.964 41.7281C178.237 41.0177 178.252 40.2344 178.008 39.5137C177.604 38.3777 176.903 37.3708 175.976 36.5984C175.27 36.092 174.406 35.8553 173.541 35.9315C172.675 36.0076 171.866 36.3915 171.26 37.0132C170.429 37.7533 169.598 38.2803 168.744 39.0204C167.723 39.9062 166.903 41.0162 165.904 41.9244C164.997 42.6889 164.053 43.4075 163.074 44.0773C161.861 44.9968 160.716 45.9947 159.571 47.015C158.568 47.8968 157.518 48.724 156.427 49.493C155.169 50.39 153.81 51.1749 152.62 52.1616C151.43 53.1484 150.105 54.1463 148.971 55.2339C148.544 55.6488 148.151 56.1422 147.724 56.5346C147.073 57.1289 146.489 57.4204 146.096 58.2501C145.741 58.897 145.648 59.6553 145.836 60.3687C146.024 61.0822 146.479 61.6964 147.107 62.0849C147.75 62.4548 148.513 62.5575 149.231 62.3708C149.95 62.1841 150.566 61.7231 150.947 61.087L150.801 61.0758Z" fill="#004D2B"/>
</g>
<defs>
<clipPath id="clip0_195_1785">
<rect width="312" height="141" fill="white"/>
</clipPath>
</defs>
</svg>
