<svg width="208" height="164" viewBox="0 0 208 164" fill="none" xmlns="http://www.w3.org/2000/svg">
<g clip-path="url(#clip0_195_1765)">
<path d="M5.06426 157.669L23.7265 158.135L33.9281 158.381L39.2602 158.528C42.0601 158.589 44.6409 157.755 47.4287 157.865C54.1607 158.123 61.2336 157.571 67.7953 159.019C69.4642 159.258 71.15 159.357 72.8352 159.313C74.6978 159.387 76.2925 160.123 78.1307 160.319C81.5029 160.663 85.0455 160.442 88.442 160.528L99.167 160.786L103.537 160.896C106.073 160.832 108.602 160.606 111.109 160.221C117.306 159.657 124.026 160.577 130.234 160.724C131.646 160.724 133.071 160.847 134.483 160.847C135.934 160.678 137.373 160.42 138.792 160.074C141.433 159.966 144.077 160.048 146.705 160.319C149.761 160.417 152.597 159.632 155.714 159.706L164.686 159.927C167.656 160 170.639 160.025 173.621 160.135C176.908 160.258 180.049 159.473 183.36 159.559L201.317 160L202.984 158.393L203.654 158.749C204.287 157.105 203.885 154.626 203.934 152.847L204.08 146.713L204.372 134.444C204.506 129.168 205.273 123.475 204.81 118.224C204.429 115.75 204.201 113.255 204.129 110.752C204.238 107.219 204.299 103.673 204.384 100.127C204.427 92.2256 204.074 84.3265 203.325 76.4606C202.863 70.3261 201.365 64.4246 201.341 58.2533C201.269 53.7787 200.89 49.3145 200.209 44.8923C199.734 41.6901 199.771 38.4021 199.223 35.1999C198.167 29.9448 197.552 24.6093 197.385 19.2501C197.256 18.056 197.032 16.8743 196.715 15.7166C196.581 14.7965 197.129 12.9193 196.618 12.1463C195.838 10.9194 192.661 10.7477 191.225 10.4655C188.247 9.79081 185.216 9.38027 182.167 9.23856C178.077 9.12814 173.183 9.80297 169.263 8.73557C166.088 8.04912 162.842 7.75656 159.597 7.86444C155.154 7.75402 149.785 8.4779 145.5 7.33688C141.641 6.31855 137.466 6.50258 133.326 6.40442L119.789 6.07321C116.137 5.98733 112.278 6.26945 108.675 5.61919C101.149 4.35918 93.5381 3.68653 85.9098 3.60713L62.2807 3.03044C55.2686 2.85868 48.4513 3.64387 41.4879 4.15917C37.3245 4.47817 33.1489 4.80943 29.0099 5.38608C25.9786 5.75415 23.0935 5.45975 20.0622 5.98732C16.0174 6.63165 11.9187 6.86594 7.82757 6.68666L7.02421 5.8523C7.02421 10.7599 5.19804 15.2626 5.0763 20.2684C4.95456 25.2742 3.95632 29.9364 3.85893 34.844C3.76154 40.2342 3.62768 45.6121 3.45725 50.9778C3.29899 56.1799 4.11466 61.3083 3.94423 66.5226C3.82249 70.829 3.53026 75.1723 3.57896 79.4787C3.57896 83.552 4.27297 87.5149 4.15124 91.6128C4.04167 95.0236 3.9807 98.4344 3.89549 101.845L3.45725 120.249C3.33551 125.034 2.77559 130.064 3.06776 134.787C3.1895 136.971 3.84682 138.836 3.77378 141.069C3.77378 142.726 3.68859 144.394 3.65207 146.05C3.55468 150.062 3.73724 154.173 3.29899 158.16C3.49433 157.634 3.80665 157.159 4.21202 156.774" fill="#D1C8E1"/>
<path d="M5.06432 160.736L26.1248 161.252C29.7769 161.338 33.3072 161.424 36.8863 161.534C38.4064 161.632 39.9313 161.632 41.4514 161.534C43.0827 161.374 44.6896 161.043 46.3209 160.982C49.7052 160.871 53.1504 160.982 56.5347 161.092C59.6654 161.065 62.793 161.303 65.8841 161.804C67.5226 162.152 69.1891 162.35 70.8631 162.393C72.505 162.43 74.1378 162.648 75.7326 163.043C78.9877 163.607 82.2949 163.805 85.5933 163.632C89.1237 163.632 92.6663 163.742 96.1967 163.828C99.3619 163.914 102.6 164.184 105.753 163.951C108.906 163.718 112.071 163.166 115.285 163.153C118.499 163.141 121.92 163.399 125.219 163.607C128.388 163.893 131.57 164.008 134.751 163.951C136.26 163.877 137.636 163.35 139.121 163.153C140.601 163.025 142.09 163.049 143.564 163.227C146.765 163.389 149.973 163.286 153.157 162.92C156.601 162.753 160.052 162.781 163.493 163.006C167.425 163.104 171.43 163.411 175.362 163.239C177.176 163.166 179.014 162.896 180.78 162.761C182.641 162.663 184.506 162.663 186.367 162.761L198.334 163.055C200.221 163.055 202.096 163.46 203.605 162.111C204.141 161.632 204.64 161.117 205.151 160.626L201.499 161.105L202.169 161.46C202.574 161.687 203.024 161.82 203.487 161.847C203.949 161.875 204.412 161.798 204.841 161.621C205.27 161.445 205.654 161.173 205.965 160.827C206.276 160.48 206.505 160.068 206.637 159.62C207.404 157.277 206.99 154.712 207.038 152.357C207.038 149.474 207.172 146.578 207.245 143.695C207.379 137.916 207.586 132.15 207.903 126.371C208.104 123.676 208.104 120.969 207.903 118.273C207.526 115.602 207.306 112.91 207.245 110.213C207.379 104.299 207.623 98.373 207.428 92.4594C207.233 86.5457 206.856 80.8406 206.283 75.0864C205.711 69.3323 204.518 63.9584 204.433 58.3024C204.348 52.6463 203.35 46.9535 202.924 41.2362C202.497 35.5188 201.171 29.6419 200.684 23.7896C200.587 21.1451 200.319 18.5098 199.88 15.9006C199.8 15.0847 199.8 14.2628 199.88 13.4468C199.943 12.1657 199.506 10.9106 198.663 9.95018C197.19 8.44109 195.011 8.13439 192.99 7.82767C190.458 7.43506 187.95 6.88295 185.406 6.60076C180.244 5.99958 174.936 7.15287 169.86 5.9137C164.576 4.6868 158.976 4.99348 153.596 5.1039C151.173 5.24632 148.743 5.07314 146.365 4.58863C143.682 3.98473 140.945 3.65998 138.196 3.6194C132.389 3.47217 126.582 3.37395 120.788 3.23899C118.073 3.16537 115.346 3.23905 112.643 3.15317C109.941 3.06729 106.97 2.40471 104.122 2.02437C98.3967 1.3149 92.6388 0.905384 86.8716 0.797465C74.9779 0.466202 62.9502 -0.294481 51.0687 0.564351C45.2253 0.993767 39.3697 1.43551 33.5385 1.99988C30.6533 2.28207 27.8047 2.6501 24.8952 2.72371C21.9857 2.79732 19.4292 3.28808 16.6779 3.55799C13.7636 3.81341 10.8366 3.89126 7.91293 3.79111L10.0555 4.6868L9.26419 3.85244C8.83217 3.43957 8.29061 3.16176 7.70518 3.0526C7.11974 2.94344 6.51545 3.00765 5.96546 3.23742C5.41547 3.46718 4.94344 3.8527 4.60632 4.34727C4.2692 4.84185 4.08149 5.42425 4.06599 6.02408C3.94426 10.7967 2.33737 15.3731 2.13042 20.1457C1.91129 25.127 1.03478 30.0468 0.913044 35.0158C0.791307 39.9847 0.693846 45.1745 0.535588 50.2539C0.37733 55.3333 1.04691 60.4004 1.02257 65.4921C0.998219 70.5837 0.499037 75.5036 0.657296 80.5216C0.730338 82.9754 0.998189 85.5151 1.14427 88.0057C1.29036 90.4963 1.14427 92.9133 1.14427 95.3671C0.888626 105.563 0.852164 115.783 0.292173 125.966C0.146089 128.69 -2.53916e-05 131.414 0.109538 134.125C0.219101 136.836 0.912985 139.229 0.852116 141.83C0.706032 147.326 0.9495 152.872 0.38951 158.368C0.0851668 161.325 4.8573 162.65 6.0625 159.914C6.16009 159.638 6.3042 159.381 6.48855 159.154C9.15459 156.258 4.85724 151.903 2.19119 154.811C1.62357 155.401 1.155 156.081 0.803523 156.823L6.47636 158.368C6.96331 153.522 6.76864 148.627 6.89038 143.768C7.01211 138.91 6.05031 134.493 6.19639 129.769C6.52508 119.709 6.90249 109.648 7.13379 99.5877C7.24336 94.5451 7.40166 89.5638 7.02427 84.5335C6.73209 79.5649 6.73209 74.5831 7.02427 69.6144C7.2434 64.4124 6.7929 59.3085 6.64681 54.1187C6.50073 48.9289 6.86595 43.9477 6.96334 38.8806C6.96334 36.12 7.06079 33.3595 7.32861 30.599C7.59644 27.8384 7.9981 24.992 8.16853 22.1702C8.29204 19.6102 8.58072 17.061 9.03281 14.5388C9.67788 11.7157 10.0851 8.84269 10.2502 5.95047L5.06432 8.12211C5.46699 8.62427 5.93823 9.06629 6.46418 9.4349C7.82763 10.2324 10.0068 9.90112 11.5285 9.88885C14.4262 9.85814 17.3184 9.62446 20.184 9.18951C22.8135 8.78463 25.4308 8.87052 28.0603 8.66195C31.0185 8.42884 33.9524 8.01164 36.9106 7.76626C42.7418 7.2755 48.5731 6.73569 54.4164 6.4167C60.2598 6.0977 66.2494 6.34308 72.1536 6.49031C83.6213 6.7725 95.2836 6.60074 106.605 8.49017C112.229 9.42261 117.817 9.25082 123.502 9.38578C129.187 9.52074 134.848 9.3858 140.545 9.79068C143.114 9.96245 145.537 10.7109 148.081 11.0176C150.647 11.2527 153.227 11.2978 155.799 11.1525C158.38 11.0666 160.973 11.0912 163.554 11.1525C166.135 11.2139 168.752 11.9991 171.406 12.3794C176.58 13.0174 181.778 12.0727 186.952 12.9193C189.143 13.2873 191.383 13.6063 193.55 14.1462C193.854 14.1462 194.524 14.5634 194.767 14.502C194.171 14.6492 194.414 12.8702 193.964 13.4959C193.793 13.7413 193.879 14.6001 193.854 14.9068C193.809 15.5215 193.838 16.1394 193.939 16.7472C194.098 17.6674 194.439 18.5385 194.512 19.471C194.633 21.0414 194.597 22.6118 194.743 24.1945C194.998 27.1268 195.437 30.0468 195.96 32.9423C196.873 38.4756 197.372 44.0826 197.981 49.665C198.59 55.2474 198.468 61.1856 199.259 66.9398C200.051 72.694 200.635 78.0801 201.024 83.7238C201.414 89.3676 201.682 95.1585 201.548 100.9C201.475 103.857 201.414 106.814 201.341 109.759C201.345 112.378 201.532 114.994 201.901 117.586C202.51 123.083 201.743 128.628 201.56 134.088C201.377 139.94 201.28 145.793 201.146 151.645C201.146 153.719 201.584 156.16 200.939 158.135L205.407 156.295L204.737 155.939C204.156 155.623 203.49 155.499 202.835 155.585C202.179 155.671 201.567 155.962 201.085 156.418L199.417 158.025L201.572 157.129L191.395 156.884C188.047 156.798 184.651 156.528 181.303 156.749C177.955 156.97 175.009 157.289 171.795 157.203L161.947 156.982C158.633 156.788 155.31 156.821 152.001 157.08C148.917 157.385 145.813 157.414 142.725 157.166C141.23 157.056 139.729 157.105 138.245 157.313C137.004 157.624 135.743 157.846 134.471 157.976C131.476 157.976 128.457 157.804 125.462 157.62C122.248 157.412 119.035 157.166 115.809 157.166C112.582 157.166 109.649 157.632 106.532 157.915C103.467 158.092 100.394 158.092 97.3288 157.915C93.981 157.829 90.621 157.706 87.2733 157.681C84.2205 157.87 81.1571 157.788 78.1186 157.436C76.6091 157.154 75.1727 156.688 73.6388 156.528C72.1049 156.369 70.437 156.528 68.8544 156.307C65.7145 155.747 62.5434 155.383 59.359 155.215C56.133 155.105 52.8948 155.215 49.6201 155.105C47.8699 155.025 46.1162 155.074 44.3731 155.252C42.761 155.506 41.1346 155.658 39.5036 155.706C35.7298 155.706 31.9438 155.498 28.17 155.412L5.30774 154.847C1.3878 154.761 1.3878 160.896 5.30774 160.982L5.06432 160.736Z" fill="#004D2B"/>
<path d="M166.305 25.4705C168.655 27.8384 171.175 29.9977 173.609 32.243C174.705 33.2245 175.63 34.39 176.774 35.3102C177.456 35.8623 178.162 36.3531 178.88 36.8561C178.954 36.8561 179.453 37.2978 179.087 37.0033L179.282 37.1628C179.544 37.4021 179.788 37.6604 180.013 37.9358C180.585 38.5097 181.36 38.8319 182.167 38.8319C182.975 38.8319 183.75 38.5097 184.322 37.9358C184.871 37.3504 185.177 36.5756 185.177 35.7703C185.177 34.965 184.871 34.1902 184.322 33.6048C183.745 32.9554 183.095 32.3749 182.387 31.8749C182.131 31.6786 181.863 31.4945 181.595 31.3105C181.275 31.1448 180.98 30.9342 180.719 30.6848C181.084 30.9916 180.901 30.9425 180.719 30.6848L180.39 30.3903L179.526 29.5193C178.99 28.9672 178.454 28.415 177.882 27.8875C175.448 25.6545 172.891 23.4829 170.578 21.1149C170.003 20.557 169.234 20.2489 168.436 20.257C167.638 20.2651 166.875 20.5888 166.312 21.1583C165.748 21.7278 165.429 22.4976 165.423 23.3019C165.418 24.1061 165.725 24.8805 166.281 25.4582L166.305 25.4705Z" fill="#004D2B"/>
<path d="M178.673 20.4402L165.161 34.0588L169.47 38.402L169.92 37.9358C170.474 37.3565 170.78 36.5813 170.772 35.7771C170.764 34.9728 170.443 34.204 169.878 33.636C169.312 33.0681 168.549 32.7466 167.751 32.7408C166.953 32.735 166.184 33.0452 165.611 33.6048L165.161 34.0588C164.6 34.6405 164.286 35.4194 164.286 36.2304C164.286 37.0414 164.6 37.8204 165.161 38.402C165.741 38.9615 166.512 39.2738 167.315 39.2738C168.118 39.2738 168.89 38.9615 169.47 38.402L183.032 24.7466C183.603 24.1707 183.924 23.3895 183.924 22.575C183.924 21.7605 183.603 20.9794 183.032 20.4034C182.46 19.8275 181.685 19.5039 180.877 19.5039C180.069 19.5039 179.294 19.8275 178.722 20.4034L178.673 20.4402Z" fill="#004D2B"/>
<path d="M27.0132 29.6543C27.1349 30.6972 27.5976 31.4947 27.695 32.5744C27.8131 33.7323 27.9918 34.8831 28.2306 36.022C28.6566 38.2181 28.2305 40.4511 28.3523 42.6717C28.4375 44.1686 29.0098 45.5182 29.1072 47.015C29.2046 48.5118 28.9976 49.7387 29.2289 51.1374C29.3157 52.1273 29.5841 53.0925 30.0202 53.9838C31.0428 55.2107 35.0357 55.6278 36.6061 55.9223C39.3155 56.4342 42.0667 56.6889 44.8233 56.683C47.8329 56.6817 50.8389 56.8907 53.8197 57.3087C58.6892 57.9589 64.1186 57.5173 68.9881 57.7013C71.2281 54.5604 69.8891 50.0209 70.4734 46.4874C71.1917 42.0705 70.8872 37.7151 71.009 33.2491C71.009 32.0222 71.3377 31.2247 70.2299 30.4763C69.4629 29.9488 67.1499 29.8997 66.1639 29.642C63.8763 29.121 61.5325 28.8943 59.1884 28.9673C53.5154 28.9673 47.7572 29.274 42.1452 28.9673C39.7104 28.8446 37.3487 28.2679 34.8409 28.2556C32.6984 28.2556 29.9714 27.7649 27.914 28.3784L27.7923 28.955" fill="#F3BC61"/>
<path d="M24.0799 30.5132C24.4572 32.7339 25.0903 34.9055 25.2972 37.163C25.6016 39.8499 25.0658 42.4633 25.6258 45.1625C26.1249 47.5181 25.9302 49.8614 26.2954 52.2416C26.3476 53.218 26.6231 54.169 27.1004 55.0204C27.5777 55.8717 28.2438 56.6003 29.0467 57.1492C30.6881 57.9899 32.4724 58.5102 34.3057 58.6829C36.4117 59.0141 38.5179 59.3945 40.6483 59.603C43.2534 59.8362 45.8707 59.7258 48.4759 59.8853C51.081 60.0448 53.5889 60.4742 56.1576 60.646C58.7262 60.8177 61.2826 60.7809 63.8391 60.7686C66.3956 60.7563 70.0721 61.5907 71.7156 59.1C74.2599 55.223 73.0303 50.1191 73.5902 45.7882C73.8906 43.174 74.0208 40.5427 73.9799 37.9114C73.9799 36.5618 73.9799 35.2122 73.9799 33.8627C74.0854 32.8286 74.0567 31.7852 73.8946 30.7586C73.2981 28.4398 71.2042 27.3601 69.0251 27.0779C66.846 26.7957 64.7157 26.2559 62.3905 26.0841C56.3036 25.6302 50.2168 26.2436 44.1299 26.0841C41.1595 25.9983 38.2622 25.4093 35.304 25.2989C32.5406 25.2008 29.6919 24.8204 26.9772 25.5197C26.4689 25.6601 26.0059 25.9322 25.6343 26.3089C25.2627 26.6855 24.9952 27.1537 24.8588 27.6668L24.7371 28.2312C24.5435 29.0163 24.6567 29.8463 25.0532 30.5496C25.4497 31.253 26.0992 31.7758 26.8675 32.01C27.6454 32.2177 28.4732 32.109 29.1723 31.7073C29.8713 31.3057 30.3859 30.6433 30.605 29.8629L30.7267 29.2986L28.5963 31.4334C30.4832 30.9427 32.5527 31.4334 34.4761 31.4334C36.9108 31.4948 39.1508 31.9364 41.5004 32.1082C46.3698 32.4885 51.3245 32.2186 56.2183 32.1082C58.5562 32.0058 60.8981 32.0509 63.2304 32.2431C64.9591 32.4517 66.6999 32.9302 68.392 33.1265C68.4651 33.1265 68.8425 33.286 68.8912 33.2492C68.5747 33.4455 68.1974 32.4395 68.1852 32.4149C67.7348 31.6542 67.9903 32.1205 67.966 32.7216C67.966 33.8749 67.966 35.0405 67.966 36.1938C67.966 38.5863 67.966 40.991 67.8321 43.3834C67.6982 45.7759 67.2721 48.0089 67.3208 50.3891C67.3208 52.4012 67.5399 54.4624 66.4077 56.2046L69.0251 54.6832C63.3765 54.4992 57.801 54.6832 52.1524 54.082C49.1698 53.7507 46.1994 53.7385 43.1925 53.6403C40.8367 53.5038 38.4911 53.2252 36.1683 52.806C35.2309 52.6588 34.3057 52.5116 33.3926 52.2785L32.6866 52.0699C32.3092 51.935 32.2361 51.9104 32.4674 52.0699C32.1387 51.8736 32.1144 51.8736 32.3701 52.0699C32.462 52.1691 32.5399 52.2805 32.6015 52.4011C32.4189 52.4011 32.0536 45.8986 31.9806 45.4569C31.6694 44.2063 31.4777 42.9286 31.4083 41.6412C31.4083 40.169 31.5787 38.6844 31.4083 37.2121C31.2014 34.4025 30.4101 31.6787 29.9353 28.9305C29.7206 28.1463 29.2056 27.4802 28.5035 27.0787C27.8015 26.6772 26.9701 26.5732 26.192 26.7895C25.4139 27.0059 24.7529 27.525 24.3545 28.2326C23.9561 28.9401 23.853 29.7781 24.0677 30.5623L24.0799 30.5132Z" fill="#004D2B"/>
<path d="M27.7439 72.6573C27.7984 74.3011 27.6801 75.9461 27.391 77.5649C26.9972 80.2405 26.8829 82.9505 27.0501 85.6502C27.0359 88.1184 27.2478 90.5827 27.6832 93.0116C27.9145 94.2385 27.1353 96.545 27.7927 97.637C28.3162 98.5203 29.6066 98.1891 30.4222 98.2504C31.1937 98.371 31.9548 98.5515 32.6987 98.7903C34.4618 99.0296 36.2452 99.0789 38.0186 98.9375C42.8881 98.9375 47.7575 98.9375 52.554 98.9375C54.9001 99.0297 57.238 99.2715 59.5539 99.6614C61.5163 99.7718 63.4835 99.7718 65.446 99.6614C66.8632 99.5721 68.2857 99.6879 69.6703 100.005C71.1311 100.41 72.7259 100.901 73.1763 99.0112C73.5659 97.4039 72.385 95.1341 72.4094 93.4287C72.4094 90.5946 72.4094 87.7481 72.4094 84.914V77.5526C72.5856 75.9196 72.557 74.2708 72.3242 72.645C64.7765 70.7188 57.1678 71.185 49.3888 71.185H39.4308C37.403 70.9983 35.3606 71.0477 33.344 71.3322C32.636 71.5693 31.9117 71.7539 31.177 71.8843C30.1179 71.9947 28.7422 71.504 27.8049 71.9948L27.7075 72.5714" fill="#8CA54F"/>
<path d="M24.7002 72.6571C24.7002 76.436 23.9333 80.1045 23.9942 83.8956C23.9942 85.6378 23.9942 87.3799 24.1402 89.1221C24.4163 90.7866 24.5912 92.4665 24.6638 94.1525C24.4081 95.4898 24.4081 96.864 24.6638 98.2012C24.9715 99.1406 25.5708 99.9554 26.373 100.525C27.1753 101.095 28.138 101.39 29.1192 101.367C30.5192 101.367 31.761 101.821 33.161 101.992C34.961 102.103 36.766 102.103 38.5661 101.992C42.5956 101.992 46.6373 101.992 50.6668 101.992C52.4067 101.96 54.147 102.038 55.8772 102.226C57.7776 102.547 59.6972 102.739 61.6231 102.802C63.2422 102.802 64.8492 102.655 66.4926 102.679C68.1361 102.704 69.536 103.281 71.1307 103.367C75.0872 103.587 76.6577 99.9557 76.0611 96.5081C75.9029 95.6125 75.562 94.7291 75.4403 93.8212C75.3915 93.0654 75.3915 92.3073 75.4403 91.5515C75.4403 89.3308 75.4403 87.0978 75.4403 84.8648C75.4403 82.6319 75.4403 80.1904 75.4403 77.847C75.6066 75.8504 75.5412 73.841 75.2455 71.8597C75.1069 71.3457 74.8375 70.8771 74.4638 70.5005C74.0901 70.1238 73.6251 69.8523 73.1151 69.7126C65.3239 67.7864 57.2892 68.1299 49.3763 68.1421C45.5051 68.1421 41.6218 68.2403 37.7627 68.1421C35.7886 67.9771 33.8009 68.1471 31.8827 68.6452C30.2636 69.1237 28.6445 68.547 27.0132 69.1114C26.5052 69.2511 26.0419 69.5212 25.6685 69.8954C25.2951 70.2696 25.0243 70.7351 24.8828 71.2462L24.7855 71.8229C24.5913 72.6063 24.7027 73.435 25.0968 74.138C25.4909 74.8411 26.1377 75.365 26.9037 75.6017C27.6832 75.8097 28.5124 75.7013 29.2135 75.2999C29.9145 74.8984 30.4314 74.236 30.6531 73.4547L30.7506 72.878L28.6324 75.0251C29.3261 74.915 30.0326 74.915 30.7263 75.0251C31.5983 75.005 32.4631 74.8604 33.2949 74.5957C34.8475 74.2153 36.4529 74.1033 38.0427 74.2644C41.8043 74.4116 45.6025 74.2644 49.3763 74.2644C56.7658 74.2644 64.2526 73.8227 71.496 75.6262L69.3778 73.4791C69.53 74.7464 69.53 76.0276 69.3778 77.2949C69.3778 79.1107 69.3778 80.9756 69.3778 82.7178C69.3778 86.1653 69.3778 89.6129 69.3778 93.0605C69.4513 94.4721 69.6799 95.8712 70.0594 97.232C70.0594 97.4406 70.2299 98.1276 70.2543 98.1399C69.9986 97.9804 71.6786 97.2075 71.6665 97.2443C71.6543 97.2811 71.2525 97.2443 71.1795 97.1707C68.2332 96.5968 65.2244 96.4193 62.2318 96.6431C59.1641 96.7289 56.145 95.9315 53.1259 95.8456C49.6199 95.7475 46.0895 95.8456 42.5713 95.8456C40.8791 95.8456 39.1991 95.8456 37.507 95.8456C36.0249 95.9915 34.5302 95.9337 33.0637 95.6738C32.3621 95.4674 31.6458 95.3156 30.9211 95.2199C30.7263 95.2199 29.5211 94.9745 29.3872 95.2199C29.4724 95.1095 30.5072 96.7044 30.6046 96.6553V95.9069C30.6046 95.2076 30.787 94.5083 30.787 93.8089C30.787 92.2753 30.361 90.7049 30.2515 89.1713C30.1176 87.4291 30.1297 85.6869 30.1054 83.9447C30.1054 80.1535 30.7749 76.4851 30.8114 72.7063C30.8479 68.9274 24.7246 68.7434 24.7246 72.7063L24.7002 72.6571Z" fill="#004D2B"/>
<path d="M140.424 52.1309C140.424 52.1309 135.871 52.5726 133.582 52.5603C130.126 52.6682 126.707 53.3053 123.441 54.4498C115.163 56.9036 106.276 61.8111 100.53 68.4978C94.6017 75.3561 92.3861 85.7357 92.3253 94.6553C92.2522 106.115 99.4225 116.151 108.151 122.727C111.649 125.518 115.528 127.786 119.667 129.463C124.013 131.082 128.432 132.088 132.925 133.278C134.69 133.744 136.443 134.505 138.232 134.873C140.533 135.115 142.851 135.16 145.159 135.008C149.557 135.118 153.911 134.11 157.82 132.076C167.133 127.168 171.491 116.875 173.646 107.121C174.863 101.759 176.324 96.1399 176.251 90.6311C176.251 88.5699 176.251 86.5087 176.251 84.4966C176.237 82.1644 176.001 79.8389 175.545 77.5523C174.879 74.2 173.586 71.0063 171.734 68.142C170.789 66.2143 169.53 64.46 168.009 62.9522C166.427 61.664 164.26 61.21 162.482 60.2407C160.23 59.0138 158.307 57.3575 156.164 56.0448C155.326 55.5767 154.423 55.2375 153.486 55.0387C152.344 54.5735 151.23 54.0409 150.15 53.4437C148.347 52.8104 146.488 52.3503 144.599 52.0696C143.382 51.8488 143.053 52.0696 140.472 52.18" fill="#FFF34A"/>
<path d="M140.424 49.0639C137.246 49.3706 134.02 49.2847 130.855 49.6527C126.01 50.3034 121.28 51.6417 116.807 53.6279C108.382 57.1859 100.007 62.6702 95.1982 70.7186C92.9321 74.6877 91.3475 79.0142 90.5114 83.5153C89.5331 87.9418 89.1725 92.4842 89.4401 97.0112C90.1948 106.164 94.8695 114.396 101.297 120.739C104.726 124.085 108.548 126.994 112.68 129.401C117.238 131.89 122.112 133.74 127.166 134.898C132.267 136.235 137.222 138.235 142.554 138.1C147.582 137.977 152.403 137.757 157.162 135.769C165.55 132.223 170.906 124.935 174.133 116.593C175.595 112.482 176.747 108.266 177.578 103.98C178.186 101.256 178.722 98.5203 179.075 95.7475C179.341 93.1022 179.442 90.4429 179.379 87.7849C179.379 82.73 179.306 77.4789 177.48 72.6817C176.598 70.4845 175.548 68.3597 174.34 66.3264C173.332 64.2956 172.004 62.4433 170.407 60.8421C168.594 59.2471 166.402 58.695 164.321 57.6153C162.239 56.5357 160.169 54.769 158.027 53.4439C157.032 52.8674 155.969 52.4221 154.862 52.1188C153.943 51.7881 153.055 51.3776 152.208 50.8919C150.071 49.9519 147.813 49.3239 145.5 49.027C143.881 48.8595 142.249 48.8595 140.631 49.027C136.735 49.1742 136.711 55.3088 140.631 55.1615C141.446 55.1615 142.262 55.0634 143.065 55.002H143.784C143.897 54.9957 144.011 54.9957 144.124 55.002C143.479 54.8793 144.538 55.002 144.124 55.002C146.07 55.2184 147.971 55.7356 149.761 56.5357C150.656 57.0521 151.592 57.4913 152.561 57.8484C153.482 58.0907 154.37 58.4493 155.202 58.9158C157.187 60.1427 158.988 61.7255 161.07 62.8297C162.714 63.713 164.795 64.0566 166.256 65.2835C167.552 66.6115 168.603 68.1611 169.361 69.8599C171.523 73.4552 172.842 77.5002 173.219 81.6871C173.414 83.9937 173.329 86.3249 173.329 88.6437C173.4 91.0326 173.295 93.4235 173.013 95.7965C172.32 100.348 171.361 104.855 170.14 109.292C168.326 116.102 165.27 123.132 159.536 127.512C156.342 129.926 152.553 131.411 148.58 131.806C146.279 132.027 143.93 132.027 141.629 132.039C139.453 131.96 137.306 131.516 135.274 130.726C130.648 129.205 125.827 128.371 121.238 126.714C117.073 125.073 113.188 122.788 109.722 119.942C103.732 115.317 98.5946 108.986 96.5251 101.538C94.4556 94.0912 95.7582 85.466 98.4365 78.3868C101.334 70.7064 107.53 65.3694 114.542 61.5414C118.201 59.5721 122.063 58.0128 126.059 56.8915C128.132 56.2573 130.266 55.846 132.426 55.6646C134.179 55.5664 135.944 55.5665 137.709 55.4438L140.643 55.1984C141.443 55.1767 142.205 54.8465 142.771 54.2759C143.337 53.7054 143.665 52.9378 143.686 52.1311C143.683 51.3186 143.361 50.5403 142.791 49.9658C142.221 49.3912 141.449 49.0671 140.643 49.0639H140.424Z" fill="#004D2B"/>
<path d="M117.793 80.5706H118.487C118.91 80.5959 119.331 80.5025 119.704 80.3007C120.075 80.1691 120.412 79.9552 120.69 79.6749C120.968 79.3946 121.181 79.0551 121.311 78.6812C121.511 78.3051 121.604 77.8803 121.579 77.4543L121.469 76.6322C121.33 76.1221 121.061 75.6572 120.69 75.2826L120.069 74.8041C119.605 74.5267 119.075 74.3825 118.536 74.387H117.842C117.42 74.3652 117.001 74.454 116.624 74.6446C116.082 74.8896 115.62 75.2827 115.288 75.7793C114.957 76.2759 114.77 76.8562 114.75 77.4543L114.859 78.264C115.003 78.7786 115.275 79.2475 115.65 79.6258L116.259 80.1044C116.725 80.3762 117.254 80.5201 117.793 80.5215V80.5706Z" fill="#004D2B"/>
<path d="M153.547 84.0305C157.467 84.0305 157.467 77.896 153.547 77.896C149.627 77.896 149.627 84.0305 153.547 84.0305Z" fill="#004D2B"/>
<path d="M137.051 86.8035C140.959 86.8035 140.971 80.6689 137.051 80.6689C133.132 80.6689 133.119 86.8035 137.051 86.8035Z" fill="#004D2B"/>
<path d="M123.794 91.932C123.534 93.2604 123.763 94.639 124.44 95.8089C125.098 96.7888 125.947 97.6236 126.935 98.2628C128.367 99.2564 129.962 99.9875 131.646 100.422C135.639 101.49 140.801 101.183 144.015 98.3241C144.581 97.7476 144.898 96.9695 144.898 96.1587C144.898 95.3478 144.581 94.5697 144.015 93.9932C143.436 93.4309 142.664 93.1167 141.86 93.1167C141.056 93.1167 140.284 93.4309 139.705 93.9932C139.255 94.3858 140.314 93.6374 139.778 93.9932L139.316 94.263C139.218 94.263 138.707 94.5698 139.17 94.3489C139.632 94.1281 138.999 94.3489 138.902 94.4225C138.552 94.541 138.194 94.6353 137.831 94.7048C137.721 94.7048 137.283 94.8642 137.222 94.8152C137.161 94.7661 137.928 94.7293 137.307 94.8152C136.497 94.879 135.683 94.879 134.872 94.8152C134.556 94.8152 134.215 94.7171 133.899 94.7171C134.739 94.7171 134.252 94.7171 133.996 94.7171L133.485 94.6066C132.959 94.4785 132.442 94.3145 131.939 94.1158C131.646 94.0054 131.464 93.7723 132.036 94.1158C131.904 94.0381 131.766 93.9724 131.622 93.9195C131.318 93.7723 131.013 93.6251 130.721 93.4533C130.438 93.222 130.132 93.0206 129.808 92.8521C130.003 92.9135 130.319 93.2938 129.954 92.938L129.65 92.6558C129.151 92.1282 129.759 92.7417 129.723 92.7785C129.643 92.6519 129.57 92.5208 129.504 92.3859C129.613 92.3859 129.759 93.2324 129.626 92.5822L129.699 93.1097C129.699 92.7908 129.699 92.9257 129.626 93.5024C129.805 92.7003 129.692 91.8602 129.309 91.1345C128.907 90.4465 128.257 89.9413 127.495 89.7236C126.059 89.3923 123.989 90.1652 123.746 91.8706L123.794 91.932Z" fill="#004D2B"/>
<path d="M95.9774 112.605C93.6888 113.832 91.5706 115.329 89.3184 116.605C84.573 118.694 79.2781 119.155 74.2474 117.918C71.8498 117.585 69.4948 116.992 67.2231 116.151C65.2023 115.218 62.792 114.396 61.2094 112.752C59.6268 111.108 58.6285 108.495 57.6546 106.348C56.6229 104.167 56.0233 101.804 55.8895 99.3915C55.8043 97.1708 55.7434 94.8642 53.8808 93.3551C52.0182 91.846 48.646 92.1282 46.4913 93.2815C45.4122 93.8757 44.4995 94.7349 43.8376 95.7794C43.1758 96.8239 42.7863 98.0199 42.7053 99.2565C42.4496 103.17 45.773 106.139 49.3764 106.802C53.479 107.55 57.8981 105.661 59.0181 101.318C60.3572 96.1279 55.6338 91.6497 50.7035 94.2139C48.5487 95.3304 46.8322 97.7597 47.514 100.275C47.7216 101.2 48.2756 102.008 49.0603 102.532C49.8451 103.055 50.8 103.253 51.726 103.084C52.9835 102.911 54.1284 102.262 54.9277 101.269C55.2694 100.789 55.5047 100.242 55.6177 99.6627C55.7306 99.0837 55.7185 98.487 55.5822 97.9131C55.4459 97.3393 55.1887 96.8017 54.8278 96.337C54.467 95.8723 54.0111 95.4913 53.4911 95.22C52.9103 94.8877 52.2539 94.713 51.586 94.713C50.9181 94.713 50.2616 94.8877 49.6808 95.22C49.0909 95.6323 48.6089 96.1825 48.276 96.8235C47.9432 97.4645 47.7694 98.1772 47.7696 98.9007C47.7759 99.7122 48.0986 100.489 48.668 101.062C49.2374 101.636 50.0078 101.962 50.813 101.968C51.6153 101.952 52.3803 101.624 52.9477 101.052C53.5151 100.48 53.8408 99.7093 53.8564 98.9007C53.6738 100.692 50.8861 101.551 49.9487 99.9804L49.6686 98.913L50.6791 97.0603C50.9469 96.9745 50.9347 96.9745 50.6791 97.0603C50.4845 97.12 50.2848 97.1611 50.0826 97.183L53.0529 97.9682C53.5277 98.4467 53.333 99.1951 53.2599 99.8086C52.8217 99.8086 53.2599 100.128 53.2599 99.8086C52.8825 99.8086 53.5642 99.6368 53.686 99.5632C53.406 99.7472 53.686 99.4282 53.8442 99.5632C53.7468 99.4896 53.2599 99.3914 53.0773 99.2688C52.8947 99.1461 53.2721 99.2688 53.0773 99.4283C53.0773 99.1461 53.0773 99.1952 53.0773 99.5878C53.1422 99.326 53.1422 99.3874 53.0773 99.7718C53.0105 100.015 52.899 100.244 52.7486 100.447C52.2373 100.717 52.919 100.213 52.7486 100.447C52.5903 100.52 52.4442 100.655 52.2738 100.729C51.4581 101.097 52.8338 100.582 51.9694 100.839L51.4095 100.962C52.1156 100.851 50.0825 100.815 50.7399 100.962C50.5451 100.962 49.3764 100.557 49.839 100.753C49.6443 100.667 48.6217 100.017 49.0721 100.336C48.8408 100.177 48.4877 99.9436 48.6095 99.735C48.7556 100.52 48.7312 99.5264 48.6095 99.735C48.719 100.459 48.6095 99.6491 48.6095 99.4896C48.4877 99.919 48.8165 98.9988 48.9504 98.8884C49.2176 98.7176 49.5153 98.6009 49.8268 98.5449C49.9486 98.5449 50.3138 98.5449 50.4721 98.4835H50.6791C50.455 98.4726 50.2372 98.405 50.0457 98.2871C49.8543 98.1692 49.6953 98.0047 49.5834 97.8087C49.2669 97.4652 49.6686 97.7229 49.5834 97.9069C49.7173 97.6247 49.5834 98.5204 49.5834 98.778C49.6775 102.262 50.4641 105.691 51.8965 108.863C53.2234 111.857 54.5868 115.206 57.0216 117.451C59.4563 119.697 62.9502 121.218 66.0545 122.42C67.4636 122.886 68.9092 123.231 70.3761 123.451C72.2873 123.831 74.1744 124.31 76.0978 124.592C80.3888 125.088 84.7353 124.67 88.8558 123.365C92.5079 122.285 95.4905 119.684 98.8504 117.905C102.21 116.126 99.2521 110.802 95.7704 112.605H95.9774Z" fill="#004D2B"/>
<path d="M125.815 54.2783C126.18 52.0331 125.219 50.3399 123.892 48.6345C122.674 47.15 121.53 45.7022 120.374 44.2054C117.144 40.0311 113.368 36.3166 109.15 33.1633C107.27 31.8168 105.224 30.7238 103.063 29.9121C102.014 29.4396 100.915 29.0897 99.7879 28.8691C98.7073 28.7744 97.6339 28.6106 96.574 28.3784C91.388 26.8816 86.409 28.3784 81.4543 29.9488C78.8991 30.9523 76.4139 32.1288 74.0161 33.47C71.7274 34.562 69.7919 35.7275 69.585 38.5494C69.5913 39.3609 69.9139 40.1373 70.4833 40.7112C71.0527 41.285 71.8232 41.6103 72.6284 41.6167C73.4307 41.601 74.1957 41.2728 74.7631 40.7009C75.3305 40.1291 75.6562 39.358 75.6718 38.5494C75.5866 39.7763 74.6491 39.9481 75.7326 39.3837C76.1343 39.1751 76.5482 39.0156 76.95 38.8316C77.863 38.4022 78.703 37.8378 79.5795 37.3471C81.9572 36.1979 84.4455 35.2975 87.0055 34.6602C89.2716 33.8474 91.7064 33.632 94.0785 34.0344C96.4155 34.3768 98.7201 34.9144 100.969 35.6417C105.487 37.653 109.505 40.6539 112.729 44.4263C114.603 46.512 116.235 48.8186 117.963 51.0147C118.365 51.5177 118.791 51.9963 119.181 52.487C119.37 52.7225 119.541 52.9727 119.692 53.2354C120.215 54.082 119.765 53.7017 119.935 52.6834C119.745 53.4667 119.86 54.2936 120.256 54.9942C120.652 55.6948 121.3 56.2158 122.066 56.45C122.844 56.6617 123.673 56.5565 124.375 56.157C125.076 55.7576 125.594 55.0959 125.815 54.3151V54.2783Z" fill="#004D2B"/>
<path d="M116.819 132.236C116.872 132.863 116.839 133.495 116.721 134.113C116.941 133.315 116.721 134.113 116.721 134.346C116.721 134.579 116.612 134.886 116.563 135.143C116.295 136.309 115.954 137.45 115.614 138.591C114.776 141.009 114.273 143.531 114.116 146.087C114.119 146.9 114.441 147.678 115.011 148.253C115.581 148.827 116.353 149.152 117.16 149.155C117.962 149.139 118.727 148.811 119.294 148.239C119.862 147.667 120.187 146.896 120.203 146.087C120.203 145.781 120.203 145.462 120.203 145.155C120.203 144.848 120.203 144.848 120.203 144.689C120.203 145.118 120.203 145.155 120.203 144.811C120.3 144.272 120.398 143.732 120.532 143.192C120.812 142.039 121.177 140.898 121.518 139.757C122.345 137.334 122.796 134.797 122.857 132.236C122.857 131.422 122.536 130.642 121.966 130.067C121.395 129.492 120.621 129.168 119.813 129.168C119.006 129.168 118.232 129.492 117.661 130.067C117.091 130.642 116.77 131.422 116.77 132.236H116.819Z" fill="#004D2B"/>
<path d="M73.2978 46.4384C73.7965 46.4394 74.2894 46.33 74.7416 46.118C75.1938 45.906 75.5945 45.5966 75.9151 45.2115C76.3004 44.7065 76.528 44.0975 76.5691 43.4619C76.6103 42.8262 76.4632 42.1925 76.1464 41.6413C75.8274 41.1294 75.4142 40.6838 74.929 40.3285C74.169 39.6106 73.2753 39.0518 72.2996 38.6844C71.0843 38.3148 69.7739 38.4381 68.6475 39.028C68.106 39.3541 67.6373 39.7894 67.2706 40.3066C66.904 40.8239 66.6475 41.412 66.5171 42.0339C66.2323 43.1427 66.1579 44.2957 66.2979 45.4324C66.4 46.2744 66.7129 47.0764 67.2069 47.7631C67.7009 48.4499 68.36 48.9988 69.1223 49.3585C70.612 50.0478 72.2885 50.212 73.8821 49.8247C74.7038 49.6372 75.4749 49.2711 76.1415 48.7518C76.808 48.2326 77.3541 47.5729 77.7412 46.8188C78.1052 46.0995 78.3049 45.3071 78.3255 44.4999C78.3082 43.6448 78.0958 42.8052 77.7046 42.0461C77.2936 41.2333 76.7458 40.4986 76.0856 39.8745C75.426 39.2118 74.6709 38.6534 73.8457 38.2182C72.6131 37.604 71.2146 37.4144 69.8648 37.6783C68.9534 37.8444 68.0914 38.2178 67.3448 38.7703C66.3608 39.3937 65.5286 40.2324 64.9101 41.2241C64.2978 42.4446 64.1339 43.8442 64.4474 45.1748C64.7144 46.2696 65.2455 47.281 65.9935 48.1193C67.1379 49.4311 68.7009 50.299 70.4126 50.5731C71.5306 50.7877 72.6789 50.7877 73.7969 50.5731C74.6736 50.4133 75.5047 50.0615 76.2317 49.5425C77.3428 48.7711 78.1926 47.6749 78.6664 46.4017C78.9707 45.2563 78.9707 44.0503 78.6664 42.905C78.4604 41.8142 77.9781 40.7957 77.2664 39.9482C76.2026 38.7535 74.8406 37.868 73.3221 37.3839C72.3411 37.0762 71.2999 37.0172 70.2909 37.2121C69.2735 37.4832 68.3511 38.0342 67.6266 38.8033C66.902 39.5725 66.4041 40.5296 66.1884 41.5677C65.8435 42.6305 65.7744 43.7646 65.9874 44.8621C66.2005 45.9595 66.6888 46.9837 67.4057 47.8371C68.0088 48.4536 68.794 48.8563 69.6436 48.9846C70.4931 49.1129 71.361 48.96 72.1169 48.5488C72.7009 48.2362 73.217 47.8093 73.6351 47.2932C74.0532 46.777 74.3648 46.182 74.5517 45.5428C74.8231 44.4936 74.8294 43.3926 74.57 42.3403C74.3105 41.288 73.7937 40.3179 73.0665 39.5187C72.4457 38.9042 71.6441 38.5088 70.7817 38.3916C69.9193 38.2744 69.0424 38.4417 68.2822 38.8685C67.4437 39.3556 66.776 40.0929 66.371 40.9787C66.076 41.6628 65.8199 42.3633 65.604 43.0767C65.3944 43.8624 65.5004 44.6997 65.8992 45.4071C66.298 46.1144 66.9574 46.6349 67.7344 46.8556C68.5118 47.0504 69.3337 46.936 70.0296 46.5362C70.7255 46.1364 71.2419 45.4819 71.4717 44.7085C71.6056 44.2791 71.7273 43.8497 71.8978 43.4816L71.5934 44.2178C71.6869 43.9885 71.8053 43.7705 71.9465 43.5675L71.4717 44.181C71.5595 44.0699 71.6573 43.9672 71.7639 43.8743L71.143 44.3527C71.236 44.2883 71.3337 44.2309 71.4351 44.181L70.7048 44.4999C70.7822 44.4642 70.8642 44.4394 70.9483 44.4263L70.1448 44.5368H70.3639L69.5605 44.4386C69.6564 44.4518 69.7504 44.4765 69.8405 44.5122L69.1101 44.2055C69.167 44.2309 69.2202 44.2639 69.2683 44.3036L68.6475 43.8251C68.7253 43.8851 68.7948 43.9552 68.8543 44.0337L68.3795 43.408C68.5414 43.6325 68.6763 43.8754 68.7814 44.1319L68.477 43.3958C68.6127 43.7262 68.7067 44.0723 68.757 44.4263L68.6475 43.6166C68.6778 43.8651 68.6778 44.1164 68.6475 44.365L68.757 43.5553C68.7229 43.7642 68.6699 43.9695 68.5987 44.1687L68.9031 43.4325C68.8331 43.5984 68.7432 43.755 68.6353 43.8987L69.1101 43.273C69.0131 43.3954 68.9028 43.5065 68.7814 43.6043L69.4022 43.1258C69.3081 43.1986 69.206 43.2604 69.0979 43.3099L69.8283 43.0031L69.5361 43.089L70.3396 42.9786H70.157L70.9725 43.089C70.9118 43.0948 70.8508 43.0948 70.7901 43.089L71.5204 43.3958L71.2769 43.2608L71.8978 43.7392C71.7926 43.6579 71.6985 43.563 71.6178 43.4571L72.1048 44.0828C72.0229 43.9657 71.9496 43.8427 71.8856 43.7148L72.1899 44.4386C72.0938 44.1984 72.0284 43.947 71.9952 43.6902L72.1048 44.5122C72.0499 44.0558 72.0499 43.5945 72.1048 43.1381L71.9952 43.9479C72.0651 43.5278 72.1793 43.1165 72.336 42.721L72.0316 43.4448C72.1533 43.1675 72.3043 42.9042 72.4821 42.6596L71.9952 43.2853C72.1183 43.1206 72.2614 42.9722 72.4213 42.8436L71.8126 43.3221C71.9281 43.2287 72.0548 43.1503 72.1899 43.089L71.4717 43.3958C71.6358 43.3266 71.8075 43.2772 71.9831 43.2485L71.1674 43.3589C71.4139 43.3281 71.6634 43.3281 71.9099 43.3589L71.1066 43.2485C71.4662 43.3033 71.8178 43.4021 72.1535 43.543L71.4351 43.2362C71.9075 43.4425 72.3533 43.7062 72.7622 44.0215L72.1413 43.543C72.483 43.7955 72.7901 44.0925 73.0543 44.4263L72.5796 43.8129C72.6995 43.9728 72.8016 44.1457 72.8839 44.3282L72.5796 43.592C72.7657 44.1158 72.8922 44.6591 72.9569 45.2115L72.8473 44.4018C72.8778 44.6627 72.8778 44.9261 72.8473 45.187L72.9569 44.3773C72.9294 44.5491 72.8845 44.7176 72.823 44.8803L73.1395 44.1441C73.0361 44.3798 72.9054 44.6021 72.75 44.8066L73.2248 44.181C73.0375 44.4241 72.8207 44.6425 72.5796 44.8312L73.2004 44.3527C72.9535 44.532 72.6882 44.6842 72.4091 44.8066L73.1395 44.4999C72.8243 44.6365 72.4929 44.7315 72.1535 44.7822L72.969 44.6717C72.5652 44.7285 72.1555 44.7285 71.7517 44.6717L72.5552 44.7822C71.9285 44.7029 71.3147 44.542 70.7291 44.3036L71.4595 44.6104C71.1302 44.4619 70.8162 44.2811 70.5221 44.0705L71.143 44.549C70.8829 44.334 70.6426 44.0958 70.4248 43.8374L70.8996 44.4509C70.68 44.1681 70.4959 43.859 70.3517 43.5307L70.6682 44.2668C70.5463 43.9759 70.4604 43.671 70.4126 43.3589L70.5221 44.181C70.4977 43.9485 70.4977 43.7141 70.5221 43.4816L70.4126 44.3036C70.4368 44.1139 70.4859 43.9282 70.5587 43.7515L70.2543 44.4754C70.3277 44.2947 70.4261 44.1253 70.5465 43.9724L70.0717 44.5858C70.3487 44.2676 70.6543 43.9761 70.9847 43.7148L70.3639 44.1932C70.6862 43.939 71.0378 43.7248 71.4109 43.5553L70.6804 43.862C70.969 43.7391 71.2716 43.6525 71.5812 43.6043L70.7657 43.7148C71.0367 43.6841 71.3102 43.6841 71.5812 43.7148L70.7779 43.6043C71.018 43.651 71.254 43.7167 71.4839 43.8007L70.7535 43.4939C71.1914 43.686 71.601 43.9378 71.9709 44.2423L71.3622 43.7638C71.7724 44.0831 72.1442 44.4496 72.47 44.8558L71.9952 44.23C72.2514 44.5589 72.4679 44.9172 72.6403 45.2974L72.324 44.5613C72.3855 44.724 72.4303 44.8925 72.4578 45.0643L72.3482 44.2546C72.3726 44.4131 72.3726 44.5745 72.3482 44.733L72.4578 43.911C72.436 44.0708 72.395 44.2273 72.336 44.3773L72.6403 43.6534C72.53 43.8879 72.3954 44.11 72.2387 44.3159L72.7134 43.6902C72.6038 43.8396 72.4771 43.9755 72.336 44.0951L72.9447 43.6166C72.7361 43.7779 72.5068 43.91 72.263 44.0092L72.9812 43.7025C72.6674 43.8256 72.3408 43.912 72.0074 43.9601L72.8108 43.8497C72.439 43.8988 72.0626 43.8988 71.6909 43.8497L72.5064 43.9601C72.1989 43.9144 71.897 43.8362 71.6056 43.727L72.324 44.0337C72.1 43.9351 71.8877 43.8117 71.6909 43.6656L72.3118 44.1441C72.1823 44.0381 72.064 43.9188 71.9587 43.7884L72.4335 44.4141C72.3367 44.274 72.2511 44.1262 72.1777 43.9724L72.4821 44.7085C72.419 44.538 72.3741 44.3611 72.3482 44.181L72.4578 44.9907C72.4033 44.5056 72.4033 44.0158 72.4578 43.5307L72.3482 44.3527C72.3978 43.9348 72.4918 43.5235 72.6283 43.1258L72.324 43.862C72.3816 43.7434 72.4465 43.6287 72.5186 43.5184L72.0438 44.1441C72.1155 44.0496 72.1972 43.9632 72.2874 43.8865L71.6787 44.365L71.8978 44.2423L71.1674 44.549L71.5204 44.4632L70.7048 44.5735C70.9028 44.5489 71.1032 44.5489 71.3013 44.5735L70.4979 44.4632C70.6564 44.4852 70.8116 44.5264 70.9604 44.5858L70.23 44.2791C70.5112 44.4 70.7736 44.5612 71.0091 44.7576L70.4004 44.2791C70.7689 44.5485 71.1113 44.8525 71.423 45.187L70.9483 44.5735C70.9834 44.6092 71.0122 44.6508 71.0335 44.6963L70.7169 43.9724C70.7222 43.9966 70.7222 44.0217 70.7169 44.046L70.6074 43.224L70.7169 42.4142L71.4961 41.0646L72.1169 40.5861L72.8473 40.2794H72.75L73.5534 40.169H73.4804C72.6802 40.1871 71.9158 40.5067 71.3378 41.0646C70.7696 41.6434 70.4466 42.4221 70.437 43.2362C70.4402 44.0487 70.7618 44.827 71.3319 45.4015C71.9019 45.976 72.6742 46.3003 73.4804 46.3035L73.2978 46.4384Z" fill="#004D2B"/>
<path d="M156.615 132.346C156.578 133.602 156.861 134.846 157.436 135.961C158.012 137.076 158.86 138.023 159.902 138.714C160.208 138.871 160.526 139.007 160.851 139.118C161.424 139.364 160.742 139.118 160.754 139.118C160.766 139.118 161.971 139.818 161.971 139.891C162.927 140.524 163.98 140.992 165.088 141.278C166.286 141.549 167.512 141.677 168.74 141.658C169.957 141.658 171.175 141.781 172.307 141.732C173.742 141.701 175.155 141.371 176.458 140.763C177.408 140.321 178.296 139.732 179.246 139.29C179.591 139.087 179.894 138.818 180.136 138.497C180.378 138.176 180.555 137.811 180.656 137.421C180.758 137.031 180.783 136.625 180.729 136.226C180.675 135.827 180.543 135.442 180.342 135.094C179.918 134.41 179.25 133.916 178.476 133.713C177.701 133.51 176.879 133.613 176.178 134.002C175.387 134.358 174.656 134.824 173.889 135.229C173.725 135.323 173.554 135.405 173.378 135.475C173.524 135.413 173.682 135.352 173.378 135.475C173.378 135.475 172.611 135.622 172.915 135.585C173.22 135.548 172.587 135.585 172.538 135.585C171.552 135.585 170.578 135.585 169.604 135.585H168.156H167.547C166.963 135.585 167.717 135.671 167.389 135.585C167.06 135.499 166.61 135.352 166.244 135.291C165.879 135.229 166.597 135.511 166.123 135.291L165.697 135.045C165.015 134.653 164.394 134.174 163.688 133.818L162.787 133.426C162.276 133.217 163.286 133.671 162.97 133.512C162.641 133.229 162.653 133.352 162.97 133.512C163.079 133.61 163.408 134.064 163.323 133.831C163.238 133.597 162.933 133.094 162.763 132.739C162.592 132.383 162.884 132.959 162.763 132.616C162.763 132.456 162.641 132.272 162.763 132.616C162.763 132.775 162.763 132.8 162.763 132.444C162.753 131.634 162.429 130.859 161.861 130.286C161.292 129.713 160.523 129.387 159.719 129.377C158.918 129.396 158.155 129.725 157.588 130.296C157.021 130.867 156.694 131.637 156.676 132.444L156.615 132.346Z" fill="#004D2B"/>
</g>
<defs>
<clipPath id="clip0_195_1765">
<rect width="208" height="164" fill="white"/>
</clipPath>
</defs>
</svg>
