<svg width="232" height="219" viewBox="0 0 232 219" fill="none" xmlns="http://www.w3.org/2000/svg">
<g clip-path="url(#clip0_195_1636)">
<path d="M124.71 11.2863C120.87 12.4136 117.03 13.2335 113.588 15.2576C111.162 16.4729 108.882 17.9599 106.792 19.6901C103.361 22.9313 101.045 27.1204 98.1781 30.8355C95.7861 33.6308 93.6447 36.6316 91.7788 39.803C89.789 43.191 88.1753 46.7865 86.9665 50.5256C86.4418 52.601 86.5698 54.5098 85.7891 56.7132C85.1784 58.742 84.7501 60.8214 84.5092 62.9265C83.808 66.0933 83.3163 69.3029 83.0373 72.5345C82.7598 78.4034 83.4341 84.2785 85.0339 89.9316C86.9025 96.3369 88.2591 102.627 91.6379 108.379C94.5048 113.247 96.847 118.628 100.751 122.804C103.181 125.691 105.953 128.272 109.006 130.49C113.351 133.31 118.006 135.618 122.879 137.37C125.631 138.318 129.112 138.279 132.005 138.651C135.129 138.917 138.265 139.011 141.399 138.933C142.812 139.114 144.24 139.149 145.661 139.035C147.478 138.753 149.027 137.818 150.921 137.754C153.566 137.559 156.181 137.065 158.715 136.281C162.49 135.318 166.122 133.862 169.517 131.951C175.098 128.582 181.983 123.778 185.772 118.397C187.609 116.09 189.233 113.62 190.622 111.018C191.923 107.721 193.055 104.361 194.014 100.949C196.279 94.2616 195.729 86.5495 195.908 79.5292C195.985 76.3906 195.55 73.3416 195.716 70.1774C195.916 67.9778 195.694 65.7602 195.063 63.6439C194.398 61.131 194.004 58.5542 193.886 55.9574C193.476 51.9348 192.491 47.9122 192.171 43.8897C191.422 36.9439 188.558 30.3964 183.967 25.1347C181.638 22.4316 180.255 19.4467 177.427 17.1792C174.304 14.6171 171.143 11.6322 167.534 9.90271C163.009 7.99309 158.392 6.31275 153.698 4.86808C150.218 3.46572 146.455 2.9082 142.717 3.24112C139.019 3.69354 135.401 4.65488 131.966 6.09791C129.803 7.04591 127.922 9.46714 125.657 9.94114L126.271 9.73617" fill="#F3BC61"/>
<path d="M123.852 8.1989C117.248 10.0949 110.772 12.2471 105.383 16.6796C102.876 18.9329 100.689 21.5191 98.8817 24.3661C97.0899 26.9282 95.2597 29.4007 93.3399 31.8732C89.1696 37.0251 86.0084 42.9188 84.0226 49.2446C83.5618 50.8587 83.4978 52.5241 83.1778 54.1639C82.8579 55.8037 82.1796 57.5203 81.898 59.2882C81.3093 62.9137 80.5158 66.5263 80.0806 70.1646C79.3729 77.4991 80.1255 84.9014 82.2947 91.9429C84.2145 98.6685 86.1343 105.087 89.59 111.159C91.177 113.952 92.6233 116.834 94.3511 119.55C96.231 122.369 98.3737 125.002 100.75 127.416C105.645 132.39 111.521 136.29 118.003 138.869C121.251 140.3 124.708 141.195 128.242 141.521C131.543 141.903 134.863 142.112 138.186 142.148C141.616 142.148 145.046 142.763 148.425 141.687C151.535 140.688 154.824 140.611 157.947 139.804C164.357 138.192 170.426 135.441 175.865 131.682C178.62 129.837 181.234 127.79 183.685 125.558C185.978 123.313 188.052 120.855 189.88 118.218C191.933 115.524 193.576 112.541 194.756 109.366C195.963 106.088 196.993 102.748 197.84 99.3603C199.44 92.7115 199.12 85.6656 199.12 78.8631C199.12 76.9927 198.979 75.1351 198.928 73.2776C198.877 71.42 199.018 69.6906 198.928 67.8971C198.839 64.5663 197.648 61.4917 197.277 58.1993C196.919 54.5098 196.33 50.8972 195.754 47.2461C195.435 43.9817 194.922 40.7391 194.218 37.5355C193.295 34.3241 191.952 31.2486 190.225 28.3887C188.702 25.7881 186.629 23.5462 184.863 21.0609C183.057 18.4109 180.905 16.0153 178.463 13.9381C176.004 11.6946 173.363 9.65926 170.567 7.85301C167.427 6.1769 164.125 4.82481 160.712 3.81762C157.448 2.72871 154.146 1.44763 150.806 0.678988C144.406 -0.819871 137.764 0.333091 131.787 2.75433C130.442 3.283 129.176 3.99425 128.024 4.8681C127.093 5.73976 126.014 6.4382 124.837 6.93064L126.539 13.1182L127.141 12.9133C131.045 11.6322 129.368 5.4574 125.439 6.73847L124.837 6.93064C120.998 8.21171 122.546 14.2584 126.539 13.1182C129.317 12.3112 131.045 10.0437 133.604 8.87788C136.121 7.82596 138.755 7.08183 141.45 6.66161C147.606 5.55989 153.276 8.13485 159.009 10.0437C161.977 10.9098 164.843 12.0908 167.559 13.5666C169.956 15.1401 172.232 16.8915 174.368 18.8062C176.484 20.6626 178.351 22.7855 179.922 25.1219C181.757 27.3613 183.466 29.7007 185.042 32.1294C186.494 34.6041 187.597 37.2685 188.318 40.0465C189.112 43.1723 189.227 46.4518 189.752 49.5905C190.276 52.7291 190.673 55.9959 191.032 59.301C191.377 62.2988 192.542 65.194 192.593 68.2686C192.695 74.8789 192.785 81.5149 192.593 88.1253C192.598 91.174 192.307 94.216 191.723 97.2081C191.032 100.283 189.956 103.357 188.984 106.368C186.994 111.947 183.662 116.949 179.282 120.934C175.047 124.95 170.211 128.278 164.948 130.798C162.189 131.992 159.333 132.948 156.411 133.655C153.442 134.423 150.306 134.398 147.452 135.346C146.231 135.826 144.925 136.053 143.613 136.012C141.923 135.909 140.26 135.82 138.493 135.833C135.319 135.833 132.248 135.551 129.086 135.282C122.687 134.731 117.017 131.784 111.642 128.441C109.203 126.855 106.987 124.951 105.051 122.778C103.006 120.686 101.175 118.394 99.5856 115.937C97.9346 113.286 96.5268 110.493 94.9782 107.777C93.4278 105.126 92.1418 102.328 91.1386 99.4243C90.0891 96.3241 89.2828 93.1471 88.3741 89.9956C87.447 86.8971 86.8086 83.7193 86.4671 80.5029C86.1087 77.1646 86.1087 73.7975 86.4671 70.4592C86.8639 67.2181 87.5934 63.977 88.1437 60.7487C88.4125 59.1986 88.9757 57.7381 89.3084 56.2008C89.6412 54.6635 89.6923 53.0366 90.0763 51.4865C90.9191 48.6433 92.1008 45.912 93.5959 43.3516C96.4372 37.9839 100.366 33.513 103.835 28.5424C105.432 26.0074 107.346 23.6869 109.53 21.6374C111.811 19.8268 114.32 18.3236 116.992 17.1664C119.787 16.0366 122.667 15.1285 125.605 14.4506C129.56 13.3104 127.883 7.13561 123.903 8.26296L123.852 8.1989Z" fill="#004D2B"/>
<path d="M29.9999 71.1893C17.0477 77.3641 8.95901 90.8794 5.19623 104.497C2.60749 113.761 2.38305 123.526 4.54349 132.899C5.80404 138.111 7.60565 143.178 9.91891 148.015C12.3506 153.012 14.296 158.623 17.4189 163.222C23.3594 171.582 31.2154 178.396 40.3284 183.091C43.8306 184.87 47.4788 186.344 51.2328 187.498C57.0561 189.356 62.6491 188.497 68.4596 189.714C74.8589 191.072 81.3479 190.253 87.7856 189.01C91.1388 188.357 93.9673 186.973 97.2053 186.076C100.443 185.179 103.605 184.334 106.689 183.36C111.439 181.931 115.79 179.413 119.398 176.007C123.238 172.164 128.357 169.602 131.531 164.874C134.853 159.723 136.821 153.815 137.252 147.699C137.684 141.583 136.566 135.456 134.001 129.888C131.659 125.046 130.43 120.101 128.114 115.297C126.309 111.543 124.786 106.419 122.342 103.088C121.256 101.769 120.244 100.392 119.308 98.963C118.513 97.9602 117.658 97.0062 116.749 96.1062C116.16 95.3504 115.891 94.2486 115.315 93.4288C113.796 91.543 112.08 89.8251 110.196 88.3045C107.879 86.2035 105.32 84.8968 103.041 82.8599C100.48 80.865 97.6431 79.2513 94.62 78.0686C91.3179 76.5185 88.5534 73.982 85.2642 72.5216C82.3973 71.2405 79.2233 70.6384 76.3052 69.4342C72.4656 67.8329 68.2293 65.8472 63.929 65.591C60.8445 65.3604 57.632 66.0137 54.5348 65.9625C51.2849 65.7446 48.0213 65.8605 44.7951 66.3084C39.3301 67.3076 34.5562 70.1516 29.5647 72.5216" fill="#D1C8E1"/>
<path d="M28.4257 68.4223C16.971 73.9821 9.22781 84.756 4.60752 96.3497C-0.790941 109.65 -1.45965 124.403 2.71335 138.138C5.01679 144.986 7.79662 151.664 11.0324 158.123C13.9454 164.336 18.0205 169.933 23.0375 174.611C28.0154 179.341 33.6653 183.309 39.8036 186.384C43.2308 188.054 46.7825 189.454 50.4265 190.573C54.1893 191.557 58.0565 192.086 61.9452 192.149C65.7848 192.379 69.6244 193.34 73.464 193.545C77.4036 193.687 81.347 193.403 85.2259 192.699C88.7937 192.066 92.3005 191.128 95.7079 189.894C99.2019 188.703 102.837 187.87 106.382 186.794C109.772 185.821 113.024 184.418 116.058 182.617C118.814 180.673 121.428 178.532 123.878 176.212C126.309 174.188 128.997 172.369 131.198 170.204C133.509 167.844 135.385 165.095 136.74 162.082C139.54 156.154 140.857 149.634 140.58 143.083C140.44 139.869 139.902 136.685 138.98 133.603C137.956 130.26 136.279 127.198 135.038 123.918C133.681 120.306 132.376 116.706 130.75 113.196C129.407 110.262 128.383 107.188 126.911 104.305C126.183 102.896 125.326 101.558 124.351 100.308C123.314 99.0272 122.431 97.5283 121.369 96.2216C120.416 95.291 119.582 94.2453 118.886 93.1086C118.096 91.5562 117.044 90.1521 115.776 88.9579C113.234 86.5154 110.494 84.2873 107.585 82.2963C104.782 80.3235 102.363 78.1584 99.2275 76.6468C97.7685 75.9422 96.2582 75.3657 94.8376 74.5202C93.4169 73.6747 91.7787 72.5473 90.2429 71.5737C87.1514 69.7597 83.8332 68.364 80.3752 67.423C76.9579 66.3597 73.7583 64.7328 70.3667 63.5798C66.7992 62.4376 63.0373 62.0323 59.3087 62.3884C55.7251 62.6702 52.1799 62.4525 48.6091 62.5934C44.886 62.759 41.221 63.5785 37.7815 65.0146C34.4411 66.3854 31.2542 68.0764 28.0162 69.6393C27.288 70.072 26.759 70.774 26.5435 71.5937C26.328 72.4134 26.4432 73.2851 26.8643 74.0206C27.3056 74.7395 28.0067 75.2604 28.822 75.4752C29.6372 75.6899 30.5037 75.5819 31.2414 75.1735C37.2439 72.2783 42.8881 69.05 49.7225 68.9731C53.1398 68.9731 56.4802 68.9731 59.9614 68.7553C63.3082 68.4814 66.674 68.9539 69.8163 70.1389C72.9008 71.2534 75.8573 72.7011 79.0057 73.6619C82.0107 74.4836 84.8816 75.7348 87.5296 77.377C90.2716 79.1485 93.1228 80.7445 96.0663 82.1554C98.9279 83.7454 101.647 85.5799 104.193 87.6384C106.718 89.3872 109.102 91.3319 111.322 93.4545C112.281 94.4223 113.065 95.5493 113.639 96.7853C114.512 98.0653 115.506 99.2579 116.608 100.347C118.439 102.581 120.063 104.978 121.459 107.508C122.815 110.173 123.788 113.017 125.004 115.745C126.36 118.807 127.564 121.894 128.728 125.033C129.893 128.172 131.493 131.157 132.568 134.334C134.376 139.693 134.786 145.425 133.758 150.988C132.709 156.548 130.456 162.223 126.258 166.156C124.134 168.141 121.715 169.781 119.488 171.639C117.315 173.71 114.974 175.595 112.487 177.275C106.753 180.657 100.098 181.567 93.8777 183.681C87.302 186.146 80.3012 187.274 73.2848 186.999C69.714 186.768 66.2328 185.884 62.6492 185.654C59.1337 185.611 55.6359 185.147 52.2311 184.27C46.0221 182.355 40.1464 179.489 34.8122 175.776C29.5688 172.26 24.9453 167.896 21.1305 162.863C17.3678 157.739 15.192 151.603 12.4787 145.851C6.62972 133.514 4.63317 119.742 8.0248 106.432C10.7509 95.7092 16.1646 85.23 24.8549 78.1713C26.9524 76.4981 29.2374 75.0751 31.6637 73.9309C32.3898 73.4961 32.9161 72.7932 33.1291 71.9736C33.3422 71.154 33.225 70.2835 32.8028 69.5496C32.3637 68.8283 31.6625 68.3052 30.8464 68.0902C30.0303 67.8753 29.1627 67.9851 28.4257 68.3966V68.4223Z" fill="#004D2B"/>
<path d="M25.1621 109.775L26.0324 109.353C26.3962 109.16 26.7046 108.878 26.9283 108.533C27.2085 108.224 27.4066 107.849 27.5042 107.444C27.6191 107.025 27.6191 106.582 27.5042 106.163C27.4891 105.74 27.3609 105.328 27.1331 104.971L26.6339 104.331C26.2393 103.936 25.7502 103.65 25.2133 103.498L24.3686 103.383C23.8022 103.384 23.2462 103.535 22.756 103.818L21.8856 104.241C21.5182 104.433 21.2056 104.715 20.977 105.061C20.6986 105.369 20.5046 105.744 20.4138 106.15C20.2996 106.569 20.2996 107.012 20.4138 107.431C20.4414 107.854 20.5733 108.263 20.7978 108.622L21.2969 109.276C21.6877 109.666 22.1727 109.948 22.7048 110.096L23.5622 110.211C24.1286 110.209 24.6846 110.059 25.1749 109.775H25.1621Z" fill="#004D2B"/>
<path d="M60.9726 135.73C65.0938 135.73 65.1066 129.325 60.9726 129.325C56.8387 129.325 56.8515 135.73 60.9726 135.73Z" fill="#004D2B"/>
<path d="M48.8648 112.594C52.9859 112.594 52.9859 106.188 48.8648 106.188C44.7436 106.188 44.7436 112.594 48.8648 112.594Z" fill="#004D2B"/>
<path d="M135.499 45.0812L134.565 45.3502C133.778 45.6063 133.104 46.1268 132.658 46.8235C132.433 47.1827 132.301 47.5921 132.274 48.0149C132.179 48.4399 132.202 48.8824 132.338 49.2959L132.658 50.0646C132.937 50.538 133.333 50.9308 133.809 51.2047L134.565 51.525C135.122 51.6789 135.71 51.6789 136.267 51.525L137.201 51.2688C137.988 51.0127 138.661 50.4922 139.108 49.7956C139.333 49.4363 139.464 49.027 139.492 48.6042C139.607 48.1849 139.607 47.7424 139.492 47.3231L139.172 46.5544C138.893 46.0811 138.496 45.6882 138.02 45.4143L137.265 45.0812C136.708 44.9274 136.12 44.9274 135.563 45.0812H135.499Z" fill="#004D2B"/>
<path d="M132.785 68.2815C133.317 69.7462 134.363 70.9669 135.729 71.7148C136.694 72.3714 137.763 72.8607 138.89 73.1624C141.45 73.8158 143.741 72.5347 146.147 71.8813C146.965 71.6554 147.66 71.1134 148.079 70.3747C148.498 69.6359 148.606 68.7608 148.38 67.942C148.155 67.1232 147.613 66.4277 146.875 66.0084C146.137 65.5892 145.263 65.4806 144.445 65.7065C143.036 66.2634 141.591 66.7215 140.119 67.0773L140.976 66.962C140.67 67.0003 140.361 67.0003 140.055 66.962L140.912 67.0773C140.493 67.0004 140.084 66.8713 139.697 66.693L140.464 67.0261C139.754 66.7129 139.08 66.3219 138.455 65.8603L139.108 66.3727C138.852 66.1741 138.616 65.951 138.404 65.7065L138.916 66.3471C138.827 66.2355 138.75 66.1153 138.685 65.9884L139.005 66.7442C138.998 66.6975 138.998 66.65 139.005 66.6033C138.894 66.1979 138.703 65.8184 138.445 65.4866C138.187 65.1549 137.866 64.8773 137.5 64.6697C137.135 64.4621 136.732 64.3286 136.315 64.2768C135.898 64.225 135.475 64.2559 135.07 64.3678C134.665 64.4797 134.286 64.6703 133.954 64.9288C133.623 65.1874 133.345 65.5087 133.138 65.8745C132.931 66.2403 132.797 66.6434 132.746 67.0608C132.694 67.4782 132.725 67.9017 132.836 68.3071L132.785 68.2815Z" fill="#004D2B"/>
<path d="M117.184 41.6349C121.305 41.6349 121.305 35.2295 117.184 35.2295C113.063 35.2295 113.063 41.6349 117.184 41.6349Z" fill="#004D2B"/>
<path d="M161.608 41.6349C165.729 41.6349 165.729 35.2295 161.608 35.2295C157.487 35.2295 157.487 41.6349 161.608 41.6349Z" fill="#004D2B"/>
<path d="M113.075 132.604C116.224 133.053 118.528 131.656 121.395 130.683C124.671 129.594 128.037 128.799 131.275 127.57C134.513 126.34 137.943 124.585 141.258 122.996C144.573 121.408 147.836 120.191 151.151 118.794C154.466 117.398 157.551 115.745 160.904 114.349C164.338 112.907 167.677 111.246 170.9 109.378C177.171 105.702 184.044 103.101 190.584 99.9496C194.308 98.1561 197.815 96.0167 201.463 94.1079C204.804 92.5688 208.319 91.4418 211.932 90.7515C212.465 90.6172 212.954 90.3437 213.347 89.9589C213.741 89.574 214.025 89.0916 214.172 88.5608L214.248 87.9587C214.446 87.1427 214.325 86.282 213.912 85.5516C213.498 84.8211 212.822 84.2756 212.021 84.0258C211.202 83.8052 210.328 83.9168 209.59 84.3365C208.853 84.7561 208.31 85.45 208.079 86.2677L207.99 86.857L210.23 84.6151C206.942 85.3132 203.718 86.286 200.592 87.5232C197.367 88.8939 194.449 90.854 191.339 92.4681C184.94 95.8117 178.195 98.5532 171.68 101.717C168.609 103.204 165.793 105.151 162.721 106.65C159.65 108.148 156.04 109.442 152.79 111.031C149.539 112.619 146.531 113.798 143.357 115.118C139.914 116.54 136.599 118.218 133.246 119.832C129.854 121.408 126.335 122.693 122.726 123.675C121.2 124.08 119.696 124.563 118.221 125.123C117.478 125.443 116.723 125.776 115.955 126.045L115.123 126.301C114.893 126.301 114.227 126.391 114.778 126.468C113.961 126.271 113.099 126.393 112.369 126.81C111.639 127.226 111.096 127.906 110.849 128.71C110.628 129.527 110.738 130.398 111.155 131.134C111.572 131.87 112.262 132.412 113.075 132.643V132.604Z" fill="#004D2B"/>
<path d="M191.877 101.705C191.697 103.934 192.926 106.329 193.579 108.43C194.06 110.661 195.191 112.698 196.83 114.285C200.439 117.296 205.443 116.924 209.244 114.49C212.47 112.427 215.068 109.238 217.563 106.381C219.501 104.101 221.267 101.682 222.849 99.1427C223.806 97.7011 224.662 96.1943 225.409 94.6333C226.173 93.3006 226.571 91.7887 226.561 90.252C226.535 89.4107 226.19 88.611 225.595 88.0158C225.001 87.4207 224.202 87.075 223.361 87.0493C222.514 87.0527 221.702 87.3912 221.102 87.9911C220.503 88.591 220.165 89.4036 220.162 90.252C220.264 91.0719 220.405 89.7524 220.162 90.4698C220.098 90.6748 220.046 90.8669 219.982 91.0591C219.918 91.2512 219.893 91.2769 219.867 91.3793C219.726 91.7893 220.097 90.8669 219.867 91.2897C219.325 92.4459 218.718 93.5707 218.05 94.6589C217.346 95.8247 216.591 96.9648 215.823 98.0922L214.735 99.6167L214.223 100.308L213.967 100.642C214.274 100.244 213.685 101.026 213.967 100.642C212.367 102.704 210.524 104.6 208.732 106.509C207.677 107.721 206.421 108.744 205.021 109.532C204.537 109.776 204.026 109.961 203.498 110.083C203.002 110.12 202.503 110.094 202.013 110.006C201.475 109.927 200.989 109.643 200.656 109.212C200.32 108.655 200.057 108.056 199.876 107.431C199.556 106.419 199.287 105.382 198.941 104.369C198.53 103.549 198.278 102.658 198.199 101.743C198.192 100.896 197.853 100.085 197.255 99.486C196.656 98.8868 195.846 98.5473 194.999 98.5406C194.156 98.557 193.352 98.8996 192.755 99.4967C192.159 100.094 191.816 100.899 191.8 101.743L191.877 101.705Z" fill="#004D2B"/>
<path d="M226.522 80.208C226.292 80.208 225.626 80.0415 226.599 80.208C226.445 80.208 226.292 80.208 226.125 80.1312L225.127 79.9902C224.27 79.8621 223.425 79.734 222.567 79.67C221.029 79.5432 219.486 79.8353 218.101 80.5155C216.656 81.3099 215.517 82.5629 214.863 84.0769C213.859 86.052 213.522 88.2994 213.903 90.4823C214.76 94.4408 219.022 96.4008 222.785 96.2599C223.948 96.3038 225.102 96.0499 226.139 95.5223C227.177 94.9946 228.062 94.2106 228.712 93.2446C229.362 92.2785 229.754 91.1624 229.853 90.002C229.951 88.8415 229.752 87.6752 229.274 86.6134C228.515 84.843 227.385 83.257 225.959 81.9631C224.732 80.5962 223.183 79.5571 221.454 78.9398C217.294 77.8252 214.517 82.2577 213.992 85.7551C213.682 87.537 213.739 89.3635 214.159 91.1228C214.728 93.0001 215.926 94.624 217.55 95.7218C220.75 98.1175 225.933 98.6939 229.069 95.7987C230.351 94.5261 231.265 92.9306 231.716 91.1807C232.166 89.4309 232.136 87.5917 231.629 85.8576C230.354 82.5881 228.124 79.7797 225.229 77.7996C222.67 75.9036 219.176 74.4432 215.963 75.3784C212.226 76.4545 210.844 80.2336 210.012 83.6797C209.635 85.6617 209.747 87.7057 210.338 89.6345C210.929 91.5633 211.981 93.3186 213.403 94.7482C216.552 98.015 221.633 99.1167 225.242 95.9268C226.158 95.0922 226.879 94.0664 227.355 92.9218C227.83 91.7773 228.048 90.542 227.994 89.3037C227.961 87.1931 227.44 85.1189 226.471 83.2442C225.949 82.2339 225.167 81.3809 224.207 80.773C223.246 80.1651 222.142 79.8242 221.006 79.7853C218.357 79.7853 216.629 82.0015 215.733 84.2818C215.366 85.1864 215.213 86.1635 215.287 87.137C215.36 88.1104 215.657 89.0536 216.155 89.8929C216.739 90.7711 217.531 91.4914 218.459 91.9898C219.388 92.4882 220.426 92.7492 221.479 92.7498C222.22 92.7196 222.946 92.5366 223.612 92.2123C224.278 91.888 224.87 91.4294 225.351 90.8652C225.831 90.301 226.19 89.6435 226.405 88.9339C226.62 88.2243 226.686 87.4779 226.599 86.7415C226.432 84.0641 225.101 81.1432 222.286 80.413C221.259 80.1857 220.188 80.2801 219.217 80.6835C218.246 81.0869 217.423 81.7797 216.859 82.6677C216.255 83.6166 216.013 84.7517 216.178 85.8647C216.342 86.9777 216.902 87.994 217.755 88.7272C218.672 89.5417 219.86 89.9818 221.086 89.9605C222.311 89.9391 223.484 89.4578 224.372 88.6119C224.964 88.0061 225.296 87.1921 225.296 86.3444C225.296 85.4966 224.964 84.6826 224.372 84.0769C223.762 83.4927 222.951 83.1667 222.107 83.1667C221.262 83.1667 220.451 83.4927 219.841 84.0769C220.404 83.5901 220.289 83.7694 220.072 83.8719C220.389 83.6967 220.746 83.6041 221.108 83.6029C220.827 83.6029 220.763 83.5004 221.531 83.6797C221.262 83.6157 221.198 83.4748 221.889 83.8463C221.479 83.6285 222.452 84.4612 221.966 83.9103C221.966 83.9103 222.465 84.6021 222.235 84.1922C222.235 84.1922 222.542 84.9608 222.414 84.5637C222.516 84.9368 222.516 85.3307 222.414 85.7038C222.183 86.4725 222.132 86.2547 222.273 86.0369C221.863 86.6646 221.94 86.4597 222.132 86.2803C221.71 86.6775 221.748 86.5878 221.927 86.4725C222.107 86.3572 221.07 86.7031 221.646 86.6134C221.735 86.6134 220.66 86.7031 221.07 86.6903C221.479 86.6774 220.2 86.5109 220.532 86.6006C220.865 86.6903 220.264 86.4597 220.148 86.4084L220.302 86.5109C220.609 86.6903 219.867 86.1522 219.867 86.1778C219.95 86.2779 220.04 86.3721 220.136 86.4597C219.496 86.0625 219.688 85.7935 219.816 86.0497C219.867 86.1237 219.914 86.2007 219.956 86.2803C220.033 86.4084 220.276 86.9721 219.956 86.3444C219.636 85.7167 219.956 86.3444 219.956 86.4469C219.956 86.5494 219.956 86.7159 220.059 86.844C220.238 87.5358 220.059 85.9857 220.059 86.6903C220.059 86.9337 219.995 87.856 220.059 87.1771C220.059 87.0746 220.123 86.4981 220.059 87.1771C220.059 87.2796 220.059 87.2796 220.059 87.3308C220.059 87.7664 220.392 86.5494 220.225 86.9465C220.059 87.3436 219.713 87.4589 220.456 86.6903C220.072 87.0874 220.903 86.3828 220.788 86.4725C220.302 86.8184 221.185 86.3316 221.121 86.3444C220.648 86.4853 222.068 86.3444 221.39 86.3444C220.942 86.3444 222.311 86.5878 221.607 86.3444C221.485 86.3207 221.365 86.2864 221.249 86.2419C221.339 86.1266 221.851 86.7031 221.428 86.3188C221.838 86.8312 221.006 85.9344 221.428 86.3188C221.172 86.0113 221.812 86.8952 221.607 86.5622C221.403 86.2291 221.71 86.6646 221.684 86.8056C221.663 86.7008 221.633 86.598 221.595 86.4981C221.876 86.9209 221.595 87.2027 221.595 86.844C221.601 86.7331 221.601 86.6218 221.595 86.5109C221.595 86.1266 221.799 86.5109 221.595 86.8312C221.694 86.6109 221.763 86.3782 221.799 86.1394C221.799 86.2035 221.428 86.844 221.697 86.3828C221.761 86.2803 221.812 86.165 221.876 86.0497C221.94 85.9344 222.017 85.8319 222.081 85.7294C221.799 86.2163 221.902 85.9216 222.081 85.8063C221.479 86.2675 221.761 86.0113 221.927 85.9344C221.275 86.2547 221.441 86.1266 221.671 86.0753C221.34 86.1652 220.991 86.1652 220.66 86.0753C221.044 86.1778 220.571 86.0754 220.392 85.9216C220.392 85.9216 220.737 86.0882 220.724 86.101C220.712 86.1138 220.148 85.5373 220.609 86.0241C220.696 86.1285 220.79 86.2269 220.891 86.3188C221.185 86.5878 220.571 85.8191 220.763 86.1778C220.763 86.2803 221.185 86.7543 221.134 86.8312C221.083 86.908 220.929 86.165 221.057 86.6646C221.057 86.8056 221.134 86.9337 221.172 87.0746C221.262 87.4461 221.351 87.8432 221.428 88.2276C221.428 88.3941 221.505 88.5606 221.531 88.74C221.556 88.9193 221.595 89.3933 221.531 88.945C221.467 88.4966 221.531 89.0475 221.531 89.1499C221.531 89.2524 221.531 89.4958 221.531 89.6624C221.537 89.7861 221.537 89.9101 221.531 90.0339C221.531 90.7385 221.531 89.9186 221.531 89.9314C221.503 90.0961 221.465 90.2588 221.415 90.4182C221.236 91.0844 221.71 90.0083 221.313 90.6104L221.019 91.0844C221.019 91.0203 221.326 90.7641 221.095 90.9562C220.968 91.0583 220.852 91.1744 220.75 91.3021C220.455 91.6096 221.211 91.0331 220.839 91.2125C220.711 91.2125 220.584 91.3662 220.456 91.4431C220.11 91.6737 221.031 91.2893 220.622 91.3662L220.315 91.4559C220.98 91.4559 219.7 91.648 220.315 91.4559H219.88C219.368 91.4559 220.11 91.4559 220.084 91.4559C219.826 91.414 219.573 91.3453 219.329 91.2509C218.92 91.1612 219.841 91.5199 219.457 91.2509L219.048 91.0331L218.651 90.7897C218.523 90.5976 218.229 90.5207 218.651 90.7897C218.447 90.5738 218.224 90.3765 217.985 90.2004C217.768 89.9954 217.576 89.7648 217.371 89.5342C217.166 89.3037 217.499 89.5343 217.461 89.6496C217.422 89.7649 217.281 89.3933 217.269 89.3677C217.075 89.0824 216.895 88.7874 216.731 88.4838C216.655 88.3511 216.587 88.2142 216.526 88.0738C216.245 87.5486 216.526 88.1379 216.526 88.2147C216.456 87.9181 216.353 87.6302 216.219 87.3564C216.142 87.0746 216.078 86.7799 216.014 86.4853C215.899 85.9857 216.014 86.6903 216.014 86.6903C216.014 86.6903 216.014 86.2035 216.014 86.1394C216.014 86.0753 216.014 85.6398 216.014 85.3964C216.014 84.7943 216.014 85.6013 216.014 85.6142C216.014 85.627 216.078 85.2555 216.091 85.2042C216.219 84.679 216.36 84.1665 216.514 83.6413C216.667 83.1161 216.795 82.7061 216.962 82.2449C217.128 81.7838 216.962 82.4371 216.859 82.4627C216.927 82.3539 216.983 82.2379 217.026 82.1168L217.218 81.7838C217.307 81.63 217.614 81.3354 217.218 81.63C216.821 81.9247 217.448 81.425 217.525 81.3354C217.755 81.0407 216.961 81.6428 217.307 81.4891C217.429 81.4456 217.541 81.3805 217.64 81.2969C217.896 81.1048 217.358 81.4763 217.32 81.4379C217.45 81.3925 217.582 81.3541 217.717 81.3226C218.139 81.156 217.397 81.3226 217.333 81.3226C217.486 81.3226 217.653 81.3226 217.819 81.3226H218.395C218.792 81.3226 217.653 81.1688 218.049 81.3226L218.382 81.3994C218.616 81.4482 218.847 81.5124 219.073 81.5916L219.432 81.7069C219.803 81.835 219.636 81.9887 219.278 81.63C219.684 81.8977 220.112 82.1292 220.558 82.3218L221.249 82.7574L221.582 83.0008C222.119 83.3723 221.582 82.9111 221.518 82.9367C221.723 82.9367 222.619 83.8847 222.798 84.0384C223.196 84.418 223.572 84.82 223.924 85.2427C223.924 85.2427 224.167 85.5501 224.18 85.5501C224.193 85.5501 223.77 84.9993 224.039 85.3836C224.308 85.7679 224.346 85.7935 224.487 86.0241C224.781 86.4597 224.986 86.9337 225.255 87.382C225.524 87.8304 225.101 86.9977 225.114 87.0105C225.147 87.1193 225.185 87.2262 225.229 87.3308C225.305 87.532 225.369 87.7373 225.421 87.9457C225.421 88.0482 225.421 88.1507 225.485 88.2404C225.613 88.7016 225.485 87.8688 225.485 87.8304C225.485 88.0738 225.485 88.3813 225.485 88.6247C225.485 89.3805 225.652 87.9585 225.485 88.7272C225.485 88.9578 225.383 89.1884 225.319 89.4062C225.255 89.6239 225.05 90.1876 225.063 90.1876C225.076 90.1876 225.37 89.5599 225.063 89.9954C224.986 90.1364 224.909 90.3029 224.82 90.4438C224.73 90.5847 224.295 91.3406 224.577 90.8666C224.858 90.3926 224.321 91.0844 224.244 91.1868C224.001 91.4815 224.794 90.8922 224.449 91.0203C224.371 91.0638 224.298 91.1153 224.231 91.174C223.822 91.4687 224.41 91.0331 224.513 91.0716C224.615 91.11 223.937 91.2509 223.937 91.2253C223.937 91.1997 224.781 91.2253 224.154 91.2253H223.694C223.566 91.2253 222.708 91.1356 223.182 91.2253C223.655 91.315 223.182 91.2253 223.028 91.2253L222.555 91.1228C222.236 90.9718 221.901 90.8599 221.556 90.7897C221.633 90.7897 222.196 91.1228 221.71 90.7897L221.326 90.5847L220.993 90.367C220.609 90.1236 220.993 90.2517 221.083 90.4438C221.083 90.3413 220.596 90.0083 220.532 89.9442C220.468 89.8801 220.366 89.752 220.264 89.6624C220.161 89.5727 220.635 90.2645 220.392 89.8033C220.392 89.7136 220.276 89.5983 220.212 89.5086C219.944 89.1115 220.315 89.7264 220.328 89.8033C220.328 89.5983 220.174 89.3677 220.123 89.1499C220.13 89.0348 220.13 88.9192 220.123 88.804C220.078 88.0865 219.756 87.4147 219.225 86.9307C218.694 86.4468 217.995 86.1887 217.277 86.2112C216.559 86.2337 215.878 86.5349 215.379 87.0512C214.879 87.5674 214.599 88.2581 214.599 88.977C214.599 89.6959 214.879 90.3866 215.379 90.9028C215.878 91.419 216.559 91.7203 217.277 91.7428C217.995 91.7652 218.694 91.5072 219.225 91.0232C219.756 90.5393 220.078 89.8674 220.123 89.1499C220.123 88.8809 220.123 88.6247 220.123 88.3557C220.123 87.856 220.123 87.3692 220.123 86.8696C219.969 87.7279 220.123 86.37 220.123 86.8696C220.123 86.6006 220.238 86.3444 220.315 86.0753C220.392 85.8063 220.443 85.6654 220.52 85.4604C220.673 84.948 220.456 85.6654 220.404 85.7038C220.472 85.5996 220.528 85.4878 220.571 85.3707C220.714 85.1782 220.838 84.9723 220.942 84.7558C220.942 84.8455 220.417 85.3195 220.775 85.012C220.865 84.9224 221.249 84.5765 220.775 84.9352C220.66 85.0249 220.302 85.2939 220.775 84.9352C221.108 84.7558 220.072 85.1658 220.443 85.0761C220.814 84.9864 219.675 85.0761 220.072 85.0761C220.468 85.0761 219.496 84.9736 219.572 84.9864L219.867 85.0761C218.996 84.7815 219.38 84.8455 219.56 84.9736L219.88 85.1658L220.123 85.3323L219.892 85.153C220.148 85.153 220.852 85.9857 221.044 86.165C221.236 86.3444 221.735 86.8312 222.068 87.1643L222.401 87.523C222.798 87.7792 222.555 87.6895 222.401 87.523C222.604 87.7366 222.768 87.9836 222.887 88.2532C222.977 88.3941 223.041 88.5478 223.13 88.6888C223.374 89.0603 222.977 88.1763 223.13 88.5991C223.13 88.7528 223.246 88.9065 223.284 89.0603C223.476 89.214 223.425 89.5983 223.284 89.0603C223.303 89.2177 223.303 89.3768 223.284 89.5342C223.284 90.0211 223.348 89.4574 223.284 89.3933C223.256 89.5564 223.209 89.7155 223.143 89.8673C223.143 89.7136 223.438 89.3549 223.143 89.8033C223.143 89.957 222.964 90.0595 223.143 89.8033L223.258 89.6239C223.079 89.8161 223.066 89.8033 223.258 89.6239C223.438 89.4318 223.374 89.5343 223.182 89.6239C222.606 89.9826 223.258 89.5214 223.322 89.6239L222.542 89.8161C222.542 89.8161 223.361 89.8161 222.772 89.8161H222.363C222.081 89.7916 221.799 89.7916 221.518 89.8161C221.518 89.8161 222.337 89.9698 221.761 89.8161C221.63 89.7831 221.498 89.7575 221.364 89.7392C221.083 89.7392 220.814 89.5727 220.532 89.4958C219.944 89.3421 220.712 89.4958 220.712 89.5855L220.353 89.4062C220.238 89.4062 220.136 89.278 220.02 89.214C219.688 89.0218 220.11 89.0474 220.238 89.3805C220.238 89.3805 219.995 89.1499 219.982 89.1371C219.572 88.804 220.251 89.6239 220.097 89.3165C220.012 89.1387 219.913 88.9675 219.803 88.804C220.2 89.2524 219.995 89.3933 219.944 89.0859C219.924 88.9681 219.894 88.8523 219.854 88.74C220.084 89.0603 219.854 89.4318 219.854 89.0475C219.854 88.9193 219.854 88.7912 219.854 88.6631C219.861 88.5308 219.861 88.3983 219.854 88.266C219.944 88.3557 219.713 89.0731 219.854 88.3941C219.995 87.7151 220.238 87.2924 220.366 86.7287C220.2 87.4717 220.366 86.8568 220.481 86.575C220.596 86.2931 220.622 86.37 220.673 86.2675C220.967 85.7679 220.174 86.7415 220.583 86.3828C220.699 86.2931 221.198 85.8704 220.712 86.2163C220.225 86.5622 220.827 86.2163 220.929 86.101C221.454 85.7551 220.212 86.2931 220.827 86.101C221.041 86.0764 221.252 86.0248 221.454 85.9472C221.454 85.9472 220.571 86.0113 221.044 86.0113H221.889C222.363 86.0113 222.836 86.101 223.297 86.1266C223.297 86.1266 222.452 86.0113 222.977 86.1266H223.335L224.065 86.2291C224.794 86.3444 225.524 86.4341 226.253 86.5237C227.101 86.5204 227.913 86.1818 228.512 85.5819C229.111 84.9821 229.45 84.1694 229.453 83.321C229.427 82.4798 229.082 81.68 228.487 81.0849C227.893 80.4897 227.094 80.1441 226.253 80.1183L226.522 80.208Z" fill="#004D2B"/>
<path d="M51.7574 96.1318C52.6917 96.1318 53.6132 96.1318 54.5475 96.0422C55.0082 96.0422 55.4562 96.0422 55.9169 96.0422C56.0321 96.0422 57.3632 96.1575 57.3888 96.119H57.1328L57.4911 96.1831C57.7242 96.2264 57.955 96.282 58.1823 96.3496C58.2719 96.3496 58.9246 96.5802 58.4638 96.4265C58.0031 96.2728 58.7198 96.5546 58.8094 96.6058C59.5133 96.9773 60.0893 97.4385 60.806 97.8869C60.3836 97.5538 60.4604 97.6691 60.806 97.8869L61.1516 98.1944C61.3947 98.425 61.6251 98.6812 61.8555 98.9374C62.0858 99.1936 61.8555 99.1424 61.8555 98.8477C61.9416 99.0047 62.04 99.1547 62.1498 99.2961C62.3488 99.596 62.5283 99.9084 62.6873 100.231C62.6873 100.334 62.9689 100.846 62.6873 100.334C62.4058 99.8213 62.6874 100.436 62.7514 100.552C62.8646 100.875 62.9586 101.204 63.0329 101.538C63.0329 101.73 63.1097 101.922 63.1481 102.102C63.3017 102.793 63.1481 101.32 63.1481 102.038C63.1481 102.448 63.2121 102.857 63.2249 103.319C63.2249 104.168 63.562 104.983 64.1621 105.583C64.7621 106.184 65.576 106.521 66.4246 106.521C67.2732 106.521 68.087 106.184 68.6871 105.583C69.2871 104.983 69.6242 104.168 69.6242 103.319C69.6381 101.367 69.2207 99.4357 68.4021 97.664C67.5834 95.8923 66.3837 94.3236 64.8887 93.0701C63.144 91.5486 61.037 90.5029 58.771 90.0339C56.4576 89.7994 54.1289 89.7566 51.8085 89.9058C50.9599 89.9058 50.1461 90.2432 49.546 90.8438C48.946 91.4445 48.6089 92.2591 48.6089 93.1085C48.6089 93.9579 48.946 94.7725 49.546 95.3731C50.1461 95.9738 50.9599 96.3112 51.8085 96.3112L51.7574 96.1318Z" fill="#004D2B"/>
<path d="M42.4015 64.2206C42.5935 64.2206 42.7343 64.4383 42.9007 64.5024C43.067 64.5664 43.0158 64.7842 42.9007 64.4255C42.7855 64.0668 42.6831 64.054 42.5935 63.849C42.7215 64.1565 42.5935 63.7337 42.5935 63.6441C42.3249 62.7692 42.1069 61.8795 41.9408 60.9794C41.444 58.2231 41.1955 55.4276 41.1984 52.6268C41.3649 50.2066 42.1064 47.8612 43.3614 45.7859C43.9757 44.6329 44.8332 43.6337 45.4219 42.4679C45.7058 41.5532 46.115 40.6823 46.6378 39.8801L41.1728 37.6126V37.8432L41.608 36.229L41.5056 36.3828L43.4126 34.9095H43.7197C39.6114 34.9095 39.5986 41.3149 43.7197 41.3149C44.2172 41.343 44.7152 41.2685 45.1828 41.0958C45.6503 40.9232 46.0774 40.6562 46.4375 40.3114C46.7975 39.9666 47.083 39.5514 47.276 39.0915C47.469 38.6316 47.5653 38.137 47.5593 37.6382C47.543 37.0119 47.3457 36.4037 46.9913 35.8873C46.6369 35.3709 46.1405 34.9684 45.5623 34.7285C44.9841 34.4886 44.3488 34.4216 43.7333 34.5355C43.1178 34.6495 42.5485 34.9396 42.0943 35.3707C41.1106 36.4688 40.3499 37.748 39.8546 39.1371C39.1635 40.5975 38.0756 41.8273 37.3845 43.2878C35.6209 46.5302 34.7009 50.1648 34.7095 53.8566C34.7815 57.19 35.1628 60.5095 35.8486 63.7722C36.4758 66.5905 37.7172 69.5242 40.6737 70.4722C44.6157 71.7533 46.2922 65.5529 42.3759 64.2974L42.4015 64.2206Z" fill="#004D2B"/>
<path d="M49.7225 26.9024C47.342 26.5052 44.9231 26.9024 43.6048 29.1955C42.8225 30.6902 42.5271 32.3924 42.7601 34.0636C43.2592 38.4705 47.214 41.0711 51.4119 41.276C55.0339 41.4426 58.1568 38.4833 60.0894 35.7162C60.6773 34.9229 61.1022 34.0208 61.3395 33.062C61.5768 32.1033 61.6217 31.1069 61.4717 30.1307C61.0061 28.1908 60.0139 26.4174 58.6047 25.0064C56.5711 22.6496 54.004 20.8136 51.1176 19.6515C49.4658 18.955 47.6494 18.7461 45.8829 19.0494C44.9859 19.2784 44.1446 19.6871 43.4099 20.2508C42.6752 20.8145 42.0623 21.5214 41.6082 22.3289C39.6628 25.3779 39.5348 29.4005 40.2003 32.8338C40.4847 34.2662 41.0568 35.6259 41.8818 36.8304C42.7068 38.0349 43.7676 39.0593 44.9998 39.8412C49.8633 43.0183 56.9154 42.1984 60.1918 37.1894C64.2874 30.9378 58.7968 23.341 52.5127 21.3681C48.4683 20.087 44.5903 22.1239 42.2738 25.4035C41.1035 27.0396 40.4767 29.0025 40.482 31.0146C40.5939 33.1453 41.4764 35.1625 42.9649 36.6898C43.6207 37.4945 44.4621 38.1275 45.4166 38.5343C46.3711 38.9411 47.41 39.1095 48.444 39.0251C49.478 38.9406 50.4761 38.6058 51.3521 38.0494C52.2281 37.4931 52.9558 36.7319 53.4726 35.8315C55.5971 33.0131 56.5442 29.0033 54.33 25.98C53.2039 24.1725 51.4844 22.8137 49.4666 22.1368C48.228 21.8697 46.9341 22.1036 45.8672 22.7876C44.8003 23.4715 44.0469 24.55 43.7712 25.7878C42.7729 29.0802 44.1296 32.3213 46.3309 34.7554C47.3291 35.9807 48.7074 36.8374 50.2473 37.1894C51.2921 37.3878 52.3721 37.2722 53.3515 36.8573C54.3308 36.4424 55.1656 35.7467 55.7507 34.8579C56.7837 33.3254 57.1871 31.4535 56.8769 29.6311C56.6575 28.5078 56.0497 27.4979 55.1603 26.7787C54.2708 26.0595 53.1567 25.6769 52.0135 25.6982C51.3128 25.7181 50.6262 25.9 50.0075 26.2296C49.3887 26.5593 48.8546 27.0278 48.4469 27.5985C48.0391 28.1692 47.7688 28.8266 47.657 29.5192C47.5453 30.2118 47.5951 30.921 47.8027 31.5911C48.0007 32.2606 48.4063 32.8498 48.9607 33.2735C49.5151 33.6972 50.1898 33.9335 50.8872 33.9483C51.5831 33.9277 52.2549 33.6892 52.8082 33.2663C53.3616 32.8435 53.7684 32.2576 53.9716 31.5911L54.202 30.8865C54.4229 30.0679 54.3132 29.1951 53.8965 28.4568C53.4798 27.7185 52.7896 27.1739 51.9751 26.9408C51.1452 26.7014 50.2546 26.7983 49.4955 27.2106C48.7364 27.6228 48.1698 28.3174 47.9179 29.1443L47.6876 29.8488H53.8565C53.6901 29.3236 53.8565 30.041 53.8565 30.1307C53.8516 30.4615 53.7683 30.7864 53.6133 31.0787C53.4623 31.3592 53.2417 31.5961 52.9727 31.7666C52.7037 31.9371 52.3954 32.0355 52.0775 32.0523C51.7582 32.0549 51.4441 31.9708 51.1687 31.8089C51.5911 32.0395 50.8872 31.5655 50.8744 31.5527C51.2072 31.8729 50.644 31.2452 50.6312 31.2324C50.9384 31.7064 50.324 30.4766 50.5288 31.0018C50.7336 31.5271 50.4392 30.1179 50.5288 30.9121C50.7208 30.0794 50.5288 31.4118 50.5288 30.9121C50.5288 31.1043 50.3625 31.3221 50.3369 31.5271C50.3369 31.5271 50.7208 30.8225 50.4648 31.194C50.3927 31.2978 50.3325 31.4096 50.2856 31.5271C50.2216 31.7448 50.5161 31.1812 50.5801 31.1555C50.6441 31.1299 50.4521 31.3093 50.4009 31.3477L50.708 31.1043C50.6328 31.1607 50.5512 31.208 50.4648 31.2452C51.1688 30.8609 51.092 30.989 50.836 31.0531C51.8727 30.7968 51.5399 31.0531 51.2968 31.0531C50.836 31.0531 51.7703 31.1427 51.7575 31.1427L51.3736 30.9121C51.3736 30.9121 52.1287 31.3093 51.7447 31.0659L51.4887 30.9121L51.2328 30.7456C51.2328 30.7456 51.8727 31.2965 51.5015 30.9506L51.028 30.5022C50.9256 30.3869 50.3625 29.7336 50.7208 30.1563C51.0792 30.5791 50.5928 29.9385 50.5288 29.836C50.4648 29.7336 50.2857 29.4389 50.1705 29.2339C50.0553 29.029 49.7737 28.3628 50.0041 28.9265C50.2345 29.4901 50.0041 28.7087 49.8889 28.5678C49.7737 28.4268 49.7993 28.1834 49.7481 27.9913C49.6329 27.5557 49.8121 28.414 49.8121 28.4397C49.8121 28.4653 49.8121 28.2731 49.8121 28.1963C49.8184 28.1195 49.8184 28.0424 49.8121 27.9657C49.8121 27.402 49.8121 28.1578 49.8121 28.2091C49.9218 27.9108 49.999 27.6015 50.0425 27.2867C50.0425 27.2867 49.7481 27.9272 49.8889 27.6454C50.1705 27.2354 50.0297 27.3636 49.8889 27.6454C49.6073 28.0553 50.1577 27.6454 49.6202 27.9144C49.328 28.126 48.9905 28.2664 48.6346 28.3244C48.5067 28.3244 47.598 28.1963 47.9307 28.3244C48.2635 28.4525 47.3676 27.9913 47.7515 28.2347C47.8795 28.3244 48.0203 28.3884 48.1483 28.4653C48.6346 28.7599 47.9947 28.4653 47.9819 28.3372C47.9819 28.4525 48.4939 28.7984 48.5835 28.888C48.817 29.074 49.0162 29.2995 49.1722 29.5542C49.0314 29.1443 48.9035 29.1827 49.0698 29.4389L49.3002 29.8104C49.3546 29.9349 49.4187 30.0548 49.4921 30.1691C49.313 29.7207 49.2618 29.6054 49.3386 29.836C49.4153 30.0666 49.3385 30.0026 49.4025 30.0922C49.4665 30.1819 49.4025 29.2211 49.3257 29.6567C49.3196 29.7548 49.3196 29.8532 49.3257 29.9513C49.5049 29.1186 49.3257 30.4381 49.3257 29.9513C49.3257 30.1819 49.2106 30.4125 49.1466 30.6431C49.0826 30.8737 49.057 30.8737 49.0186 31.0018C48.8522 31.5399 49.2745 30.515 49.0826 30.8609C48.8906 31.2068 48.609 31.7705 48.3147 32.142C48.0203 32.5135 48.7498 31.7064 48.2379 32.2316C48.0409 32.4055 47.8529 32.5894 47.6748 32.7825C48.0203 32.2957 48.1739 32.4494 47.9179 32.5775C47.8187 32.6234 47.7244 32.6792 47.6364 32.7441C47.6364 32.7441 48.4299 32.475 47.9819 32.5903C47.534 32.7056 47.9819 32.475 48.4043 32.5903C48.4043 32.5903 48.0204 32.5903 48.0332 32.5903C48.0459 32.5903 48.8394 32.8081 48.3275 32.5903L47.9564 32.4879C48.0971 32.411 48.6475 32.8722 48.1099 32.4879L47.7772 32.2701C47.4188 32.0779 48.2251 32.6928 47.9436 32.3982L47.3676 31.7961C47.086 31.4886 47.7003 32.3085 47.4827 31.9498C47.4178 31.8258 47.3451 31.706 47.2652 31.5911L47.0733 31.2324C46.8685 30.8993 47.2652 31.8858 47.0733 31.3349C47.04 31.0747 46.971 30.8204 46.8684 30.5791C47.15 30.989 46.8684 31.2452 46.9324 30.8865C46.9324 30.7584 46.9324 30.6175 46.9324 30.4894C46.9324 29.9129 46.9324 30.6175 46.9324 30.6944C46.9709 30.5511 47.0009 30.4056 47.022 30.2588L47.1372 29.836L47.2524 29.5158C47.3292 29.298 47.2524 29.3877 47.1372 29.772C47.1372 29.6054 47.47 29.1314 47.5723 28.9777L47.8155 28.6062C48.0331 28.2731 47.8155 28.4653 47.7259 28.7215C47.7259 28.5293 48.1995 28.1963 48.3275 28.0681C48.4555 27.94 48.6603 27.7991 48.6603 27.7607C48.1099 28.1578 48.6603 27.9144 48.6603 27.7607C48.8906 27.607 49.1594 27.4788 49.4025 27.3251C49.6457 27.1714 49.1594 27.4404 49.121 27.4404C49.2606 27.403 49.3975 27.3559 49.5306 27.2995L49.9273 27.197C50.4649 27.0433 49.7865 27.197 49.697 27.197C49.9608 27.2226 50.2266 27.2226 50.4905 27.197C49.6458 27.0305 51.0024 27.197 50.4905 27.197C50.7208 27.197 50.9384 27.3251 51.156 27.3892C51.2624 27.4429 51.3738 27.4858 51.4887 27.5173C51.4887 27.5173 50.7593 27.1714 51.2328 27.4148C51.476 27.5429 51.7319 27.6582 51.9751 27.7991L52.615 28.2091C52.7174 28.2091 52.8198 28.3628 52.935 28.4268C53.2805 28.6446 52.4487 28.0041 52.743 28.2859C53.0374 28.5678 53.5877 29.0161 54.0229 29.4261C54.1381 29.5542 54.3684 29.9513 54.5348 30.0154C54.2788 29.9257 54.1636 29.4901 54.3812 29.8232C54.461 29.9249 54.5337 30.0319 54.5988 30.1435C54.7395 30.3485 54.8676 30.5662 54.9956 30.784C55.1236 31.0018 55.1107 31.0018 55.1747 31.1171C55.3539 31.4886 55.1747 31.6167 55.1747 31.0146C55.2588 31.4495 55.3743 31.8776 55.5203 32.2957C55.6355 32.68 55.5203 31.5527 55.5203 31.937C55.5203 32.0523 55.5203 32.1676 55.5203 32.2701C55.5203 32.3726 55.5203 32.5007 55.5203 32.6032C55.5203 32.9875 55.6995 31.8089 55.5203 32.3213C55.5203 32.5391 55.4051 32.7569 55.3283 32.9747C55.5715 32.5519 55.0595 33.7561 55.3283 32.9747C55.2259 33.1668 55.1363 33.359 55.0211 33.5512L54.8547 33.8202C54.5988 34.2045 54.5476 33.9483 54.9828 33.6665C54.6628 33.9162 54.3747 34.2045 54.1252 34.5248C54.1252 34.5248 54.8164 34.0508 54.4196 34.2942L54.1765 34.4607C53.9973 34.576 53.8053 34.6785 53.6133 34.781L53.3445 34.9091C53.0118 35.0884 54.0613 34.6529 53.7029 34.7554L53.1526 34.9347C52.9606 34.9347 52.7686 35.0372 52.5766 35.0884H52.2822C51.9111 35.1781 53.1397 35.0884 52.615 35.0884C52.0902 35.0884 51.8215 35.0884 51.4247 35.0884C51.225 35.0637 51.023 35.0637 50.8232 35.0884C50.8232 35.0884 51.6935 35.2422 51.22 35.0884L50.8488 35.0116C50.4484 34.9363 50.0547 34.8292 49.6713 34.6913C49.5561 34.6913 48.8266 34.371 49.4153 34.6016C50.0041 34.8322 49.249 34.512 49.1082 34.4351C48.7626 34.2557 48.4427 33.9483 48.0843 33.7946C48.6986 34.0636 48.5834 34.2045 48.3787 34.0123L48.1483 33.8202C47.9596 33.6506 47.7802 33.471 47.6108 33.2821C47.2652 32.6032 47.342 32.9875 47.6108 33.2821C47.5089 33.1067 47.3934 32.9397 47.2652 32.7825C47.1628 32.616 47.0604 32.4366 46.9708 32.2573C47.15 32.8466 46.6125 31.5527 46.9708 32.2573C46.8274 31.8373 46.7078 31.4096 46.6124 30.9762C46.5918 30.7565 46.5577 30.5383 46.5101 30.3228C46.7277 30.9634 46.5101 30.8609 46.5101 30.5919C46.5101 30.3228 46.5101 30.1819 46.5101 29.9898C46.4781 29.4394 46.4781 28.8876 46.5101 28.3372C46.5101 28.0681 46.5869 27.7735 46.5869 27.5045C46.5869 27.5813 46.4461 28.2859 46.5869 27.7351C46.5869 27.5685 46.5869 27.402 46.6765 27.2226C46.7661 27.0433 46.8045 26.6974 46.8812 26.4412C46.958 26.185 47.2396 25.4548 47.0348 25.9672C46.83 26.4796 47.2012 25.6597 47.2652 25.5572L47.4572 25.2242C47.7772 24.7117 47.4572 25.3138 47.3548 25.3395C47.5517 25.183 47.7279 25.0022 47.8795 24.8014C47.7131 25.2242 47.2908 25.1729 47.6108 25.0192C47.9307 24.8655 47.2652 25.1345 47.2652 25.1345C47.4719 25.1046 47.6741 25.0487 47.8668 24.9679C47.2012 25.2242 47.2012 24.9679 47.5084 24.9679H48.0203C48.3019 24.9679 48.3403 25.1473 47.6876 24.9679C47.8112 24.9741 47.9351 24.9741 48.0587 24.9679C48.3061 25.0192 48.5493 25.0832 48.7882 25.1601L49.4282 25.3779H49.5049C49.0058 25.1985 49.5049 25.3779 49.6585 25.4547C50.5996 25.955 51.5099 26.5111 52.3846 27.1202C52.3846 27.1202 51.7447 26.5949 52.1031 26.9152L52.3335 27.0945L52.7558 27.5045C53.1782 27.9016 53.5877 28.3244 54.0357 28.7855C54.2405 29.0033 54.4452 29.2339 54.6372 29.4645C55.1491 30.0666 54.3684 29.0546 54.8292 29.7079C54.9956 29.9513 55.1492 30.2075 55.3027 30.4638L55.4947 30.8481C55.6867 31.1812 55.3283 30.2075 55.4947 30.7584C55.5212 30.894 55.5598 31.0269 55.6099 31.1555C55.7763 31.7064 55.5203 30.9378 55.6099 30.8993C55.6995 30.8609 55.6099 31.2708 55.6099 31.2836C55.3795 31.0402 55.8019 30.6047 55.6099 31.0146L55.5203 31.2965C55.4179 31.732 55.6355 31.0018 55.6739 30.9634C55.535 31.1855 55.4111 31.4166 55.3027 31.6552L54.8932 32.2829C54.458 32.9106 55.2899 31.8217 54.778 32.411C54.3821 32.8677 53.9544 33.2958 53.4981 33.6921L53.1909 33.9611C52.7558 34.3454 53.3189 33.8202 53.3573 33.833C53.3957 33.8458 52.7942 34.2301 52.7174 34.2686C52.4903 34.3699 52.272 34.4899 52.0647 34.6273C52.3718 34.3198 52.6918 34.4095 52.3463 34.512L51.8855 34.6401C52.7942 34.6401 51.4119 34.781 51.8855 34.6401H51.4887C51.0664 34.6401 51.4887 34.4735 51.7447 34.6401C51.6167 34.5248 51.1176 34.512 50.9512 34.4607C50.8168 34.4299 50.6844 34.3915 50.5544 34.3454C50.0041 34.2045 50.9896 34.5888 50.6568 34.4095L49.9529 34.0252C49.3258 33.6665 50.3369 34.4479 49.8249 33.9355L49.5562 33.6665C49.1338 33.3206 49.4538 33.5768 49.5562 33.6665C49.9785 34.0123 49.5562 33.7689 49.5562 33.5896C49.3386 33.0643 49.633 33.6793 49.5562 33.7561C49.5292 33.629 49.4906 33.5047 49.441 33.3846C49.313 33.0131 49.6329 33.2565 49.441 33.6408C49.5178 33.4871 49.441 33.09 49.441 32.9234C49.441 32.7569 49.441 32.4622 49.441 32.2316C49.441 32.001 49.6201 31.8345 49.441 32.5903C49.441 32.4622 49.441 32.3341 49.5178 32.206C49.5945 32.0779 49.5178 32.001 49.6074 31.9114C49.6074 31.5399 49.2874 32.6032 49.4538 32.2701C49.7225 31.8473 49.5178 32.1548 49.4538 32.2701C49.185 32.6928 49.7353 32.1035 49.1722 32.5519C48.609 33.0003 49.5049 32.4622 48.8394 32.7569C48.1739 33.0515 49.121 32.7569 48.4939 32.8466C48.3915 32.8466 47.8668 32.9362 48.4939 32.8466C48.5963 32.8466 49.2234 32.949 48.4043 32.8466C48.8102 32.9584 49.2341 32.9892 49.6519 32.9371C50.0697 32.885 50.473 32.751 50.8391 32.5428C51.2051 32.3346 51.5266 32.0563 51.7852 31.7238C52.0438 31.3912 52.2345 31.011 52.3463 30.6047C52.458 30.1984 52.4887 29.7741 52.4366 29.3559C52.3846 28.9377 52.2508 28.5339 52.0428 28.1675C51.8348 27.8011 51.5567 27.4793 51.2245 27.2205C50.8923 26.9616 50.5124 26.7708 50.1065 26.659L49.7225 26.9024Z" fill="#004D2B"/>
<path d="M58.2464 38.2018C60.2046 38.4965 61.9067 39.9569 63.7369 40.764C65.9639 41.8144 68.1397 42.993 70.3539 44.0819C72.6654 45.2285 75.0365 46.2505 77.4571 47.1437C78.7369 47.5793 79.94 48.0277 81.1942 48.4248C81.6934 48.5913 82.1797 48.7323 82.6788 48.8732C82.9604 48.95 83.6644 49.2831 83.1268 48.8732L84.5346 43.5183L83.8435 43.6976C79.8504 44.7353 81.5398 50.9101 85.5458 49.8724L86.2369 49.6931C88.3998 49.1294 89.5645 45.8498 87.6575 44.3382C85.7505 42.8265 83.1012 42.3525 80.7975 41.5454C78.3374 40.7125 75.9309 39.7285 73.5919 38.5989C71.2241 37.4332 68.882 36.2033 66.5143 35.0632C64.3513 34.0383 62.3803 32.3857 59.9486 32.0142C59.1316 31.8173 58.2704 31.9396 57.5404 32.3561C56.8103 32.7727 56.2664 33.4521 56.0194 34.2561C55.7989 35.0731 55.909 35.9441 56.3259 36.6804C56.7428 37.4166 57.4328 37.9587 58.2464 38.189V38.2018Z" fill="#004D2B"/>
<path d="M127.832 172.766C134.577 171.485 141.169 169.615 147.901 168.333C154.633 167.052 161.096 167.578 167.802 167.603C171.732 167.603 171.744 161.505 167.802 161.492C160.738 161.492 153.878 161.031 146.877 162.325C139.876 163.619 133.144 165.579 126.207 166.873C125.432 167.094 124.774 167.612 124.377 168.314C123.979 169.016 123.874 169.847 124.082 170.627C124.312 171.398 124.83 172.051 125.529 172.449C126.227 172.848 127.052 172.961 127.832 172.766Z" fill="#004D2B"/>
<path d="M58.2973 191.7C58.5405 192.982 58.9501 194.263 59.2572 195.621C59.5079 196.911 59.5982 198.228 59.526 199.541C59.4572 202.056 58.8551 204.527 57.7598 206.792C57.9134 206.433 57.683 206.958 57.6191 207.073C57.5551 207.189 57.3886 207.535 57.2607 207.752C57.1327 207.97 57.0047 208.188 56.8639 208.406C56.7231 208.623 56.4415 208.944 56.6975 208.649C55.9094 209.504 54.9889 210.226 53.9714 210.788C51.8842 212.288 49.3423 213.017 46.7786 212.851C45.9706 212.854 45.1964 213.176 44.6238 213.747C44.0513 214.318 43.7265 215.091 43.7197 215.9C43.7361 216.707 44.0636 217.476 44.6338 218.047C45.2039 218.618 45.9725 218.945 46.7786 218.962C50.2851 219.146 53.7591 218.208 56.6975 216.284C59.4616 214.819 61.6991 212.526 63.0968 209.725C64.563 206.791 65.433 203.595 65.6565 200.322C65.7615 198.519 65.6671 196.711 65.375 194.929C65.0934 193.289 64.5175 191.713 64.2359 190.073C64.0147 189.294 63.4962 188.633 62.7922 188.232C62.0883 187.832 61.2553 187.725 60.4731 187.934C59.7016 188.167 59.0492 188.688 58.6513 189.389C58.2533 190.09 58.1404 190.918 58.3358 191.7H58.2973Z" fill="#004D2B"/>
<path d="M176.697 125.545C175.021 134.897 185.656 141.021 193.336 143.122C195.309 143.738 197.376 144.003 199.44 143.903C200.246 143.884 201.012 143.555 201.582 142.985C202.151 142.415 202.48 141.647 202.499 140.841C202.489 140.034 202.163 139.262 201.592 138.692C201.02 138.122 200.247 137.799 199.44 137.792C199.04 137.818 198.638 137.818 198.237 137.792C198.007 137.792 197.789 137.792 197.559 137.792C197.329 137.792 196.612 137.869 197.482 137.792C196.476 137.727 195.487 137.502 194.551 137.126C194.001 136.96 193.438 136.78 192.888 136.575L192.043 136.255L191.621 136.089H191.723C190.622 135.576 189.547 135.051 188.51 134.436C188.011 134.141 187.525 133.821 187.039 133.501L186.296 132.963C186.04 132.758 186.066 132.783 186.386 132.963L186.04 132.681C185.592 132.309 185.157 131.912 184.76 131.502L184.185 130.887C184.185 130.81 183.596 130.157 183.903 130.554C184.21 130.951 183.724 130.285 183.673 130.208C183.621 130.132 183.391 129.773 183.263 129.542C183.106 129.34 182.988 129.11 182.917 128.863C183.097 129.312 183.122 129.376 183.007 129.081C182.957 128.964 182.914 128.845 182.879 128.722C182.802 128.492 182.751 128.261 182.687 128.018C182.482 127.211 182.687 128.428 182.687 127.928C182.7 127.685 182.7 127.441 182.687 127.198C182.687 126.34 182.598 127.621 182.687 127.083C182.851 126.318 182.717 125.52 182.313 124.852C181.908 124.184 181.263 123.695 180.511 123.487C179.758 123.279 178.954 123.367 178.264 123.733C177.575 124.099 177.051 124.715 176.8 125.456L176.697 125.545Z" fill="#004D2B"/>
</g>
<defs>
<clipPath id="clip0_195_1636">
<rect width="232" height="219" fill="white"/>
</clipPath>
</defs>
</svg>
