<svg width="268" height="176" viewBox="0 0 268 176" fill="none" xmlns="http://www.w3.org/2000/svg">
<g clip-path="url(#clip0_44_364)">
<path d="M224.97 19.0427C217.504 17.0252 216.148 17.2463 208.942 17.9234C204.969 18.2965 200.147 17.9234 196.366 19.0565C192.585 20.1897 189.516 21.5855 185.996 22.8015C175.036 26.6571 161.337 29.4071 152.309 37.8505C149.569 40.4347 147.624 43.7651 145.021 46.5151C142.144 49.5691 139.308 51.9045 136.637 55.2488C133.335 59.3945 129.28 62.5867 125.513 66.1935C122.349 69.2061 117.841 73.6696 116.362 77.7877C113.8 84.9598 112.252 92.6985 110.307 100.106C108.649 106.628 110.718 114.74 111.348 121.456C111.443 124.305 111.69 127.147 112.088 129.969C112.855 133.755 115.074 137.348 116.773 140.789C120.718 148.776 122.499 160.813 131.198 165.318C134.678 167.128 139.281 168.082 143.021 169.353C147.345 170.906 151.864 171.837 156.446 172.117C167.397 172.818 178.383 172.753 189.325 171.923C194.174 171.454 199.202 171.716 203.558 169.325C208.846 166.451 214.203 163.729 218.86 159.845C225.543 154.312 231.901 148.392 237.902 142.116C242.632 137.126 246.926 131.735 250.739 126.003C253.187 122.667 255.169 119.007 256.629 115.127C257.78 111.589 259.109 108.148 260.246 104.638C261.794 99.8292 262.328 94.343 263.369 89.4372C264.464 84.9945 264.807 80.3971 264.383 75.8392C263.452 66.6634 262.657 57.4598 261.794 48.2701C261.424 44.2488 261.547 40.7249 259.479 37.2149C257.684 34.1747 254.821 30.3053 251.793 28.6332C247.588 26.2287 241.889 25.1784 237.382 23.1056C233.519 21.3229 228.422 21.3782 224.97 19.0704" fill="#8CA54F"/>
<path d="M225.888 15.7126C222.457 14.655 218.899 14.0784 215.312 13.999C211.655 13.999 208.011 14.5794 204.353 14.7038C200.05 14.7639 195.785 15.5245 191.722 16.9563C187.749 18.4211 183.831 19.9274 179.79 21.2126C172.625 23.4789 165.337 25.6209 158.666 29.1862C155.195 31.0006 152.013 33.3297 149.227 36.0957C146.213 39.1636 143.925 42.8394 140.87 45.8796C139.5 47.2616 138.021 48.6435 136.651 50.0254C135.281 51.4073 133.746 53.4525 132.212 55.097C129.308 58.2339 125.993 60.9563 122.897 63.9136C119.926 66.5955 117.278 69.6194 115.006 72.9236C112.718 76.4475 111.691 80.8005 110.581 84.8219C109.362 89.2716 108.348 93.7766 107.225 98.2678C106.233 102.438 106.01 106.757 106.567 111.009C107.019 115.155 107.8 119.148 108.047 123.267C108.083 127.689 108.952 132.065 110.608 136.16C112.102 139.518 114.019 142.696 115.321 146.054C116.526 149.191 117.622 152.37 118.951 155.465C120.21 158.525 121.919 161.376 124.02 163.922C126.546 166.726 129.759 168.808 133.335 169.961C137.158 171.343 141.171 172.504 145.076 173.623C149.44 174.815 153.927 175.483 158.446 175.613C168.066 176.171 177.71 176.134 187.325 175.503C191.614 175.368 195.889 174.934 200.12 174.204C204.503 173.236 208.545 170.597 212.381 168.372C220.08 163.909 226.724 157.814 233.162 151.706C239.81 145.49 245.869 138.661 251.259 131.309C253.764 127.968 256.004 124.434 257.958 120.738C259.865 116.53 261.481 112.194 262.794 107.762C264.171 103.468 265.197 99.0682 265.863 94.6058C266.799 90.2682 267.489 85.8805 267.931 81.4638C267.949 76.766 267.624 72.0732 266.959 67.4236C266.507 62.6007 266.082 57.7503 265.589 52.9688C265.205 48.7126 265.205 44.1661 264.219 39.9927C263.049 36.0708 260.957 32.4917 258.123 29.5593C255.27 26.5311 251.68 24.3106 247.711 23.1196C245.93 22.4839 244.122 21.945 242.341 21.337C240.56 20.7289 238.683 19.8169 236.861 19.1812C233.532 18.0342 229.751 17.9789 226.71 16.0581C222.97 13.695 219.532 19.6648 223.258 22.0279C226.477 24.0593 230.203 24.46 233.779 25.455C235.409 25.9111 236.902 26.6435 238.478 27.2515C240.409 27.9978 242.382 28.6334 244.341 29.2415C247.602 30.3194 250.574 31.4664 252.958 34.0367C255.415 36.453 257.127 39.5338 257.89 42.9085C258.588 46.847 258.643 51.0065 259.013 54.9864C259.424 59.5744 259.835 64.1761 260.273 68.8055C260.912 73.2062 261.182 77.6532 261.082 82.0995C260.794 86.1209 259.712 90.087 259.082 94.053C258.439 98.2021 257.449 102.289 256.123 106.269C254.983 110.221 253.545 114.078 251.821 117.808C247.786 125.113 242.852 131.873 237.135 137.929C231.413 144.132 225.309 149.966 218.86 155.396C215.789 158.052 212.477 160.411 208.969 162.444C205.545 164.434 201.969 166.824 198.01 167.64C194.02 168.279 189.993 168.648 185.955 168.745C181.489 169.063 177.023 169.16 172.543 169.132C164.022 169.132 155.131 169.353 146.87 167.004C143.048 165.912 139.144 164.779 135.39 163.439C132.702 162.58 130.321 160.947 128.541 158.74C124.883 154.097 123.431 148.003 121.225 142.613C119.855 139.214 117.924 136.091 116.485 132.719C114.924 129.084 115.115 125.367 114.718 121.498C114.321 117.628 113.567 113.566 113.225 109.558C113.041 107.722 113 105.873 113.102 104.03C113.324 101.984 113.732 99.9627 114.321 97.9915C115.348 93.8458 116.321 89.6171 117.499 85.4852C118.526 81.8231 119.485 78.1887 121.814 75.1347C126.472 69.0266 133.007 64.7013 138.021 58.9249C140.761 55.7879 143.624 52.8859 146.528 49.9148C149.432 46.9437 151.405 43.5857 154.241 40.7804C159.104 35.9714 165.693 33.2076 172.05 31.0103C175.447 29.8357 178.899 28.7993 182.324 27.7075C186.105 26.5053 189.79 25.0543 193.517 23.7C195.321 22.9638 197.193 22.4084 199.106 22.0417C201.032 21.7932 202.972 21.6685 204.914 21.6686C208.367 21.5442 211.764 21.0191 215.271 20.9777C218.254 21.0031 221.217 21.4686 224.066 22.3596C228.327 23.4927 230.149 16.8319 225.888 15.6987V15.7126Z" fill="#004D2B"/>
<path d="M235.437 60.5418C234.259 60.5418 233.094 60.3069 231.916 60.376C231.346 60.4148 230.779 60.4886 230.217 60.5971C229.672 60.7236 229.144 60.9138 228.642 61.1637C227.648 61.6466 226.819 62.4161 226.258 63.3747C225.953 63.9032 225.792 64.5041 225.792 65.1159C225.792 65.7278 225.953 66.3287 226.258 66.8572C226.552 67.3749 226.978 67.8042 227.491 68.1009C228.016 68.4071 228.611 68.5691 229.217 68.5707C230.124 68.7091 231.043 68.7461 231.957 68.6812C232.908 68.6226 233.838 68.3785 234.697 67.9627C235.332 67.643 235.9 67.2018 236.368 66.6637C236.991 66.0018 237.348 65.13 237.368 64.2177C237.37 63.7635 237.283 63.3134 237.111 62.8934C236.94 62.4735 236.688 62.0919 236.369 61.7707C236.051 61.4496 235.673 61.1951 235.256 61.0222C234.84 60.8492 234.394 60.7611 233.944 60.7629C233.036 60.7658 232.165 61.128 231.519 61.7717C231.381 61.9407 231.225 62.0937 231.053 62.2278L231.752 61.6888C231.57 61.8234 231.372 61.9348 231.163 62.0205L231.985 61.675C231.725 61.7823 231.454 61.8566 231.176 61.8961L232.081 61.7717C231.166 61.8306 230.248 61.7935 229.341 61.6612L232.3 66.8572C232.345 66.7726 232.4 66.6937 232.464 66.6222L231.916 67.327C232.035 67.18 232.168 67.0457 232.313 66.9262L231.628 67.479C231.81 67.3396 232.008 67.2235 232.218 67.1335L231.396 67.479C231.734 67.3448 232.089 67.2565 232.45 67.2164L231.546 67.3408C232.885 67.274 234.227 67.311 235.56 67.4514C236.467 67.4427 237.336 67.0813 237.985 66.4426C238.624 65.7917 238.984 64.9129 238.985 63.9966C238.987 63.5425 238.899 63.0926 238.727 62.6728C238.556 62.253 238.303 61.8716 237.985 61.5506C237.328 60.9235 236.464 60.5641 235.56 60.5418H235.437Z" fill="#004D2B"/>
<path d="M166.762 48.2013C166.645 49.8544 166.728 51.5157 167.008 53.1486C167.113 54.2371 167.442 55.2914 167.975 56.2435C168.509 57.1956 169.234 58.0243 170.104 58.6762C170.709 59.063 171.387 59.317 172.095 59.4218C172.803 59.5265 173.525 59.4797 174.214 59.2842C174.974 59.0714 175.667 58.6665 176.228 58.1078C176.789 57.5492 177.199 56.8554 177.42 56.092C177.694 54.9804 177.694 53.818 177.42 52.7063C177.28 51.9894 177.065 51.2898 176.776 50.6197C176.389 49.6205 175.931 48.6507 175.406 47.7177C175.01 46.9856 174.517 46.3114 173.94 45.7139C173.289 45.0775 172.422 44.7166 171.515 44.7051C171.065 44.7033 170.619 44.7914 170.203 44.9643C169.786 45.1373 169.408 45.3917 169.09 45.7129C168.771 46.0341 168.519 46.4156 168.348 46.8356C168.176 47.2556 168.089 47.7057 168.091 48.1599C168.105 49.0736 168.462 49.9477 169.091 50.6058C169.201 50.7064 169.302 50.8175 169.392 50.9375L168.858 50.2327C169.532 51.164 170.088 52.1759 170.515 53.2453L170.173 52.43C170.505 53.2046 170.744 54.0164 170.885 54.8483L170.762 53.9363C170.789 54.2258 170.789 54.5173 170.762 54.8069L170.885 53.8948C170.864 54.0515 170.822 54.2047 170.762 54.3508L171.118 53.5217L170.954 53.8257L171.488 53.1209L171.283 53.3144L171.981 52.7755C171.914 52.8272 171.841 52.869 171.762 52.8998L172.584 52.5543C172.465 52.6038 172.341 52.6408 172.214 52.6649L173.118 52.5405C172.95 52.5612 172.78 52.5612 172.611 52.5405L173.529 52.6649C173.368 52.6515 173.21 52.6094 173.064 52.5405L173.885 52.886C173.757 52.8609 173.633 52.8191 173.516 52.7616L174.201 53.3006C174.038 53.1709 173.891 53.0225 173.762 52.8584L174.31 53.5493C174.114 53.2909 173.953 53.0074 173.831 52.7063L174.173 53.5217C173.875 52.7588 173.676 51.9597 173.584 51.1448L173.707 52.0707C173.532 50.8025 173.5 49.5183 173.612 48.2428C173.613 47.5586 173.413 46.8895 173.036 46.3202C172.66 45.7509 172.125 45.3071 171.498 45.0451C170.872 44.7832 170.182 44.7147 169.517 44.8485C168.852 44.9824 168.241 45.3124 167.762 45.7968C167.153 46.4676 166.799 47.334 166.762 48.2428V48.2013Z" fill="#004D2B"/>
<path d="M193.777 70.809C198.188 70.809 198.202 63.8994 193.777 63.8994C189.352 63.8994 189.366 70.809 193.777 70.809Z" fill="#004D2B"/>
<path d="M190.475 79.0176C186.502 79.0176 182.584 79.3355 178.817 78.2576C176.721 77.6495 174.42 76.8756 172.296 76.2123C170.926 75.853 169.789 75.9636 168.46 75.5352C167.132 75.1068 165.584 74.3882 164.104 74.0289C161.282 73.338 158.309 73.1583 155.515 72.2324C153.89 71.5307 152.165 71.0923 150.405 70.9334C149.158 70.8955 147.926 70.648 146.761 70.201C144.363 69.5108 141.93 68.9527 139.473 68.5289C136.404 67.7274 132.911 67.8241 130.006 66.7186C125.609 65.0603 121.17 63.6369 116.759 62.1307C112.348 60.6244 107.827 58.5377 103.06 57.5289C100.32 56.9485 97.7034 56.147 95.0183 55.5251C91.3058 54.5716 87.7029 50.8819 84.9493 48.3116C83.141 46.6256 81.4697 44.7601 79.7436 43.005C78.5928 41.8581 77.3462 40.7387 76.2502 39.5364C75.3298 38.3358 74.5484 37.033 73.9213 35.6533C72.6531 33.1565 71.5546 30.5756 70.6335 27.9284C70.1762 26.7702 69.7918 25.584 69.4828 24.3769C69.0581 22.995 67.8936 21.7098 67.5101 20.2312C67.1265 18.7525 67.5101 17.3844 67.195 15.9472C66.8872 14.8458 66.5214 13.7618 66.099 12.6998C65.5784 11.1797 65.2771 9.6043 64.7291 8.12566C64.1811 6.64702 63.7975 4.46358 62.8112 3.48242C61.9766 4.54154 61.3026 5.7198 60.8111 6.97865C59.9604 8.31893 59.2226 9.72884 58.6055 11.1935C56.9285 15.0031 55.5231 18.9284 54.3998 22.9397C51.6599 34.3543 46.4131 45.3681 44.5774 56.9761C43.2074 65.1847 40.2347 73.0892 38.399 81.1458C37.64 85.1985 36.666 89.2072 35.481 93.1545C34.6475 95.3851 34.0639 97.7027 33.7412 100.064C34.9071 98.2961 36.4229 96.7905 38.1935 95.642C39.6098 94.434 41.0966 93.3127 42.6458 92.2839C45.53 90.6026 48.5725 89.2139 51.7284 88.1382C57.3178 86.1621 62.3591 83.2462 68.1676 81.7261C74.449 80.2315 80.8949 79.5581 87.3467 79.7224C89.4975 79.7224 92.2784 79.2249 94.3333 79.7224C95.3608 79.9435 97.0732 81.1872 97.1691 82.3342C97.265 83.4812 94.5525 85.6922 94.2649 87.3091C93.9361 89.8199 93.9638 92.3652 94.347 94.8681C95.2375 100.036 99.4295 103.339 103.786 105.481C105.649 106.393 107.32 107.706 109.266 108.452C111.211 109.198 113.143 109.323 114.965 110.055C119.058 111.649 123.255 112.956 127.527 113.966C132.856 115.348 138.336 115.03 143.87 115.03C146.459 115.03 148.788 115.279 151.172 114.118C153.994 112.736 157.282 110.511 157.761 107.139C158.241 103.768 157.761 99.8153 157.761 96.3605C157.761 95.2688 157.268 92.2148 157.871 91.441C158.748 90.2525 160.994 90.7915 162.296 90.7915C166.355 90.8422 170.398 91.338 174.351 92.2701C178.584 93.1684 182.571 94.3982 186.886 94.4673" fill="#FFF34A"/>
<path d="M190.475 75.4935C187.804 75.4935 185.091 75.6593 182.434 75.3967C179.786 74.9401 177.189 74.2226 174.68 73.2547C172.269 72.5085 169.844 72.3289 167.474 71.4444C164.862 70.6061 162.186 69.9868 159.474 69.5927C157.076 69.1228 154.83 68.045 152.432 67.6304C151.281 67.4369 150.103 67.4922 148.966 67.202C147.596 66.8565 146.35 66.3314 144.993 66.055C142.445 65.5161 139.884 64.908 137.308 64.5626C134.816 64.2981 132.359 63.7653 129.979 62.9734C124.499 60.9558 119.02 59.2975 113.54 57.2384C108.264 55.3662 102.891 53.7885 97.4431 52.5123C95.2992 52.0189 93.2943 51.0408 91.5798 49.6517C89.6644 48.0176 87.8309 46.288 86.0864 44.4696C84.1822 42.5625 82.3601 40.6002 80.4422 38.7347C78.685 36.9334 77.2648 34.8267 76.2502 32.5161C75.0244 29.9662 74.0117 27.3175 73.2227 24.5977C72.8193 23.1755 72.249 21.8069 71.524 20.5211C70.9736 19.4839 70.7356 18.3072 70.839 17.1354C70.7157 14.2058 69.3732 11.3728 68.5786 8.56755C67.7841 5.76228 67.1265 3.03991 65.3319 1.0085C64.6858 0.365435 63.8147 0.00488281 62.9071 0.00488281C61.9995 0.00488281 61.1284 0.365435 60.4823 1.0085C59.526 2.12795 58.7494 3.39162 58.1808 4.75351C57.4822 6.13542 56.6191 7.4206 55.9889 8.89924C54.619 12.0224 53.2491 15.2422 52.2216 18.4759C51.1942 21.7095 50.5092 24.9294 49.4818 28.1492C48.4543 31.3691 47.3995 34.5889 46.3172 37.8226C44.0829 44.2064 42.3334 50.7525 41.0841 57.4042C39.8511 64.3138 37.4948 70.9608 35.755 77.7459C34.8098 81.4218 34.1796 85.1806 33.2344 88.8703C32.2891 92.56 30.8233 96.2359 30.3575 100.174C29.9465 103.712 35.1523 104.693 36.7414 101.916C37.4719 100.827 38.4018 99.8886 39.4813 99.1517C40.9334 98.0048 42.3444 96.761 43.8787 95.7384C46.641 94.0261 49.587 92.6353 52.66 91.5927C59.5097 89.0776 65.8525 85.5676 73.1131 84.2824C76.7369 83.6841 80.4007 83.3654 84.0726 83.3289C85.6754 83.3289 87.2782 83.3288 88.881 83.2321C90.351 83.0233 91.8384 82.9677 93.3196 83.0663C93.1141 83.0663 94.0457 83.3841 93.9498 83.4532V82.4997C94.1142 81.4495 94.0457 81.2283 93.7717 81.8502L93.5525 82.1542C92.4992 83.3282 91.6432 84.6679 91.0181 86.1203C90.3399 89.2526 90.3399 92.4956 91.0181 95.6278C92.1004 102.233 97.402 105.965 102.813 108.936C104.183 109.696 105.553 110.622 106.923 111.285C108.656 111.978 110.443 112.524 112.266 112.916C115.841 113.869 119.266 115.417 122.855 116.398C126.431 117.452 130.102 118.137 133.815 118.443C137.692 118.692 141.582 118.554 145.459 118.581C148.851 118.686 152.194 117.752 155.049 115.9C157.842 114.312 159.922 111.699 160.857 108.604C161.775 104.776 161.118 100.589 161.022 96.7196C161.022 96.1115 161.022 95.5173 160.926 94.9231C160.979 94.2308 160.947 93.5345 160.83 92.8502V92.6568C160.827 92.8625 160.759 93.0619 160.635 93.2259C160.512 93.3899 160.34 93.51 160.145 93.5688C159.131 94.5914 159.241 94.0801 159.748 94.1907C160.419 94.2833 161.097 94.3203 161.775 94.3012C165.852 94.4502 169.908 94.9542 173.899 95.8075C178.091 96.9402 182.38 97.6713 186.708 97.9909C191.119 98.1153 191.119 91.2058 186.708 91.0814C183.002 90.7829 179.332 90.1305 175.748 89.1329C171.921 88.2402 168.026 87.6762 164.104 87.447C161.172 87.3226 157.542 86.6731 155.295 89.0638C153.323 91.1781 154.145 94.4118 154.186 97.0098C154.186 98.7233 154.336 100.423 154.391 102.137C154.612 103.833 154.528 105.556 154.145 107.222C153.405 109.281 150.514 110.953 148.514 111.451C147.044 111.702 145.548 111.767 144.062 111.644C141.98 111.644 139.952 111.644 137.815 111.644C134 111.669 130.198 111.205 126.499 110.262C122.961 109.356 119.475 108.248 116.06 106.946C114.471 106.338 112.827 106.061 111.211 105.564C109.615 104.988 108.096 104.212 106.69 103.256C104.156 101.791 101.608 100.658 99.6213 98.4193C98.0012 96.3638 97.2043 93.77 97.3883 91.1505C97.3883 90.3766 97.5253 89.5336 97.3883 88.7598C97.2513 87.9859 97.3061 88.511 97.5116 88.1241C98.1007 87.0047 99.1418 86.148 99.7583 85.0286C101.567 81.712 99.3336 78.3264 96.2513 76.9168C93.1689 75.5073 89.2372 76.3778 85.922 76.4055C82.0335 76.4123 78.1492 76.6615 74.2912 77.1517C70.0704 77.6808 65.9297 78.7296 61.9619 80.2749C58.1945 81.7673 54.5642 83.55 50.7558 84.9457C46.8046 86.2287 43.0441 88.0464 39.5772 90.349C36.4811 92.6015 32.7275 95.1165 30.7274 98.516L37.1113 100.257C37.4675 97.2171 38.7963 94.3565 39.5772 91.413C40.4539 88.1656 41.0293 84.849 41.7964 81.5739C43.3308 75.0651 45.5638 68.7497 47.0159 62.2271C47.7283 58.9935 48.1666 55.7045 48.9475 52.4846C49.7284 49.2648 50.6873 46.1693 51.6874 43.06C53.7012 36.9382 55.9205 30.8716 57.4685 24.5977C58.3798 21.1672 59.5288 17.8055 60.907 14.5374C61.5224 12.9416 62.2456 11.3902 63.0715 9.89421C63.6594 8.47839 64.4039 7.13399 65.2908 5.88664H60.4412C60.7634 6.54493 61.0028 7.24129 61.1536 7.95951C61.5235 9.16177 61.9071 10.3502 62.2495 11.5663C62.592 12.7824 63.0167 13.9847 63.4414 15.2007C63.8013 16.4246 63.9722 17.697 63.9482 18.9733C64.0989 21.7371 65.7429 23.5889 66.4826 26.1317C67.3244 28.7415 68.2983 31.306 69.4006 33.8151C70.3814 36.41 71.689 38.8669 73.2912 41.1253C75.1117 43.2613 77.0414 45.3001 79.0723 47.2334C82.593 50.9093 86.4152 55.1103 90.9359 57.5424C93.4442 58.6922 96.0794 59.5365 98.7856 60.0575C101.526 60.7485 104.265 61.3151 107.005 62.2271C112.485 64.0789 117.965 66.1379 123.444 68.0173C126.077 69.093 128.777 69.9932 131.527 70.712C134.075 71.2095 136.651 71.4306 139.199 71.9972C140.569 72.3013 141.856 72.4947 143.185 72.7849C144.514 73.0751 145.815 73.5864 147.158 73.9319C148.501 74.2774 149.72 74.2221 150.994 74.4294C152.048 74.6525 153.079 74.9717 154.076 75.3829C157.049 76.3917 160.172 76.599 163.2 77.359C164.57 77.7183 165.94 78.3263 167.31 78.7409C168.68 79.1555 170.05 79.1693 171.419 79.5148C174.584 80.3163 177.557 81.6706 180.804 82.1404C184.031 82.4628 187.276 82.5643 190.516 82.4445C194.928 82.4445 194.928 75.5349 190.516 75.5349L190.475 75.4935Z" fill="#004D2B"/>
<path d="M134.404 84.8213H114.609C111.869 84.8213 107.444 85.305 108.184 89.2296C108.535 90.6438 109.299 91.9193 110.376 92.8916C112.211 94.8678 112.91 94.8263 115.472 95.2685C117.677 95.6416 119.869 96.3049 122.047 96.7471C124.163 97.167 126.317 97.3524 128.472 97.2999C131.034 97.2999 134.541 97.908 137.007 97.2999C140.309 96.4293 141.569 93.5273 141.72 90.3904C141.866 89.7366 141.847 89.0563 141.665 88.4117C141.483 87.7671 141.144 87.1788 140.679 86.7007C139.353 85.5278 137.647 84.884 135.884 84.8904" fill="#8CA54F"/>
<path d="M134.404 81.3665H122.5C119.185 81.226 115.865 81.2582 112.554 81.4632C109.814 81.7534 107.074 82.5826 105.54 85.07C103.745 88.1102 104.923 91.7032 106.978 94.2459C108.585 96.4285 110.956 97.9111 113.609 98.3916C117.212 99.0273 120.705 100.147 124.349 100.534C126.048 100.713 127.746 100.672 129.445 100.741C131.144 100.81 132.76 101.003 134.418 100.962C136.094 101.034 137.763 100.694 139.28 99.9716C140.798 99.2495 142.119 98.1667 143.131 96.8162C144.055 95.4064 144.687 93.8231 144.991 92.1611C145.294 90.499 145.263 88.7923 144.898 87.1429C143.898 83.5361 139.418 81.0486 135.856 81.2974C134.954 81.3151 134.093 81.6847 133.454 82.3288C132.816 82.9729 132.449 83.8414 132.432 84.7522C132.442 85.6651 132.806 86.5376 133.446 87.1832C134.086 87.8287 134.951 88.1962 135.856 88.2069C136.525 88.1861 137.186 88.3588 137.761 88.7044C137.98 88.8288 138.336 89.119 138.267 89.0361C138.199 88.9532 138.267 89.0361 138.267 89.0361C138.267 89.0361 138.267 89.3954 138.267 89.5751C138.344 90.2712 138.273 90.9757 138.061 91.6425C137.848 92.3093 137.498 92.9233 137.034 93.4444C135.665 94.467 133.253 94.0939 131.555 93.9971C129.103 93.8451 126.596 93.9971 124.171 93.6378C121.746 93.2785 119.129 92.4356 116.595 91.9796C115.705 91.8137 114.787 91.717 113.855 91.4683C113.335 91.3163 113.965 91.6479 113.526 91.2886C113.883 91.5788 113.362 91.1504 113.335 91.1228C113.088 90.9155 112.869 90.6667 112.65 90.4456C112.106 89.9027 111.677 89.2539 111.389 88.5386C111.266 88.207 111.293 88.5386 111.389 88.4419C111.485 88.3451 111.019 89.1881 111.115 88.8288C111.115 88.7597 111.472 88.6077 111.526 88.5939C111.581 88.58 111.102 88.7459 111.526 88.5939C111.859 88.487 112.197 88.3993 112.54 88.3313C113.115 88.2069 112.102 88.3313 112.677 88.3313H113.198H114.362C121.02 88.2484 127.692 88.3313 134.349 88.3313C138.747 88.3313 138.761 81.4218 134.349 81.4218L134.404 81.3665Z" fill="#004D2B"/>
<path d="M207.956 116.619C198.174 116.619 188.407 117.13 178.625 116.743C176.484 116.536 174.366 116.134 172.296 115.541C170.299 115.109 168.356 114.456 166.501 113.593C164.721 112.736 162.981 111.782 161.2 110.926C159.67 109.981 158.32 108.769 157.213 107.346C154.117 104.182 149.268 109.074 152.364 112.238C153.765 113.961 155.419 115.457 157.268 116.674C159.076 117.628 160.926 118.54 162.748 119.438C164.853 120.501 167.061 121.344 169.337 121.953C171.714 122.691 174.147 123.232 176.612 123.57C186.982 124.441 197.53 123.57 207.928 123.57C212.339 123.57 212.339 116.66 207.928 116.66L207.956 116.619Z" fill="#004D2B"/>
<path d="M162.077 103.408C157.679 103.408 152.254 103.408 149.172 107.153C147.314 109.698 146.487 112.86 146.857 115.997C147.007 119.203 148.227 122.492 151.651 123.294C152.86 123.529 154.094 123.612 155.323 123.543C156.454 123.605 157.589 123.605 158.72 123.543C160.495 123.378 162.168 122.636 163.488 121.428C164.626 120.298 165.645 119.053 166.529 117.711C169.57 113.565 173.146 106.158 168.584 101.75C165.447 98.7236 160.666 98.9861 156.652 98.9861C155.231 98.8963 153.805 98.9798 152.405 99.2349C150.803 99.6401 149.367 100.539 148.295 101.805C146.185 104.225 144.765 107.176 144.185 110.345C143.964 111.989 143.9 113.65 143.993 115.306C143.908 116.932 144.299 118.547 145.117 119.95C146.925 122.52 149.966 123.128 152.925 122.921C154.365 122.809 155.755 122.344 156.975 121.566C158.195 120.788 159.208 119.721 159.926 118.457C160.953 116.675 161.869 114.828 162.666 112.93C163.707 110.986 164.398 108.871 164.707 106.683C164.821 105.884 164.72 105.069 164.414 104.323C164.108 103.577 163.609 102.928 162.968 102.445C162.327 101.961 161.569 101.66 160.773 101.575C159.978 101.489 159.174 101.621 158.446 101.957C156.542 102.897 155.295 105.094 154.336 106.932C153.317 108.703 152.595 110.631 152.199 112.639C151.87 114.432 151.926 116.274 152.364 118.043C152.574 118.765 153.008 119.399 153.602 119.855C154.197 120.31 154.919 120.561 155.665 120.572C156.892 120.496 158.078 120.101 159.108 119.425C160.138 118.75 160.976 117.816 161.542 116.716C161.994 115.984 162.388 115.217 162.72 114.422C162.981 113.814 163.241 113.206 163.488 112.598L163.707 112.059C163.94 111.492 163.378 112.819 163.611 112.28C164.052 111.486 164.172 110.55 163.944 109.669C163.717 108.788 163.161 108.03 162.392 107.554C160.912 106.752 158.46 107.015 157.706 108.784C157.378 109.53 157.076 110.29 156.761 111.05C156.597 111.437 157.131 110.235 156.761 110.926L156.583 111.354C156.419 111.714 156.241 112.059 156.063 112.418C155.884 112.778 155.72 113.026 155.528 113.33C155.431 113.492 155.326 113.649 155.213 113.8C155.213 113.8 155.734 113.234 155.336 113.607C155.2 113.712 155.076 113.833 154.967 113.966C154.747 114.27 155.624 113.469 155.117 113.828C154.61 114.187 155.323 113.731 155.432 113.703C154.83 113.897 156.282 113.703 155.624 113.703L158.926 116.246C158.926 116.108 158.72 115.196 158.83 116.039C158.83 115.749 158.83 115.445 158.83 115.141C158.83 114.837 158.83 114.726 158.83 114.519C158.83 114.312 158.994 113.413 158.83 114.215C158.918 113.748 159.033 113.287 159.172 112.833C159.241 112.639 159.337 112.446 159.392 112.239C159.501 111.824 158.953 113.261 159.268 112.57C159.83 111.246 160.489 109.967 161.241 108.742C161.345 108.605 161.441 108.462 161.529 108.314C161.898 107.747 161.392 108.411 161.405 108.466C161.419 108.521 162.419 107.526 161.775 108.024C161.131 108.521 161.638 108.134 161.775 108.024C161.176 108.367 160.467 108.456 159.802 108.273C159.295 108.114 158.85 107.8 158.528 107.374C158.308 107.148 158.152 106.867 158.076 106.559C158.145 106.904 158.076 106.739 158.076 106.089V106.6C158.076 106.6 158.241 105.757 158.076 106.255C157.912 106.752 157.871 107.056 157.748 107.457L157.378 108.466C157.117 109.157 157.72 107.72 157.378 108.369C157.309 108.521 157.241 108.687 157.159 108.839C156.556 110.221 155.953 111.506 155.323 112.819C154.96 113.587 154.549 114.33 154.09 115.044L153.967 115.237C153.747 115.541 153.788 115.5 154.09 115.099C154.09 115.224 153.802 115.431 153.72 115.528L153.336 115.915C152.953 116.343 153.98 115.541 153.186 116.011C153.063 116.068 152.944 116.132 152.83 116.205L153.268 116.011L152.871 116.108H153.377H152.884H152.391C151.908 116.144 151.422 116.144 150.939 116.108C150.939 116.025 151.706 116.26 151.172 116.108C150.909 115.993 150.633 115.914 150.35 115.873L150.802 116.053L150.46 115.845C150.528 115.845 151.09 116.398 150.706 115.984L150.994 116.371C150.816 116.053 150.843 116.136 151.062 116.619L150.994 116.398C150.912 116.039 150.898 116.094 150.994 116.578C150.895 116.077 150.872 115.565 150.925 115.058C150.925 114.408 150.925 113.676 150.925 113.082C150.925 112.764 150.925 112.432 150.925 112.114C150.925 111.147 150.802 112.474 150.925 111.948C151.049 111.423 151.172 110.898 151.336 110.373C151.418 110.138 151.528 109.903 151.597 109.654C151.775 109.102 151.254 110.359 151.679 109.461C151.941 108.884 152.234 108.321 152.556 107.775C152.706 107.513 152.884 107.264 153.049 107.001C153.542 106.2 152.61 107.43 153.227 106.766C153.364 106.628 153.514 106.476 153.638 106.324C154.145 105.688 153.158 106.504 153.788 106.172L154.008 106.034C154.35 105.868 154.282 105.882 153.83 106.034C153.83 106.034 154.213 105.937 154.268 105.909C154.994 105.661 153.501 105.909 154.268 105.909H155.268C156.857 105.909 158.446 105.909 160.035 105.909C160.378 105.909 160.72 105.909 161.049 105.909L161.803 105.979C161.172 105.91 162.309 106.089 162.488 106.131C162.666 106.172 163.186 106.338 163.542 106.448C164.173 106.614 162.844 106.006 163.364 106.448L163.666 106.6C164.227 106.877 163.583 106.849 163.515 106.448C163.627 106.566 163.746 106.677 163.871 106.78C164.268 107.056 163.611 106.559 163.652 106.448C163.727 106.598 163.814 106.742 163.912 106.877C164.268 107.333 163.775 106.089 163.83 106.683C163.83 106.683 163.994 107.208 163.953 107.222C163.912 107.236 163.953 106.269 163.953 107.112C163.975 107.337 163.975 107.564 163.953 107.789C163.953 107.789 164.131 106.877 163.953 107.609C163.953 107.872 163.844 108.134 163.775 108.411C163.638 108.894 163.474 109.364 163.31 109.793C163.556 109.088 163.186 110.055 163.145 110.138C162.994 110.484 162.816 110.815 162.638 111.147C162.077 112.158 161.459 113.136 160.789 114.077C160.2 114.947 161.2 113.607 160.556 114.408L160.063 115.016C159.638 115.514 159.145 115.942 158.693 116.398C159.035 115.984 158.967 116.232 158.693 116.398C157.953 116.799 158.693 116.523 158.693 116.467C158.693 116.412 158.063 116.592 158.049 116.647C158.049 116.481 158.816 116.647 158.296 116.647C157.268 116.647 156.241 116.647 155.227 116.647H153.857C153.648 116.619 153.436 116.619 153.227 116.647C153.83 116.44 153.843 116.799 153.377 116.647C152.912 116.495 152.651 116.288 153.514 116.73C153.213 116.55 153.309 116.633 153.775 116.965C153.528 116.716 153.583 116.813 153.939 117.241C153.939 117.241 153.679 116.896 153.734 116.882C153.925 117.366 153.953 117.421 153.83 117.048C153.706 116.675 153.747 116.688 153.72 116.509C153.884 117.269 153.72 116.675 153.72 116.509C153.72 116.343 153.72 115.818 153.72 115.472C153.686 114.846 153.686 114.219 153.72 113.593C153.72 113.441 153.898 112.487 153.72 113.358C153.72 113.068 153.857 112.778 153.912 112.474C154.035 111.755 153.912 112.57 153.843 112.474C153.775 112.377 154.213 111.796 154.254 111.714C154.556 111.188 154.172 111.921 154.104 111.907C154.035 111.893 154.679 111.354 154.693 111.327C154.693 111.603 154.076 111.741 154.693 111.327L155.227 111.009C155.871 110.636 154.487 111.257 155.227 111.009C155.432 110.94 155.624 110.857 155.83 110.801C156.337 110.649 156.843 110.553 157.35 110.442C157.857 110.332 157.432 110.594 157.104 110.442C157.408 110.45 157.712 110.418 158.008 110.345C158.46 110.345 158.912 110.345 159.378 110.276C160.282 110.276 161.186 110.276 162.118 110.276C163.026 110.276 163.897 109.912 164.539 109.264C165.182 108.617 165.542 107.738 165.542 106.822C165.542 105.905 165.182 105.027 164.539 104.379C163.897 103.731 163.026 103.367 162.118 103.367L162.077 103.408Z" fill="#004D2B"/>
<path d="M107.608 123.515C107.841 123.322 107.416 123.515 107.334 123.612C106.808 123.798 106.303 124.039 105.827 124.331C105.375 124.621 104.991 125.008 104.567 125.325C104.142 125.643 104.252 125.602 104.17 125.616C104.717 125.533 104.033 125.616 103.813 125.616C103.594 125.616 102.978 125.616 102.567 125.616C101.786 125.616 101.005 125.505 100.224 125.491H99.2377C99.0734 125.491 97.9774 125.353 98.7994 125.491C98.5254 125.491 98.2514 125.436 97.9774 125.325C97.7719 125.325 97.0459 124.952 97.7993 125.325L97.1417 124.952C97.6075 125.229 97.3472 125.16 97.1417 124.842C97.5116 125.298 97.2513 124.952 97.1417 124.648C96.813 124.109 97.1417 125.091 97.0459 124.358C96.644 120.78 96.566 117.172 96.813 113.579C96.813 111.686 96.6075 109.779 96.7171 107.9C96.8267 106.241 97.676 104.39 97.5664 102.538C97.5455 101.628 97.178 100.762 96.5402 100.118C95.9024 99.4749 95.0433 99.1041 94.1416 99.083C93.2344 99.0866 92.3654 99.4518 91.7239 100.099C91.0824 100.746 90.7204 101.623 90.7168 102.538C90.6916 103.479 90.5253 104.411 90.2236 105.302C89.9615 106.485 89.8419 107.696 89.8674 108.908C89.8674 111.147 89.977 113.358 89.8674 115.611C89.7304 118.064 89.7304 120.523 89.8674 122.976C89.917 124.981 90.4582 126.942 91.4428 128.684C93.6073 131.986 97.2102 132.387 100.813 132.511C103.005 132.511 105.224 132.926 107.279 131.917C107.855 131.618 108.397 131.257 108.896 130.839C108.896 130.839 109.718 130.204 109.334 130.452C110.43 129.886 111.491 129.254 112.512 128.559C113.155 127.91 113.517 127.031 113.517 126.113C113.517 125.196 113.155 124.316 112.512 123.667C111.869 123.018 110.997 122.654 110.088 122.654C109.178 122.654 108.306 123.018 107.663 123.667L107.608 123.515Z" fill="#004D2B"/>
<path d="M86.7442 94.011C85.4464 96.4025 84.7856 99.0927 84.8263 101.819C84.5794 103.798 84.8485 105.808 85.6071 107.65C86.7442 109.668 88.9224 110.566 90.9773 111.299C93.1016 112.073 95.3358 112.498 97.594 112.556C100.58 112.704 103.513 111.718 105.814 109.792C106.194 109.42 106.479 108.961 106.644 108.452C106.809 107.944 106.848 107.403 106.759 106.877C106.687 106.362 106.503 105.87 106.222 105.436C105.94 105.001 105.567 104.634 105.129 104.361C103.864 103.63 102.466 103.16 101.019 102.98C100.854 102.98 100.69 102.883 100.512 102.855C100.019 102.745 100.786 102.924 100.868 103.021C100.95 103.118 100.142 102.524 100.717 103.021C101.293 103.519 100.635 102.924 100.512 102.8C100.389 102.676 100.156 102.441 99.9914 102.247C98.6215 100.755 97.5392 98.972 96.1145 97.5348C95.4714 96.8861 94.5992 96.5217 93.6897 96.5217C92.7803 96.5217 91.908 96.8861 91.2649 97.5348C90.6219 98.1835 90.2606 99.0634 90.2606 99.9808C90.2606 100.898 90.6219 101.778 91.2649 102.427C92.7308 103.905 93.8267 105.743 95.2651 107.263C96.1661 108.295 97.3114 109.079 98.5941 109.544C99.2206 109.718 99.8564 109.856 100.498 109.958C100.813 109.958 101.128 110.11 101.444 110.179C101.759 110.248 101.279 110.179 101.197 110.041C101.352 110.157 101.517 110.258 101.69 110.345L100.909 104.859C100.635 105.094 100.69 105.039 101.101 104.707C100.992 104.793 100.878 104.872 100.759 104.942C100.608 105.039 100.128 105.191 100.033 105.343L100.293 105.232L99.8955 105.356C99.63 105.44 99.3602 105.509 99.0873 105.564L98.6763 105.647H98.964H98.1146C97.6083 105.681 97.1003 105.681 96.594 105.647H96.1693H96.4296L95.5802 105.481C95.0323 105.37 94.4706 105.232 93.9363 105.08C93.402 104.928 93.0322 104.79 92.5664 104.624C92.3224 104.509 92.0706 104.412 91.8129 104.334L92.0595 104.444L91.7307 104.279C91.5389 104.182 91.3471 104.057 91.169 103.947C90.6759 103.671 91.8814 104.61 91.3471 104.071C90.8129 103.532 91.6896 104.583 91.5526 104.361C91.2375 103.836 91.7992 105.246 91.6896 104.735C91.6677 104.579 91.631 104.427 91.58 104.279C91.9088 105.163 91.6622 105.025 91.58 104.541C91.4978 104.057 91.58 103.671 91.58 103.228C91.58 102.786 91.58 102.247 91.58 101.75C91.58 101.252 91.58 101.128 91.58 100.81V100.34C91.58 99.9532 91.58 100.022 91.58 100.534C91.5835 99.8804 91.7235 99.2353 91.991 98.6404C92.0329 98.4902 92.0833 98.3426 92.1417 98.1982C92.2787 97.8389 92.2513 97.8941 92.0595 98.364C92.0595 98.2258 92.4294 97.673 92.4979 97.5487C92.9486 96.7554 93.0719 95.8151 92.8413 94.9308C92.6106 94.0466 92.0444 93.2893 91.2649 92.8225C90.4761 92.3786 89.5475 92.2601 88.6739 92.492C87.8004 92.7239 87.0498 93.2881 86.5798 94.0663L86.7442 94.011Z" fill="#004D2B"/>
<path d="M27.7274 24.4596C22.7545 24.4596 17.9597 25.2059 13.2609 23.2159C10.9616 22.0017 8.40371 21.3708 5.80843 21.378C2.67129 21.6406 -0.150779 23.2298 -8.62572e-05 26.7398C0.205404 30.9961 3.17816 34.437 6.10981 37.2147C7.47975 38.5275 8.97297 39.7436 10.384 41.0287C11.795 42.3139 12.754 43.4885 13.9869 44.6908C16.9049 47.4546 21.5353 50.3843 22.3983 54.5438L24.782 50.2875C18.3296 51.7938 5.26046 46.3076 2.64388 55.5111C1.60274 59.2008 3.60284 63.5262 6.3838 65.8893C8.86338 67.9898 12.2471 68.8742 14.5075 71.1682C17.6173 74.3328 22.4668 69.4408 19.3571 66.2762C17.3296 64.2172 14.7815 63.1393 12.343 61.7021C11.4173 61.2162 10.6156 60.521 10.0004 59.6707C9.67778 59.1726 9.44582 58.6204 9.31546 58.04C9.16476 57.3353 9.31546 58.3302 9.31546 57.6946C9.31546 57.5978 9.24696 56.7825 9.31546 57.2938C9.38395 57.8051 9.31546 57.0312 9.31546 57.1694C9.31546 57.3076 9.06887 57.3905 9.04147 57.4182C9.35922 57.1797 9.74157 57.0447 10.1374 57.0312C11.8418 56.8469 13.562 56.8701 15.261 57.1004C19.0301 57.6201 22.8561 57.5501 26.604 56.893C27.4478 56.6383 28.1645 56.0702 28.6094 55.3034C29.0543 54.5366 29.1944 53.6281 29.0014 52.7611C28.289 49.2926 25.8916 46.4735 23.4258 44.0966C21.1791 41.927 18.8913 39.8541 16.7268 37.6154C14.5623 35.3767 12.3567 33.7875 10.2881 31.7423C9.25361 30.806 8.3338 29.7482 7.54824 28.5916C7.22894 28.1938 6.99973 27.7304 6.87668 27.2339C6.75362 26.7374 6.7397 26.2197 6.83588 25.7172L5.13716 28.7021C6.5071 27.8868 8.10992 28.5777 9.53465 29.1581C11.2641 29.9745 13.0669 30.6224 14.9185 31.0928C19.1379 31.9496 23.3984 31.4521 27.6589 31.4245C31.9193 31.3968 32.07 24.5149 27.6589 24.5149L27.7274 24.4596Z" fill="#004D2B"/>
<path d="M186.503 81.5049C185.361 81.4164 184.218 81.6391 183.191 82.1497C182.164 82.6602 181.292 83.4399 180.667 84.4069C179.945 85.3363 179.436 86.416 179.178 87.5679C178.919 88.7199 178.918 89.9152 179.174 91.0677C180.105 95.7939 186.64 94.8542 190.133 94.7436C195.202 94.564 195.284 90.0313 195.243 86.1067C195.174 79.9572 188.914 80.0401 184.283 80.0401" fill="#FFF34A"/>
<path d="M186.503 78.0504C185.15 78.004 183.801 78.2348 182.539 78.7289C181.277 79.2229 180.128 79.9699 179.16 80.9248C178.039 82.0096 177.145 83.3091 176.528 84.7471C175.912 86.185 175.586 87.7326 175.571 89.2992C175.494 90.7117 175.77 92.1211 176.373 93.3982C176.976 94.6753 177.887 95.7795 179.023 96.6095C180.916 97.771 183.095 98.3697 185.311 98.3369C187.002 98.376 188.694 98.3253 190.38 98.1849C191.751 98.1674 193.096 97.8042 194.292 97.1284C195.488 96.4526 196.498 95.4856 197.229 94.3155C198.259 92.3022 198.764 90.0574 198.695 87.7929C198.931 85.4656 198.452 83.1213 197.325 81.0768C194.448 76.7376 188.996 76.5718 184.324 76.5856C183.416 76.5856 182.545 76.9496 181.903 77.5975C181.26 78.2454 180.9 79.1241 180.9 80.0404C180.9 80.9566 181.26 81.8354 181.903 82.4833C182.545 83.1312 183.416 83.4952 184.324 83.4952C185.818 83.4952 187.297 83.4952 188.79 83.6472C189.393 83.6472 187.996 83.509 188.585 83.6472L189.106 83.7301C189.476 83.7964 189.841 83.884 190.201 83.9927L190.667 84.1447C191.339 84.3658 190.051 83.813 190.53 84.1447C191.01 84.4763 191.133 84.5178 191.434 84.656C191.736 84.7942 191.051 84.3658 191.051 84.3519C191.051 84.3381 191.174 84.4625 191.229 84.5178L191.558 84.8494C191.605 84.9122 191.655 84.9721 191.708 85.0291C191.708 85.0291 191.284 84.3796 191.407 84.656C191.53 84.9323 191.613 84.9876 191.695 85.1535C191.982 85.6095 191.476 84.4072 191.695 84.96C191.695 85.1396 191.804 85.3055 191.845 85.4851C191.887 85.6648 191.845 85.6786 191.845 85.7615C191.969 86.0794 191.845 85.3469 191.845 85.3331C191.825 85.5814 191.825 85.831 191.845 86.0793C191.845 86.867 191.845 87.6547 191.845 88.4286C191.845 88.8017 191.845 89.1748 191.763 89.5341C191.763 90.1421 191.914 88.7464 191.763 89.3407C191.763 89.5341 191.695 89.7414 191.654 89.9487C191.613 90.156 191.448 90.5982 191.352 90.916C191.256 91.2338 191.558 90.4462 191.544 90.4738C191.53 90.5015 191.476 90.6258 191.434 90.6949L191.147 91.1786C190.9 91.6208 191.681 90.6673 191.284 90.9851C191.151 91.0747 191.035 91.187 190.941 91.3168C191.051 91.068 191.613 90.8469 191.092 91.151L190.859 91.2753C190.599 91.4826 191.53 91.068 191.188 91.1371C190.845 91.2062 190.763 91.2891 190.544 91.3306H190.243C189.914 91.4412 190.599 91.3306 190.612 91.3306C190.24 91.2831 189.862 91.2831 189.489 91.3306C188.804 91.3306 188.119 91.4135 187.407 91.4274C186.694 91.4412 185.9 91.4274 185.146 91.4274H184.598C184.448 91.4274 183.79 91.3306 184.434 91.4274C185.078 91.5241 184.434 91.4274 184.27 91.4274L183.681 91.303L183.187 91.151C182.667 90.9851 183.119 91.1509 183.393 91.2615C183.27 91.1786 183.105 91.1233 182.968 91.0404C182.831 90.9575 182.297 90.5705 182.776 90.9713C183.256 91.3721 182.105 90.156 182.626 90.8055C183.146 91.455 182.626 90.8055 182.626 90.6811C182.27 90.1007 182.776 91.2891 182.626 90.7916C182.626 90.5705 182.53 90.3356 182.461 90.1284C182.393 89.9211 182.461 90.3633 182.461 90.4047C182.461 90.4462 182.461 90.004 182.461 89.9072C182.461 89.6032 182.461 89.313 182.461 89.009C182.474 88.885 182.474 88.7599 182.461 88.6359C182.557 88.7188 182.324 89.3959 182.461 88.6359C182.513 88.3452 182.587 88.0588 182.681 87.7791C182.716 87.6573 182.757 87.5373 182.804 87.4198C182.927 86.9914 182.516 87.9449 182.804 87.558C183.092 87.171 183.078 87.0467 183.229 86.7979C183.379 86.5492 183.516 86.3834 183.229 86.7979C182.941 87.2125 183.229 86.7288 183.352 86.6597C183.681 86.2728 184.037 85.9135 184.407 85.5542C184.777 85.1949 183.968 85.8168 184.407 85.5542L184.968 85.2225C185.585 84.8771 184.407 85.3746 184.968 85.2225L185.626 85.0567C186.366 84.8771 185.051 85.0567 185.626 85.0567H186.571C187.479 85.0567 188.351 84.6927 188.993 84.0448C189.635 83.3969 189.996 82.5182 189.996 81.602C189.996 80.6857 189.635 79.807 188.993 79.1591C188.351 78.5112 187.479 78.1472 186.571 78.1472L186.503 78.0504Z" fill="#004D2B"/>
<path d="M184.571 35.5289C184.571 36.662 184.407 37.809 184.571 38.956C184.61 39.5036 184.684 40.0482 184.79 40.5867C184.924 41.1162 185.113 41.6302 185.352 42.1206C185.467 42.3765 185.605 42.6216 185.763 42.853C186.084 43.3218 186.456 43.7529 186.873 44.1382C187.169 44.4702 187.547 44.718 187.969 44.8567C188.393 45.0715 188.865 45.1715 189.338 45.1469C190.234 45.1324 191.087 44.7635 191.715 44.1198C192.343 43.476 192.695 42.6091 192.695 41.706C192.699 41.2514 192.613 40.8006 192.441 40.3804C192.27 39.9602 192.016 39.5791 191.695 39.26C191.484 39.0912 191.295 38.8962 191.133 38.6796L191.667 39.3706C191.501 39.1442 191.363 38.8983 191.256 38.6382L191.599 39.4673C191.455 39.1084 191.358 38.7321 191.311 38.348L191.434 39.26C191.366 38.0219 191.366 36.7808 191.434 35.5427C191.436 35.0885 191.349 34.6384 191.177 34.2184C191.006 33.7985 190.754 33.4169 190.435 33.0957C190.117 32.7745 189.739 32.5201 189.322 32.3472C188.906 32.1742 188.46 32.0861 188.01 32.0879C187.559 32.0864 187.113 32.1747 186.697 32.3478C186.281 32.521 185.903 32.7755 185.585 33.0967C184.958 33.7555 184.6 34.6293 184.585 35.5427L184.571 35.5289Z" fill="#004D2B"/>
<path d="M229.299 40.8357C227.08 40.2553 224.833 41.3608 222.956 42.4525C221.702 43.2004 220.485 44.0121 219.312 44.8847C218.564 45.3627 218.006 46.0918 217.737 46.9437C217.616 47.382 217.583 47.84 217.638 48.2914C217.694 48.7428 217.837 49.1787 218.059 49.5741C218.282 49.9696 218.58 50.3167 218.936 50.5958C219.292 50.8748 219.699 51.0801 220.134 51.2C220.573 51.3273 221.033 51.3624 221.485 51.3029C221.938 51.2435 222.373 51.0909 222.765 50.8545C224.461 49.5366 226.3 48.4148 228.244 47.5103L227.422 47.8558C227.827 47.6791 228.249 47.5493 228.683 47.4689L227.779 47.5932C227.952 47.5725 228.126 47.5725 228.299 47.5932L227.395 47.4689H227.532C228.42 47.6967 229.361 47.5731 230.162 47.1234C230.932 46.6626 231.496 45.9202 231.738 45.0505C231.861 44.6078 231.894 44.1445 231.835 43.6886C231.776 43.2327 231.627 42.7934 231.395 42.3972C230.944 41.6215 230.212 41.052 229.354 40.8081L229.299 40.8357Z" fill="#004D2B"/>
</g>
<defs>
<clipPath id="clip0_44_364">
<rect width="268" height="176" fill="white"/>
</clipPath>
</defs>
</svg>
