<svg width="218" height="223" viewBox="0 0 218 223" fill="none" xmlns="http://www.w3.org/2000/svg">
<g clip-path="url(#clip0_195_1577)">
<path d="M141.02 23.6849C136.429 28.0293 130.963 31.4481 126.346 35.7926C119.501 42.2353 112.878 49.3691 105.11 54.701C97.3787 59.9907 89.921 65.6713 82.7657 71.7209C77.5706 76.1765 72.5724 80.8666 67.3649 85.2974C62.5883 89.3704 57.2946 93.0484 52.875 97.5286C37.8189 112.771 24.277 129.73 8.76534 144.54C5.82148 147.205 3.18673 150.195 0.911029 153.451C-0.763243 156.068 0.221653 158.475 1.09572 161.375C2.20869 164.384 3.61052 167.277 5.28143 170.015C7.4112 174.014 8.97463 178.37 11.8554 181.925C14.4653 185.146 18.3801 187.516 21.4824 190.281C27.055 195.33 33.2039 199.701 39.8009 203.302C44.8853 206.042 50.3513 208.498 55.6326 210.831C57.9471 211.855 60.2123 213.176 62.5883 214.003C66.577 215.385 70.9596 215.817 75.0222 217.088C80.796 218.89 86.7544 220.124 92.6513 221.494C99.7916 223.148 106.883 222.729 114.171 222.729C120.092 222.729 126.765 223.617 132.538 222.198C137.425 220.844 142.136 218.918 146.573 216.459C148.732 215.501 150.948 214.677 153.208 213.99C155.276 213.213 156.901 211.88 158.834 210.917C162.811 208.979 167.181 206.363 171.354 205.165C176.44 203.557 181.273 201.234 185.709 198.266C188.451 196.592 191.334 195.163 194.326 193.996C197.244 192.762 199.521 190.7 202.402 189.417C205.615 187.985 208.299 185.467 211.414 184.085C213.741 183.048 216.843 183.073 217.729 180.135C218.345 178.099 217.729 174.717 217.729 172.545C217.729 168.978 218.123 165.238 217.446 161.733C214.91 148.564 213.679 135.135 210.983 121.942C207.905 106.835 204.409 91.9746 201.516 76.843C200.026 69.055 196.838 61.8965 194.831 54.2813C193.354 48.6409 192.369 42.8154 190.522 37.2737C187.703 29.1278 185.832 20.8461 183.825 12.5892C183.456 11.0587 183.013 9.70106 182.705 8.17062C182.397 6.64018 181.695 5.87496 181.375 4.46794C180.686 1.48112 181.794 -1.07373 177.682 0.271578C174.751 1.45201 172.005 3.0526 169.532 5.02335C167.661 6.35631 165.1 9.58998 162.884 9.6517C162.798 10.096 146.228 18.7726 141.02 23.6849Z" fill="#FFF34A"/>
<path d="M114.565 86.223C109.357 86.223 103.879 86.223 98.8438 87.8028C96.3817 88.5681 94.018 90.1479 91.6174 91.197C88.598 92.6152 85.7723 94.4154 83.2091 96.5535C80.724 98.4477 78.5513 100.722 76.7706 103.292C74.3084 106.859 73.2989 110.698 71.8462 114.672C70.6151 118.004 69.0393 121.078 68.4238 124.632C67.6036 128.587 67.0687 132.597 66.8234 136.629C66.6343 142.195 67.0471 147.765 68.0545 153.242C68.5838 156.068 69.8641 158.03 71.1075 160.536C72.4132 163.43 73.8805 166.249 75.5025 168.978C80.9316 177.432 91.5065 181.888 101.023 183.64C106.692 184.629 112.484 184.688 118.172 183.813C120.732 183.369 123.502 183.172 126.002 182.579C129.03 181.863 131.517 179.456 134.508 178.568C139.433 177.111 145.145 174.655 148.986 171.088C150.574 169.62 152.347 168.262 153.787 166.645C155.769 164.144 157.451 161.419 158.798 158.524C161.203 153.655 162.418 148.282 162.343 142.849C162.343 137.912 162.971 132.432 162.171 127.533C161.395 122.855 160.94 118.584 159.29 114.08C158.498 112.064 157.594 110.094 156.582 108.18C155.99 106.541 155.295 104.942 154.501 103.391C151.841 99.6713 148.436 96.5481 144.505 94.2208C141.852 92.554 138.939 91.3442 135.887 90.6416C132.354 89.9134 128.722 89.4073 125.214 88.531C121.723 87.5983 118.138 87.0601 114.528 86.9265" fill="#F3BC61"/>
<path d="M114.564 83.1375C108.926 83.1375 102.918 83.1375 97.5262 84.9888C94.9163 85.8898 92.6019 87.3832 90.0535 88.531C87.6752 89.6457 85.4219 91.011 83.3318 92.604C78.9368 95.887 74.9359 99.5897 72.4614 104.588C71.297 107.105 70.2736 109.684 69.3959 112.315C68.448 114.906 67.2908 117.424 66.4044 120.041C65.5381 122.86 64.9243 125.752 64.5701 128.68C64.0593 131.613 63.7631 134.579 63.6838 137.554C63.4625 143.357 63.9837 149.164 65.2349 154.834C65.9883 157.283 67.0167 159.639 68.3003 161.856C69.5314 164.325 70.7625 166.929 72.1167 169.336C74.5972 173.489 78.0015 177.012 82.0638 179.629C90.0782 184.924 100.075 187.405 109.603 187.516C112.338 187.539 115.07 187.358 117.778 186.973C120.511 186.59 123.293 186.282 126.013 185.739C128.539 185.063 130.941 183.988 133.129 182.554C135.268 181.586 137.468 180.762 139.715 180.086C142.267 179.119 144.72 177.908 147.04 176.47C149.214 174.983 151.272 173.333 153.196 171.533C157.138 167.895 160.236 163.433 162.269 158.462C164.332 153.678 165.389 148.518 165.371 143.306C165.371 137.554 165.9 131.852 164.989 126.138C164.078 120.423 163.229 115.19 160.853 110.007C160.324 108.859 159.72 107.76 159.191 106.612C158.662 105.465 158.255 103.996 157.628 102.749C156.36 100.418 154.693 98.3295 152.703 96.5782C148.896 92.984 144.397 90.2078 139.481 88.4199C136.922 87.6438 134.309 87.058 131.664 86.6673C128.857 86.149 126.075 85.4331 123.268 84.9147C120.405 84.2662 117.486 83.8983 114.552 83.8163C110.588 83.8163 110.588 89.9874 114.552 89.9874C119.796 90.0615 124.905 91.666 130.027 92.6163C134.693 93.4926 139.112 94.3566 143.15 96.9978C146.597 99.2564 150.734 102.157 152.445 106.057C153.491 108.414 154.501 110.772 155.572 113.117C156.586 115.39 157.341 117.771 157.825 120.214C158.942 125.112 159.487 130.123 159.45 135.148C159.326 139.924 159.573 144.886 158.612 149.588C157.601 154.03 155.809 158.255 153.319 162.066C151.962 164.098 150.301 165.909 148.394 167.435C146.794 168.927 145.068 170.277 143.236 171.471C141.278 172.64 139.218 173.627 137.081 174.421C134.801 175.095 132.568 175.92 130.396 176.889C128.603 178.083 126.646 179.006 124.585 179.629C122.025 180.172 119.39 180.419 116.817 180.863C108.111 182.12 99.2275 180.954 91.1369 177.494C87.3701 175.96 83.9278 173.724 80.9928 170.903C77.6073 167.534 75.773 163.152 73.6063 158.931C72.4975 157.03 71.6173 155.005 70.9841 152.896C70.4665 150.455 70.121 147.98 69.9499 145.491C69.5179 140.231 69.7287 134.938 70.5778 129.729C70.9168 127.192 71.4436 124.684 72.1536 122.225C72.9415 119.757 74.0371 117.424 74.9481 115.005C76.6593 110.414 78.112 105.909 81.5221 102.256C84.7639 98.804 88.6277 95.9982 92.9097 93.9863C95.0137 92.8347 97.1796 91.8005 99.3974 90.8884C101.743 90.1505 104.17 89.7028 106.624 89.5554C109.258 89.3456 111.905 89.3333 114.552 89.3333C118.516 89.3333 118.516 83.1621 114.552 83.1621L114.564 83.1375Z" fill="#004D2B"/>
<path d="M123.022 89.3209C121.899 89.3532 120.801 89.6581 119.821 90.2095C118.701 90.7896 117.58 91.2216 116.497 91.8758C115.873 92.2522 115.295 92.6994 114.774 93.2087C114.047 93.9369 113.247 94.4429 112.521 95.2205C111.794 95.9981 111.376 96.2326 110.797 96.7386C110.448 97.1298 110.123 97.542 109.825 97.9728C109.418 98.4172 109.049 98.8244 108.692 99.2934C105.565 103.525 103.554 108.479 102.844 113.697C102.373 116.139 102.105 118.616 102.044 121.102C102.044 122.275 101.786 123.41 101.786 124.595C101.734 125.743 101.8 126.892 101.983 128.026C102.038 128.535 102.038 129.048 101.983 129.557C102.009 130.253 102.092 130.947 102.229 131.63C102.229 132.136 102.229 132.655 102.229 133.161C102.327 133.926 102.487 134.691 102.598 135.469C102.943 138.122 103.521 140.677 104.1 143.294C104.617 145.651 105.331 147.947 105.971 150.267C106.488 152.02 107.202 153.661 107.769 155.401C108.015 156.228 108.495 157.006 108.741 157.796C108.86 158.224 109.025 158.638 109.234 159.03C109.505 159.499 109.751 159.968 109.985 160.449C110.298 161.082 110.647 161.696 111.031 162.288C111.524 163.054 111.967 163.942 112.385 164.757C112.804 165.571 113.222 166.25 113.616 167.003C114.389 168.489 115.354 169.867 116.485 171.101C118.814 173.277 121.388 175.174 124.154 176.753C125.226 177.42 126.494 177.827 127.626 178.407C127.897 178.543 128.094 178.704 128.365 178.827C128.636 178.95 128.968 178.975 129.214 179.111C129.687 179.456 130.216 179.715 130.778 179.876C130.692 180.394 129.916 180.604 129.547 180.851C129.159 181.142 128.747 181.398 128.316 181.616C127.176 182.068 126.062 182.583 124.979 183.159C124.005 183.726 122.951 184.143 121.852 184.393C121.104 184.48 120.348 184.48 119.599 184.393C118.816 184.437 118.031 184.437 117.248 184.393C115.857 184.245 114.589 183.418 113.21 183.344C111.831 183.27 110.231 183.344 108.754 183.344H105.048C104.402 183.367 103.756 183.301 103.128 183.147C102.463 182.974 101.736 183.147 101.084 182.962L99.1512 182.567C98.5356 182.443 98.0186 182.221 97.3661 182.085C97.0706 182.011 96.7629 182.085 96.4674 182.085C96.172 182.085 95.8765 181.876 95.5687 181.814C94.5838 181.629 93.7098 181.332 92.7619 181.061C91.6357 180.773 90.5454 180.359 89.5118 179.827C88.3915 179.222 87.0496 178.79 85.9909 178.161C84.9322 177.531 84.2551 176.63 83.2333 176.087C82.8024 175.843 82.3908 175.567 82.0022 175.26C81.4482 174.865 80.9188 174.223 80.3402 173.89C80.1309 173.779 79.8971 173.717 79.6878 173.606C79.3717 173.424 79.0782 173.204 78.8137 172.952C78.2966 172.52 77.7057 172.236 77.201 171.866C76.367 171.267 75.5994 170.58 74.9112 169.817C74.0245 168.804 73.2022 167.737 72.449 166.62C72.1905 166.201 71.8457 165.806 71.6241 165.386C71.4025 164.967 71.0948 164.152 70.8485 163.597C70.3069 162.362 69.9499 160.992 69.3959 159.734C69.1326 159.156 68.9304 158.552 68.7927 157.932C68.6203 157.08 68.7927 156.093 68.5342 155.229C67.8817 152.871 67.303 150.637 66.786 148.28C66.4413 146.589 66.3797 144.861 66.0227 143.183C65.8687 141.574 65.8687 139.953 66.0227 138.344C66.0227 137.53 66.2936 136.826 66.2813 136.036C66.2319 135.73 66.2319 135.417 66.2813 135.111C66.4044 134.642 66.429 134.185 66.5398 133.691C66.9706 131.68 67.2907 129.631 67.7708 127.681C68.1648 126.212 68.8419 124.793 69.1866 123.311C69.322 122.781 69.4082 122.349 69.5559 121.83C69.7579 121.314 69.9144 120.782 70.0237 120.238C70.4266 117.457 71.3097 114.767 72.6336 112.29C73.1999 111.056 73.4831 109.723 74.0371 108.587C74.1848 108.303 74.2587 108.032 74.3818 107.748C74.583 107.42 74.8181 107.113 75.0835 106.835L76.1423 105.316C77.0156 104.047 78.0091 102.865 79.1091 101.787C79.7985 101.12 80.3402 100.256 81.0666 99.565C81.916 98.6763 82.6547 97.7136 83.5288 96.862C84.4028 96.0104 85.7324 94.8256 86.8896 93.9122C87.5447 93.283 88.2673 92.7284 89.044 92.2584C89.9921 91.8092 90.8984 91.2763 91.7524 90.6662C92.5526 90.1108 93.4636 89.7776 94.3007 89.2962C95.2027 88.7424 96.1818 88.3265 97.2061 88.062C99.5551 87.3722 101.976 86.958 104.42 86.8278H108.273C109.299 86.7723 110.326 86.7723 111.351 86.8278C112.101 86.9569 112.857 87.0475 113.616 87.0993C114.559 87.0771 115.502 87.1682 116.423 87.3708C117.211 87.5849 117.969 87.9002 118.676 88.3088C119.971 89.1233 121.501 89.4796 123.022 89.3209Z" fill="#004D2B"/>
<path d="M113.752 122.201V121.411C113.78 120.983 113.691 120.556 113.493 120.177C113.351 119.806 113.133 119.47 112.853 119.189C112.573 118.909 112.238 118.69 111.868 118.547C111.49 118.349 111.064 118.26 110.637 118.288L109.825 118.399C109.307 118.536 108.835 118.809 108.458 119.189L107.978 119.806C107.705 120.284 107.561 120.824 107.56 121.374V122.164C107.597 122.974 107.915 123.747 108.458 124.348C108.734 124.64 109.076 124.861 109.455 124.99C109.834 125.189 110.26 125.279 110.687 125.249L111.511 125.138C112.025 125.001 112.493 124.729 112.866 124.348L113.346 123.719C113.624 123.248 113.769 122.711 113.764 122.164L113.752 122.201Z" fill="#004D2B"/>
<path d="M137.364 111.019C137.358 111.055 137.358 111.093 137.364 111.13C137.364 111.414 137.364 111.697 137.475 111.994C137.563 112.256 137.67 112.512 137.795 112.759C137.946 112.99 138.115 113.208 138.299 113.413C138.493 113.602 138.708 113.767 138.94 113.907C139.431 114.187 139.987 114.336 140.552 114.339C140.841 114.318 141.129 114.281 141.414 114.228C141.672 114.145 141.923 114.042 142.165 113.919L142.793 113.438C143.083 113.163 143.299 112.819 143.421 112.438C143.484 112.31 143.537 112.178 143.581 112.043L143.679 111.71C143.79 111.306 143.79 110.88 143.679 110.476C143.665 110.068 143.541 109.672 143.322 109.328C142.884 108.659 142.233 108.159 141.476 107.908L140.663 107.81C140.118 107.805 139.581 107.95 139.112 108.229L138.484 108.711C138.109 109.087 137.838 109.555 137.696 110.068L137.598 110.426L139.74 108.279L140.565 108.168H140.479L141.291 108.279L142.03 108.587L142.658 109.081L143.138 109.71L143.445 110.451C143.445 110.451 143.445 110.451 143.445 110.377L143.556 111.191C143.55 111.13 143.55 111.068 143.556 111.006C143.58 110.578 143.487 110.151 143.285 109.772C143.047 109.221 142.656 108.75 142.158 108.415C141.661 108.08 141.078 107.896 140.479 107.884L139.654 107.982C139.141 108.129 138.675 108.405 138.299 108.785L137.819 109.402C137.539 109.876 137.395 110.418 137.401 110.969L137.364 111.019Z" fill="#004D2B"/>
<path d="M132.637 123.558C136.601 123.558 136.613 117.387 132.637 117.387C128.66 117.387 128.673 123.558 132.637 123.558Z" fill="#004D2B"/>
<path d="M160.447 128.495L160.57 129.125C160.75 129.775 161.138 130.347 161.674 130.755C162.21 131.163 162.864 131.384 163.537 131.383C168.683 130.84 172.019 126.73 174.752 122.744C176.291 120.498 177.522 118.091 178.851 115.709C179.516 114.475 180.366 113.388 180.994 112.154C181.314 111.512 181.548 110.846 181.831 110.192C181.609 110.71 182.003 109.871 182.015 109.846C182.2 109.488 182.151 109.686 181.905 109.846C182.591 109.417 183.087 108.74 183.291 107.954C183.495 107.169 183.391 106.336 183 105.625C182.584 104.923 181.91 104.413 181.122 104.205C180.334 103.997 179.497 104.108 178.79 104.514C177.52 105.448 176.552 106.736 176.008 108.217C175.909 108.451 175.823 108.686 175.725 108.908C175.54 109.365 176.069 108.39 175.614 109.118C175.269 109.649 174.974 110.204 174.629 110.735C173.127 113.105 171.958 115.672 170.468 118.029C169.914 118.893 169.335 119.745 168.744 120.584L168.326 121.152C168.215 121.3 167.92 121.67 168.19 121.349C167.846 121.769 167.489 122.188 167.119 122.583C166.75 122.978 166.368 123.386 165.974 123.756L165.531 124.139C164.879 124.706 165.95 123.916 165.236 124.361C164.838 124.614 164.427 124.844 164.005 125.052C164.596 124.768 163.832 125.052 163.734 125.052C163.635 125.052 162.798 125.2 163.512 125.126L166.479 127.397L166.356 126.767C166.135 125.983 165.614 125.317 164.906 124.915C164.199 124.513 163.362 124.407 162.577 124.62C161.783 124.852 161.112 125.39 160.713 126.117C160.314 126.843 160.218 127.698 160.447 128.495Z" fill="#004D2B"/>
<path d="M184.724 99.96L184.588 99.4909C184.463 99.0432 184.237 98.6303 183.927 98.2837C183.618 97.9372 183.233 97.6662 182.803 97.4915C182.365 97.3096 181.892 97.2295 181.418 97.2573C180.945 97.2851 180.484 97.42 180.07 97.6519C178.866 98.237 177.92 99.2471 177.414 100.489C176.907 101.73 176.875 103.115 177.325 104.378C177.758 105.575 178.459 106.656 179.375 107.538C180.291 108.419 181.396 109.078 182.606 109.463C183.835 109.861 185.157 109.861 186.386 109.463C187.661 109.03 188.76 108.189 189.513 107.069C190.499 105.459 190.932 103.568 190.744 101.688C190.633 99.5824 189.871 97.5637 188.565 95.9117C187.88 95.0787 186.956 94.4777 185.919 94.1905C184.881 93.9034 183.78 93.9441 182.766 94.3072C181.424 94.8332 180.288 95.7816 179.529 97.0102C178.873 98.0576 178.336 99.1754 177.928 100.343C177.516 101.369 177.283 102.458 177.239 103.564C177.282 105.317 177.986 106.988 179.209 108.242C181.498 110.71 185.906 111.29 188.208 108.538C189.156 107.414 189.737 106.026 189.874 104.56C190.01 103.095 189.695 101.623 188.971 100.343C188.508 99.5757 187.861 98.9369 187.089 98.4842C186.318 98.0316 185.445 97.7794 184.551 97.7507C183.675 97.7228 182.807 97.9258 182.034 98.3395C181.261 98.7531 180.609 99.363 180.144 100.108C178.408 102.996 180.304 107.291 183.837 107.353C184.987 107.265 186.089 106.856 187.018 106.171C187.947 105.486 188.665 104.554 189.091 103.48C189.517 102.406 189.634 101.233 189.427 100.096C189.221 98.9586 188.7 97.9023 187.925 97.0472C186.939 96.1171 185.73 95.4581 184.416 95.1341C183.253 94.8218 182.047 94.705 180.846 94.7885C179.985 94.829 179.144 95.0609 178.384 95.4674C177.904 95.7448 177.486 96.1179 177.155 96.5637C176.825 97.0095 176.59 97.5185 176.463 98.0592C176.141 99.7581 176.457 101.516 177.35 102.996C177.742 103.684 178.274 104.283 178.909 104.755C179.545 105.226 180.272 105.561 181.043 105.736C182.132 106.101 183.247 106.382 184.379 106.575C185.098 106.658 185.826 106.572 186.505 106.323C187.185 106.075 187.797 105.671 188.294 105.144C188.921 104.39 189.359 103.498 189.574 102.541C189.788 101.583 189.771 100.589 189.525 99.639C188.626 96.0968 184.478 94.1961 181.104 95.0354C177.411 95.9734 175.762 100.133 176.636 103.675C176.9 104.694 177.407 105.634 178.113 106.415C178.47 106.822 178.901 107.131 179.246 107.55L178.765 106.921C178.866 107.069 178.953 107.226 179.024 107.39C179.227 107.74 179.498 108.047 179.82 108.292C180.142 108.537 180.51 108.716 180.901 108.818C181.292 108.92 181.7 108.943 182.1 108.887C182.501 108.83 182.886 108.695 183.234 108.488C183.931 108.088 184.44 107.426 184.65 106.649C184.827 105.844 184.718 105.001 184.342 104.267C183.799 103.404 183.136 102.623 182.373 101.947L182.853 102.564C182.704 102.359 182.576 102.14 182.471 101.91L182.779 102.651C182.637 102.297 182.538 101.929 182.483 101.552L182.594 102.367C182.545 101.932 182.545 101.493 182.594 101.058L182.483 101.885C182.544 101.502 182.643 101.126 182.779 100.762L182.471 101.503C182.596 101.202 182.762 100.919 182.963 100.663L182.483 101.281C182.631 101.108 182.791 100.947 182.963 100.799L182.348 101.281C182.561 101.119 182.793 100.982 183.037 100.873L182.299 101.182C182.558 101.087 182.826 101.017 183.099 100.972L182.286 101.083C182.695 101.028 183.109 101.028 183.517 101.083L182.705 100.972C183.043 101.029 183.373 101.124 183.69 101.256L182.963 100.947C183.287 101.095 183.596 101.273 183.887 101.478L183.259 100.997C183.501 101.188 183.724 101.403 183.924 101.639L183.444 101.021C183.598 101.225 183.73 101.444 183.837 101.676L183.53 100.947C183.606 101.147 183.663 101.354 183.702 101.564L183.591 100.75C183.628 101.033 183.628 101.319 183.591 101.601L183.702 100.775C183.657 101.076 183.587 101.373 183.493 101.663L183.8 100.923C183.721 101.106 183.622 101.28 183.505 101.441L183.985 100.824L183.727 101.071L184.355 100.577C184.268 100.646 184.172 100.704 184.071 100.75L184.81 100.441C184.652 100.505 184.486 100.551 184.318 100.577L185.142 100.466C184.901 100.497 184.657 100.497 184.416 100.466L185.241 100.577C184.719 100.488 184.208 100.348 183.714 100.157C183.16 99.9476 182.569 99.8489 182.028 99.639L182.766 99.9476C182.608 99.8776 182.456 99.7951 182.311 99.7008L182.939 100.182C182.783 100.051 182.639 99.9062 182.508 99.7501L183 100.38C182.784 100.1 182.606 99.7928 182.471 99.4663L182.779 100.194C182.619 99.7969 182.504 99.383 182.434 98.9602L182.545 99.7748C182.52 99.5327 182.52 99.2887 182.545 99.0466L182.446 99.8736C182.458 99.7282 182.496 99.5861 182.557 99.4539L182.237 100.194C182.267 100.132 182.304 100.074 182.348 100.022L181.868 100.639C181.916 100.572 181.974 100.514 182.04 100.466L181.412 100.947C181.504 100.882 181.603 100.828 181.708 100.787L180.969 101.095C181.184 101.013 181.406 100.955 181.634 100.923L180.821 101.034C181.443 100.96 182.071 100.96 182.692 101.034L181.88 100.935C182.497 101.007 183.101 101.16 183.677 101.392L182.939 101.083C183.302 101.228 183.645 101.419 183.961 101.651L183.333 101.169C183.561 101.346 183.768 101.549 183.948 101.774L183.468 101.157C183.606 101.336 183.722 101.531 183.813 101.737L183.505 100.997C183.577 101.197 183.631 101.404 183.665 101.614L183.554 100.787C183.579 101.017 183.579 101.248 183.554 101.478L183.665 100.663C183.626 100.943 183.551 101.217 183.444 101.478L183.764 100.738C183.629 101.04 183.46 101.326 183.259 101.589L183.739 100.972C183.556 101.199 183.35 101.406 183.123 101.589L183.751 101.108C183.554 101.261 183.339 101.39 183.111 101.49L183.85 101.182C183.699 101.242 183.542 101.283 183.382 101.305L184.195 101.194H183.837L184.65 101.305C184.541 101.292 184.434 101.268 184.33 101.231L185.069 101.54C184.98 101.502 184.897 101.453 184.822 101.392L185.438 101.873C185.337 101.798 185.249 101.706 185.179 101.601L185.659 102.231C185.558 102.09 185.476 101.936 185.413 101.774L185.721 102.515C185.647 102.337 185.598 102.15 185.573 101.959L185.684 102.774C185.672 102.643 185.672 102.51 185.684 102.379L185.573 103.194C185.594 103.041 185.635 102.891 185.696 102.749L185.389 103.477C185.439 103.371 185.496 103.268 185.561 103.169L185.081 103.798C185.175 103.679 185.282 103.572 185.401 103.477L184.773 103.959C184.9 103.873 185.031 103.795 185.167 103.724L184.428 104.045C184.602 103.971 184.784 103.917 184.97 103.885L184.145 103.996C184.337 103.971 184.532 103.971 184.724 103.996L183.837 103.811C184.032 103.835 184.222 103.885 184.404 103.959L183.677 103.65C183.835 103.724 183.983 103.815 184.121 103.922L183.493 103.428C183.632 103.543 183.76 103.671 183.874 103.811L183.394 103.194C183.558 103.406 183.695 103.638 183.8 103.885L183.48 103.144C183.598 103.434 183.681 103.736 183.727 104.045L183.616 103.231C183.671 103.62 183.671 104.014 183.616 104.403L183.727 103.589C183.678 103.978 183.578 104.36 183.431 104.724L183.739 103.984C183.633 104.234 183.496 104.47 183.333 104.687L183.825 104.07C183.681 104.249 183.52 104.414 183.345 104.564L183.961 104.082C183.807 104.204 183.637 104.304 183.456 104.378L184.195 104.07C183.993 104.152 183.782 104.21 183.567 104.243L184.391 104.132C184.109 104.163 183.824 104.163 183.542 104.132L184.367 104.243C184.05 104.198 183.74 104.116 183.444 103.996L184.182 104.304C183.892 104.171 183.616 104.01 183.357 103.823L183.973 104.304C183.687 104.074 183.427 103.813 183.197 103.527L183.677 104.156C183.466 103.862 183.285 103.548 183.136 103.218L183.444 103.959C183.336 103.667 183.257 103.365 183.21 103.058L183.32 103.872C183.283 103.623 183.283 103.369 183.32 103.12L183.21 103.947C183.355 103.057 183.616 102.189 183.985 101.367L183.677 102.107C184.017 101.272 184.455 100.481 184.982 99.7501L184.502 100.38C184.673 100.143 184.872 99.9276 185.093 99.7378L184.478 100.219C184.651 100.097 184.837 99.9937 185.032 99.9106L184.293 100.219C184.503 100.133 184.722 100.071 184.945 100.034L184.121 100.145C184.3 100.12 184.483 100.12 184.662 100.145L183.85 100.034C184.04 100.057 184.227 100.107 184.404 100.182L183.677 99.8736C183.855 99.9599 184.024 100.063 184.182 100.182L183.554 99.7008C183.779 99.8769 183.982 100.08 184.158 100.306L183.677 99.6761C183.944 100.059 184.164 100.474 184.33 100.91L184.022 100.17C184.277 100.821 184.455 101.501 184.551 102.194L184.441 101.367C184.527 102.068 184.527 102.777 184.441 103.477L184.551 102.663C184.488 103.12 184.368 103.568 184.195 103.996L184.515 103.268C184.386 103.564 184.225 103.846 184.034 104.107L184.515 103.477C184.369 103.667 184.199 103.837 184.01 103.984L184.638 103.502C184.477 103.616 184.303 103.711 184.121 103.786L184.859 103.477C184.59 103.587 184.309 103.666 184.022 103.712L184.847 103.601C184.565 103.632 184.28 103.632 183.998 103.601L184.81 103.712C184.463 103.659 184.124 103.564 183.8 103.428L184.539 103.749C184.15 103.579 183.783 103.363 183.444 103.107L184.059 103.589C183.676 103.287 183.333 102.939 183.037 102.552L183.517 103.181C183.294 102.882 183.104 102.559 182.951 102.219L183.259 102.947C183.136 102.654 183.049 102.347 183 102.033L183.111 102.86C183.087 102.643 183.087 102.424 183.111 102.206L183 103.021C183.025 102.838 183.075 102.659 183.148 102.49L182.84 103.218C182.918 103.045 183.013 102.879 183.123 102.725L182.643 103.354C182.776 103.188 182.929 103.039 183.099 102.91L182.471 103.391C182.669 103.249 182.879 103.125 183.099 103.021L178.581 101.182L178.716 101.651C178.933 102.44 179.454 103.11 180.164 103.514C180.874 103.918 181.715 104.022 182.502 103.805C183.289 103.587 183.957 103.065 184.36 102.353C184.763 101.641 184.867 100.798 184.65 100.009L184.724 99.96Z" fill="#004D2B"/>
<path d="M100.518 170.94C105.873 171.792 110.133 166.966 113.21 163.189C115.143 160.755 116.795 158.109 118.135 155.303C119.193 153.204 120.917 150.625 120.597 148.169C120.575 147.357 120.244 146.585 119.671 146.011C119.099 145.437 118.328 145.105 117.519 145.083C116.017 145.145 114.22 146.453 114.441 148.169C114.441 148.268 114.528 148.625 114.441 148.712C114.515 148.235 114.515 148.173 114.441 148.527V148.761C114.367 148.996 114.281 149.23 114.195 149.465C113.924 150.267 114.466 148.934 114.097 149.724C113.727 150.514 113.247 151.415 112.866 152.266C112.299 153.39 111.721 154.5 111.081 155.587C110.724 156.167 110.366 156.747 109.985 157.314C109.8 157.598 109.603 157.882 109.406 158.154L109.111 158.561C109.234 158.413 109.234 158.413 109.111 158.561C107.893 160.097 106.564 161.541 105.134 162.881C104.74 163.251 104.334 163.609 103.903 163.942C104.322 163.609 103.903 163.942 103.682 164.103L103.029 164.51L102.389 164.856C102.709 164.744 102.734 164.683 102.389 164.856C102.069 164.967 101.601 164.856 102.044 164.954C102.758 165.028 100.936 164.781 102.217 164.954C101.431 164.758 100.599 164.873 99.8957 165.276C99.1919 165.678 98.6697 166.336 98.4373 167.114C98.2285 167.901 98.3358 168.739 98.7363 169.447C99.1369 170.156 99.7986 170.679 100.579 170.903L100.518 170.94Z" fill="#004D2B"/>
<path d="M119.673 140.837C118.905 140.757 118.129 140.833 117.391 141.06C116.653 141.286 115.968 141.66 115.377 142.158C114.463 143.2 113.798 144.436 113.432 145.774C113.085 146.678 112.953 147.65 113.045 148.614C113.137 149.578 113.45 150.507 113.961 151.328C114.933 152.69 116.32 153.7 117.913 154.204C119.281 154.662 120.741 154.768 122.16 154.513C122.919 154.38 123.638 154.079 124.264 153.63C124.891 153.182 125.409 152.597 125.78 151.921C126.318 150.883 126.572 149.72 126.518 148.551C126.426 147.419 126.113 146.316 125.595 145.305C125.164 144.496 124.648 143.734 124.056 143.034C123.52 142.362 122.885 141.775 122.172 141.294C121.075 140.558 119.744 140.258 118.437 140.452C117.131 140.646 115.944 141.32 115.106 142.343C114.387 143.157 113.827 144.099 113.456 145.12C113.253 145.87 113.203 146.653 113.309 147.423C113.414 148.193 113.674 148.934 114.072 149.6C114.822 150.96 116.051 151.99 117.519 152.489C118.425 152.758 119.392 152.742 120.288 152.441C121.185 152.141 121.967 151.572 122.53 150.81C123.193 150.038 123.588 149.07 123.655 148.053C123.723 147.037 123.459 146.025 122.903 145.172C122.348 144.318 121.531 143.669 120.575 143.321C119.62 142.974 118.577 142.947 117.605 143.244C116.523 143.604 115.575 144.283 114.885 145.193C114.195 146.103 113.796 147.2 113.74 148.342C113.745 149.313 114.028 150.262 114.553 151.077C115.079 151.893 115.826 152.541 116.706 152.945C117.616 153.394 118.623 153.61 119.636 153.575C120.623 153.494 121.585 153.222 122.468 152.772C123.532 152.232 124.41 151.385 124.989 150.34C125.568 149.296 125.822 148.101 125.718 146.91C125.621 145.729 125.268 144.583 124.684 143.553C124.084 142.53 123.274 141.647 122.308 140.961C121.378 140.275 120.264 139.883 119.11 139.837C117.956 139.791 116.814 140.092 115.832 140.702C114.585 141.519 113.665 142.752 113.235 144.182C112.874 145.491 112.844 146.87 113.149 148.193C113.463 149.7 114.345 151.026 115.611 151.896C116.396 152.37 117.293 152.627 118.209 152.642C119.126 152.658 120.03 152.43 120.831 151.983C122.36 151.129 123.493 149.706 123.982 148.021C124.262 147.08 124.295 146.083 124.079 145.126C123.864 144.168 123.406 143.282 122.751 142.553C122.206 141.949 121.532 141.475 120.78 141.165C120.028 140.855 119.217 140.718 118.405 140.763C116.759 140.848 115.213 141.585 114.109 142.812C112.88 144.185 112.228 145.98 112.287 147.823C112.345 148.664 112.57 149.484 112.948 150.237C113.327 150.989 113.851 151.658 114.491 152.205C115.229 152.815 116.06 153.303 116.953 153.649C117.715 153.918 118.51 154.084 119.316 154.142C120.825 154.271 122.341 153.998 123.711 153.353C124.441 153.012 125.093 152.522 125.623 151.914C126.153 151.306 126.55 150.594 126.789 149.823C127.063 148.858 127.093 147.84 126.875 146.861C126.78 146.201 126.544 145.57 126.186 145.009C125.474 143.963 124.541 143.086 123.453 142.442C122.387 141.738 121.146 141.345 119.87 141.306C118.825 141.324 117.823 141.723 117.051 142.43C116.463 142.999 116.064 143.736 115.906 144.54C115.716 145.345 115.825 146.192 116.214 146.922C116.629 147.61 117.289 148.113 118.061 148.329C118.455 148.44 118.868 148.47 119.274 148.417C119.68 148.364 120.071 148.229 120.424 148.021C120.771 147.824 121.075 147.561 121.318 147.245C121.561 146.929 121.739 146.567 121.84 146.182C121.86 146.046 121.897 145.913 121.951 145.787L121.631 146.527L121.742 146.33L121.261 146.947L121.446 146.762L120.831 147.243L121.003 147.144L120.264 147.453C120.364 147.417 120.467 147.392 120.572 147.379L119.76 147.49H120.166L119.353 147.391C119.65 147.431 119.939 147.51 120.215 147.626L119.489 147.317C120.016 147.551 120.512 147.849 120.966 148.206L120.338 147.712C120.674 147.973 120.98 148.271 121.249 148.601L120.769 147.971C120.867 148.104 120.953 148.244 121.028 148.391L120.72 147.65C120.841 147.955 120.92 148.275 120.954 148.601L120.843 147.774C120.874 148.028 120.874 148.285 120.843 148.539L120.954 147.712C120.915 147.939 120.858 148.162 120.781 148.379L121.089 147.638C121.002 147.837 120.891 148.023 120.757 148.193L121.237 147.576C121.101 147.744 120.948 147.897 120.781 148.033L121.397 147.552C121.149 147.739 120.881 147.896 120.597 148.021L121.335 147.712C120.907 147.88 120.461 148 120.006 148.07L120.818 147.959C120.262 148.027 119.7 148.027 119.144 147.959L119.957 148.07C119.453 148.001 118.961 147.868 118.492 147.675L119.23 147.984C118.847 147.827 118.487 147.619 118.159 147.367L118.787 147.848C118.528 147.649 118.296 147.417 118.098 147.157L118.578 147.786C118.42 147.576 118.288 147.348 118.184 147.107L118.492 147.848C118.397 147.604 118.327 147.352 118.282 147.095L118.393 147.922C118.356 147.652 118.356 147.378 118.393 147.107L118.282 147.922C118.331 147.592 118.417 147.269 118.541 146.959L118.233 147.687C118.394 147.299 118.605 146.934 118.861 146.601L118.381 147.218C118.538 147.02 118.716 146.838 118.91 146.675L118.295 147.157C118.499 147.008 118.717 146.879 118.947 146.774L118.208 147.083C118.464 146.984 118.727 146.91 118.996 146.861L118.184 146.972C118.425 146.941 118.669 146.941 118.91 146.972L118.098 146.861C118.339 146.894 118.575 146.961 118.799 147.058L118.061 146.737C118.235 146.818 118.4 146.918 118.553 147.033L117.938 146.552C118.092 146.68 118.233 146.825 118.356 146.984L117.876 146.354C118.007 146.531 118.119 146.721 118.208 146.922L117.901 146.194C117.985 146.382 118.039 146.582 118.061 146.786L117.962 145.96C117.987 146.202 117.987 146.446 117.962 146.688L118.073 145.861C118.035 146.141 117.961 146.415 117.851 146.675L118.159 145.935C118.026 146.256 117.852 146.559 117.642 146.836L118.122 146.219C117.929 146.464 117.706 146.684 117.457 146.873L118.085 146.391C117.895 146.538 117.688 146.662 117.47 146.762L118.196 146.441C118.013 146.524 117.818 146.578 117.618 146.601L118.43 146.49C118.263 146.515 118.093 146.515 117.925 146.49L118.738 146.601C118.574 146.578 118.413 146.536 118.258 146.478L118.984 146.786C118.815 146.716 118.657 146.62 118.516 146.503L119.132 146.984C118.989 146.868 118.861 146.735 118.75 146.589L119.23 147.218C119.088 147.023 118.968 146.812 118.873 146.589L119.181 147.33C119.034 146.97 118.935 146.592 118.885 146.206L118.996 147.033C118.95 146.623 118.95 146.209 118.996 145.799L118.885 146.626C118.936 146.25 119.031 145.881 119.169 145.528L118.861 146.268C118.952 146.06 119.063 145.862 119.193 145.676L118.713 146.305C118.873 146.1 119.059 145.917 119.267 145.762L118.639 146.243C118.846 146.081 119.074 145.948 119.316 145.848L118.578 146.157C118.78 146.077 118.991 146.019 119.206 145.984L118.393 146.095C118.618 146.064 118.846 146.064 119.07 146.095L118.258 145.984C118.502 146.025 118.741 146.092 118.972 146.182L118.233 145.873C118.532 146.001 118.813 146.167 119.07 146.367L118.59 145.774C118.921 146.032 119.219 146.331 119.476 146.663L118.996 146.046C119.264 146.406 119.491 146.795 119.673 147.206L119.366 146.478C119.518 146.849 119.622 147.239 119.673 147.638L119.575 146.811C119.612 147.135 119.612 147.462 119.575 147.786L119.686 146.972C119.648 147.226 119.578 147.475 119.476 147.712L119.796 146.984C119.698 147.21 119.569 147.421 119.415 147.613L119.907 146.984C119.757 147.174 119.583 147.344 119.39 147.49L120.018 147.009C119.765 147.204 119.488 147.366 119.193 147.49L119.92 147.181C119.605 147.319 119.274 147.414 118.935 147.465L119.747 147.354C119.51 147.379 119.271 147.379 119.033 147.354L119.846 147.465C119.585 147.429 119.329 147.362 119.082 147.268L119.821 147.576C119.591 147.477 119.372 147.353 119.169 147.206L119.796 147.687C119.657 147.573 119.529 147.444 119.415 147.305L119.895 147.934C119.789 147.792 119.698 147.639 119.624 147.478L119.944 148.218C119.885 148.084 119.843 147.943 119.821 147.799L119.932 148.625C119.907 148.445 119.907 148.263 119.932 148.082L119.821 148.897C119.853 148.737 119.898 148.58 119.957 148.428L119.649 149.169C119.744 148.96 119.86 148.762 119.993 148.576L119.513 149.206C119.668 149.001 119.851 148.818 120.055 148.662L119.427 149.144C119.576 149.034 119.737 148.943 119.907 148.872L119.169 149.181L119.575 149.07L118.75 149.181H119.218L118.405 149.07C118.554 149.092 118.699 149.133 118.836 149.193L118.098 148.885C118.231 148.947 118.359 149.021 118.479 149.107L117.851 148.625C117.946 148.698 118.033 148.781 118.11 148.872L117.63 148.255C117.726 148.366 117.805 148.491 117.864 148.625L117.544 147.897C117.605 148.035 117.646 148.18 117.667 148.329L117.556 147.502C117.556 147.638 117.556 147.761 117.556 147.897L117.667 147.083C117.642 147.254 117.592 147.42 117.519 147.576L117.839 146.836C117.751 147.016 117.644 147.186 117.519 147.342L117.999 146.712C117.896 146.847 117.776 146.967 117.642 147.07L118.27 146.589C118.15 146.675 118.022 146.749 117.888 146.811L118.627 146.503C118.523 146.539 118.416 146.564 118.307 146.577L119.119 146.478C118.988 146.49 118.856 146.49 118.725 146.478L119.55 146.577C119.394 146.554 119.241 146.513 119.095 146.453L119.821 146.762C119.626 146.674 119.44 146.567 119.267 146.441L119.895 146.922C119.677 146.743 119.479 146.54 119.304 146.317L119.784 146.947C119.579 146.671 119.406 146.373 119.267 146.058L119.575 146.786C119.481 146.551 119.411 146.307 119.366 146.058L119.476 146.873C119.452 146.66 119.452 146.444 119.476 146.231L119.366 147.058C119.389 146.923 119.427 146.791 119.476 146.663L119.169 147.391C119.358 146.951 119.602 146.536 119.895 146.157L119.415 146.774C119.624 146.501 119.863 146.252 120.129 146.034L119.501 146.515C119.668 146.396 119.845 146.292 120.03 146.206L119.292 146.515C119.465 146.441 119.647 146.391 119.833 146.367L119.009 146.478C119.168 146.459 119.329 146.459 119.489 146.478L118.664 146.367C118.886 146.392 119.102 146.455 119.304 146.552L118.565 146.231C118.823 146.353 119.066 146.501 119.292 146.675L118.676 146.194C119.099 146.561 119.479 146.975 119.809 147.428L119.329 146.811C119.819 147.402 120.233 148.053 120.56 148.749L120.252 148.021C120.409 148.417 120.517 148.832 120.572 149.255L120.461 148.44C120.492 148.732 120.492 149.025 120.461 149.317L120.572 148.502C120.526 148.806 120.448 149.104 120.338 149.391L120.646 148.662C120.567 148.842 120.468 149.012 120.35 149.169L120.831 148.551C120.742 148.663 120.643 148.766 120.535 148.86L121.151 148.379C120.994 148.496 120.825 148.596 120.646 148.675L121.385 148.366C121.114 148.47 120.834 148.545 120.547 148.588L121.372 148.477C120.964 148.529 120.55 148.529 120.141 148.477L120.954 148.588C120.4 148.509 119.858 148.359 119.341 148.144L120.08 148.453C119.7 148.295 119.34 148.092 119.009 147.848L119.636 148.329C119.412 148.157 119.209 147.958 119.033 147.737L119.513 148.354C119.365 148.165 119.24 147.957 119.144 147.737L119.452 148.477C119.352 148.24 119.282 147.991 119.243 147.737L119.353 148.551C119.322 148.268 119.322 147.983 119.353 147.7L119.243 148.514C119.36 147.899 119.545 147.299 119.796 146.725L119.489 147.465C119.658 147.004 119.881 146.565 120.154 146.157L119.673 146.786C119.759 146.676 119.858 146.576 119.969 146.49L119.341 146.972C119.433 146.904 119.532 146.846 119.636 146.799L118.898 147.12C119.075 147.046 119.261 146.996 119.452 146.972L118.639 147.083C119.049 147.049 119.461 147.049 119.87 147.083C120.687 147.083 121.469 146.758 122.047 146.179C122.624 145.6 122.948 144.815 122.948 143.997C122.948 143.179 122.624 142.394 122.047 141.815C121.469 141.237 120.687 140.912 119.87 140.912L119.673 140.837Z" fill="#004D2B"/>
<path d="M90.4967 182.801C90.4967 183.776 90.4967 184.739 90.4967 185.714C90.4967 186.224 90.4598 186.73 90.3859 187.232C90.3859 187.578 90.3859 187.899 90.3859 187.368C90.3506 187.683 90.2971 187.997 90.2259 188.306C90.1397 188.775 90.0289 189.232 89.9058 189.688C89.8326 189.948 89.7463 190.203 89.6472 190.453C89.3764 191.219 89.8688 190.133 89.5734 190.663C89.4133 190.935 89.1918 191.651 88.9086 191.786C89.1671 191.453 89.1918 191.416 88.9825 191.663C88.8937 191.775 88.7948 191.878 88.687 191.972C88.5393 192.12 87.9853 192.428 88.5762 192.095C88.3669 192.206 88.1699 192.354 87.9607 192.465L87.5298 192.675L87.7021 192.601C87.185 192.774 86.6803 192.959 86.1632 193.095C85.1414 193.379 84.1074 193.588 83.1102 193.897C82.4946 194.094 81.8791 194.304 81.2759 194.44C81.202 194.44 80.3403 194.613 81.042 194.514L80.2049 194.6C79.429 194.694 78.66 194.839 77.9027 195.032L77.1395 195.205C76.7825 195.267 76.8193 195.267 77.2502 195.205H76.7332L79.7124 197.476L79.6016 196.847C79.3831 196.06 78.8627 195.393 78.1544 194.99C77.446 194.588 76.6074 194.483 75.8222 194.699C75.0479 194.935 74.3931 195.459 73.9923 196.164C73.5916 196.868 73.4755 197.7 73.6678 198.488L73.7663 199.118C73.9503 199.766 74.3389 200.336 74.8739 200.743C75.409 201.151 76.0614 201.373 76.7332 201.376C77.5645 201.38 78.3927 201.272 79.1954 201.055L79.9586 200.87C80.1187 200.87 81.1897 200.525 80.3403 200.759C81.1405 200.549 82.0145 200.586 82.8024 200.401C83.5903 200.216 84.169 200.006 84.8461 199.797C87.4929 199.007 90.1643 198.562 92.3925 196.81C96.4058 193.601 96.6029 187.541 96.6029 182.814C96.6029 181.995 96.2786 181.21 95.7014 180.632C95.1242 180.053 94.3414 179.728 93.5252 179.728C92.7089 179.728 91.9261 180.053 91.3489 180.632C90.7717 181.21 90.4475 181.995 90.4475 182.814L90.4967 182.801Z" fill="#004D2B"/>
<path d="M150.007 173.878H150.66C151.091 173.878 150.66 173.804 150.5 173.878C150.795 173.791 151.423 174.075 151.731 174.162C152.039 174.248 152.1 174.285 152.273 174.347C151.952 174.199 151.916 174.223 152.273 174.347C152.657 174.534 153.027 174.748 153.381 174.989C153.688 175.186 153.479 175.087 153.307 174.989C153.479 175.149 153.664 175.285 153.824 175.445C153.984 175.606 154.082 175.729 154.205 175.865C153.935 175.384 154.329 176.001 154.205 175.865C154.292 176.038 154.39 176.186 154.489 176.346C154.636 176.408 154.772 176.852 154.489 176.346C154.698 176.457 154.87 177.581 154.932 177.84C155.055 178.309 155.153 178.79 155.239 179.271C155.239 179.518 155.326 179.765 155.35 180C155.276 179.42 155.35 180.086 155.35 180.197C155.35 180.715 155.437 181.234 155.437 181.765C155.437 181.999 155.437 182.246 155.437 182.493C155.437 182.74 155.338 183.27 155.437 182.629C155.36 183.08 155.253 183.525 155.116 183.962C155.116 183.962 154.809 184.739 154.969 184.406C155.129 184.073 154.833 184.603 154.796 184.665C154.053 185.861 153.802 187.298 154.095 188.676C154.319 189.462 154.841 190.129 155.55 190.533C156.259 190.936 157.098 191.045 157.886 190.836C158.662 190.598 159.316 190.071 159.717 189.365C160.118 188.658 160.233 187.824 160.041 187.035C160.041 187.035 160.041 188.195 159.905 188.133L160.225 187.602C160.561 186.963 160.837 186.293 161.05 185.603C161.402 184.455 161.584 183.262 161.592 182.061C161.63 179.607 161.247 177.164 160.459 174.841C159.646 172.735 158.207 170.93 156.338 169.67C154.469 168.409 152.26 167.754 150.007 167.793C149.191 167.793 148.408 168.118 147.831 168.697C147.254 169.276 146.93 170.06 146.93 170.879C146.93 171.697 147.254 172.482 147.831 173.061C148.408 173.639 149.191 173.964 150.007 173.964V173.878Z" fill="#004D2B"/>
<path d="M138.004 126.249C136.47 126.158 134.94 126.496 133.585 127.224C132.94 127.634 132.363 128.142 131.874 128.73C131.467 129.199 130.95 129.569 130.556 130.05C129.748 130.969 129.309 132.157 129.325 133.383C129.325 134.099 129.325 134.814 129.325 135.518C129.398 136.399 129.588 137.267 129.891 138.098C130.16 139.152 130.665 140.132 131.369 140.961C131.981 141.585 132.711 142.08 133.516 142.417C134.322 142.754 135.186 142.926 136.059 142.923C137.677 143.173 139.333 142.976 140.848 142.356C141.524 141.964 142.155 141.5 142.732 140.973C143.308 140.519 143.81 139.978 144.221 139.369C144.953 138.168 145.528 136.878 145.932 135.53C146.468 134.04 146.541 132.422 146.142 130.89C145.823 129.721 145.087 128.711 144.073 128.051C143.127 127.458 142.038 127.133 140.922 127.113L141.735 127.224C141.352 127.135 140.978 127.015 140.614 126.866C140.041 126.661 139.438 126.552 138.829 126.545C138.015 126.552 137.236 126.879 136.66 127.456C136.084 128.033 135.758 128.814 135.751 129.631C135.767 130.444 136.097 131.22 136.67 131.795C137.244 132.37 138.018 132.7 138.829 132.716C138.94 132.704 139.051 132.704 139.161 132.716L138.349 132.605C138.769 132.705 139.181 132.837 139.58 133C140.196 133.165 140.827 133.268 141.464 133.309L140.651 133.198H140.947C141.427 133.284 140.491 132.926 140.688 133.074C141.107 133.358 140.885 133.222 140.688 133.074C140.491 132.918 140.454 132.893 140.577 133C140.774 133.185 140.676 133 140.282 132.581C140.323 132.639 140.36 132.701 140.393 132.766C140.393 132.766 140.122 131.963 140.208 132.346C140.294 132.729 140.306 132.753 140.343 132.975L140.233 132.149C140.282 132.6 140.282 133.055 140.233 133.506L140.343 132.679C140.254 133.218 140.101 133.744 139.888 134.247C139.777 134.568 139.654 134.876 139.531 135.197C139.408 135.518 139.531 135.296 139.691 134.827C139.691 134.926 139.605 135.024 139.568 135.111L139.359 135.543L139.125 135.938C139.074 136.025 139.017 136.107 138.952 136.184L139.26 135.802C139.26 136.012 138.706 136.333 138.546 136.468C138.424 136.549 138.308 136.64 138.201 136.74C138.866 136.135 138.509 136.518 138.312 136.653L137.918 136.9C137.635 137.048 137.758 136.999 138.287 136.765C138.186 136.795 138.084 136.82 137.98 136.839L138.792 136.728C138.214 136.758 137.635 136.758 137.056 136.728C136.551 136.734 136.045 136.709 135.542 136.653L136.367 136.765C136.18 136.739 135.995 136.702 135.813 136.653C135.099 136.456 136.33 136.974 135.911 136.715L135.739 136.604C135.542 136.481 135.653 136.604 136.084 136.888L135.862 136.678C135.665 136.444 135.727 136.53 136.059 136.937L135.887 136.641C136.084 137.135 136.121 137.221 136.022 136.913L135.875 136.431C135.7 135.978 135.56 135.512 135.456 135.037L135.567 135.851C135.567 135.321 135.567 134.79 135.567 134.247C135.536 133.786 135.536 133.325 135.567 132.864L135.456 133.679C135.542 133.284 135.308 133.938 135.284 134C135.468 133.63 135.062 134.222 135.05 134.259C135.05 134.086 135.407 133.876 135.542 133.753C135.872 133.459 136.185 133.146 136.478 132.815C136.631 132.676 136.775 132.528 136.909 132.371C136.909 132.371 136.269 132.79 136.626 132.593L136.847 132.445C136.933 132.411 137.015 132.37 137.093 132.321C136.379 132.766 136.515 132.543 136.786 132.482C136.98 132.429 137.177 132.388 137.376 132.358L136.564 132.457C137.058 132.401 137.556 132.377 138.054 132.383C138.87 132.383 139.653 132.058 140.23 131.479C140.807 130.901 141.131 130.116 141.131 129.297C141.131 128.479 140.807 127.694 140.23 127.116C139.653 126.537 138.87 126.212 138.054 126.212L138.004 126.249Z" fill="#004D2B"/>
</g>
<defs>
<clipPath id="clip0_195_1577">
<rect width="218" height="223" fill="white"/>
</clipPath>
</defs>
</svg>
