<svg width="196" height="194" viewBox="0 0 196 194" fill="none" xmlns="http://www.w3.org/2000/svg">
<g clip-path="url(#clip0_195_1864)">
<path d="M192.263 93.4736C191.279 92.3521 188.849 89.8847 187.217 89.7352C185.926 89.4719 184.671 89.0535 183.48 88.489C186.819 84.6509 190.693 79.8905 188.239 74.5321C187.573 72.8592 186.325 71.4831 184.726 70.6566C183.06 69.7798 181.257 69.194 179.394 68.9244C177.55 68.6503 178.634 67.3918 179.269 66.2578C180.228 64.5257 184.576 61.1486 184.352 59.1796C184.103 56.9864 184.589 54.7184 180.428 52.9489C179.269 52.438 173.962 53.4723 172.853 53.086C173.638 51.0797 174.61 49.2354 175.233 47.1543C176.098 44.5109 176.098 41.6603 175.233 39.0169C174.883 38.0602 174.262 37.2265 173.445 36.6177C172.629 36.009 171.652 35.6518 170.636 35.59C168.867 35.3408 167.085 36.9733 165.503 37.5341C164.818 37.7833 164.868 38.1821 164.619 37.235C164.195 35.6026 164.843 33.6461 164.519 31.9389C164.075 28.9676 162.603 26.2463 160.358 24.2501C159.493 23.5587 158.487 23.0654 157.411 22.8049C156.335 22.5444 155.214 22.523 154.129 22.7423C152.859 23.1194 151.634 23.6377 150.479 24.2876C149.931 24.5742 148.137 26.6429 147.564 26.7052C146.854 25.945 147.277 24.0756 147.165 23.1286C147.017 21.1754 146.576 19.2556 145.857 17.4338C144.611 14.5801 141.846 11.3525 138.382 12.5613C136.763 13.3482 135.265 14.3638 133.935 15.577C132.951 16.2873 131.742 17.4836 131.082 16.5366C129.164 13.7701 128.877 8.26219 125.675 6.75435C125.143 6.42824 124.543 6.22731 123.922 6.16687C123.3 6.10643 122.673 6.18801 122.087 6.40539C120.468 7.178 119.783 8.98483 118.799 10.3681C118.138 11.2902 117.553 12.9476 116.519 11.6142C115.485 10.2808 115.796 7.48954 114.725 6.40539C113.05 4.74382 110.846 3.72094 108.496 3.51425C106.241 3.32733 104.534 4.53609 102.89 6.00654C102.155 6.65454 101.582 7.42725 100.909 8.13755C100.292 8.62483 99.7686 9.22007 99.3643 9.89451C99.1039 10.6991 99.0525 11.5568 99.2148 12.3868C97.4333 9.68266 94.3437 6.01906 90.7559 6.06891C88.4256 6.35349 86.2232 7.29093 84.4024 8.7731C83.523 9.55281 82.7927 10.4859 82.2472 11.527C81.9847 12.0934 81.612 12.6017 81.1509 13.0223C79.631 14.0317 77.4134 11.6268 75.9434 11.1034C74.3874 10.5042 72.7935 10.0087 71.1721 9.62039C69.7666 9.20413 68.3003 9.03129 66.8367 9.10943C65.2172 9.37112 62.6882 11.8137 61.8535 13.2966C61.4333 14.0865 61.1072 14.923 60.8819 15.7889C60.6701 16.5615 60.6826 17.6332 60.1344 18.2812C59.4492 18.2812 58.5896 16.7608 57.9791 16.3247C56.8675 15.4442 55.6282 14.7384 54.304 14.2312C51.7377 13.4462 49.3209 14.443 47.1657 15.8636C45.3275 17.3475 44.0491 19.4132 43.5405 21.7206C43.2863 22.6805 43.0866 23.654 42.9425 24.6365C42.9748 25.203 42.916 25.771 42.7681 26.3188C41.3604 26.4434 39.8156 25.4714 38.3954 25.3468C37.4807 25.286 36.5635 25.4201 35.7045 25.7401C34.8455 26.0602 34.0642 26.559 33.4122 27.2035C31.86 28.9133 30.9755 31.1253 30.9206 33.4342C30.9269 34.2794 31.057 35.1191 31.3068 35.9265C31.5062 36.5247 32.0169 37.1726 32.0169 37.7708C30.3974 36.6119 27.6442 36.5247 25.788 36.425C24.8719 36.2954 23.9379 36.3937 23.0688 36.711C22.1996 37.0283 21.4221 37.5549 20.8048 38.2443C18.6621 40.9111 20.8048 44.8989 22.4617 47.2541C21.1673 46.5419 19.6706 46.2872 18.2136 46.5312C16.538 46.9789 15.0817 48.0194 14.115 49.4596C13.8294 49.9804 13.7166 50.5784 13.7927 51.1675C13.8688 51.7565 14.13 52.306 14.5385 52.737C15.7843 54.1825 17.354 54.6811 18.7368 55.8026L19.4469 58.2949C16.7186 58.2949 13.7412 57.8961 11.1624 58.8182C8.58358 59.7404 5.4193 60.8245 4.41021 63.8028C3.99329 64.8113 3.83071 65.9069 3.93681 66.993C4.18596 68.3513 5.74325 69.3482 6.86446 69.9713C7.61193 70.3825 8.29707 70.9557 9.08192 71.3296C9.70586 71.5262 10.3491 71.6558 11.0005 71.7159C11.7729 71.9153 12.4829 72.3514 13.2678 72.5383C13.7661 72.6629 14.3143 72.5383 14.7877 72.7502C14.037 73.618 13.1059 74.3112 12.0594 74.7814C10.9076 75.7024 9.8441 76.7286 8.88263 77.8469C6.81111 79.847 5.45785 82.4753 5.03311 85.3238C4.68429 87.4921 4.88363 90.1215 6.83952 91.6543C8.18834 92.5415 9.76024 93.0296 11.3742 93.0624C12.5203 93.0624 14.0651 92.7135 15.1116 93.0624C14.4125 93.9 13.5686 94.6048 12.62 95.1434C11.74 95.8162 10.9671 96.6188 10.3277 97.5236C9.1296 99.0453 8.36362 100.862 8.11025 102.782C8.10416 103.689 8.35484 104.578 8.83328 105.348C9.31172 106.117 9.99831 106.736 10.8136 107.131C11.6346 107.523 12.5223 107.755 13.4297 107.817C14.1826 107.723 14.9442 107.723 15.6971 107.817C15.4728 108.689 14.0028 108.976 13.3176 109.499C12.4354 110.309 11.6943 111.261 11.125 112.315C9.72635 114.476 8.82039 116.918 8.4715 119.468C8.37393 120.502 8.67588 121.534 9.31535 122.352C9.95483 123.17 10.8833 123.712 11.9099 123.867C13.5497 124.242 15.2155 124.491 16.893 124.615C17.5284 124.677 18.824 124.378 19.3099 124.752C18.5839 126.156 17.6656 127.452 16.5816 128.602C15.5458 129.879 14.706 131.303 14.09 132.827C13.5623 134.014 13.2178 135.275 13.0685 136.565C12.8392 137.898 12.8858 139.264 13.2055 140.578C14.5509 143.594 18.6994 143.706 21.4775 143.618C23.5884 143.651 25.6641 143.076 27.4573 141.961C26.4731 143.967 25.9998 144.952 25.1651 147.058C24.5808 148.284 24.2775 149.625 24.2775 150.983C24.2775 152.342 24.5808 153.682 25.1651 154.909C26.6227 157.476 29.0395 158.186 31.9297 158.061C33.1066 157.988 34.2385 157.582 35.1937 156.89C35.9664 156.167 36.8 155.513 37.6853 154.933C38.495 155.382 37.5856 157.301 37.461 157.999C37.2827 159.454 37.2285 160.921 37.2991 162.385C37.1398 164.256 37.493 166.134 38.3206 167.819C39.3464 169.626 40.8738 171.098 42.7182 172.055C44.6492 173.165 47.7014 174.199 49.5327 172.542C50.6002 171.478 51.5408 170.295 52.3358 169.015C52.6994 169.81 52.9631 170.647 53.1206 171.507C53.5816 172.753 53.8182 174.174 54.3664 175.458C55.5001 178.336 57.0448 181.688 59.7731 183.358C61.268 184.268 64.0835 185.713 65.8276 184.866C66.9502 184.189 67.774 183.111 68.1324 181.85C68.369 181.277 68.6058 179.931 69.1414 179.607C69.9263 179.969 70.3872 181.103 70.9977 181.726C71.6081 182.349 72.2434 183.109 72.8289 183.807C75.0963 186.498 77.6627 188.941 81.1509 189.913C82.1049 190.289 83.1494 190.371 84.1505 190.149C85.1516 189.927 86.0636 189.411 86.7693 188.667C87.3634 188.043 87.8178 187.299 88.1023 186.486C88.2767 185.95 88.1023 184.866 88.4512 184.467C89.3731 184.467 89.9461 185.352 90.5316 185.95C91.2487 186.724 92.0324 187.433 92.8737 188.069C94.9629 189.581 97.4021 190.537 99.9622 190.847C100.874 191.14 101.854 191.14 102.765 190.847C103.734 190.495 104.57 189.851 105.157 189.003C105.657 188.141 106.011 187.202 106.204 186.224C106.303 185.701 106.079 184.978 106.577 184.579C108.508 185.339 110.315 186.474 112.296 187.296C114.237 188.092 116.278 188.62 118.363 188.866C120.408 189.317 122.517 189.402 124.592 189.115C125.973 188.863 127.268 188.266 128.357 187.379C129.446 186.493 130.293 185.345 130.82 184.043C131.148 183.128 131.374 182.18 131.493 181.215C131.482 180.457 131.515 179.7 131.593 178.947C134.209 180.455 136.651 180.629 139.603 181.078C142.728 181.595 145.936 181.129 148.785 179.744C150.952 178.573 153.693 176.741 154.391 174.187C154.488 172.761 154.349 171.33 153.98 169.95C153.855 169.414 153.531 169.115 153.73 168.541C154.49 168.424 155.263 168.424 156.023 168.541C157.269 168.541 159.237 169.65 160.458 169.239C161.935 168.678 163.282 167.822 164.417 166.723C165.552 165.623 166.451 164.305 167.06 162.847C167.789 161.247 168.163 159.508 168.157 157.75C168.157 156.628 167.733 156.043 169.066 155.631C172.666 154.485 176.441 153.014 177.886 149.687C178.472 148.316 178.223 145.027 177.961 143.456C177.762 142.652 177.392 141.9 176.877 141.251C176.329 140.503 175.37 140.229 174.884 139.494C175.494 138.933 176.541 139.045 177.288 138.758C178.448 138.11 179.513 137.305 180.453 136.366C183.128 134.217 185.144 131.358 186.271 128.116C187.18 125.624 187.803 123.63 186.918 121.038C186.447 119.692 185.666 118.476 184.639 117.487C184.003 116.901 183.069 116.39 182.658 115.605C183.433 114.512 184.415 113.58 185.548 112.864C187.012 111.648 188.299 110.235 189.373 108.664C190.878 106.647 192.028 104.389 192.774 101.985C193.363 100.224 193.617 98.3684 193.521 96.5141C193.481 95.3822 193.034 94.3029 192.263 93.4736ZM36.9377 119.393C37.2272 121.849 38.0158 124.22 39.255 126.359C39.8489 127.472 40.3812 128.616 40.8495 129.786C41.0489 130.26 41.2482 130.746 41.4351 131.232C41.7454 131.799 41.9601 132.414 42.0705 133.051C41.7303 132.6 41.4222 132.125 41.1485 131.631C40.763 131.225 40.3465 130.85 39.9027 130.509C39.1899 129.792 38.5818 128.978 38.0964 128.092C36.9627 125.973 35.9037 123.755 34.6829 121.661C33.7585 120.02 32.967 118.307 32.3159 116.54C31.975 115.685 31.6838 114.811 31.4438 113.923C31.0826 112.602 30.4223 111.343 30.1981 110.022C29.6744 108.005 29.3325 105.945 29.1765 103.866C29.0622 102.882 29.0165 101.891 29.0395 100.901C29.1142 100.041 28.8277 99.3803 28.8526 98.5578C28.96 97.6231 29.0059 96.6823 28.9897 95.7415C28.8731 95.046 28.8312 94.34 28.8651 93.6356C28.9896 92.1652 29.3509 89.8971 29.6374 87.9781C29.6374 87.6665 29.6374 87.355 29.7122 87.0434C29.7386 86.7482 29.7928 86.4562 29.8741 86.1712C29.8741 85.8804 29.8991 85.6187 29.9489 85.3861L30.2728 84.2646C30.1834 84.9084 30.0502 85.5455 29.8741 86.1712C29.8741 86.7195 29.7246 87.3425 29.6374 87.9781C29.5502 88.6136 29.5253 89.461 29.4755 90.2087C29.2633 92.6001 29.5649 95.0091 30.36 97.2743C30.9637 98.3826 31.7184 99.4018 32.6024 100.302C33.3562 101.575 34.3918 102.658 35.6297 103.468C36.714 103.948 37.8399 104.327 38.9933 104.602C40.0647 104.963 41.2856 104.988 42.3694 105.312C42.4691 106.01 41.5223 106.371 41.1237 106.795C40.5616 107.443 40.1187 108.185 39.8155 108.988C39.3172 110.147 38.5698 111.156 38.1587 112.365C37.2093 114.581 36.7911 116.987 36.9377 119.393ZM62.3394 49.9956H54.3539C51.7485 49.9721 49.1787 50.6018 46.8792 51.8274C45.7576 52.4022 44.7114 53.1138 43.7647 53.9459C43.4072 54.3284 43.0242 54.6865 42.6185 55.0176C42.5707 55.057 42.5287 55.1032 42.494 55.1546C42.2822 55.6157 42.0953 55.9522 41.9334 55.9771C42.0518 55.6621 42.2441 55.38 42.494 55.1546C42.93 54.1577 43.4159 52.6623 43.6526 52.3258C44.2777 51.5364 44.9473 50.7835 45.6583 50.0704C46.4556 49.3227 47.4398 48.6372 48.3243 47.9643C49.2088 47.2914 49.6947 46.5438 50.3799 46.0079C51.065 45.4721 51.3142 44.687 52.0118 44.2508C52.9836 43.6651 53.2576 43.067 54.2418 42.4315C55.8613 41.3474 57.7051 40.6369 59.3496 39.64C60.8724 38.5877 62.4483 37.6145 64.0711 36.7241C65.5037 36.0512 66.899 35.1789 68.3691 34.6182C70.2966 33.7464 72.2872 33.0215 74.3239 32.4499C75.8687 32.1134 77.8121 31.2037 79.4067 31.3283C78.7589 31.9015 77.6626 31.7769 76.9151 32.2629C75.931 32.9109 74.8471 33.509 73.9252 34.2443C73.3248 34.6644 72.7584 35.1311 72.231 35.6399C71.8 36.2729 71.4209 36.9396 71.0973 37.6337C70.5596 38.5223 70.1763 39.4957 69.9636 40.5124C69.702 41.3473 69.2536 42.1822 69.0667 43.0047C68.9295 44.0291 68.9044 45.0653 68.992 46.0951C68.992 46.7929 68.992 47.4908 68.992 48.1762C68.992 49.1233 69.7394 50.1078 69.6896 50.9801C68.5075 50.8315 67.3376 50.5982 66.1889 50.2821C64.9124 50.1124 63.627 50.0168 62.3394 49.9956ZM112.258 162.012C111.237 162.261 110.203 162.697 109.169 162.884C108.126 163.019 107.094 163.223 106.079 163.494C105.534 163.736 104.961 163.908 104.372 164.005C103.662 164.005 102.94 164.118 102.242 164.192C101.299 164.34 100.343 164.394 99.3892 164.354L95.8885 164.105C93.9077 163.968 91.9269 163.806 89.9461 163.681C88.5794 163.607 87.2233 163.398 85.8973 163.058C85.4987 162.946 85.1499 162.697 84.7387 162.585C84.3276 162.473 83.7047 162.585 83.2438 162.585C80.7522 162.248 78.3727 160.853 76.1054 160.018C75.4825 159.781 74.8596 159.881 74.1619 159.644C73.4643 159.407 72.9909 159.17 72.368 158.971C71.3838 158.672 70.3997 158.448 69.4279 158.149C68.4562 157.85 64.9556 156.553 64.7936 155.257L67.9953 154.784C69.6509 155.074 71.2683 155.55 72.8165 156.205C73.723 156.345 74.6402 156.403 75.5572 156.379C76.6286 156.454 77.7125 156.566 78.7963 156.616C80.8892 156.716 83.169 155.37 85.0253 154.497C87.33 153.326 88.5758 150.759 90.4195 149.064C91.1546 150.061 90.9303 151.469 91.4535 152.566C91.8646 153.426 92.5872 154.261 93.0855 155.058C93.3563 155.456 93.7089 155.792 94.1195 156.043C96.3 157.868 98.8501 159.198 101.594 159.943C104.239 160.439 106.916 160.748 109.605 160.865L112.981 161.102C113.404 161.102 113.865 161.227 114.227 161.214H114.413C114.857 161.01 115.347 160.924 115.834 160.965C115.353 160.998 114.877 161.082 114.413 161.214C113.713 161.515 112.993 161.769 112.258 161.974V162.012ZM134.533 52.4878C133.102 52.3568 131.659 52.5049 130.285 52.924C129.301 53.2978 128.404 54.0954 127.457 54.4194C127.338 53.426 127.338 52.422 127.457 51.4286V47.9144C127.543 46.6203 127.45 45.3205 127.183 44.0514C126.913 42.9318 126.407 41.8826 125.7 40.9735C124.762 39.4662 123.559 38.1407 122.15 37.0606C121.328 36.4873 120.53 35.9141 119.658 35.3159L119.272 35.0418C118.712 34.9371 118.159 34.7999 117.615 34.6306C116.818 34.3814 115.958 33.7458 115.123 33.8331L114.775 32.7739C115.148 33.2848 115.672 33.0605 116.182 33.1975C116.549 33.3529 116.903 33.5361 117.241 33.7458C117.963 34.1057 118.654 34.5224 119.309 34.9919C119.758 35.0791 120.219 35.1663 120.667 35.2785C121.689 35.5277 122.847 35.6524 123.844 35.9764C124.569 36.2811 125.309 36.5474 126.062 36.774C128.092 37.3261 130.089 37.996 132.041 38.7802C134.446 39.5902 136.364 41.4594 138.357 42.9174C140.854 44.8582 143.207 46.9782 145.396 49.2604C146.354 50.1378 147.261 51.0698 148.112 52.0517C149.046 53.1982 149.694 54.544 150.678 55.5907C151.188 56.2323 151.607 56.941 151.924 57.6968C152.373 58.5193 153.033 59.3666 153.556 60.1891C154.781 61.9053 155.778 63.7735 156.521 65.7469C155.517 64.5237 154.617 63.2191 153.83 61.8464C153.055 60.705 152.134 59.6703 151.089 58.7685C148.639 56.8539 145.891 55.3551 142.954 54.3321C140.289 53.1907 137.431 52.5649 134.533 52.4878ZM164.743 102.533C164.685 102.932 164.61 103.347 164.519 103.779C164.672 105.086 164.702 106.405 164.606 107.717C164.654 109.855 164.571 111.994 164.357 114.122C163.819 116.236 163.403 118.378 163.111 120.54C162.904 121.645 162.6 122.729 162.202 123.78C161.838 125.129 161.315 126.43 160.645 127.655C160.062 129.01 159.401 130.329 158.664 131.606C157.906 132.96 157.031 134.244 156.048 135.444C154.005 137.55 152.086 139.755 149.918 141.674C149.021 142.484 148.05 143.432 147.09 144.167C146.542 144.578 144.91 145.488 144.25 145.313C144.337 144.628 145.371 144.067 145.757 143.506C146.179 142.863 146.706 142.294 147.315 141.824C148.119 141.089 148.823 140.251 149.408 139.332C149.956 138.559 150.653 137.886 151.164 137.126C152.231 135.698 153.072 134.113 153.656 132.428C153.88 131.818 154.241 131.307 154.478 130.696C154.713 129.887 154.822 129.046 154.802 128.204C154.828 126.905 154.698 125.608 154.416 124.341C154.177 123.248 153.756 122.203 153.17 121.25C152.607 120.128 151.88 119.095 151.015 118.185C150.653 117.773 150.429 117.25 150.068 116.839C149.707 116.428 148.548 116.016 148.498 115.319C149.009 115.069 149.445 115.431 149.981 115.431C150.543 115.387 151.101 115.3 151.65 115.169L154.777 114.708C155.756 114.701 156.716 114.444 157.568 113.96C159.023 112.994 160.332 111.823 161.454 110.484C162.925 108.503 163.965 106.236 164.507 103.829C164.419 103.007 164.32 102.197 164.183 101.337C163.996 100.153 164.183 99.0065 164.021 97.8102C164.021 97.4862 163.946 96.9753 163.896 96.4394L163.186 94.5702C163.659 94.8194 163.821 95.6419 163.896 96.4394L164.345 97.5983C164.7 99.1964 164.834 100.836 164.743 102.471V102.533Z" fill="#F3BC61"/>
<path d="M111.299 13.2841C109.913 12.0846 108.207 11.3177 106.39 11.0784C104.188 10.5193 101.923 10.2428 99.6507 10.2559C94.518 10.2559 89.3854 10.1064 84.2527 10.2559C82.1403 10.3648 80.0488 10.7288 78.0238 11.3401C75.5322 11.9881 73.0406 12.2872 70.549 12.9227C68.3729 13.4925 66.2378 14.2085 64.1581 15.066C61.9406 15.9632 59.6359 16.5988 57.4433 17.5583C49.3631 21.3559 41.8835 26.3186 35.2433 32.2878C33.6238 33.7334 32.0417 35.2287 30.5343 36.7864C29.158 38.4094 27.8887 40.1202 26.7346 41.9081C25.4445 43.4605 24.2584 45.0964 23.1841 46.8053C22.0504 48.8241 21.0538 50.9052 19.9201 52.9239C15.1986 61.2856 12.9064 70.5943 11.5983 80.0526C11.0439 85.0959 10.8317 90.1711 10.9629 95.2432C10.8632 100.084 11.1758 104.924 11.8973 109.711C12.6196 114.476 13.7491 119.17 15.2734 123.743C16.8553 128.097 18.711 132.346 20.8295 136.466C21.8428 138.484 22.8768 140.499 23.9315 142.509C25.1421 144.557 26.5392 146.488 28.105 148.279C29.3508 149.924 30.4969 151.743 31.8423 153.426C33.2474 155.172 34.8673 156.734 36.6635 158.074C38.4201 159.469 39.9524 161.114 41.7339 162.473C43.5154 163.831 45.708 165.339 47.6764 166.797C51.4972 169.53 55.4601 172.06 59.5487 174.373C63.4262 176.764 67.5642 178.704 71.882 180.155C76.5153 181.633 81.2793 182.664 86.1089 183.234C90.6561 183.719 95.2281 183.234 99.8126 183.234C102.03 183.234 104.26 183.42 106.465 183.234C108.957 183.009 111.448 182.336 113.94 181.9C118.273 181.332 122.555 180.424 126.747 179.184C128.92 178.383 131.049 177.468 133.125 176.442C135.305 175.42 137.485 174.51 139.591 173.339C141.459 172.305 143.328 171.545 145.321 170.685C147.288 169.767 149.141 168.621 150.84 167.27C152.335 166.149 154.204 165.775 155.724 164.628C157.617 163.195 159.461 161.625 161.292 160.142C164.644 157.486 167.524 154.284 169.814 150.672C171.919 147.012 173.731 143.191 175.233 139.245C176.155 137.064 176.578 134.833 177.351 132.628C178.123 130.422 179.431 128.341 179.842 125.948C180.241 123.842 180.515 121.749 181.001 119.717C181.574 117.409 182.023 115.071 182.346 112.714C182.957 107.891 182.558 102.907 182.558 98.047C182.558 93.187 182.869 88.3768 182.209 83.629C181.898 81.4482 181.362 79.2924 181.075 77.1117C180.789 74.9309 180.789 72.4636 180.278 70.1458C179.368 65.5516 177.977 61.0658 176.13 56.7622C172.28 48.2884 166.026 41.235 158.988 35.2785C157.409 34.0432 155.93 32.6849 154.565 31.2162C153.154 29.4357 151.437 27.9208 149.495 26.7424C147.619 25.9298 145.785 25.0232 144.001 24.0259C142.438 22.9019 140.743 21.9728 138.955 21.2593C135.903 20.0132 132.801 18.306 129.512 16.9851C127.634 16.3268 125.693 15.8633 123.719 15.6019C122.03 15.1228 120.367 14.5571 118.736 13.9072C115.604 12.9886 112.368 12.4735 109.106 12.3745C105.095 12.2997 105.095 18.5304 109.106 18.6052C112.076 18.6839 115.016 19.2132 117.827 20.1752C119.267 20.8145 120.764 21.3153 122.299 21.6707C124.187 21.8784 126.041 22.3221 127.818 22.9915C130.87 24.2376 133.748 25.9325 136.85 27.1163C138.155 27.6235 139.38 28.316 140.488 29.1725C142.203 30.2069 143.994 31.1108 145.845 31.8765C147.502 32.8275 148.955 34.0982 150.118 35.615C151.629 37.2162 153.257 38.7033 154.989 40.0638C158.349 42.8621 161.451 45.9565 164.257 49.3101C166.846 52.5548 169.014 56.1138 170.71 59.9023C172.29 63.7379 173.472 67.7258 174.236 71.8031C174.697 73.9091 174.66 76.0774 174.959 78.2083C175.258 80.3392 175.781 82.5449 176.08 84.7381C176.678 89.0747 176.279 93.673 176.292 98.047C176.304 102.421 176.628 107.131 176.204 111.605C175.818 115.705 174.548 119.755 173.887 123.83C173.446 125.831 172.755 127.77 171.832 129.599C170.897 131.793 170.586 134.16 169.689 136.354C168.272 140.087 166.573 143.707 164.606 147.182C162.629 150.331 160.136 153.125 157.231 155.444C155.724 156.691 154.141 157.8 152.684 159.096C151.226 160.392 149.183 160.803 147.564 161.974C146.078 163.145 144.485 164.171 142.805 165.04C140.812 165.962 138.756 166.697 136.825 167.756C133.204 169.813 129.426 171.58 125.526 173.04C121.555 174.347 117.466 175.261 113.317 175.769C111.274 176.068 109.268 176.629 107.225 176.94C105.106 177.152 102.972 177.19 100.847 177.053C96.287 177.053 91.7274 177.476 87.1429 177.127C82.8641 176.695 78.6426 175.813 74.548 174.498C70.534 173.24 66.6892 171.494 63.0992 169.302C59.3618 167.121 55.6245 164.99 52.1114 162.448C50.4171 161.202 48.7726 159.955 47.1282 158.709C45.3982 157.398 43.7351 156 42.145 154.522C40.4987 153.274 38.9341 151.921 37.4609 150.472C36.0282 148.902 34.9693 146.996 33.7235 145.301C32.4777 143.606 31.2319 142.372 30.1854 140.752C28.9396 138.871 28.0676 136.802 27.0585 134.833C25.0675 131.042 23.2956 127.139 21.7514 123.144C18.672 114.583 17.1571 105.537 17.2791 96.4394C17.1273 91.8389 17.2312 87.2334 17.5905 82.6445C18.0521 78.1757 18.8855 73.7531 20.0821 69.4229C21.1697 65.1836 22.7371 61.0823 24.7538 57.1983C26.6599 53.7465 28.2669 49.9207 30.7834 46.8677C32.0292 45.3599 32.9386 43.6278 34.1595 42.12C35.516 40.5759 36.9771 39.1269 38.5322 37.7832C41.5458 34.9962 44.7603 32.4348 48.1497 30.1196C51.5647 27.8398 55.1087 25.7594 58.7638 23.8888C60.5886 23.0092 62.4698 22.2514 64.3948 21.6208C66.4504 20.8731 68.4187 19.9385 70.5366 19.3404C72.6771 18.7303 74.8476 18.2311 77.0395 17.8449C79.0826 17.5084 81.0759 16.7109 83.119 16.4742C85.3718 16.337 87.6308 16.337 89.8836 16.4742H97.3584C99.2692 16.3555 101.187 16.4055 103.089 16.6237C103.911 16.7732 104.746 17.0474 105.581 17.2468C106.003 17.3179 106.42 17.422 106.826 17.5583C106.926 17.5583 107.237 17.9073 107.013 17.6706C109.791 20.5741 114.189 16.1627 111.411 13.2716L111.299 13.2841Z" fill="#004D2B"/>
<path d="M43.9268 57.1856C44.587 55.765 46.8543 54.5687 48.2371 53.8958C50.223 53.037 52.3803 52.6489 54.5408 52.7617C57.0324 52.7617 59.6361 52.6745 62.165 52.7617C64.694 52.849 66.6748 53.6964 68.9796 53.7836C69.8123 53.7804 70.6103 53.4489 71.2003 52.8611C71.7903 52.2732 72.1248 51.4763 72.1314 50.6433C72.0442 49.5093 71.521 48.5622 71.3839 47.4781C71.2843 46.6182 71.3839 45.5964 71.3839 44.7241C71.4661 42.8973 71.9242 41.1072 72.7294 39.4654C73.229 38.1772 74.0952 37.0636 75.221 36.2628C76.0156 35.6081 76.8805 35.0439 77.7998 34.5805C78.6611 34.3638 79.4965 34.0547 80.2913 33.6584C80.8683 33.297 81.314 32.7598 81.5627 32.1259C81.8114 31.4921 81.85 30.7952 81.6728 30.1378C81.4956 29.4803 81.1119 28.8972 80.5783 28.4744C80.0447 28.0515 79.3895 27.8113 78.7092 27.7891C76.4986 27.928 74.3203 28.3898 72.2435 29.1598C69.9707 29.8225 67.751 30.6556 65.6034 31.6521C61.4674 33.4715 57.7799 36.1008 53.7934 38.1944C51.9805 39.1793 50.3051 40.3984 48.8102 41.8205C48.1624 42.4436 47.6516 43.1665 46.9913 43.7895C46.2702 44.5089 45.5091 45.1871 44.7116 45.8208C42.9304 47.0434 41.3997 48.5957 40.2019 50.394C39.881 51.0239 39.6102 51.6781 39.3921 52.3506C39.3298 52.525 39.0432 53.3474 39.0681 53.2228L38.9934 53.3973C38.6695 53.9331 38.9062 53.7338 39.691 52.8116C36.1032 54.6808 39.2675 60.114 42.8678 58.2448C44.288 57.4971 44.8112 55.7525 45.3594 54.3444C45.4715 54.0453 45.6085 53.7462 45.6958 53.4472C45.5712 53.8833 45.6958 53.5717 45.5587 53.7213C46.3436 53.1107 46.8917 52.1263 47.6641 51.4658C49.2619 50.2273 50.7962 48.9088 52.2611 47.5155C52.5352 47.2164 52.7345 46.855 53.0085 46.5559C53.2826 46.2569 53.8059 45.9204 54.0426 45.7334C54.6824 45.1457 55.3699 44.6123 56.0981 44.1385C57.9543 43.0543 59.9102 42.182 61.7166 40.9857C63.5482 39.8079 65.4448 38.7345 67.3974 37.7706C69.2435 36.8284 71.1644 36.0408 73.1404 35.4155C74.9319 34.6553 76.8325 34.1843 78.7714 34.0198L77.1893 28.1628C76.4044 28.6737 75.1836 28.8233 74.2866 29.409C73.2867 30.0162 72.3179 30.6734 71.3839 31.378C69.513 32.7728 68.0573 34.6511 67.1731 36.8111C66.1122 38.9559 65.4416 41.2725 65.1924 43.6525C65.1924 44.8986 65.1924 46.1447 65.1924 47.2911C65.1928 47.9065 65.2554 48.5203 65.3792 49.1231C65.5772 49.6116 65.7478 50.1108 65.89 50.6184L69.0294 47.4656C67.7836 47.4656 66.3135 46.8675 64.9805 46.7055C63.6749 46.5377 62.3602 46.4503 61.0439 46.4438C58.1412 46.4438 55.1762 46.2694 52.3234 46.4438C49.5006 46.6532 46.7579 47.4783 44.288 48.8613C42.2574 49.9953 39.5914 51.7649 38.5823 53.9332C38.1843 54.6586 38.08 55.509 38.291 56.3091C38.5019 57.1092 39.0121 57.7977 39.716 58.2323C40.4361 58.6474 41.2905 58.7625 42.0947 58.5527C42.8989 58.3428 43.5884 57.8249 44.014 57.1108L43.9268 57.1856Z" fill="#004D2B"/>
<path d="M26.4356 83.081C25.7006 88.3646 24.1434 94.9817 27.5569 99.7419C28.2794 100.739 29.139 101.636 29.874 102.62C30.669 103.781 31.6697 104.786 32.8265 105.586C35.206 107.094 38.0838 107.294 40.7249 107.991L38.4201 104.963V105.287L38.8437 103.692C39.3669 103.244 39.4167 103.194 38.9807 103.518C38.6767 103.738 38.3855 103.975 38.1087 104.228C37.5605 104.788 37.0987 105.426 36.7383 106.122C36.078 107.368 35.4302 108.614 34.8572 109.861C33.5723 112.527 32.9444 115.463 33.0259 118.422C33.2273 121.282 34.0071 124.071 35.3181 126.621C35.9784 127.867 36.6387 129.113 37.2117 130.472C37.4858 131.12 37.7474 131.718 38.009 132.403C38.1212 132.653 38.2582 133.325 38.2208 132.64L43.5777 130.422C43.1287 129.708 42.6203 129.032 42.0579 128.403C41.4214 127.894 40.8631 127.293 40.4009 126.621C39.2673 124.789 38.3952 122.771 37.3612 120.877C35.1938 117.071 33.5193 113.005 32.3781 108.776C31.4215 104.743 31.0564 100.591 31.2942 96.4521C31.2425 94.6733 31.284 92.893 31.4188 91.1185C31.7178 89.0749 32.0666 87.0311 32.241 84.975C32.2378 84.142 31.9063 83.344 31.3186 82.7538C30.7309 82.1636 29.9344 81.8289 29.1016 81.8223C28.2717 81.8414 27.481 82.1797 26.894 82.7668C26.307 83.354 25.9688 84.1448 25.9498 84.975C25.8003 86.7819 25.4764 88.5764 25.2272 90.3709C25.0283 91.4955 24.9034 92.6319 24.8535 93.7728C24.8535 94.8695 25.0403 95.9162 24.9531 97.0128C24.8704 99.1632 24.9495 101.317 25.1898 103.455C25.3425 105.984 25.76 108.49 26.4356 110.932C27.7896 115.58 29.653 120.065 31.9919 124.303C32.9802 126.373 34.0737 128.39 35.2683 130.347C35.8205 131.176 36.4733 131.934 37.2117 132.603C37.8963 133.298 38.5175 134.053 39.0679 134.858C40.7747 136.952 44.5992 135.257 44.4248 132.64C44.2878 130.31 42.88 127.892 41.9332 125.786C40.8245 123.369 39.5538 121.275 39.2673 118.546C39.165 116.028 39.7969 113.534 41.0861 111.368C41.4723 110.633 42.1326 108.988 42.3319 108.677C42.8551 108.054 43.5777 107.805 44.0013 107.082C44.3802 106.415 44.5938 105.667 44.6242 104.901C44.6244 104.213 44.399 103.545 43.9827 102.998C43.5663 102.451 42.982 102.056 42.3194 101.873C40.3885 101.362 38.0962 101.3 36.3147 100.328C35.7127 99.9598 35.205 99.4562 34.8322 98.8571C34.172 97.9474 33.3373 97.1374 32.702 96.2277C31.6804 94.7573 31.643 92.4893 31.6804 90.7945C31.8022 88.7468 32.0435 86.7079 32.403 84.6884C32.6015 83.8861 32.4847 83.0383 32.0768 82.3196C31.6689 81.6009 31.0008 81.066 30.2104 80.8254C28.7404 80.4266 26.5726 81.3238 26.3484 83.0186L26.4356 83.081Z" fill="#004D2B"/>
<path d="M67.26 157.476C68.3039 157.685 69.3199 158.016 70.2873 158.46C71.4536 158.86 72.6797 159.058 73.9126 159.046C76.4042 159.046 78.7088 159.594 81.1132 158.859C83.4635 158.179 85.6594 157.049 87.5789 155.532C89.2108 154.161 90.3071 152.292 91.8519 150.846L86.8687 150.211C87.4543 151.17 87.3795 152.616 87.9028 153.7C88.5202 154.964 89.3129 156.134 90.2573 157.177C92.3437 159.177 94.8089 160.741 97.5078 161.775C100.457 162.81 103.552 163.374 106.677 163.445L111.249 163.769C111.884 163.769 112.495 163.931 113.18 163.931C113.865 163.931 114.538 163.694 114.999 163.669C118.998 163.42 119.085 157.438 114.999 157.438C112.806 157.438 110.688 158.685 108.595 159.27C107.35 159.607 106.104 159.669 104.97 159.981C104.183 160.275 103.37 160.492 102.541 160.629C97.6774 160.951 92.794 160.779 87.965 160.118C87.0212 159.958 86.0951 159.708 85.1994 159.37C84.0658 158.996 82.8822 159.146 81.7361 158.822C79.3816 158.124 77.2886 156.803 74.8593 156.329C74.0115 156.121 73.1791 155.854 72.3677 155.532C71.2714 155.17 70.1378 154.946 69.054 154.572C68.5911 154.438 68.1441 154.255 67.721 154.024C67.4095 153.874 67.1105 153.638 66.7866 153.513C66.226 153.276 66.8614 153.513 66.986 154.012C65.9769 150.099 59.9098 151.756 60.9189 155.681C62.0028 159.856 67.8082 160.566 71.1594 161.75C72.2557 162.137 73.352 162.311 74.4358 162.635C75.6287 163.061 76.7974 163.551 77.9365 164.105C79.1016 164.613 80.3226 164.981 81.5741 165.202C82.1846 165.302 82.8199 165.202 83.4179 165.327C82.3714 165.152 84.5516 165.813 84.726 165.862C87.3435 166.392 90.0041 166.68 92.6742 166.722C95.3796 167.067 98.1099 167.175 100.834 167.046C102.176 167.001 103.513 166.855 104.833 166.61C105.954 166.336 106.988 165.925 108.134 165.738C109.358 165.517 110.565 165.213 111.747 164.828C112.76 164.324 113.831 163.947 114.936 163.707V157.476C113.971 157.615 112.996 157.669 112.021 157.638C110.775 157.513 109.38 157.451 108.072 157.364C105.419 157.329 102.781 156.952 100.224 156.242C98.2796 155.514 96.4758 154.456 94.8916 153.114C94.2416 152.418 93.7263 151.606 93.3718 150.722C93.1346 149.485 92.7541 148.281 92.2381 147.133C91.9921 146.715 91.6537 146.359 91.2488 146.092C90.8439 145.825 90.3833 145.654 89.9023 145.593C89.4213 145.532 88.9326 145.581 88.4737 145.738C88.0149 145.895 87.5979 146.154 87.2549 146.497C85.9219 147.743 84.9627 149.314 83.6546 150.572C82.2733 151.803 80.6011 152.66 78.7961 153.064C77.8742 153.189 76.9398 153.189 76.018 153.064C75.0463 152.99 74.0247 153.064 73.053 152.927C72.2157 152.754 71.4008 152.487 70.6237 152.13C69.4909 151.722 68.31 151.462 67.1105 151.357C66.2778 151.364 65.4812 151.698 64.8935 152.289C64.3058 152.879 63.9744 153.677 63.9711 154.51C63.9901 155.337 64.327 156.125 64.9117 156.71C65.4964 157.294 66.2839 157.631 67.1105 157.65L67.26 157.476Z" fill="#004D2B"/>
<path d="M111.797 34.5932C112.369 35.144 113.072 35.5389 113.84 35.7397L114.675 35.8518C114.064 35.5776 114.027 35.5776 114.563 35.8518C115.497 36.4375 116.444 36.9485 117.353 37.6089C119.102 38.712 120.649 40.1071 121.925 41.7336C123.074 43.2091 123.649 45.0506 123.545 46.9176C123.351 49.5542 123.401 52.2031 123.694 54.8306C123.918 55.632 124.45 56.3122 125.174 56.7231C125.897 57.1339 126.754 57.242 127.556 57.0238C128.69 56.5627 129.761 55.7154 130.908 55.354C132.211 55.0881 133.551 55.0458 134.869 55.2293C137.496 55.5461 140.054 56.2868 142.443 57.4225C144.808 58.2969 146.985 59.612 148.859 61.298C150.74 63.1548 151.725 65.6471 153.531 67.5287C155.611 69.7593 159.76 67.454 158.776 64.4633C157.898 62.0795 156.704 59.8246 155.225 57.759C153.979 55.9396 152.908 54.0205 151.625 52.3009C150.815 51.1918 150.118 50.0328 149.208 48.9861C148.299 47.9393 147.377 47.1418 146.455 46.2321C144.698 44.4369 142.847 42.7357 140.911 41.1354C139.065 39.5642 137.131 38.0997 135.118 36.749C132.895 35.5103 130.532 34.54 128.08 33.858C125.849 33.0821 123.573 32.4412 121.265 31.9389C120.076 31.7337 118.899 31.4633 117.74 31.1289C116.675 30.6338 115.533 30.3261 114.363 30.2192C110.327 30.1195 110.327 36.4499 114.363 36.4499C115.221 36.6684 116.055 36.9689 116.855 37.3471C117.864 37.5963 118.898 37.7958 119.92 37.9951C122.024 38.4854 124.103 39.0802 126.149 39.7772C128.177 40.3212 130.131 41.1121 131.966 42.1323C137.352 45.8264 142.152 50.3085 146.206 55.4287C146.855 56.2214 147.454 57.0538 148 57.921C148.462 58.7808 148.973 59.6129 149.532 60.4133C150.839 62.135 151.915 64.0202 152.734 66.0209L157.991 62.9679C157.171 61.9394 156.434 60.8477 155.786 59.7031C154.918 58.4096 153.902 57.2218 152.759 56.1639C147.566 52.1499 141.393 49.6024 134.882 48.7868C133.265 48.6578 131.639 48.7164 130.035 48.9613C128.416 49.2479 127.357 50.2074 125.899 50.7931L129.774 52.9988C129.683 51.6951 129.703 50.386 129.836 49.0859C129.836 47.7525 129.836 46.4192 129.836 45.0858C129.666 42.5823 128.76 40.1849 127.232 38.1946C125.659 36.0568 123.729 34.2062 121.527 32.724C120.565 31.9876 119.562 31.3053 118.524 30.6803C118.039 30.3937 117.54 30.132 117.042 29.8952C116.433 29.7008 115.813 29.5427 115.186 29.4216L116.568 30.2317L116.27 29.97C115.67 29.3994 114.874 29.0811 114.046 29.0811C113.218 29.0811 112.422 29.3994 111.822 29.97C111.234 30.5609 110.904 31.3606 110.904 32.1943C110.904 33.028 111.234 33.8279 111.822 34.4187L111.797 34.5932Z" fill="#004D2B"/>
<path d="M160.595 97.9597C161.02 99.9428 160.94 102.001 160.363 103.945C159.787 105.889 158.731 107.658 157.293 109.088C156.68 109.75 155.975 110.32 155.201 110.783C154.306 111.076 153.375 111.244 152.435 111.281C151.435 111.308 150.443 111.463 149.482 111.742C149.121 111.742 149.196 111.829 149.707 111.829C149.529 111.769 149.345 111.727 149.158 111.705C148.424 111.555 147.664 111.581 146.941 111.779C146.142 112.006 145.464 112.539 145.053 113.262C144.643 113.984 144.534 114.84 144.748 115.643C144.955 116.409 145.364 117.107 145.932 117.661C146.244 117.972 146.596 118.24 146.978 118.459C147.526 118.745 146.978 118.546 146.879 118.247C147.539 119.493 148.685 120.428 149.37 121.661C150.616 123.842 151.725 127.045 150.616 129.5C150.083 130.849 149.467 132.164 148.772 133.437C147.938 134.808 146.854 135.93 145.919 137.263C144.985 138.597 144.063 139.207 143.179 140.266C142.037 141.328 141.107 142.597 140.438 144.005C140.317 144.471 140.304 144.959 140.399 145.431C140.494 145.904 140.694 146.349 140.986 146.732C141.277 147.116 141.651 147.429 142.081 147.647C142.51 147.865 142.984 147.983 143.465 147.993C145.957 148.179 148.448 146.111 150.167 144.541C152.31 142.597 154.291 140.541 156.272 138.435C160.04 134.332 162.837 129.434 164.457 124.104C165.279 121.45 165.702 118.745 166.276 116.041C166.824 112.936 167.074 109.786 167.023 106.633C167.063 105.276 166.996 103.917 166.824 102.57C166.637 100.988 166.587 99.4677 166.475 97.885C166.288 95.3928 166.176 92.9877 163.983 91.3428C163.263 90.9277 162.409 90.8126 161.604 91.0224C160.8 91.2323 160.111 91.7501 159.685 92.4642C159.283 93.1874 159.175 94.038 159.384 94.8387C159.593 95.6395 160.102 96.329 160.807 96.7635L161.006 96.913L159.885 95.7915C160.109 96.1155 159.947 95.7915 159.997 96.1279C159.997 96.1279 159.997 96.8258 159.997 97.0501C160.096 98.1093 160.059 99.1684 160.134 100.24C160.296 102.807 160.669 105.225 160.582 107.792C160.618 110.177 160.422 112.56 159.997 114.907C159.424 117.4 159.125 119.767 158.39 122.172C157.23 126.312 155.166 130.142 152.348 133.388C150.591 135.232 148.897 137.126 147.041 138.833C146.278 139.602 145.476 140.33 144.636 141.014C144.373 141.212 144.094 141.387 143.801 141.537C143.49 141.687 142.892 141.699 143.378 141.737L146.418 145.712C146.144 146.522 146.418 146.011 146.717 145.712C147.016 145.413 147.302 145.002 147.601 144.64C147.9 144.279 148.535 143.743 149.009 143.282C150.073 142.094 151.067 140.846 151.986 139.544C153.078 138.26 154.019 136.855 154.789 135.357C155.2 134.522 155.475 133.624 155.873 132.789C156.271 132.08 156.596 131.333 156.845 130.559C157.603 126.997 157.124 123.282 155.487 120.029C154.707 118.544 153.781 117.142 152.721 115.842C152.372 115.381 152.074 114.882 151.7 114.421C151.373 114.041 151.001 113.702 150.591 113.412L150.317 113.213C149.744 112.789 149.856 113.038 150.678 113.973L148.486 117.836L148.859 117.749H147.19C148.534 117.979 149.907 117.979 151.251 117.749C152.497 117.537 153.743 117.362 154.914 117.2C157.76 116.692 160.333 115.19 162.177 112.963C164.088 110.803 165.504 108.251 166.325 105.487C167.132 102.461 167.2 99.2853 166.525 96.2276C166.3 95.4257 165.769 94.7446 165.046 94.3317C164.323 93.9189 163.467 93.8075 162.663 94.0219C161.87 94.2625 161.199 94.7993 160.791 95.5208C160.383 96.2424 160.268 97.0933 160.47 97.8974L160.595 97.9597Z" fill="#004D2B"/>
<path d="M78.8836 93.2864C82.895 93.2864 82.895 87.0557 78.8836 87.0557C74.8721 87.0557 74.8721 93.2864 78.8836 93.2864Z" fill="#004D2B"/>
<path d="M106.826 79.1301L106.415 79.5288C106.12 79.7995 105.9 80.1434 105.78 80.5258C105.6 80.9011 105.506 81.312 105.506 81.7283C105.506 82.1446 105.6 82.5557 105.78 82.9309C105.9 83.3133 106.12 83.6571 106.415 83.9278L107.051 84.4138C107.527 84.6937 108.068 84.8441 108.62 84.8499L109.455 84.7378C109.974 84.59 110.446 84.311 110.825 83.9278L111.224 83.5291C111.525 83.2603 111.748 82.9161 111.872 82.5321C112.044 82.1547 112.134 81.7446 112.134 81.3296C112.134 80.9146 112.044 80.5045 111.872 80.1271C111.751 79.7418 111.527 79.3969 111.224 79.1301L110.601 78.6317C110.12 78.354 109.574 78.2079 109.019 78.208L108.197 78.3201C107.678 78.4679 107.206 78.7469 106.826 79.1301Z" fill="#004D2B"/>
<path d="M97.3709 93.6858C101.382 93.6858 101.382 87.4551 97.3709 87.4551C93.3594 87.4551 93.3594 93.6858 97.3709 93.6858Z" fill="#004D2B"/>
<path d="M91.3162 108.054C91.1044 108.054 90.631 107.767 91.3162 108.054L91.8146 108.353C92.3657 108.633 92.9465 108.85 93.5462 109.001C94.2798 109.246 95.029 109.441 95.7886 109.586C97.7272 109.999 99.7423 109.861 101.606 109.188C103.272 108.484 104.858 107.607 106.34 106.571C107.138 106.023 107.86 105.325 108.608 104.764C109.431 104.107 110.071 103.249 110.464 102.272C110.574 101.877 110.605 101.465 110.555 101.059C110.506 100.652 110.377 100.26 110.175 99.9031C109.974 99.5466 109.705 99.2334 109.382 98.9813C109.06 98.7291 108.691 98.5429 108.296 98.4335C107.499 98.2415 106.659 98.3601 105.947 98.7651C105.234 99.1701 104.702 99.8312 104.459 100.614C104.459 100.539 105.344 99.3681 104.858 99.8292L104.547 100.128L103.874 100.689L103.587 100.938C103.587 100.938 102.977 101.437 103.301 101.2C103.625 100.963 103.139 101.287 103.089 101.324C103.039 101.362 102.802 101.512 102.653 101.599C102.092 101.96 101.519 102.321 100.934 102.67L100.024 103.169L99.5633 103.393C99.1647 103.605 100.224 103.194 99.4761 103.393C99.1617 103.453 98.8532 103.541 98.5543 103.655C98.5543 103.555 99.2145 103.655 98.7037 103.655H98.2179C97.8876 103.706 97.5515 103.706 97.2213 103.655C97.2213 103.655 97.8317 103.755 97.3334 103.655L96.8725 103.568C96.1748 103.406 95.5021 103.094 94.8044 102.982C95.1283 103.206 94.4182 102.982 94.8044 102.982C94.4805 102.758 94.5428 102.832 94.4058 102.745C93.9482 102.477 93.469 102.248 92.9731 102.06C92.1754 101.845 91.3252 101.954 90.6069 102.362C89.8886 102.77 89.3602 103.445 89.1361 104.241C88.9442 105.038 89.0627 105.878 89.4676 106.591C89.8725 107.304 90.5335 107.836 91.3162 108.079V108.054Z" fill="#004D2B"/>
<path d="M18.6742 54.98C15.1112 54.98 11.7974 54.7556 8.39643 56.0392C5.28196 57.2105 2.29207 58.7932 0.9217 62.0207C0.0488541 63.8418 -0.209124 65.8971 0.186651 67.8775C0.793384 69.6179 2.01064 71.0791 3.61257 71.9899C4.98461 73.0553 6.53183 73.8733 8.18467 74.4073C9.87895 74.7936 11.4736 75.2921 13.1678 75.6535L11.2867 71.0303C10.9026 71.3147 10.484 71.549 10.0409 71.7281C9.34432 72.1406 8.69295 72.6252 8.09746 73.1737C6.95632 74.2259 5.87884 75.3454 4.87083 76.5259C2.70253 79.1201 1.36552 82.3074 1.03385 85.6725C0.788876 87.2192 0.945489 88.8029 1.48871 90.2715C2.03193 91.7402 2.94349 93.0444 4.13586 94.0591C5.51293 95.0726 7.12463 95.7201 8.82004 95.9408C9.70432 96.0922 10.602 96.1507 11.4984 96.1153C12.1688 95.998 12.852 95.9728 13.5291 96.0404L12.1463 90.7942C11.4825 91.5163 10.724 92.1451 9.8914 92.6634C8.95176 93.4154 8.11417 94.2867 7.39982 95.2553C5.66744 97.3103 4.58739 99.8356 4.29782 102.508C4.23423 103.782 4.49049 105.051 5.04321 106.2C5.59592 107.35 6.42748 108.342 7.46209 109.088C8.44629 109.829 9.57525 110.356 10.7759 110.633C11.4123 110.792 12.0637 110.884 12.7193 110.907C13.1961 110.871 13.6751 110.871 14.152 110.907L12.2833 106.284C12.3615 106.196 12.4493 106.116 12.5449 106.047C12.2611 106.15 11.9895 106.283 11.7351 106.446C11.1879 106.727 10.6775 107.074 10.2153 107.48C9.22678 108.452 8.38719 109.565 7.72374 110.782C5.95049 113.459 4.88329 116.542 4.62166 119.742C4.58903 121.206 5.00963 122.645 5.82585 123.86C6.64208 125.076 7.81407 126.01 9.18129 126.534C10.7223 127.094 12.3311 127.446 13.9651 127.58C14.7001 127.668 15.4601 127.792 16.1951 127.817C16.4849 127.848 16.7773 127.848 17.0672 127.817C17.5904 127.742 18.0264 128.041 17.0672 127.555L15.9334 123.256C15.0732 124.776 14.0542 126.201 12.8937 127.506C11.8723 128.918 11.035 130.455 10.4021 132.079C9.15635 135.169 8.29677 139.755 10.1032 142.808C11.9096 145.861 15.2732 146.671 18.45 146.883C21.9065 147.223 25.3843 146.497 28.4163 144.802L24.1183 140.503C21.4149 146.036 18.3254 152.715 22.9597 158.186C23.911 159.212 25.0691 160.025 26.3576 160.571C27.6461 161.116 29.0356 161.382 30.4344 161.351C32.0429 161.389 33.6382 161.052 35.0937 160.366C36.4516 159.718 37.3735 158.497 38.6566 157.787L34.9193 157.301L34.3836 155.507C34.3836 155.669 34.3089 155.843 34.259 156.005C34.1557 156.267 34.0764 156.538 34.0223 156.815C33.8397 157.518 33.7189 158.235 33.6611 158.958C33.5304 160.667 33.5304 162.384 33.6611 164.093C33.7146 165.81 34.1282 167.498 34.875 169.045C35.6218 170.593 36.6852 171.967 37.9964 173.077C40.3408 175.205 43.3345 176.478 46.4927 176.691C50.4543 176.691 52.4725 173.638 54.528 170.734H49.0963C49.5782 171.94 49.9331 173.193 50.1553 174.473C50.6115 176.053 51.1905 177.594 51.8869 179.084C53.0562 181.974 55.0545 184.455 57.63 186.212C59.9223 187.657 63.0243 188.978 65.765 188.181C67.4135 187.638 68.7941 186.489 69.627 184.966C70.0111 184.284 70.3361 183.571 70.5987 182.835C70.6734 182.623 71.2215 181.588 70.8104 181.975L66.9983 182.473C66.9983 182.473 67.3721 183.021 67.4842 183.171C67.9327 183.782 68.4559 184.342 68.9667 184.916C69.8637 185.925 70.6984 186.984 71.6452 187.956C73.5843 190.032 75.958 191.653 78.5966 192.704C79.8573 193.254 81.2227 193.522 82.5976 193.49C83.9725 193.457 85.3238 193.125 86.5572 192.517C87.8499 191.745 88.9325 190.667 89.7091 189.377C90.1062 188.739 90.4083 188.046 90.606 187.321C90.7041 186.912 90.7542 186.494 90.7555 186.074C90.7555 185.526 91.0794 185.252 90.606 186.074L87.0556 187.52C87.5913 187.632 87.5664 187.52 86.9808 187.358L87.4916 187.919C87.8279 188.268 88.1518 188.617 88.4882 188.941C91.295 191.685 94.9219 193.435 98.8158 193.925C100.091 194.231 101.421 194.221 102.692 193.895C103.962 193.569 105.133 192.938 106.104 192.056C107.04 191.121 107.748 189.983 108.172 188.729C108.392 188.185 108.563 187.622 108.682 187.046C108.745 186.66 108.795 186.274 108.819 185.875C108.844 185.476 108.819 185.389 108.819 185.663L108.01 187.046L108.234 186.785L105.169 187.595C108.296 188.841 111.062 190.685 114.413 191.433C117.764 192.181 121.527 192.879 124.89 192.131C127.476 191.582 129.796 190.166 131.468 188.118C132.459 186.885 133.192 185.466 133.623 183.944C133.78 183.311 133.905 182.67 133.997 182.024C134.109 181.302 133.997 180.467 134.097 179.769L129.475 181.651C132.705 183.205 136.211 184.103 139.79 184.293C143.249 184.67 146.743 184.029 149.843 182.448C152.549 181.192 154.799 179.129 156.284 176.542C157.654 173.688 156.745 170.971 156.159 168.08V169.625V169.227L153.967 171.432C155.997 171.009 158.041 172.679 160.345 172.168C162.586 171.552 164.61 170.322 166.188 168.616C167.964 166.754 169.285 164.506 170.05 162.049C170.44 160.762 170.658 159.43 170.698 158.086C170.771 157.596 170.75 157.097 170.636 156.616C168.929 158.223 168.63 158.796 169.739 158.348L170.386 158.123C174.56 156.715 179.418 154.385 180.527 149.625C180.926 147.45 180.926 145.22 180.527 143.045C180.347 141.904 179.922 140.816 179.281 139.855C178.521 138.609 177.388 138.11 176.528 137.076L175.893 142.061C176.358 141.88 176.843 141.759 177.338 141.699C178.013 141.503 178.652 141.2 179.232 140.802C180.432 139.922 181.583 138.977 182.682 137.973C185.01 135.921 186.838 133.363 188.027 130.496C189.273 127.518 190.319 124.403 189.659 121.138C189.319 119.571 188.652 118.093 187.703 116.801C187.277 116.203 186.797 115.644 186.27 115.131C185.834 114.72 185.124 114.384 184.788 113.885V117.063C185.548 115.742 187.342 114.932 188.438 113.86C189.669 112.558 190.801 111.167 191.826 109.698C194.239 106.37 195.692 102.443 196.025 98.3459C196.299 96.343 195.942 94.3043 195.003 92.5139C194.108 91.1223 192.998 89.8816 191.714 88.8378C190.498 87.6665 189.014 86.8108 187.391 86.3455C186.818 86.196 186.245 86.0837 185.672 85.9092L184.626 85.5604C183.978 85.3486 184.825 85.685 184.451 85.4731L185.099 90.4577C188.7 86.2956 192.362 81.5228 191.328 75.666C190.863 73.0469 189.513 70.6671 187.504 68.9243C186.265 67.9575 184.882 67.1922 183.405 66.6563C182.708 66.3775 181.992 66.1484 181.262 65.9709C180.901 65.8729 180.535 65.7939 180.166 65.7342C179.456 65.5099 179.431 65.6096 180.079 66.0208L180.888 67.4165C181.2 68.1642 180.527 68.7873 180.988 68.214C181.169 67.9516 181.331 67.6767 181.474 67.3915C181.773 66.9305 181.337 67.5535 181.599 67.242L182.159 66.6064C183.106 65.5721 184.09 64.5752 184.95 63.4786C186.055 62.2913 186.734 60.7702 186.881 59.1545C186.896 57.8948 186.749 56.6384 186.445 55.4161C185.957 53.8077 185.005 52.3794 183.708 51.3107C182.412 50.242 180.828 49.5807 179.157 49.4097C177.983 49.3725 176.807 49.4351 175.644 49.5967L173.8 49.7462C173.526 49.7274 173.251 49.7274 172.978 49.7462C172.392 49.8833 173.501 49.8957 173.065 49.7462L175.27 53.6217C176.558 50.9531 177.528 48.1424 178.16 45.2475C178.621 42.2069 178.496 38.6679 176.777 36.0012C176.027 34.8785 175.027 33.9451 173.856 33.2748C172.684 32.6044 171.373 32.2154 170.025 32.1382C167.309 31.9762 165.042 33.7954 162.7 34.8172H165.877H165.789L166.911 35.9388C167.147 36.4622 167.035 34.9171 167.048 34.6304C167.135 33.8277 167.16 33.0194 167.122 32.2128C166.988 30.6797 166.622 29.1757 166.039 27.7517C164.982 24.6513 162.823 22.0478 159.972 20.4368C158.523 19.6948 156.924 19.2923 155.297 19.2599C153.669 19.2275 152.056 19.566 150.578 20.2499C149.39 20.6943 148.28 21.3253 147.289 22.1191C146.928 22.4306 146.604 22.7796 146.255 23.1036C146.031 23.2705 145.822 23.4582 145.633 23.6643C145.495 23.8761 145.882 23.5024 146.181 23.4151L149.731 24.8606C149.75 24.951 149.75 25.0444 149.731 25.1348C149.762 24.8657 149.762 24.5939 149.731 24.3248C149.731 23.8388 149.731 23.3652 149.731 22.8792C149.624 21.2691 149.352 19.6742 148.921 18.119C148.238 15.4358 146.793 13.0079 144.761 11.1282C143.73 10.1661 142.466 9.48896 141.095 9.1634C139.723 8.83785 138.29 8.87498 136.937 9.27125C135.428 9.84817 134.035 10.6924 132.826 11.7635L131.58 12.7605C131.356 12.935 131.132 13.1095 130.895 13.2715C130.787 13.3656 130.67 13.449 130.546 13.5207C130.035 13.8322 130.372 13.8197 131.568 13.5207L132.95 14.3307C133.162 14.5301 132.614 13.7076 132.527 13.5331C132.44 13.3587 132.315 12.9972 132.153 12.5362C131.792 11.5517 131.468 10.5425 131.082 9.57047C130.42 7.2764 129.002 5.27365 127.058 3.88797C125.783 3.01093 124.258 2.57193 122.712 2.63711C121.166 2.70229 119.683 3.26816 118.487 4.2494C117.553 5.13058 116.763 6.1522 116.145 7.27745C115.737 8.02541 115.261 8.7346 114.725 9.39599L116.107 8.58597H116.456L118.038 9.02209C118.038 9.02209 118.562 9.55789 118.474 9.60774C118.387 9.65758 118.263 8.82273 118.25 8.7355C118.126 8.23704 118.051 7.72617 117.939 7.22771C117.7 5.88781 117.072 4.64793 116.132 3.6636C113.799 1.37511 110.679 0.0646669 107.412 0C105.872 0.120801 104.37 0.54391 102.994 1.24523C101.617 1.94656 100.392 2.91239 99.3888 4.0874C98.256 5.13237 97.2218 6.27951 96.2993 7.5143C95.5074 8.89415 95.221 10.5068 95.4895 12.0751L101.345 10.4926C98.5666 6.34294 94.4057 1.90654 88.8868 2.74146C86.4474 3.18811 84.1521 4.21853 82.197 5.74472C81.1142 6.58202 80.1866 7.60274 79.4562 8.76044C79.3192 8.98475 78.497 10.0065 78.5468 10.2682C78.5468 10.3305 79.7926 9.58286 79.8673 9.80716C79.8673 9.59532 78.7088 9.09679 78.497 8.95972C78.0987 8.67954 77.6825 8.42564 77.2512 8.19959C76.066 7.65918 74.8417 7.20934 73.5886 6.8538C71.097 6.06873 68.0075 5.1715 65.4287 5.75719C63.2304 6.42921 61.2966 7.77096 59.8974 9.59526C58.9921 10.6366 58.2792 11.8309 57.792 13.122C57.567 14.2305 57.2503 15.3183 56.8452 16.3744L60.3957 14.9288C61.1182 15.4273 61.2553 15.4646 60.8068 15.0534C60.6324 14.8665 60.4704 14.6671 60.3084 14.4802C59.9138 14.019 59.4711 13.6013 58.9879 13.2341C57.7927 12.3075 56.4713 11.5563 55.0637 11.0034C53.6611 10.5464 52.1783 10.3879 50.7108 10.5381C49.2433 10.6883 47.8235 11.144 46.5425 11.8758C44.1064 13.0835 42.1615 15.0949 41.0361 17.5706C40.4569 18.8207 40.0102 20.128 39.7031 21.4711C39.4415 22.6051 39.4664 24.1379 39.1674 25.0974L42.1947 22.7921C41.2316 22.6602 40.2868 22.4176 39.3792 22.0692C38.152 21.7886 36.8808 21.759 35.6418 21.982C33.4816 22.3392 31.5224 23.4629 30.123 25.1473C28.6536 26.9365 27.6939 29.089 27.3449 31.378C27.1579 32.5879 27.1579 33.8193 27.3449 35.0291C27.5318 36.2753 28.1795 37.2723 28.3789 38.3814L33.0008 34.8297C30.8358 33.6375 28.3955 33.036 25.9247 33.0852C23.5554 32.796 21.1599 33.3518 19.1601 34.6552C14.289 38.2317 16.1328 44.4251 19.0479 48.6122L23.3459 44.3129C19.0728 42.2567 13.8156 42.9546 11.0375 47.1541C10.3286 48.177 9.95702 49.3961 9.97489 50.6407C9.99276 51.8852 10.3992 53.0931 11.1372 54.0952C12.5076 56.0143 14.6378 56.9115 16.4567 58.2948C17.1786 58.7105 18.0351 58.8258 18.8413 58.616C19.6476 58.4062 20.3391 57.8881 20.7671 57.1732C21.1658 56.4459 21.2705 55.5935 21.0596 54.7913C20.8486 53.9892 20.3383 53.2985 19.6335 52.8616C18.7614 52.2011 17.7523 51.74 16.8927 51.067C16.7432 50.9549 16.4193 50.5188 16.2449 50.4939C16.1328 50.1948 16.0954 50.2945 16.1328 50.8179C16.1328 50.606 16.22 50.4939 16.357 50.4939C16.9301 50.2696 17.3661 49.6216 18.0015 49.4347C18.7416 49.2623 19.5194 49.3734 20.1816 49.7462C20.7856 50.0783 21.4797 50.209 22.163 50.1194C22.8463 50.0297 23.4833 49.7243 23.9813 49.2477C24.4703 48.757 24.7841 48.1188 24.8742 47.4317C24.9642 46.7447 24.8256 46.0472 24.4795 45.4469C23.6822 44.3005 21.0412 40.6742 23.022 39.6026C24.0243 39.2645 25.0961 39.1872 26.1365 39.3782C27.4385 39.3378 28.728 39.643 29.8738 40.2629C32.3654 41.8829 34.9318 39.2162 34.4957 36.7114C34.2217 35.241 33.3994 34.2192 33.524 32.6989C33.6383 31.4455 34.1193 30.2536 34.9069 29.272C36.8378 26.9292 39.89 29.1598 42.257 29.1349C42.9428 29.1237 43.6073 28.8943 44.1539 28.4797C44.7006 28.0652 45.1008 27.4871 45.2967 26.8296C45.4832 25.8707 45.608 24.9008 45.6704 23.9259C45.8507 22.9015 46.126 21.8962 46.4927 20.9228C46.772 20.1379 47.2059 19.4168 47.7687 18.8025C48.3314 18.1882 49.0117 17.6931 49.7691 17.3464C50.5282 16.9454 51.388 16.7753 52.2425 16.8572C53.0969 16.9391 53.9088 17.2695 54.5779 17.8075C56.0853 18.7919 56.9324 20.4741 58.7886 20.9851C59.4572 21.1575 60.1634 21.11 60.8028 20.8497C61.4423 20.5893 61.981 20.1301 62.3391 19.5396C63.4603 17.8698 63.1987 15.6017 64.4071 14.0067C64.8698 13.4298 65.3964 12.9072 65.9768 12.449C66.2748 12.1816 66.6161 11.9667 66.9859 11.8134C66.388 12.0128 67.6711 11.8883 67.7583 11.9008C69.9223 12.2317 72.0413 12.8087 74.0744 13.6204C74.6711 13.8852 75.2389 14.2108 75.7687 14.5923C76.6195 15.1946 77.5678 15.6457 78.5718 15.9258C81.0633 16.5364 83.0068 15.1781 84.265 13.097C85.1379 11.4706 86.54 10.1912 88.2391 9.47068C88.8595 9.10284 89.573 8.92245 90.2936 8.9512C91.0142 8.97994 91.7112 9.2166 92.3003 9.63268C93.8017 10.712 95.0723 12.0804 96.0377 13.6577C96.4028 14.2411 96.9423 14.6946 97.5795 14.9541C98.2168 15.2135 98.9196 15.2658 99.5882 15.1033C100.253 14.9185 100.839 14.5214 101.258 13.9724C101.676 13.4235 101.903 12.753 101.905 12.0628C101.81 11.6252 101.776 11.1762 101.806 10.7293C101.731 11.153 101.706 10.8664 101.98 10.6172C102.22 10.4142 102.449 10.1978 102.665 9.96917C103.541 8.92496 104.513 7.9653 105.568 7.10297C107.599 5.68237 109.854 6.44256 111.66 7.92547C112.495 8.61085 111.934 8.26196 111.859 8.11242C111.685 7.7635 111.859 8.27434 111.859 8.33664C111.931 8.8422 112.04 9.34203 112.183 9.83211C112.362 11.1664 112.905 12.4254 113.753 13.4708C114.244 14.0617 114.898 14.4951 115.633 14.7168C116.369 14.9384 117.153 14.9384 117.889 14.7169C119.421 14.2309 120.169 12.8976 120.978 11.6265C121.439 10.9162 121.975 9.48318 122.723 9.04703C123.121 8.81026 123.968 9.34611 124.255 9.67011C125.189 10.7916 125.75 13.1095 126.41 14.8292C127.419 17.4212 129.026 20.4618 132.365 19.5147C134.919 18.7919 136.401 15.9132 138.918 15.2029C140.849 14.6546 142.306 17.6953 142.78 19.2032C143.251 20.5756 143.503 22.0138 143.527 23.4649C143.313 25.0138 143.601 26.5907 144.349 27.9634C144.712 28.5496 145.251 29.0055 145.889 29.2653C146.527 29.5251 147.231 29.5754 147.9 29.409C148.883 29.0513 149.769 28.4713 150.491 27.7143L151.239 27.004C151.513 26.7423 152.36 26.2937 151.55 26.68C153.219 25.8825 154.752 24.9603 156.633 25.6831C157.581 26.1633 158.414 26.8447 159.072 27.6797C159.731 28.5148 160.199 29.4834 160.445 30.5181C160.796 31.5558 160.94 32.6524 160.869 33.7456C160.71 35.075 160.765 36.4212 161.031 37.7333C161.153 38.3824 161.45 38.986 161.889 39.4798C162.328 39.9736 162.892 40.339 163.522 40.5372C164.72 40.6961 165.935 40.4221 166.948 39.7646C168.406 39.0916 169.764 37.7208 171.134 38.8797C172.504 40.0386 172.38 42.7677 172.031 44.3628C171.37 46.9722 170.444 49.5069 169.265 51.927C169.05 52.7299 169.16 53.585 169.57 54.3078C169.98 55.0305 170.658 55.563 171.458 55.79C172.806 56.0206 174.183 56.0206 175.531 55.79C176.279 55.7152 177.039 55.6404 177.799 55.603C178.098 55.603 178.409 55.603 178.708 55.603H179.107C179.63 55.603 178.995 55.6903 178.895 55.603C179.171 55.7394 179.437 55.8934 179.692 56.0641C179.854 56.1887 180.266 56.5626 180.266 56.5751C180.266 56.5875 180.34 56.6748 180.365 56.7371C180.39 56.7994 180.589 57.7714 180.515 57.1857C180.577 57.6467 180.403 58.6436 180.652 59.0175C180.652 59.0175 180.863 58.5564 180.714 58.6685C180.561 58.8577 180.435 59.0674 180.34 59.2916C178.484 61.7839 174.709 64.2762 174.684 67.7654C174.684 73.0865 182.234 71.0678 184.439 74.8187C186.856 78.9434 183.318 82.9685 180.702 86.034C180.359 86.3771 180.099 86.794 179.942 87.253C179.786 87.7121 179.736 88.2009 179.797 88.682C179.859 89.1632 180.029 89.6239 180.296 90.0289C180.563 90.4339 180.919 90.7725 181.337 91.0186C183.093 92.0404 185.635 92.1026 186.98 93.0995C187.937 93.7937 188.778 94.6349 189.472 95.5918C190.157 96.5763 189.895 98.0842 189.721 99.2556C189.1 102.33 187.721 105.199 185.71 107.605C184.862 108.734 183.884 109.759 182.794 110.658C181.457 111.554 180.307 112.701 179.406 114.035C179.125 114.517 178.976 115.065 178.976 115.624C178.976 116.182 179.125 116.73 179.406 117.212C180.652 119.131 182.919 120.054 183.53 122.434C184.028 124.39 183.081 126.633 182.284 128.39C181.322 130.491 179.91 132.355 178.148 133.849C177.476 134.513 176.751 135.121 175.98 135.668C175.008 136.191 173.825 136.104 172.816 136.789C172.402 137.039 172.049 137.379 171.786 137.784C171.522 138.189 171.353 138.648 171.292 139.128C171.23 139.607 171.279 140.095 171.433 140.553C171.586 141.011 171.842 141.429 172.18 141.774C172.741 142.447 173.588 142.808 174.086 143.506C174.437 144.026 174.6 144.651 174.547 145.276C174.591 146.106 174.591 146.938 174.547 147.768C174.577 148.206 174.468 148.642 174.236 149.014C173.261 150.323 171.909 151.301 170.361 151.818C168.617 152.541 166.425 152.753 165.216 154.31C164.008 155.868 164.693 157.787 164.307 159.619C163.946 161.355 163.129 162.964 161.94 164.279C161.379 164.91 160.718 165.445 159.984 165.862C159.709 166.059 159.401 166.207 159.075 166.298C159.361 166.298 159.075 166.298 158.763 166.161C156.698 165.472 154.497 165.293 152.347 165.638C151.818 165.772 151.335 166.046 150.949 166.432C150.563 166.818 150.289 167.302 150.155 167.831C150.015 169.065 150.142 170.314 150.529 171.495C150.603 171.856 150.678 172.292 150.715 172.616C150.753 172.94 150.616 174.111 150.803 173.488C150.304 175.171 148.311 176.28 146.829 177.065C144.721 178.113 142.345 178.5 140.014 178.174C137.46 178.068 134.953 177.454 132.639 176.367C132.221 176.13 131.755 175.99 131.276 175.959C130.797 175.928 130.317 176.005 129.872 176.187C129.427 176.368 129.029 176.647 128.708 177.004C128.386 177.362 128.15 177.787 128.017 178.249C127.618 180.268 128.017 182.361 126.771 184.143C126.239 184.803 125.568 185.339 124.806 185.711C124.044 186.084 123.209 186.284 122.361 186.299C119.767 186.333 117.185 185.95 114.712 185.165C111.959 184.367 109.492 182.772 106.851 181.676C106.315 181.516 105.746 181.506 105.205 181.649C104.664 181.792 104.173 182.082 103.787 182.486C103.034 183.38 102.597 184.496 102.541 185.663C102.494 186.341 102.271 186.994 101.893 187.557C101.008 188.567 99.2892 187.869 98.1555 187.557C96.3376 187.11 94.6567 186.224 93.2596 184.978C91.8518 183.732 90.6933 181.863 88.6626 181.563C87.994 181.401 87.2912 181.453 86.654 181.713C86.0167 181.972 85.4773 182.426 85.1122 183.009C84.2899 184.554 85 186.523 83.1438 187.171C81.898 187.62 79.9172 186.536 78.8458 185.925C77.2323 184.824 75.7957 183.483 74.5852 181.95C73.9374 181.202 73.2148 180.454 72.6044 179.694C71.9438 178.674 71.0988 177.787 70.1128 177.077C69.5093 176.739 68.813 176.603 68.1266 176.691C67.4402 176.778 66.8 177.084 66.3007 177.563C65.4586 178.521 64.8678 179.673 64.5815 180.916C64.4454 181.35 64.2616 181.768 64.0333 182.162C63.3855 182.585 60.6448 180.841 59.9347 180.193C58.4925 178.656 57.4114 176.817 56.7705 174.809C55.9109 172.492 55.6617 169.825 54.4657 167.657C54.1802 167.193 53.7808 166.81 53.3054 166.544C52.83 166.278 52.2944 166.139 51.7499 166.139C51.2053 166.139 50.6699 166.278 50.1945 166.544C49.7191 166.81 49.3196 167.193 49.0341 167.657C48.5358 168.367 47.6139 170.248 46.7294 170.56C46.0966 170.555 45.4722 170.415 44.898 170.149C43.0079 169.49 41.4253 168.159 40.4506 166.41C39.9966 165.367 39.7919 164.232 39.8526 163.096C39.7654 161.822 39.7654 160.544 39.8526 159.27C40.1641 157.077 41.3974 154.672 39.292 152.89C38.7971 152.43 38.1719 152.135 37.5025 152.046C36.8332 151.957 36.1526 152.077 35.5546 152.391C33.9226 153.288 32.9135 155.021 30.9452 155.095C30.327 155.184 29.6964 155.117 29.111 154.899C28.5256 154.681 28.004 154.32 27.594 153.849C25.3765 150.971 28.3042 146.372 29.6123 143.656C30.9203 140.939 28.1796 137.649 25.3143 139.344C23.4106 140.377 21.2397 140.811 19.0853 140.59C18.2037 140.613 17.3253 140.474 16.4941 140.179C16.1134 140.069 15.772 139.853 15.5099 139.556C15.3647 138.547 15.4112 137.519 15.6469 136.528C15.8695 135.261 16.2899 134.037 16.8927 132.902C18.1385 130.546 20.2439 128.814 21.3527 126.397C21.7569 125.673 21.8646 124.82 21.6532 124.018C21.4417 123.216 20.9276 122.528 20.219 122.097C18.2506 121.138 15.8463 121.587 13.716 121.225C11.9594 120.939 10.6638 120.926 11.0375 119.119C11.5533 116.927 12.4836 114.855 13.7783 113.013C14.75 111.518 16.9176 111.343 17.7399 109.461C18.4873 107.767 18.0638 105.262 15.8712 104.838C13.9527 104.477 9.84154 105.237 10.8008 102.022C11.2409 100.693 11.9731 99.4793 12.9436 98.4705C14.0399 97.2243 15.622 96.6137 16.681 95.2928C18.0638 93.5606 17.8022 90.6447 15.2857 90.0465C13.118 89.5231 9.9786 90.682 8.09746 89.1991C6.85167 88.2271 7.30016 86.0714 7.63652 84.7754C8.25779 82.6737 9.44774 80.7848 11.0749 79.3172C11.8234 78.4236 12.7009 77.6466 13.6786 77.0119C14.89 76.3162 15.9492 75.3838 16.793 74.2703C18.0388 72.7126 16.793 70.021 14.9119 69.6471C14.2516 69.5225 13.5789 69.4851 12.9311 69.2982C12.2833 69.1112 11.6853 68.7747 11.1247 68.6127C10.5641 68.4507 10.1156 68.6128 9.69203 68.401C9.15953 68.1358 8.65464 67.8186 8.18467 67.4539C7.61161 67.0925 6.59005 66.7436 6.22877 66.1081C6.31183 66.4653 6.33674 66.4653 6.30352 66.1081C6.37159 65.7506 6.45895 65.3969 6.56516 65.0488C6.64916 64.7146 6.78352 64.3953 6.96375 64.1017C7.84826 62.8555 9.86649 62.1952 11.2991 61.7217C13.7035 60.9241 16.2823 61.2979 18.7739 61.3103C22.8227 61.3103 22.8227 55.0796 18.7739 55.0796L18.6742 54.98Z" fill="#004D2B"/>
<path d="M84.0283 50.8548C85.9193 50.9812 87.8143 50.6788 89.572 49.9701C91.0968 49.2634 92.5315 48.3765 93.8452 47.3282C95.2984 46.3084 96.563 45.0434 97.5825 43.5898C97.8465 43.1261 98.0835 42.6476 98.2926 42.1567C98.4171 41.8825 98.5791 41.621 98.7037 41.3468C98.9404 40.7985 98.5916 41.5088 98.3424 41.6459L94.6051 41.1599C95.7387 42.3063 96.5734 43.6522 97.6323 44.8983C98.7732 46.1151 100.053 47.1941 101.444 48.1133C103.936 49.8828 106.303 52.0761 109.567 51.7771C110.386 51.755 111.165 51.4197 111.745 50.8402C112.324 50.2606 112.659 49.481 112.681 48.6617C112.675 47.8375 112.345 47.0487 111.762 46.4659C111.179 45.883 110.391 45.5528 109.567 45.5463C109.147 45.5788 108.724 45.5222 108.327 45.3805C107.93 45.2388 107.567 45.0151 107.262 44.7238C106.228 44.0011 105.244 43.2035 104.235 42.4682C102.067 40.8981 100.859 38.6302 99.0027 36.7609C98.5112 36.295 97.8846 35.9969 97.2131 35.9095C96.5415 35.8222 95.8596 35.9502 95.2653 36.2749C94.2243 36.9128 93.423 37.8764 92.9856 39.0164C92.7862 39.465 92.5495 39.9012 92.3502 40.3498C92.6243 40.0383 92.6492 40.0133 92.4125 40.2625L91.9515 40.7735C91.6775 41.0476 91.4034 41.3343 91.1169 41.596C90.1315 42.4926 89.0443 43.2705 87.8778 43.9138C86.7305 44.5167 85.4269 44.7559 84.1404 44.5992C80.129 44.5992 80.129 50.83 84.1404 50.83L84.0283 50.8548Z" fill="#004D2B"/>
<path d="M52.4725 116.428L52.186 116.502C51.3927 116.729 50.7199 117.258 50.3123 117.976C49.9047 118.694 49.7947 119.542 50.0059 120.34C50.6412 122.284 51.9991 123.319 53.2574 124.789C53.1328 124.64 53.7432 125.474 53.8553 125.636C53.9674 125.798 54.2664 126.272 54.4533 126.596C54.8676 127.286 55.1901 128.028 55.4126 128.802C55.9531 130.368 56.2555 132.006 56.3096 133.662C56.1954 135.586 56.2496 137.517 56.4715 139.431C56.8453 141.488 59.4116 142.16 61.0436 141.288C61.9378 140.753 62.8964 140.335 63.8964 140.042C64.5317 139.855 65.1422 139.693 65.8398 139.568C65.8398 139.568 66.687 139.444 66.4004 139.469C66.1139 139.494 66.9984 139.469 67.1479 139.469C69.3 139.23 71.4647 139.793 73.2273 141.051C76.1674 143.045 79.5933 138.559 76.9647 136.166L77.463 136.989C77.2433 136.192 76.7163 135.516 75.9979 135.108C75.2795 134.7 74.4285 134.595 73.6322 134.814C72.836 135.034 72.1596 135.561 71.7519 136.28C71.3442 136.999 71.2386 137.85 71.4583 138.646C71.6255 139.383 72.0121 140.053 72.5671 140.565L76.3045 135.668C70.7607 131.93 63.4479 132.901 57.8294 135.917L62.4014 137.786C62.4762 138.198 62.4014 137.039 62.4014 136.902C62.4014 136.416 62.4014 135.93 62.4014 135.456C62.443 134.626 62.443 133.794 62.4014 132.964C62.2761 131.013 61.9164 129.084 61.3301 127.219C60.7413 125.329 59.8539 123.545 58.7015 121.935C58.1703 121.171 57.5743 120.454 56.92 119.792C56.6335 119.505 56.322 119.231 56.0479 118.932L55.9732 118.845C55.7863 118.521 55.7739 118.496 55.9732 118.758L53.8055 122.583L54.092 122.509C57.9415 121.412 56.2971 115.406 52.4351 116.502L52.4725 116.428Z" fill="#004D2B"/>
<path d="M107.985 143.643C109.704 143.767 111.386 143.182 113.105 143.169C114.824 143.157 116.843 143.07 118.724 143.169C121.651 143.281 124.255 145.138 126.622 146.908C127.035 147.146 127.497 147.286 127.973 147.319C128.448 147.352 128.925 147.276 129.367 147.097C129.809 146.918 130.204 146.641 130.523 146.286C130.841 145.932 131.075 145.509 131.207 145.051C131.4 144.068 131.4 143.056 131.207 142.073C131.069 141.51 130.961 140.94 130.883 140.365C130.764 139.048 130.848 137.72 131.132 136.428C131.387 135.38 131.863 134.398 132.527 133.549C133.62 132.417 134.468 131.073 135.019 129.599C135.23 128.804 135.121 127.958 134.716 127.243C134.311 126.528 133.641 126 132.851 125.773C132.055 125.565 131.209 125.674 130.493 126.079C129.777 126.484 129.246 127.152 129.014 127.941C128.864 128.235 128.675 128.507 128.453 128.751C127.929 129.332 127.434 129.94 126.971 130.571C126.114 131.853 125.486 133.274 125.115 134.77C124.723 136.329 124.559 137.937 124.629 139.543C124.621 140.377 124.68 141.21 124.803 142.035C124.855 142.432 124.938 142.824 125.052 143.207C125.052 143.306 125.127 143.805 125.189 143.456L129.774 141.587C126.857 139.153 123.319 137.582 119.558 137.051C117.633 136.951 115.704 136.951 113.778 137.051C112.691 137.028 111.604 137.086 110.526 137.225C109.71 137.42 108.874 137.52 108.035 137.524C107.209 137.524 106.417 137.853 105.833 138.437C105.249 139.021 104.92 139.813 104.92 140.64C104.92 141.466 105.249 142.258 105.833 142.843C106.417 143.427 107.209 143.755 108.035 143.755L107.985 143.643Z" fill="#004D2B"/>
<path d="M134.122 73.7466C134.657 74.5317 134.956 75.404 135.367 76.2389C135.948 77.1808 136.61 78.0689 137.348 78.893C138.417 80.3657 139.794 81.5865 141.385 82.4696C142.839 83.118 144.429 83.4044 146.019 83.3045C146.642 83.3045 147.265 83.2173 147.863 83.2048H148.673C149.046 83.2048 148.996 83.2048 148.511 83.2048C149.071 83.3544 148.772 83.2047 147.639 82.6315L147.153 78.893C146.791 79.4787 146.193 80.0396 145.782 80.7125C145.373 81.4826 145.043 82.2926 144.798 83.13C144.239 84.7828 143.864 86.492 143.677 88.2268C143.289 89.8117 143.059 91.4314 142.992 93.0619C143.076 94.1259 143.368 95.1631 143.851 96.1149C144.008 96.4641 144.183 96.8051 144.375 97.1366C144.487 97.3236 144.524 97.6601 144.487 97.2614C144.509 98.0807 144.844 98.8603 145.423 99.4399C146.003 100.019 146.782 100.355 147.601 100.377C148.426 100.373 149.216 100.044 149.8 99.4605C150.383 98.877 150.712 98.0866 150.716 97.2614C150.646 96.3672 150.427 95.4909 150.068 94.6693C149.831 94.121 149.383 93.4232 149.246 92.9995C148.959 92.0275 149.669 90.2206 149.806 89.124C149.939 87.8531 150.206 86.6 150.604 85.3856C150.747 84.8832 150.926 84.3917 151.139 83.915C151.476 83.3418 152.148 82.6689 152.535 82.0833C152.863 81.4898 152.993 80.8068 152.906 80.1342C152.818 79.4615 152.518 78.8345 152.049 78.3448C150.006 76.2762 147.065 77.6095 144.574 77.2108C144.973 77.2108 144.038 77.0488 144.051 77.0488C144.424 77.1734 143.664 76.837 143.577 76.7622C143.015 76.1963 142.483 75.6016 141.983 74.9803C141.038 73.6343 140.177 72.2319 139.404 70.7808C138.974 70.0815 138.292 69.5747 137.498 69.3658C136.705 69.1569 135.861 69.262 135.143 69.6592C134.437 70.0824 133.924 70.7651 133.715 71.5616C133.505 72.358 133.615 73.2048 134.022 73.9209L134.122 73.7466Z" fill="#004D2B"/>
<path d="M70.0505 74.9811C69.9454 75.1329 69.8497 75.2911 69.764 75.4547C69.9384 75.2304 69.4525 75.816 69.4027 75.8658C69.3529 75.9157 69.029 76.2272 68.8297 76.4141C68.6304 76.601 68.9916 76.3393 68.593 76.6135C68.1943 76.8877 67.696 77.1868 67.2226 77.4485L66.5001 77.7974C65.9644 78.0467 67.1478 77.5357 66.2135 77.922C65.3134 78.3923 64.3653 78.7642 63.3856 79.0311C63.6472 79.0311 62.9246 79.0311 62.8374 79.0311C62.7502 79.0311 62.0401 79.0311 62.364 79.0311C62.6879 79.0311 61.928 78.9313 61.8532 78.9188C61.2677 78.8316 62.0401 79.0809 61.5418 78.7943C60.8888 78.4559 60.1374 78.3585 59.4198 78.5194C58.7022 78.6802 58.0642 79.0889 57.618 79.6736C57.1717 80.2584 56.9458 80.9817 56.9799 81.7166C57.014 82.4514 57.3059 83.1508 57.8044 83.6917C58.0411 83.9284 58.2653 84.1776 58.502 84.4019C59.0502 84.9378 58.365 84.0405 58.7387 84.676C58.7387 84.7508 59.1872 85.4612 58.9879 85.0499C59.1249 85.3241 59.2122 85.6356 59.3243 85.9222C59.9107 87.1046 60.33 88.3627 60.5701 89.6606C60.7071 91.1186 60.8691 92.6389 61.0435 94.0097C61.0701 95.5043 61.2033 96.9953 61.4422 98.471C61.6354 99.1209 62.0305 99.6924 62.5704 100.102C63.1103 100.512 63.7667 100.74 64.4445 100.751C65.1264 100.75 65.7895 100.527 66.3335 100.116C66.8774 99.7044 67.2725 99.127 67.4593 98.471C67.6336 97.3166 67.6838 96.1468 67.6088 94.9817C67.5795 94.2315 67.6763 93.4816 67.8953 92.7635C68.2828 90.9646 68.7821 89.1918 69.3903 87.4551C69.9986 85.9092 70.7189 84.4097 71.5455 82.9688C71.8277 82.3408 72.206 81.7606 72.6667 81.2491C72.9657 80.9625 73.3021 80.7009 73.5761 80.3894C73.8502 80.0778 74.0122 79.8285 74.224 79.5544C74.0371 79.841 74.0246 79.8161 74.224 79.5544L72.8536 80.3644L73.0778 80.2772L69.2408 76.439V76.6883C69.0462 77.4839 69.1637 78.3238 69.5692 79.0354C69.9747 79.7469 70.6374 80.2761 71.4209 80.5139C72.2154 80.7287 73.0624 80.6215 73.7784 80.2156C74.4944 79.8097 75.0215 79.1378 75.2454 78.3457V78.0965C75.378 77.5654 75.3745 77.0094 75.2351 76.4801C75.0957 75.9508 74.8251 75.4651 74.4482 75.0683C74.065 74.6709 73.58 74.3863 73.0462 74.2456C72.5123 74.105 71.9502 74.1137 71.4209 74.2707C70.7606 74.4937 70.1509 74.8454 69.627 75.3051C69.3778 75.5544 69.1909 75.8658 68.9667 76.14C68.7674 76.2397 68.7425 76.4141 68.9667 76.14C68.0731 76.812 67.3268 77.6602 66.7741 78.6323C65.646 80.5152 64.6631 82.4815 63.8341 84.514C63.0656 86.3951 62.4572 88.3377 62.0152 90.3211C61.6763 91.5196 61.4428 92.7456 61.3175 93.9849C61.3175 94.8447 61.5044 96.1531 61.3923 96.7637H67.4095C67.235 96.1656 67.3223 97.0004 67.4095 96.3649C67.4095 95.991 67.4095 95.6048 67.4095 95.231C67.3703 94.3964 67.2871 93.5645 67.1603 92.7387C66.9111 91.1187 66.961 89.3366 66.5748 87.6294C66.1792 86.1804 65.6625 84.7674 65.03 83.4051C64.4003 81.8558 63.454 80.4551 62.2519 79.2927L58.5145 84.19C59.9582 84.9707 61.5834 85.3535 63.2236 85.2991C64.136 85.2855 65.0403 85.1256 65.902 84.8256C66.4253 84.6386 66.9361 84.4143 67.4469 84.2025C67.5216 84.2025 68.3314 83.8287 67.9825 83.9658C71.0347 82.7196 73.8129 81.0872 75.5445 78.1712C75.9625 77.4573 76.0798 76.6066 75.8707 75.8062C75.6616 75.0058 75.1432 74.3213 74.4295 73.9032C73.7158 73.4851 72.8653 73.3678 72.0651 73.5769C71.2649 73.7861 70.5806 74.3045 70.1627 75.0184L70.0505 74.9811Z" fill="#004D2B"/>
<path d="M70.9975 112.913L71.0848 112.826L69.7019 113.624H68.1696C67.6962 113.374 67.5716 113.312 67.7959 113.462C68.0201 113.611 67.9204 113.461 67.6339 113.324L68.0076 113.698C68.182 113.873 68.344 114.084 68.5184 114.259C68.8922 114.62 68.4187 113.997 68.3315 113.96C68.5054 114.452 68.6266 114.962 68.6929 115.48C68.9564 116.24 69.1768 117.014 69.3531 117.798C69.3217 118.155 69.2634 118.509 69.1787 118.857C69.0292 119.48 68.8174 120.103 68.6181 120.727C68.1323 122.197 67.1356 123.393 66.712 124.889C66.5653 125.484 66.5953 126.109 66.7983 126.688C67.0014 127.266 67.3687 127.773 67.8552 128.146C68.3417 128.519 68.9263 128.742 69.5376 128.787C70.1488 128.833 70.76 128.699 71.2965 128.403C72.8538 127.468 73.3272 125.587 74.8969 125.287C76.8416 125.177 78.7924 125.316 80.7022 125.699C81.7611 125.848 82.8948 125.861 83.9413 126.073C84.9507 126.327 85.9448 126.639 86.9188 127.007C87.4987 127.21 88.0946 127.365 88.7002 127.468C88.8124 127.468 89.946 127.742 89.4477 127.58C90.0207 127.767 90.5439 128.104 91.1419 128.253C91.7399 128.403 92.2756 128.428 92.8238 128.54C93.5599 128.74 94.3434 128.667 95.0301 128.335C95.7168 128.003 96.2605 127.434 96.5612 126.733C96.8616 126.044 96.9008 125.269 96.6715 124.554C96.4422 123.838 95.9601 123.231 95.3154 122.845C90.9551 120.639 86.0716 119.879 81.6989 117.736C77.7947 115.9 74.3988 113.136 71.8073 109.686L69.951 114.271L69.8016 114.359C70.6255 114.352 71.414 114.022 71.9967 113.439C72.5793 112.856 72.9095 112.068 72.916 111.243C72.897 110.423 72.5628 109.642 71.9828 109.062C71.4028 108.481 70.6216 108.147 69.8016 108.128C69.2957 108.082 68.7857 108.124 68.2942 108.253C67.8359 108.384 67.4135 108.618 67.0591 108.937C66.7047 109.256 66.4276 109.651 66.2487 110.093C66.0698 110.535 65.9938 111.012 66.0266 111.488C66.0594 111.963 66.2001 112.425 66.438 112.838C69.408 116.985 73.3076 120.378 77.8244 122.745C82.4089 125.138 87.5914 125.911 92.176 128.228L94.5678 122.533C94.0072 122.421 93.4467 122.346 92.8861 122.234C92.7241 122.234 92.3006 122.047 92.6743 122.234C92.3379 122.097 92.014 121.898 91.6652 121.773C90.5689 121.387 89.3605 121.262 88.2393 120.889C87.1286 120.488 85.9869 120.18 84.8258 119.966C83.4554 119.767 82.0726 119.667 80.6898 119.493C78.3228 119.194 75.4699 118.67 73.1403 119.368C71.8935 119.78 70.7415 120.437 69.7518 121.3C69.3584 121.643 69.0071 122.032 68.7053 122.459L68.2942 122.994C67.7959 123.318 68.3814 122.895 68.2942 122.994L72.8662 126.509C73.0402 126.143 73.2444 125.793 73.4766 125.462C73.8152 124.849 74.1067 124.212 74.3487 123.555C74.6851 122.683 74.9841 121.773 75.2333 120.876C75.5803 119.721 75.7319 118.517 75.6817 117.312C75.5133 116.171 75.2508 115.045 74.8969 113.947C74.5776 112.197 73.77 110.573 72.5672 109.262C70.9851 107.642 68.6306 106.67 66.737 108.489C63.8467 111.281 68.2568 115.68 71.147 112.901L70.9975 112.913Z" fill="#004D2B"/>
<path d="M108.957 127.804C115.449 125.812 120.923 121.393 124.242 115.468C124.659 114.754 124.775 113.904 124.564 113.104C124.354 112.305 123.835 111.622 123.121 111.206C122.408 110.789 121.558 110.674 120.759 110.884C119.96 111.094 119.277 111.613 118.861 112.327C118.2 113.474 117.465 114.57 116.905 115.779C116.279 117.169 115.859 118.642 115.659 120.153C115.364 121.642 115.493 123.183 116.033 124.602C116.499 126.146 117.502 127.472 118.861 128.34C119.574 128.757 120.424 128.872 121.223 128.662C122.022 128.452 122.705 127.933 123.121 127.219C123.538 126.505 123.653 125.655 123.443 124.856C123.233 124.056 122.714 123.373 122 122.957C119.719 121.707 117.115 121.169 114.525 121.412C113.165 121.42 111.808 121.528 110.464 121.736C110.09 121.798 109.717 121.873 109.343 121.972C108.782 122.11 110.14 121.848 109.268 121.972C108.936 121.972 109.048 121.997 109.604 122.047C109.081 121.898 109.368 122.047 110.439 122.583C109.838 122.024 109.055 121.7 108.234 121.673C107.409 121.679 106.618 122.005 106.029 122.583C105.007 123.705 104.659 125.923 106.029 126.994C106.836 127.714 107.855 128.151 108.932 128.241C109.564 128.257 110.195 128.199 110.813 128.066C111.237 128.023 111.655 127.931 112.059 127.792C111.623 127.792 111.585 127.792 111.934 127.792H112.42H113.267C114.421 127.73 115.577 127.73 116.73 127.792H117.054H116.88C117.017 127.717 117.602 127.941 117.739 127.979L118.163 128.116C118.487 128.24 118.45 128.216 118.038 128.116C118.288 128.116 118.636 128.428 118.848 128.552L121.988 123.169C121.726 123.032 121.838 123.169 122.312 123.455L122.1 123.256C122.424 123.692 122.486 123.767 122.299 123.505C122.249 123.433 122.203 123.358 122.162 123.281C122.05 123.094 121.963 122.907 121.863 122.72C122.112 123.443 121.589 122.222 121.863 122.72L121.726 122.284C121.539 121.686 121.651 122.82 121.726 122.172C121.726 122.022 121.726 121.86 121.726 121.698V122.06C121.765 121.741 121.823 121.424 121.9 121.113C122 120.602 122.1 120.078 122.249 119.567L122.399 119.144V119.268C122.399 119.094 122.61 118.82 122.685 118.658C123.208 117.661 123.844 116.701 124.404 115.717L119.023 112.576C118.661 113.2 118.288 113.823 117.877 114.396C117.69 114.683 117.478 114.957 117.279 115.231C117.079 115.505 117.69 114.732 117.279 115.169L116.88 115.654C115.972 116.733 114.972 117.729 113.89 118.633L113.479 118.957C113.853 118.683 113.043 119.318 113.479 118.957C113.105 119.231 112.931 119.368 112.644 119.555C112.046 119.966 111.398 120.34 110.8 120.689L109.879 121.15L109.418 121.374C108.994 121.561 109.193 121.374 109.492 121.374C108.77 121.599 108.085 121.91 107.35 122.122C106.553 122.342 105.877 122.869 105.469 123.588C105.062 124.306 104.956 125.157 105.176 125.954C105.395 126.75 105.922 127.427 106.641 127.835C107.359 128.243 108.21 128.348 109.006 128.128L108.957 127.804Z" fill="#004D2B"/>
<path d="M47.3275 88.8258L47.0161 88.7634L49.1962 92.6015C49.3955 91.6419 49.8689 90.7698 50.0433 89.7728C50.2402 88.6367 50.3444 87.4865 50.3548 86.3335C50.3905 85.1333 50.3197 83.9322 50.143 82.7446C49.8537 81.5523 49.436 80.3949 48.8972 79.2927C48.2197 77.3391 47.3865 75.4429 46.4056 73.6227C45.4962 72.1398 43.6898 70.931 43.0545 69.5478L41.1858 74.1212C40.1019 74.3081 41.709 74.4702 41.9831 74.5076C42.4821 74.5802 42.9864 74.6093 43.4904 74.5947C44.4746 74.5947 45.4464 74.5947 46.4306 74.5947C48.6033 74.5955 50.7427 74.0605 52.6595 73.037C54.4768 72.0468 56.1882 70.8735 57.7672 69.5354C59.3494 68.2893 61.5046 67.1552 61.2554 64.7501C61.2334 63.9308 60.8982 63.1512 60.3189 62.5717C59.7395 61.9921 58.96 61.6568 58.1409 61.6348C57.3179 61.6445 56.5314 61.9758 55.9494 62.558C55.3674 63.1401 55.0362 63.9269 55.0265 64.7501V64.501L55.8238 63.1302C55.2383 63.8156 56.1726 62.8685 55.4874 63.4293C55.151 63.7034 54.8022 63.9527 54.4658 64.2144C53.8554 64.6879 53.2201 65.1989 52.6719 65.6475C51.3916 66.6841 49.9641 67.524 48.4363 68.1398C47.1608 68.3913 45.8548 68.45 44.5619 68.3141C43.9083 68.3955 43.2471 68.3955 42.5935 68.3141C41.5877 68.036 40.5333 67.9807 39.5039 68.1521C37.3487 68.5135 36.9002 71.1055 37.6477 72.7255C38.3952 74.3455 39.8777 75.2178 40.8993 76.5885C41.7429 77.9447 42.4125 79.4016 42.8925 80.9251C43.3033 81.7841 43.653 82.6711 43.939 83.5794C44.101 84.3407 44.1637 85.1199 44.1258 85.8973C44.1465 86.6503 44.1174 87.4037 44.0386 88.1528C43.9016 89.1622 43.4033 89.9971 43.1915 90.9816C42.9831 91.7777 43.0929 92.6236 43.4975 93.3401C43.9022 94.0566 44.5699 94.5873 45.3591 94.8196H45.6706C46.4677 95.0179 47.3106 94.9021 48.0248 94.4962C48.7389 94.0903 49.2698 93.4253 49.5076 92.6389C49.7188 91.841 49.6088 90.9921 49.2011 90.2745C48.7935 89.5569 48.1208 89.0278 47.3275 88.8008V88.8258Z" fill="#004D2B"/>
<path d="M117.241 74.9179C117.234 75.6309 117.399 76.335 117.723 76.9706C118.046 77.6062 118.517 78.1546 119.097 78.5692C119.28 78.7367 119.471 78.8948 119.67 79.0427C119.546 78.9555 119.334 78.5566 119.571 78.9055C119.807 79.2544 120.069 79.6532 120.306 80.0271C120.841 80.8869 121.352 81.7716 121.85 82.6439C122.05 82.9929 122.237 83.3294 122.411 83.6659C122.486 83.8029 122.561 83.9275 122.623 84.0646C122.685 84.2016 122.399 83.1673 122.623 84.3761C122.838 85.1176 123.117 85.8389 123.457 86.5319C123.604 87.0361 123.7 87.5539 123.744 88.0773C124.016 89.4372 124.183 90.8162 124.242 92.2019C124.242 93.8344 124.242 95.4669 124.242 97.0994C124.258 97.71 124.204 98.3204 124.08 98.9187C124.006 99.3174 123.943 99.7287 123.906 100.165C123.875 100.363 123.875 100.565 123.906 100.763C123.906 101.137 123.956 101.012 124.055 100.389L129.861 101.959C129.985 101.429 130.169 100.915 130.409 100.426C130.673 99.6712 130.878 98.8962 131.019 98.1087C131.368 96.551 131.742 95.0183 132.265 93.498C132.559 92.3472 132.977 91.2316 133.511 90.1707C133.756 89.7127 134.03 89.2715 134.333 88.8499C134.146 89.0866 134.333 88.8498 134.458 88.7251C134.832 88.2765 134.333 88.9744 133.636 88.962V82.7313C132.576 82.9238 131.483 82.8114 130.484 82.4072C130.113 82.2433 129.755 82.0517 129.412 81.8341C129.412 81.8341 128.889 81.4353 129.126 81.6346C129.362 81.834 128.827 81.3356 128.827 81.3356C128.615 81.1237 128.191 80.513 128.578 81.0987C128.416 80.862 128.266 80.6253 128.117 80.3885C127.782 79.8134 127.362 79.2924 126.871 78.8433C126.279 78.2759 125.492 77.959 124.672 77.959C123.853 77.959 123.065 78.2759 122.473 78.8433C121.891 79.4272 121.565 80.2182 121.565 81.0427C121.565 81.8673 121.891 82.6583 122.473 83.2422C122.361 82.9556 123.009 83.6908 122.473 83.2422C122.62 83.5185 122.791 83.7812 122.984 84.0273C123.527 84.889 124.2 85.6622 124.977 86.3202C126.098 87.2331 127.361 87.9571 128.715 88.4635C130.261 88.9827 131.901 89.1655 133.523 88.9994C137.51 88.8 137.56 82.7687 133.523 82.7687C129.886 82.7687 127.606 87.1425 126.672 90.1208C126.061 92.0648 125.501 93.9964 125.052 95.9653C124.902 96.8059 124.706 97.6379 124.467 98.4576C123.942 99.5742 123.63 100.778 123.545 102.009C123.557 102.689 123.786 103.346 124.199 103.887C124.611 104.427 125.185 104.821 125.837 105.012C126.499 105.169 127.193 105.116 127.823 104.859C128.453 104.602 128.987 104.155 129.35 103.579C130.21 102.42 130.073 100.813 130.284 99.4794C130.486 97.6547 130.531 95.8164 130.421 93.984C130.426 92.3845 130.33 90.7862 130.135 89.1987C130.043 87.4077 129.673 85.642 129.039 83.9649C128.528 82.9431 128.316 81.8215 127.793 80.7747C127.394 80.0021 126.946 79.242 126.547 78.4819C126.148 77.7217 125.525 76.7497 124.952 75.9896C124.646 75.5404 124.295 75.1229 123.906 74.7434C123.719 74.569 123.507 74.4194 123.32 74.2574L123.071 74.0457C122.548 73.4849 122.66 73.8462 123.408 75.1173C123.401 74.2931 123.071 73.5045 122.488 72.9217C121.906 72.3388 121.117 72.0085 120.293 72.002C119.472 72.0179 118.689 72.3512 118.109 72.932C117.528 73.5128 117.195 74.2961 117.179 75.1173L117.241 74.9179Z" fill="#004D2B"/>
<path d="M86.7568 70.2451C88.2128 69.2287 89.8843 68.5632 91.6403 68.3011C93.509 67.9148 95.3776 67.4413 97.2962 67.1298C99.1364 66.9679 100.987 66.9679 102.827 67.1298C103.478 67.1186 104.124 67.2461 104.721 67.5037C105.324 67.8329 105.948 68.1201 106.59 68.3634L107.674 68.513C108.035 68.513 108.047 68.513 107.674 68.513L106.303 67.7154L106.503 67.8899L107.873 62.6934C108.089 62.6828 108.306 62.7168 108.508 62.7932C108.907 62.9178 108.969 62.9303 108.72 62.7932C108.505 62.6385 108.276 62.5049 108.035 62.3943C107.507 62.0663 106.963 61.7668 106.403 61.4972C105.188 60.9679 104.02 60.3341 102.915 59.603C102.317 59.1295 101.781 58.6187 101.171 58.17C101.171 58.17 100.635 57.6965 100.872 57.9581C100.872 58.3445 101.108 58.2198 100.872 57.9581C100.581 56.686 99.9962 55.4995 99.1648 54.4938C98.7312 53.799 98.0479 53.2968 97.2554 53.0905C96.4629 52.8843 95.6215 52.9895 94.9043 53.3847C93.2598 54.2944 92.8487 56.039 92.6369 57.7587C92.6369 58.1201 92.5622 58.4815 92.5124 58.8429C92.5996 58.145 92.4376 58.9176 92.5124 58.955C92.7366 58.4939 92.7615 58.4192 92.612 58.7058C92.4625 58.9924 92.4376 59.0049 92.3379 59.1419C92.5373 58.8678 91.9767 59.5407 91.877 59.6279C91.7151 59.7775 91.7773 59.7152 91.877 59.6279C91.7021 59.7598 91.519 59.8806 91.3289 59.9894C91.0174 60.1763 90.681 60.3383 90.3571 60.5003C89.5847 60.8742 88.8124 61.2355 88.0524 61.6342C86.3587 62.5154 84.795 63.6267 83.4057 64.9365C80.503 67.7154 84.913 72.1144 87.8157 69.3479C90.1952 67.08 93.5588 66.3572 96.0379 64.2263C97.2401 63.2257 98.1092 61.8825 98.5295 60.3756C98.6644 59.6842 98.756 58.985 98.8036 58.2822C98.8783 57.522 98.6666 58.6933 98.8036 58.0453C98.8291 57.889 98.8666 57.7348 98.9157 57.5842C98.771 58.0691 98.4454 58.4797 98.0063 58.7308L93.7457 57.6217C94.7423 58.8678 94.8046 60.1139 95.7016 61.4847C96.314 62.2368 97.0364 62.8922 97.8443 63.4287C97.4955 63.1421 98.243 63.8026 98.3177 63.8649C98.7537 64.2387 99.2023 64.5876 99.6757 64.9241C101.199 65.8328 102.766 66.6646 104.372 67.4164C105.929 68.326 107.611 69.323 109.48 68.6625C111.349 68.002 112.731 65.1609 110.85 63.4537C110.239 62.8671 109.467 62.4765 108.633 62.3321C108.633 62.3321 107.736 62.1203 108.097 62.3321C108.458 62.544 107.923 62.1079 108.097 62.22C107.476 61.8047 106.783 61.5088 106.054 61.3476C105.409 61.1522 104.745 61.0228 104.073 60.9614C101.755 60.7059 99.4153 60.7059 97.0969 60.9614C94.7922 61.2356 92.4999 61.8336 90.2201 62.2947C87.869 62.6774 85.629 63.5659 83.6548 64.8991C82.9625 65.335 82.4624 66.0185 82.2564 66.8103C82.0504 67.6022 82.154 68.4429 82.5461 69.161C82.9645 69.8725 83.6472 70.3896 84.4453 70.5997C85.2434 70.8098 86.0922 70.6958 86.8066 70.2826L86.7568 70.2451Z" fill="#004D2B"/>
</g>
<defs>
<clipPath id="clip0_195_1864">
<rect width="196" height="194" fill="white"/>
</clipPath>
</defs>
</svg>
