<svg width="270" height="170" viewBox="0 0 270 170" fill="none" xmlns="http://www.w3.org/2000/svg">
<g clip-path="url(#clip0_195_1741)">
<path d="M100.374 132.446L100.177 131.462C97.4936 130.915 94.7033 131.359 92.3216 132.713C89.7995 134.01 85.5074 136.188 83.61 138.389C81.213 141.449 79.9826 145.264 80.1393 149.15C80.1393 153.992 79.9774 155.636 83.934 158.695C87.4047 161.405 91.5465 162.83 95.6188 164.405C99.6911 165.981 103.382 165.297 107.535 166.131C114.476 167.51 121.418 166.988 128.545 167.046C132.443 167.046 135.486 165.807 139.281 165.888C143.266 165.829 147.24 165.442 151.162 164.729C155.603 164.083 160 163.162 164.328 161.973C168.238 160.814 171.697 159.239 175.527 157.826C182.468 155.289 189.491 149.323 187.212 140.752C186.286 137.277 183.104 135.041 180.582 132.944C179.495 132.041 173.317 126.214 172.854 130.083" fill="#8CA54F"/>
<path d="M103.162 131.682L102.965 130.685C102.835 130.2 102.579 129.759 102.224 129.405C101.868 129.051 101.425 128.797 100.94 128.67C97.3802 127.929 93.6722 128.532 90.5283 130.361C87.8119 131.651 85.2406 133.228 82.858 135.064C77.7676 139.257 76.7612 146.647 77.3512 152.798C77.5002 155.309 78.5765 157.675 80.3707 159.436C83.0848 161.946 86.2539 163.912 89.7069 165.227C93.0038 166.785 96.5124 167.847 100.119 168.378C101.75 168.552 103.393 168.575 105.024 168.726C107.061 168.911 109.074 169.398 111.121 169.629C115.069 170.014 119.038 170.149 123.003 170.035C126.77 170.132 130.54 169.915 134.271 169.386C137.939 168.737 141.606 168.899 145.297 168.482C148.987 168.065 152.944 167.463 156.727 166.745C164.211 165.268 171.501 162.936 178.454 159.795C183.718 157.478 188.866 153.146 190.185 147.296C190.628 145.504 190.707 143.642 190.417 141.819C190.127 139.996 189.474 138.25 188.496 136.686C186.783 134.172 184.4 132.434 182.133 130.465C180.551 128.957 178.773 127.671 176.846 126.643C174.185 125.403 170.656 125.901 170.101 129.353C169.923 130.093 170.033 130.872 170.41 131.533C170.786 132.194 171.399 132.686 172.125 132.909C172.865 133.112 173.654 133.012 174.32 132.632C174.986 132.252 175.474 131.622 175.677 130.882V130.639C175.747 130.361 175.758 130.373 175.677 130.639C175.677 130.639 174.902 131.577 174.52 131.682C174.138 131.786 173.456 131.438 174.081 131.774L174.647 132.064C175.085 132.316 175.51 132.591 175.92 132.886C176.672 133.419 177.586 134.23 178.616 135.099C180.501 136.697 182.769 138.191 183.995 140.404C184.959 142.32 185.125 144.54 184.458 146.578C183.209 150.702 179.009 153.528 175.203 155.022C172.148 156.181 169.106 157.501 166.005 158.555C162.833 159.6 159.594 160.428 156.31 161.034C153.083 161.683 149.832 162.193 146.569 162.621C143.307 163.05 140.09 162.888 136.863 163.247C133.866 163.773 130.842 164.121 127.804 164.289C124.333 164.289 120.944 164.382 117.508 164.289C114.276 164.22 111.055 163.906 107.87 163.351C104.77 162.83 101.554 163.061 98.4878 162.343C95.6264 161.581 92.8537 160.517 90.216 159.169C88.0758 158.138 85.114 156.424 83.9571 154.837C83.846 154.682 83.7455 154.519 83.6563 154.35C83.6563 154.281 83.3092 153.54 83.4943 154.072C83.4249 153.864 83.1936 152.775 83.2514 153.215C83.1282 151.976 83.0857 150.73 83.1242 149.485C82.9748 146.522 83.7423 143.586 85.3222 141.076C86.8493 138.863 89.5565 137.601 91.8588 136.35C94.161 135.099 96.7641 133.685 99.4598 134.369L97.4352 132.342L97.6433 133.326C97.7338 133.704 97.899 134.059 98.1293 134.371C98.3595 134.683 98.6501 134.946 98.9837 135.143C99.3173 135.341 99.6871 135.469 100.071 135.521C100.455 135.572 100.846 135.546 101.22 135.443C101.593 135.341 101.943 135.164 102.247 134.924C102.551 134.684 102.804 134.385 102.991 134.044C103.177 133.704 103.294 133.33 103.333 132.944C103.372 132.558 103.334 132.168 103.22 131.797L103.162 131.682Z" fill="#004D2B"/>
<path d="M153.638 147.493L106.089 148.269V120.399L121.187 115.546L131.31 116.53L135.231 111.943L155.489 109.661L163.911 120.399L172.889 130.06L170.621 138.771L153.638 147.493Z" fill="#F3BC61"/>
<path d="M60.7956 3.33594H52.9517C48.4861 3.33594 45.1774 4.74913 41.0472 6.23182C34.9853 8.45145 29.3875 11.7782 24.5381 16.043C21.9003 18.3598 19.2972 20.8155 16.6479 23.1785C13.9985 25.5416 12.8532 29.1209 10.8633 32.1906C4.28047 42.1061 3.11209 54.454 3.01954 66.1303C2.77091 71.5635 4.13553 76.9486 6.94135 81.6058C9.62538 85.9497 11.8236 91.2666 15.4448 94.8227C23.7543 102.967 34.5805 108.044 46.1491 109.221C50.7906 109.849 55.4647 110.205 60.1477 110.287C64.5426 110.336 68.8605 109.13 72.5961 106.812C74.9294 105.702 77.1729 104.413 79.3062 102.954C81.8051 101.031 84.0149 97.9735 86.1668 95.6336C91.9513 89.3669 96.9839 83.0538 100.05 74.9801C104.596 63.0259 109.617 51.952 107.107 38.9553C105.175 28.9587 102.248 19.5877 93.3396 13.6337C89.568 11.1201 84.9635 9.83435 80.7639 8.30532C79.0286 7.66823 77.1081 7.05432 75.3149 6.59098C73.5217 6.12764 62.5889 3.11592 60.8072 3.40551" fill="#D1C8E1"/>
<path d="M60.7956 0.463491C57.4099 0.320557 54.0189 0.363076 50.6379 0.590893C47.6673 0.981985 44.7566 1.74066 41.9726 2.84963C35.9514 4.92748 30.2943 7.94143 25.209 11.7806C22.6522 13.7498 20.3152 15.9855 17.932 18.1516C15.5488 20.3177 13.3044 22.1826 11.6153 24.8815C10.1923 27.1982 8.95437 29.654 7.53137 31.9823C5.96284 34.6151 4.66808 37.402 3.66732 40.2993C1.78497 46.0017 0.676018 51.9314 0.370154 57.9294C-0.0231956 63.7212 -0.347114 69.7561 1.11059 75.3973C1.86627 78.2552 3.03557 80.987 4.58133 83.5058C6.02747 85.9036 7.27687 88.4173 8.71144 90.8267C11.8142 95.7706 15.9654 99.9705 20.8706 103.128C25.5552 106.297 30.7141 108.698 36.1533 110.241C42.1305 111.794 48.2526 112.721 54.421 113.009C57.5333 113.316 60.6681 113.316 63.7804 113.009C66.6482 112.609 69.4309 111.74 72.0176 110.438C74.6855 109.201 77.2606 107.772 79.7227 106.163C82.1837 104.352 84.3901 102.216 86.2824 99.8155C90.0655 95.3674 94.0799 91.151 97.3424 86.2743C100.744 81.1891 102.849 75.5943 105.013 69.9183C107.371 64.2448 109.083 58.3229 110.115 52.265C110.889 46.1383 110.496 39.9203 108.958 33.9399C107.894 28.9125 105.977 24.105 103.289 19.7269C100.214 14.9922 95.8395 11.2474 90.6902 8.94258C82.4081 5.39369 73.7709 2.74148 64.9257 1.03107C63.5773 0.639559 62.1757 0.463697 60.7725 0.50987C60.0127 0.533113 59.2905 0.845598 58.7531 1.38373C58.2156 1.92185 57.9034 2.64508 57.8802 3.40575C57.8802 4.80736 59.2106 6.51014 60.7725 6.30164C61.1566 6.25318 61.5452 6.25318 61.9294 6.30164C61.0733 6.22055 62.2534 6.30159 62.4153 6.39426C62.8318 6.46376 63.2367 6.5448 63.6416 6.63747C65.4348 7.00814 67.2164 7.44827 68.9981 7.90003C72.4688 8.79196 76.0321 9.67239 79.4103 10.8771C84.3503 12.6262 89.6259 14.051 93.6867 17.526C97.1003 20.499 99.7003 24.2944 101.241 28.5536C103.069 33.2219 104.237 38.1225 104.712 43.114C105.014 48.727 104.257 54.3467 102.479 59.6785C100.822 65.1513 98.8402 70.5201 96.5442 75.7565C94.3118 80.6146 91.4021 85.1308 87.9021 89.1702C86.1552 91.2552 84.2694 93.2361 82.4993 95.3095C80.9124 97.4212 79.0661 99.3243 77.004 100.974C74.6751 102.506 72.2437 103.876 69.7269 105.074C67.727 106.13 65.5709 106.857 63.3408 107.229C60.376 107.547 57.3858 107.547 54.421 107.229C51.4362 107.009 48.4514 106.708 45.4897 106.314C40.4516 105.679 35.5376 104.289 30.9126 102.19C26.2452 100.038 21.9494 97.1566 18.1866 93.653C14.3457 90.0389 12.3095 85.2434 9.64861 80.7837C8.25315 78.5853 7.1998 76.1871 6.52486 73.6714C5.95098 71.1378 5.6983 68.5421 5.77284 65.9453C5.71929 60.5391 6.14918 55.1388 7.05714 49.8093C7.93883 44.4916 9.8024 39.3849 12.5525 34.7507C13.8713 32.6078 15.0051 30.3953 16.2777 28.2292C17.7007 25.8198 19.8757 24.1518 21.9118 22.2984C26.3312 18.2789 30.6466 14.4795 35.9683 11.6647C38.4478 10.3989 41.0106 9.30374 43.6387 8.38659C46.0824 7.35942 48.6555 6.67342 51.2858 6.34788C54.3979 6.13937 57.5679 6.34788 60.6915 6.34788C64.4052 6.34788 64.4168 0.556108 60.6915 0.556108L60.7956 0.463491Z" fill="#004D2B"/>
<path d="M207.33 3.88039C205.178 3.88039 203.304 2.87264 201.071 2.88422C198.954 2.75892 196.832 3.00591 194.801 3.61399C190.227 5.34294 185.937 7.74815 182.075 10.7495C177.713 13.9234 174.844 18.1629 172.056 22.7384C170.737 24.9045 169.233 27.1286 168.088 29.3874C166.549 32.4454 166.537 35.4919 165.774 38.6542C164.351 44.1911 164.316 49.0794 164.281 54.8711C164.281 62.4236 166.306 68.5166 168.758 75.5015C170.806 81.2933 175.48 86.2046 179.715 90.4905C181.788 92.6271 183.986 94.6384 186.297 96.5139C188.796 98.4831 191.885 99.7805 194.569 101.506C198.966 104.333 202.089 106.893 207.295 108.121C213.718 109.815 220.322 110.726 226.963 110.831C232.366 110.831 237.653 111.132 242.558 108.41C248.192 105.283 253.375 102.051 257.39 96.8267C264.435 87.6641 267.165 75.8257 267.142 64.3928C267.142 59.2381 267.142 54.7785 265.673 49.8207C264.886 47.0986 263.672 44.5966 262.989 41.8745C262.029 37.994 259.703 35.5614 257.332 32.4686C253.433 27.395 248.076 23.8967 243.599 19.495C240.754 16.7563 237.464 14.5234 233.869 12.8924C225.343 8.83818 217.025 3.7762 207.365 3.79937" fill="#FFF34A"/>
<path d="M207.33 1.01925C206.155 0.904068 204.993 0.679192 203.859 0.347456C202.291 0.0678608 200.696 -0.0331836 199.104 0.0462729C196.131 0.210799 193.221 0.966778 190.543 2.27022C185.291 4.5712 180.516 7.83612 176.463 11.8962C172.599 15.9273 169.684 20.9313 166.861 25.7153C165.327 28.2594 164.269 31.0621 163.737 33.986C163.205 36.8934 162.442 39.7777 162.025 42.6736C161.133 48.6033 161.032 54.6255 161.724 60.5819C162.544 66.2064 164.044 71.7102 166.19 76.9725C168.249 82.2893 171.975 86.6679 175.827 90.7221C179.923 94.9733 184.111 99.0275 189.317 101.889C194.014 104.472 198.248 107.947 203.2 109.928C205.994 110.916 208.871 111.652 211.796 112.129C214.815 112.719 217.869 113.194 220.935 113.484C224.001 113.773 226.928 113.773 229.924 113.762C232.825 113.833 235.724 113.576 238.567 112.997C241.361 112.257 244.023 111.085 246.457 109.522C248.846 108.136 251.138 106.588 253.317 104.889C262.063 98.0546 267.027 87.4325 268.924 76.6598C269.839 71.0488 270.172 65.358 269.919 59.6783C269.853 56.6611 269.488 53.6579 268.831 50.7127C268.149 47.8747 266.934 45.222 266.078 42.442C265.384 39.7745 264.259 37.2389 262.746 34.9359C261.157 32.6688 259.434 30.4988 257.586 28.4375C253.884 24.3833 249.36 21.163 245.404 17.3636C241.447 13.5642 236.623 11.1665 231.683 8.72233C226.743 6.27821 221.456 3.56758 215.926 2.13122C213.111 1.3933 210.216 1.00427 207.307 0.972871C203.581 0.972871 203.57 6.76464 207.307 6.76464C212.419 6.957 217.435 8.21562 222.034 10.4599C226.711 12.478 231.28 14.7398 235.72 17.2362C240.047 19.773 243.483 23.526 247.29 26.7462C251.109 29.9059 254.539 33.5108 257.505 37.4842C258.854 39.3683 259.847 41.4846 260.432 43.7277C261.23 46.4267 262.434 48.9867 263.128 51.7088C264.435 56.8056 264.354 62.3193 264.134 67.555C263.729 77.262 261.092 87.2471 255.064 95.0775C251.978 98.8112 248.208 101.921 243.958 104.24C241.823 105.642 239.48 106.698 237.016 107.368C234.512 107.842 231.962 108.029 229.415 107.924C224.017 107.977 218.627 107.5 213.323 106.499C210.548 106.047 207.816 105.365 205.155 104.46C203.035 103.565 201.018 102.443 199.139 101.113C196.999 99.6995 194.87 98.321 192.614 97.0816C190.262 95.8444 188.057 94.3443 186.043 92.6102C182.144 89.2588 178.569 85.5473 175.364 81.5248C172.171 77.4127 170.586 72.6518 169.117 67.7172C167.637 62.665 166.953 57.4123 167.092 52.149C167.083 49.3966 167.241 46.6462 167.567 43.9131C167.926 41.3184 168.724 38.7932 169.117 36.2216C169.494 33.6179 170.353 31.1076 171.651 28.8197C172.97 26.503 174.381 24.3369 175.781 22.136C178.401 17.9086 181.877 14.2782 185.985 11.4792C190.103 8.676 194.662 5.84957 199.764 5.78007C202.355 5.78007 204.715 6.70672 207.295 6.76464C211.009 6.83414 211.009 1.04237 207.295 0.972871L207.33 1.01925Z" fill="#004D2B"/>
<path d="M58.586 40.7969L57.7994 40.6117L59.8124 42.6272L59.6272 41.8395C59.3924 41.1265 58.9235 40.5141 58.2968 40.102C57.9745 39.8958 57.6031 39.7797 57.2209 39.766C56.8423 39.662 56.4426 39.662 56.064 39.766L55.3813 40.0556C54.953 40.311 54.5953 40.6693 54.3402 41.0981L54.051 41.7931C53.912 42.2972 53.912 42.8297 54.051 43.3338L54.236 44.1214C54.3685 44.6065 54.6235 45.0493 54.9764 45.4072C55.3322 45.7626 55.7751 46.0183 56.2606 46.1485L57.0473 46.3339C57.4268 46.432 57.8248 46.432 58.2042 46.3339C58.5861 46.3089 58.9557 46.1895 59.2801 45.9863C59.9068 45.5742 60.3758 44.9618 60.6106 44.2488L60.7148 43.4844C60.7094 42.9708 60.5697 42.4676 60.3098 42.0249L59.8586 41.4341C59.5053 41.0812 59.0669 40.8258 58.586 40.6927V40.7969Z" fill="#004D2B"/>
<path d="M91.0839 31.8197V30.8351C91.1163 30.4336 91.0319 30.0312 90.8408 29.6767C90.7262 29.3198 90.5185 28.9998 90.2392 28.75C89.9886 28.4716 89.6696 28.2641 89.3138 28.1478C88.9557 27.9678 88.557 27.8838 88.1568 27.9044L87.3932 28.0088C86.9123 28.1418 86.4739 28.3971 86.1207 28.75L85.6695 29.3408C85.4096 29.7835 85.27 30.2867 85.2646 30.8003V31.785C85.2407 32.1873 85.3288 32.5883 85.519 32.9434C85.6527 33.291 85.8576 33.6066 86.1207 33.87C86.3837 34.1333 86.699 34.3385 87.0461 34.4723C87.4008 34.6628 87.8013 34.751 88.203 34.7271L88.9782 34.6229C89.46 34.4856 89.8982 34.2262 90.2508 33.87L90.702 33.2908C90.9636 32.8493 91.0996 32.3446 91.0953 31.8313L91.0839 31.8197Z" fill="#004D2B"/>
<path d="M79.3756 41.6777H78.3921C77.9915 41.6503 77.591 41.7346 77.2352 41.9211C76.8794 42.0374 76.5604 42.2449 76.3098 42.5233C76.0305 42.7731 75.8228 43.0931 75.7082 43.45C75.5191 43.8055 75.431 44.2062 75.4537 44.6084L75.5578 45.3729C75.6949 45.8553 75.954 46.2941 76.3098 46.6471L76.8882 47.1105C77.3314 47.3671 77.834 47.5029 78.346 47.5043H79.3293C79.8988 47.5078 80.4561 47.3396 80.9287 47.0214C81.4012 46.7032 81.7672 46.2498 81.9787 45.7204C82.1585 45.3618 82.2421 44.9627 82.2216 44.562L82.1175 43.786C81.9846 43.3044 81.7295 42.8654 81.3771 42.5117L80.787 42.0601C80.3461 41.7981 79.842 41.6618 79.3293 41.6661L79.3756 41.6777Z" fill="#004D2B"/>
<path d="M177.921 35.2254C181.647 35.2254 181.658 29.4336 177.921 29.4336C174.185 29.4336 174.196 35.2254 177.921 35.2254Z" fill="#004D2B"/>
<path d="M213.207 38.1677C216.932 38.1677 216.932 32.376 213.207 32.376C209.482 32.376 209.482 38.1677 213.207 38.1677Z" fill="#004D2B"/>
<path d="M192.684 49.948C196.409 49.948 196.409 44.1562 192.684 44.1562C188.958 44.1562 188.958 49.948 192.684 49.948Z" fill="#004D2B"/>
<path d="M83.0892 61.103C81.1919 61.4852 81.9323 60.6628 82.1868 61.103C82.4303 61.395 82.7015 61.6627 82.9966 61.9023C83.385 62.3095 83.7944 62.6961 84.223 63.0607C85.9352 64.4623 87.7863 65.7595 89.591 67.0222C92.804 69.2122 96.2076 71.108 99.7603 72.6865C106.968 76.011 114.661 78.8258 122.679 78.9648C127.006 79.0459 131.321 78.8953 135.648 78.8837C139.701 79.0115 143.758 78.8839 147.795 78.5015C152.083 77.8144 156.331 76.898 160.521 75.7562C164.351 74.8295 168.157 73.6247 172.09 73.0687C173.196 72.9527 174.273 72.6431 175.272 72.1537C175.991 71.6719 176.769 71.2827 177.586 70.9954C178.513 70.8715 179.429 70.6779 180.328 70.4162C181.322 70.0687 182.283 69.6285 183.243 69.1999C184.976 68.4997 186.6 67.5557 188.067 66.3966C188.669 65.8985 189.224 65.3541 189.814 64.8444C189.989 64.6771 190.179 64.5259 190.381 64.3927C190.786 64.1262 191.191 64.1031 190.532 64.1611C191.293 64.1434 192.019 63.8326 192.557 63.2933C193.096 62.754 193.406 62.0276 193.424 61.2652C193.418 60.499 193.111 59.766 192.57 59.2242C192.029 58.6824 191.297 58.3753 190.532 58.3693C187.258 58.6357 185.696 61.4505 183.197 62.8521C181.782 63.6272 180.308 64.2895 178.789 64.8328C178.037 65.0795 177.261 65.2503 176.475 65.3426C175.337 65.559 174.25 65.9873 173.27 66.6052C171.764 67.2828 170.151 67.6943 168.504 67.8215C166.572 68.2037 164.675 68.7481 162.719 69.2346C158.601 70.2772 154.447 71.2386 150.294 72.1769C146.212 72.9509 142.055 73.2578 137.904 73.0919C133.774 73.0919 129.643 73.1963 125.513 73.1963C123.457 73.2775 121.397 73.2309 119.347 73.0571C117.392 72.8023 115.402 72.1189 113.47 71.6672C109.756 70.7054 106.148 69.3745 102.699 67.6941C98.6595 65.8842 94.8143 63.668 91.2223 61.0798C89.6773 60.0311 88.2117 58.8696 86.8376 57.6047C85.3452 56.1336 83.7254 55.1374 81.562 55.566C80.8253 55.777 80.2007 56.2688 79.8221 56.9359C79.4436 57.603 79.3413 58.3922 79.5374 59.1338C79.7558 59.8665 80.2484 60.4863 80.9124 60.864C81.5763 61.2417 82.3604 61.3482 83.1008 61.161L83.0892 61.103Z" fill="#004D2B"/>
<path d="M104.353 129.296C104.446 129.909 104.446 128.485 104.353 129.11C104.429 128.743 104.533 128.383 104.666 128.033C105.002 127.378 105.417 126.767 105.904 126.214C107.275 124.702 108.829 123.367 110.531 122.241C113.817 119.994 117.473 117.608 121.568 117.48C123.706 117.373 125.827 117.9 127.665 118.998C129.617 120.412 131.358 122.097 132.836 124.002C136.307 127.894 139.905 131.89 144.406 134.717C150.051 138.296 156.646 138.91 163.159 138.921V133.13C158.115 133.211 153.152 134.288 148.119 134.624C143.619 134.937 138.517 134.867 134.815 131.902C132.327 129.898 130.338 127.338 127.873 125.345C125.71 123.643 123.801 121.419 121.198 120.399C117.611 118.998 112.787 119.646 109.189 120.631C104.561 121.87 100.177 124.766 99.9338 129.898C99.9391 130.529 100.148 131.143 100.53 131.646C100.911 132.149 101.445 132.515 102.051 132.69C104.562 133.211 107.107 132.458 109.559 133.164C111.254 133.687 112.722 134.769 113.724 136.234C115.865 139.188 116.327 142.825 118.352 145.895C124.622 155.324 138.239 152.034 147.275 149.555C150.383 148.76 153.429 147.742 156.391 146.509C158.219 145.686 160.163 143.404 162.234 143.648C163 143.644 163.734 143.338 164.275 142.796C164.817 142.254 165.123 141.519 165.126 140.752C165.108 139.989 164.798 139.263 164.259 138.724C163.721 138.184 162.995 137.873 162.234 137.856C159.816 137.566 157.687 138.91 155.755 140.172C153.709 141.397 151.501 142.326 149.195 142.929C144.151 144.516 138.714 146.196 133.403 146.404C130.928 146.585 128.445 146.189 126.15 145.246C124.746 144.645 123.594 143.577 122.887 142.223C121.291 139.315 120.446 135.62 118.259 132.69C116.649 130.511 114.443 128.845 111.908 127.894C110.69 127.457 109.416 127.196 108.125 127.118C106.644 127.025 105.094 127.465 103.636 127.118L105.765 129.909C105.765 129.747 105.765 129.307 105.765 129.909C105.83 129.7 105.884 129.487 105.927 129.272C105.73 129.643 106.042 128.844 105.927 129.272C106.008 129.11 106.1 128.971 106.181 128.821C106.262 128.67 106.598 128.276 106.262 128.682C106.373 128.546 106.493 128.418 106.621 128.299C107.095 127.836 106.736 128.091 107.315 127.72C108.654 126.876 110.142 126.298 111.7 126.017C113.321 125.635 114.986 125.467 116.651 125.519C117.01 125.519 117.357 125.519 117.704 125.519C118.051 125.519 118.78 125.647 118.109 125.519C118.992 125.645 119.824 126.01 120.515 126.573C122.741 128.329 124.876 130.196 126.913 132.168C128.754 134.198 130.814 136.016 133.056 137.589C137.244 140.172 142.369 140.694 147.194 140.45C152.573 140.184 157.872 138.979 163.263 138.898C166.988 138.898 167 133.107 163.263 133.107C157.398 133.107 151.694 132.62 146.696 129.203C142.15 126.099 138.69 121.569 134.954 117.619C133.129 115.506 130.814 113.873 128.212 112.863C125.61 111.853 122.8 111.498 120.029 111.828C115.217 112.442 110.89 114.967 106.991 117.758C102.711 120.828 98.0019 125.021 98.8927 130.813C99.0983 131.551 99.5867 132.179 100.252 132.558C100.917 132.938 101.705 133.039 102.444 132.84C103.174 132.621 103.791 132.13 104.168 131.468C104.545 130.806 104.653 130.024 104.469 129.284L104.353 129.296Z" fill="#004D2B"/>
<path d="M166.977 143.034C175.677 141.273 176.926 131.346 174.3 124.257C173.143 120.99 171.177 117.573 168.076 115.766C164.038 113.449 157.664 112.87 153.499 115.175C150.919 116.612 148.941 119.322 147.124 121.581C145.304 124.168 143.153 126.504 140.727 128.531L144.984 130.257C144.325 127.755 143.526 125.299 142.983 122.762C142.696 121.507 142.529 120.227 142.485 118.94C142.456 118.388 142.456 117.835 142.485 117.283C142.501 117.021 142.501 116.758 142.485 116.496C142.522 116.099 142.612 115.71 142.751 115.337C142.474 116.032 143.226 114.7 142.832 115.21C143.308 114.648 143.856 114.154 144.463 113.739C146.192 112.337 148.149 111.243 150.248 110.507C152.296 109.893 154.066 110.762 155.79 111.862C157.467 112.824 158.922 114.131 160.059 115.696C162.257 119.09 163.252 123.179 166.445 125.89C166.762 126.195 167.144 126.426 167.562 126.563C167.98 126.701 168.423 126.743 168.86 126.687C169.296 126.63 169.714 126.476 170.083 126.236C170.452 125.996 170.763 125.676 170.991 125.299C173.074 121.824 170.239 118.013 167.798 115.592C165.484 113.172 162.782 111.156 159.804 109.627C152.863 106.349 144.44 106.047 137.025 107.704C133.716 108.445 129.111 110.391 129.481 114.55C129.499 115.312 129.81 116.038 130.348 116.578C130.887 117.117 131.612 117.428 132.374 117.446C133.138 117.437 133.868 117.129 134.409 116.587C134.949 116.046 135.257 115.315 135.266 114.55C135.266 113.947 135.197 114.55 135.197 114.55C135.069 115.001 135.44 113.97 135.197 114.55C135.069 114.943 134.896 114.851 135.289 114.55C135.683 114.248 135.104 114.677 135.104 114.677C135.219 114.593 135.339 114.516 135.463 114.445L136.18 114.075C135.752 114.237 136.562 113.889 136.18 114.075L136.539 113.947C137.21 113.727 137.869 113.542 138.54 113.391C139.74 113.1 140.963 112.914 142.196 112.835C143.492 112.719 144.799 112.65 146.106 112.638C149.127 112.635 152.129 113.108 155.003 114.04C157.435 114.903 159.683 116.216 161.632 117.909C162.905 118.945 164.068 120.109 165.103 121.384C165.103 121.384 165.461 121.905 165.577 122.114C165.693 122.322 165.704 122.345 165.774 122.45C166.156 123.121 165.67 122.148 165.774 122.531C165.774 122.623 165.774 122.762 165.866 122.855C165.866 122.577 166.121 123.318 165.866 122.855C165.866 122.855 166.051 122.368 165.866 122.577L170.401 121.986C167.717 119.67 166.861 116.044 165.033 113.137C162.638 109.567 159.182 106.843 155.153 105.352C150.653 103.638 146.176 105.665 142.427 108.19C140.819 109.161 139.38 110.39 138.17 111.828C137.192 113.182 136.629 114.792 136.55 116.461C136.03 121.778 137.857 126.886 139.165 131.89C139.604 133.558 141.895 134.74 143.422 133.628C147.529 130.616 150.202 126.434 153.591 122.728C155.072 121.106 155.905 120.087 157.988 119.797C159.816 119.586 161.668 119.76 163.425 120.307C163.98 120.456 164.513 120.678 165.01 120.967C165.137 121.036 165.253 121.129 165.369 121.199C165.704 121.419 164.987 120.874 165.299 121.199C165.612 121.523 165.808 121.65 166.04 121.905C166.267 122.131 166.479 122.371 166.676 122.623C166.329 122.183 166.792 122.797 166.896 122.948C167.324 123.574 167.711 124.228 168.053 124.905C168.334 125.423 168.555 125.971 168.712 126.539C168.959 127.26 169.163 127.995 169.326 128.739C169.395 129.11 169.464 129.481 169.522 129.898C169.453 129.377 169.522 130.408 169.522 130.535C169.579 131.306 169.579 132.081 169.522 132.852C169.522 132.979 169.522 133.118 169.522 133.246C169.615 132.608 169.464 133.454 169.453 133.523C169.36 133.894 169.256 134.265 169.152 134.682C169.152 134.798 169.071 134.925 169.025 135.041C169.245 134.45 168.944 135.18 168.897 135.249C168.851 135.319 168.354 136.141 168.458 136.002C168.139 136.408 167.746 136.75 167.301 137.01L166.838 137.265C166.572 137.404 167.139 137.172 166.641 137.346C166.179 137.514 165.703 137.642 165.218 137.728C164.482 137.939 163.857 138.431 163.478 139.098C163.1 139.765 162.998 140.554 163.194 141.296C163.412 142.029 163.905 142.649 164.569 143.026C165.233 143.404 166.017 143.51 166.757 143.323L166.977 143.034Z" fill="#004D2B"/>
<path d="M105.129 134.323C101.658 134.195 99.7144 137.207 99.6797 140.416C99.6791 143.283 100.687 146.06 102.526 148.258C107.327 154.107 116.212 153.262 122.957 153.239C123.724 153.239 124.46 152.934 125.002 152.39C125.544 151.847 125.849 151.111 125.849 150.343C125.849 149.575 125.544 148.838 125.002 148.295C124.46 147.752 123.724 147.447 122.957 147.447C119.937 147.447 116.906 147.609 113.898 147.32C112.503 147.174 111.126 146.882 109.791 146.451C109.687 146.451 108.958 146.115 109.444 146.335C109.193 146.228 108.95 146.104 108.715 145.964C108.472 145.837 108.252 145.675 108.01 145.536C107.524 145.246 108.206 145.756 107.743 145.339C107.326 144.985 106.939 144.598 106.586 144.18C106.922 144.609 106.425 143.891 106.413 143.868C106.263 143.624 106.135 143.381 106.008 143.138C105.638 142.431 106.101 143.543 105.858 142.767C105.858 142.57 105.73 142.385 105.673 142.176C105.615 141.968 105.511 141.458 105.453 141.088C105.453 141.238 105.591 141.887 105.453 141.088C105.453 140.937 105.453 140.682 105.453 140.474V139.86C105.36 139.86 105.453 140.833 105.453 139.86C105.477 139.737 105.511 139.617 105.557 139.501C105.383 139.883 105.349 139.987 105.453 139.79C105.268 139.999 105.707 139.223 105.453 139.79C105.638 139.582 105.534 139.709 105.21 139.987C104.886 140.265 104.712 140.172 104.932 140.115C105.152 140.057 105.048 140.115 104.643 140.115H105.083C105.85 140.115 106.585 139.809 107.128 139.266C107.67 138.723 107.975 137.987 107.975 137.219C107.975 136.451 107.67 135.714 107.128 135.171C106.585 134.628 105.85 134.323 105.083 134.323H105.129Z" fill="#004D2B"/>
<path d="M106.274 134.867C106.043 134.038 105.602 133.282 104.994 132.674C104.386 132.065 103.631 131.623 102.803 131.392C102.058 131.24 101.29 131.236 100.544 131.381C99.7975 131.526 99.0871 131.817 98.4531 132.238C96.2087 133.662 94.4154 136.419 95.3178 139.188C96.8333 143.821 103.416 143.393 107.13 142.118C108.378 141.762 109.505 141.069 110.386 140.115C111.267 139.161 111.87 137.983 112.128 136.709C112.538 133.758 111.956 130.755 110.473 128.172C109.818 126.684 108.809 125.379 107.534 124.372C106.259 123.364 104.757 122.685 103.16 122.392C101.562 122.1 99.9172 122.203 98.3688 122.694C96.8203 123.184 95.4154 124.047 94.2765 125.206C93.3464 126.14 92.614 127.253 92.123 128.477C91.632 129.701 91.3925 131.011 91.419 132.33C91.2528 134.892 91.9272 137.439 93.3395 139.582C94.1463 140.651 95.1978 141.512 96.4058 142.09C97.6137 142.669 98.9426 142.949 100.281 142.906C102.86 142.991 105.43 142.554 107.836 141.62C109.118 141.204 110.284 140.49 111.237 139.535C112.19 138.581 112.904 137.414 113.319 136.13C114.101 133.385 114.077 130.474 113.25 127.743C112.906 126.441 112.275 125.233 111.402 124.208C110.529 123.183 109.436 122.369 108.206 121.824C105.629 120.681 102.833 120.115 100.015 120.167C97.7354 120.109 95.5041 120.831 93.6906 122.215C91.877 123.599 90.5899 125.562 90.0423 127.778C89.5483 129.871 89.6086 132.056 90.2173 134.118C90.826 136.18 91.9622 138.048 93.5131 139.535C95.336 141.196 97.6704 142.185 100.131 142.338C102.489 142.389 104.806 141.705 106.76 140.381C110.543 137.995 114.268 133.431 113.771 128.716C113.64 127.409 113.2 126.151 112.488 125.047C111.776 123.944 110.812 123.025 109.675 122.368C107.834 121.385 105.751 120.951 103.671 121.117C99.2145 121.286 94.973 123.078 91.7429 126.156C90.1496 127.727 89.19 129.83 89.0474 132.064C89.0263 133.326 89.2875 134.578 89.812 135.726C90.3365 136.875 91.1109 137.891 92.0785 138.701C94.5543 140.705 97.62 140.879 100.651 140.358C103.196 139.919 105.639 139.016 107.859 137.693C109.06 136.953 110.093 135.968 110.89 134.803C111.687 133.638 112.231 132.318 112.486 130.929C113.108 127.955 112.7 124.858 111.33 122.148C108.53 117.515 101.172 115.395 96.4515 118.233C94.0414 119.864 92.1119 122.112 90.8637 124.743C89.6027 127.141 88.3763 130.037 88.6539 132.852C88.8027 134.389 89.2658 135.88 90.0141 137.231C90.7624 138.582 91.78 139.764 93.0039 140.705C95.8152 142.871 99.1009 143.022 102.468 142.257C105.829 141.344 109.01 139.864 111.873 137.879C112.523 137.479 112.993 136.844 113.185 136.105C113.376 135.367 113.276 134.583 112.903 133.917C112.512 133.258 111.878 132.779 111.138 132.584C110.398 132.389 109.61 132.493 108.946 132.875C106.788 134.364 104.427 135.534 101.935 136.35C100.812 136.704 99.6425 136.891 98.4647 136.906C97.7242 136.906 98.9273 137.08 98.2216 136.906L97.4928 136.709C96.787 136.5 97.8862 136.987 97.2614 136.605L96.6019 136.211C95.954 135.84 96.9375 136.57 96.3822 136.048L95.8269 135.516C95.8269 135.516 95.2368 134.821 95.6186 135.319C95.4627 135.116 95.3197 134.903 95.1905 134.682C95.0517 134.462 94.9361 134.23 94.8088 134.01C94.427 133.338 94.9361 134.508 94.7047 133.767C94.6353 133.523 94.5427 133.292 94.4848 133.048C94.427 132.805 94.3576 132.307 94.4155 132.84C94.3986 132.593 94.3986 132.345 94.4155 132.099C94.4155 131.983 94.4965 131.183 94.4155 131.89C94.4814 131.45 94.5818 131.017 94.7161 130.593C94.855 130.129 95.0286 129.666 95.1905 129.214C95.4797 128.415 94.9475 129.712 95.3062 128.936L95.6533 128.195C96.1603 127.209 96.7243 126.254 97.3424 125.334C97.8283 124.616 96.9953 125.716 97.5507 125.056C97.7242 124.859 97.8861 124.662 98.0712 124.465C98.4079 124.091 98.7714 123.743 99.1588 123.423C98.6382 123.851 99.2282 123.422 99.3208 123.33L99.9108 123.006C99.2861 123.353 99.8298 123.006 100.015 123.006C100.228 122.943 100.444 122.893 100.663 122.855C101.368 122.681 100.05 122.855 100.79 122.855H101.484C101.727 122.855 101.959 122.855 102.201 122.855C102.872 122.855 101.773 122.751 102.386 122.855C103 122.959 103.324 123.063 103.786 123.214C103.891 123.214 104.619 123.562 104.006 123.284C104.214 123.376 104.434 123.48 104.643 123.596C104.851 123.712 105.059 123.828 105.256 123.955C105.452 124.083 105.938 124.511 105.429 124.06C105.775 124.353 106.096 124.675 106.389 125.021C105.857 124.361 106.794 126.179 106.517 125.276C106.67 125.757 106.79 126.249 106.875 126.747C106.875 126.817 107.003 127.708 106.875 127.048L106.945 127.824C106.974 128.326 106.974 128.829 106.945 129.33C106.945 129.469 106.783 130.222 106.945 129.504C106.887 129.736 106.852 129.967 106.794 130.187C106.737 130.407 106.655 130.627 106.586 130.847C106.378 131.531 106.899 130.373 106.517 130.986C106.401 131.172 106.285 131.369 106.181 131.566C105.834 132.191 106.575 131.195 106.077 131.716C105.904 131.89 105.753 132.064 105.58 132.226C105.406 132.388 105.001 132.678 105.395 132.4C104.954 132.709 104.489 132.984 104.006 133.222L103.37 133.5C104.064 133.199 103.37 133.5 103.243 133.558C102.345 133.92 101.425 134.226 100.489 134.473C100.003 134.601 99.5174 134.693 99.02 134.786C98.2333 134.937 99.6099 134.786 98.8117 134.786H98.0828C97.8398 134.786 97.6085 134.786 97.3655 134.786C96.6135 134.786 97.9208 134.937 97.2035 134.786C96.9837 134.786 96.764 134.693 96.5442 134.624C96.3243 134.554 95.9888 134.346 96.3938 134.624L95.8037 134.276C96.359 134.612 95.8037 134.276 95.6765 134.137C95.5492 133.998 95.2021 133.454 95.5145 133.964L95.1905 133.442C95.098 133.268 95.017 133.095 94.936 132.921C95.017 133.129 95.2947 133.639 94.936 132.921C94.906 132.752 94.8634 132.585 94.8088 132.423C94.6353 131.89 94.8088 133.037 94.8088 132.527C94.8088 132.377 94.8088 132.191 94.8088 132.041C94.8088 131.346 94.8088 132.214 94.8088 132.18C94.8477 131.86 94.9334 131.548 95.0633 131.253C94.9592 131.253 94.7278 131.89 95.0633 131.357L95.3062 130.929C95.3756 130.824 95.4913 130.57 95.5954 130.512C95.3525 130.79 95.0748 130.801 95.5954 130.512C95.8313 130.243 96.0824 129.987 96.3474 129.747L96.7639 129.376C96.2202 129.724 97.2382 128.948 96.7639 129.376C97.3077 129.029 98.0712 128.519 98.7769 128.218L99.3208 127.963C98.7192 128.183 99.9455 127.662 99.3208 127.963C99.7026 127.824 100.073 127.674 100.478 127.558C101.234 127.312 102.007 127.122 102.792 126.99C103.636 126.921 102.977 126.99 102.792 126.99H103.358C103.744 126.965 104.13 126.965 104.515 126.99C104.867 126.926 105.228 126.926 105.58 126.99C105.047 126.724 105.117 126.909 105.475 126.99L105.961 127.094L106.424 127.233C107.06 127.407 106.262 127.234 106.308 127.164C106.576 127.294 106.835 127.441 107.084 127.604C107.685 127.975 106.725 127.21 107.188 127.697L107.627 128.137C107.373 127.627 108.079 128.589 107.627 128.137C107.702 128.309 107.795 128.472 107.905 128.624C107.801 128.044 108.229 129.098 107.905 128.624C107.935 128.801 107.981 128.976 108.044 129.145C108.044 128.496 108.24 129.701 108.044 129.145C108.032 129.326 108.032 129.508 108.044 129.689C108.148 130.454 108.044 129.909 108.044 129.689C108.037 129.879 108.002 130.066 107.94 130.245C107.845 130.639 107.725 131.025 107.581 131.404C107.87 130.616 107.373 131.774 107.246 131.983C107.118 132.191 106.806 132.689 106.563 133.037C106.158 133.639 106.968 132.597 106.494 133.13C106.343 133.292 106.204 133.465 106.066 133.628C105.927 133.79 105.464 134.253 105.14 134.543L104.643 134.971C104.099 135.458 105.14 134.647 104.538 135.052C104.191 135.296 103.844 135.539 103.474 135.759C103.104 135.979 102.734 136.153 102.317 136.338C103.023 135.979 101.947 136.454 101.692 136.523C101.438 136.593 101.322 136.616 101.137 136.662C100.57 136.975 100.952 136.709 101.137 136.662C100.859 136.801 100.35 136.662 100.05 136.662C100.721 136.825 99.4365 136.662 100.05 136.662C99.853 136.662 99.6563 136.581 99.4596 136.523C99.2675 136.476 99.0783 136.418 98.8927 136.35C98.5109 136.153 98.4994 136.234 98.8927 136.35L97.9092 135.805C97.2961 135.307 97.7588 135.713 97.9092 135.805L97.4928 135.446C97.2267 135.203 97.0068 134.925 96.7523 134.67C97.0878 135.215 96.3127 134.23 96.7523 134.67C96.6598 134.52 96.5556 134.381 96.4631 134.218C96.3705 134.056 96.1277 133.593 95.9541 133.28C96.1392 133.906 95.6533 132.736 95.9541 133.28C95.9541 133.118 95.8384 132.944 95.7806 132.77C95.7227 132.597 95.5955 132.087 95.5145 131.739C95.341 131.647 95.3757 131.16 95.5145 131.739C95.4451 131.739 95.5144 131.334 95.4566 131.218C95.4566 130.859 95.4566 130.512 95.4566 130.153C95.4566 129.979 95.4566 129.805 95.4566 129.631C95.4566 129.017 95.2946 130.315 95.4566 129.712C95.5491 129.388 95.5955 129.04 95.6996 128.716C95.6996 128.612 95.7805 128.299 95.8731 128.23C95.6764 128.658 95.6533 128.728 95.769 128.45L95.85 128.299C96.012 128.01 96.197 127.72 96.359 127.43C95.8962 127.882 96.6367 126.909 96.359 127.43C96.4747 127.315 96.5789 127.176 96.7061 127.06C96.8334 126.944 96.9606 126.828 97.0763 126.712C96.521 127.013 97.4812 126.284 97.0763 126.712C97.3887 126.55 97.7011 126.365 98.0019 126.191C97.7821 126.261 97.3309 126.562 98.0019 126.191L98.5572 126.017L99.1472 125.89C98.534 125.89 99.8298 125.751 99.1472 125.89C100.045 125.832 100.945 125.832 101.843 125.89C101.935 125.89 102.768 126.017 102.086 125.89L102.849 126.017C103.37 126.11 103.879 126.237 104.376 126.376C104.631 126.457 104.874 126.527 105.117 126.62C105.36 126.712 105.961 126.979 105.36 126.701C105.788 126.906 106.205 127.134 106.609 127.384C107.211 127.732 106.262 126.979 106.725 127.465C106.864 127.627 107.014 127.766 107.165 127.929C107.06 127.813 106.667 127.396 107.165 127.929C107.269 128.044 107.361 128.299 107.454 128.485C107.118 127.836 107.454 128.485 107.454 128.612C107.454 128.739 107.593 129.064 107.65 129.284C107.785 129.759 107.885 130.243 107.951 130.732C107.847 130.037 107.951 130.871 107.951 130.975C107.951 131.079 107.951 131.485 107.951 131.739C107.951 132.249 107.951 132.747 107.951 133.257C107.951 132.55 107.951 133.326 107.951 133.454C107.951 133.581 107.847 133.906 107.789 134.137C107.731 134.369 107.651 134.566 107.57 134.786C107.813 134.114 107.569 134.705 107.5 134.867C107.431 135.029 106.991 135.446 107.5 134.937C107.384 135.052 107.246 135.191 107.142 135.319C107.685 135.041 106.794 135.736 107.142 135.319C106.98 135.4 106.818 135.527 106.644 135.62L106.089 135.898C105.441 136.222 106.667 135.713 105.961 135.898C105.51 136.048 105.059 136.211 104.608 136.338C104.157 136.465 103.636 136.581 103.15 136.674L102.41 136.79C103.104 136.697 102.282 136.79 102.178 136.79C101.24 136.883 100.294 136.883 99.3554 136.79C100.177 136.871 98.9505 136.663 98.7192 136.605H98.5456C98.2564 136.489 98.3143 136.523 98.7423 136.697C98.6613 136.697 98.3721 136.466 98.2911 136.431C98.4993 136.57 98.9043 136.755 98.2911 136.431C97.8283 135.805 98.0829 136.292 98.2911 136.431C98.0646 136.089 97.8597 135.733 97.6779 135.365C98.0134 136.014 97.6779 135.365 97.6779 135.249C97.6779 135.133 97.5506 134.821 97.4928 134.612C97.4304 134.391 97.3802 134.167 97.3424 133.94C97.3424 133.801 97.2498 133.06 97.3424 133.801C97.3424 133.338 97.2729 132.875 97.3424 132.411C97.3424 132.18 97.3424 131.948 97.3424 131.728C97.3424 131.044 97.2267 132.191 97.3424 131.589C97.4232 131.159 97.5275 130.733 97.6547 130.315C97.7126 130.141 98.025 129.597 97.6547 130.234C97.7473 130.06 97.8283 129.886 97.9324 129.712C98.4299 129.156 98.0365 129.539 97.9324 129.712C98.0712 129.585 98.1869 129.434 98.3257 129.319C98.7422 128.925 97.8977 129.562 98.6265 129.087C98.8714 128.914 99.1264 128.755 99.3901 128.612C99.6348 128.462 99.89 128.331 100.154 128.218C99.61 128.438 100.443 128.149 100.478 128.137C100.728 128.059 100.983 127.997 101.241 127.952C100.593 128.079 101.369 127.952 101.484 127.952C101.6 127.952 101.982 127.952 102.236 127.952C101.542 127.882 102.329 127.952 102.444 128.021C102.56 128.091 103.289 128.334 102.699 128.021C102.935 128.125 103.163 128.245 103.382 128.38C103.382 128.38 104.11 128.913 103.671 128.554C103.89 128.731 104.098 128.92 104.295 129.122C104.492 129.33 104.7 129.562 104.885 129.793C104.631 129.458 105.071 130.095 105.094 130.141C105.334 130.513 105.55 130.9 105.742 131.299C105.742 131.392 106.089 132.122 105.846 131.485C105.938 131.716 106.019 131.948 106.1 132.18C106.26 132.654 106.391 133.138 106.494 133.628C106.494 133.743 106.598 134.543 106.494 133.836C106.494 134.079 106.494 134.323 106.494 134.566C106.494 134.809 106.494 135.029 106.494 135.272C106.494 134.554 106.494 135.272 106.494 135.4C106.494 135.527 106.158 136.153 106.494 135.55C106.389 135.736 106.285 135.933 106.158 136.118C106.551 135.55 106.158 136.118 106.008 136.199C106.181 136.095 106.401 135.828 106.008 136.199C105.889 136.243 105.777 136.301 105.672 136.373C105.244 136.651 106.366 136.153 105.834 136.292C105.181 136.508 104.517 136.69 103.844 136.836C103.658 136.884 103.469 136.915 103.277 136.929C103.474 136.929 104.122 136.929 103.277 136.929C102.884 136.929 102.502 136.929 102.12 136.929C101.738 137 101.346 137 100.963 136.929C101.438 137.195 101.426 137.022 101.045 136.929L100.559 136.813C99.9339 136.674 100.697 136.686 100.686 136.894L100.304 136.686C99.8298 136.477 100.848 137.149 100.478 136.801C100.107 136.454 100.882 137.415 100.64 136.964C101.021 137.659 100.825 137.462 100.755 137.161C100.94 138.006 100.813 137.635 100.836 137.346C100.767 138.307 100.836 137.624 100.836 137.45C100.686 137.798 100.836 138.018 100.836 137.45C100.385 137.844 101.172 136.906 100.836 137.45L101.287 137.022C100.755 137.508 101.218 137.091 101.38 137.022C101.935 136.941 101.542 136.952 101.38 137.022C102.201 136.941 101.577 137.022 101.38 137.022C101.982 137.022 100.732 136.79 101.287 137.022C101.287 137.022 100.258 136.385 100.744 136.732L100.524 136.466C100.663 136.732 100.663 136.72 100.524 136.396C100.745 137.115 101.237 137.719 101.896 138.081C102.554 138.443 103.327 138.535 104.052 138.336C104.776 138.137 105.395 137.664 105.777 137.017C106.16 136.369 106.276 135.598 106.1 134.867H106.274Z" fill="#004D2B"/>
<path d="M157.19 131.971C154.367 131.971 151.602 131.705 148.999 133.06C147.51 133.83 146.22 134.936 145.232 136.291C144.244 137.646 143.585 139.213 143.307 140.867C143.142 142.32 143.337 143.79 143.874 145.15C144.41 146.509 145.272 147.715 146.384 148.663C148.094 150.079 150.199 150.933 152.412 151.107C154.374 151.259 156.346 151.004 158.205 150.358C160.064 149.713 161.771 148.69 163.217 147.354C164.737 146.059 165.736 144.255 166.028 142.278C166.319 140.3 165.884 138.284 164.802 136.605C163.252 134.432 161.052 132.809 158.52 131.971C155.836 130.94 152.736 130.338 150.052 131.716C147.368 133.095 146.049 135.782 144.915 138.273C143.552 140.886 143.226 143.919 144.001 146.763C144.477 148.142 145.254 149.398 146.274 150.44C147.294 151.482 148.533 152.283 149.901 152.787C152.566 153.921 155.546 154.073 158.312 153.215C161.082 152.051 163.4 150.019 164.918 147.424C165.748 146.289 166.344 144.999 166.67 143.631C166.995 142.262 167.045 140.842 166.815 139.454C165.658 134.021 158.717 131.832 153.892 131.821C152.428 131.758 150.965 131.995 149.595 132.516C148.224 133.038 146.974 133.834 145.921 134.855C144.803 136.041 143.996 137.486 143.572 139.061C143.148 140.636 143.121 142.291 143.492 143.879C144.892 149.497 151.798 153.598 157.375 151.547C158.75 151.06 159.991 150.254 160.997 149.195C162.002 148.136 162.743 146.855 163.159 145.454C163.549 144.057 163.634 142.592 163.409 141.159C163.183 139.726 162.652 138.358 161.852 137.149C161.151 136.044 160.207 135.113 159.092 134.428C157.978 133.744 156.721 133.323 155.42 133.199C154.206 133.115 152.994 133.371 151.918 133.94C150.843 134.509 149.948 135.368 149.334 136.419C148.721 137.511 148.355 138.725 148.26 139.974C148.165 141.223 148.344 142.477 148.785 143.65C149.226 144.822 149.918 145.883 150.812 146.76C151.707 147.636 152.782 148.305 153.962 148.721C155.039 149.097 156.198 149.172 157.314 148.94C158.431 148.707 159.464 148.175 160.302 147.4C161.187 146.421 161.823 145.241 162.156 143.963C162.488 142.684 162.507 141.344 162.211 140.056C162.027 139.008 161.532 138.039 160.792 137.275C160.051 136.51 159.099 135.986 158.057 135.77C156.122 135.461 154.142 135.909 152.527 137.022C151.637 137.546 150.878 138.268 150.308 139.131C149.739 139.994 149.374 140.976 149.242 142.002C149.165 143.086 149.47 144.161 150.104 145.042C150.739 145.923 151.662 146.553 152.712 146.821C156.935 147.806 159.92 142.373 160.429 138.933C160.788 136.616 160.348 133.987 158.115 132.62C157.102 132.013 155.91 131.776 154.741 131.949C153.573 132.122 152.5 132.695 151.706 133.57C148.906 136.547 148.362 142.755 151.706 145.559C153.106 146.717 154.887 147.424 156.611 146.427C158.589 145.269 159.075 143.381 158.763 141.261C158.558 140.523 158.069 139.897 157.403 139.519C156.737 139.141 155.949 139.043 155.211 139.246C154.485 139.469 153.872 139.961 153.496 140.622C153.119 141.283 153.009 142.062 153.187 142.802C153.105 142.577 153.105 142.331 153.187 142.107C153.117 142.35 153.117 142.35 153.187 142.107C153.256 141.864 153.557 141.458 154.043 141.273H155.663C155.154 141.122 155.663 141.192 155.813 141.365C155.69 141.266 155.554 141.184 155.408 141.122C155.188 141.018 155.732 141.342 155.732 141.377C155.732 141.412 155.593 141.273 155.582 141.238C155.545 141.186 155.502 141.14 155.454 141.099C155.165 140.844 155.674 141.296 155.651 141.365C155.628 141.435 155.431 140.995 155.42 140.96C155.154 140.508 155.524 141.296 155.489 141.145C155.454 140.995 155.327 140.543 155.246 140.242C155.165 139.941 155.246 140.96 155.246 140.346C155.246 140.195 155.246 140.045 155.246 139.894C155.246 139.744 155.246 139.593 155.246 139.443C155.246 139.292 155.246 139.28 155.246 139.211C155.246 138.666 155.13 139.755 155.246 139.454C155.362 139.153 155.35 138.863 155.431 138.562C155.512 138.261 155.547 138.238 155.593 138.076C155.709 137.659 155.269 138.69 155.593 138.18C155.72 137.948 155.894 137.717 155.998 137.473C155.998 137.404 155.501 137.983 155.905 137.612C156.01 137.52 156.403 137.184 155.905 137.52C155.824 137.578 155.408 137.856 155.905 137.52C156.38 137.276 155.258 137.717 155.674 137.624C156.091 137.531 154.899 137.624 155.339 137.624C155.778 137.624 154.992 137.543 155.096 137.624C155.628 137.728 155.096 137.728 154.922 137.508C155.012 137.577 155.109 137.635 155.211 137.682C155.073 137.682 154.621 137.16 154.957 137.508C155.292 137.856 154.529 136.836 154.806 137.369C154.992 137.717 154.633 136.686 154.691 137.091C154.707 137.205 154.734 137.318 154.772 137.427C154.911 137.809 154.772 136.72 154.772 137.137C154.772 137.3 154.772 137.473 154.772 137.647C154.76 137.782 154.76 137.918 154.772 138.053C154.772 137.786 154.899 137.346 154.772 137.832C154.644 138.319 154.621 138.481 154.517 138.805L154.378 139.234C154.228 139.674 154.274 139.338 154.448 139.095C154.273 139.393 154.118 139.703 153.985 140.022C153.835 140.288 153.673 140.543 153.499 140.809C153.326 141.076 153.742 140.543 153.626 140.659C153.511 140.775 153.43 140.89 153.326 140.995C153.221 141.099 153.129 141.192 153.025 141.296C152.701 141.643 153.372 141.076 153.256 141.134C153.141 141.192 153.071 141.25 152.99 141.296C152.631 141.597 153.673 141.099 153.245 141.203C152.817 141.307 153.846 141.203 153.673 141.203C153.221 141.203 154.274 141.331 154.101 141.284C153.673 141.18 154.621 141.539 154.471 141.458C154.054 141.215 155.038 141.979 154.679 141.609C154.564 141.504 155.084 142.269 154.864 141.852C154.645 141.435 155.038 142.35 154.992 142.188C154.841 141.678 155.061 142.385 154.992 142.535C154.992 142.454 154.992 142.304 154.992 142.211C154.992 142.118 154.864 143.08 154.992 142.605C155.119 142.13 155.304 142.362 154.841 142.871C154.981 142.69 155.098 142.491 155.188 142.28C155.258 142.153 154.679 142.848 155.026 142.524C155.119 142.431 155.2 142.327 155.304 142.234L155.57 141.991C155.848 141.724 154.945 142.408 155.408 142.118C155.639 141.979 155.848 141.84 156.091 141.713C156.204 141.67 156.313 141.616 156.415 141.551C156.137 141.771 155.767 141.806 156.287 141.632C156.518 141.588 156.746 141.53 156.97 141.458C156.808 141.539 156.172 141.458 156.646 141.458C156.792 141.475 156.939 141.475 157.086 141.458C157.421 141.458 156.426 141.284 156.739 141.458C156.835 141.497 156.936 141.524 157.039 141.539C157.444 141.609 156.345 141.168 156.762 141.435C157.178 141.701 156.218 141.064 156.553 141.261C156.634 141.261 156.692 141.47 156.773 141.493C156.565 141.423 156.357 140.821 156.611 141.342C156.611 141.47 156.38 140.612 156.507 141.11C156.507 141.273 156.588 141.435 156.634 141.597C156.75 142.049 156.634 140.937 156.634 141.446C156.634 141.655 156.634 141.863 156.634 142.072C156.634 142.28 156.634 142.269 156.634 142.362C156.715 142.628 156.634 142.454 156.634 142.362C156.634 142.153 156.553 142.095 156.634 142.362L156.565 142.721C156.565 142.883 156.276 143.439 156.495 143.022C156.715 142.605 156.496 143.022 156.415 143.172C156.334 143.323 156.044 143.705 156.415 143.288C156.785 142.871 156.299 143.288 156.218 143.439C156.137 143.589 156.519 143.184 156.553 143.184C156.588 143.184 156.438 143.3 156.391 143.288C155.72 143.624 156.345 143.277 156.391 143.288C157.062 142.952 156.391 143.288 156.264 143.288C155.917 143.427 156.993 143.288 156.461 143.288H156.079C155.558 143.288 156.461 143.381 156.322 143.288L155.859 143.172C155.732 143.172 155.188 142.929 155.686 143.172C156.183 143.416 155.686 143.172 155.582 143.103L155.142 142.848C154.702 142.57 155.142 142.744 155.258 142.941C155.258 142.848 154.957 142.674 154.876 142.593C154.795 142.512 154.598 142.223 154.529 142.211C154.714 142.211 154.899 142.767 154.621 142.304L154.378 141.898C154.378 141.898 154.378 141.759 154.274 141.69C154.101 141.446 154.448 142.246 154.378 141.956C154.309 141.612 154.22 141.271 154.112 140.937C154.24 140.937 154.112 141.655 154.112 141.029C154.112 140.751 154.112 140.473 154.112 140.184C153.985 140.659 154.112 139.628 154.112 140.184C154.112 139.999 154.193 139.813 154.251 139.639C154.309 139.466 154.321 139.466 154.344 139.385C154.436 139.037 154.031 139.86 154.251 139.605C154.357 139.448 154.454 139.286 154.54 139.118C154.54 139.118 154.089 139.686 154.54 139.234C154.992 138.782 154.656 139.234 154.402 139.304C154.546 139.225 154.686 139.136 154.818 139.037C155.292 138.736 154.332 139.141 154.714 139.037C154.856 139.018 154.996 138.983 155.13 138.933C155.13 138.933 154.355 138.933 154.783 138.933H155.003C155.154 138.933 155.304 138.933 155.443 138.933C155.582 138.933 155.061 138.933 155.049 138.933C155.038 138.933 155.269 138.933 155.339 138.933C155.408 138.933 155.697 139.06 155.859 139.095C156.021 139.13 155.547 138.979 155.535 138.944C155.524 138.91 155.72 139.037 155.755 139.049C155.79 139.06 156.033 139.199 156.172 139.292C156.31 139.385 156.31 139.385 156.391 139.419C156.738 139.628 156.229 139.419 156.206 139.28C156.206 139.454 156.866 139.941 157.016 140.091C157.167 140.242 156.819 139.883 156.854 139.871C156.889 139.86 157.005 140.091 157.016 140.103C157.143 140.334 157.294 140.555 157.409 140.798L157.571 141.122C157.571 141.122 157.409 140.659 157.49 140.96C157.571 141.261 157.641 141.389 157.699 141.609C157.802 141.842 157.857 142.094 157.861 142.35C157.861 142.35 157.861 141.771 157.861 142.118C157.861 142.246 157.861 142.396 157.861 142.535C157.872 142.74 157.872 142.945 157.861 143.149C157.861 143.149 157.861 143.427 157.861 143.462C157.861 143.497 158.023 142.721 157.861 143.288C157.861 143.474 157.768 143.67 157.71 143.867C157.652 144.064 157.71 144.053 157.629 144.145C157.548 144.238 157.375 144.528 157.629 144.261C157.884 143.995 157.537 144.4 157.467 144.516C157.398 144.632 157.178 145.095 157.109 145.095C157.039 145.095 157.502 144.655 157.259 144.887C157.191 144.955 157.129 145.028 157.074 145.107C156.924 145.269 156.727 145.408 156.588 145.57C156.449 145.732 156.808 145.385 156.796 145.42C156.785 145.454 156.542 145.605 156.484 145.64L155.975 145.929C156.449 145.802 155.524 146.207 155.975 145.929L155.2 146.161C155.697 146.161 154.679 146.312 155.2 146.161C154.984 146.173 154.768 146.173 154.552 146.161H153.881C154.54 146.161 153.754 146.161 153.511 146.045C153.268 145.929 153.071 145.929 152.851 145.848C152.631 145.767 152.25 145.57 152.689 145.848C152.215 145.605 151.764 145.362 151.313 145.084C150.861 144.806 151.602 145.35 151.197 145.003C151 144.829 150.815 144.667 150.63 144.481C150.445 144.296 150.352 144.145 150.19 144.006C150.028 143.867 150.283 144.134 150.306 144.169L150.063 143.821C149.947 143.647 149.832 143.462 149.728 143.277L149.542 142.906C149.427 142.524 149.542 142.813 149.542 142.906C149.658 143.288 149.473 142.663 149.45 142.558C149.427 142.454 149.23 141.991 149.288 141.852C149.346 141.713 149.288 142.582 149.288 141.991C149.288 141.887 149.288 141.782 149.288 141.678C149.288 141.574 149.288 141.238 149.288 141.029C149.288 140.821 149.288 141.273 149.288 141.261C149.288 141.249 149.288 140.995 149.357 140.937C149.427 140.636 149.531 140.358 149.623 140.056C149.716 139.755 149.623 140.172 149.623 140.207L149.785 139.883C149.913 139.651 150.04 139.443 150.179 139.222L150.41 138.898C150.41 138.898 150.075 139.222 150.306 139.06C150.528 138.871 150.737 138.665 150.931 138.446C151.151 138.226 150.804 138.562 150.769 138.574C150.734 138.585 150.942 138.458 151.035 138.4C151.226 138.311 151.411 138.21 151.59 138.099C151.833 137.913 151.428 138.099 151.382 138.168L151.787 138.018L152.516 137.809L153.152 137.682C153.487 137.589 152.932 137.682 152.932 137.682C153.078 137.665 153.226 137.665 153.372 137.682C153.853 137.653 154.336 137.653 154.818 137.682H155.605C156.172 137.682 155.142 137.589 155.709 137.682C156.276 137.774 156.634 137.844 157.086 137.96C157.537 138.076 158.011 138.215 158.462 138.365L159.133 138.62C158.566 138.423 159.261 138.62 159.469 138.794C159.838 138.984 160.197 139.193 160.545 139.419C160.186 139.083 160.996 139.697 160.545 139.419L161.077 139.917L161.25 140.114C161.459 140.3 161.065 139.894 161.065 139.859C161.065 139.825 161.285 140.184 161.343 140.288C161.401 140.392 161.713 140.971 161.482 140.531C161.25 140.091 161.482 140.67 161.551 140.809C161.69 141.284 161.47 140.995 161.551 140.693C161.534 140.894 161.534 141.095 161.551 141.296C161.551 141.435 161.435 141.968 161.551 141.528C161.667 141.087 161.551 141.759 161.47 141.887C161.389 142.014 161.331 142.338 161.262 142.57C161.193 142.802 161.193 142.755 161.158 142.86C161.123 142.964 161.389 142.373 161.239 142.674C161.088 142.976 160.788 143.589 160.522 144.041L160.013 144.806C159.943 144.898 159.538 145.466 159.7 145.257C159.862 145.049 159.457 145.547 159.388 145.628C159.192 145.867 158.983 146.095 158.763 146.312C158.613 146.474 158.451 146.624 158.289 146.775C158.127 146.925 157.687 147.238 158.011 147.018C158.335 146.798 157.699 147.215 157.629 147.261C157.56 147.308 157.213 147.458 157.016 147.597C156.82 147.736 157.282 147.47 157.259 147.505C157.175 147.547 157.085 147.579 156.993 147.597L156.426 147.771C156.209 147.861 155.978 147.912 155.743 147.922C155.743 147.922 156.357 147.922 155.998 147.922C155.859 147.922 155.72 147.922 155.582 147.922C155.099 147.927 154.616 147.904 154.135 147.852C154.668 147.852 154.135 147.852 153.95 147.852C153.765 147.852 153.36 147.736 153.071 147.655L152.284 147.424C152.007 147.319 151.717 147.122 152.134 147.424C151.833 147.238 150.977 147.007 150.873 146.671C150.873 146.671 151.289 147.064 151.058 146.821L150.838 146.624L150.422 146.207C150.422 146.138 150.306 146.057 150.237 145.987C150.167 145.918 150.422 146.184 150.399 146.196C150.375 146.207 150.052 145.64 150.005 145.547L149.878 145.292C149.704 145.014 150.017 145.547 149.982 145.547C149.911 145.373 149.85 145.195 149.797 145.014C149.739 144.794 149.716 144.562 149.658 144.354C149.6 144.145 149.658 144.643 149.658 144.632C149.64 144.497 149.64 144.361 149.658 144.227C149.571 143.818 149.571 143.396 149.658 142.987C149.473 143.323 149.577 143.427 149.658 143.126C149.658 143.01 149.658 142.906 149.658 142.802C149.658 142.698 149.785 142.28 149.866 142.026C149.947 141.771 150.017 141.585 150.086 141.354C150.318 140.867 150.156 141.122 150.086 141.354L150.248 141.006C150.456 140.566 150.676 140.137 150.896 139.697C151.116 139.257 151.359 138.829 151.613 138.4L151.984 137.832L152.18 137.554C152.053 137.74 151.914 137.867 152.18 137.624L152.712 137.079L152.944 136.871C152.944 136.871 152.527 137.103 152.793 137.01C152.886 137.01 153.453 136.628 153.094 136.813C152.736 136.998 153.893 136.616 153.418 136.709C152.944 136.801 153.557 136.709 153.673 136.709H154.228C154.899 136.709 153.846 136.605 154.378 136.709L155.142 136.871C155.628 136.987 156.114 137.126 156.6 137.288L157.259 137.531L157.583 137.659C157.976 137.809 157.167 137.439 157.514 137.659C157.861 137.879 158.323 138.041 158.67 138.284C158.763 138.284 159.006 138.574 159.122 138.585C159.237 138.597 158.647 138.168 158.867 138.4C159.087 138.632 159.064 138.562 159.168 138.655C159.457 138.921 159.712 139.211 159.989 139.5C159.677 139.026 160.267 139.79 159.989 139.5C160.105 139.674 160.232 139.836 160.337 140.022L160.545 140.415C160.788 140.809 160.348 139.802 160.475 140.242C160.529 140.55 160.61 140.852 160.718 141.145C160.603 140.972 160.718 140.369 160.718 140.879C160.718 141.006 160.718 141.134 160.718 141.261C160.718 141.388 160.649 141.945 160.718 141.365C160.788 140.786 160.718 141.365 160.718 141.47C160.696 141.593 160.661 141.713 160.614 141.829C160.614 141.956 160.371 142.477 160.614 141.956C160.857 141.435 160.614 141.956 160.614 142.014L160.383 142.396L160.163 142.732C159.955 143.091 160.637 142.188 160.255 142.616C160.059 142.836 159.862 143.057 159.642 143.265L159.284 143.589C159.191 143.67 158.775 143.995 159.191 143.682C159.608 143.369 159.191 143.682 159.075 143.752L158.59 144.076L157.814 144.516L157.409 144.713L157.132 144.84C156.819 145.003 157.733 144.62 157.398 144.725C156.781 144.953 156.151 145.146 155.512 145.304L155.061 145.396H154.83C154.378 145.489 155.119 145.396 155.154 145.396C154.824 145.401 154.496 145.428 154.17 145.477C153.846 145.477 153.522 145.477 153.198 145.477C153.052 145.46 152.905 145.46 152.759 145.477C152.759 145.477 153.453 145.593 153.164 145.477H152.874C152.565 145.418 152.26 145.341 151.96 145.246L151.544 145.107H151.625L150.873 144.667C150.456 144.4 150.873 144.562 151 144.771C151 144.643 150.653 144.481 150.549 144.377L150.248 144.053C149.866 143.647 150.329 143.983 150.248 144.157C150.248 143.983 149.623 143.149 149.542 142.999C149.728 143.392 149.542 142.79 149.462 142.663C149.357 142.084 149.381 142.535 149.462 142.663C149.462 142.535 149.462 142.408 149.462 142.28C149.462 142.153 149.462 141.47 149.462 141.817C149.462 142.165 149.462 141.817 149.462 141.713C149.462 141.609 149.542 141.4 149.589 141.25C149.635 141.099 149.67 141.018 149.704 140.902C149.473 141.273 149.82 140.508 149.704 140.902C149.936 140.531 149.936 140.462 150.075 140.253L150.283 139.952C150.283 139.952 149.994 140.277 150.214 140.033C150.433 139.79 150.595 139.581 150.804 139.373L151.475 138.771C151.706 138.539 151.475 138.771 151.394 138.771L151.683 138.562C151.88 138.435 152.076 138.33 152.273 138.215C152.36 138.149 152.458 138.098 152.562 138.064C152.215 138.203 152.146 138.226 152.342 138.157L152.539 138.087L153.106 137.925L153.407 137.856C152.967 137.948 153.719 137.856 153.835 137.856H154.459C155.524 137.856 156.588 137.856 157.641 137.856C158.408 137.856 159.144 137.551 159.686 137.007C160.228 136.464 160.533 135.728 160.533 134.96C160.533 134.192 160.228 133.455 159.686 132.912C159.144 132.369 158.408 132.064 157.641 132.064L157.19 131.971Z" fill="#004D2B"/>
<path d="M29.5591 103.267L29.0269 103.337C28.5396 103.463 28.0948 103.718 27.7388 104.074C27.3828 104.431 27.1286 104.876 27.0023 105.364C26.7268 107.001 26.6529 108.666 26.7825 110.321C26.7825 112.036 26.7825 113.797 26.7825 115.453C26.7825 116.264 26.7825 117.075 26.7825 117.897C26.7825 118.72 26.8866 117.422 26.7825 118.384C26.713 118.801 26.6437 119.206 26.5627 119.623C26.3766 120.473 26.2643 121.337 26.2272 122.206C26.2098 122.48 26.2098 122.755 26.2272 123.029C26.2272 123.399 26.2272 123.388 26.2272 123.029C26.0883 123.48 26.2271 123.388 26.4816 122.727L31.3176 124.013V123.84V125.38V125.241L30.5772 126.527L30.6928 126.434L29.4087 127.176H29.0731C29.8402 127.176 30.5759 126.87 31.1183 126.327C31.6607 125.784 31.9654 125.048 31.9654 124.28C31.9654 123.512 31.6607 122.775 31.1183 122.232C30.5759 121.689 29.8402 121.384 29.0731 121.384C28.1137 121.359 27.1829 121.712 26.4816 122.368C26.1068 122.786 25.8418 123.291 25.7106 123.837C25.5793 124.383 25.5858 124.953 25.7296 125.496C25.8673 125.982 26.1292 126.424 26.4896 126.778C26.8499 127.132 27.2962 127.386 27.7844 127.515C28.2727 127.643 28.786 127.642 29.2737 127.512C29.7614 127.381 30.2067 127.126 30.5656 126.77C31.3587 125.846 31.8405 124.695 31.9424 123.48C31.9424 122.843 31.9424 122.195 31.9424 121.558C31.9424 121.836 31.9424 121.778 31.9424 121.395C31.9424 121.013 32.0233 120.967 32.058 120.758C32.139 120.341 32.2084 119.936 32.2662 119.519C32.4064 118.621 32.4952 117.716 32.5323 116.808C32.5323 114.978 32.5323 113.148 32.5323 111.329C32.5323 110.507 32.5323 109.696 32.5323 108.874C32.5323 108.445 32.5323 108.016 32.5323 107.588C32.5208 107.376 32.5208 107.163 32.5323 106.951C32.5323 107.205 32.5323 107.159 32.5902 106.812L30.5656 108.839L31.1093 108.758C31.8494 108.552 32.4781 108.061 32.8575 107.392C33.237 106.724 33.3363 105.932 33.1339 105.19C32.9083 104.463 32.4138 103.849 31.7516 103.474C31.0893 103.1 30.3093 102.992 29.5707 103.174L29.5591 103.267Z" fill="#004D2B"/>
<path d="M69.9468 109.326C69.9577 110.688 70.1443 112.042 70.5021 113.357C70.7566 114.376 71.1036 115.372 71.3003 116.415C71.6473 118.291 71.8325 120.515 73.4175 121.847C73.9687 122.371 74.694 122.673 75.4537 122.693C76.0265 122.694 76.5866 122.525 77.0632 122.207C77.5398 121.888 77.9113 121.436 78.1306 120.906C78.3499 120.376 78.4073 119.793 78.2953 119.231C78.1832 118.668 77.9068 118.152 77.5013 117.747C77.5013 117.747 77.3973 117.619 77.351 117.608C77.3048 117.596 77.2469 117.504 77.432 117.735C77.6171 117.967 77.6402 118.013 77.5708 117.897C77.5014 117.782 77.4089 117.619 77.3395 117.492C77.27 117.365 77.594 118.21 77.4667 117.782L77.3972 117.538C77.3363 117.344 77.2861 117.147 77.2468 116.947C77.0733 116.229 76.9923 115.5 76.8535 114.77C76.6684 113.832 76.3676 112.917 76.1246 111.99C75.9858 111.469 75.8701 110.936 75.7659 110.403C75.6618 109.87 75.7659 110.507 75.7659 110.635C75.7659 110.519 75.7659 110.391 75.7659 110.275C75.7659 109.951 75.7659 109.638 75.7659 109.326C75.7599 108.559 75.4533 107.826 74.9122 107.285C74.3711 106.743 73.6389 106.436 72.8737 106.43C72.1112 106.445 71.3842 106.754 70.845 107.294C70.3057 107.834 69.9962 108.562 69.9814 109.326H69.9468Z" fill="#004D2B"/>
<path d="M193.528 103.985C193.147 106.626 192.071 109.105 191.608 111.735C191.122 114.614 190.855 117.526 190.81 120.445C190.81 121.213 191.114 121.95 191.657 122.493C192.199 123.036 192.935 123.341 193.702 123.341C194.469 123.341 195.205 123.036 195.747 122.493C196.289 121.95 196.594 121.213 196.594 120.445C196.594 119.067 196.687 117.689 196.802 116.322C196.802 115.719 196.918 115.163 196.987 114.538C196.987 114.19 196.987 114.156 196.987 114.434C196.987 114.237 196.988 114.04 197.069 113.854C197.149 113.669 197.161 113.275 197.219 112.986C197.682 110.46 198.711 108.063 199.082 105.514C199.266 104.776 199.159 103.995 198.785 103.333C198.41 102.671 197.796 102.179 197.069 101.958C195.692 101.645 193.737 102.375 193.505 103.985H193.528Z" fill="#004D2B"/>
<path d="M246.445 104.866C246.685 105.905 247.074 106.904 247.602 107.831C247.983 108.618 248.32 109.426 248.609 110.252C249.372 112.152 250.321 113.982 251.108 115.87C251.894 117.758 252.589 119.797 253.341 121.754C253.653 122.6 254.116 123.55 254.37 124.198C254.532 124.604 254.648 125.033 254.787 125.45C254.926 125.867 254.868 125.855 254.787 125.565C254.798 125.751 254.798 125.936 254.787 126.121H260.571V125.681C260.556 124.918 260.247 124.19 259.708 123.65C259.168 123.11 258.441 122.8 257.679 122.785C256.914 122.791 256.182 123.098 255.64 123.64C255.099 124.182 254.793 124.915 254.787 125.681V126.121C254.787 126.889 255.091 127.626 255.634 128.169C256.176 128.712 256.912 129.017 257.679 129.017C258.446 129.017 259.182 128.712 259.724 128.169C260.267 127.626 260.571 126.889 260.571 126.121C260.687 124.083 259.715 122.229 258.94 120.399C259.044 120.654 258.94 120.272 258.871 120.214C258.801 120.156 258.732 119.855 258.674 119.681C258.489 119.148 258.315 118.615 258.119 118.082C257.714 116.924 257.263 115.835 256.8 114.723C255.978 112.696 254.995 110.75 254.15 108.734C253.734 107.727 253.422 106.696 252.993 105.711C252.561 104.962 252.226 104.16 251.999 103.325C251.785 102.589 251.294 101.965 250.628 101.587C249.963 101.208 249.176 101.104 248.435 101.298C247.705 101.519 247.088 102.013 246.711 102.677C246.334 103.341 246.227 104.124 246.411 104.866H246.445Z" fill="#004D2B"/>
</g>
<defs>
<clipPath id="clip0_195_1741">
<rect width="270" height="170" fill="white"/>
</clipPath>
</defs>
</svg>
