<svg width="312" height="159" viewBox="0 0 312 159" fill="none" xmlns="http://www.w3.org/2000/svg">
<g clip-path="url(#clip0_195_1821)">
<path d="M259.408 75.0729C258.036 68.3964 255.877 61.9068 252.976 55.7408C250.432 49.8438 246.451 44.6811 241.397 40.7263C238.953 38.8961 236.933 36.7567 234.025 35.7901C230.92 34.6679 227.652 34.067 224.351 34.0116L223.554 33.2254C221.84 33.323 220.122 33.323 218.408 33.2254C217.585 33.0171 216.774 32.7677 215.976 32.4779C214.434 32.3037 212.879 32.2778 211.332 32.4006C208.373 32.4006 205.401 32.4006 202.442 32.4006C198.145 32.4006 195.045 33.9214 191.198 35.6226C188.136 36.9758 184.882 37.8651 181.82 39.2055C178.463 40.8617 175.264 42.8201 172.261 45.0566C167.192 48.588 162.175 52.7895 159.01 58.2282C157.724 52.0677 155.061 44.9922 151.458 41.3191C146.228 36.077 140.179 31.7239 133.55 28.431C127.684 25.6214 121.342 26.4334 114.986 26.4334H110.033C100.41 26.4334 92.5371 26.5107 83.5059 30.1709C69.4445 35.8675 57.403 49.8123 50.4302 62.9839C44.8855 73.4748 40.4986 83.5404 40.5501 95.6681C40.5501 99.6634 40.5501 103.659 40.5501 107.654C40.4269 115.264 42.7446 122.714 47.1625 128.906C55.1002 140.712 68.1839 151.254 82.1809 154.463C93.5149 157.041 104.231 155.662 114.999 152.066C121.213 149.978 126.089 144.668 131.158 140.802C136.934 136.381 141.051 130.041 144.769 123.854C146.055 121.753 147.342 119.704 148.628 117.642C149.49 120.374 150.584 123.042 151.703 125.659C152.746 128.43 154.065 131.09 155.64 133.598C157.089 135.969 158.656 138.266 160.335 140.48C161.712 142.039 163.603 143.057 165.082 144.552C165.978 145.649 167.052 146.586 168.26 147.323C170.679 148.612 173.213 149.721 175.67 150.945C179.761 153.054 184.197 154.408 188.767 154.94C191.295 155.069 193.829 155.069 196.357 154.94C198.93 154.94 201.992 155.378 204.526 154.863C209.417 153.863 214.229 152.506 218.922 150.803C226.204 148.226 232.881 143.908 239.3 139.629C242.03 137.683 244.432 135.312 246.414 132.605C248.447 129.899 251.162 126.96 252.718 123.957C253.335 122.483 253.767 120.937 254.005 119.356C254.449 117.954 254.991 116.584 255.626 115.258C256.957 111.344 257.821 107.286 258.199 103.169C259.318 94.1601 261.042 84.1203 259.408 75.0729Z" fill="#FFF34A"/>
<path d="M262.56 74.2224C261.495 68.8767 259.883 63.6552 257.749 58.6408C255.904 53.7623 253.383 49.1678 250.261 44.9923C247.084 41.1691 243.396 37.8036 239.3 34.9912C235.119 31.9496 229.42 30.8928 224.351 30.7897L226.616 31.7305C226.192 31.2416 225.707 30.8085 225.175 30.4417C223.888 29.6813 222.126 30.0679 220.698 30.0937C219.561 30.1228 218.429 29.9302 217.366 29.5266C216.083 29.1854 214.753 29.0548 213.429 29.14C207.949 29.2947 202.146 28.5342 196.807 30.0035C194.342 30.7926 191.931 31.7441 189.59 32.8517C187.133 33.8957 184.56 34.6561 182.09 35.6485C177.229 37.7853 172.663 40.5402 168.505 43.8453C163.614 47.2343 159.454 51.5733 156.27 56.6045L162.149 57.3777C161.157 51.8008 159.048 46.4829 155.948 41.7445C152.591 37.0146 147.561 33.2771 142.801 30.068C137.655 26.5495 132.226 23.8172 125.883 23.263C121.368 22.8635 116.762 23.263 112.221 23.263C101.414 23.263 90.8519 23.495 80.7787 27.9156C70.7055 32.3362 62.1375 40.5459 55.4349 49.3356C48.5756 58.3112 43.3218 68.4104 39.907 79.1843C38.1403 84.9492 37.2724 90.9526 37.334 96.9827C37.334 103.285 36.8837 109.729 38.093 115.941C40.2157 126.947 47.8446 136.665 56.1039 143.921C64.762 151.577 75.1053 157.002 86.6194 158.549C93.0031 159.356 99.4745 159.134 105.788 157.892C111.655 156.783 117.714 155.185 122.693 151.77C125.016 150.121 127.253 148.353 129.395 146.473C131.428 144.759 133.589 143.174 135.57 141.382C139.84 137.255 143.505 132.543 146.454 127.386C148.114 124.692 149.773 121.998 151.484 119.318L145.605 118.557C146.634 121.766 147.959 124.86 149.284 127.966C150.255 130.522 151.479 132.974 152.938 135.286C154.489 137.904 156.208 140.418 158.084 142.813C159.06 143.803 160.119 144.709 161.249 145.519C162.368 146.396 163.281 147.439 164.311 148.406C166.665 150.61 169.894 151.731 172.75 153.123C175.644 154.615 178.656 155.865 181.755 156.861C187.918 158.678 194.144 158.149 200.474 158.33C206.803 158.51 213.339 156.216 219.218 154.128C225.225 151.892 230.961 148.982 236.316 145.455C239.08 143.812 241.709 141.95 244.176 139.887C246.321 137.814 248.288 135.563 250.055 133.16C252.123 130.836 253.947 128.305 255.497 125.607C256.154 124.23 256.634 122.775 256.925 121.277C257.276 119.815 257.768 118.391 258.392 117.024C261.119 110.58 261.454 103.156 262.251 96.2868C263.165 88.9406 263.705 81.5944 262.444 74.2611C262.344 73.8413 262.16 73.446 261.904 73.0987C261.648 72.7515 261.325 72.4593 260.954 72.2395C260.583 72.0198 260.172 71.877 259.744 71.8196C259.317 71.7622 258.883 71.7914 258.467 71.9055C258.052 72.0195 257.663 72.216 257.325 72.4834C256.987 72.7508 256.705 73.0836 256.498 73.4621C256.29 73.8405 256.161 74.2568 256.117 74.6863C256.074 75.1158 256.116 75.5497 256.243 75.9623C257.035 81.8283 256.996 87.7768 256.128 93.6318C255.657 99.2601 254.849 104.855 253.709 110.386C253.066 113.131 251.689 115.542 250.956 118.222C250.712 119.529 250.39 120.82 249.991 122.089C249.394 123.334 248.656 124.506 247.791 125.581C244.588 129.938 241.204 134.435 236.663 137.451C231.863 140.772 226.809 143.707 221.547 146.228C216.071 148.617 210.351 150.398 204.488 151.538C201.859 151.875 199.202 151.923 196.563 151.68C193.714 151.873 190.856 151.873 188.008 151.68C182.219 150.855 177.124 148.161 171.927 145.648C170.641 145.132 169.453 144.4 168.415 143.483C167.23 142.292 165.976 141.173 164.658 140.132C162.546 138.289 160.778 136.086 159.435 133.623C156.144 128.399 153.549 122.767 151.716 116.869C151.534 116.269 151.184 115.735 150.706 115.329C150.229 114.924 149.645 114.665 149.025 114.583C148.405 114.502 147.774 114.601 147.209 114.869C146.643 115.137 146.167 115.563 145.837 116.096C142.762 120.916 139.957 125.942 136.561 130.556C133.383 134.887 129.395 138.018 125.343 141.447C121.625 144.591 117.933 147.8 113.224 149.321C107.701 151.19 101.948 152.295 96.1266 152.608C85.4167 153.025 74.8665 149.905 66.0999 143.728C57.9179 138.096 50.1859 129.989 46.2107 120.774C44.345 116.025 43.4948 110.936 43.715 105.837C43.715 100.102 43.3162 94.2376 44.2296 88.5282C45.902 78.2177 50.662 68.1779 56.2325 59.3496C61.4523 50.6816 68.4403 43.2155 76.7393 37.4399C81.0581 34.5485 85.8469 32.4333 90.8907 31.1892C96.1841 30.0711 101.589 29.5737 106.997 29.707C109.738 29.707 112.465 29.707 115.205 29.707C120.647 29.707 126.565 28.8951 131.698 31.1892C136.662 33.5295 141.267 36.5674 145.374 40.2108C147.192 41.6416 148.841 43.2761 150.288 45.0825C151.685 47.0731 152.814 49.2399 153.646 51.5266C154.579 54.0153 155.31 56.5755 155.833 59.1821C156.412 61.9788 160.374 62.2236 161.712 59.9553C164.727 55.2681 168.705 51.2787 173.381 48.253C175.799 46.4769 178.311 44.8334 180.906 43.3297C183.497 42.0125 186.19 40.9091 188.96 40.0304C191.662 39.038 194.222 37.7105 196.936 36.7697C199.721 35.9163 202.634 35.5586 205.543 35.7129H210.612C212.04 35.5884 213.476 35.5669 214.908 35.6485C216.216 36.0301 217.543 36.3441 218.884 36.5893C220.402 36.6924 221.933 36.5893 223.451 36.512L221.186 35.5711C221.609 36.0568 222.088 36.4896 222.614 36.8599C223.901 37.5946 225.638 37.2853 227.04 37.4657C229.355 37.7181 231.619 38.3176 233.755 39.2442C235.718 40.3784 237.555 41.7176 239.236 43.2395C241.112 44.6986 242.836 46.3437 244.382 48.1499C247.361 51.8385 249.732 55.9806 251.406 60.4193C253.538 65.43 255.151 70.647 256.218 75.9881C256.446 76.8097 256.989 77.5077 257.729 77.9301C258.469 78.3524 259.345 78.4651 260.167 78.2435C260.589 78.1397 260.987 77.9529 261.337 77.6938C261.686 77.4348 261.981 77.1087 262.203 76.7345C262.426 76.3604 262.572 75.9456 262.634 75.5144C262.695 75.0831 262.67 74.6439 262.56 74.2224Z" fill="#004D2B"/>
<path d="M80.4318 45.4819C80.1478 46.4381 80.1169 47.4518 80.3424 48.4235C80.568 49.3952 81.0422 50.2913 81.7183 51.0238C82.7657 52.0905 84.1114 52.8141 85.5778 53.0988C88.4291 53.6337 91.3695 53.4295 94.1199 52.5059C95.0398 52.2583 95.889 51.7982 96.5995 51.1626C97.3099 50.527 97.8619 49.7335 98.211 48.8457C98.4327 48.0238 98.322 47.1475 97.9029 46.4068C97.4839 45.6661 96.7903 45.1208 95.9726 44.8891C95.1492 44.6808 94.2774 44.799 93.539 45.2193C92.8007 45.6396 92.2531 46.3293 92.0102 47.1445C91.8944 47.4925 92.4733 46.1779 92.2417 46.5774C92.0101 46.9769 91.9201 46.6805 92.602 46.1392C92.5473 46.1875 92.4958 46.2392 92.4476 46.2939C92.2289 46.513 91.9072 46.5645 92.8721 45.9845L92.4218 46.2681C92.2546 46.3583 91.5599 46.6547 92.2546 46.3712C92.9493 46.0877 92.2547 46.3712 92.0102 46.3712L91.3026 46.5774C90.799 46.7084 90.2876 46.8074 89.7716 46.8738L90.6207 46.7578C89.4168 46.9189 88.1968 46.9189 86.9929 46.7578L87.8547 46.8738C87.4194 46.8179 86.9892 46.7274 86.5682 46.6032C86.2209 46.4872 85.6035 46.1005 86.7099 46.6934C86.5555 46.6032 86.3881 46.5387 86.2466 46.4485L86.028 46.3067C85.7192 46.1263 86.6583 46.8867 86.4396 46.6161C86.4396 46.5516 86.2981 46.4872 86.2337 46.4227C86.1694 46.3583 86.1051 45.8943 86.5554 46.848L86.4525 46.6805C86.2467 46.3325 86.4525 46.281 86.6197 47.1316C86.6197 46.964 86.5169 46.8094 86.4911 46.6418L86.6069 47.4925C86.5811 47.2526 86.5811 47.0106 86.6069 46.7707L86.4911 47.6342C86.516 47.4511 86.5547 47.2702 86.6069 47.0929C86.8255 46.2695 86.7137 45.393 86.2953 44.6511C85.8769 43.9092 85.1853 43.3608 84.3684 43.1234C83.5449 42.9117 82.6717 43.0286 81.9325 43.4493C81.1933 43.87 80.6461 44.5618 80.406 45.3788L80.4318 45.4819Z" fill="#004D2B"/>
<path d="M125.69 44.8891L124.198 45.1598C123.657 45.3029 123.164 45.587 122.769 45.9832C122.373 46.3794 122.089 46.8735 121.947 47.4152C121.522 49.0508 121.7 50.7851 122.448 52.2998C123.085 53.4367 124.068 54.3399 125.253 54.8774C127.455 55.7995 129.828 56.2389 132.213 56.1662C133.075 56.1662 133.95 56.1662 134.786 56.1662C135.639 56.1662 136.457 55.8267 137.06 55.2225C137.663 54.6182 138.002 53.7987 138.002 52.9442C138.002 52.0896 137.663 51.2701 137.06 50.6658C136.457 50.0616 135.639 49.7222 134.786 49.7222C132.979 49.7739 131.171 49.7222 129.37 49.5675L130.219 49.6835C129.421 49.5835 128.639 49.3844 127.89 49.0906L128.662 49.4257C128.296 49.2719 127.95 49.0728 127.633 48.8329L128.276 49.3355C128.079 49.1827 127.901 49.0051 127.749 48.8071L128.25 49.4644C128.099 49.2665 127.974 49.05 127.877 48.82L128.199 49.5933C128.118 49.3673 128.058 49.1343 128.019 48.8973L128.135 49.7608C128.096 49.4269 128.096 49.0895 128.135 48.7556L128.019 49.619C128.019 49.4386 128.019 49.2711 128.109 49.1035L125.87 51.3589L127.363 51.0754C128.171 50.8516 128.859 50.3195 129.28 49.5933C129.495 49.2289 129.636 48.8256 129.695 48.4063C129.754 47.9871 129.729 47.5604 129.623 47.1506C129.517 46.7409 129.33 46.3564 129.075 46.0191C128.82 45.6819 128.5 45.3986 128.135 45.1855C127.372 44.7853 126.491 44.671 125.652 44.8633L125.69 44.8891Z" fill="#004D2B"/>
<path d="M108.348 57.8415C112.491 57.8415 112.491 51.3975 108.348 51.3975C104.206 51.3975 104.206 57.8415 108.348 57.8415Z" fill="#004D2B"/>
<path d="M103.383 66.322C95.5092 66.322 87.1341 66.9278 81.2677 72.8692C78.1759 76.0157 76.1237 80.0378 75.3885 84.3911C74.6166 88.8633 74.6294 93.7092 77.2796 97.6014C82.7343 105.592 93.2064 109.098 102.521 107.306C106.756 106.506 110.584 104.261 113.353 100.952C115.898 97.5353 117.771 93.6645 118.872 89.5463C120.544 84.0302 120.879 77.9471 118.229 72.7919C117.095 70.494 115.304 68.587 113.083 67.3144C111.05 66.2318 108.902 66.3865 106.65 66.3736C102.521 66.3736 102.508 72.8176 106.65 72.8176C107.487 72.8176 108.323 72.8176 109.223 72.8176C109.442 72.8176 109.661 72.8176 109.867 72.8176C109.185 72.8176 110.201 73.0754 109.725 72.8176C110.94 73.5446 111.933 74.5923 112.594 75.8463C114.292 79.1457 113.97 83.0636 113.083 86.5434C111.552 92.4848 108.953 98.7742 102.636 100.72C99.2581 101.686 95.6777 101.686 92.2994 100.721C88.9212 99.755 85.8798 97.8621 83.519 95.2557C79.5052 90.6547 81.4222 82.561 85.1016 78.295C89.7072 72.9465 96.8215 72.8434 103.408 72.8434C107.551 72.8434 107.551 66.3993 103.408 66.3993L103.383 66.322Z" fill="#004D2B"/>
<path d="M187.159 54.5551C187.056 56.0666 187.415 57.5735 188.187 58.8762C188.959 60.1789 190.108 61.2159 191.481 61.8497C193.838 62.7724 196.462 62.7308 198.789 61.7337C200.303 61.1269 201.697 60.254 202.905 59.1561C203.501 58.5467 203.835 57.7278 203.835 56.875C203.835 56.0221 203.501 55.2032 202.905 54.5938C202.291 54.0091 201.476 53.683 200.628 53.683C199.781 53.683 198.966 54.0091 198.351 54.5938C198.171 54.7627 197.982 54.9219 197.785 55.0706L198.441 54.568C197.814 55.0439 197.131 55.4421 196.408 55.7537L197.168 55.4315C196.425 55.7419 195.648 55.9584 194.852 56.0759L195.701 55.9599C195.12 56.0372 194.532 56.0372 193.951 55.9599L194.8 56.0759C194.38 56.0175 193.97 55.9049 193.578 55.7408L194.337 56.063C194.042 55.9253 193.761 55.7569 193.501 55.5604L194.157 56.0759C193.925 55.884 193.714 55.668 193.527 55.4315L194.028 56.0888C193.841 55.8318 193.681 55.5553 193.553 55.2639L193.874 56.0243C193.713 55.6091 193.601 55.1766 193.54 54.7355L193.655 55.5991C193.63 55.2171 193.63 54.8339 193.655 54.452C193.649 53.5995 193.308 52.7839 192.706 52.1811C192.104 51.5783 191.29 51.2367 190.439 51.23C189.591 51.2465 188.783 51.5912 188.183 52.1919C187.584 52.7927 187.239 53.6026 187.223 54.452L187.159 54.5551Z" fill="#004D2B"/>
<path d="M224.235 60.8833C224.272 62.1741 224.774 63.408 225.65 64.356C226.525 65.304 227.714 65.9018 228.995 66.0385C231.221 66.3482 233.482 66.2828 235.685 65.8452C236.36 65.7512 237.027 65.6047 237.679 65.407C238.217 65.2626 238.708 64.9796 239.103 64.5862C239.498 64.1928 239.783 63.7026 239.931 63.1645L240.021 62.4943C240.215 61.6562 240.096 60.7759 239.686 60.0198C239.473 59.6541 239.191 59.3341 238.854 59.0779C238.518 58.8217 238.135 58.6343 237.726 58.5266C237.317 58.4189 236.892 58.3929 236.473 58.4501C236.055 58.5073 235.651 58.6465 235.286 58.8599C234.924 59.0658 234.607 59.3432 234.355 59.6756C234.103 60.0079 233.921 60.3881 233.82 60.7931L233.717 61.4504L235.968 59.1949C235.076 59.4561 234.164 59.6416 233.241 59.7492L234.09 59.6331C232.758 59.8413 231.404 59.876 230.063 59.7363L230.925 59.8522C230.445 59.7943 229.974 59.6775 229.523 59.5043L230.295 59.8265C230.087 59.7353 229.888 59.623 229.703 59.4914L230.359 59.994C230.247 59.9008 230.143 59.7973 230.05 59.6847L230.552 60.3291C230.479 60.232 230.414 60.1285 230.359 60.0198L230.681 60.7802C230.63 60.642 230.591 60.4997 230.565 60.3549L230.681 61.2055C230.674 61.0896 230.674 60.9734 230.681 60.8575C230.674 60.0051 230.333 59.1894 229.731 58.5866C229.13 57.9839 228.315 57.6422 227.464 57.6355C226.617 57.652 225.808 57.9968 225.209 58.5975C224.609 59.1982 224.265 60.0081 224.248 60.8575L224.235 60.8833Z" fill="#004D2B"/>
<path d="M211.68 74.3769C215.809 74.3769 215.822 67.9329 211.68 67.9329C207.537 67.9329 207.524 74.3769 211.68 74.3769Z" fill="#004D2B"/>
<path d="M209.377 82.2644C208.386 82.1226 207.447 81.8133 206.469 81.6071C205.004 81.2784 203.483 81.2784 202.018 81.6071C200.807 81.9403 199.676 82.515 198.692 83.2968C197.708 84.0786 196.892 85.0512 196.293 86.1566C195.149 88.535 194.703 91.1897 195.006 93.8121C195.077 95.991 195.848 98.0887 197.206 99.7921C198.592 101.355 200.368 102.521 202.352 103.169C204.552 103.996 206.955 104.109 209.222 103.491C211.349 102.907 213.278 101.758 214.806 100.166C215.793 99.2529 216.586 98.1502 217.138 96.9235C217.691 95.6969 217.991 94.3713 218.022 93.0259C217.83 90.2681 216.619 87.681 214.625 85.7699C213.5 84.7362 212.296 83.7925 211.023 82.9475C210.285 82.5234 209.409 82.4074 208.586 82.6244C207.763 82.8414 207.058 83.3741 206.624 84.1074C206.212 84.8487 206.102 85.7201 206.315 86.5409C206.528 87.3616 207.049 88.0686 207.769 88.5151L208.373 88.9275L208.991 89.3915C209.389 89.6879 208.785 89.2368 208.759 89.211C208.733 89.1853 209.106 89.4817 209.274 89.6235C209.729 89.9977 210.159 90.4025 210.56 90.8349C211.036 91.3505 210.56 90.6803 210.47 90.6803C210.38 90.6803 210.612 90.9123 210.612 90.8994C210.869 91.4278 211.191 91.9175 211.422 92.4459C211.101 91.7242 211.667 93.0001 211.589 93.1548C211.512 93.3094 211.589 92.3428 211.589 93.0259C211.589 93.0259 211.589 93.8636 211.589 93.3352C211.589 92.8068 211.512 93.5801 211.499 93.6574C211.499 93.825 211.396 94.1858 211.499 93.6574C211.268 94.105 211.006 94.5356 210.714 94.9462C211.036 94.5854 210.303 95.5778 210.714 94.9462L210.342 95.3844C210.084 95.668 209.801 95.9128 209.518 96.1835C209.235 96.4541 209.287 96.5572 209.647 96.0933C209.509 96.2222 209.353 96.3307 209.184 96.4155C208.836 96.6474 208.476 96.8279 208.116 97.0212C208.785 96.8279 207.46 97.3692 208.116 97.0212L207.691 97.1501C207.55 97.1501 206.739 97.4852 206.611 97.395C206.482 97.3047 207.305 97.395 206.804 97.395H206.135H205.684C205.028 97.395 206.353 97.5367 205.517 97.395C205.164 97.3306 204.815 97.2401 204.475 97.1243C204.295 97.0599 203.575 96.9439 204.346 97.1243C204.209 97.0745 204.076 97.0141 203.948 96.9439C203.63 96.7892 203.321 96.6217 203.021 96.4413L202.597 96.1706C203.008 96.5701 201.941 95.771 202.597 96.1706L202.095 95.6164C201.825 95.3458 201.992 95.204 202.211 95.784C202.138 95.6578 202.057 95.5372 201.966 95.4231C201.889 95.2942 201.825 95.1653 201.761 95.0364C201.503 94.5982 201.863 95.2426 201.863 95.32C201.784 94.9471 201.677 94.5809 201.542 94.2245C201.553 94.0959 201.553 93.9665 201.542 93.8378V94.276V93.8507C201.542 93.4254 201.542 93.0001 201.542 92.5619C201.542 92.1237 201.542 91.7371 201.542 91.2731V90.5901C201.542 89.7523 201.375 91.1958 201.542 90.3839C201.619 90.1261 201.683 89.8683 201.761 89.6106C201.928 88.9919 201.49 89.9714 201.876 89.3786C201.974 89.2329 202.064 89.0823 202.147 88.9275C202.442 88.3733 201.748 89.3657 202.275 88.7599C202.404 88.6182 202.532 88.4764 202.674 88.3475L202.931 88.1155C203.111 87.9609 203.034 88.0124 202.713 88.2831C202.713 88.1542 203.176 87.9996 203.279 87.9222C202.674 88.0769 203.793 87.5871 203.279 87.9222L203.703 87.8062C204.063 87.7289 203.999 87.7418 203.523 87.8062H203.909H204.591C205.401 87.8062 203.973 87.6387 204.732 87.8062C205.697 88.0382 206.662 88.3089 207.64 88.4506C208.479 88.6488 209.362 88.5343 210.123 88.1284C210.838 87.6993 211.363 87.0123 211.589 86.2081C211.937 84.6873 211.126 82.4963 209.351 82.2386L209.377 82.2644Z" fill="#004D2B"/>
<path d="M42.0939 72.6757C41.5213 72.5979 40.9696 72.4076 40.4707 72.1156C39.9717 71.8237 39.5353 71.4359 39.1864 70.9745C37.9771 69.7759 36.7806 68.5644 35.6228 67.3271C33.0498 64.5949 30.7599 61.5533 28.0968 58.8984C26.8554 57.7943 25.6785 56.6195 24.5719 55.3799C23.2854 53.8076 22.2819 52.1064 21.0469 50.5211C18.6677 47.689 16.5935 44.6132 14.8588 41.3448C13.4694 38.5352 8.60654 39.824 8.86384 42.9687V43.4971C8.88347 44.3455 9.2285 45.1536 9.82745 45.7537C10.4264 46.3537 11.2332 46.6995 12.0801 46.7191C12.93 46.7091 13.7422 46.3664 14.3432 45.7643C14.9442 45.1623 15.2863 44.3485 15.2963 43.4971V42.9687L9.30121 44.6055C11.313 48.2656 13.6786 51.719 16.364 54.916C17.6505 56.6301 18.8084 58.4859 20.2235 60.1356C21.6386 61.7853 23.0024 62.7906 24.3017 64.2082C27.0934 67.2627 29.6792 70.4847 32.5867 73.4232C35.4941 76.3617 37.8999 79.0166 42.1196 79.1197C46.3393 79.2228 46.2493 72.7659 42.1196 72.6757H42.0939Z" fill="#004D2B"/>
<path d="M12.0674 32.3619L11.9259 31.7046C11.7798 31.168 11.4964 30.6789 11.1038 30.2856C10.7112 29.8923 10.2229 29.6085 9.68728 29.4621C8.4556 29.1261 7.15534 29.1372 5.92957 29.4942C4.70379 29.8513 3.6002 30.5403 2.74035 31.4855C1.09805 33.2883 0.133716 35.6078 0.0129948 38.0455C-0.308628 43.2007 4.55428 47.0672 9.46868 46.8481C10.6445 46.8204 11.8034 46.5602 12.8785 46.0824C13.9537 45.6047 14.9241 44.9188 15.7339 44.0643C17.0508 42.5323 17.9387 40.6778 18.3069 38.6899C18.7807 36.6668 18.6828 34.5514 18.0239 32.581C17.6227 31.4401 16.9559 30.4113 16.0789 29.5799C15.2019 28.7484 14.14 28.1381 12.9808 27.7995C10.4245 27.0532 7.68577 27.2498 5.26182 28.3537C4.12629 28.8935 3.11619 29.6655 2.29639 30.6199C1.47659 31.5744 0.865307 32.6902 0.501868 33.8956C0.169784 35.1227 -0.00320245 36.3875 -0.0127601 37.6589C-0.11228 38.9929 0.00947757 40.3342 0.347495 41.6284C0.788585 42.9399 1.58327 44.1036 2.64361 44.9907C3.70395 45.8778 4.9885 46.4537 6.35531 46.6548C7.71906 46.9705 9.1439 46.8963 10.4676 46.4406C11.7913 45.9849 12.9609 45.166 13.8428 44.0772C14.6725 43.1193 15.2879 41.9945 15.6474 40.7785C16.0069 39.5625 16.1022 38.2834 15.9269 37.0274C15.7519 35.7619 15.3189 34.5459 14.655 33.455C13.9911 32.3642 13.1103 31.4218 12.0674 30.6864C11.0312 29.9067 9.78393 29.4588 8.4892 29.4013C7.19448 29.3438 5.91264 29.6794 4.81158 30.3642C3.79285 31.0247 2.91777 31.8846 2.23907 32.8923C1.56037 33.9 1.09196 35.0347 0.861966 36.2283C0.34737 39.0895 1.20941 42.3115 4.01397 43.7034C5.31751 44.4066 6.83863 44.5887 8.27092 44.2133C9.7032 43.8378 10.9402 42.9326 11.7329 41.68C12.775 39.9014 13.4697 37.2336 12.2218 35.3777C11.7059 34.6346 10.9705 34.072 10.119 33.7692C9.2675 33.4663 8.3427 33.4385 7.47455 33.6894L10.6008 39.0766L11.1025 38.6771C11.4033 38.3783 11.6423 38.0231 11.8056 37.6316C11.969 37.2401 12.0536 36.8201 12.0545 36.3958C12.0444 35.5406 11.703 34.7227 11.1025 34.1147C10.4998 33.5163 9.68687 33.1785 8.83831 33.1738C7.9953 33.2221 7.1931 33.5536 6.56119 34.1147L6.05944 34.5142C5.56368 35.0141 5.24587 35.6635 5.15519 36.3623C5.06451 37.0611 5.20599 37.7704 5.55769 38.3806C5.92864 38.9799 6.47951 39.446 7.13126 39.7123C7.783 39.9786 8.50222 40.0312 9.18569 39.8627C9.68742 39.7596 8.28512 39.8628 8.83831 39.9272C8.99269 39.9272 8.0793 39.7854 7.8992 39.7081C7.35887 39.4761 7.5389 39.5406 7.65468 39.605C7.36777 39.443 7.11628 39.225 6.91517 38.9637C6.71405 38.7024 6.56738 38.4033 6.48393 38.0842C6.65117 38.6255 6.48393 37.2207 6.48393 37.646C6.48393 37.7491 6.48393 37.878 6.48393 37.9811C6.48393 38.0842 6.6769 37.0274 6.48393 37.5816C6.36514 37.8451 6.2788 38.122 6.22669 38.4064C6.22669 38.4064 6.56124 37.6847 6.44545 37.8909C6.42082 37.9577 6.39061 38.0223 6.35531 38.0842L6.20094 38.3806C6.14057 38.4679 6.08474 38.5582 6.03369 38.6513C6.03369 38.7415 6.66418 37.9295 6.30396 38.2775C5.80719 38.7674 5.52071 39.4321 5.50571 40.1303C5.49071 40.8284 5.74828 41.5049 6.22355 42.0157C6.69882 42.5266 7.35435 42.8314 8.05058 42.8655C8.74682 42.8995 9.42874 42.6601 9.95143 42.1981C10.4741 41.736 10.7963 41.088 10.8492 40.3917C10.9022 39.6954 10.6818 39.0058 10.235 38.4698C9.78827 37.9338 9.15036 37.5936 8.45701 37.5215C7.76367 37.4495 7.0696 37.6514 6.52256 38.0842C6.11088 38.3806 6.88282 37.8522 6.88282 37.9295C6.88282 38.0069 6.6898 37.9295 6.67693 37.994C6.30385 38.0842 7.48752 37.994 7.10158 37.994H6.59983C6.59983 37.994 7.55186 38.1358 6.9472 37.994C6.34255 37.8522 7.51324 38.342 7.0887 38.0713C7.0887 38.0713 6.83131 37.9424 6.83131 37.9167C6.83131 37.8909 7.3974 38.4451 7.19156 38.2002L6.9728 37.9811C6.67691 37.8007 7.32025 38.3806 7.23019 38.342C7.14014 38.3033 7.07581 38.0971 7.06294 38.0842C6.80565 37.7233 7.24305 38.3935 7.21732 38.4708C7.19159 38.5482 7.07581 38.0455 7.06294 37.9682C7.0569 37.9039 7.0569 37.8392 7.06294 37.7749C6.96003 37.414 7.06294 38.6126 7.06294 38.2389C7.06294 38.0842 7.06294 37.9295 7.06294 37.762C7.06294 37.5944 7.06294 37.6331 7.06294 37.5558C7.06294 36.9758 7.06294 37.9166 7.06294 37.9295C7.1673 37.6179 7.24892 37.2992 7.3073 36.9758C7.3073 36.9758 7.39746 36.7181 7.41032 36.7052C7.42319 36.6923 7.02438 37.5171 7.25595 37.0918L7.52606 36.5763L7.80905 36.1639C7.95057 35.9061 7.52605 36.5763 7.51319 36.5376C7.50032 36.499 7.66758 36.3443 7.69331 36.3185L8.02781 35.9706L8.2337 35.7901C8.43953 35.571 7.51314 36.267 7.95055 36.0092L8.28505 35.803C8.28505 35.803 8.50381 35.6999 8.50381 35.6741C8.50381 35.6483 7.68037 35.9706 8.09204 35.8546L8.51669 35.7514C8.74826 35.6741 7.9763 35.7514 7.9763 35.7514C8.07836 35.7703 8.18299 35.7703 8.28505 35.7514C8.42656 35.7514 8.77397 35.7514 8.18219 35.7514C7.5904 35.7514 7.88627 35.7514 8.00206 35.7514C8.11784 35.7514 8.7096 35.9963 8.13068 35.7514C7.55175 35.5066 8.13066 35.7515 8.27217 35.8546C8.41369 35.9577 9.04419 36.3959 8.55532 36.0221C8.06645 35.6484 8.55528 36.0221 8.67106 36.151C8.78684 36.2798 8.90265 36.3959 9.01844 36.5119C9.45584 36.963 8.64525 35.9448 8.91542 36.3572C9.01834 36.5118 9.13411 36.6665 9.22416 36.8341C9.31422 37.0016 9.40437 37.1691 9.48156 37.3367C9.70026 37.762 9.2113 36.499 9.39141 37.1434C9.44956 37.485 9.53571 37.8212 9.64881 38.1486C9.64881 38.1486 9.55875 37.2465 9.64881 37.7104C9.64881 37.7749 9.64881 37.8393 9.64881 37.9167C9.64881 37.994 9.64881 38.2389 9.64881 38.3935C9.64881 38.5482 9.4687 39.2828 9.64881 38.226C9.64881 38.4064 9.64871 38.5997 9.54579 38.7673C9.44287 38.9348 9.44289 39.0895 9.40429 39.2441C9.21132 39.837 9.72599 38.6126 9.48156 39.0508L9.24992 39.5019C9.17273 39.6179 8.74822 40.1978 9.1213 39.7081C9.49438 39.2183 9.12133 39.7081 8.99268 39.837L8.54244 40.2494C8.16936 40.5974 9.21132 39.7854 8.60667 40.1849C8.46516 40.288 7.84761 40.5845 8.41367 40.3396C8.97972 40.0947 8.41369 40.3396 8.27217 40.3396H7.98918C7.98918 40.3396 8.77396 40.2752 8.49093 40.2752H7.96343H7.65468C7.12722 40.2752 8.34939 40.4298 7.9763 40.2752C7.60322 40.1205 7.28168 40.1205 6.93433 40.0045C6.30395 39.8112 7.51322 40.3267 7.06294 40.0045L6.53544 39.7081C6.09803 39.4632 6.88277 39.9401 6.83131 39.953C6.7568 39.8951 6.688 39.8304 6.62558 39.7596C6.5098 39.6565 6.12372 39.1797 6.49681 39.6694C6.86989 40.1592 6.40675 39.5663 6.49681 39.5277C6.58686 39.489 6.74125 40.2494 6.66406 39.9272C6.66406 39.7983 6.57405 39.6694 6.54832 39.5405C6.52259 39.4117 6.39386 38.7157 6.47105 39.2957C6.54824 39.8756 6.47105 39.1539 6.47105 39.0121C6.44533 38.5227 6.44533 38.0323 6.47105 37.5429C6.47105 37.1391 6.49686 36.7396 6.54832 36.3443C6.54832 36.1897 6.63837 35.5195 6.54832 36.1123C6.45826 36.7052 6.54839 35.9448 6.62558 35.7901C6.70277 35.6354 6.72835 35.4293 6.79267 35.2488C6.8212 35.1481 6.85567 35.0491 6.89569 34.9524C6.89569 34.9524 6.52264 35.7386 6.76708 35.3004L7.02431 34.8364L7.15293 34.656C7.42309 34.192 6.7285 35.1071 6.9472 34.888L7.66756 34.1662C7.91199 33.8956 7.03718 34.5915 7.34594 34.3982L7.52606 34.2693L8.09204 33.9343L8.28505 33.8311C8.72246 33.5863 7.89921 33.9987 7.91207 33.9858C8.06235 33.8956 8.22801 33.8344 8.40079 33.8054C8.76101 33.6894 9.13423 33.6378 9.50731 33.5476C8.46525 33.7796 9.09555 33.612 9.41717 33.5476H9.88029H10.5235C10.6393 33.5476 10.961 33.612 10.4078 33.5476C10.3306 33.5476 9.8546 33.4832 10.4078 33.5476C10.7809 33.6249 11.1282 33.7409 11.5013 33.8311C11.8744 33.9213 10.7294 33.4445 11.244 33.728L11.72 33.9987C12.0803 34.2049 11.0638 33.4058 11.4755 33.8182L11.7587 34.1147C11.8138 34.167 11.8654 34.223 11.913 34.2822C11.913 34.2822 11.4885 33.6636 11.5785 33.8698C11.6686 34.076 11.7457 34.1276 11.8229 34.2693L12.003 34.6302C11.5142 33.8698 11.7844 34.0502 11.9002 34.424C12.016 34.7977 12.0287 35.0297 12.1059 35.3262C12.1831 35.6226 12.0417 34.7204 12.0417 34.772C12.0417 34.8235 12.0417 34.9524 12.0417 35.0297C12.0417 35.107 12.0417 35.3261 12.0417 35.4808C12.0674 35.8283 12.0674 36.1772 12.0417 36.5247C12.0417 36.8083 11.8873 37.3754 12.0417 36.2541L11.9644 36.7052C11.9044 37.0317 11.8273 37.3539 11.7329 37.6718C11.6557 37.9553 11.54 38.2389 11.437 38.5224C11.7973 37.4914 11.6299 38.0713 11.5142 38.342L11.2827 38.7801C11.1412 39.025 10.9867 39.2441 10.8323 39.4761C10.6779 39.7081 11.3984 38.8188 11.0124 39.2312C10.9033 39.3578 10.7873 39.4782 10.665 39.5921C10.5621 39.6952 10.1376 40.0303 10.665 39.6565C11.1925 39.2828 10.665 39.6566 10.5235 39.7339L10.099 39.9659C9.53299 40.2623 10.8194 39.721 10.2148 39.9659L9.18569 40.2236C9.18569 40.1592 10.1891 40.1334 9.40429 40.2236C9.21583 40.2366 9.02677 40.2366 8.83831 40.2236H8.33656C7.8091 40.2236 9.1857 40.3911 8.55532 40.2236C8.1951 40.1463 7.86055 40.0432 7.52606 39.9401C7.19157 39.837 7.92493 40.0818 7.8992 40.1076C7.80748 40.0778 7.72066 40.0343 7.6418 39.9787C7.49203 39.9091 7.34607 39.8317 7.20444 39.7467C7.20444 39.7467 6.77981 39.5277 6.79267 39.4761C6.80554 39.4246 7.46165 40.0432 7.1143 39.7081L6.89569 39.5277L6.56119 39.1668C6.09806 38.6899 6.90849 39.721 6.66406 39.3086C6.574 39.141 6.45824 38.9863 6.36819 38.8188C6.34362 38.7478 6.31358 38.6788 6.2782 38.6126C6.08523 38.2775 6.54836 39.3988 6.43258 38.9477C6.43258 38.8059 6.34255 38.6642 6.30396 38.5224V38.3291C6.20104 37.8909 6.30396 38.793 6.30396 38.793C6.30396 38.793 6.30396 38.445 6.30396 38.3291C6.30396 38.2131 6.30396 37.9295 6.30396 37.7233C6.30396 37.2336 6.12385 38.6255 6.30396 37.9682C6.30396 37.8006 6.3039 37.646 6.40682 37.4785C6.50974 37.3109 6.48398 37.1691 6.53544 37.0145C6.5869 36.8598 6.84426 36.2283 6.59983 36.7954C6.35539 37.3624 6.59974 36.7954 6.67693 36.6794C6.75429 36.5094 6.84472 36.3457 6.9472 36.1897C6.9472 36.0737 7.10148 35.9577 7.16581 35.8417C7.41024 35.455 6.9343 36.1768 6.90857 36.1639C6.88284 36.151 7.11431 35.9319 7.12717 35.9061L7.46168 35.5839L7.65468 35.4164C7.65468 35.4164 7.05011 35.8417 7.25595 35.7128C7.46179 35.5839 7.50028 35.5452 7.62893 35.4808L7.84769 35.3648C8.2079 35.1586 7.44893 35.5453 7.4232 35.5453C7.58622 35.5141 7.74569 35.4666 7.8992 35.4035C8.32374 35.2875 6.98565 35.4035 7.60317 35.4035C7.75266 35.4225 7.90408 35.4225 8.05357 35.4035C8.05357 35.4035 7.17877 35.223 7.59045 35.4035L7.86056 35.4808L5.6092 33.2254L5.7507 33.8827C5.97627 34.7062 6.519 35.4063 7.25956 35.8292C8.00013 36.2521 8.87788 36.3633 9.70016 36.1381C10.5121 35.8921 11.1986 35.3428 11.6176 34.604C12.0367 33.8652 12.1562 32.9932 11.9515 32.1686L12.0674 32.3619Z" fill="#004D2B"/>
<path d="M259.048 94.1344L259.202 94.7659C259.347 95.3064 259.632 95.7992 260.027 96.195C260.422 96.5909 260.914 96.8758 261.454 97.0213C262.36 97.3445 263.224 97.7773 264.027 98.3101C265.094 98.8128 266.226 99.2123 267.32 99.5989C269.685 100.383 272.185 100.672 274.666 100.45C276.739 100.562 278.818 100.353 280.828 99.8309C282.742 98.8836 284.594 97.8161 286.373 96.6347C290.491 94.4349 293.957 91.1851 296.42 87.2135C297.54 85.4479 298.414 83.5275 299.598 81.8005C300.745 80.3618 301.618 78.7234 302.171 76.9675C302.724 74.4801 299.868 71.5674 297.437 73.3331L296.729 73.8486C296.01 74.2952 295.489 75.0012 295.273 75.8212C295.058 76.6412 295.164 77.5128 295.571 78.2563C296.006 78.9896 296.711 79.5223 297.534 79.7393C298.357 79.9563 299.233 79.8403 299.971 79.4162L300.692 78.8878L295.957 75.2534C295.777 76.0525 296.253 74.8023 295.816 75.7174C295.635 76.0837 295.429 76.4369 295.198 76.7742C294.774 77.4315 294.323 78.063 293.912 78.7074C292.87 80.2411 292.085 81.9165 291.133 83.5018C289.195 86.7124 286.419 89.3326 283.105 91.0799C281.639 91.8403 280.082 93.2065 278.718 93.7606C278.26 93.9194 277.774 93.9851 277.29 93.954C276.21 93.954 275.142 93.954 274.074 94.0442C272.172 94.1796 270.264 93.8845 268.491 93.1807C266.677 92.4976 265.004 91.0928 263.1 90.7577L265.352 93.0003L265.197 92.3687C264.22 88.3348 258.019 90.0489 258.983 94.0828L259.048 94.1344Z" fill="#004D2B"/>
<path d="M299.971 63.6283L299.431 63.8732C299.431 63.8732 300.113 63.6283 299.804 63.7186L299.573 63.7959L299.11 63.9377H298.852C298.492 64.0408 299.573 63.9377 299.148 63.9377C298.332 63.9483 297.519 64.0302 296.717 64.1825C294.838 64.6336 293.938 66.2704 293.192 67.8943C292.668 68.8288 292.34 69.861 292.229 70.9272C292.119 71.9933 292.227 73.0709 292.548 74.0934C293.192 75.9804 294.232 77.7075 295.597 79.1585C297.101 80.4849 298.959 81.3427 300.943 81.6266C302.926 81.9105 304.95 81.6081 306.764 80.7566C308.444 79.875 309.827 78.5177 310.742 76.8539C311.657 75.19 312.064 73.2932 311.91 71.3998C311.796 69.4836 311.203 67.6267 310.186 65.9997C309.32 64.5032 308.06 63.273 306.545 62.4427C305.049 61.8004 303.45 61.4295 301.824 61.3472C300.469 61.1972 299.099 61.3288 297.797 61.7338C296.934 62.0107 296.161 62.5162 295.561 63.1968C294.961 63.8774 294.556 64.7078 294.388 65.6002C294.103 67.0726 294.003 68.5751 294.092 70.0724C294.115 71.4765 294.274 72.875 294.568 74.2481C294.996 75.9872 295.959 77.5473 297.321 78.7074C298.029 79.3394 298.856 79.8244 299.752 80.1341C300.649 80.4439 301.598 80.5722 302.544 80.5117C303.619 80.366 304.655 80.0091 305.593 79.4616C306.53 78.9141 307.35 78.1867 308.006 77.321C308.662 76.4554 309.141 75.4686 309.416 74.4172C309.691 73.3657 309.756 72.2703 309.607 71.1936C309.288 69.19 308.394 67.3226 307.034 65.8193C306.386 65.0845 305.652 64.4311 304.847 63.8732C304.233 63.5037 303.508 63.3665 302.802 63.4866C302.108 63.586 301.461 63.8964 300.949 64.3759C300.071 65.2532 299.451 66.3563 299.158 67.5637C298.866 68.7712 298.911 70.0362 299.29 71.2194C299.496 71.8889 299.905 72.4773 300.461 72.9024C301.017 73.3275 301.691 73.5682 302.39 73.5908C303.008 73.6072 303.623 73.4962 304.197 73.2648C304.77 73.0333 305.29 72.6863 305.724 72.2453C306.159 71.8043 306.498 71.2786 306.721 70.7008C306.944 70.1231 307.046 69.5056 307.021 68.8867C306.999 68.0393 306.653 67.233 306.054 66.6336C305.456 66.0342 304.651 65.6875 303.805 65.6647C303.153 65.6226 302.499 65.7153 301.883 65.937C301.268 66.1587 300.705 66.5047 300.229 66.9535C299.298 67.8987 298.752 69.1578 298.698 70.4848C298.7 71.1903 298.933 71.8756 299.36 72.4363C299.788 72.9971 300.386 73.4025 301.065 73.5908C302.274 73.8552 303.529 73.8153 304.719 73.4748C305.538 73.2461 306.234 72.7013 306.654 71.9597C307.073 71.2181 307.182 70.3402 306.957 69.5182C306.714 68.7058 306.168 68.0183 305.433 67.5983C304.698 67.1784 303.829 67.0582 303.007 67.2628C302.778 67.3532 302.534 67.4012 302.287 67.4045C302.544 67.4045 303.111 67.2886 302.493 67.3401C301.875 67.3917 303.278 67.5205 302.776 67.3401L305.13 70.4461C305.04 70.9874 305.027 71.1421 305.13 70.8843C305.233 70.6266 305.13 70.7812 304.95 71.2838C305.22 70.807 304.41 71.838 304.809 71.4772L304.397 71.7994C303.857 72.0056 303.741 72.0571 304.05 71.9669L303.509 72.0314C303.62 72.0186 303.733 72.0186 303.844 72.0314L300.627 68.8094C300.627 69.3378 300.821 68.152 300.705 68.5C300.589 68.848 300.705 68.5902 300.795 68.3067C300.875 68.0468 301.027 67.8146 301.232 67.6365C301.232 67.6365 301.914 67.1726 301.554 67.3788C301.779 67.2137 302.047 67.1195 302.326 67.1081C302.647 67.1081 302.686 67.1081 302.429 67.1081L305.529 69.4666C305.476 69.3324 305.433 69.1946 305.4 69.0542C305.4 69.0542 305.4 69.9306 305.465 69.4409V68.9382C305.465 68.3969 305.323 69.5826 305.465 69.2089C305.465 69.08 305.465 68.9382 305.568 68.7965C305.709 68.2938 305.259 69.3249 305.465 69.0284C305.465 68.964 305.593 68.7191 305.671 68.6933C305.748 68.6676 305.105 69.312 305.568 68.8996L301.708 69.4022C300.898 68.7836 301.708 69.4022 301.901 69.6084C302.124 69.8191 302.335 70.0428 302.531 70.2786C302.995 70.7554 302.107 69.6471 302.531 70.1884L302.737 70.4848C302.93 70.7812 303.059 71.1034 303.239 71.4127C302.802 70.6652 303.085 71.0003 303.239 71.2838C303.279 71.3893 303.314 71.4969 303.342 71.6061C303.342 71.7736 303.419 71.9412 303.458 72.1087C303.496 72.2762 303.368 72.4567 303.458 71.7478C303.458 72.0185 303.458 72.3149 303.458 72.5856C303.458 73.2171 303.651 71.7736 303.458 72.3922C303.458 72.5598 303.381 72.7273 303.329 72.8949C303.278 73.0624 303.098 73.5393 303.329 72.998C303.561 72.4567 303.329 72.998 303.329 73.0882C303.329 73.1784 303.162 73.3588 303.085 73.4877C302.866 73.8615 303.638 72.8949 303.175 73.3717C302.932 73.5786 302.704 73.8026 302.493 74.0419C302.789 73.5779 303.02 73.7068 302.66 73.9001C302.492 73.9804 302.329 74.0707 302.171 74.1708C302.802 73.7455 302.776 73.9388 302.519 74.0033C302.371 74.0343 302.225 74.073 302.081 74.1192C302.802 73.8486 302.802 74.0548 302.506 74.0548H302.081C301.798 74.0548 301.721 73.8615 302.519 74.1192L302.107 74.0161L301.837 73.9259C302.673 74.1192 302.339 74.1579 302.017 73.9259L301.708 73.7326C301.232 73.4361 302.21 74.2095 301.94 73.913C301.769 73.7273 301.589 73.5509 301.399 73.3846C301.116 73.1268 301.888 74.0935 301.567 73.6037L301.361 73.2686C301.284 73.1526 301.219 73.0367 301.155 72.9207C301.091 72.8047 301.065 72.7273 301.026 72.6242L301.219 73.0882C301.084 72.8367 301.001 72.5606 300.975 72.2763C300.782 71.387 300.975 72.9722 300.975 72.3407C300.975 71.7092 300.885 71.4256 300.846 70.9616C300.775 69.8716 300.775 68.7781 300.846 67.6881C301.052 66.5024 300.846 67.3916 300.846 67.6881C300.877 67.4752 300.92 67.2644 300.975 67.0566C300.995 66.9605 301.02 66.8658 301.052 66.773C301.142 66.4251 301.322 66.6184 300.859 67.1984C300.905 67.1341 300.944 67.065 300.975 66.9921C300.778 67.3399 300.489 67.6256 300.139 67.817L300.293 67.7267C300.705 67.4947 299.418 67.9974 299.894 67.8814L300.434 67.7396C301.155 67.5592 299.56 67.817 300.344 67.7396C300.628 67.7396 300.911 67.7396 301.194 67.7396C301.692 67.744 302.19 67.7741 302.686 67.8299C302.917 67.8299 303.252 67.9587 302.274 67.8299L302.699 67.8943L303.445 68.0489L304.037 68.2294C304.77 68.4743 303.471 67.9201 303.818 68.1263C303.897 68.1743 303.978 68.2173 304.062 68.2551C304.384 68.384 303.651 67.933 303.689 67.9587C303.988 68.1609 304.256 68.4038 304.487 68.6805L304.834 69.08C305.027 69.2862 304.937 69.4151 304.667 68.848C304.783 69.1058 305.014 69.3377 305.156 69.5826C305.297 69.8275 305.413 70.111 305.555 70.3688C305.117 69.5697 305.4 69.9951 305.555 70.2528C305.709 70.5106 305.671 70.5879 305.722 70.7554C305.774 70.923 305.812 71.3483 305.902 71.6061C305.658 70.923 305.838 71.0003 305.902 71.3483C305.966 71.6963 305.902 71.6447 305.902 71.7865C305.902 71.9283 305.902 72.3664 305.902 72.65C305.902 73.2815 306.031 71.9798 305.902 72.4051C305.902 72.5984 305.825 72.8047 305.773 72.998C305.722 73.1913 305.555 73.5522 305.49 73.8357C305.658 73.1269 305.735 73.3331 305.606 73.5522C305.478 73.7713 305.439 73.8744 305.336 74.029L305.143 74.3383C304.809 74.8925 305.658 73.7584 305.22 74.2352C305.002 74.4672 304.706 74.6863 304.513 74.9312C304.513 74.9312 305.182 74.4672 304.77 74.725L304.358 74.9827L304.062 75.1245C303.522 75.4338 304.834 74.8796 304.243 75.06C303.985 75.1467 303.723 75.2198 303.458 75.2792L303.136 75.3436C303.728 75.2791 303.844 75.2534 303.509 75.3436H303.265H302.416H301.991C302.827 75.3436 302.557 75.4209 302.261 75.3436C301.965 75.2663 301.682 75.2147 301.399 75.1374L300.988 74.9956L300.64 74.8667L301.078 75.0343C300.923 74.9331 300.76 74.8468 300.589 74.7765C300.049 74.493 301.104 75.2663 300.666 74.8539C300.55 74.725 300.422 74.6218 300.293 74.493C300.164 74.3641 299.946 73.8615 300.293 74.609C299.959 74.0033 299.547 73.449 299.238 72.8433L299.006 72.3793C299.174 72.9464 298.659 71.7349 299.006 72.3793C298.939 72.2071 298.883 72.0306 298.839 71.8509C298.833 71.7694 298.833 71.6876 298.839 71.6061C298.839 71.3483 298.839 71.4901 298.839 72.0571C298.839 71.9927 298.839 71.6318 298.839 71.5932C298.839 71.5545 298.659 72.5469 298.839 71.838C298.874 71.7025 298.917 71.5691 298.968 71.4385C299.393 70.6523 299.058 71.1807 298.968 71.4385C299.303 70.8456 299.611 70.1497 299.894 69.5698C300.049 69.2476 299.29 70.2528 299.598 69.9564C299.907 69.66 298.839 70.4719 299.2 70.2657C298.453 70.691 298.389 70.575 298.724 70.4977C297.681 70.7426 297.939 70.575 298.26 70.5621C299.163 70.5456 300.063 70.4507 300.949 70.2786C301.84 70.0411 302.702 69.7084 303.522 69.2862C304.257 68.8533 304.791 68.147 305.008 67.3213C305.224 66.4956 305.107 65.6176 304.68 64.8785C304.234 64.1577 303.53 63.6356 302.711 63.4198C301.892 63.2041 301.022 63.311 300.28 63.7186L299.971 63.6283Z" fill="#004D2B"/>
<path d="M44.4096 13.8032C45.1686 15.5302 46.455 16.9737 47.214 18.7136L46.8795 17.9403C47.0892 18.4221 47.2362 18.9289 47.3169 19.4482L47.2012 18.5847V18.6749C47.1783 19.1207 47.2715 19.5648 47.4714 19.9637C47.6081 20.3564 47.8375 20.7102 48.1403 20.9948C48.7462 21.5963 49.5644 21.9343 50.4174 21.9356C50.8401 21.937 51.259 21.8547 51.6499 21.6932C52.0407 21.5317 52.3957 21.2944 52.6945 20.9948C52.9983 20.699 53.2384 20.344 53.3999 19.9516C53.5615 19.5593 53.6409 19.1379 53.6336 18.7136C53.5841 18.1569 53.4894 17.6052 53.3506 17.0639C53.2374 16.6574 53.0911 16.2608 52.9133 15.8782C52.6184 15.1673 52.2655 14.4819 51.8582 13.829C51.148 12.7903 50.5077 11.7052 49.9414 10.5812C49.6183 10.0387 49.1437 9.6028 48.5762 9.32736C48.0087 9.05191 47.3732 8.94896 46.7479 9.03119C46.1227 9.11343 45.5353 9.37726 45.058 9.79013C44.5807 10.203 44.2345 10.7468 44.0622 11.3545L43.9463 12.2051C43.9507 12.7808 44.1061 13.3452 44.3967 13.8419L44.4096 13.8032Z" fill="#004D2B"/>
<path d="M60.3236 4.1113C60.8124 7.17866 62.2403 10.0012 62.7549 13.0685C62.9272 13.6762 63.2734 14.22 63.7507 14.6329C64.228 15.0457 64.8156 15.3096 65.4408 15.3918C66.066 15.474 66.7016 15.3711 67.2691 15.0957C67.8366 14.8202 68.3112 14.3843 68.6342 13.8418C69.0328 13.0774 69.1511 12.1972 68.9687 11.3544C68.4413 8.28703 67.0132 5.47745 66.5244 2.3972C66.3023 1.58721 65.7708 0.897336 65.0449 0.476857C64.3071 0.0494111 63.4307 -0.0685249 62.6065 0.148756C61.7823 0.366037 61.0773 0.900906 60.6452 1.63677C60.2572 2.40003 60.1436 3.27395 60.3236 4.1113Z" fill="#004D2B"/>
<path d="M266.522 36.4346C267.479 36.2443 268.402 35.9143 269.262 35.4551C269.968 35.0864 270.64 34.6551 271.269 34.1663C272.687 33.107 274.02 31.9393 275.258 30.6736C275.85 30.0613 276.186 29.2451 276.197 28.3925C276.198 27.9689 276.116 27.5491 275.955 27.1574C275.794 26.7657 275.557 26.4099 275.258 26.1103C274.959 25.8108 274.604 25.5736 274.213 25.4122C273.822 25.2509 273.403 25.1687 272.98 25.1704C272.129 25.1812 271.315 25.5178 270.703 26.1113C269.754 27.1014 268.739 28.0271 267.667 28.8822L268.31 28.3796C267.479 29.036 266.572 29.5898 265.609 30.0292L266.368 29.707C265.868 29.9198 265.346 30.0754 264.811 30.171C263.992 30.3997 263.296 30.9445 262.876 31.6861C262.457 32.4277 262.348 33.3056 262.573 34.1277C262.796 34.9366 263.321 35.6286 264.039 36.0609L264.811 36.3831C265.371 36.5378 265.962 36.5378 266.522 36.3831V36.4346Z" fill="#004D2B"/>
<path d="M273.791 49.5674C274.83 49.6011 275.868 49.4707 276.866 49.1808C277.612 48.9488 278.307 48.5751 279.066 48.3817C279.825 48.1884 280.494 48.0982 281.201 47.892C282.337 47.6128 283.372 47.0187 284.186 46.1779C284.771 45.566 285.106 44.7567 285.125 43.9096C285.123 43.0553 284.785 42.2362 284.186 41.6284C283.583 41.0263 282.767 40.6882 281.915 40.6882C281.064 40.6882 280.248 41.0263 279.645 41.6284C279.543 41.7412 279.431 41.8447 279.31 41.9377L279.953 41.4351C279.743 41.5913 279.514 41.7212 279.272 41.8217L280.043 41.4866C279.094 41.7904 278.128 42.0357 277.149 42.2212C276.191 42.6104 275.207 42.9292 274.203 43.1749L275.065 43.0719C274.637 43.1047 274.206 43.1047 273.778 43.0719C272.925 43.0719 272.107 43.4113 271.504 44.0155C270.901 44.6198 270.562 45.4393 270.562 46.2939C270.562 47.1484 270.901 47.9679 271.504 48.5722C272.107 49.1764 272.925 49.5159 273.778 49.5159L273.791 49.5674Z" fill="#004D2B"/>
</g>
<defs>
<clipPath id="clip0_195_1821">
<rect width="312" height="159" fill="white"/>
</clipPath>
</defs>
</svg>
