<svg width="230" height="228" viewBox="0 0 230 228" fill="none" xmlns="http://www.w3.org/2000/svg">
<g clip-path="url(#clip0_195_1674)">
<path d="M113.305 224.235C109.37 224.235 105.337 222.841 101.402 222.841C96.8085 222.627 92.2988 221.534 88.1181 219.62C87.1692 219.258 86.1366 218.867 85.2296 218.421C83.8343 217.696 83.0946 216.441 81.8528 215.521C80.7671 214.966 79.7267 214.328 78.7411 213.611C77.5829 212.495 76.3969 211.575 75.1689 210.529C73.3287 208.809 71.6301 206.944 70.0897 204.952C69.2944 204.018 68.5688 202.986 67.8432 201.996C66.83 200.881 65.9324 199.666 65.1641 198.371C63.8664 195.582 61.9129 193.253 60.5314 190.521C59.4238 188.105 58.4547 185.628 57.629 183.103C56.5853 180.848 55.7131 178.517 55.0197 176.131C54.4197 173.147 53.708 170.135 53.0243 167.166C52.5305 165.62 52.2351 164.017 52.1452 162.397C52.1452 161.003 52.1452 159.692 52.1452 158.339C52.1452 156.987 51.615 155.885 51.5592 154.575C51.4755 152.804 51.5592 151.005 51.5592 149.235C51.6186 147.094 51.7909 144.957 52.0755 142.835C52.1039 141.347 52.2532 139.864 52.522 138.401C53.3732 135.012 53.6243 131.527 54.922 128.306C55.7313 126.298 56.1081 124.123 56.8756 122.115C57.643 120.107 58.2709 118.295 59.1221 116.412C60.7662 112.951 62.7379 109.654 65.0106 106.568C67.0839 103.645 69.517 100.993 72.2526 98.6763C73.8293 97.282 75.5876 95.9574 77.276 94.7164C78.9644 93.4755 81.0714 92.5413 82.8575 91.3282C86.3463 89.1743 90.1713 87.6191 94.174 86.727C98.7089 85.6812 103.063 83.785 107.528 82.544C111.05 81.6169 114.687 81.199 118.328 81.303C122.319 81.303 126.575 80.8708 130.468 81.7074C132.714 82.1954 135.031 82.293 137.221 82.9484C139.86 83.7381 142.455 84.669 144.994 85.737C148.314 87.0697 151.536 88.6352 154.636 90.4219C155.557 90.9797 156.519 91.5374 157.426 92.109C159.868 93.6568 161.613 95.9574 164.152 97.4633C169.24 100.715 173.815 104.705 177.729 109.301C181.121 113.25 184 117.612 186.297 122.282C190.999 131.903 191.99 141.803 191.571 152.428C191.347 155.059 190.97 157.676 190.441 160.264C190.078 162.965 189.533 165.639 188.808 168.267C187.235 173.656 184.955 178.814 182.027 183.605C179.095 187.911 175.947 192.067 172.594 196.056C170.121 199.474 167.27 202.603 164.096 205.384C162.492 206.639 161.306 208.173 159.631 209.455C157.957 210.738 156.268 211.756 154.566 212.802C153.827 213.264 153.127 213.787 152.473 214.363C151.653 215.022 150.701 215.498 149.682 215.758C148.608 216.162 147.715 216.804 146.696 217.292C143.57 218.783 139.998 219.355 136.845 220.749C136.217 221.042 135.742 221.461 135.128 221.795C134.549 222.015 133.951 222.183 133.342 222.297C132.269 222.826 131.141 223.238 129.979 223.524C127.477 224.08 124.934 224.43 122.375 224.57C120.407 224.57 115.202 224.472 113.277 224.333" fill="#D1C8E1"/>
<path d="M113.305 220.75C109.607 220.68 106.035 219.509 102.337 219.355C98.8096 219.215 95.3236 218.543 91.9973 217.361C90.4206 216.79 88.774 216.246 87.267 215.521C86.0819 214.694 84.975 213.76 83.9599 212.732C82.7599 211.84 81.4623 211.338 80.332 210.292C79.2017 209.246 77.5412 208.061 76.3551 206.806C71.7135 201.818 67.7107 196.273 64.4386 190.298C62.905 187.295 61.599 184.181 60.5316 180.983C59.7913 179.373 59.1483 177.72 58.606 176.034C58.0897 174.165 57.7687 172.227 57.3361 170.331C56.9036 168.434 56.5269 166.747 56.0803 164.963C55.7149 163.212 55.5789 161.422 55.6757 159.636C55.5793 157.972 55.3836 156.314 55.0896 154.672C54.964 152.843 54.964 151.008 55.0896 149.179C55.2345 141.959 56.4766 134.804 58.7734 127.957C59.8023 124.318 61.0702 120.75 62.5688 117.277C64.1417 114.123 65.9809 111.11 68.0666 108.269C72.1132 102.525 77.7505 98.5091 83.6948 94.9117C86.4251 93.167 89.3585 91.7622 92.4299 90.7288C95.9881 89.6412 99.5743 88.7767 103.105 87.5497C106.377 86.2393 109.798 85.3355 113.291 84.8587C117.003 84.4962 120.798 84.538 124.454 84.538C131.548 84.7151 138.53 86.3477 144.966 89.3344C148.478 90.8382 151.87 92.6095 155.11 94.6329C157.901 96.3758 160.12 98.8158 162.896 100.642C175.058 108.446 183.686 120.69 186.939 134.762C188.464 141.605 188.719 148.671 187.692 155.607C187.203 159.305 186.509 162.973 185.613 166.594C184.685 169.892 183.491 173.11 182.041 176.215C178.943 182.782 174.255 188.29 169.762 193.923C167.611 196.839 165.201 199.554 162.562 202.038C160.157 204.337 157.587 206.457 154.873 208.382C153.478 209.302 152.082 210.222 150.687 211.254C149.571 211.939 148.388 212.509 147.157 212.955C145.808 213.702 144.41 214.355 142.97 214.907C141.212 215.493 139.426 215.953 137.682 216.581C136.814 216.869 135.966 217.214 135.142 217.612C134.696 217.835 134.221 218.296 133.747 218.491C133.063 218.798 132.212 218.867 131.5 219.174C130.815 219.502 130.101 219.763 129.366 219.955C126.396 220.636 123.356 220.959 120.309 220.917C117.965 220.917 115.621 220.917 113.333 220.708C112.407 220.708 111.52 221.075 110.866 221.729C110.212 222.382 109.844 223.269 109.844 224.194C109.844 225.118 110.212 226.005 110.866 226.658C111.52 227.312 112.407 227.679 113.333 227.679C119.403 228.084 125.891 228.279 131.794 226.55C133.105 226.16 134.333 225.588 135.645 225.156C136.552 224.792 137.414 224.324 138.212 223.761C139.009 223.37 139.841 223.052 140.696 222.813C142.454 222.242 144.254 221.781 145.984 221.126C147.715 220.471 149.236 219.481 150.91 218.798C152.463 218.219 153.925 217.421 155.25 216.427C156.645 215.395 158.041 214.573 159.436 213.639C162.639 211.377 165.641 208.844 168.408 206.067C170.96 203.475 173.333 200.712 175.511 197.799C178.134 194.522 180.785 191.274 183.227 187.857C187.645 181.606 190.854 174.583 192.688 167.152C194.631 159.408 195.43 151.423 195.06 143.448C194.733 135.532 192.836 127.759 189.478 120.581C186.042 113.58 181.383 107.248 175.72 101.883C172.868 99.1488 169.761 96.6929 166.441 94.5492C163.315 92.5414 160.775 89.8085 157.552 87.8565C154.283 85.9151 150.879 84.2097 147.366 82.7532C143.671 81.0344 139.789 79.7477 135.798 78.9188C131.871 78.0991 127.878 77.6324 123.868 77.5245C119.913 77.4545 115.958 77.6081 112.021 77.9846C107.923 78.6324 103.905 79.7121 100.035 81.2056C96.5463 82.4047 92.9462 83.1576 89.4438 84.3288C85.8555 85.6953 82.4032 87.3944 79.132 89.4041C75.7271 91.3566 72.5333 93.6555 69.6015 96.2642C63.8894 101.341 59.3069 107.559 56.1501 114.516C52.8917 122.008 50.5221 129.856 49.0895 137.899C48.7406 139.697 48.7406 141.524 48.5592 143.351C48.3778 145.177 48.1267 147.38 48.1127 149.416C48.0145 151.274 48.0145 153.135 48.1127 154.993C48.2243 156.025 48.5593 157.015 48.6569 158.047C48.7127 159.003 48.7127 159.962 48.6569 160.919C48.6569 164.977 49.843 168.839 50.736 172.757C51.1546 174.639 51.4477 176.577 52.0337 178.418C52.6198 180.258 53.5268 182.071 54.2384 183.911C55.4581 187.69 57.0618 191.335 59.0246 194.787C59.9874 196.321 61.02 197.827 61.8153 199.458C62.7287 201.029 63.7844 202.514 64.9689 203.892C67.1156 206.966 69.5347 209.841 72.1969 212.481C73.4946 213.666 74.876 214.796 76.2017 215.953C77.5273 217.11 79.0901 217.557 80.2483 218.742C81.3798 219.99 82.7389 221.013 84.253 221.753C86.1507 222.59 88.1182 223.343 90.0717 224.04C93.8957 225.392 97.906 226.145 101.96 226.271C105.756 226.424 109.412 227.665 113.235 227.665C117.728 227.763 117.728 220.791 113.235 220.694L113.305 220.75Z" fill="#004D2B"/>
<path d="M16.0747 60.1511C15.0561 63.2186 12.7119 67.5271 13.284 71.236C13.6747 73.6203 16.2282 75.419 17.6515 77.2734C19.0748 79.1279 20.1911 80.6058 21.6981 82.2093C24.8656 85.5836 27.8377 89.0694 30.9215 92.5134C32.2192 93.9077 33.1681 95.6088 34.3262 97.1704C34.982 98.0628 36.6007 101.256 37.8566 101.242C38.6938 100.587 38.5263 96.8916 38.6938 95.7482C38.8612 94.0159 38.5524 92.2708 37.8007 90.7008C37.0472 88.5535 35.4704 86.9779 34.2285 85.1235C32.9866 83.269 31.8006 81.5819 30.6703 79.7832C28.5354 76.3671 26.2191 73.1183 24.0005 69.758C22.8284 67.9733 21.2097 66.3977 19.9538 64.6548C19.4463 63.988 18.8963 63.3546 18.3073 62.7585C17.5957 61.9916 17.2189 60.4579 16.0608 60.193" fill="#F3BC61"/>
<path d="M12.726 59.217C11.526 62.675 9.93525 65.9516 9.7399 69.6884C9.61431 73.7877 12.1121 76.2278 14.6377 79.0583C15.8796 80.4526 16.954 82.0282 18.1819 83.4644C19.675 85.2073 21.2797 86.8526 22.8146 88.5676C25.6176 91.5513 28.2409 94.6987 30.6706 97.9932C32.2613 100.28 33.7264 103.654 36.6009 104.519C41.1219 105.913 41.9452 100.824 42.0987 97.6586C42.2522 96.124 42.2522 94.5779 42.0987 93.0434C41.7612 91.085 41.0911 89.1987 40.1173 87.4661C39.1963 85.8347 37.9265 84.3846 36.88 82.8229C35.8335 81.2613 34.48 79.2674 33.3218 77.4548C30.8055 73.2785 28.0425 69.2557 25.0472 65.4078C23.7449 63.8183 22.4379 62.2381 21.1262 60.6671C20.7774 60.2767 20.5261 59.7469 20.0099 59.0497C19.2667 58.0092 18.2109 57.2326 16.9959 56.8327C16.1042 56.5921 15.1536 56.7117 14.3494 57.1656C13.5452 57.6196 12.952 58.3715 12.6981 59.2589C12.4725 60.1512 12.6007 61.0961 13.0557 61.8963C13.5107 62.6965 14.2574 63.2902 15.14 63.5534C14.0656 63.149 14.0516 62.5913 14.6517 63.5534C14.7912 63.7765 14.9168 63.9996 15.0702 64.2087C15.6413 64.9646 16.2563 65.6862 16.9122 66.3699C18.1959 67.8619 19.5076 69.4374 20.6657 71.027C23.3309 74.6801 25.731 78.5563 28.1868 82.3489C29.331 84.1057 30.4892 85.8765 31.7171 87.5776C32.9053 88.9894 33.8957 90.5561 34.6613 92.2346C35.149 93.6345 35.316 95.1259 35.1497 96.5989C35.1497 97.31 35.1497 97.9932 35.0521 98.7183C35.0521 98.8019 35.0521 99.6385 35.0521 99.1366C35.0521 99.8755 34.2567 100.113 35.4567 98.8158L38.8474 97.9235C38.4707 97.8398 38.5126 97.9235 39.001 98.1048C39.4894 98.286 39.5173 98.3976 39.1405 98.1048C39.001 97.7841 38.9033 97.8259 38.694 97.5331C38.3312 97.0032 38.0242 96.4595 37.6754 95.9296C36.587 94.2564 35.4288 92.5832 34.1869 91.0216C31.159 87.229 27.7542 83.6316 24.4193 80.0761C22.8286 78.375 21.489 76.5067 20.0099 74.7219C19.0331 73.5507 17.4563 72.477 16.8703 71.0548C16.2842 69.6326 16.968 67.9873 17.3727 66.7185C17.9727 64.8362 18.768 63.0235 19.4518 61.1412C19.6922 60.252 19.5722 59.3039 19.1176 58.5026C18.6631 57.7013 17.9108 57.1113 17.0238 56.8606C16.1325 56.631 15.1868 56.7555 14.3854 57.2079C13.584 57.6603 12.9893 58.4054 12.726 59.2868V59.217Z" fill="#004D2B"/>
<path d="M111.882 111.755V112.299C111.845 112.782 111.946 113.266 112.175 113.693C112.321 114.123 112.57 114.511 112.9 114.823C113.571 115.453 114.45 115.815 115.37 115.84L116.291 115.715C116.875 115.555 117.409 115.248 117.84 114.823L118.384 114.111C118.693 113.577 118.857 112.972 118.858 112.355V111.811C118.889 111.327 118.782 110.843 118.552 110.417C118.402 109.992 118.159 109.606 117.84 109.287C117.521 108.969 117.135 108.726 116.71 108.576C116.282 108.347 115.799 108.241 115.314 108.269L114.379 108.395C113.799 108.555 113.27 108.862 112.844 109.287L112.3 109.998C111.985 110.53 111.821 111.137 111.826 111.755H111.882Z" fill="#004D2B"/>
<path d="M119.723 122.436C117.754 122.572 115.843 123.164 114.142 124.165C113.291 124.682 112.528 125.331 111.881 126.089C111.098 127.051 110.476 128.134 110.04 129.296C109.386 130.859 109.146 132.563 109.342 134.246C109.502 135.304 109.895 136.313 110.49 137.203C111.086 138.092 111.871 138.839 112.788 139.391C114.501 140.481 116.479 141.083 118.509 141.134C120.758 141.206 122.955 140.458 124.691 139.028C126.159 137.747 127.229 136.073 127.775 134.204C128.32 132.6 128.359 130.867 127.886 129.24C127.446 127.658 126.654 126.195 125.57 124.959C124.835 124.158 123.94 123.519 122.942 123.084C121.945 122.65 120.867 122.429 119.779 122.436C118.854 122.436 117.967 122.803 117.313 123.457C116.658 124.11 116.291 124.997 116.291 125.922C116.291 126.846 116.658 127.733 117.313 128.386C117.967 129.04 118.854 129.407 119.779 129.407C119.984 129.393 120.189 129.393 120.393 129.407L119.458 129.282C119.86 129.335 120.254 129.438 120.63 129.589L119.807 129.24C120.106 129.38 120.391 129.548 120.658 129.742L119.947 129.198C120.291 129.465 120.6 129.775 120.868 130.118L120.309 129.407C120.664 129.881 120.959 130.396 121.189 130.941L120.826 130.104C121.087 130.701 121.27 131.329 121.37 131.973L121.244 131.053C121.279 131.372 121.279 131.695 121.244 132.015L121.37 131.094C121.262 131.721 121.084 132.334 120.84 132.921L121.189 132.084C120.936 132.692 120.613 133.268 120.226 133.799L120.77 133.088C120.475 133.448 120.143 133.775 119.779 134.064L120.491 133.521C120.143 133.77 119.769 133.98 119.375 134.148L120.212 133.799C119.728 133.996 119.222 134.132 118.705 134.204L119.626 134.078C119.051 134.141 118.471 134.141 117.896 134.078L118.83 134.19C118.086 134.094 117.359 133.897 116.668 133.604L117.505 133.953C116.953 133.721 116.433 133.421 115.956 133.06L116.668 133.618C116.419 133.412 116.19 133.183 115.984 132.935L116.528 133.646C116.326 133.384 116.158 133.099 116.026 132.796L116.375 133.632C116.275 133.366 116.205 133.09 116.165 132.809L116.277 133.744C116.228 133.327 116.228 132.906 116.277 132.489L116.151 133.409C116.293 132.541 116.541 131.693 116.891 130.885L116.528 131.722C116.741 131.227 117.013 130.758 117.337 130.328L116.793 131.025C117.114 130.618 117.484 130.253 117.896 129.937L117.184 130.481C117.681 130.113 118.22 129.804 118.789 129.561L117.951 129.909C118.692 129.611 119.464 129.401 120.254 129.282L119.333 129.407H119.807C120.727 129.38 121.605 129.018 122.277 128.39C122.93 127.734 123.296 126.846 123.296 125.922C123.296 124.997 122.93 124.109 122.277 123.454C121.956 123.125 121.572 122.865 121.147 122.69C120.722 122.515 120.266 122.429 119.807 122.436H119.723Z" fill="#004D2B"/>
<path d="M102.895 27.2033C103.223 30.7311 103.265 34.2795 103.021 37.8141C103.021 39.2781 103.23 40.6027 103.132 41.997C103.034 43.3914 103.132 45.0646 103.132 46.5147C103.132 48.3413 102.979 50.1539 102.909 51.9525C102.811 54.0998 103.425 54.8946 105.476 54.8527C107.932 54.8527 110.235 55.4383 112.621 55.3826C113.553 55.3623 114.485 55.4042 115.412 55.5081C116.346 55.6335 117.142 56.0658 118.091 56.1495C119.201 56.2363 120.302 56.4135 121.384 56.6793C122.07 56.9 122.784 57.0266 123.505 57.0558C125.444 56.9442 125.793 54.8527 126.086 53.305C126.682 49.7399 127.04 46.1393 127.161 42.5269C127.272 40.3657 126.951 38.3439 126.993 36.1967C126.993 34.649 126.784 33.1152 126.826 31.5675C126.826 29.4063 126.826 27.273 126.826 25.0978C126.658 23.2798 126.658 21.4502 126.826 19.6321C126.072 19.0465 125.123 19.3393 124.23 19.2835C122.931 19.089 121.622 18.9633 120.309 18.907C119.123 18.907 118.007 18.7537 116.849 18.907C115.928 19.0732 114.992 19.134 114.058 19.0883C113.124 19.0637 112.19 19.1244 111.267 19.2696C110.332 19.2696 109.425 19.0325 108.476 19.1023C106.581 19.1588 104.703 19.4779 102.895 20.0504C102.588 22.351 104.123 24.331 102.728 26.6316" fill="#FFF34A"/>
<path d="M99.4067 27.2034C99.6997 30.6211 99.7417 34.0557 99.5323 37.4795C99.5323 40.7283 99.7276 43.991 99.6718 47.2398C99.6718 50.2376 98.6252 54.2115 100.872 56.6236C103.118 59.0358 106.356 58.3247 109.119 58.6593C110.681 58.8406 112.216 58.8824 113.779 58.9243C115.342 58.9661 116.654 59.5099 118.161 59.6772C121.119 60.0119 124.105 61.448 126.798 59.468C129.031 57.8227 129.449 54.9505 129.826 52.3988C130.33 49.0363 130.633 45.6467 130.733 42.2482C130.831 38.4835 130.356 34.7188 130.398 30.9541C130.398 29.016 130.398 27.0779 130.398 25.1398C130.238 23.6346 130.21 22.1183 130.314 20.6082C130.498 19.8654 130.441 19.0837 130.153 18.3749C129.865 17.6662 129.36 17.0667 128.71 16.6623C127.535 16.0571 126.22 15.7733 124.9 15.8396C123.77 15.8396 122.696 15.5886 121.565 15.505C119.347 15.3516 117.198 15.5886 114.993 15.6444C110.807 15.742 106.16 15.2122 102.1 16.6902C101.376 16.9196 100.741 17.3669 100.281 17.971C99.8216 18.575 99.56 19.3062 99.5323 20.0644C99.4839 21.1212 99.5683 22.1798 99.7834 23.2156C99.9548 23.7602 99.9548 24.3442 99.7834 24.8888C97.7462 28.8766 103.76 32.4181 105.798 28.4025C106.565 27.0306 106.924 25.4678 106.83 23.8988C106.603 22.6324 106.473 21.3506 106.439 20.0644L103.886 23.4248C105.372 22.9075 106.931 22.6297 108.505 22.6021C109.439 22.6021 110.36 22.7973 111.295 22.7694C112.23 22.7416 113.319 22.5881 114.351 22.6021C116.249 22.6021 118.161 22.4348 120.072 22.4487C120.95 22.4466 121.827 22.5072 122.696 22.63C123.226 22.6997 123.756 22.7834 124.286 22.8113C124.523 22.8113 125.682 23.0204 125.123 22.6858L123.519 18.7538C123.23 21.4118 123.179 24.0901 123.365 26.7572C123.365 29.6992 123.477 32.6412 123.547 35.5693C123.869 41.2008 123.602 46.8505 122.751 52.4267C122.751 52.8032 122.626 53.1796 122.528 53.5561C122.43 53.9326 122.333 54.1696 122.347 54.1696C122.361 54.1696 123.854 52.9008 123.044 53.6816C123.268 53.4585 123.63 53.8768 123.142 53.5561C122.532 53.3079 121.887 53.1573 121.23 53.1099C118.675 52.5115 116.076 52.1198 113.458 51.9387C112.106 51.9408 110.755 51.8664 109.411 51.7156L107.472 51.5065C107.207 51.5065 105.225 51.1857 105.044 51.4088C105.379 50.9905 106.328 52.6219 106.439 52.6777C106.551 52.7335 106.356 52.9008 106.439 52.4685C106.453 52.1991 106.453 51.9292 106.439 51.6598C106.439 50.0703 106.621 48.4808 106.635 46.9052C106.635 43.754 106.453 40.6028 106.495 37.4656C106.705 34.0417 106.663 30.6072 106.37 27.1894C106.345 26.2727 105.97 25.4003 105.321 24.7519C104.672 24.1034 103.799 23.7283 102.881 23.7036C101.958 23.7109 101.075 24.0805 100.423 24.7326C99.7699 25.3848 99.4 26.2672 99.3927 27.1894L99.4067 27.2034Z" fill="#004D2B"/>
<path d="M191.879 151.075C192.688 151.214 191.879 150.991 191.711 150.838C191.934 151.033 192.13 151.256 192.339 151.465C192.548 151.675 192.897 152.149 193.162 152.497C193.902 153.418 194.739 154.268 195.437 155.286C197.069 157.675 198.519 160.182 199.776 162.787C201.034 165.262 201.771 167.967 201.942 170.737C202.112 173.507 201.712 176.282 200.767 178.892C200.036 181.138 198.494 183.032 196.441 184.204C194.145 185.367 191.668 186.131 189.116 186.463C186.052 186.772 182.971 186.893 179.892 186.826C176.859 187.211 173.783 186.599 171.129 185.083C169.385 184.246 167.613 183.688 165.813 182.935C165.003 182.666 164.218 182.326 163.469 181.918C163.091 181.731 162.727 181.516 162.38 181.276C162.98 181.694 162.548 181.471 162.464 181.276L162.311 181.123C162.62 181.433 162.84 181.821 162.945 182.246C163.051 182.671 163.039 183.116 162.911 183.535C163.845 179.157 157.12 177.288 156.171 181.681C154.985 187.188 162.506 189.07 166.343 190.479C167.432 190.869 166.511 190.716 166.469 190.479C166.538 190.813 168.366 191.385 168.743 191.552C170.698 192.512 172.779 193.188 174.925 193.56C178.905 193.965 182.916 193.965 186.897 193.56C194.027 193.072 202.009 190.939 205.804 184.344C207.585 181.046 208.644 177.408 208.914 173.67C209.183 169.933 208.656 166.181 207.367 162.662C206.622 160.731 205.717 158.865 204.66 157.085C203.614 155.272 202.665 153.348 201.465 151.647C200.418 150.169 199.051 148.719 198.116 147.533C197.112 145.945 195.549 144.791 193.734 144.299C192.842 144.084 191.901 144.216 191.103 144.67C190.304 145.123 189.709 145.863 189.437 146.739C189.2 147.63 189.324 148.578 189.781 149.378C190.238 150.179 190.991 150.768 191.879 151.019V151.075Z" fill="#004D2B"/>
<path d="M143.5 145.679C142.16 146.091 140.866 146.638 139.635 147.31C137.975 147.938 136.314 148.537 134.626 149.081C131.835 149.987 129.198 151.089 126.463 152.051C122.444 153.445 124.258 156.555 124.956 159.72C125.723 162.729 126.745 165.668 128.012 168.504C130.077 173.538 132.003 178.599 134.207 183.577C134.891 185.124 135.603 186.714 136.398 188.192C136.9 189.126 137.026 189.363 137.975 189.684C139.37 190.172 141.854 188.29 142.845 187.564C143.598 186.993 154.008 182.113 154.008 182.113" fill="#8CA54F"/>
<path d="M142.566 142.319C141.021 142.81 139.522 143.436 138.086 144.187C136.245 144.94 134.319 145.498 132.435 146.153C130.551 146.808 128.891 147.464 127.105 148.119C125.327 148.587 123.675 149.439 122.263 150.615C120.058 152.818 120.295 155.83 121.049 158.604C121.899 161.89 122.948 165.122 124.188 168.281C125.709 172.018 127.175 175.769 128.709 179.505C130.054 183.166 131.658 186.726 133.51 190.158C135.379 193.323 138.77 193.867 141.882 192.291C143.277 191.58 144.547 190.521 145.998 189.796C149.208 188.164 152.473 186.658 155.766 185.125C156.557 184.651 157.131 183.886 157.364 182.994C157.596 182.102 157.468 181.155 157.008 180.356C156.527 179.573 155.761 179.007 154.872 178.776C153.982 178.544 153.037 178.666 152.236 179.115C149.873 180.212 147.519 181.327 145.175 182.461C143.947 183.061 142.677 183.619 141.491 184.302C141.059 184.553 140.668 184.86 140.249 185.152C139.845 185.443 139.425 185.713 138.993 185.961C138.993 185.961 138.226 186.421 138.421 186.254C138.1 186.533 137.5 185.905 138.882 186.254C139.579 186.463 139.831 187.188 139.259 186.087C138.896 185.431 138.575 184.692 138.254 184.093C137.542 182.559 136.858 181.011 136.203 179.464C134.891 176.34 133.649 173.175 132.393 170.024C131.137 166.873 129.798 163.959 128.849 160.821C128.5 159.65 128.249 158.465 127.928 157.28C127.803 156.82 127.663 156.36 127.551 155.886C127.509 155.632 127.453 155.38 127.384 155.133C127.244 154.742 127.537 155.649 127.384 155.133C127.189 154.659 127.635 155.356 127.286 155.425C127.964 155.222 128.626 154.97 129.268 154.672C131.04 154.017 132.798 153.278 134.598 152.707C136.398 152.135 138.17 151.535 139.928 150.852C141.372 150.117 142.869 149.492 144.407 148.984C148.789 148.035 146.933 141.301 142.552 142.263L142.566 142.319Z" fill="#004D2B"/>
<path d="M168.143 151.061C168.143 155.76 167.668 160.264 167.668 165.004C167.487 169.95 166.975 174.879 166.133 179.756C165.317 179.91 164.48 179.91 163.664 179.756C162.435 179.822 161.203 179.789 159.98 179.659C157.841 179.351 155.68 179.225 153.519 179.282H148.077C146.326 179.345 144.575 179.167 142.872 178.752C142.656 176.984 142.656 175.195 142.872 173.426C142.761 171.969 142.761 170.505 142.872 169.048C143.082 168.416 143.259 167.774 143.403 167.124C143.486 166.287 143.403 165.395 143.403 164.544C143.472 163.603 143.626 162.669 143.863 161.756C144.003 160.947 143.765 160.138 143.863 159.329C143.961 158.521 144.31 158.047 144.393 157.363C144.477 156.68 144.393 155.746 144.393 154.951C144.393 153.459 144.798 152.009 144.882 150.489C145.035 147.52 145.998 144.689 146.277 141.789C146.473 140.144 147.826 140.325 149.235 140.395H156.896C158.467 140.583 160.018 140.915 161.529 141.384C162.947 141.595 164.347 141.917 165.715 142.347C166.482 142.584 168.24 142.584 168.673 143.281C169.747 144.996 168.254 151.103 168.254 151.103" fill="#FFF34A"/>
<path d="M164.655 151.061C164.627 160.337 163.998 169.6 162.771 178.794L165.213 176.354C164.596 176.423 163.974 176.423 163.357 176.354C162.436 176.354 161.515 176.354 160.566 176.354C158.627 176.159 156.757 175.922 154.817 175.908C151.231 175.908 147.268 176.41 143.78 175.504L146.208 177.93C146.061 176.637 146.061 175.332 146.208 174.04C146.075 172.565 146.075 171.081 146.208 169.606C146.45 168.832 146.627 168.039 146.738 167.235C146.738 166.385 146.64 165.52 146.738 164.656C146.836 163.262 147.226 162.021 147.212 160.64C147.198 159.26 147.77 157.782 147.743 156.262C147.775 154.583 147.906 152.907 148.133 151.242C148.259 149.867 148.455 148.499 148.719 147.143C148.901 146.32 149.082 145.498 149.236 144.675C149.319 144.257 149.389 143.853 149.445 143.434C149.85 141.928 149.445 142.04 148.05 143.908C147.701 143.908 147.757 143.908 148.231 143.908H156.073C157.368 144.005 158.647 144.258 159.882 144.661L164.571 145.721C165.031 145.832 165.506 145.888 165.966 145.972L166.552 146.111C167.389 146.362 166.971 145.888 165.282 144.717C165.366 145.08 165.38 145.052 165.282 144.633C165.296 144.856 165.296 145.08 165.282 145.303C165.282 145.791 165.283 146.279 165.213 146.781C165.094 147.951 164.889 149.112 164.599 150.252C163.552 154.617 170.292 156.471 171.338 152.107C172.05 149.123 172.999 145.135 171.673 142.207C170.473 139.572 167.906 139.419 165.464 138.791C164.069 138.429 162.757 138.247 161.403 137.927C160.038 137.496 158.637 137.188 157.217 137.006C154.259 136.783 151.147 136.909 148.175 137.006C146.968 136.978 145.778 137.293 144.742 137.913C144.067 138.424 143.514 139.081 143.126 139.833C142.737 140.586 142.522 141.416 142.496 142.263C141.966 145.414 141.338 148.454 141.003 151.633C140.765 153.085 140.64 154.553 140.626 156.025C140.626 157.531 140.068 158.814 140.096 160.403C140.124 161.993 139.635 163.471 139.635 165.046C139.716 165.818 139.683 166.598 139.538 167.361C139.302 168.167 139.143 168.993 139.063 169.829C138.952 171.432 139.203 173.036 139.063 174.653C138.9 176.389 138.975 178.139 139.287 179.854C139.445 180.438 139.754 180.971 140.183 181.399C140.611 181.827 141.144 182.135 141.729 182.294C145.915 183.382 150.366 182.894 154.622 182.949C156.659 182.949 158.64 183.27 160.664 183.423C162.722 183.673 164.807 183.607 166.845 183.228C167.432 183.073 167.967 182.766 168.396 182.337C168.825 181.909 169.132 181.374 169.287 180.788C170.124 175.828 170.669 170.823 170.92 165.799C171.004 160.933 171.394 156.039 171.408 151.215C171.408 146.739 164.431 146.725 164.431 151.215L164.655 151.061Z" fill="#004D2B"/>
<path d="M148.44 179.533C148.237 180.366 147.956 181.178 147.603 181.959C147.136 183.213 147.053 184.577 147.366 185.877C148.05 188.387 150.157 189.698 152.501 190.548C154.321 191.271 156.304 191.484 158.236 191.162C160.498 190.616 162.515 189.336 163.971 187.523C165.687 185.578 166.734 183.134 166.957 180.551C166.946 179.35 166.676 178.165 166.165 177.078C165.655 175.99 164.916 175.025 163.999 174.249C162.14 172.494 159.749 171.41 157.203 171.167C154.944 171.137 152.724 171.762 150.813 172.966C149.309 173.73 148.062 174.918 147.226 176.382C146.315 178.124 145.891 180.08 145.998 182.043C146.375 186.616 150.101 189.405 154.05 191.022C156.009 192.03 158.255 192.335 160.413 191.887C162.855 191.148 164.013 188.973 164.766 186.714C165.456 184.936 165.578 182.987 165.115 181.137C164.435 179.055 162.982 177.313 161.055 176.271C159.337 175.336 157.427 174.807 155.473 174.723C154.21 174.656 152.951 174.918 151.82 175.483C150.689 176.049 149.725 176.898 149.021 177.949C148.318 178.999 147.899 180.214 147.807 181.474C147.715 182.735 147.953 183.997 148.496 185.138C149.585 187.008 151.249 188.475 153.24 189.321C154.357 189.916 155.591 190.259 156.854 190.325C158.315 190.264 159.7 189.657 160.734 188.624C161.599 187.918 162.313 187.046 162.836 186.059C163.358 185.073 163.678 183.992 163.776 182.88C163.73 181.687 163.379 180.526 162.756 179.508C162.133 178.49 161.259 177.649 160.217 177.065C159.196 176.393 158.021 175.989 156.802 175.889C155.583 175.789 154.358 175.997 153.24 176.494C152.053 177.08 151.036 177.963 150.291 179.058C149.545 180.152 149.095 181.421 148.985 182.74C148.957 183.887 149.204 185.024 149.703 186.057C150.203 187.09 150.942 187.989 151.859 188.68C153.254 189.981 154.96 190.902 156.813 191.357C158.061 191.657 159.372 191.561 160.562 191.081C161.753 190.601 162.764 189.762 163.455 188.68C165.743 185.097 164.585 180.509 161.878 177.525C159.436 174.834 155.222 173.273 151.719 174.737C149.466 175.598 147.588 177.223 146.415 179.329C145.241 181.435 144.847 183.887 145.301 186.254C145.786 188.337 146.943 190.204 148.594 191.566C150.389 192.948 152.545 193.781 154.803 193.965C156.638 194.152 158.491 193.961 160.249 193.402C162.006 192.843 163.629 191.929 165.017 190.716C168.492 187.509 167.292 182.21 164.041 179.324C162.544 177.86 160.553 177.009 158.459 176.94C157.534 176.94 156.647 177.307 155.992 177.961C155.338 178.614 154.971 179.501 154.971 180.426C154.971 181.35 155.338 182.237 155.992 182.89C156.647 183.544 157.534 183.911 158.459 183.911C159.143 183.911 158.613 183.911 158.459 183.911C157.775 183.911 158.25 183.911 158.389 183.911L158.808 184.037C159.143 184.135 158.808 184.26 158.459 183.884C158.683 184.044 158.921 184.184 159.171 184.302C159.659 184.609 159.282 184.372 159.171 184.302C158.682 183.995 159.171 184.372 159.324 184.483C159.508 184.707 159.704 184.921 159.91 185.125C159.91 185.125 159.422 184.413 159.715 184.873C159.715 184.985 159.855 185.097 159.91 185.194L160.148 185.612C160.371 186.003 160.148 185.989 160.05 185.375C160.072 185.496 160.109 185.613 160.161 185.724C160.259 186.087 160.161 186.421 160.161 185.487C160.141 185.714 160.141 185.943 160.161 186.17C160.064 185.487 160.287 185.403 160.161 185.738C159.994 186.338 160.566 185.097 160.315 185.431C160.245 185.529 160.189 185.668 160.12 185.766C160.05 185.863 159.841 185.766 160.371 185.445C160.149 185.627 159.944 185.828 159.757 186.045C160.273 185.473 160.273 185.668 160.022 185.822L159.631 186.073L158.878 186.477L158.515 186.63C159.241 186.212 159.059 186.421 158.808 186.505L157.887 186.812C157.357 186.965 156.827 187.049 156.296 187.16C156.701 187.16 157.441 186.923 156.296 187.16C155.892 187.16 155.71 187.16 155.417 187.16H154.901C154.552 187.16 154.636 186.965 155.222 187.16C154.966 187.089 154.705 187.038 154.44 187.007C154.12 186.923 153.827 186.826 153.52 186.714C153.213 186.602 153.408 186.491 153.827 186.853C153.668 186.757 153.505 186.668 153.338 186.589L153.017 186.393C152.557 186.142 153.226 186.561 153.268 186.616C153.101 186.407 152.836 186.24 152.654 186.045C152.555 185.918 152.447 185.797 152.333 185.682C152.333 185.682 152.808 186.379 152.529 185.905C152.445 185.752 152.138 185.013 152.026 184.985C152.236 184.985 152.264 185.696 152.11 185.18C152.11 184.999 151.985 184.804 151.943 184.623C151.775 183.953 152.082 184.623 151.943 184.748C151.951 184.604 151.951 184.46 151.943 184.316V183.87C151.943 183.256 151.943 184.107 151.943 184.148C151.943 184.19 152.04 183.73 152.068 183.633C152.096 183.535 152.361 182.782 152.138 183.34C151.915 183.897 152.138 183.34 152.138 183.256L152.417 182.782C152.417 182.67 152.613 182.531 152.668 182.42C152.445 182.949 152.32 182.824 152.543 182.587C152.766 182.35 153.017 182.085 153.268 181.848C153.519 181.611 153.561 181.527 153.715 181.471L153.394 181.736L153.701 181.527L154.008 181.346C154.259 181.192 154.44 181.346 153.659 181.485C153.896 181.485 154.147 181.332 154.385 181.262C153.478 181.262 155.082 181.067 154.385 181.262C154.496 181.249 154.608 181.249 154.72 181.262C155.11 181.262 155.306 181.471 154.454 181.262L155.096 181.402C155.236 181.402 155.375 181.513 155.501 181.541C155.934 181.639 154.664 181.123 155.222 181.416L155.836 181.736L156.129 181.918C156.631 182.252 156.129 182.015 155.989 181.792C156.34 182.18 156.713 182.548 157.106 182.894C156.561 182.433 156.715 182.336 156.882 182.601L157.078 182.894C157.245 183.158 157.371 183.451 157.538 183.716C157.706 183.981 157.231 182.838 157.413 183.437C157.456 183.547 157.493 183.658 157.524 183.772C157.524 183.981 157.608 184.218 157.678 184.427C157.399 183.633 157.678 183.716 157.678 184.093C157.685 184.204 157.685 184.316 157.678 184.427C157.678 184.567 157.678 184.706 157.678 184.846C157.678 185.459 157.887 183.981 157.678 184.609C157.589 184.825 157.519 185.049 157.468 185.278C157.552 184.595 157.775 184.678 157.594 184.985C157.594 185.083 157.148 185.599 157.594 185.125C158.041 184.65 157.594 185.125 157.51 185.125C157.427 185.125 158.25 184.581 157.831 184.86C157.413 185.138 157.608 184.706 158.236 184.692L158.013 184.762C157.734 184.762 157.915 184.762 158.557 184.692H158.236C157.622 184.692 159.003 184.873 158.599 184.692C158.194 184.511 158.096 184.567 157.859 184.483C157.622 184.399 157.594 184.218 158.194 184.636C158.091 184.577 157.984 184.526 157.873 184.483C157.605 184.343 157.344 184.19 157.092 184.023C156.966 183.939 156.854 183.842 156.715 183.758C156.338 183.535 157.427 184.344 156.938 183.925C156.771 183.786 156.603 183.646 156.45 183.493C156.296 183.34 156.003 183.033 155.78 182.796C155.557 182.559 156.073 183.396 155.948 183.019C155.948 182.88 155.473 182.294 155.822 182.838L155.934 183.075C155.836 182.712 155.85 182.838 155.934 183.437C155.941 183.303 155.941 183.168 155.934 183.033C156.115 183.758 155.766 183.563 155.934 183.27C156.241 182.726 155.724 183.535 155.78 183.521C155.89 183.369 155.984 183.205 156.059 183.033C156.24 182.643 155.459 183.605 156.059 183.103C156.059 183.103 156.38 182.782 156.38 182.768L156.031 183.019C156.156 182.932 156.287 182.853 156.422 182.782C156.799 182.517 156.506 182.977 156.185 182.866C156.294 182.853 156.401 182.83 156.506 182.796C155.864 183.033 155.738 182.921 156.171 182.88C156.757 182.88 156.31 182.88 156.171 182.88C155.585 182.88 156.45 183.033 156.589 183.033C156.087 183.033 155.934 182.712 156.268 182.894L156.757 183.172C156.854 183.172 156.966 183.34 157.064 183.382C156.338 183.033 156.617 182.991 156.841 183.256C156.928 183.376 157.031 183.484 157.148 183.577C157.078 183.577 156.701 182.866 156.91 183.298C156.743 182.726 157.259 184.065 156.91 183.298C157.078 183.87 156.91 182.489 156.91 182.935C156.91 183.382 156.91 182.768 156.91 182.601C156.771 183.2 157.259 182.029 157.05 182.336C156.972 182.447 156.902 182.563 156.841 182.684C156.729 182.894 156.506 183.103 156.422 183.312C156.617 182.796 156.813 182.838 156.575 183.089C156.467 183.225 156.35 183.356 156.227 183.479C156.227 183.549 155.878 183.744 155.864 183.828C155.864 183.646 156.589 183.409 156.031 183.674C155.473 183.939 155.599 183.744 156.352 183.563C156.352 183.563 157.371 183.563 156.813 183.493C157.887 183.493 157.12 183.493 156.701 183.382C156.52 183.312 156.157 183.312 156.603 183.382C157.05 183.451 156.603 183.382 156.422 183.27C156.24 183.158 155.808 182.935 155.515 182.754C155.431 182.754 154.943 182.308 154.887 182.336C154.831 182.364 155.445 182.81 154.971 182.336L154.664 182.029C154.343 181.722 155.068 182.754 154.775 182.155C154.716 182.035 154.651 181.919 154.58 181.806C154.845 182.029 154.859 182.517 154.734 182.099C154.608 181.68 154.734 182.907 154.734 182.266C154.734 181.625 154.734 182.573 154.734 182.601C154.8 182.43 154.847 182.252 154.873 182.071C154.971 181.639 154.468 182.768 154.873 182.182L155.068 181.834C155.222 181.527 155.375 181.736 154.859 182.085C154.945 182.003 155.024 181.914 155.096 181.82C155.487 181.346 154.51 182.113 154.873 181.973C154.985 181.973 155.585 181.611 154.985 181.862C154.845 181.931 154.385 182.113 154.985 181.862C155.417 181.722 155.306 182.001 154.706 181.862C154.984 181.883 155.264 181.883 155.543 181.862H155.906C156.575 181.862 155.166 181.708 155.613 181.862C156.059 182.015 156.296 181.987 156.631 182.071L157.371 182.308C157.887 182.475 157.12 182.21 157.064 182.168C157.201 182.252 157.346 182.322 157.496 182.378L158.222 182.81C158.529 183.005 158.222 183.047 157.957 182.615C158.041 182.726 158.264 182.88 158.361 182.991C158.438 183.086 158.522 183.175 158.613 183.256C158.068 182.866 158.236 182.712 158.389 183.005C158.455 183.14 158.53 183.27 158.613 183.396C158.864 183.73 158.375 182.545 158.515 183.172C158.533 183.301 158.565 183.428 158.613 183.549C158.724 183.967 158.389 183.549 158.613 183.228C158.577 183.445 158.577 183.667 158.613 183.884C158.515 183.131 158.738 183.117 158.613 183.535L158.529 183.884C158.474 184.161 158.404 184.436 158.32 184.706L158.068 185.445C157.859 186.101 158.375 184.832 158.166 185.236C158.082 185.389 158.027 185.557 157.929 185.71C157.831 185.863 157.273 186.533 158.027 185.71L157.859 185.891C158.092 185.65 158.386 185.476 158.71 185.389C158.013 185.585 159.366 185.389 158.892 185.389H158.78C158.473 185.389 158.473 185.389 158.78 185.389H159.017L158.557 185.292L157.887 185.097C157.357 184.943 156.841 184.734 156.31 184.553C155.78 184.372 157.147 184.943 156.52 184.65L156.171 184.483C155.878 184.344 155.585 184.19 155.306 184.023C155.042 183.883 154.786 183.729 154.538 183.563L154.203 183.34C153.854 183.103 154.022 182.963 154.371 183.465C154.192 183.275 153.996 183.103 153.785 182.949C153.701 182.866 153.617 182.768 153.52 182.684L153.282 182.392L153.589 182.796C153.447 182.527 153.288 182.266 153.115 182.015C152.919 181.694 153.227 181.806 153.24 182.336C153.216 182.216 153.179 182.099 153.129 181.987C153.108 181.865 153.08 181.744 153.045 181.625C153.338 182.169 153.045 182.364 153.045 181.89C153.038 181.76 153.038 181.629 153.045 181.499C153.045 181.374 153.143 180.607 153.045 181.234C152.947 181.862 153.045 180.886 153.143 180.732C153.24 180.579 153.254 180.272 153.324 180.063C152.906 180.746 153.589 179.226 153.324 180.063L153.464 179.812C153.645 179.45 153.938 179.575 153.24 180.049C153.385 179.928 153.515 179.793 153.631 179.645L153.91 179.408C154.189 179.129 153.213 179.868 153.561 179.673C153.91 179.477 154.482 179.101 154.957 178.864L155.78 178.474C154.999 178.683 156.185 178.278 155.78 178.474L156.268 178.334C156.408 178.334 156.631 178.334 156.757 178.237C156.227 178.488 156.185 178.237 156.534 178.237H157.106C157.51 178.237 156.366 178.041 156.966 178.237L157.538 178.39C158.208 178.39 157.831 178.487 157.538 178.39C157.882 178.493 158.203 178.659 158.487 178.878L158.878 179.115C159.45 179.422 158.375 178.669 158.71 178.976C159.045 179.282 159.241 179.45 159.492 179.701C159.626 179.832 159.752 179.972 159.869 180.119C159.869 180.119 159.366 179.394 159.729 179.952L159.952 180.328C159.952 180.426 160.273 181.039 160.064 180.467C160.064 180.384 159.855 179.896 160.064 180.467C160.245 181.081 159.855 180.356 160.064 180.175C160.273 179.993 160.064 180.663 160.064 180.635C160.134 180.147 160.148 180.035 160.064 180.3C160.072 180.421 160.072 180.542 160.064 180.663C159.978 180.988 159.876 181.31 159.757 181.625C160.022 181.151 159.506 182.392 159.757 181.625C159.659 181.778 159.589 181.945 159.492 182.113C159.394 182.28 159.185 182.601 159.017 182.852C158.641 183.382 159.143 182.698 159.143 182.684C159.143 182.67 158.752 183.117 158.669 183.214C158.585 183.312 158.138 183.702 157.887 183.953C158.585 183.521 157.636 184.204 157.887 183.953C157.748 184.037 157.622 184.135 157.482 184.204C157.352 184.287 157.217 184.361 157.078 184.427C156.506 184.762 157.273 184.302 157.287 184.358L156.757 184.511L156.436 184.581C157.124 184.516 157.32 184.488 157.022 184.497C156.785 184.497 156.548 184.497 156.31 184.497H155.948C156.882 184.497 156.589 184.595 156.324 184.497C155.673 184.355 155.031 184.178 154.399 183.967C154.12 183.87 154.092 183.688 154.692 184.093L154.343 183.939C154.12 183.814 153.896 183.646 153.659 183.535C153.422 183.423 154.371 184.135 153.924 183.744C153.924 183.744 153.743 183.535 153.729 183.535C153.715 183.535 154.287 184.302 153.952 183.73C154.1 183.932 154.178 184.177 154.175 184.427C154.175 184.762 154.175 184.748 154.175 184.427C154.175 183.856 154.175 184.678 154.175 184.734C154.229 184.604 154.266 184.469 154.287 184.33C154.392 183.974 154.517 183.625 154.664 183.284C154.928 182.709 155.124 182.105 155.25 181.485C155.466 180.576 155.342 179.619 154.901 178.794C154.555 178.202 154.041 177.724 153.424 177.422C152.808 177.12 152.115 177.007 151.434 177.096C150.753 177.185 150.114 177.473 149.596 177.924C149.079 178.375 148.706 178.969 148.524 179.631L148.44 179.533Z" fill="#004D2B"/>
<path d="M198.521 92.7782L198.088 92.6946C198.213 90.9656 200.251 89.5434 201.381 88.428C203.558 86.2946 205.386 83.7709 207.507 81.554C211.246 77.6498 218.335 68.3357 220.149 66.9693C221.181 66.1745 223.316 63.8878 224.223 65.0451C224.712 65.6586 224.461 66.7323 224.6 67.4573C224.74 68.1824 224.963 69.1305 225.102 69.981C225.242 70.8316 225.535 71.7936 225.73 72.6721C225.87 73.2577 225.828 73.8712 225.954 74.4429C226.479 75.8295 226.633 77.329 226.4 78.7932C225.884 80.6058 223.609 82.767 222.814 83.743C222.326 84.3286 221.67 84.8167 221.181 85.4162C219.647 87.2707 218.391 89.4179 216.814 91.2027C216.228 91.844 215.419 92.109 214.944 92.8619C214.367 93.704 213.737 94.5096 213.06 95.2741C211.79 96.6684 210.87 98.3695 209.474 99.7359C206.683 102.525 204.325 105.773 201.604 108.562C200.976 107.962 200.781 106.247 200.572 105.411C200.195 103.905 199.986 102.329 199.511 100.837C198.822 98.5453 198.488 96.1613 198.521 93.7682" fill="#8CA54F"/>
<path d="M199.455 89.418L199.009 89.3204L201.451 93.615C201.646 92.388 203.376 91.384 204.241 90.4638C205.637 89.0695 206.948 87.3963 208.288 85.8486C210.381 83.4224 212.558 81.0939 214.609 78.626C216.66 76.158 218.432 73.955 220.414 71.6544C221.012 70.9359 221.655 70.2559 222.339 69.6186C222.66 69.3119 223.023 69.033 223.372 68.7541C223.556 68.5783 223.752 68.4152 223.958 68.2661C224.405 67.6666 224.181 68.6705 223.037 68.1964L221.502 67.2901C221.139 66.091 220.972 65.7982 221.014 66.4117C221.014 66.6348 221.014 66.8439 221.014 67.0531C221.069 67.7094 221.167 68.3614 221.307 69.0051C221.516 70.0788 221.725 71.1803 221.99 72.2399C222.256 73.2996 222.339 74.3036 222.535 75.3493C222.811 76.1202 222.966 76.9292 222.995 77.7475C222.842 78.7933 221.237 80.1737 220.47 81.0381C218.98 82.6355 217.582 84.316 216.283 86.0717C215.731 86.9214 215.12 87.732 214.455 88.4978C213.814 89.1671 213.06 89.6551 212.39 90.3801C210.925 92.0951 209.6 93.9635 208.204 95.7622C206.809 97.5609 205.316 98.8576 203.948 100.461C202.33 102.343 200.767 104.282 199.051 106.038H203.976C204.758 107 204.199 106.038 204.088 105.634L203.837 104.435C203.571 103.194 203.334 101.939 203.013 100.698C202.362 98.4281 201.992 96.0867 201.911 93.7265C201.911 89.2368 194.934 89.2368 194.934 93.7265C195.081 96.9093 195.582 100.066 196.427 103.138C197.055 105.927 197.251 108.715 199.051 110.988C199.706 111.636 200.591 112 201.513 112C202.436 112 203.321 111.636 203.976 110.988C206.767 108.004 209.46 104.783 212.251 101.744C213.409 100.475 214.33 98.9552 215.432 97.7003C216.13 96.8637 216.828 95.8738 217.497 95.093C218 94.5492 218.642 94.1588 219.186 93.615C220.58 92.0297 221.853 90.3425 222.995 88.5675C223.916 87.3126 225.102 86.239 226.135 85.0817C227.216 83.9408 228.153 82.6717 228.925 81.3031C229.916 79.2825 230.115 76.9651 229.484 74.8055C229.065 73.0765 228.786 71.3058 228.409 69.5629C228.242 68.7542 227.991 67.8757 227.893 67.067C227.877 66.1775 227.784 65.2911 227.614 64.4178C227.319 63.416 226.68 62.5499 225.81 61.9712C224.94 61.3925 223.894 61.1381 222.856 61.2527C221.183 61.6015 219.652 62.4414 218.46 63.6649C214.748 66.7603 211.902 70.8456 208.818 74.5406C206.683 77.0922 204.381 79.5044 202.232 82.042C200.91 83.6757 199.479 85.2177 197.948 86.6573C196.282 87.917 195.088 89.6995 194.557 91.7187C194.328 92.6093 194.452 93.5542 194.905 94.355C195.358 95.1558 196.103 95.7502 196.985 96.0132L197.432 96.0969C198.323 96.3147 199.263 96.1831 200.06 95.7293C200.857 95.2754 201.449 94.5338 201.716 93.6568C201.956 92.7676 201.836 91.8195 201.382 91.0182C200.927 90.2169 200.175 89.6269 199.288 89.3762L199.455 89.418Z" fill="#004D2B"/>
<path d="M57.6986 28.6255C57.5033 29.2948 56.6939 29.5597 56.2055 30.0895C55.4381 30.8843 54.8102 31.8743 54.0986 32.6969C52.4521 34.4956 51.3776 36.7544 49.7311 38.5949C49.1031 39.306 48.3356 39.6546 48.1821 40.6725C48.1821 41.286 51.4752 47.17 52.745 49.4288C54.9916 53.4027 56.7638 57.6274 59.3173 61.4479C60.8383 63.7206 62.2476 65.9655 63.6709 68.308C64.6755 69.9812 66.0988 71.1942 67.243 72.7419C68.3427 71.8232 69.2486 70.6952 69.9082 69.4234C70.4803 68.5311 71.3035 67.8757 71.8338 66.9415C72.364 66.0073 72.5036 64.8919 73.1036 63.9438C73.7036 62.9956 74.1082 62.2705 74.6106 61.4339C75.2675 60.6452 75.7736 59.7425 76.1036 58.7708C76.0774 57.8601 75.8283 56.9696 75.3781 56.1774C74.5409 54.1138 73.2152 52.3011 72.378 50.2096C71.5408 48.1182 70.0338 46.18 69.1687 43.9352C68.6797 42.8564 67.9881 41.8813 67.1314 41.0629C66.5894 40.2887 66.1662 39.4381 65.8756 38.5392C64.8988 36.378 63.0848 34.8721 62.1778 32.7388C61.7317 31.7077 61.2285 30.7023 60.6708 29.727C60.2661 29.0438 59.987 27.273 59.1917 27.1335" fill="#8CA54F"/>
<path d="M54.685 26.8687C55.2431 26.4504 55.271 26.4225 54.7687 26.785C54.4063 27.0407 54.0614 27.3202 53.7361 27.6216C53.2829 28.1122 52.8588 28.629 52.4663 29.1693C51.6849 30.215 50.8058 31.1771 50.0244 32.2368C49.243 33.2965 48.629 34.4677 47.7778 35.5135C46.9267 36.5592 46.1033 37.089 45.4754 38.079C43.3545 41.4254 46.5499 45.5108 48.1686 48.411C50.5128 52.5939 52.564 56.9582 54.978 61.0854C56.4571 63.5952 58.1455 65.9795 59.6665 68.4614C61.2499 70.8019 62.9594 73.0547 64.7875 75.2099C66.0294 76.8134 68.3876 76.2556 69.7132 75.2099C70.7556 74.3274 71.6423 73.2763 72.3364 72.1005C73.0202 71.0548 73.9133 70.1903 74.5831 69.1446C75.0831 68.194 75.5076 67.2056 75.8528 66.1886C76.4426 65.0035 77.1237 63.866 77.8901 62.7865C78.713 61.75 79.273 60.5302 79.5227 59.2309C79.6328 57.7364 79.3133 56.2416 78.6018 54.9225C77.5413 52.4406 76.1878 50.0842 75.0296 47.6441C74.4993 46.5008 73.8156 45.4271 73.2016 44.3117C72.6754 43.1136 72.0838 41.9453 71.4295 40.8119C70.7458 40.0333 70.1163 39.2087 69.5457 38.3439C69.0428 37.1669 68.46 36.0256 67.8015 34.9279C67.1177 33.924 66.2945 32.9897 65.6805 31.93C65.0666 30.8704 64.7317 29.9362 64.2852 28.9602C63.8386 27.9841 63.7968 27.7331 63.0712 26.283C62.4579 25.1084 61.4202 24.2111 60.1688 23.7733C59.277 23.5335 58.3266 23.6554 57.5244 24.1124C56.7221 24.5693 56.1329 25.3244 55.885 26.2133C55.6593 27.102 55.7859 28.0434 56.2383 28.8411C56.6907 29.6387 57.434 30.2308 58.3129 30.4939L58.5641 30.6055L57.0292 29.6992C56.7222 28.9183 56.8617 29.5597 57.0292 29.6992C57.1988 30.2192 57.4039 30.727 57.6432 31.219C58.0478 32.0556 58.5222 32.8642 58.9269 33.7148C59.8895 35.5108 60.9808 37.235 62.1921 38.8738C62.8061 39.8219 63.0991 40.8537 63.5875 41.8437C64.1755 42.7743 64.8381 43.6556 65.5689 44.479C66.023 45.2005 66.4017 45.9668 66.6991 46.7657C67.2154 47.8254 67.8434 48.8293 68.4015 49.8611C69.476 51.7852 70.3272 53.807 71.3737 55.7451C71.4574 55.9125 72.769 58.6175 72.6992 58.6314C72.9086 57.8785 72.9086 57.725 72.6992 58.1573C72.5715 58.3905 72.4269 58.6142 72.2667 58.8266C71.9737 59.2728 71.6806 59.705 71.4016 60.2209C70.8289 61.1231 70.3027 62.0539 69.8248 63.0096C69.5097 63.9691 69.1177 64.9016 68.6527 65.7982C68.0527 66.6487 67.2573 67.4017 66.6991 68.2941C66.224 69.1098 65.6102 69.8364 64.8852 70.4413H69.8108C69.0573 69.4653 68.1783 68.6008 67.4108 67.6527C66.7061 66.6777 66.0585 65.6628 65.4712 64.613C64.0758 62.4936 62.6805 60.43 61.4247 58.2967C59.0386 54.3647 57.1409 50.1539 54.8803 46.1522C54.071 44.7578 53.2756 43.2659 52.5082 41.8019C52.3128 41.4394 52.1174 41.0768 51.936 40.7004L51.7407 40.2821C51.5873 39.9614 51.6012 39.9753 51.7407 40.2821C51.8384 40.5609 51.8942 40.6028 51.7407 40.2821C51.6012 39.808 51.5314 40.1008 51.5174 41.1605C51.2244 42.8476 51.6709 41.9413 52.3128 41.2581C53.8756 39.6128 54.9082 37.5492 56.3036 35.7784C57.0013 34.9139 57.699 33.9936 58.4106 33.1571C59.1222 32.3205 60.2385 31.7627 60.8246 30.5775C62.8339 26.5898 56.8199 23.0482 54.7966 27.0639L54.685 26.8687Z" fill="#004D2B"/>
<path d="M169.664 26.6455C169.455 27.3148 168.952 27.9004 168.673 28.5976C168.203 29.6438 167.848 30.7377 167.613 31.8603C166.984 34.5295 166.047 37.117 164.822 39.5709C162.785 44.0746 161.11 48.871 159.534 53.5141C158.948 55.2431 158.278 56.8884 157.72 58.6592C157.399 59.7049 156.98 60.2627 157.608 61.3224C158.211 62.0942 158.893 62.8 159.645 63.4278C161.459 65.2265 163.301 66.9275 165.017 68.7959C165.715 69.5489 166.483 70.1903 167.111 70.985C167.738 71.7798 168.366 73.4251 169.078 73.6342C170.822 71.6264 171.576 68.545 172.79 66.2025C173.671 64.4575 174.354 62.6196 174.827 60.7228C175.329 58.8405 176.013 56.9163 176.697 55.1455C177.101 54.044 177.408 52.8728 177.869 51.7852C178.329 50.6976 179.069 49.8331 179.515 48.8292C180.227 47.2118 180.911 45.4689 181.553 43.8096C182.023 42.9406 182.171 41.9332 181.969 40.9659C181.767 39.9987 181.229 39.134 180.45 38.5251C178.636 36.9077 177.297 34.872 175.594 33.157C173.892 31.442 171.408 29.8664 170.599 27.6913" fill="#F3BC61"/>
<path d="M166.301 25.7113C165.869 26.7291 165.283 27.7051 164.906 28.7509C164.529 29.7966 164.264 31.191 163.929 32.4319C163.199 34.7808 162.299 37.0735 161.236 39.292C159.129 44.2139 157.468 49.2754 155.654 54.3089C154.887 56.4282 153.506 59.0356 154.022 61.2805C154.538 63.5254 156.534 65.1149 158.208 66.7323C159.882 68.3497 161.752 70.2878 163.51 72.0865C164.906 73.4808 165.617 75.6281 167.431 76.6041C168.094 76.9784 168.86 77.1278 169.615 77.0297C170.37 76.9317 171.073 76.5915 171.618 76.0603C173.122 74.0388 174.321 71.8072 175.176 69.4373C176.055 67.3876 177.088 65.4216 177.771 63.2883C178.595 60.7507 179.334 58.199 180.227 55.6892C180.546 54.5613 180.966 53.4646 181.483 52.4126C182.116 51.3416 182.685 50.2334 183.185 49.0941C184.316 46.9256 185.11 44.5986 185.543 42.1922C185.596 40.9267 185.353 39.6663 184.832 38.5115C184.311 37.3568 183.527 36.3397 182.543 35.5413C180.855 33.8681 179.515 31.9021 177.799 30.2568C176.404 28.8624 174.548 27.7052 173.683 25.8228C173.211 25.0295 172.447 24.4532 171.554 24.2184C170.661 23.9836 169.712 24.1092 168.911 24.5679C168.128 25.0487 167.56 25.8126 167.326 26.7007C167.092 27.5888 167.21 28.5329 167.655 29.3365C168.624 31.1516 169.959 32.7467 171.576 34.0214C173.08 35.3976 174.48 36.8844 175.762 38.4693C176.515 39.3477 178.553 40.8257 178.553 41.7599C178.371 42.709 178.026 43.6195 177.534 44.451C177.177 45.4748 176.757 46.4759 176.278 47.4488C175.192 49.4097 174.259 51.4515 173.487 53.5559C172.706 55.8008 171.925 58.0317 171.269 60.3184C170.669 62.188 169.942 64.0141 169.092 65.7841C168.488 67.6715 167.639 69.4716 166.566 71.1384L170.752 70.5946C171.129 70.7898 171.073 71.0826 170.752 70.4691C170.602 70.1595 170.43 69.8612 170.236 69.5767C169.638 68.6998 168.95 67.8869 168.185 67.1506C166.566 65.5192 164.976 63.86 163.329 62.2565C162.576 61.5175 161.836 60.8622 161.069 60.0953C160.943 59.9698 160.552 59.4957 160.469 59.5236C160.469 60.5275 160.552 60.7646 160.692 60.2487C160.775 60.0116 160.859 59.7746 160.929 59.5376C161.641 57.4043 162.436 55.3546 163.162 53.1795C164.669 48.7595 166.301 44.4231 168.171 40.1425C169.172 38.0515 169.976 35.8715 170.571 33.631C171.148 31.5318 171.9 29.4844 172.818 27.5099C173.058 26.6189 172.936 25.6692 172.478 24.8675C172.021 24.0658 171.265 23.4771 170.376 23.2294C169.486 23.0038 168.544 23.1303 167.746 23.5824C166.948 24.0345 166.355 24.7772 166.092 25.6555L166.301 25.7113Z" fill="#004D2B"/>
<path d="M9.00017 105.23C7.55871 105.197 6.12823 105.488 4.81404 106.08C2.82525 107.191 1.30574 108.983 0.536272 111.125C-0.233196 113.268 -0.200629 115.616 0.627912 117.737C1.69614 120.273 3.66485 122.325 6.15559 123.499C8.64633 124.673 11.4833 124.885 14.1212 124.095C16.0496 123.461 17.7829 122.344 19.1553 120.849C20.5277 119.354 21.4933 117.533 21.9596 115.559C22.4259 113.584 22.3773 111.524 21.8184 109.574C21.2596 107.624 20.2092 105.849 18.7678 104.421C17.6971 103.447 16.4449 102.693 15.0825 102.203C13.7202 101.712 12.2746 101.495 10.8281 101.563C4.32566 102.093 2.23253 109.65 1.78601 115.102C1.60476 116.543 1.80888 118.007 2.3775 119.344C2.94612 120.681 3.85897 121.844 5.0233 122.715C6.13059 123.436 7.42014 123.828 8.74178 123.845C10.0634 123.862 11.3628 123.504 12.4886 122.812C14.3273 121.564 15.7587 119.804 16.605 117.751C17.545 115.771 18.0494 113.612 18.0841 111.421C18.0342 110.043 17.6639 108.696 17.0027 107.486C16.3415 106.276 15.4075 105.236 14.2747 104.449C13.5915 103.969 12.8095 103.649 11.986 103.511C11.1625 103.374 10.3186 103.423 9.51646 103.654C8.67105 103.936 7.90359 104.412 7.27588 105.044C6.64817 105.676 6.17772 106.446 5.90239 107.293C5.1693 109.493 5.1693 111.87 5.90239 114.07C6.92102 117.193 10.0885 119.828 13.4095 118.406C14.8844 117.628 15.9952 116.303 16.5038 114.715C17.0125 113.128 16.8785 111.405 16.1305 109.915C15.6118 109.04 14.8137 108.365 13.8646 107.998C12.9155 107.632 11.8706 107.594 10.8979 107.893C10.0739 108.197 9.34138 108.706 8.76988 109.372C8.19838 110.038 7.80688 110.839 7.63265 111.699C7.35896 112.674 7.26447 113.689 7.35364 114.697C7.37437 115.532 7.68951 116.333 8.24355 116.958C8.79758 117.583 9.55485 117.992 10.3816 118.113C11.2139 118.235 12.062 118.049 12.7663 117.589C13.4705 117.129 13.9822 116.428 14.2049 115.618C14.4383 114.698 14.4044 113.73 14.1072 112.829C13.8812 112.183 13.491 111.607 12.9748 111.157C12.4586 110.707 11.8343 110.399 11.163 110.263C10.7205 110.142 10.2583 110.108 9.80279 110.165C9.34731 110.221 8.90742 110.367 8.50833 110.594C8.10925 110.82 7.75881 111.123 7.47688 111.485C7.19494 111.847 6.98706 112.261 6.86521 112.703C6.74335 113.146 6.7099 113.607 6.76667 114.063C6.82344 114.518 6.96933 114.957 7.19608 115.356C7.42283 115.755 7.72599 116.105 8.0882 116.387C8.45042 116.668 8.86458 116.876 9.30712 116.998L9.80943 117.123L7.36752 114.683C7.59078 115.269 7.61871 114.962 7.47917 113.763L14.3305 114.697C14.3166 114.46 14.3166 114.223 14.3305 113.986C14.3305 113.833 14.3305 113.679 14.3305 113.526C14.3305 114.544 14.2328 114.14 14.3305 113.791C14.4282 113.442 14.791 112.689 14.3305 113.693C14.5119 113.345 14.7212 113.317 14.0932 113.944C13.783 114.241 13.4034 114.455 12.989 114.567C12.5746 114.679 12.1387 114.685 11.7212 114.586C11.2903 114.473 10.8968 114.249 10.5807 113.935C10.2646 113.622 10.037 113.231 9.92108 112.801C10.0746 113.261 9.75364 113.136 9.92108 112.452C9.91409 112.559 9.91409 112.666 9.92108 112.773C9.92108 113.387 10.1723 111.895 9.92108 112.452C9.86054 112.615 9.8139 112.783 9.78158 112.954L9.97695 112.522C9.92746 112.639 9.8667 112.751 9.79555 112.857L10.1304 112.411C9.87926 112.662 9.9909 112.564 10.4932 112.146C10.9956 111.727 11.2746 111.853 10.9397 111.936L11.5956 111.853C12.4607 111.853 12.3909 112.006 11.9862 111.853L12.5444 112.076C12.2514 111.895 12.3491 111.978 12.8514 112.341C12.7448 112.206 12.6231 112.085 12.4886 111.978L12.8095 112.383C12.7362 112.271 12.6708 112.155 12.6142 112.034C12.2234 111.421 12.8514 112.787 12.7537 112.397C12.7537 112.285 12.67 112.174 12.6421 112.062C12.5305 111.699 12.4886 111.323 12.4049 110.947C12.6561 112.174 12.4049 110.947 12.4049 110.612C12.4049 110.277 12.4049 109.998 12.4049 109.692C12.4049 110.584 12.2933 110.305 12.4049 109.915C12.4049 109.747 12.4886 109.594 12.5304 109.427C12.6979 108.813 12.1537 110.235 12.4327 109.678C12.5723 109.399 12.9351 109.148 12.2235 109.915C12.6282 109.482 11.456 110.389 11.9723 110.11L11.4699 110.333C11.8327 110.235 11.6932 110.263 11.0513 110.333L10.4653 110.235L10.8002 110.333L10.2979 110.124L10.6188 110.305C10.1443 110.305 10.0746 109.803 10.4374 110.18C10.5418 110.307 10.6536 110.428 10.7722 110.542C11.2746 111.044 10.3676 109.859 10.7722 110.472L11.177 111.156C11.5118 111.755 10.9398 110.361 11.1072 111.002C11.1332 111.134 11.1657 111.264 11.2048 111.393C11.3164 111.713 11.0932 111.95 11.2048 110.891C11.2048 111.016 11.2048 111.156 11.2048 111.281C11.2255 111.564 11.2255 111.849 11.2048 112.132C11.2048 112.271 11.2048 112.425 11.2048 112.578C11.2048 111.602 11.3025 111.923 11.2048 112.285C11.0801 112.947 10.9076 113.6 10.6885 114.237C10.5769 114.544 10.1025 115.408 10.6885 114.391C10.4932 114.753 10.3397 115.129 10.1444 115.478C9.94904 115.827 9.82339 116.008 9.64199 116.273C9.46059 116.538 9.18155 116.733 9.85133 116.036C9.7397 116.147 9.64205 116.273 9.53042 116.398C9.41879 116.524 9.01408 116.803 8.86058 117.04C9.26524 116.426 9.48855 116.621 9.08389 116.831C8.95384 116.892 8.82795 116.962 8.70711 117.04C9.11177 116.58 9.51648 116.789 9.01414 116.886C8.8774 116.911 8.74221 116.943 8.60943 116.984C9.16758 116.719 9.48853 116.886 8.97224 116.9C8.45595 116.914 8.97224 116.663 9.32108 116.97C9.22313 116.931 9.11953 116.907 9.01414 116.9C8.45599 116.691 9.72572 117.346 9.12571 116.9L8.95827 116.803C8.65129 116.594 8.735 116.663 9.20943 116.998L8.9443 116.747C9.29315 117.207 9.36296 117.305 9.16761 117.012C9.08761 116.845 8.99912 116.682 8.90249 116.524C9.36296 117.151 9.11175 117.123 9.02802 116.747C8.99903 116.596 8.96182 116.447 8.91645 116.301C8.74901 115.604 8.91645 117.179 8.91645 116.468C8.89562 116.087 8.89562 115.706 8.91645 115.325V114.767C8.79087 115.562 8.91645 114.153 8.91645 114.767C9.06583 113.718 9.28014 112.68 9.55827 111.658C9.68386 111.225 9.83742 110.821 9.97695 110.403C10.27 109.58 9.61416 111.03 9.97695 110.277C10.1444 109.998 10.2839 109.706 10.4513 109.427C10.6598 109.146 10.8509 108.852 11.0235 108.548C10.7305 109.232 10.6746 108.981 10.9536 108.688C11.2327 108.395 11.2188 108.451 11.3165 108.325C10.8839 108.911 10.7583 108.73 11.1351 108.492C11.5118 108.255 11.6374 108.492 10.8699 108.576L11.3304 108.451C11.9025 108.283 10.4234 108.451 11.0793 108.451H11.8188C12.1955 108.451 12.0839 108.451 11.5118 108.451C11.9416 108.582 12.3799 108.685 12.8235 108.757C12.9586 108.816 13.0986 108.863 13.2421 108.897C12.8514 108.716 12.5025 108.785 13.2421 108.897C13.6328 109.078 13.6189 109.106 13.8003 109.218L14.1491 109.469C13.7305 109.134 13.6607 109.078 13.9398 109.315C14.2189 109.552 14.5398 110.068 14.6794 110.082L14.3863 109.706L14.6375 110.054C14.7491 110.249 14.8607 110.431 14.9584 110.626L15.0561 110.821C15.2096 111.156 15.1816 111.086 14.9723 110.598C15.0223 110.802 15.0876 111.003 15.1677 111.197C15.2393 111.593 15.3325 111.984 15.4468 112.369C15.1398 111.63 15.4468 111.811 15.4468 112.229C15.4468 112.438 15.4468 112.634 15.4468 112.829C15.4468 113.024 15.3631 113.624 15.4468 114C15.4468 114 15.6143 113.094 15.4468 113.638L15.3212 114.209C15.3212 114.391 15.2235 114.586 15.1677 114.767L15.0421 115.116C14.9026 115.469 14.9445 115.371 15.1677 114.823C15.0023 115.092 14.8532 115.372 14.7212 115.659C14.6031 115.81 14.4958 115.968 14.4003 116.133C14.6654 115.478 14.777 115.687 14.4003 116.022C14.1123 116.272 13.8375 116.538 13.577 116.817C13.9677 116.273 14.0793 116.468 13.7304 116.677L13.1444 117.04C12.9552 117.111 12.773 117.2 12.6002 117.305C13.1118 117.091 13.1956 117.049 12.8514 117.179C12.7208 117.234 12.5853 117.276 12.4467 117.305L11.8327 117.472C11.2048 117.597 11.5676 117.472 11.9444 117.472C11.4979 117.472 10.9816 117.542 10.549 117.472H9.96299C10.256 117.472 11.0095 117.472 9.96299 117.472C9.66996 117.472 9.22337 117.207 8.84662 117.109C9.7257 117.333 9.29319 117.305 8.98621 117.109C8.67922 116.914 8.53964 116.858 8.33033 116.719L8.17686 116.607C7.88383 116.398 7.98151 116.468 8.44199 116.817C8.316 116.677 8.17571 116.551 8.02339 116.44L7.63265 116.022C8.12103 116.761 7.24194 115.604 7.63265 116.022L7.35364 115.52C7.01875 114.948 7.5769 116.245 7.35364 115.645C7.35364 115.464 7.22806 115.269 7.1862 115.088C7.14645 114.96 7.11834 114.83 7.1024 114.697C7.1024 114.321 7.1024 114.432 7.1024 115.004C7.17216 114.795 6.89309 113.61 7.1024 113.456C7.3117 113.303 6.921 114.251 7.1024 113.707C7.13133 113.566 7.16863 113.426 7.21405 113.289C7.33963 112.926 7.3117 113.01 7.1024 113.512C7.23119 113.332 7.34335 113.141 7.43736 112.94C7.64666 112.648 7.60475 112.689 7.29777 113.094C7.40216 112.966 7.51398 112.845 7.63265 112.731L8.12108 112.243C8.55365 111.797 7.46523 112.62 8.00942 112.327C8.55362 112.034 8.49783 112.243 7.77223 112.327C7.9863 112.291 8.19653 112.235 8.40017 112.16C7.60481 112.452 7.75826 112.229 8.19083 112.16H9.05596C9.98115 112.16 10.8684 111.792 11.5227 111.139C12.1769 110.485 12.5444 109.598 12.5444 108.674C12.5444 107.749 12.1769 106.863 11.5227 106.209C10.8684 105.555 9.98115 105.188 9.05596 105.188L9.00017 105.23Z" fill="#004D2B"/>
<path d="M13.7865 115.171C13.1028 119.075 15.9354 121.627 18.5587 124.053C19.8564 125.252 21.0007 126.619 22.3542 127.762C24.0575 129.196 25.8622 130.506 27.7543 131.68C31.6411 133.955 35.7748 135.779 40.0754 137.118C42.1964 137.843 44.2616 138.652 46.3965 139.251C47.2756 139.502 48.1407 139.823 49.0198 140.074C49.3968 140.222 49.7838 140.343 50.178 140.436H50.0803C50.778 140.883 50.5966 140.576 49.5361 139.502C50.7501 143.825 57.4758 141.984 56.2758 137.648C55.2432 133.981 50.5826 133.228 47.4011 132.363C45.336 131.805 43.3685 130.969 41.3313 130.258C39.2517 129.618 37.2189 128.835 35.2474 127.915C31.7058 126.263 28.4545 124.05 25.6193 121.362C24.5588 120.316 23.5541 119.257 22.4518 118.239C21.9218 117.76 21.4187 117.253 20.9448 116.719C20.6937 116.426 20.8332 116.384 20.5541 116.175C20.275 115.966 20.7215 115.84 20.5541 117.081C20.772 116.191 20.6404 115.251 20.1862 114.455C19.7321 113.659 18.9898 113.067 18.1122 112.801C17.2223 112.561 16.2735 112.681 15.4716 113.135C14.6696 113.589 14.0792 114.341 13.8284 115.227L13.7865 115.171Z" fill="#004D2B"/>
<path d="M194.125 51.6459C194.194 53.2613 193.634 54.8407 192.562 56.0519C191.91 56.8546 191.201 57.6095 190.441 58.3107C189.478 59.2171 188.152 60.0676 188.152 61.5456C188.152 63.7905 189.924 65.2266 191.459 66.5512C191.776 66.755 192.048 67.0206 192.259 67.3321C192.47 67.6436 192.616 67.9945 192.687 68.3638C192.961 69.5147 193.013 70.7072 192.841 71.8775H198.073C197.928 70.9654 197.965 70.0334 198.183 69.1358C198.401 68.2382 198.796 67.3929 199.343 66.6488C200.615 65.1366 202.016 63.7371 203.529 62.4659C203.807 62.1812 204.017 61.8374 204.143 61.4602C204.269 61.0831 204.308 60.6823 204.257 60.2879C204.206 59.8936 204.066 59.5159 203.848 59.1832C203.631 58.8504 203.34 58.5712 202.999 58.3665C202.609 58.1777 202.239 57.9487 201.897 57.6833C201.676 57.4903 201.475 57.2754 201.297 57.0419C201.45 57.2371 201.297 56.9164 201.213 56.8746C200.843 56.1788 200.598 55.4238 200.488 54.6437C200.362 52.6145 200.362 50.5796 200.488 48.5505C200.488 45.1762 195.269 45.1762 195.255 48.5505C195.078 51.1694 195.167 53.7995 195.52 56.4005C195.788 57.7751 196.363 59.0717 197.201 60.1941C198.039 61.3165 199.12 62.2359 200.362 62.8841L199.832 58.7709C197.919 60.3729 196.2 62.1933 194.711 64.1948C193.246 66.4582 192.6 69.1549 192.883 71.8357C192.931 72.4961 193.228 73.1138 193.713 73.5646C194.198 74.0154 194.836 74.266 195.499 74.266C196.162 74.266 196.8 74.0154 197.285 73.5646C197.77 73.1138 198.067 72.4961 198.115 71.8357C198.533 69.164 197.947 66.4322 196.469 64.1669C195.867 63.4235 195.178 62.7541 194.418 62.173C194.069 61.8802 193.762 61.5316 193.413 61.2388C193.594 61.3922 193.413 61.2388 193.413 61.1412C193.594 61.5456 193.413 60.8903 193.413 60.8066L192.743 63.3582C194.611 61.7897 196.267 59.9852 197.669 57.99C199.153 55.6861 199.73 52.914 199.287 50.2097C199.102 49.544 198.66 48.9785 198.059 48.6364C197.458 48.2943 196.746 48.2033 196.078 48.3832C195.417 48.5813 194.858 49.0268 194.517 49.6269C194.176 50.227 194.081 50.9353 194.25 51.604L194.125 51.6459Z" fill="#004D2B"/>
<path d="M151.97 32.4042C152.527 32.5241 153.091 32.6033 153.659 32.6412C154.244 32.6641 154.829 32.6173 155.403 32.5017C155.569 32.4747 155.733 32.4327 155.891 32.3763C156.246 32.2573 156.587 32.1032 156.91 31.9161C157.221 31.7143 157.507 31.4755 157.761 31.205C157.953 30.9847 158.131 30.7518 158.292 30.5079C158.428 30.2426 158.544 29.9676 158.64 29.6852C158.683 29.6022 158.711 29.5126 158.724 29.4203C158.771 29.1855 158.804 28.948 158.822 28.7092V28.3606C158.816 28.1305 158.754 27.9054 158.64 27.7053C158.585 27.5548 158.515 27.41 158.431 27.273C158.204 26.9336 157.957 26.6078 157.692 26.297C157.334 25.8929 156.926 25.5367 156.478 25.2373C156.36 25.1542 156.234 25.0841 156.101 25.0282C155.796 24.872 155.479 24.7414 155.152 24.6378C154.813 24.5549 154.467 24.499 154.119 24.4705H153.659C153.317 24.4964 152.977 24.5429 152.64 24.6099L152.305 24.7075C151.877 24.8563 151.47 25.0577 151.091 25.307C150.706 25.5535 150.354 25.8488 150.045 26.1855C149.732 26.5191 149.461 26.8889 149.236 27.287C149.124 27.4845 149.026 27.6895 148.942 27.9005C148.859 28.1096 148.761 28.3188 148.691 28.5419C148.661 28.6519 148.638 28.7636 148.622 28.8765C148.552 29.2118 148.51 29.5522 148.496 29.8944C148.489 30.0058 148.489 30.1175 148.496 30.229C148.523 30.5677 148.579 30.9036 148.663 31.2329C148.755 31.5504 148.877 31.8585 149.026 32.1532C149.082 32.2538 149.142 32.3516 149.208 32.446C149.576 32.9984 150.05 33.4723 150.603 33.8403C150.716 33.9233 150.837 33.9934 150.966 34.0495L151.747 34.3841H151.859C152.097 34.4424 152.34 34.4798 152.584 34.4957L153.282 34.398C153.572 34.2963 153.856 34.18 154.133 34.0495L154.398 33.8961C154.643 33.7352 154.876 33.5582 155.096 33.3662C155.165 33.3047 155.23 33.2395 155.291 33.171C155.483 32.954 155.656 32.7207 155.808 32.4739C155.957 32.2081 156.079 31.9278 156.171 31.6373C156.2 31.565 156.223 31.4904 156.24 31.4142C156.309 31.0976 156.352 30.7758 156.366 30.4521C156.373 30.0303 156.331 29.6092 156.24 29.1972C156.165 28.8626 156.001 28.5544 155.766 28.3049C155.592 28.0176 155.341 27.7855 155.04 27.6356C154.749 27.4428 154.412 27.332 154.064 27.3149C153.721 27.2244 153.36 27.2244 153.017 27.3149C152.359 27.4937 151.797 27.9245 151.454 28.514L151.189 29.1414C151.075 29.5992 151.075 30.0779 151.189 30.5357V30.6473L151.091 29.9501C151.119 30.149 151.119 30.3508 151.091 30.5497L151.189 29.8525C151.165 29.9846 151.132 30.115 151.091 30.2429L151.343 29.6155C151.301 29.7248 151.244 29.8279 151.175 29.9222L151.58 29.3924C151.5 29.4981 151.406 29.592 151.301 29.6713L151.831 29.2669C151.705 29.3673 151.563 29.4472 151.412 29.504L152.04 29.239C151.971 29.279 151.895 29.3073 151.817 29.3227H153.212C153.131 29.301 153.052 29.2731 152.975 29.239L153.603 29.504C153.407 29.4244 153.223 29.3163 153.059 29.1832L153.589 29.6016C153.464 29.5044 153.351 29.392 153.254 29.2669L153.659 29.7967C153.562 29.6735 153.482 29.5375 153.422 29.3924L153.687 30.0059C153.619 29.85 153.572 29.686 153.547 29.5179L153.645 30.2151C153.617 30.0162 153.617 29.8144 153.645 29.6155L153.547 30.3127C153.587 30.0544 153.657 29.8016 153.757 29.5597L153.491 30.1732C153.609 29.9208 153.754 29.6823 153.924 29.4621L153.505 29.992C153.671 29.7735 153.863 29.5767 154.077 29.4063L153.547 29.8247C153.736 29.6781 153.942 29.5562 154.161 29.4621L153.533 29.727C153.716 29.6501 153.909 29.5985 154.105 29.5736L153.408 29.6573C153.593 29.6363 153.78 29.6363 153.966 29.6573L153.268 29.5597C153.45 29.5848 153.628 29.6316 153.798 29.6992L153.171 29.4482C153.381 29.537 153.578 29.6543 153.757 29.7967L153.226 29.3785C153.476 29.5693 153.696 29.7947 153.882 30.0478L153.477 29.5179C153.592 29.6656 153.699 29.8192 153.798 29.978L153.533 27.9563C153.509 28.0655 153.476 28.1727 153.436 28.2769L153.701 27.6495C153.644 27.7657 153.579 27.8776 153.505 27.9841L153.91 27.4543C153.832 27.5485 153.743 27.6328 153.645 27.7053L154.175 27.3009C154.057 27.384 153.931 27.4542 153.798 27.5101L154.412 27.2452C154.195 27.3413 153.965 27.4025 153.729 27.4264L154.426 27.3288C153.963 27.3942 153.494 27.3942 153.031 27.3288L153.715 27.4125L153.171 27.3288C152.492 27.1493 151.77 27.2445 151.161 27.5937C150.859 27.7469 150.604 27.978 150.422 28.263C150.195 28.5171 150.037 28.824 149.961 29.1554C149.868 29.4907 149.844 29.8413 149.889 30.1862C149.935 30.5312 150.049 30.8634 150.226 31.1632C150.394 31.4565 150.619 31.7136 150.887 31.9195C151.156 32.1253 151.462 32.2758 151.789 32.3623L151.97 32.4042Z" fill="#004D2B"/>
<path d="M22.7447 31.8883C22.7447 33.6312 23.2609 35.8203 22.5493 37.4656C21.8377 39.1109 19.4935 39.8359 17.9725 40.561C15.6422 41.6764 16.7725 45.5806 19.3679 45.4272C19.7568 45.3744 20.151 45.3744 20.54 45.4272C20.7207 45.4635 20.898 45.5148 21.0702 45.5806C20.7493 45.4551 21.1958 45.6642 21.2935 45.72C21.542 45.8561 21.7641 46.0355 21.9493 46.2499C22.3016 46.6113 22.6324 46.9931 22.94 47.3932C24.0982 48.927 23.847 50.4607 23.847 52.4546H29.0797C29.0027 50.8323 29.39 49.2218 30.196 47.8115C30.5163 47.0687 30.9921 46.403 31.5914 45.8594C32.1077 45.3714 31.2286 46.0407 31.8146 45.6782C31.8844 45.6782 32.5402 45.3156 32.01 45.5248C32.218 45.4451 32.4329 45.3844 32.6519 45.3435C32.2054 45.4412 32.6519 45.3435 32.8751 45.3435C35.7636 45.4272 36.5031 40.7701 33.5728 40.2124C32.7198 39.958 31.9366 39.5115 31.2834 38.9072C30.6303 38.3029 30.1246 37.5569 29.8053 36.7266C28.7029 34.6072 28.996 32.1114 29.0099 29.755C29.0099 26.3946 23.7912 26.3807 23.7772 29.755C23.7633 33.1292 23.7772 36.4896 25.4238 39.5989C26.0869 40.9557 27.0325 42.1552 28.1972 43.1171C29.362 44.079 30.7191 44.781 32.1774 45.1762L32.8751 40.0311C27.1122 39.8638 23.3865 47.3095 23.7772 52.343C23.8255 53.0034 24.1222 53.6211 24.6075 54.0719C25.0929 54.5227 25.7309 54.7733 26.3936 54.7733C27.0562 54.7733 27.6944 54.5227 28.1797 54.0719C28.665 53.6211 28.9616 53.0034 29.0099 52.343C29.0752 50.8335 29.0005 49.3212 28.7867 47.8254C28.4019 46.2703 27.6399 44.8337 26.568 43.6425C25.7472 42.4948 24.652 41.5708 23.3822 40.9546C22.1123 40.3384 20.7083 40.0497 19.2981 40.1148L20.6098 44.981C23.0936 43.8098 25.7587 42.6106 27.0704 40.0311C28.382 37.4516 28.0052 34.6491 27.9773 31.8325C27.9773 28.4722 22.7028 28.4583 22.7447 31.8325V31.8883Z" fill="#004D2B"/>
<path d="M139.384 9.49541C140.141 9.25618 140.817 8.81354 141.339 8.21593C141.861 7.61832 142.208 6.8888 142.343 6.10721C142.44 5.64708 142.51 5.18695 142.608 4.71288C142.608 4.60134 142.831 4.23883 142.608 4.60136C142.384 4.96388 142.608 4.60136 142.608 4.5177C142.608 4.43404 142.203 4.93598 142.468 4.71288C141.98 5.14512 142.231 4.89413 142.468 4.78258L138.617 3.22095C138.729 3.59741 138.617 3.03968 138.617 2.99785C138.603 3.10899 138.603 3.22137 138.617 3.33252C138.631 3.57865 138.631 3.82537 138.617 4.07151C138.582 4.57286 138.582 5.07601 138.617 5.57736C138.616 6.44275 138.885 7.28701 139.384 7.99373C139.884 8.70044 140.591 9.23486 141.408 9.52332C142.544 9.76716 143.718 9.76716 144.854 9.52332H144.659H144.994H145.622C145.119 9.36995 146.18 9.52332 145.622 9.52332C145.365 9.41913 145.133 9.2623 144.941 9.06296C144.749 8.86362 144.6 8.62618 144.505 8.36601V6.97168C144.659 6.6231 144.687 6.56735 144.505 6.81833C144.775 6.49299 144.817 6.43722 144.631 6.65102C144.338 6.92988 145.175 6.40004 144.561 6.65102C145.315 6.31638 144.659 6.65102 144.477 6.65102L143.864 6.79041C142.76 6.96121 141.728 7.44516 140.891 8.18474C140.405 8.72246 140.044 9.3621 139.837 10.0569C139.629 10.7516 139.579 11.484 139.691 12.2004C139.691 12.6466 139.817 13.0928 139.873 13.5947C139.873 13.7202 140.012 14.6684 139.873 14.013C139.873 14.2919 139.873 14.5708 139.873 14.8636C139.873 15.1564 139.873 15.1285 139.873 14.766C139.848 14.8949 139.811 15.0211 139.761 15.1424L144.143 13.9851C143.905 13.762 143.696 13.539 143.487 13.3019C143.278 13.0649 143.654 13.6365 143.389 13.1485C143.291 12.9812 143.166 12.8139 143.082 12.6326C142.998 12.4514 142.747 11.8797 142.873 12.2562C142.998 12.6327 142.761 11.8937 142.747 11.8379C142.733 11.7821 142.622 11.4475 142.566 11.2523C142.426 10.7503 142.315 10.2484 142.189 9.74642C142.03 9.19736 141.699 8.71383 141.244 8.36733C140.79 8.02083 140.235 7.82974 139.663 7.82224C138.183 7.84015 136.746 8.32848 135.561 9.21657C135.071 9.55873 134.563 9.87519 134.04 10.1647L133.705 10.346C134.166 10.2344 133.454 10.4854 133.705 10.346C133.705 10.346 133.384 10.4715 133.342 10.4436C133.705 10.4436 133.775 10.4436 133.566 10.4436H133.287L135.142 14.9194C135.253 14.7928 135.374 14.6761 135.505 14.5708C135.282 14.752 135.421 14.6405 135.575 14.5708L136.51 13.9712C137.188 13.5259 137.803 12.9912 138.338 12.3817C138.693 12.015 138.964 11.5759 139.132 11.0944C139.301 10.613 139.363 10.1008 139.315 9.59302C139.195 8.84779 138.893 8.14364 138.436 7.54336C137.667 6.47971 136.619 5.64957 135.408 5.14512C134.947 4.92203 134.459 4.71289 134.012 4.46192L133.719 4.28065C133.719 4.28065 134.208 4.69894 133.803 4.28065C133.496 4.12727 133.677 4.1691 133.803 4.28065C134.11 4.43402 133.887 4.39218 133.803 4.14121L131.04 7.80829C131.361 7.86119 131.678 7.93573 131.989 8.03138L132.394 8.15687C132.059 8.01744 132.087 8.03138 132.394 8.15687C132.728 8.2963 133.328 8.7146 133.789 9.0353C134.99 10.0241 136.437 10.6697 137.975 10.9037C138.549 10.9053 139.108 10.7177 139.565 10.3698C140.021 10.0219 140.35 9.53323 140.501 8.97951L140.612 8.40784C140.723 8.0707 140.765 7.71454 140.734 7.36094C140.703 7.00735 140.601 6.66367 140.433 6.35077C140.265 6.03788 140.036 5.76229 139.758 5.54068C139.481 5.31906 139.161 5.15606 138.819 5.06155C138.477 4.96704 138.119 4.943 137.767 4.99087C137.415 5.03875 137.076 5.15753 136.772 5.34005C136.467 5.52257 136.202 5.765 135.994 6.05266C135.786 6.34032 135.639 6.66721 135.561 7.01351L135.449 7.59915L137.975 5.67497C138.268 5.67497 138.268 5.67497 137.975 5.67497C138.24 5.80046 138.24 5.80046 137.975 5.67497C137.71 5.54948 137.431 5.34034 137.18 5.15908C136.929 4.97782 136.315 4.51767 135.868 4.22486C134.855 3.52364 133.704 3.04812 132.491 2.83054C131.986 2.69335 131.451 2.70887 130.954 2.87513C130.458 3.04139 130.021 3.35097 129.7 3.76475C129.391 4.17737 129.207 4.67005 129.17 5.18418C129.133 5.69832 129.244 6.21225 129.491 6.66493C130.328 8.60304 132.589 9.21657 134.277 10.1787C134.682 10.4157 133.956 9.78824 134.277 10.2623C134.403 10.4017 134.361 10.332 134.124 10.0531C134.221 10.1786 134.305 10.3181 134.389 10.4436C134.455 10.5427 134.515 10.6451 134.57 10.7503C134.4 10.4582 134.31 10.1263 134.31 9.78825C134.31 9.4502 134.4 9.1182 134.57 8.82616C135.017 8.44969 134.375 9.20263 134.57 8.82616C134.487 8.89588 133.775 9.53726 134.166 9.2584L133.538 9.66272C132.853 10.0585 132.212 10.5259 131.626 11.057C131.276 11.4291 131.042 11.8941 130.95 12.3963C130.859 12.8984 130.914 13.4163 131.11 13.8876C131.306 14.3589 131.634 14.7636 132.055 15.053C132.476 15.3424 132.971 15.5042 133.482 15.5189C134.988 15.496 136.45 15.009 137.668 14.1246C138.17 13.8178 138.645 13.4692 139.161 13.1904C139.277 13.1384 139.389 13.0778 139.496 13.0091C139.008 13.1346 139.747 12.8558 139.496 13.0091L139.831 12.9255C139.203 12.9255 139.831 12.9952 139.831 12.9255L137.305 11.0013C137.744 13.4586 138.888 15.7355 140.598 17.5546C140.925 17.8704 141.328 18.0968 141.768 18.2121C142.208 18.3273 142.67 18.3275 143.11 18.2127C143.551 18.0979 143.954 17.8719 144.281 17.5564C144.608 17.2409 144.849 16.8466 144.98 16.4113C145.266 15.2056 145.266 13.9499 144.98 12.7442C144.98 12.5211 144.98 12.312 144.882 12.0889C144.798 11.559 144.882 12.4235 144.882 11.9216C144.882 11.7124 144.882 11.5032 144.882 11.2941C144.994 11.0292 144.882 11.0849 144.882 11.2941C144.659 11.7403 145.175 10.9873 144.882 11.4475C144.788 11.6215 144.676 11.7851 144.547 11.9355C144.784 11.7542 144.631 11.8518 144.547 11.9355C144.31 12.1167 144.98 11.7821 144.408 12.0052C143.836 12.2283 144.408 12.0052 144.561 12.0052L145.064 11.8797C145.89 11.7375 146.69 11.4695 147.436 11.085C148.46 10.4936 149.222 9.53735 149.571 8.40784C149.747 7.64005 149.639 6.83457 149.267 6.14006C148.895 5.44555 148.284 4.90893 147.547 4.62923C146.734 4.30276 145.85 4.18765 144.98 4.2946C144.436 4.2946 143.891 4.43403 143.361 4.50374C143.933 4.50374 143.18 4.50374 143.361 4.50374H142.831H142.622C142.357 4.50374 143.166 4.60135 142.943 4.50374C142.719 4.40614 143.347 4.69894 143.305 4.67106C143.264 4.64317 143.738 5.0754 143.487 4.79654C143.589 4.92938 143.683 5.06917 143.766 5.21486C143.85 5.41007 143.863 5.42401 143.766 5.29852C143.668 5.17303 143.766 5.18697 143.766 5.38218C143.766 5.71681 143.766 5.57738 143.766 5.38218C143.766 5.04754 143.766 5.13117 143.766 5.00568C143.889 3.94177 143.851 2.86543 143.654 1.81271C143.539 1.43285 143.341 1.08343 143.073 0.790068C142.806 0.496703 142.476 0.266803 142.108 0.117118C141.741 -0.0325679 141.344 -0.0982188 140.947 -0.0750446C140.551 -0.0518703 140.165 0.0595106 139.817 0.251027C139.185 0.589088 138.64 1.06813 138.224 1.65093C137.808 2.23372 137.531 2.90458 137.417 3.61136C137.319 4.02965 137.277 4.47586 137.166 4.89415C137.166 4.89415 137.04 5.21485 137.068 5.24273C137.096 5.27062 137.347 4.65711 137.166 4.97781C136.984 5.2985 137.431 4.72684 137.515 4.64318C137.598 4.55953 137.738 4.47586 137.612 4.54557C137.487 4.61529 137.612 4.54558 137.919 4.42009C137.588 4.51164 137.279 4.66739 137.008 4.87845C136.738 5.08951 136.512 5.35177 136.343 5.65021C136.174 5.94865 136.065 6.27744 136.023 6.61783C135.981 6.95821 136.007 7.30349 136.098 7.634C136.19 7.9645 136.346 8.27373 136.557 8.54404C136.768 8.81435 137.031 9.04045 137.329 9.20942C137.628 9.37838 137.957 9.48692 138.298 9.52881C138.638 9.57071 138.984 9.54513 139.315 9.45358L139.384 9.49541Z" fill="#004D2B"/>
<path d="M84.0435 107.823C84.1549 109.639 84.9122 111.355 86.1784 112.662C87.194 113.834 88.497 114.723 89.9598 115.241C90.1548 115.304 90.356 115.346 90.5599 115.367C91.1169 115.471 91.6817 115.527 92.2483 115.534C93.0443 115.528 93.8347 115.401 94.5925 115.157C95.9231 114.721 97.1389 113.992 98.1507 113.024C98.9656 112.319 99.5774 111.409 99.9229 110.389C100.16 109.498 100.039 108.55 99.5848 107.747C99.1311 106.944 98.3809 106.351 97.4949 106.094C96.6018 105.865 95.6545 105.992 94.8528 106.447C94.0511 106.902 93.4575 107.65 93.1971 108.534L93.546 107.698C93.4663 107.853 93.3679 107.998 93.253 108.13L93.8111 107.419C93.4958 107.813 93.1352 108.169 92.7367 108.479L93.4344 107.935C93.071 108.218 92.6723 108.452 92.2483 108.632L93.0856 108.283C92.6723 108.448 92.2416 108.565 91.8018 108.632L92.7367 108.506C92.3195 108.555 91.898 108.555 91.4808 108.506L92.4157 108.632C92.1487 108.597 91.8865 108.531 91.6343 108.437L92.4716 108.785C92.1119 108.616 91.7705 108.411 91.4529 108.172L92.1646 108.716C91.6794 108.349 91.2474 107.918 90.8808 107.433L91.4251 108.144C91.162 107.805 90.9416 107.435 90.7692 107.042L91.118 107.879C91.0209 107.651 90.9507 107.412 90.9088 107.168L91.0343 108.102C91.0274 108.005 91.0274 107.907 91.0343 107.809C91.0158 106.888 90.6523 106.008 90.0157 105.341C89.3544 104.697 88.4696 104.332 87.5459 104.323C86.624 104.334 85.7431 104.705 85.0912 105.356C84.4393 106.008 84.0683 106.888 84.0574 107.809L84.0435 107.823Z" fill="#004D2B"/>
<path d="M133.915 112.466C135.242 113.695 136.868 114.555 138.631 114.962C140.617 115.374 142.682 115.149 144.533 114.321C146.878 113.261 148.119 111.044 149.878 109.315C150.526 108.66 150.89 107.776 150.89 106.854C150.89 105.933 150.526 105.048 149.878 104.393C149.214 103.754 148.329 103.397 147.408 103.397C146.487 103.397 145.601 103.754 144.938 104.393C143.71 105.592 142.803 107.098 141.45 108.186L142.147 107.642C141.797 107.907 141.418 108.132 141.017 108.311L141.854 107.962C141.448 108.112 141.027 108.219 140.598 108.283L141.533 108.158C140.991 108.227 140.443 108.227 139.901 108.158L140.836 108.283C140.245 108.203 139.668 108.043 139.119 107.809L139.957 108.158C139.466 107.934 138.999 107.664 138.561 107.349L139.273 107.893L138.84 107.544C138.18 106.905 137.303 106.537 136.384 106.512C135.696 106.518 135.025 106.725 134.455 107.109C133.884 107.493 133.44 108.037 133.176 108.672C132.913 109.307 132.842 110.005 132.974 110.68C133.105 111.355 133.432 111.976 133.915 112.466Z" fill="#004D2B"/>
</g>
<defs>
<clipPath id="clip0_195_1674">
<rect width="230" height="228" fill="white"/>
</clipPath>
</defs>
</svg>
