<svg width="242" height="160" viewBox="0 0 242 160" fill="none" xmlns="http://www.w3.org/2000/svg">
<g clip-path="url(#clip0_195_1703)">
<path d="M50.4444 3.21379C48.185 2.62747 41.2657 2.57316 39.0064 3.59379C32.9127 6.31908 28.7198 9.33754 24.7443 14.9944C17.9553 24.6904 14.3708 37.3941 12.5134 48.9141C11.9081 51.8143 11.5448 54.7596 11.4271 57.7198C11.4716 60.0255 11.2234 62.3276 10.6885 64.571C9.54796 69.381 11.1556 75.8522 15.0334 78.8489C17.3613 80.6186 20.1584 81.6651 23.0766 81.8582C25.9948 82.0512 28.9054 81.3823 31.4463 79.9347C34.0842 78.392 36.3588 76.2998 38.1157 73.8001C38.9521 72.4972 39.2019 70.8902 39.8862 69.457C40.7443 67.8066 42.2868 66.5254 42.8299 64.6904C42.5801 66.1128 43.2644 67.166 43.5034 68.4689C43.7803 70.6534 44.2938 72.8014 45.0349 74.875C47.1679 78.7665 50.3226 82.0025 54.1592 84.2344C55.2455 84.6687 56.5489 84.3322 57.7655 84.6036C60.3616 85.1791 61.9366 85.8414 64.6413 84.6796C71.2347 81.8675 75.0474 75.4505 77.9476 69.1422C78.5893 67.9605 79.1447 66.734 79.6095 65.4722C80.0548 63.9087 79.4574 62.3669 79.7507 60.8359C80.3301 58.7722 80.6655 56.6477 80.75 54.5059C80.8067 49.9042 80.5089 45.305 79.8593 40.7491C79.5443 38.7621 78.3712 36.7969 77.6868 34.9185C77.0025 33.0401 76.9265 31.1074 76.0575 29.2942C75.4275 28.0021 74.4825 26.9163 73.885 25.6025C72.8857 23.4309 72.3969 21.0205 71.1043 18.9575C69.8117 16.8946 67.9978 14.2453 66.6183 12.2692C60.9047 4.07158 52.997 4.3213 52.052 3.43096" fill="#FFF34A"/>
<path d="M51.161 0.59717C47.4488 -0.180399 43.6179 -0.202553 39.8969 0.532027C37.9816 1.0079 36.1501 1.7731 34.4658 2.80126C32.4419 3.89716 30.5254 5.18041 28.7413 6.63408C21.0074 12.9316 16.5539 23.0184 13.6211 32.3018C12.1331 37.0818 10.9718 41.9573 10.1452 46.8946C9.65637 49.7936 9.05896 52.7036 8.8743 55.6352C8.85296 58.2308 8.64605 60.8215 8.25515 63.3876C7.18358 67.8746 7.7418 72.5963 9.83019 76.7101C10.9814 78.73 12.5753 80.4632 14.4923 81.7795C16.4092 83.0958 18.5995 83.9611 20.8988 84.3105C26.7753 85.2986 32.0001 83.4093 36.4753 79.6199C38.8191 77.7395 40.6034 75.2538 41.6349 72.4321C42.5256 69.8697 44.5351 68.089 45.4149 65.494L40.0815 64.7665C40.0242 66.0116 40.2162 67.2557 40.6464 68.4256C41.0266 69.7611 41.1569 71.1509 41.4393 72.5081C41.9209 74.9635 42.9207 77.2881 44.3721 79.3268C45.8712 81.2578 47.6168 82.9845 49.5643 84.4625C51.6607 86.1238 53.3661 87.2204 56.0817 87.2746C58.4931 87.2746 60.6546 88.3604 63.1312 87.9696C65.5132 87.4904 67.7471 86.4521 69.6486 84.9403C73.4089 81.9801 76.4564 78.214 78.5665 73.9196C79.5876 71.9978 80.5651 70.0108 81.445 68.0239C82.0362 66.8146 82.3621 65.493 82.4008 64.1476C82.3099 62.8683 82.3609 61.5829 82.5529 60.3149C83.7369 55.0814 83.4653 49.6634 82.9222 44.3431C82.7288 41.4885 82.0645 38.6856 80.9562 36.0477C80.4391 34.9507 80.0211 33.8097 79.707 32.6384C79.4255 31.2107 79.0146 29.8115 78.4796 28.4582C77.8953 27.3378 77.2498 26.2504 76.5461 25.2008C75.9601 24.0574 75.4731 22.866 75.0906 21.6395C74.2156 19.3324 73.0552 17.1438 71.6364 15.1249C68.6493 10.6515 65.6622 6.27575 60.7742 3.75675C59.1252 2.9258 57.3918 2.27424 55.6037 1.81323C55.0389 1.66123 54.5175 1.54179 53.9092 1.40063C53.6811 1.33549 53.4639 1.25944 53.2357 1.216C53.1706 1.216 53.0945 1.15092 53.0294 1.14006C53.4204 1.14006 53.5942 1.42233 53.8657 1.65034C53.3487 1.15844 52.6623 0.884122 51.9486 0.884122C51.2348 0.884122 50.5484 1.15844 50.0314 1.65034C49.5266 2.16054 49.2434 2.84918 49.2434 3.56675C49.2434 4.28433 49.5266 4.97296 50.0314 5.48316C51.6607 6.81867 54.007 6.91638 55.9404 7.5787C59.0748 8.67521 61.8197 10.6642 63.8372 13.3007C65.1733 15.0705 66.4008 16.9598 67.6174 18.8165C68.8013 20.691 69.767 22.6945 70.4958 24.7882C70.867 25.8796 71.3322 26.9368 71.8862 27.9479C72.5767 28.9383 73.1904 29.9801 73.7219 31.0641C74.0578 32.1344 74.337 33.2217 74.5583 34.3214C74.9315 35.6302 75.4147 36.9051 76.003 38.1324C77.969 42.5515 77.8821 47.7307 77.9582 52.4973C78.0176 54.6423 77.8133 56.7864 77.3499 58.8816C77.0342 60.0714 76.8844 61.2991 76.9046 62.5298C77.0685 63.5672 76.979 64.6289 76.6439 65.6243C75.1114 69.397 73.1389 72.9759 70.7674 76.2866C69.6377 77.8316 68.2957 79.2097 66.7809 80.38C65.3688 81.4658 63.5223 82.6818 61.654 82.6927C60.7107 82.6221 59.7781 82.4473 58.8733 82.1715C58.1122 82.0021 57.3383 81.8967 56.5596 81.8566C56.1114 81.8944 55.6609 81.8944 55.2127 81.8566C54.4221 81.5135 53.7063 81.0193 53.1054 80.4017C52.2038 79.6743 51.3022 78.9468 50.4767 78.1324C48.7505 76.521 47.5155 74.4546 46.9139 72.1715C46.5772 70.9012 46.3925 69.5982 46.1535 68.3062C45.7491 67.1677 45.522 65.9739 45.4801 64.7665C45.4823 64.113 45.2447 63.4813 44.8123 62.9911C44.38 62.5008 43.7827 62.1861 43.1338 62.1064C42.4858 62.0204 41.8283 62.1691 41.2804 62.5256C40.7326 62.8821 40.3304 63.4228 40.1467 64.0499C39.495 65.9283 37.7788 67.3072 37.0075 69.229C36.6743 70.2617 36.2789 71.2734 35.8235 72.2584C35.2981 73.1091 34.6626 73.8867 33.9335 74.5711C31.0442 77.4376 27.5465 79.3594 23.408 79.1639C21.6722 79.1366 19.9702 78.68 18.4539 77.835C16.9376 76.99 15.6541 75.7829 14.7182 74.3213C12.8716 71.064 12.8825 67.6438 13.5668 64.1368C13.9756 61.7517 14.1791 59.3361 14.1751 56.9164C14.3232 54.3925 14.6463 51.8819 15.1418 49.4028C15.8615 44.859 16.8554 40.363 18.1181 35.9392C20.5078 27.6873 24.0054 18.9359 30.0666 12.671C31.5189 11.18 33.1412 9.86436 34.9003 8.7513C36.5751 7.61995 38.3758 6.68716 40.2662 5.97171C41.8206 5.58285 43.4232 5.42191 45.0239 5.49397C45.9798 5.49397 46.9356 5.49397 47.8915 5.56998L49.0537 5.6786C48.5432 5.61345 49.5208 5.77631 49.6729 5.80888C53.0619 6.63407 54.5175 1.40062 51.1067 0.575434L51.161 0.59717Z" fill="#004D2B"/>
<path d="M36.1498 19.8478C39.6474 19.8478 39.6583 14.4189 36.1498 14.4189C32.6413 14.4189 32.6521 19.8478 36.1498 19.8478Z" fill="#004D2B"/>
<path d="M57.0378 22.6926C60.5354 22.6926 60.5354 17.2637 57.0378 17.2637C53.5401 17.2637 53.5401 22.6926 57.0378 22.6926Z" fill="#004D2B"/>
<path d="M47.5441 25.5373C51.0418 25.5373 51.0418 20.1084 47.5441 20.1084C44.0465 20.1084 44.0465 25.5373 47.5441 25.5373Z" fill="#004D2B"/>
<path d="M14.7835 34.8643C15.0333 34.9295 14.903 34.962 14.7183 34.7449C14.4772 34.4897 14.2691 34.2051 14.0991 33.898C13.6401 33.1414 13.2337 32.3542 12.8826 31.5419C11.9919 29.5766 10.9817 27.6439 10.1453 25.6569C7.97282 20.608 8.48339 14.886 8.49426 9.54402C8.49426 6.04782 3.06313 6.04782 3.06313 9.54402C3.06313 16.0587 2.84584 22.5733 5.59399 28.7079C6.57159 30.8795 7.56008 33.051 8.60285 35.1575C9.64563 37.2639 11.0034 39.4137 13.3388 40.0978C16.6952 41.0858 18.129 35.8415 14.7835 34.8643Z" fill="#004D2B"/>
<path d="M7.4517 1.2376C4.27993 0.423265 1.32542 2.7794 0.282647 5.5807C0.0469342 6.27766 -0.0410381 7.01609 0.0244166 7.74888C0.0898713 8.48166 0.307292 9.19274 0.662799 9.83693C1.29607 10.944 2.31194 11.7819 3.51958 12.1931C4.56947 12.5434 5.69252 12.6145 6.77825 12.3994C7.67269 12.2549 8.52938 11.9338 9.2983 11.4548C10.2769 10.9025 11.0826 10.0891 11.6255 9.1055C12.1683 8.12189 12.4269 7.00678 12.3723 5.88475C12.299 4.42706 11.6784 3.05057 10.6343 2.03019C10.096 1.5225 9.44434 1.15031 8.73344 0.944416C7.97449 0.781549 7.1896 0.781549 6.43065 0.944416C5.50455 1.10638 4.62775 1.47776 3.86718 2.03019C2.89133 2.71035 2.06055 3.57773 1.42317 4.58181C0.84637 5.57814 0.50113 6.69138 0.412989 7.83914C0.329437 8.7354 0.539062 9.63455 1.0104 10.4016C1.56004 11.1807 2.34484 11.7634 3.24988 12.0643C4.15491 12.3652 5.1326 12.3685 6.03962 12.0736C7.56288 11.6864 8.89878 10.7705 9.80879 9.48954C10.3567 8.69064 10.6068 7.72488 10.5155 6.76058C10.4242 5.79629 9.99731 4.89456 9.30917 4.21261C8.96029 3.86104 8.5657 3.55797 8.13603 3.31147C7.51377 2.9533 6.77563 2.85389 6.08073 3.03465C5.38583 3.21542 4.78982 3.66183 4.42116 4.27776C4.07124 4.90168 3.97642 5.63674 4.15663 6.32896C4.33684 7.02118 4.77806 7.61688 5.38785 7.99116C5.51515 8.06803 5.63845 8.15136 5.7572 8.24087L5.20321 7.8174C5.36007 7.93791 5.50226 8.07639 5.62685 8.23L5.20321 7.67624C5.27918 7.776 5.34128 7.88556 5.38785 8.00196L5.11629 7.36139C5.1617 7.46571 5.19454 7.57504 5.21408 7.68711L5.11629 6.97053C5.12718 7.07883 5.12718 7.18794 5.11629 7.29625L5.21408 6.5688C5.19088 6.70236 5.15452 6.83327 5.10549 6.95966L5.37704 6.30815C5.30656 6.47691 5.21137 6.63431 5.09461 6.7751L5.52906 6.22134C5.36291 6.4272 5.1734 6.61304 4.96427 6.7751L5.51826 6.35163C5.21541 6.57711 4.88731 6.76654 4.54063 6.91619L5.19234 6.64474C4.8799 6.77799 4.55121 6.86927 4.21477 6.91619L4.93165 6.8185C4.71163 6.84576 4.4891 6.84576 4.26907 6.8185L4.99683 6.91619C4.8521 6.89542 4.71004 6.85904 4.57318 6.80763L5.22496 7.07908C5.12853 7.03531 5.03742 6.98064 4.9534 6.91619L5.50739 7.35052L5.301 7.14422L5.72458 7.69798C5.66919 7.61589 5.62196 7.52863 5.58343 7.4374L5.85498 8.08884C5.80374 7.95945 5.76726 7.82469 5.74632 7.68711L5.84411 8.40376C5.81696 8.18745 5.81696 7.96856 5.84411 7.75225L5.74632 8.4689C5.81725 8.02972 5.93751 7.59988 6.1048 7.18763L5.83324 7.83914C5.9868 7.4923 6.17995 7.16437 6.4089 6.86191L5.98533 7.41567C6.30182 7.01088 6.6666 6.64625 7.07155 6.32989L6.52844 6.75336C6.86087 6.48437 7.22581 6.25821 7.61466 6.08018L6.96289 6.3625C7.2532 6.23302 7.56042 6.14523 7.87535 6.10185L7.14759 6.18873C7.36036 6.16159 7.57567 6.16159 7.78843 6.18873L7.07155 6.09105C7.23788 6.11541 7.40149 6.15538 7.5603 6.21047L6.90859 5.93903C7.04611 6.00201 7.17708 6.07841 7.29962 6.16706L6.7565 5.7436C6.89902 5.85343 7.02684 5.98113 7.13672 6.12359L6.71308 5.5807C6.84099 5.74737 6.94685 5.92984 7.02806 6.12359L6.7565 5.47215C6.88995 5.79572 6.98122 6.13508 7.02806 6.48191L6.93034 5.75446C6.97379 6.0351 6.97379 6.3207 6.93034 6.60133L7.02806 5.87388C6.99487 6.12034 6.92913 6.36129 6.83255 6.59047L7.1041 5.93903C6.99497 6.19881 6.85255 6.44332 6.68046 6.66648L7.1041 6.12359C6.90317 6.38408 6.6695 6.61765 6.4089 6.8185L6.96289 6.38417C6.64861 6.62769 6.30571 6.83189 5.94184 6.9922L6.59361 6.72075C6.19004 6.88726 5.76642 7.00041 5.33355 7.05734L6.06137 6.95966C5.72604 7.00308 5.38645 7.00308 5.05112 6.95966L5.76807 7.05734C5.50455 7.01543 5.24607 6.9463 4.99683 6.85104L5.6486 7.13335C5.44171 7.049 5.24784 6.93567 5.07287 6.79677L5.61598 7.22024C5.45273 7.09513 5.30662 6.94908 5.18146 6.7859L5.60511 7.33965C5.47573 7.16034 5.36647 6.9674 5.27925 6.76423L5.55081 7.41567C5.47651 7.22174 5.41841 7.02201 5.37704 6.8185L5.47477 7.54595C5.45304 7.31483 5.45304 7.08217 5.47477 6.85104L5.37704 7.57856C5.42128 7.31448 5.49407 7.05597 5.59424 6.80763L5.32268 7.44827C5.4689 7.11239 5.6549 6.79526 5.87666 6.50365L5.45302 7.05734C5.68927 6.7665 5.95504 6.5009 6.24601 6.26475L5.69202 6.68822C5.95812 6.48665 6.24593 6.31544 6.55012 6.17787L5.89841 6.46018C6.14185 6.35648 6.39728 6.28352 6.65878 6.24301L5.93096 6.34076H6.46327L5.74632 6.24301L6.03962 6.30815C6.74863 6.48908 7.5002 6.38793 8.13603 6.02591C8.59876 5.75839 8.97181 5.3598 9.20807 4.88049C9.44432 4.40118 9.53318 3.86263 9.46345 3.33287C9.39371 2.80311 9.1685 2.30585 8.81625 1.90395C8.46399 1.50204 8.00053 1.21354 7.48432 1.07477L7.4517 1.2376Z" fill="#004D2B"/>
<path d="M81.7274 37.4054C81.9772 36.9603 81.5862 37.4815 81.5536 37.5466C81.4124 37.7855 81.684 37.4814 81.8143 37.3946C82.238 37.134 81.6296 37.4489 81.912 37.3946L82.466 37.1991C83.4105 36.8925 84.3235 36.4962 85.1925 36.0157C87.0934 34.9299 88.8531 33.5944 90.6996 32.4218C92.2312 31.4446 93.8062 30.6302 95.4138 29.7833C97.1464 28.9475 98.6406 27.6891 99.7587 26.1242C100.122 25.5022 100.223 24.7616 100.039 24.0652C99.8559 23.3688 99.4034 22.7737 98.7812 22.4109C98.1589 22.048 97.4179 21.9472 96.7212 22.1304C96.0245 22.3137 95.4292 22.7661 95.0662 23.3881C94.7403 23.8876 95.2943 23.2687 95.0662 23.4532C94.9206 23.5825 94.7828 23.7203 94.6535 23.8658C94.3168 24.2133 94.7838 23.7898 94.5448 23.9744L94.0235 24.3219C93.2943 24.7767 92.54 25.1899 91.7641 25.5597C90.0577 26.4426 88.4006 27.4176 86.8001 28.4804L84.1171 30.2828C83.6609 30.5759 83.2047 30.8799 82.7376 31.1622C82.5095 31.3034 82.2705 31.4337 82.0315 31.564C81.7925 31.6943 81.2278 31.9223 81.8795 31.6726C80.0438 32.3892 78.0886 32.8561 77.0458 34.7236C76.866 35.0316 76.7488 35.3719 76.7006 35.7252C76.6525 36.0785 76.6744 36.4378 76.7652 36.7826C76.856 37.1275 77.0138 37.451 77.2297 37.7349C77.4456 38.0187 77.7153 38.2573 78.0234 38.4369C78.3315 38.6166 78.672 38.7338 79.0254 38.782C79.3789 38.8301 79.7383 38.8081 80.0833 38.7174C80.4282 38.6267 80.752 38.4689 81.0359 38.2531C81.3199 38.0373 81.5585 37.7677 81.7383 37.4597L81.7274 37.4054Z" fill="#004D2B"/>
<path d="M104.397 18.8817C103.798 18.3497 103.101 17.9402 102.344 17.6765C101.848 17.5107 101.322 17.4515 100.802 17.5028C100.073 17.5463 99.3637 17.7542 98.7269 18.1109C98.4196 18.3035 98.1289 18.5214 97.8579 18.7623L97.5647 19.0555C97.2085 19.4341 96.9085 19.8619 96.6739 20.3258C96.4256 20.7967 96.2359 21.2963 96.1091 21.8133C95.9846 22.3322 95.9298 22.8653 95.9462 23.3986C95.9543 23.9272 96.0459 24.4512 96.2178 24.9512C96.4409 25.6544 96.8112 26.3022 97.304 26.8513C97.5735 27.107 97.8642 27.3395 98.1729 27.5462C98.3093 27.6404 98.4548 27.7205 98.6074 27.7851C98.9706 27.971 99.3531 28.1167 99.748 28.2194C100.166 28.3136 100.591 28.3753 101.019 28.404C101.748 28.4303 102.478 28.3647 103.191 28.2086C104.255 27.9675 105.241 27.4635 106.059 26.7427C106.329 26.5254 106.576 26.2818 106.798 26.0153C107.164 25.589 107.481 25.1228 107.743 24.6255C108.003 24.1284 108.197 23.599 108.318 23.0511C108.448 22.4041 108.47 21.7401 108.383 21.0859C108.265 20.0194 107.808 19.0187 107.08 18.2303C106.929 18.0821 106.766 17.9477 106.591 17.8286C106.429 17.6898 106.254 17.5662 106.07 17.4594C105.705 17.2606 105.314 17.1144 104.908 17.0251C104.272 16.9057 103.62 16.9057 102.985 17.0251C102.58 17.1067 102.188 17.2455 101.823 17.4376C101.461 17.6239 101.128 17.8617 100.834 18.1434C100.538 18.4063 100.285 18.7141 100.085 19.0555C99.5413 19.9824 99.3777 21.0835 99.6284 22.1282C99.6487 22.22 99.6741 22.3106 99.7045 22.3996C99.8217 22.723 99.9596 23.0385 100.117 23.3442L103.832 19.6309L103.376 19.2943C103.073 19.101 102.725 18.9923 102.366 18.9795C102.01 18.882 101.635 18.882 101.28 18.9795C100.931 19.0824 100.607 19.2536 100.326 19.4831C100.044 19.7125 99.8112 19.9957 99.6404 20.316C99.4695 20.6364 99.3642 20.9875 99.3304 21.349C99.2967 21.7104 99.3352 22.075 99.4438 22.4214L99.7262 23.062C99.9585 23.4658 100.292 23.8025 100.693 24.0392L101.16 24.3649L101.812 24.6363C102.167 24.7354 102.543 24.7354 102.898 24.6363C103.49 24.5732 104.042 24.3087 104.462 23.8871C104.777 23.5433 105.014 23.136 105.157 22.6928C105.348 21.9859 105.25 21.2324 104.886 20.5973C104.84 20.5173 104.8 20.4338 104.766 20.3476L105.038 20.999C104.985 20.8701 104.949 20.7351 104.929 20.5973L105.027 21.3247C105.006 21.2026 105.006 21.0777 105.027 20.9556L104.929 21.6722C104.95 21.5569 104.983 21.4442 105.027 21.3356L104.755 21.987C104.798 21.8778 104.857 21.7755 104.929 21.683L104.506 22.2368C104.589 22.1227 104.688 22.0204 104.799 21.9328L104.256 22.3562C104.379 22.2601 104.514 22.1798 104.658 22.1173L104.006 22.3888C104.166 22.3238 104.334 22.28 104.506 22.2585L103.778 22.3562C103.936 22.3345 104.097 22.3345 104.256 22.3562L103.539 22.2585C103.687 22.2779 103.833 22.3144 103.973 22.3671L103.322 22.0956C103.44 22.1502 103.552 22.2156 103.658 22.2911L103.104 21.8676C103.224 21.9651 103.333 22.0742 103.43 22.1933L103.007 21.6396C103.104 21.7794 103.188 21.9285 103.256 22.0848L102.985 21.4333C103.075 21.6646 103.141 21.9048 103.18 22.1499L103.083 21.4333C103.115 21.6929 103.115 21.9555 103.083 22.2151L103.18 21.4985C103.134 21.8079 103.05 22.1105 102.931 22.3996L103.202 21.7482C103.063 22.0603 102.888 22.3554 102.681 22.6277L103.104 22.0848C102.866 22.394 102.588 22.6713 102.279 22.91L102.833 22.4865C102.55 22.7068 102.24 22.8893 101.91 23.0294L102.561 22.758C102.21 22.8852 101.846 22.9726 101.475 23.0185L102.203 22.9208C101.741 22.9804 101.274 22.9804 100.812 22.9208L101.529 23.0185C101.26 22.9884 100.996 22.9189 100.747 22.8122L101.399 23.0837C101.212 23.0079 101.036 22.9055 100.878 22.7797L101.421 23.2031C101.282 23.0969 101.158 22.9728 101.051 22.834L101.475 23.3877C101.36 23.2338 101.265 23.066 101.193 22.8882L101.464 23.5397C101.375 23.3285 101.316 23.1053 101.29 22.8774L101.388 23.594C101.35 23.3239 101.35 23.0498 101.388 22.7797L101.29 23.4963C101.334 23.171 101.421 22.8532 101.551 22.5517L101.28 23.2031C101.392 22.9327 101.538 22.6774 101.714 22.4431L101.29 22.9969C101.429 22.822 101.586 22.6619 101.757 22.5191L101.214 22.9425C101.362 22.8296 101.522 22.7348 101.692 22.6602L101.041 22.9316C101.188 22.8767 101.341 22.8367 101.497 22.8122L100.78 22.91C100.931 22.8883 101.085 22.8883 101.236 22.91L100.519 22.8122C100.696 22.8324 100.868 22.88 101.03 22.9534L100.378 22.6711C100.601 22.7701 100.812 22.894 101.008 23.0403L100.454 22.6168L100.541 22.6928C100.784 22.9498 101.086 23.1436 101.421 23.2574C101.755 23.4322 102.131 23.5111 102.507 23.4854C102.864 23.4868 103.218 23.4177 103.548 23.2818C103.878 23.1458 104.178 22.9459 104.43 22.6936C104.683 22.4413 104.883 22.1415 105.019 21.8115C105.155 21.4815 105.224 21.1278 105.223 20.771C105.225 20.4156 105.156 20.0635 105.02 19.7353C104.883 19.4071 104.683 19.1094 104.43 18.86L104.397 18.8817Z" fill="#004D2B"/>
<path d="M97.945 71.8239C96.8588 73.268 93.7739 89.3809 93.4806 91.1073C92.981 93.9412 93.5567 96.8076 93.057 99.6415C92.6058 101.627 92.3619 103.654 92.3292 105.689C92.3292 107.861 91.558 109.424 91.3191 111.531C91.1018 113.431 91.8296 115.624 91.4168 117.481C91.004 119.337 90.3958 120.336 90.4175 122.182C90.4175 125.537 89.4507 130.141 91.2864 133.105C93.9694 137.448 99.8676 139.283 104.441 140.445C105.788 140.782 107.091 141.531 108.405 141.889C110.305 142.195 112.234 142.268 114.151 142.106C118.844 142.106 123.547 142.106 128.272 142.106C137.223 142.106 147.455 137.709 150.725 128.827C153.538 121.151 152.419 112.888 146.456 106.981C144.658 105.158 142.46 103.779 140.036 102.953C138.613 102.432 135.985 102.247 134.942 101.096C133.312 99.2832 135.365 98.9249 136.951 98.2191C139.124 97.1985 140.395 95.6892 142.252 94.2017C144.425 92.4428 145.761 91.6501 146.717 88.9791C147.479 87.1982 147.657 85.2218 147.227 83.3331C146.662 81.433 143.86 74.3103 139.841 70.8793C136.821 68.306 130.347 65.8087 126.513 65.2115C122.366 64.7031 118.159 65.0504 114.151 66.2321C110.502 67.3179 106.548 68.0346 102.779 68.9357C100.802 69.4135 98.499 69.5655 97.9668 71.8239" fill="#8CA54F"/>
<path d="M95.642 70.4565C94.458 72.2263 94.143 74.919 93.6759 76.9711C92.9482 80.0873 92.3073 83.2144 91.6881 86.3414C91.0392 89.0687 90.6752 91.856 90.6019 94.6585C90.6581 95.9979 90.6327 97.3395 90.5259 98.6758C90.3629 100.087 90.0262 101.477 89.8415 102.889C89.6895 104.137 89.7763 105.397 89.6351 106.635C89.5157 107.72 89.1355 108.719 88.9291 109.762C88.6603 111.028 88.5797 112.326 88.6901 113.616C88.9034 114.818 88.9218 116.046 88.7445 117.253C88.4729 118.339 88.071 119.425 87.9081 120.511C87.7017 121.825 87.7668 123.149 87.6799 124.474C87.4279 126.82 87.4863 129.189 87.8538 131.521C88.3797 133.75 89.5915 135.759 91.3188 137.264C94.5558 140.294 98.9007 141.857 103.246 142.943C104.392 143.288 105.52 143.694 106.624 144.159C107.965 144.642 109.38 144.892 110.806 144.897C113.728 144.962 116.671 144.821 119.604 144.81C124.666 144.81 129.825 145.18 134.811 144.159C139.118 143.288 143.163 141.43 146.629 138.73C153.853 133.051 156.655 122.671 153.853 113.985C152.336 109.28 149.274 105.224 145.163 102.476C143.196 101.222 141.023 100.325 138.743 99.8267C138.287 99.7181 136.832 99.1753 136.821 99.1753C137.364 99.0884 135.3 101.651 136.278 101.455C136.454 101.388 136.622 101.301 136.777 101.195C136.94 101.13 137.787 100.793 138.124 100.63C140.438 99.5445 142.176 97.6986 144.12 96.1242C145.815 94.971 147.266 93.4952 148.389 91.7811C149.741 89.4069 150.322 86.6713 150.051 83.9527C149.757 82.3537 149.249 80.8015 148.541 79.3381C146.966 75.6465 144.902 71.7377 141.85 69.1101C138.526 66.1894 134.04 64.387 129.825 63.2144C125.11 62.0186 120.174 61.9887 115.444 63.1275C112.772 63.7029 110.154 64.5173 107.482 65.1145C105.049 65.6574 102.583 66.1351 100.172 66.7649C99.0425 66.9793 97.9931 67.4968 97.1359 68.2619C96.2786 69.027 95.6458 70.0108 95.3053 71.108C94.3059 74.463 99.5524 75.8962 100.541 72.552C100.541 72.4217 100.802 72.172 100.595 72.3457C100.799 72.1938 101.038 72.0966 101.29 72.0634C102.246 71.7811 103.224 71.6074 104.191 71.3794C106.765 70.7714 109.35 70.2936 111.914 69.6204C116.465 68.5346 120.864 67.1991 125.622 67.8072C129.362 68.3909 132.953 69.7003 136.191 71.6617C139.167 73.4206 141.1 76.374 142.708 79.5227C143.332 80.7293 143.873 81.9772 144.327 83.2578C144.9 84.964 144.783 86.8266 144.001 88.4478C143.282 89.8027 142.227 90.9505 140.938 91.7811C139.243 93.1275 137.679 94.7996 135.767 95.7768C134.094 96.602 131.694 97.3186 131.629 99.7724C131.563 102.226 133.508 103.779 135.55 104.55C137.375 105.234 139.265 105.408 140.981 106.331C142.778 107.293 144.369 108.599 145.663 110.174C150.627 116.037 150.681 125.636 146.01 131.705C143.742 134.509 140.731 136.62 137.32 137.796C133.613 139.016 129.716 139.553 125.817 139.382H117.366C114.803 139.566 112.229 139.566 109.665 139.382C108.54 139.148 107.447 138.783 106.406 138.296C105.418 137.916 104.375 137.677 103.354 137.395C101.54 136.921 99.7758 136.274 98.086 135.462C96.5072 134.733 95.1005 133.678 93.9584 132.367C93.0163 130.892 92.6312 129.129 92.8721 127.395C92.8721 126.309 92.9916 125.223 93.0459 124.137C93.0256 123.147 93.0764 122.156 93.198 121.173C93.3935 120.185 93.8063 119.251 94.0018 118.263C94.2352 116.969 94.2682 115.647 94.0996 114.344C93.9529 113.31 93.9529 112.261 94.0996 111.227C94.306 110.142 94.6535 109.056 94.8273 107.97C94.9718 106.726 95.0516 105.476 95.0663 104.224C95.1771 103.09 95.3476 101.963 95.5768 100.847C96.1851 97.3403 95.7071 93.7898 96.3697 90.2936C97.3799 85.0493 98.3467 79.7507 99.8023 74.6042C99.9217 74.1916 100.052 73.7898 100.182 73.3772C100.432 72.5737 99.8674 73.8007 100.269 73.1927C102.225 70.2828 97.5212 67.5683 95.5877 70.4565H95.642Z" fill="#004D2B"/>
<path d="M95.3923 137.589C95.2702 138.291 95.0885 138.981 94.8492 139.652C94.7297 139.945 94.708 139.989 94.8492 139.761C94.7949 139.88 94.7405 140.011 94.6754 140.141C94.545 140.434 94.4038 140.727 94.2517 141.009C93.5674 142.399 92.8397 143.756 92.264 145.201C91.6782 146.549 91.4014 148.011 91.4541 149.48C91.5067 150.95 91.8873 152.388 92.5681 153.691C95.0447 158.034 100.867 160.054 105.603 160C106.323 160 107.014 159.714 107.523 159.205C108.032 158.696 108.318 158.005 108.318 157.285C108.318 156.565 108.032 155.875 107.523 155.366C107.014 154.857 106.323 154.571 105.603 154.571C105.136 154.571 104.658 154.571 104.18 154.516C104.071 154.516 103.365 154.397 104.049 154.516L103.387 154.397C102.408 154.209 101.448 153.932 100.519 153.572C101.106 153.8 100.204 153.431 100.106 153.376L99.4873 153.051C99.1128 152.823 98.7502 152.577 98.4011 152.312C98.9225 152.703 98.1948 152.095 98.1079 152.019C98.021 151.943 97.8145 151.693 97.6625 151.541C97.2063 151.075 97.8906 151.965 97.5539 151.411C97.4235 151.194 97.2931 150.977 97.1737 150.76C96.8369 150.195 97.1737 151.009 97.0651 150.521C97.0651 150.304 96.9564 150.087 96.9021 149.88C96.7283 149.251 96.9021 150.434 96.9021 149.652C96.8804 149.33 96.8804 149.008 96.9021 148.686C96.9021 148.49 96.9021 148.512 96.9021 148.74C96.9021 148.556 96.9673 148.382 97.0108 148.208C97.0542 148.034 97.1519 147.676 97.2388 147.416C97.371 146.976 97.5456 146.551 97.7603 146.145C98.8465 143.843 100.302 141.596 100.693 139.033C100.861 138.34 100.759 137.609 100.408 136.988C100.057 136.368 99.4835 135.903 98.803 135.689C98.1075 135.505 97.3676 135.601 96.7421 135.956C96.1165 136.312 95.6553 136.898 95.4575 137.589H95.3923Z" fill="#004D2B"/>
<path d="M137.06 141.151C137.223 143.855 139.232 145.842 140.872 147.807L141.057 148.035C141.35 148.393 140.547 147.362 140.938 147.883C141.329 148.404 141.557 148.686 141.883 149.066C142.208 149.446 142.828 150.152 143.338 150.597C144.338 151.585 145.402 152.519 146.401 153.507C146.919 153.969 147.593 154.216 148.287 154.197C148.981 154.177 149.641 153.893 150.131 153.403C150.622 152.912 150.906 152.253 150.926 151.559C150.945 150.866 150.698 150.192 150.236 149.674C149.323 148.762 148.367 147.905 147.444 147.014C146.955 146.547 146.477 146.07 146.021 145.57C145.815 145.342 145.63 145.103 145.435 144.875C145.706 145.244 145.033 144.408 145.435 144.875L144.913 144.202C144.631 143.855 144.338 143.507 144.044 143.116L143.588 142.563L143.306 142.215C143.012 141.857 143.599 142.617 143.403 142.356C143.1 141.96 142.824 141.542 142.578 141.108C142.578 141.021 142.48 140.912 142.426 140.825C142.263 140.543 142.654 141.477 142.534 141.075C142.534 140.966 142.469 140.858 142.426 140.749C142.295 140.337 142.491 141.498 142.426 141.053C142.426 140.333 142.14 139.643 141.63 139.134C141.121 138.625 140.43 138.339 139.71 138.339C138.99 138.339 138.299 138.625 137.79 139.134C137.281 139.643 136.995 140.333 136.995 141.053L137.06 141.151Z" fill="#004D2B"/>
<path d="M108.449 82.2046H109.405C109.782 82.2269 110.158 82.1443 110.491 81.9657C110.829 81.8584 111.132 81.6636 111.371 81.4011C111.629 81.1653 111.82 80.8657 111.925 80.5325C112.103 80.1997 112.186 79.8238 112.164 79.4467L112.066 78.7192C111.937 78.2697 111.698 77.8593 111.371 77.5249L110.817 77.1014C110.403 76.8559 109.93 76.7283 109.448 76.7323H108.492C108.116 76.7066 107.74 76.7855 107.406 76.9603C107.072 77.0693 106.772 77.264 106.537 77.5249C106.275 77.7591 106.08 78.0589 105.972 78.3935C105.795 78.7267 105.712 79.1023 105.733 79.4793L105.831 80.1959C105.957 80.6492 106.201 81.0612 106.537 81.3902L107.08 81.8246C107.496 82.0652 107.968 82.1924 108.449 82.1937V82.2046Z" fill="#004D2B"/>
<path d="M134.083 80.3039C137.57 80.3039 137.581 74.875 134.083 74.875C130.586 74.875 130.575 80.3039 134.083 80.3039Z" fill="#004D2B"/>
<path d="M122.689 82.2043C126.187 82.2043 126.187 76.7754 122.689 76.7754C119.192 76.7754 119.192 82.2043 122.689 82.2043Z" fill="#004D2B"/>
<path d="M121.712 85.3096C121.401 85.277 121.088 85.277 120.777 85.3096C120.224 85.356 119.676 85.4468 119.137 85.5811C118.598 85.7413 118.072 85.9408 117.562 86.1783C116.802 86.5038 116.106 86.9635 115.509 87.5355C115.171 87.8501 114.885 88.2166 114.662 88.6213C114.332 89.1927 114.156 89.8399 114.151 90.4997C114.166 90.7771 114.203 91.053 114.26 91.3249V91.466C114.352 91.7872 114.495 92.0914 114.684 92.3672C115.08 92.9592 115.612 93.4471 116.237 93.7896C116.782 94.0854 117.362 94.3115 117.964 94.4627C119.029 94.7669 120.158 94.7669 121.223 94.4627C121.697 94.3223 122.15 94.1178 122.57 93.8547C122.967 93.6037 123.332 93.3047 123.656 92.9644C124.274 92.3261 124.713 91.5357 124.927 90.6734C125.084 90.0241 125.084 89.3466 124.927 88.6973C124.816 88.4026 124.693 88.1129 124.557 87.8287C124.399 87.5583 124.202 87.3131 123.971 87.1012C123.573 86.7274 123.093 86.4522 122.57 86.2977C122.242 86.1953 121.902 86.1404 121.559 86.1348C121.195 86.1366 120.831 86.173 120.473 86.2435L120.006 86.352C119.362 86.5626 118.812 86.9931 118.453 87.5681C118.259 87.8705 118.151 88.2192 118.138 88.5778C118.04 88.9332 118.04 89.3083 118.138 89.6636C118.333 90.3566 118.794 90.9447 119.42 91.3004C120.047 91.6561 120.788 91.7507 121.483 91.5637C121.636 91.5124 121.792 91.4725 121.95 91.4443L121.234 91.542C121.378 91.5257 121.524 91.5257 121.668 91.542L120.951 91.4443C121.037 91.456 121.121 91.4779 121.201 91.5095L120.549 91.238L120.712 91.3357L120.169 90.9123C120.214 90.9465 120.254 90.9866 120.289 91.0317L119.865 90.4888C119.9 90.5356 119.929 90.5867 119.952 90.6408L119.68 89.9893C119.712 90.0659 119.734 90.1462 119.745 90.2282L119.648 89.5116C119.658 89.6163 119.658 89.7218 119.648 89.8265L119.745 89.1099C119.724 89.2708 119.68 89.4279 119.615 89.5767L119.887 88.9253C119.807 89.1233 119.701 89.3097 119.572 89.4791L119.995 88.9253C119.844 89.12 119.669 89.2951 119.474 89.4465L120.028 89.0122C119.837 89.1596 119.629 89.2835 119.409 89.3813L120.05 89.1099C119.809 89.2078 119.558 89.2736 119.3 89.3053L120.028 89.2076C119.75 89.2401 119.469 89.2401 119.191 89.2076L119.919 89.3053C119.483 89.2357 119.057 89.1155 118.648 88.947L119.289 89.2185C119.072 89.1345 118.867 89.0213 118.681 88.8819L119.235 89.3053C119.139 89.2362 119.054 89.1519 118.985 89.0556L119.409 89.6093C119.355 89.5474 119.311 89.4779 119.278 89.403L119.55 90.0437C119.545 89.975 119.545 89.9061 119.55 89.8374L119.648 90.554C119.637 90.482 119.637 90.4088 119.648 90.3368L119.55 91.0534C119.56 90.9711 119.582 90.8906 119.615 90.8145L119.344 91.4552C119.401 91.324 119.474 91.2001 119.561 91.086L119.137 91.6397C119.296 91.4445 119.479 91.2695 119.68 91.1186L119.126 91.542C119.521 91.2552 119.947 91.0148 120.397 90.8254L119.745 91.0969C120.29 90.8656 120.864 90.7086 121.451 90.63L120.723 90.7277C121.084 90.6864 121.448 90.6864 121.809 90.7277C122.185 90.747 122.559 90.6684 122.896 90.4997C123.379 90.2829 123.792 89.935 124.088 89.4956C124.383 89.0561 124.55 88.5425 124.568 88.0132C124.568 87.6558 124.496 87.302 124.358 86.9722C124.22 86.6424 124.018 86.3431 123.764 86.0914L123.221 85.668C122.805 85.4274 122.333 85.3001 121.853 85.2988L121.712 85.3096Z" fill="#004D2B"/>
<path d="M117.225 112.921C116.657 113.063 116.109 113.278 115.596 113.561C115.16 113.797 114.77 114.109 114.445 114.484C113.989 114.968 113.66 115.557 113.489 116.2C113.326 116.859 113.326 117.549 113.489 118.208C113.511 118.311 113.54 118.413 113.576 118.512C113.686 118.837 113.827 119.15 113.999 119.446C114.244 119.848 114.544 120.213 114.89 120.532C115.647 121.222 116.56 121.717 117.551 121.976C118.665 122.242 119.826 122.242 120.94 121.976C121.997 121.748 122.979 121.259 123.797 120.554C124.598 119.81 125.126 118.82 125.296 117.741C125.374 117.318 125.424 116.89 125.448 116.46C125.447 116.056 125.407 115.652 125.329 115.255C125.158 114.418 124.724 113.657 124.09 113.083C123.827 112.842 123.535 112.634 123.221 112.464C122.54 112.135 121.804 111.936 121.049 111.878C120.326 111.817 119.599 111.817 118.877 111.878C118.158 111.887 117.47 112.171 116.954 112.671C116.446 113.181 116.161 113.872 116.161 114.593C116.161 115.313 116.446 116.004 116.954 116.514C117.467 117.018 118.157 117.303 118.877 117.307C119.599 117.246 120.326 117.246 121.049 117.307L120.332 117.209C120.594 117.237 120.85 117.303 121.092 117.405L120.441 117.133C120.569 117.185 120.69 117.254 120.799 117.34L120.256 116.916C120.34 116.988 120.417 117.068 120.484 117.155L120.061 116.601C120.133 116.694 120.191 116.796 120.234 116.905L119.963 116.254C120.026 116.411 120.07 116.575 120.093 116.742L119.995 116.015C120.028 116.315 120.028 116.617 119.995 116.916L120.093 116.2C120.051 116.519 119.97 116.833 119.854 117.133L120.126 116.482C120.049 116.678 119.943 116.861 119.811 117.025L120.234 116.482C120.124 116.621 119.996 116.745 119.854 116.851L120.408 116.428C120.214 116.564 120.007 116.681 119.789 116.775L120.441 116.504C120.02 116.667 119.583 116.784 119.137 116.851L119.854 116.753C119.493 116.795 119.129 116.795 118.768 116.753L119.485 116.851C119.149 116.799 118.821 116.708 118.507 116.58L119.148 116.851C118.865 116.733 118.599 116.58 118.355 116.395L118.898 116.818C118.727 116.68 118.57 116.523 118.431 116.352L118.855 116.905C118.746 116.755 118.652 116.595 118.572 116.428L118.844 117.068C118.795 116.942 118.759 116.811 118.735 116.677L118.833 117.405C118.822 117.286 118.822 117.166 118.833 117.047L118.735 117.763C118.735 117.655 118.735 117.557 118.822 117.448L118.551 118.1C118.6 117.997 118.658 117.899 118.724 117.806L118.301 118.349C118.399 118.224 118.512 118.111 118.638 118.013L118.094 118.436C118.28 118.307 118.476 118.195 118.681 118.1L118.04 118.382C118.258 118.288 118.483 118.212 118.714 118.154C119.229 118.011 119.69 117.72 120.04 117.317C120.39 116.913 120.613 116.415 120.682 115.886C120.75 115.356 120.661 114.818 120.425 114.339C120.189 113.859 119.816 113.461 119.355 113.192C118.72 112.839 117.973 112.741 117.269 112.921H117.225Z" fill="#004D2B"/>
<path d="M150.508 118.958C153.125 121.639 157.025 121.249 160.284 122.41C162.416 123.172 164.592 123.802 166.801 124.3C167.758 124.542 168.689 124.877 169.582 125.299C170.696 125.76 171.927 125.858 173.101 125.581C173.445 125.486 173.766 125.325 174.048 125.105C174.329 124.886 174.564 124.614 174.74 124.304C174.916 123.994 175.03 123.652 175.074 123.298C175.117 122.945 175.091 122.586 174.997 122.242C174.902 121.898 174.74 121.577 174.521 121.296C174.302 121.015 174.029 120.779 173.719 120.603C173.409 120.427 173.067 120.314 172.713 120.27C172.359 120.226 172 120.253 171.656 120.347H171.939C171.667 120.347 171.624 120.347 171.819 120.347L171.548 120.25C171.33 120.185 171.102 120.098 170.885 120.011C171.146 120.109 170.82 120.011 170.744 119.946C169.775 119.521 168.767 119.19 167.735 118.958C165.712 118.49 163.72 117.895 161.772 117.177C160.435 116.777 159.07 116.479 157.687 116.287C156.891 116.131 156.104 115.932 155.33 115.689C155.33 115.689 154.809 115.494 155.102 115.613C155.396 115.733 154.863 115.494 154.798 115.461L154.429 115.233C154.918 115.527 154.429 115.233 154.353 115.125C151.898 112.617 148.064 116.46 150.508 118.958Z" fill="#004D2B"/>
<path d="M174.252 121.031C173.378 121.309 172.569 121.76 171.873 122.356C171.292 122.874 170.867 123.543 170.646 124.289C170.45 125.011 170.447 125.773 170.637 126.497C170.828 127.221 171.206 127.882 171.732 128.415C172.714 129.372 174.021 129.923 175.392 129.957C176.154 129.965 176.911 129.823 177.617 129.538C178.324 129.253 178.967 128.83 179.509 128.295C180.129 127.686 180.601 126.943 180.889 126.124C181.008 125.724 181.085 125.313 181.117 124.897C181.133 124.694 181.133 124.491 181.117 124.289C181.062 123.46 180.821 122.655 180.411 121.933C180.002 121.25 179.446 120.667 178.782 120.228C178.181 119.827 177.494 119.573 176.777 119.486C176.06 119.399 175.333 119.482 174.654 119.729C174.241 119.868 173.847 120.057 173.481 120.293C173.22 120.478 172.948 120.684 172.699 120.901C172.416 121.15 172.202 121.468 172.079 121.824C171.852 122.412 171.807 123.055 171.949 123.67C172.125 124.581 172.572 125.417 173.231 126.069C173.944 126.777 174.852 127.256 175.838 127.448C176.212 127.554 176.603 127.581 176.988 127.529C177.373 127.476 177.743 127.346 178.075 127.144C178.351 126.971 178.609 126.771 178.847 126.547C179.18 126.236 179.456 125.869 179.661 125.461C180.389 123.912 180.554 122.157 180.128 120.499C179.931 119.808 179.469 119.222 178.844 118.866C178.218 118.511 177.478 118.415 176.783 118.599L176.185 118.806C175.51 119.012 174.931 119.455 174.556 120.054C174.198 120.691 174.1 121.442 174.285 122.15C174.477 122.83 174.925 123.409 175.534 123.768C175.846 123.953 176.193 124.073 176.554 124.119C176.914 124.166 177.281 124.139 177.63 124.039L178.228 123.833L174.893 121.943C174.893 122.095 174.893 122.248 174.969 122.4L174.871 121.672C174.936 122.162 174.936 122.659 174.871 123.149L174.969 122.421C174.931 122.709 174.854 122.99 174.741 123.257L175.023 122.606C174.946 122.778 174.851 122.942 174.741 123.094L175.164 122.541C175.086 122.636 174.998 122.723 174.904 122.801L175.458 122.378L175.251 122.519L177.337 122.237C177.09 122.202 176.85 122.136 176.62 122.041L177.272 122.313C177.076 122.229 176.89 122.123 176.718 121.998L177.272 122.421C177.125 122.308 176.994 122.177 176.881 122.03L177.304 122.573C177.208 122.44 177.125 122.298 177.054 122.15L177.337 122.801C177.26 122.621 177.208 122.431 177.185 122.237L177.272 122.953V122.877L176.468 124.799L176.642 124.658L176.098 125.081C176.291 124.928 176.503 124.8 176.729 124.701L176.088 124.973C176.267 124.894 176.458 124.843 176.652 124.821L175.925 124.919C176.105 124.897 176.287 124.897 176.468 124.919L175.751 124.821C175.924 124.842 176.092 124.89 176.251 124.962L175.599 124.68C175.774 124.756 175.938 124.855 176.088 124.973L175.534 124.549C175.687 124.666 175.825 124.801 175.946 124.951L175.523 124.397C175.662 124.582 175.778 124.783 175.87 124.994L175.588 124.343C175.672 124.545 175.731 124.756 175.762 124.973L175.664 124.245C175.686 124.466 175.686 124.687 175.664 124.908L175.762 124.191C175.726 124.399 175.667 124.603 175.588 124.799L175.859 124.148C175.774 124.336 175.668 124.514 175.545 124.68L175.968 124.137C175.794 124.356 175.593 124.553 175.371 124.723L175.925 124.3C175.712 124.458 175.482 124.593 175.24 124.701L175.892 124.43C175.654 124.525 175.406 124.594 175.153 124.636L175.87 124.538C175.618 124.571 175.362 124.571 175.11 124.538L175.827 124.636C175.588 124.598 175.355 124.532 175.132 124.441L175.784 124.712C175.591 124.629 175.409 124.523 175.24 124.397L175.794 124.821C175.651 124.708 175.52 124.581 175.403 124.441L175.827 124.984C175.731 124.86 175.65 124.725 175.588 124.582L175.87 125.233C175.823 125.119 175.79 124.998 175.773 124.875L175.87 125.592C175.859 125.483 175.859 125.374 175.87 125.266L175.773 125.993C175.786 125.881 175.815 125.772 175.859 125.668L175.588 126.319C175.639 126.191 175.709 126.07 175.794 125.961L175.371 126.504C175.478 126.383 175.595 126.271 175.718 126.167L175.164 126.601C175.394 126.424 175.646 126.278 175.914 126.167L175.262 126.439L175.631 126.297C176.31 126.096 176.89 125.651 177.261 125.049C177.621 124.426 177.72 123.686 177.537 122.991C177.354 122.295 176.903 121.7 176.283 121.335C175.97 121.152 175.622 121.034 175.262 120.987C174.902 120.941 174.537 120.967 174.187 121.064L174.252 121.031Z" fill="#004D2B"/>
<path d="M217.777 15.907C215.279 12.7366 207.806 10.1633 206.459 9.88097C204.688 9.52267 203.124 9.43578 201.332 8.96889C198.529 8.24142 195.184 8.68658 192.294 8.68658C182.377 8.68658 171.232 11.1296 164.291 18.9689C158.187 25.8527 158.122 37.97 158.306 46.6996C158.447 53.2143 161.141 60.0004 164.639 65.6139C170.668 75.2773 178.51 82.0959 189.948 84.9624C195.022 86.2807 200.35 86.2657 205.417 84.9188C210.483 83.5719 215.115 80.9388 218.863 77.2751C224.848 71.5748 229.954 55.0818 221.611 49.1101C217.516 46.1785 212.922 44.1155 207.882 44.0829C204.623 44.0829 198.92 45.2339 195.933 43.8224C197.649 42.2806 202.657 42.4 204.894 41.8896C206.951 41.4405 208.936 40.7098 210.793 39.7181C213.172 38.4694 216.224 37.2099 218.212 35.375C220.199 33.54 221.177 30.3153 221.622 27.7745C222.448 23.0948 221.373 19.0883 217.755 16.0156" fill="#F3BC61"/>
<path d="M219.7 13.9523C217.527 11.2596 213.899 9.71774 210.738 8.43652C207.634 7.33496 204.423 6.55986 201.158 6.12381C198.604 5.79456 196.024 5.72543 193.457 5.91751C191.404 5.98266 189.372 5.97183 187.319 6.14555C183.154 6.44934 179.048 7.30741 175.11 8.6971C167.148 11.6287 160.555 17.0359 157.731 25.2226C156.483 29.2141 155.782 33.3558 155.645 37.5353C155.327 41.512 155.367 45.5093 155.765 49.4789C156.851 58.6971 161.608 67.3073 167.626 74.2563C172.89 80.364 179.808 84.8208 187.547 87.0902C191.852 88.4001 196.375 88.8386 200.851 88.3799C205.328 87.9213 209.667 86.5747 213.617 84.4191C217.165 82.5267 220.283 79.9204 222.774 76.7644C224.679 74.1483 226.146 71.2404 227.119 68.1542C229.193 61.8893 229.715 54.0391 225.185 48.7188C223.866 47.3182 222.333 46.1346 220.645 45.2118C218.65 44.0015 216.516 43.0355 214.29 42.3345C210.141 41.0533 206.198 41.4659 201.962 41.7047C201.046 41.7536 200.129 41.7536 199.214 41.7047C198.849 41.7012 198.486 41.6685 198.127 41.607L197.649 41.4984C197.584 41.4984 196.954 41.2704 197.258 41.4115L197.812 45.6678C197.552 45.8849 197.888 45.6678 198.04 45.6026C198.457 45.4638 198.881 45.3514 199.311 45.266C200.137 45.1032 200.962 45.0163 201.799 44.9295C203.679 44.7875 205.542 44.4639 207.36 43.9632C209.516 43.2123 211.608 42.29 213.617 41.2052C215.763 40.2473 217.781 39.0255 219.624 37.5679C222.882 34.7558 224.327 29.6961 224.544 25.505C224.673 23.3249 224.297 21.1444 223.445 19.1332C222.594 17.1221 221.29 15.3342 219.635 13.9088C219.118 13.4169 218.431 13.1426 217.717 13.1426C217.004 13.1426 216.317 13.4169 215.8 13.9088C215.297 14.4222 215.016 15.1121 215.016 15.8307C215.016 16.5492 215.297 17.2391 215.8 17.7525C217.056 18.7889 218.018 20.1365 218.59 21.6607C219.161 23.185 219.323 24.8324 219.059 26.4387C218.834 28.2652 218.286 30.0373 217.44 31.6722C216.592 33.0868 215.345 34.2199 213.856 34.9295C210.597 36.7536 207.078 38.7297 203.374 39.2726C203.776 39.2075 202.928 39.2726 202.852 39.2726L201.462 39.4138C200.495 39.5223 199.539 39.6309 198.584 39.7937C196.907 40.0095 195.32 40.6735 193.989 41.7156C193.699 42.0104 193.479 42.3673 193.348 42.7594C193.216 43.1515 193.175 43.5685 193.229 43.9786C193.282 44.3887 193.428 44.7813 193.656 45.1267C193.883 45.472 194.187 45.761 194.543 45.9718C197.975 47.4702 201.679 47.0576 205.307 46.7319C209.048 46.3505 212.819 47.0555 216.169 48.7623C217.75 49.5687 219.224 50.568 220.558 51.7373C221.329 52.4672 221.949 53.3416 222.383 54.3106C223.266 56.7421 223.498 59.3622 223.056 61.911C222.637 64.8248 221.749 67.6517 220.428 70.2824C219.292 72.7094 217.625 74.8503 215.55 76.5472C212.611 79.0514 209.184 80.9178 205.485 82.0281C201.787 83.1383 197.898 83.4682 194.065 82.9968C179.118 81.1401 166.996 68.8166 162.477 54.8643C161.347 51.0912 160.827 47.1619 160.935 43.2248C160.859 39.6924 161.066 36.1595 161.554 32.6602C161.963 29.1568 163.071 25.7711 164.813 22.7036C166.739 19.8301 169.353 17.4826 172.416 15.8741C178.999 12.1499 186.287 11.5961 193.674 11.3681C195.843 11.1475 198.03 11.1803 200.191 11.4658C202.081 11.8676 204.036 12.0738 205.916 12.5516C208.292 13.1624 210.57 14.1055 212.683 15.3529C213.925 15.9553 215.033 16.8009 215.941 17.8394C216.452 18.344 217.141 18.6269 217.859 18.6269C218.576 18.6269 219.265 18.344 219.776 17.8394C220.274 17.3233 220.552 16.6344 220.552 15.9175C220.552 15.2007 220.274 14.5117 219.776 13.9957L219.7 13.9523Z" fill="#004D2B"/>
<path d="M184.061 63.1701C187.559 63.1701 187.569 57.7412 184.061 57.7412C180.552 57.7412 180.563 63.1701 184.061 63.1701Z" fill="#004D2B"/>
<path d="M208.533 59.3381C212.02 59.3381 212.031 53.9092 208.533 53.9092C205.036 53.9092 205.036 59.3381 208.533 59.3381Z" fill="#004D2B"/>
<path d="M197.563 64.0177C201.06 64.0177 201.06 58.5889 197.563 58.5889C194.065 58.5889 194.065 64.0177 197.563 64.0177Z" fill="#004D2B"/>
<path d="M193.044 73.1921L193.522 73.3115C193.011 73.0292 194.065 73.4744 193.522 73.3115C193.793 73.4744 194.076 73.6264 194.358 73.7784C195.07 74.1941 195.833 74.5153 196.628 74.7339C198.201 75.0975 199.836 75.0975 201.408 74.7339C202.718 74.3801 203.922 73.7131 204.916 72.7904C205.519 72.4168 206.028 71.9105 206.404 71.3102C206.781 70.7098 207.015 70.0314 207.089 69.3267C207.083 68.6086 206.795 67.9214 206.287 67.4136C205.779 66.9058 205.092 66.618 204.373 66.6123C203.657 66.6262 202.975 66.9167 202.469 67.4227C201.962 67.9288 201.672 68.6112 201.658 69.3267C201.69 68.9503 201.79 68.5826 201.951 68.241C201.832 68.4581 201.69 68.4581 202.19 67.9587C202.07 68.0889 201.962 68.2192 201.842 68.3387C201.549 68.6101 201.245 68.849 200.941 69.0987C201.679 68.4907 201.212 68.8924 201.028 69.0336L200.517 69.3702C200.202 69.5656 200.604 69.3159 200.724 69.305C200.59 69.3348 200.46 69.3747 200.333 69.4244C200.202 69.4244 200.072 69.4896 199.931 69.5222H199.811C199.866 69.5222 200.246 69.457 199.811 69.5222H199.409H198.551H198.225C198.855 69.5222 198.649 69.5873 198.399 69.5222C198.149 69.457 197.889 69.381 197.628 69.305C197.367 69.229 198.247 69.609 197.726 69.305L197.421 69.153L196.672 68.7296C196.03 68.3415 195.329 68.0591 194.597 67.8935C193.888 67.7237 193.14 67.8243 192.501 68.1758C192.038 68.4433 191.665 68.8419 191.429 69.3212C191.193 69.8006 191.104 70.3391 191.174 70.8689C191.243 71.3986 191.468 71.8958 191.821 72.2977C192.173 72.6996 192.636 72.9882 193.153 73.127L193.044 73.1921Z" fill="#004D2B"/>
<path d="M89.9939 114.462C88.5274 114.586 87.0739 114.833 85.649 115.201C83.6503 115.624 81.6625 116.069 79.6747 116.514C78.1106 116.873 76.5464 117.242 74.9822 117.6C73.896 117.828 72.8098 118.165 71.7236 118.414C71.6149 118.414 70.8763 118.653 71.2782 118.512H71.137C70.956 118.512 70.956 118.512 71.137 118.512C71.2674 118.414 71.2891 118.621 71.061 118.512L71.7996 119.261C72.4079 120.152 72.636 120.347 72.4948 119.848C72.4738 119.708 72.441 119.57 72.397 119.435C72.3159 119.077 72.2543 118.714 72.2124 118.349C72.0602 116.391 72.0602 114.423 72.2124 112.464C72.2124 111.596 72.4079 110.771 72.5274 109.913C72.6468 109.055 72.6034 107.893 72.7664 106.916C72.8984 106.339 72.8493 105.736 72.6257 105.188C72.4022 104.64 72.0151 104.174 71.5172 103.854L71.2674 103.68C70.6458 103.319 69.9067 103.218 69.2109 103.399C68.5152 103.58 67.9192 104.029 67.5525 104.647C67.2057 105.274 67.1138 106.011 67.2958 106.704C67.4778 107.398 67.9197 107.995 68.5301 108.371L68.7691 108.545L67.4004 105.396C67.2435 106.436 67.1456 107.483 67.1071 108.534C67.1071 109.522 66.8356 110.499 66.727 111.487C66.5586 113.368 66.5259 115.259 66.6292 117.144C66.6943 118.86 66.7161 121.487 67.9978 122.844C69.2796 124.202 71.2565 123.93 72.9076 123.648C74.8519 123.246 76.7854 122.714 78.7406 122.28C80.8696 121.788 83.0059 121.31 85.1494 120.847C86.2356 120.597 87.4304 120.347 88.5818 120.119L89.7984 119.902C90.3306 119.804 89.9504 119.902 89.6028 119.902C89.7221 119.891 89.8421 119.891 89.9613 119.902C90.6772 119.888 91.3598 119.598 91.8661 119.092C92.3724 118.585 92.663 117.903 92.6769 117.188C92.6684 116.47 92.3796 115.785 91.8722 115.277C91.3647 114.77 90.6789 114.482 89.9613 114.473L89.9939 114.462Z" fill="#004D2B"/>
<path d="M71.4846 97.3396H71.1261C70.7612 97.3727 70.3985 97.4271 70.0399 97.5025C69.551 97.6369 69.0777 97.8224 68.6278 98.0562C67.9945 98.3344 67.4271 98.7433 66.9628 99.256C66.4986 99.7687 66.148 100.374 65.934 101.031C65.8201 101.382 65.7578 101.748 65.7493 102.117C65.717 102.366 65.717 102.618 65.7493 102.866C65.7689 103.136 65.8237 103.403 65.9123 103.659C66.1328 104.285 66.4762 104.861 66.9225 105.353C67.194 105.654 67.5178 105.904 67.8783 106.091C68.3379 106.334 68.839 106.489 69.3556 106.547C69.6509 106.591 69.951 106.591 70.2463 106.547C70.6672 106.525 71.0834 106.448 71.4846 106.319C71.8943 106.181 72.2905 106.007 72.6686 105.798C73.0234 105.577 73.3612 105.331 73.6788 105.059C73.8365 104.932 73.9819 104.79 74.1133 104.636C74.3867 104.334 74.6304 104.007 74.841 103.659C74.9797 103.38 75.1031 103.094 75.2104 102.801C75.2458 102.713 75.2748 102.622 75.2973 102.53C75.5459 101.531 75.4061 100.476 74.9062 99.5763C74.6984 99.218 74.4344 98.8954 74.1241 98.6208C73.7999 98.3174 73.4341 98.0615 73.0379 97.8608C72.712 97.7196 72.3753 97.5676 72.0386 97.459C71.6846 97.3551 71.3204 97.2896 70.9524 97.2636C70.22 97.2463 69.4951 97.4144 68.8451 97.7522C68.3961 97.969 67.9939 98.2715 67.6611 98.6426C67.306 99.0035 67.0092 99.4174 66.7812 99.8695C66.6232 100.201 66.4854 100.542 66.3685 100.89C66.2709 101.268 66.2055 101.653 66.173 102.041C66.1312 102.558 66.1715 103.078 66.2924 103.583C66.3867 103.931 66.5141 104.269 66.6727 104.593C66.8327 104.907 67.0376 105.195 67.2809 105.45C67.5856 105.805 67.954 106.1 68.3672 106.319C69.2862 106.82 70.3183 107.078 71.3651 107.068C72.5734 107.063 73.736 106.606 74.6238 105.787C74.7433 105.668 74.8411 105.526 74.9497 105.396C75.0583 105.266 75.1886 105.092 75.2864 104.929C75.4178 104.672 75.5339 104.407 75.634 104.137C75.6679 104.044 75.6969 103.95 75.7209 103.854C75.895 103.083 75.8726 102.28 75.6557 101.52C75.5036 100.968 75.2654 100.444 74.9497 99.9672C74.6484 99.4986 74.2827 99.0746 73.8635 98.7077C73.0186 98.0043 72.0646 97.4432 71.0392 97.0464C70.5852 96.8805 70.1017 96.8106 69.6192 96.8409C69.1367 96.8712 68.6658 97.0011 68.2361 97.2225C67.8064 97.4439 67.4272 97.7519 67.1226 98.1272C66.818 98.5024 66.5945 98.9367 66.4663 99.4026C66.3315 99.9954 66.3484 100.613 66.5155 101.197C66.6825 101.782 66.9944 102.315 67.4221 102.747C67.6737 103.001 67.9731 103.203 68.3031 103.34C68.6331 103.478 68.9871 103.549 69.3447 103.549C69.7023 103.549 70.0564 103.478 70.3864 103.34C70.7164 103.203 71.0158 103.001 71.2674 102.747C71.519 102.496 71.7187 102.198 71.8548 101.87C71.9908 101.543 72.0607 101.191 72.0603 100.836C72.0438 100.119 71.7612 99.434 71.2674 98.914L71.1804 98.8163L71.6041 99.3591C71.5539 99.2969 71.5137 99.2273 71.4846 99.1528L71.7562 99.8044C71.745 99.736 71.745 99.6664 71.7562 99.5981L71.8539 100.326C71.843 100.275 71.843 100.224 71.8539 100.173L71.7562 100.901C71.75 100.84 71.75 100.778 71.7562 100.716L71.4846 101.368C71.5041 101.307 71.5375 101.251 71.5823 101.205L71.1479 101.748L71.2891 101.618L70.7351 102.041L70.9089 101.943L70.2681 102.226C70.3329 102.216 70.3987 102.216 70.4636 102.226L69.7466 102.323H69.9639L69.247 102.226C69.3705 102.247 69.491 102.283 69.6055 102.334L68.9537 102.063C69.2543 102.193 69.5447 102.345 69.8227 102.519C70.0508 102.66 70.2897 102.801 70.507 102.964L69.9639 102.54C70.1895 102.715 70.3904 102.92 70.5613 103.148L70.1377 102.595C70.3168 102.825 70.4664 103.077 70.583 103.344L70.3115 102.692C70.4008 102.901 70.4628 103.12 70.4961 103.344L70.3984 102.616C70.4202 102.779 70.4202 102.943 70.3984 103.105L70.4961 102.378C70.4751 102.503 70.4424 102.627 70.3984 102.747L70.6699 102.095C70.6157 102.216 70.5463 102.329 70.4636 102.432L70.8872 101.889C70.8193 101.969 70.7427 102.042 70.6591 102.106L71.2131 101.683C71.1125 101.76 71.0031 101.826 70.8872 101.878L71.5389 101.596C71.3426 101.683 71.1335 101.738 70.9198 101.759L71.6475 101.661C71.3555 101.699 71.0597 101.699 70.7677 101.661L71.4955 101.759C71.2051 101.716 70.9207 101.64 70.6482 101.531L71.3 101.802C71.1057 101.727 70.9228 101.624 70.7569 101.498L71.3108 101.922C71.2027 101.839 71.1043 101.744 71.0175 101.639L71.452 102.182C71.385 102.096 71.3303 102.001 71.2891 101.9L71.5607 102.551C71.4957 102.391 71.4519 102.223 71.4303 102.052L71.528 102.779C71.5009 102.552 71.5009 102.323 71.528 102.095L71.4303 102.823C71.4724 102.578 71.5379 102.338 71.6258 102.106L71.3543 102.758C71.4494 102.553 71.562 102.357 71.691 102.171L71.2674 102.714C71.3918 102.557 71.534 102.415 71.691 102.291L71.1479 102.714C71.2679 102.622 71.3993 102.545 71.5389 102.486L70.8872 102.758C71.0107 102.714 71.1379 102.681 71.2674 102.66L70.5505 102.758H70.9198L70.192 102.66C70.4315 102.699 70.6651 102.768 70.8872 102.866L70.2463 102.595C70.4508 102.68 70.6441 102.789 70.822 102.921L70.2681 102.497C70.375 102.573 70.4702 102.665 70.5505 102.769L70.116 102.215C70.1804 102.299 70.2351 102.39 70.2789 102.486L70.0074 101.835C70.0477 101.932 70.0768 102.034 70.0942 102.139L69.9965 101.422C70.0074 101.527 70.0074 101.632 69.9965 101.737L70.0942 101.01C70.0725 101.155 70.0324 101.297 69.9747 101.433L70.2463 100.792C70.1637 100.973 70.0617 101.144 69.9422 101.303L70.3658 100.749C70.1916 100.968 69.9909 101.165 69.7684 101.335L70.3223 100.912C70.0844 101.091 69.8254 101.241 69.5511 101.357L70.2029 101.086C69.987 101.175 69.7607 101.237 69.5294 101.27L70.2572 101.172C70.0808 101.199 69.9013 101.199 69.7249 101.172L70.4418 101.27C70.3109 101.251 70.1831 101.214 70.0617 101.162L70.7025 101.433C70.598 101.387 70.4995 101.329 70.4093 101.259L70.9633 101.683C70.8658 101.607 70.7782 101.52 70.7025 101.422L71.1261 101.976C71.0323 101.851 70.9522 101.716 70.8872 101.574L71.1696 102.226C71.1063 102.084 71.0624 101.934 71.0392 101.78L71.137 102.508C71.1153 102.371 71.1153 102.232 71.137 102.095L71.0392 102.823C71.0588 102.688 71.0953 102.557 71.1479 102.432L70.8655 103.083C70.9316 102.933 71.0154 102.791 71.1153 102.66L70.6917 103.214C70.8306 103.042 70.9872 102.886 71.1588 102.747L70.6157 103.17C70.8754 102.977 71.1559 102.813 71.452 102.682L70.8112 102.953C71.1248 102.821 71.4529 102.726 71.7887 102.671L71.061 102.769H71.4629C72.0007 102.769 72.5267 102.611 72.9741 102.313C73.4216 102.014 73.7704 101.59 73.9763 101.094C74.1822 100.597 74.236 100.05 74.1308 99.5232C74.0256 98.996 73.7663 98.5119 73.3855 98.1322C72.8664 97.6368 72.1804 97.354 71.4629 97.3396H71.4846Z" fill="#004D2B"/>
<path d="M226.25 58.9574C228.312 59.1176 230.387 59.0044 232.419 58.6208C234.353 58.0999 236.107 57.0598 237.492 55.6132C238.675 54.3295 239.59 52.8237 240.186 51.1832C240.569 49.9919 240.813 48.7605 240.914 47.5133C241.098 45.4503 240.457 43.4199 238.361 42.6599C237.665 42.4758 236.926 42.5717 236.3 42.9269C235.674 43.2822 235.213 43.8686 235.015 44.56C234.843 45.2533 234.944 45.9864 235.298 46.6071C235.652 47.2278 236.232 47.6884 236.916 47.8933C236.382 47.7514 235.925 47.404 235.645 46.927C235.83 47.2418 235.374 46.1126 235.515 46.6447C235.656 47.1767 235.515 45.9498 235.515 46.3841C235.515 46.5252 235.515 46.6664 235.515 46.8075C235.515 46.9487 235.515 47.3612 235.515 47.6327C235.515 48.0996 235.635 46.8401 235.515 47.5241C235.515 47.687 235.515 47.8499 235.428 48.0127C235.33 48.5378 235.199 49.0563 235.037 49.5654C235.037 49.6523 234.972 49.75 234.95 49.8368C234.842 50.1843 235.374 48.9248 235.059 49.5437C234.863 49.9345 234.668 50.3146 234.451 50.6294C234.353 50.8032 234.244 50.9661 234.136 51.1398L233.94 51.4112C233.777 51.6501 233.81 51.5958 234.06 51.2701C233.929 51.2701 233.723 51.6718 233.625 51.7804C233.527 51.8889 233.31 52.0952 233.147 52.2472L232.886 52.4644C233.223 52.2147 233.267 52.1821 233.038 52.345L232.604 52.6273L231.941 52.9747L231.605 53.1376C231.333 53.257 231.387 53.2353 231.778 53.0724C231.626 53.0724 231.311 53.2353 231.159 53.2896L230.54 53.4416C231.127 53.4416 229.997 53.5719 230.54 53.4416H229.791C228.607 53.4416 227.412 53.4416 226.228 53.4416C225.508 53.4416 224.817 53.7276 224.308 54.2367C223.798 54.7457 223.512 55.4362 223.512 56.1561C223.512 56.876 223.798 57.5664 224.308 58.0755C224.817 58.5845 225.508 58.8705 226.228 58.8705L226.25 58.9574Z" fill="#004D2B"/>
<path d="M237.514 38.0243C237.349 37.9989 237.188 37.9514 237.036 37.8831L237.677 38.1546C237.077 37.8185 236.408 37.6219 235.722 37.5792C234.758 37.5929 233.838 37.9826 233.158 38.6649C233.017 38.8046 232.89 38.9573 232.778 39.1209C232.651 39.2592 232.542 39.4123 232.452 39.577C232.267 39.9157 232.139 40.2825 232.072 40.6627C232 41.0423 231.96 41.4273 231.953 41.8136C231.96 42.2 232 42.585 232.072 42.9646C232.095 43.1169 232.135 43.2663 232.192 43.4098C232.53 44.4664 233.23 45.3699 234.169 45.9613C234.6 46.2498 235.078 46.4628 235.581 46.5911C236.098 46.7444 236.639 46.8068 237.177 46.7757C237.816 46.73 238.441 46.5719 239.024 46.3088C239.59 46.0724 240.111 45.742 240.566 45.3316C240.994 44.9309 241.338 44.4489 241.576 43.9138C241.815 43.3786 241.944 42.8012 241.957 42.2154C241.966 41.614 241.846 41.0176 241.604 40.4668C241.362 39.916 241.005 39.4236 240.556 39.0232C239.593 38.0705 238.322 37.4929 236.971 37.3945H236.862C236.581 37.4086 236.301 37.4449 236.026 37.5031H235.961C235.715 37.5866 235.475 37.6882 235.244 37.8071C234.949 37.9755 234.678 38.1838 234.44 38.426C233.971 38.9131 233.641 39.5166 233.484 40.1741C233.348 40.7269 233.348 41.3043 233.484 41.8571C233.558 42.1206 233.66 42.3753 233.788 42.6171C233.916 42.8495 234.077 43.0617 234.266 43.2469C234.669 43.643 235.171 43.9237 235.719 44.0593C236.268 44.1949 236.843 44.1806 237.384 44.0178C237.838 43.8923 238.252 43.6512 238.585 43.3182C238.918 42.9852 239.159 42.5716 239.285 42.1177L239.372 41.7268C239.551 41.0228 239.453 40.2768 239.1 39.6421C238.933 39.3328 238.69 39.0712 238.394 38.882C238.136 38.6385 237.817 38.4696 237.471 38.3935C236.778 38.2034 236.038 38.2955 235.413 38.6496C234.788 39.0037 234.329 39.5909 234.136 40.2827L234.049 40.6845L235.939 38.7844H235.787L236.515 38.6866C236.472 38.6976 236.427 38.6976 236.384 38.6866L237.101 38.7844H237.025L237.677 39.0558H237.612L238.155 39.4793L238.09 39.4141L238.513 39.957V39.8919L238.785 40.5433C238.78 40.5 238.78 40.4563 238.785 40.413L238.883 41.1296V40.9233L238.785 41.64C238.804 41.5549 238.829 41.4713 238.861 41.3902L238.589 42.0308C238.626 41.9455 238.674 41.8652 238.731 41.792L238.307 42.3457C238.357 42.2799 238.415 42.2215 238.481 42.172L237.927 42.5954L238.079 42.5086L237.427 42.78C237.499 42.77 237.572 42.77 237.644 42.78L236.927 42.8778C237.018 42.8664 237.109 42.8664 237.199 42.8778L236.482 42.78C236.615 42.8061 236.746 42.8423 236.873 42.8886L236.222 42.6171C236.59 42.7927 236.936 43.0114 237.253 43.2686L236.699 42.8451C236.832 42.9468 236.952 43.0634 237.058 43.1926L236.634 42.6388C236.723 42.7552 236.796 42.883 236.852 43.0188L236.58 42.3674C236.623 42.4838 236.655 42.6037 236.678 42.7257L236.58 42.0091C236.602 42.1385 236.602 42.2706 236.58 42.4L236.678 41.6834C236.658 41.8142 236.622 41.942 236.569 42.0634L236.852 41.4228C236.789 41.5628 236.709 41.6941 236.613 41.8136L237.036 41.2599C236.93 41.4021 236.806 41.5299 236.667 41.64L237.21 41.2165C237.047 41.3408 236.868 41.443 236.678 41.5205L237.329 41.2491C237.116 41.3336 236.894 41.3919 236.667 41.4228L237.395 41.325C237.153 41.3577 236.908 41.3577 236.667 41.325L237.384 41.4228C237.167 41.3932 236.955 41.3348 236.754 41.2491L237.395 41.5205C237.214 41.4418 237.043 41.3434 236.884 41.2274L237.438 41.6508C237.298 41.5418 237.171 41.418 237.058 41.2816L237.481 41.8245C237.371 41.6856 237.279 41.5322 237.21 41.3685L237.481 42.0091C237.408 41.8398 237.36 41.6605 237.34 41.4771L237.427 42.1937C237.4 41.9229 237.4 41.6501 237.427 41.3794L237.329 42.1068C237.347 41.9884 237.376 41.872 237.416 41.7594L237.145 42.4108C237.177 42.3257 237.221 42.2454 237.275 42.172L236.852 42.7257C236.948 42.6128 237.054 42.5075 237.167 42.4108L236.623 42.8451C236.692 42.7919 236.764 42.7446 236.841 42.704L236.2 42.9863H236.352L235.635 43.0841H235.776L235.059 42.9863C235.157 43.0003 235.253 43.0296 235.342 43.0732L234.69 42.8017C235.133 43.0361 235.604 43.2147 236.091 43.3338C236.447 43.4307 236.822 43.4307 237.177 43.3338C237.529 43.3008 237.869 43.1925 238.174 43.0164C238.48 42.8403 238.744 42.6004 238.948 42.3131C239.184 42.0498 239.351 41.733 239.437 41.3902C239.621 40.6829 239.524 39.9317 239.165 39.2946L238.742 38.7409C238.406 38.4097 237.991 38.1704 237.536 38.046L237.514 38.0243Z" fill="#004D2B"/>
<path d="M169.299 70.814C167.675 70.7441 166.05 70.9161 164.476 71.3243C162.739 71.8323 161.172 72.8046 159.947 74.1365C158.768 75.501 157.855 77.0733 157.253 78.7727C156.815 80.5029 156.69 82.2973 156.884 84.0713C156.884 84.7913 157.17 85.4817 157.679 85.9907C158.188 86.4998 158.879 86.7858 159.599 86.7858C160.319 86.7858 161.01 86.4998 161.519 85.9907C162.029 85.4817 162.315 84.7913 162.315 84.0713C162.315 83.3004 162.239 82.5295 162.239 81.7586C162.239 81.5849 162.239 81.4003 162.239 81.2265C162.233 81.1362 162.233 81.0455 162.239 80.9551C162.239 80.7379 162.239 80.8357 162.239 81.2483C162.334 80.9769 162.403 80.6969 162.445 80.4122C162.445 80.2602 162.554 80.1082 162.608 79.9453C162.662 79.7825 162.315 80.5968 162.608 80.0431C162.749 79.7391 162.912 79.435 163.075 79.131C163.238 78.827 163.401 78.5881 163.586 78.3275C163.77 78.067 163.792 78.0778 163.857 77.9475C163.575 78.295 163.531 78.3601 163.705 78.143L163.846 77.9801C164.038 77.7631 164.241 77.5565 164.455 77.3612C163.944 77.7086 164.759 77.0789 164.455 77.3612L164.867 77.0789C165.138 76.9122 165.417 76.7599 165.704 76.6229C166.171 76.3731 165.139 76.8183 165.595 76.6229C165.758 76.6229 165.921 76.5035 166.084 76.46C166.384 76.3747 166.689 76.3058 166.996 76.2537C167.485 76.156 166.312 76.3189 166.855 76.2537H167.3C167.996 76.2537 168.691 76.2537 169.386 76.2537C170.106 76.2537 170.797 75.9677 171.306 75.4587C171.815 74.9496 172.102 74.2592 172.102 73.5393C172.102 72.8194 171.815 72.129 171.306 71.6199C170.797 71.1108 170.106 70.8249 169.386 70.8249L169.299 70.814Z" fill="#004D2B"/>
<path d="M215.474 83.8872C215.659 84.0718 215.844 84.2564 216.017 84.4518C216.191 84.6473 216.713 85.2228 216.235 84.6799C216.583 85.1123 216.889 85.5777 217.147 86.0696C217.436 86.5413 217.686 87.035 217.897 87.5463C217.625 86.8622 217.897 87.72 217.984 87.8503C218.07 87.9806 218.157 88.3606 218.222 88.6104C218.288 88.8601 218.342 89.1424 218.407 89.403C218.472 89.6636 218.407 89.707 218.407 89.3487V89.7938C218.407 90.391 218.407 91.0207 218.407 91.6179C218.407 91.9111 218.407 91.8568 218.461 91.4551C218.461 91.5854 218.461 91.7048 218.385 91.8351C218.309 91.9654 218.255 92.3563 218.201 92.6169C218.021 93.2667 217.948 93.9414 217.984 94.6147C217.997 95.3302 218.288 96.0126 218.794 96.5187C219.3 97.0248 219.983 97.3152 220.699 97.3291C221.418 97.3234 222.105 97.0357 222.613 96.5278C223.121 96.02 223.409 95.3328 223.415 94.6147C223.415 94.4952 223.415 94.3867 223.415 94.2672C223.415 93.7243 223.306 94.6581 223.415 94.3432C223.523 94.0284 223.534 93.833 223.599 93.5724C223.78 92.8145 223.875 92.0387 223.882 91.2597C223.917 89.8173 223.749 88.3771 223.382 86.9817C222.626 84.3599 221.217 81.9727 219.287 80.0436C218.774 79.5498 218.088 79.2771 217.376 79.2843C216.664 79.2915 215.983 79.5779 215.48 80.0819C214.977 80.5859 214.693 81.2672 214.688 81.9789C214.682 82.6907 214.957 83.376 215.453 83.8872H215.474Z" fill="#004D2B"/>
<path d="M14.6749 79.8368C13.7708 80.9038 12.9568 82.0442 12.2417 83.2461C11.5252 84.4974 11.0085 85.8528 10.7102 87.2634C10.3843 88.5447 9.91728 89.7716 9.51538 91.0311C9.46107 91.1831 9.4176 91.3351 9.36329 91.4871C9.30898 91.6391 9.14605 91.9214 9.36329 91.6174C9.58054 91.3134 9.28727 91.7368 9.24382 91.8128C9.20037 91.8888 9.12429 92.0517 9.05912 92.1712C8.60442 92.9776 8.38613 93.8958 8.42916 94.8205C8.44306 95.536 8.73363 96.2184 9.23991 96.7245C9.7462 97.2306 10.4289 97.521 11.1447 97.5349C12.4699 97.5349 14.0341 96.3406 13.8603 94.8205C13.8603 94.5164 13.8602 94.5816 13.7625 94.9942C13.7922 94.8694 13.8284 94.7461 13.8711 94.625C13.719 94.9725 13.7082 95.005 13.8711 94.7336C14.034 94.4621 14.0015 94.4948 14.0558 94.3753C14.3741 93.7246 14.6393 93.0492 14.8487 92.3557C15.2289 91.27 15.6634 90.0865 15.9349 88.9138C16.0761 88.3818 16.1956 87.8281 16.3477 87.3286C16.4275 87.0475 16.5255 86.7719 16.641 86.5034C16.3477 87.1223 16.793 86.2646 16.8582 86.156C17.1623 85.6674 17.4774 85.1679 17.8033 84.6902C17.9662 84.4404 18.14 84.2016 18.3138 83.9627C18.4876 83.7238 18.4876 83.7238 18.3138 83.9627L18.5853 83.637C19.0824 83.1228 19.3603 82.4356 19.3603 81.7206C19.3603 81.0055 19.0824 80.3184 18.5853 79.8042C18.0749 79.2996 17.386 79.0166 16.6681 79.0166C15.9503 79.0166 15.2614 79.2996 14.751 79.8042L14.6749 79.8368Z" fill="#004D2B"/>
<path d="M65.8579 83.3229C66.3655 85.4298 67.4311 87.3612 68.9428 88.9146C70.2008 90.5265 71.8845 91.7548 73.8038 92.4608C75.7232 93.1668 77.8018 93.3225 79.805 92.9103C81.8362 92.6388 83.6176 91.4879 85.638 91.1188C86.3313 90.9235 86.9197 90.4628 87.2755 89.8368C87.6313 89.2108 87.726 88.4699 87.5389 87.7746C87.3293 87.0913 86.8655 86.5145 86.2431 86.163C85.6206 85.8115 84.887 85.7121 84.1934 85.8853C82.4989 86.1893 81.0216 87.0579 79.3814 87.5031C79.3814 87.5031 78.7079 87.6334 79.0772 87.5791C79.4466 87.5248 78.9034 87.5791 78.8491 87.5791C78.4689 87.5791 78.0996 87.5791 77.7629 87.5791C77.4262 87.5791 76.97 87.5791 76.5681 87.5791H76.1336C76.5355 87.5791 76.3617 87.5791 76.0684 87.5791C75.7751 87.5791 75.7534 87.4705 75.6013 87.438C75.232 87.3403 76.0684 87.7094 75.4492 87.362C75.1125 87.1665 74.7867 86.9711 74.4717 86.7539C74.1567 86.5368 74.7323 86.9819 74.3956 86.7539L73.8959 86.3305C73.6135 86.0699 73.3419 85.7876 73.0704 85.5053C72.7988 85.223 72.5816 84.9624 72.3535 84.6801C72.2558 84.5715 72.158 84.4087 72.3535 84.615C72.2232 84.4304 72.0928 84.2458 71.9734 84.0504C71.8539 83.8549 71.7887 83.7246 71.7018 83.5617C71.6149 83.3989 71.4085 83.008 71.5606 83.3446C71.3862 82.9219 71.2587 82.4813 71.1804 82.0308C70.9874 81.3386 70.5287 80.7506 69.9042 80.3947C69.2797 80.0389 68.5398 79.944 67.8457 80.1307C67.1601 80.338 66.5805 80.8007 66.2267 81.4231C65.8729 82.0456 65.772 82.7801 65.9448 83.4749L65.8579 83.3229Z" fill="#004D2B"/>
<path d="M158.067 43.4963C157.863 43.4681 157.66 43.4283 157.459 43.3769C157.709 43.442 157.546 43.3769 157.383 43.3769C156.862 43.1122 156.325 42.8801 155.776 42.682C154.907 42.3888 154.027 42.1283 153.169 41.7917C151.256 40.9926 149.264 40.3958 147.227 40.011C145.068 39.7179 142.885 39.6378 140.71 39.7721C139.785 39.8397 138.871 40.0072 137.983 40.2716C137.47 40.3964 136.965 40.556 136.473 40.7493C136.168 40.8759 135.88 41.0401 135.615 41.2379C135.007 41.694 135.116 41.4334 135.832 41.2379C135.147 41.4452 134.567 41.9079 134.214 42.5304C133.86 43.1528 133.759 43.8873 133.932 44.5821C134.132 45.2715 134.594 45.8553 135.219 46.2084C135.844 46.5615 136.583 46.6559 137.277 46.4714C137.891 46.3185 138.455 46.0121 138.917 45.5811C139.189 45.3205 139.059 45.3965 138.505 45.7982L139.113 45.6245C139.515 45.5159 139.928 45.4182 140.329 45.2987C140.731 45.1793 140.699 45.2227 140.427 45.2987H141.025C142.879 45.1426 144.746 45.2045 146.586 45.4833C148.412 45.9147 150.202 46.4846 151.941 47.188C152.799 47.5246 153.701 47.7309 154.548 48.0675C154.744 48.1846 154.948 48.2897 155.156 48.3823C155.637 48.6146 156.15 48.7755 156.677 48.8601C157.37 49.0269 158.101 48.9234 158.721 48.5703C159.341 48.2173 159.802 47.6413 160.012 46.9599C160.359 45.7004 159.577 43.8221 158.122 43.6267L158.067 43.4963Z" fill="#004D2B"/>
<path d="M134.8 42.638C134.31 42.1185 133.686 41.7431 132.997 41.5522C132.643 41.4569 132.278 41.4022 131.911 41.3893C131.749 41.3676 131.585 41.3676 131.422 41.3893C130.666 41.4347 129.926 41.6343 129.25 41.9756C129.033 42.0904 128.829 42.2287 128.642 42.3882C128.428 42.5319 128.234 42.7035 128.066 42.8985C127.543 43.464 127.17 44.1506 126.98 44.8964C126.8 45.6349 126.8 46.4055 126.98 47.144C127.252 48.1748 127.836 49.0964 128.652 49.7824C129.478 50.491 130.444 51.0165 131.487 51.3242C132.016 51.4793 132.566 51.5489 133.117 51.5305C133.872 51.5048 134.614 51.3159 135.289 50.9767C135.502 50.8593 135.702 50.7211 135.887 50.5641C136.093 50.4153 136.286 50.2482 136.462 50.0647C136.96 49.5397 137.331 48.9085 137.549 48.2189C137.879 46.9019 137.697 45.5085 137.038 44.3209C136.842 43.9716 136.608 43.644 136.343 43.3437C136.227 43.1968 136.096 43.0622 135.952 42.942C135.355 42.453 134.669 42.0843 133.932 41.8562C133.369 41.6866 132.79 41.581 132.204 41.5413C131.835 41.5413 131.455 41.5413 131.118 41.4762C130.397 41.4825 129.707 41.7709 129.196 42.2796C128.688 42.7884 128.403 43.4776 128.403 44.196C128.403 44.9145 128.688 45.6036 129.196 46.1125C129.71 46.6143 130.399 46.8982 131.118 46.905C131.539 46.9127 131.96 46.9418 132.378 46.9919L131.661 46.8942C132.034 46.9338 132.4 47.0252 132.747 47.1656L132.107 46.8942C132.329 46.984 132.537 47.1046 132.726 47.2525L132.172 46.829C132.322 46.9462 132.457 47.0811 132.574 47.2308L132.139 46.6771C132.279 46.857 132.396 47.054 132.487 47.2634L132.215 46.6227C132.315 46.8598 132.388 47.1075 132.433 47.3611L132.335 46.6336C132.362 46.839 132.362 47.0471 132.335 47.2525L132.433 46.5359C132.412 46.7041 132.368 46.8685 132.302 47.0245L132.574 46.3839C132.516 46.5161 132.447 46.6432 132.367 46.7639L132.791 46.2101C132.686 46.3365 132.57 46.4529 132.443 46.5576L132.997 46.1342C132.875 46.2193 132.744 46.292 132.606 46.3513L133.258 46.0798C133.076 46.152 132.887 46.203 132.693 46.2319L133.41 46.1342C133.197 46.1613 132.982 46.1613 132.769 46.1342L133.486 46.2319C133.145 46.1863 132.812 46.0912 132.498 45.9496L133.149 46.221C132.798 46.0739 132.466 45.8843 132.161 45.6564L132.704 46.0798C132.473 45.896 132.262 45.6886 132.074 45.4609L132.509 46.0147C132.375 45.8381 132.258 45.6491 132.161 45.4501L132.433 46.0907C132.368 45.926 132.32 45.755 132.291 45.5804L132.389 46.3079C132.367 46.1276 132.367 45.9453 132.389 45.765L132.291 46.4816C132.322 46.3108 132.369 46.1436 132.433 45.9822L132.161 46.6227C132.219 46.4905 132.288 46.3634 132.367 46.2427L131.944 46.7856C132.034 46.6772 132.136 46.5788 132.248 46.4924L131.694 46.9159C131.832 46.816 131.982 46.7322 132.139 46.6662L131.487 46.9377C131.687 46.8605 131.895 46.8059 132.107 46.7748L131.379 46.8725C131.57 46.8508 131.763 46.8508 131.955 46.8725L131.238 46.7748C131.36 46.797 131.48 46.8298 131.596 46.8725L130.955 46.6011C131.066 46.652 131.172 46.7138 131.27 46.7856L130.716 46.3622C130.786 46.4153 130.848 46.4773 130.901 46.5467C131.412 47.0545 132.103 47.3395 132.824 47.3394C133.181 47.3408 133.534 47.2716 133.864 47.1357C134.195 46.9998 134.495 46.7999 134.747 46.5475C134.999 46.2952 135.199 45.9954 135.335 45.6654C135.471 45.3354 135.541 44.9818 135.539 44.6249L135.441 43.9083C135.317 43.4536 135.078 43.0386 134.746 42.7031L134.8 42.638Z" fill="#004D2B"/>
<path d="M43.0795 33.1708V33.3011L43.3511 32.6496C43.3159 32.7301 43.2722 32.8065 43.2208 32.8776L43.6444 32.3239C43.5578 32.4322 43.4594 32.5305 43.3511 32.6171L43.8942 32.1936C43.5996 32.4057 43.2912 32.598 42.971 32.7691C42.5362 33.0362 42.1287 33.3453 41.7544 33.692C40.8768 34.3365 40.196 35.2125 39.7883 36.2219C39.65 36.6551 39.6065 37.1129 39.6609 37.5644C39.7152 38.0159 39.8661 38.4505 40.1033 38.8385C40.6665 39.692 41.5318 40.301 42.5256 40.5432C42.9926 40.6735 43.4923 40.6952 43.9703 40.8255L45.4801 41.2055C46.6872 41.5926 47.9328 41.8475 49.195 41.9656C49.9155 41.9657 50.6067 41.6807 51.1176 41.173C51.6046 40.6485 51.886 39.9662 51.9106 39.2511C51.8968 38.1452 51.5146 37.0754 50.8243 36.211C50.3903 35.6487 50.0257 35.0363 49.7381 34.3869L50.0097 35.0275C49.7598 34.4411 49.5317 33.844 49.2493 33.2685C48.9816 32.7233 48.6378 32.2188 48.2282 31.7701C47.7173 31.2624 47.0261 30.9774 46.3057 30.9775C45.5911 31.0059 44.9098 31.2867 44.383 31.7701L44.1332 31.9764C43.7577 32.3581 43.5029 32.8418 43.4007 33.3673C43.2985 33.8927 43.3533 34.4366 43.5584 34.9311C43.7634 35.4256 44.1096 35.8488 44.5537 36.1478C44.9979 36.4469 45.5203 36.6086 46.0558 36.6127C46.7715 36.5805 47.4527 36.2958 47.9784 35.8093L48.2282 35.603H44.383C44.4251 35.6452 44.4616 35.6926 44.4916 35.7441L44.0681 35.1904C44.3767 35.6194 44.6286 36.0865 44.8175 36.5801L44.546 35.9287C44.824 36.7605 45.1881 37.5611 45.6322 38.3174C46.0468 38.8272 46.4107 39.3764 46.7184 39.9569L46.4469 39.3054C46.5017 39.4539 46.5453 39.6064 46.5772 39.7614L46.4794 39.034V39.2511L49.195 36.5367H48.9343L49.6621 36.6345C48.6736 36.4933 47.7177 36.1676 46.751 35.9395C46.2405 35.831 45.73 35.6573 45.2086 35.5487C44.6897 35.4841 44.1772 35.375 43.677 35.2229L44.3179 35.4943C44.1888 35.4325 44.0653 35.3599 43.9485 35.2772L44.5025 35.7006C44.4508 35.6619 44.4067 35.614 44.3722 35.5595L44.7958 36.1132C44.7922 36.0808 44.7922 36.048 44.7958 36.0156L45.0674 36.667V36.5693L45.1651 37.2859C45.1598 37.2354 45.1598 37.1844 45.1651 37.1339L45.0782 37.8613C45.0733 37.789 45.0733 37.7165 45.0782 37.6442L44.8067 38.2957C44.8505 38.1993 44.9051 38.1082 44.9696 38.0242L44.546 38.578C44.9464 38.109 45.3982 37.6865 45.8929 37.3184L45.3389 37.7419C45.6974 37.4705 46.121 37.2859 46.4903 37.0253C47.4054 36.4953 48.0848 35.6375 48.3912 34.6257C48.576 33.922 48.4786 33.174 48.1196 32.5411C47.94 32.233 47.7014 31.9634 47.4174 31.7475C47.1335 31.5317 46.8097 31.3739 46.4647 31.2831C46.1197 31.1924 45.7603 31.1705 45.4068 31.2186C45.0533 31.2668 44.7129 31.3841 44.4048 31.5638C43.798 31.925 43.3514 32.5034 43.1556 33.1816L43.0795 33.1708Z" fill="#004D2B"/>
</g>
<defs>
<clipPath id="clip0_195_1703">
<rect width="242" height="160" fill="white"/>
</clipPath>
</defs>
</svg>
