<svg width="421" height="584" viewBox="0 0 421 584" fill="none" xmlns="http://www.w3.org/2000/svg">
<path d="M38.4113 20.336C40.5113 20.336 42.0023 19.622 43.0313 18.299C44.0603 16.955 44.5223 14.939 44.5223 12.713C44.5223 10.088 43.9133 8.177 42.6323 6.938C41.6243 5.909 40.0913 5.321 38.3063 5.321C34.9463 5.321 32.5103 7.379 32.5103 10.445C32.5103 13.532 34.8623 15.527 37.7603 15.527C39.2513 15.527 40.2383 14.918 40.9733 14.12H41.0153C40.9733 15.401 40.7003 16.367 40.1963 16.976C39.7553 17.543 39.1253 17.795 38.3273 17.795C37.1303 17.795 36.5213 17.144 36.3113 16.43H32.9513C33.3503 18.74 35.3033 20.336 38.4113 20.336ZM38.3903 12.923C36.8363 12.923 35.8703 11.852 35.8703 10.424C35.8703 9.017 36.8993 7.946 38.3903 7.946C39.8813 7.946 40.9523 8.996 40.9523 10.445C40.9523 11.894 39.8603 12.923 38.3903 12.923ZM45.7653 20H49.3563V16.472H45.7653V20ZM45.7653 13.49H49.3563V9.962H45.7653V13.49ZM56.5217 20.336C59.5457 20.336 62.2127 18.908 62.2127 15.821C62.2127 13.889 61.1837 12.776 59.6087 12.293V12.251C60.8897 11.747 61.7927 10.844 61.7927 9.374C61.7927 6.833 59.6297 5.321 56.4587 5.321C52.8887 5.321 50.8937 7.316 50.8307 10.172H54.1277C54.2117 8.933 54.8837 7.967 56.4167 7.967C57.6137 7.967 58.3067 8.618 58.3067 9.605C58.3067 10.697 57.4247 11.285 56.0807 11.285H55.3037V13.742H56.1647C57.7397 13.742 58.6217 14.372 58.6217 15.632C58.6217 16.829 57.8237 17.627 56.3747 17.627C54.5687 17.627 53.8127 16.556 53.7287 15.023H50.3897C50.3897 16.682 50.9357 18.026 51.9857 18.95C52.9937 19.853 54.4847 20.336 56.5217 20.336ZM69.534 17.564C67.602 17.564 66.804 15.632 66.804 12.818C66.804 10.004 67.602 8.051 69.534 8.051C71.466 8.051 72.243 10.025 72.243 12.818C72.243 15.653 71.487 17.564 69.534 17.564ZM69.513 20.336C73.335 20.336 75.897 17.396 75.897 12.818C75.897 8.24 73.398 5.3 69.534 5.3C65.754 5.3 63.171 8.24 63.171 12.818C63.171 17.396 65.775 20.336 69.513 20.336ZM80.3767 20.273C81.9937 20.273 82.9387 19.706 83.5687 18.803H83.6107C83.6947 19.349 83.7997 19.769 83.9677 20H87.2857V19.853C86.9917 19.664 86.9077 19.181 86.9077 18.32V12.902C86.9077 11.558 86.4667 10.508 85.5427 9.836C84.7657 9.248 83.6737 8.954 82.0567 8.954C78.8017 8.954 77.2687 10.655 77.1847 12.65H80.3347C80.4397 11.747 80.9857 11.264 82.0777 11.264C83.1067 11.264 83.5477 11.726 83.5477 12.419C83.5477 13.154 82.8337 13.364 80.8177 13.616C78.5917 13.91 76.7017 14.624 76.7017 16.997C76.7017 19.118 78.2347 20.273 80.3767 20.273ZM81.4687 18.089C80.6287 18.089 79.9987 17.753 79.9987 16.892C79.9987 16.073 80.5447 15.737 81.8677 15.443C82.5607 15.275 83.1907 15.107 83.6317 14.876V16.157C83.6317 17.312 82.7497 18.089 81.4687 18.089ZM88.567 20H91.99V13.973C91.99 12.692 92.62 11.789 93.691 11.789C94.72 11.789 95.203 12.461 95.203 13.616V20H98.626V13.973C98.626 12.692 99.235 11.789 100.327 11.789C101.356 11.789 101.839 12.461 101.839 13.616V20H105.262V13.007C105.262 10.592 104.044 8.933 101.608 8.933C100.222 8.933 99.067 9.521 98.227 10.823H98.185C97.639 9.668 96.568 8.933 95.161 8.933C93.607 8.933 92.578 9.668 91.906 10.781H91.843V9.248H88.567V20ZM55.8205 76H59.3695V61.489H56.5555C56.1985 63.442 54.6445 64.345 52.7335 64.408V66.802H55.8205V76ZM67.5858 73.564C65.6538 73.564 64.8558 71.632 64.8558 68.818C64.8558 66.004 65.6538 64.051 67.5858 64.051C69.5178 64.051 70.2948 66.025 70.2948 68.818C70.2948 71.653 69.5388 73.564 67.5858 73.564ZM67.5648 76.336C71.3868 76.336 73.9488 73.396 73.9488 68.818C73.9488 64.24 71.4498 61.3 67.5858 61.3C63.8057 61.3 61.2228 64.24 61.2228 68.818C61.2228 73.396 63.8268 76.336 67.5648 76.336ZM75.3786 76H78.9696V72.472H75.3786V76ZM75.3786 69.49H78.9696V65.962H75.3786V69.49ZM86.135 76.336C89.159 76.336 91.826 74.908 91.826 71.821C91.826 69.889 90.797 68.776 89.222 68.293V68.251C90.503 67.747 91.406 66.844 91.406 65.374C91.406 62.833 89.243 61.321 86.072 61.321C82.502 61.321 80.507 63.316 80.444 66.172H83.741C83.825 64.933 84.497 63.967 86.03 63.967C87.227 63.967 87.92 64.618 87.92 65.605C87.92 66.697 87.038 67.285 85.694 67.285H84.917V69.742H85.778C87.353 69.742 88.235 70.372 88.235 71.632C88.235 72.829 87.437 73.627 85.988 73.627C84.182 73.627 83.426 72.556 83.342 71.023H80.003C80.003 72.682 80.549 74.026 81.599 74.95C82.607 75.853 84.098 76.336 86.135 76.336ZM99.1473 73.564C97.2153 73.564 96.4173 71.632 96.4173 68.818C96.4173 66.004 97.2153 64.051 99.1473 64.051C101.079 64.051 101.856 66.025 101.856 68.818C101.856 71.653 101.1 73.564 99.1473 73.564ZM99.1263 76.336C102.948 76.336 105.51 73.396 105.51 68.818C105.51 64.24 103.011 61.3 99.1473 61.3C95.3673 61.3 92.7843 64.24 92.7843 68.818C92.7843 73.396 95.3883 76.336 99.1263 76.336ZM25.3869 136H28.9359V121.489H26.1219C25.7649 123.442 24.2109 124.345 22.2999 124.408V126.802H25.3869V136ZM30.7472 136H41.9192V133.081H35.6612V133.06C36.6692 131.989 38.2232 131.107 39.5042 130.057C40.7852 129.07 41.8982 127.915 41.8982 125.92C41.8982 123.379 40.0292 121.321 36.5642 121.321C34.3172 121.321 32.7632 122.119 31.9442 123.295C31.2512 124.24 30.9572 125.269 30.9572 126.949H34.2752C34.2962 125.962 34.5062 125.311 34.9262 124.828C35.2832 124.387 35.8082 124.177 36.4802 124.177C37.6982 124.177 38.3492 124.933 38.3492 126.046C38.3492 126.76 37.9922 127.306 37.4042 127.831C36.2702 128.839 34.5902 129.889 33.2882 131.002C31.8602 132.199 30.7892 133.585 30.7472 136ZM43.4274 136H47.0184V132.472H43.4274V136ZM43.4274 129.49H47.0184V125.962H43.4274V129.49ZM54.8299 133.564C52.8979 133.564 52.0999 131.632 52.0999 128.818C52.0999 126.004 52.8979 124.051 54.8299 124.051C56.7619 124.051 57.5389 126.025 57.5389 128.818C57.5389 131.653 56.7829 133.564 54.8299 133.564ZM54.8089 136.336C58.6309 136.336 61.1929 133.396 61.1929 128.818C61.1929 124.24 58.6939 121.3 54.8299 121.3C51.0499 121.3 48.4669 124.24 48.4669 128.818C48.4669 133.396 51.0709 136.336 54.8089 136.336ZM68.5496 133.564C66.6176 133.564 65.8196 131.632 65.8196 128.818C65.8196 126.004 66.6176 124.051 68.5496 124.051C70.4816 124.051 71.2586 126.025 71.2586 128.818C71.2586 131.653 70.5026 133.564 68.5496 133.564ZM68.5286 136.336C72.3506 136.336 74.9126 133.396 74.9126 128.818C74.9126 124.24 72.4136 121.3 68.5496 121.3C64.7696 121.3 62.1866 124.24 62.1866 128.818C62.1866 133.396 64.7906 136.336 68.5286 136.336ZM76.2213 139.549H79.6443V134.887H79.6863C80.3583 135.79 81.3453 136.336 82.7313 136.336C85.5453 136.336 87.4143 134.11 87.4143 130.624C87.4143 127.39 85.6713 124.933 82.8153 124.933C81.3453 124.933 80.2953 125.584 79.5603 126.55H79.4973V125.248H76.2213V139.549ZM81.8493 133.69C80.3793 133.69 79.5393 132.493 79.5393 130.75C79.5393 129.007 80.2953 127.684 81.7863 127.684C83.2563 127.684 83.9493 128.902 83.9493 130.75C83.9493 132.577 83.1513 133.69 81.8493 133.69ZM88.567 136H91.99V129.973C91.99 128.692 92.62 127.789 93.691 127.789C94.72 127.789 95.203 128.461 95.203 129.616V136H98.626V129.973C98.626 128.692 99.235 127.789 100.327 127.789C101.356 127.789 101.839 128.461 101.839 129.616V136H105.262V129.007C105.262 126.592 104.044 124.933 101.608 124.933C100.222 124.933 99.067 125.521 98.227 126.823H98.185C97.639 125.668 96.568 124.933 95.161 124.933C93.607 124.933 92.578 125.668 91.906 126.781H91.843V125.248H88.567V136ZM75.0568 218H78.6058V203.489H75.7918C75.4348 205.442 73.8808 206.345 71.9698 206.408V208.802H75.0568V218ZM80.6901 218H84.2811V214.472H80.6901V218ZM80.6901 211.49H84.2811V207.962H80.6901V211.49ZM88.4484 218H91.9974V203.489H89.1834C88.8264 205.442 87.2724 206.345 85.3614 206.408V208.802H88.4484V218ZM99.7097 218.336C103.154 218.336 105.527 216.278 105.527 213.086C105.527 210.041 103.322 208.151 100.571 208.151C99.2687 208.151 98.3027 208.529 97.7777 209.012H97.7357L98.2397 206.45H104.624V203.615H95.6987L94.2287 211.574H97.5467C97.9247 211.091 98.6807 210.692 99.6047 210.692C100.991 210.692 101.957 211.595 101.957 213.065C101.957 214.514 101.054 215.522 99.6257 215.522C98.3447 215.522 97.3157 214.913 97.0847 213.695H93.6197C93.9557 216.761 96.4127 218.336 99.7097 218.336ZM69.7453 278H73.2943V263.489H70.4803C70.1233 265.442 68.5693 266.345 66.6583 266.408V268.802H69.7453V278ZM75.3786 278H78.9696V274.472H75.3786V278ZM75.3786 271.49H78.9696V267.962H75.3786V271.49ZM86.135 278.336C89.159 278.336 91.826 276.908 91.826 273.821C91.826 271.889 90.797 270.776 89.222 270.293V270.251C90.503 269.747 91.406 268.844 91.406 267.374C91.406 264.833 89.243 263.321 86.072 263.321C82.502 263.321 80.507 265.316 80.444 268.172H83.741C83.825 266.933 84.497 265.967 86.03 265.967C87.227 265.967 87.92 266.618 87.92 267.605C87.92 268.697 87.038 269.285 85.694 269.285H84.917V271.742H85.778C87.353 271.742 88.235 272.372 88.235 273.632C88.235 274.829 87.437 275.627 85.988 275.627C84.182 275.627 83.426 274.556 83.342 273.023H80.003C80.003 274.682 80.549 276.026 81.599 276.95C82.607 277.853 84.098 278.336 86.135 278.336ZM99.1473 275.564C97.2153 275.564 96.4173 273.632 96.4173 270.818C96.4173 268.004 97.2153 266.051 99.1473 266.051C101.079 266.051 101.856 268.025 101.856 270.818C101.856 273.653 101.1 275.564 99.1473 275.564ZM99.1263 278.336C102.948 278.336 105.51 275.396 105.51 270.818C105.51 266.24 103.011 263.3 99.1473 263.3C95.3673 263.3 92.7843 266.24 92.7843 270.818C92.7843 275.396 95.3883 278.336 99.1263 278.336ZM67.1448 338.336C70.1688 338.336 72.8358 336.908 72.8358 333.821C72.8358 331.889 71.8067 330.776 70.2318 330.293V330.251C71.5127 329.747 72.4158 328.844 72.4158 327.374C72.4158 324.833 70.2528 323.321 67.0818 323.321C63.5118 323.321 61.5168 325.316 61.4538 328.172H64.7508C64.8348 326.933 65.5068 325.967 67.0398 325.967C68.2368 325.967 68.9298 326.618 68.9298 327.605C68.9298 328.697 68.0478 329.285 66.7038 329.285H65.9268V331.742H66.7878C68.3628 331.742 69.2448 332.372 69.2448 333.632C69.2448 334.829 68.4468 335.627 66.9978 335.627C65.1918 335.627 64.4358 334.556 64.3518 333.023H61.0128C61.0128 334.682 61.5588 336.026 62.6088 336.95C63.6168 337.853 65.1078 338.336 67.1448 338.336ZM74.025 338H77.616V334.472H74.025V338ZM74.025 331.49H77.616V327.962H74.025V331.49ZM85.4275 335.564C83.4955 335.564 82.6975 333.632 82.6975 330.818C82.6975 328.004 83.4955 326.051 85.4275 326.051C87.3595 326.051 88.1365 328.025 88.1365 330.818C88.1365 333.653 87.3805 335.564 85.4275 335.564ZM85.4065 338.336C89.2285 338.336 91.7905 335.396 91.7905 330.818C91.7905 326.24 89.2915 323.3 85.4275 323.3C81.6475 323.3 79.0645 326.24 79.0645 330.818C79.0645 335.396 81.6685 338.336 85.4065 338.336ZM99.1473 335.564C97.2153 335.564 96.4173 333.632 96.4173 330.818C96.4173 328.004 97.2153 326.051 99.1473 326.051C101.079 326.051 101.856 328.025 101.856 330.818C101.856 333.653 101.1 335.564 99.1473 335.564ZM99.1263 338.336C102.948 338.336 105.51 335.396 105.51 330.818C105.51 326.24 103.011 323.3 99.1473 323.3C95.3673 323.3 92.7843 326.24 92.7843 330.818C92.7843 335.396 95.3883 338.336 99.1263 338.336ZM68.4983 398.336C71.5223 398.336 74.1893 396.908 74.1893 393.821C74.1893 391.889 73.1603 390.776 71.5853 390.293V390.251C72.8663 389.747 73.7693 388.844 73.7693 387.374C73.7693 384.833 71.6063 383.321 68.4353 383.321C64.8653 383.321 62.8703 385.316 62.8073 388.172H66.1043C66.1883 386.933 66.8603 385.967 68.3933 385.967C69.5903 385.967 70.2833 386.618 70.2833 387.605C70.2833 388.697 69.4013 389.285 68.0573 389.285H67.2803V391.742H68.1413C69.7163 391.742 70.5983 392.372 70.5983 393.632C70.5983 394.829 69.8003 395.627 68.3513 395.627C66.5453 395.627 65.7893 394.556 65.7053 393.023H62.3663C62.3663 394.682 62.9123 396.026 63.9623 396.95C64.9703 397.853 66.4613 398.336 68.4983 398.336ZM75.3786 398H78.9696V394.472H75.3786V398ZM75.3786 391.49H78.9696V387.962H75.3786V391.49ZM86.135 398.336C89.159 398.336 91.826 396.908 91.826 393.821C91.826 391.889 90.797 390.776 89.222 390.293V390.251C90.503 389.747 91.406 388.844 91.406 387.374C91.406 384.833 89.243 383.321 86.072 383.321C82.502 383.321 80.507 385.316 80.444 388.172H83.741C83.825 386.933 84.497 385.967 86.03 385.967C87.227 385.967 87.92 386.618 87.92 387.605C87.92 388.697 87.038 389.285 85.694 389.285H84.917V391.742H85.778C87.353 391.742 88.235 392.372 88.235 393.632C88.235 394.829 87.437 395.627 85.988 395.627C84.182 395.627 83.426 394.556 83.342 393.023H80.003C80.003 394.682 80.549 396.026 81.599 396.95C82.607 397.853 84.098 398.336 86.135 398.336ZM99.1473 395.564C97.2153 395.564 96.4173 393.632 96.4173 390.818C96.4173 388.004 97.2153 386.051 99.1473 386.051C101.079 386.051 101.856 388.025 101.856 390.818C101.856 393.653 101.1 395.564 99.1473 395.564ZM99.1263 398.336C102.948 398.336 105.51 395.396 105.51 390.818C105.51 386.24 103.011 383.3 99.1473 383.3C95.3673 383.3 92.7843 386.24 92.7843 390.818C92.7843 395.396 95.3883 398.336 99.1263 398.336ZM66.9997 458.336C70.4437 458.336 72.8167 456.278 72.8167 453.086C72.8167 450.041 70.6117 448.151 67.8607 448.151C66.5587 448.151 65.5927 448.529 65.0677 449.012H65.0257L65.5297 446.45H71.9137V443.615H62.9887L61.5187 451.574H64.8367C65.2147 451.091 65.9707 450.692 66.8947 450.692C68.2807 450.692 69.2467 451.595 69.2467 453.065C69.2467 454.514 68.3437 455.522 66.9157 455.522C65.6347 455.522 64.6057 454.913 64.3747 453.695H60.9097C61.2457 456.761 63.7027 458.336 66.9997 458.336ZM74.025 458H77.616V454.472H74.025V458ZM74.025 451.49H77.616V447.962H74.025V451.49ZM85.4275 455.564C83.4955 455.564 82.6975 453.632 82.6975 450.818C82.6975 448.004 83.4955 446.051 85.4275 446.051C87.3595 446.051 88.1365 448.025 88.1365 450.818C88.1365 453.653 87.3805 455.564 85.4275 455.564ZM85.4065 458.336C89.2285 458.336 91.7905 455.396 91.7905 450.818C91.7905 446.24 89.2915 443.3 85.4275 443.3C81.6475 443.3 79.0645 446.24 79.0645 450.818C79.0645 455.396 81.6685 458.336 85.4065 458.336ZM99.1473 455.564C97.2153 455.564 96.4173 453.632 96.4173 450.818C96.4173 448.004 97.2153 446.051 99.1473 446.051C101.079 446.051 101.856 448.025 101.856 450.818C101.856 453.653 101.1 455.564 99.1473 455.564ZM99.1263 458.336C102.948 458.336 105.51 455.396 105.51 450.818C105.51 446.24 103.011 443.3 99.1473 443.3C95.3673 443.3 92.7843 446.24 92.7843 450.818C92.7843 455.396 95.3883 458.336 99.1263 458.336ZM68.3532 518.336C71.7972 518.336 74.1702 516.278 74.1702 513.086C74.1702 510.041 71.9652 508.151 69.2142 508.151C67.9122 508.151 66.9462 508.529 66.4212 509.012H66.3792L66.8832 506.45H73.2672V503.615H64.3422L62.8722 511.574H66.1902C66.5682 511.091 67.3242 510.692 68.2482 510.692C69.6342 510.692 70.6002 511.595 70.6002 513.065C70.6002 514.514 69.6972 515.522 68.2692 515.522C66.9882 515.522 65.9592 514.913 65.7282 513.695H62.2632C62.5992 516.761 65.0562 518.336 68.3532 518.336ZM75.3786 518H78.9696V514.472H75.3786V518ZM75.3786 511.49H78.9696V507.962H75.3786V511.49ZM86.135 518.336C89.159 518.336 91.826 516.908 91.826 513.821C91.826 511.889 90.797 510.776 89.222 510.293V510.251C90.503 509.747 91.406 508.844 91.406 507.374C91.406 504.833 89.243 503.321 86.072 503.321C82.502 503.321 80.507 505.316 80.444 508.172H83.741C83.825 506.933 84.497 505.967 86.03 505.967C87.227 505.967 87.92 506.618 87.92 507.605C87.92 508.697 87.038 509.285 85.694 509.285H84.917V511.742H85.778C87.353 511.742 88.235 512.372 88.235 513.632C88.235 514.829 87.437 515.627 85.988 515.627C84.182 515.627 83.426 514.556 83.342 513.023H80.003C80.003 514.682 80.549 516.026 81.599 516.95C82.607 517.853 84.098 518.336 86.135 518.336ZM99.1473 515.564C97.2153 515.564 96.4173 513.632 96.4173 510.818C96.4173 508.004 97.2153 506.051 99.1473 506.051C101.079 506.051 101.856 508.025 101.856 510.818C101.856 513.653 101.1 515.564 99.1473 515.564ZM99.1263 518.336C102.948 518.336 105.51 515.396 105.51 510.818C105.51 506.24 103.011 503.3 99.1473 503.3C95.3673 503.3 92.7843 506.24 92.7843 510.818C92.7843 515.396 95.3883 518.336 99.1263 518.336ZM64.4038 578H68.0998C68.2468 573.065 70.5358 568.886 73.0558 566.345V563.615H62.4088V566.618H69.3388V566.66C67.3018 568.739 64.5928 572.771 64.4038 578ZM74.025 578H77.616V574.472H74.025V578ZM74.025 571.49H77.616V567.962H74.025V571.49ZM85.4275 575.564C83.4955 575.564 82.6975 573.632 82.6975 570.818C82.6975 568.004 83.4955 566.051 85.4275 566.051C87.3595 566.051 88.1365 568.025 88.1365 570.818C88.1365 573.653 87.3805 575.564 85.4275 575.564ZM85.4065 578.336C89.2285 578.336 91.7905 575.396 91.7905 570.818C91.7905 566.24 89.2915 563.3 85.4275 563.3C81.6475 563.3 79.0645 566.24 79.0645 570.818C79.0645 575.396 81.6685 578.336 85.4065 578.336ZM99.1473 575.564C97.2153 575.564 96.4173 573.632 96.4173 570.818C96.4173 568.004 97.2153 566.051 99.1473 566.051C101.079 566.051 101.856 568.025 101.856 570.818C101.856 573.653 101.1 575.564 99.1473 575.564ZM99.1263 578.336C102.948 578.336 105.51 575.396 105.51 570.818C105.51 566.24 103.011 563.3 99.1473 563.3C95.3673 563.3 92.7843 566.24 92.7843 570.818C92.7843 575.396 95.3883 578.336 99.1263 578.336Z" fill="black"/>
<path d="M171.029 50H174.746V44.834L176.006 43.511L180.332 50H184.658L178.568 41.012L184.322 34.985H179.912L174.746 40.424V34.985H171.029V50ZM185.462 50H188.885V39.248H185.462V50ZM185.462 37.757H188.885V34.985H185.462V37.757ZM195.756 50.336C198.801 50.336 200.775 48.404 200.859 45.926H197.583C197.436 47.144 196.785 47.774 195.714 47.774C194.244 47.774 193.509 46.556 193.509 44.645C193.509 42.692 194.244 41.474 195.714 41.474C196.68 41.474 197.268 42.104 197.478 43.07H200.775C200.46 40.655 198.591 38.954 195.672 38.954C192.27 38.954 190.044 41.411 190.044 44.645C190.044 47.879 192.291 50.336 195.756 50.336ZM201.95 50H205.331V46.703L206.36 45.611L208.943 50H212.912L208.691 43.28L212.471 39.248H208.523L205.331 42.881V34.985H201.95V50ZM212.508 46.199H218.22V43.259H212.508V46.199ZM224.939 47.9C223.448 47.9 222.671 46.598 222.671 44.645C222.671 42.692 223.448 41.369 224.939 41.369C226.43 41.369 227.228 42.692 227.228 44.645C227.228 46.598 226.43 47.9 224.939 47.9ZM224.96 50.336C228.425 50.336 230.693 47.879 230.693 44.645C230.693 41.411 228.425 38.954 224.96 38.954C221.516 38.954 219.206 41.411 219.206 44.645C219.206 47.879 221.516 50.336 224.96 50.336ZM232.443 50H235.866V41.432H238.827V50H242.229V41.432H244.245V39.248H242.229V38.723C242.229 37.526 242.964 37.421 244.245 37.463V35.048C242.208 34.838 240.297 35.132 239.457 36.308C239.037 36.833 238.827 37.547 238.827 38.471V39.248H235.866V38.807C235.866 37.61 236.601 37.526 237.693 37.568V35.153C235.845 34.943 233.955 35.216 233.094 36.371C232.674 36.896 232.443 37.61 232.443 38.576V39.248H231.057V41.432H232.443V50ZM252.28 48.341H255.22V44.456H258.853V41.705H255.22V37.841H252.28V41.705H248.647V44.456H252.28V48.341ZM263.991 50H271.404C272.979 50 274.218 49.622 275.1 48.929C276.087 48.173 276.633 47.081 276.633 45.569C276.633 43.784 275.583 42.398 273.945 41.894V41.831C275.268 41.327 276.045 40.382 276.045 38.891C276.045 37.694 275.604 36.728 274.743 36.014C273.945 35.363 272.79 34.985 271.236 34.985H263.991V50ZM267.666 47.018V43.448H270.942C272.076 43.448 272.958 44.057 272.958 45.254C272.958 46.325 272.202 47.018 270.984 47.018H267.666ZM267.666 40.928V37.925H270.711C271.803 37.925 272.496 38.471 272.496 39.416C272.496 40.403 271.761 40.928 270.69 40.928H267.666ZM277.87 50H281.293V45.17C281.293 42.839 282.637 41.81 284.737 42.104H284.821V39.164C284.674 39.101 284.464 39.08 284.149 39.08C282.847 39.08 281.965 39.647 281.209 40.928H281.146V39.248H277.87V50ZM290.954 50.315C292.319 50.315 293.411 49.958 294.314 49.328C295.259 48.677 295.889 47.753 296.12 46.787H292.781C292.487 47.459 291.899 47.858 290.996 47.858C289.589 47.858 288.791 46.955 288.581 45.506H296.309C296.33 43.322 295.7 41.453 294.419 40.277C293.495 39.437 292.277 38.933 290.744 38.933C287.468 38.933 285.221 41.39 285.221 44.603C285.221 47.858 287.405 50.315 290.954 50.315ZM288.602 43.469C288.833 42.188 289.505 41.369 290.807 41.369C291.92 41.369 292.718 42.188 292.844 43.469H288.602ZM300.626 50.273C302.243 50.273 303.188 49.706 303.818 48.803H303.86C303.944 49.349 304.049 49.769 304.217 50H307.535V49.853C307.241 49.664 307.157 49.181 307.157 48.32V42.902C307.157 41.558 306.716 40.508 305.792 39.836C305.015 39.248 303.923 38.954 302.306 38.954C299.051 38.954 297.518 40.655 297.434 42.65H300.584C300.689 41.747 301.235 41.264 302.327 41.264C303.356 41.264 303.797 41.726 303.797 42.419C303.797 43.154 303.083 43.364 301.067 43.616C298.841 43.91 296.951 44.624 296.951 46.997C296.951 49.118 298.484 50.273 300.626 50.273ZM301.718 48.089C300.878 48.089 300.248 47.753 300.248 46.892C300.248 46.073 300.794 45.737 302.117 45.443C302.81 45.275 303.44 45.107 303.881 44.876V46.157C303.881 47.312 302.999 48.089 301.718 48.089ZM308.816 50H312.197V46.703L313.226 45.611L315.809 50H319.778L315.557 43.28L319.337 39.248H315.389L312.197 42.881V34.985H308.816V50ZM321.16 50H324.583V41.432H326.599V39.248H324.583V38.723C324.583 37.526 325.297 37.421 326.599 37.463V35.048C324.751 34.859 322.966 35.069 322.042 35.972C321.475 36.539 321.16 37.358 321.16 38.471V39.248H319.774V41.432H321.16V50ZM330.547 50.273C332.164 50.273 333.109 49.706 333.739 48.803H333.781C333.865 49.349 333.97 49.769 334.138 50H337.456V49.853C337.162 49.664 337.078 49.181 337.078 48.32V42.902C337.078 41.558 336.637 40.508 335.713 39.836C334.936 39.248 333.844 38.954 332.227 38.954C328.972 38.954 327.439 40.655 327.355 42.65H330.505C330.61 41.747 331.156 41.264 332.248 41.264C333.277 41.264 333.718 41.726 333.718 42.419C333.718 43.154 333.004 43.364 330.988 43.616C328.762 43.91 326.872 44.624 326.872 46.997C326.872 49.118 328.405 50.273 330.547 50.273ZM331.639 48.089C330.799 48.089 330.169 47.753 330.169 46.892C330.169 46.073 330.715 45.737 332.038 45.443C332.731 45.275 333.361 45.107 333.802 44.876V46.157C333.802 47.312 332.92 48.089 331.639 48.089ZM343.315 50.336C346.129 50.336 348.208 49.118 348.208 46.766C348.208 44.015 345.982 43.532 344.092 43.217C342.727 42.965 341.509 42.86 341.509 42.104C341.509 41.432 342.16 41.117 343 41.117C343.945 41.117 344.596 41.411 344.722 42.377H347.872C347.704 40.256 346.066 38.933 343.021 38.933C340.48 38.933 338.38 40.109 338.38 42.377C338.38 44.897 340.375 45.401 342.244 45.716C343.672 45.968 344.974 46.073 344.974 47.039C344.974 47.732 344.323 48.11 343.294 48.11C342.16 48.11 341.446 47.585 341.32 46.514H338.086C338.191 48.887 340.165 50.336 343.315 50.336ZM353.274 50.126C354.198 50.126 354.849 50.042 355.143 49.958V47.459C355.017 47.459 354.681 47.48 354.387 47.48C353.652 47.48 353.19 47.27 353.19 46.43V41.39H355.143V39.248H353.19V35.846H349.851V39.248H348.423V41.39H349.851V47.165C349.851 49.475 351.279 50.126 353.274 50.126ZM174.116 110H177.77L179.345 102.797C179.597 101.6 179.849 100.004 179.849 100.004H179.891C179.891 100.004 180.143 101.6 180.416 102.797L181.991 110H185.624L189.74 94.985H186.002L184.511 101.243C184.175 102.734 183.755 105.002 183.755 105.002H183.713C183.713 105.002 183.335 102.923 182.999 101.39L181.592 94.985H178.148L176.741 101.432C176.405 102.944 176.006 105.002 176.006 105.002H175.964C175.964 105.002 175.607 102.734 175.271 101.285L173.759 94.985H170L174.116 110ZM194.567 107.9C193.076 107.9 192.299 106.598 192.299 104.645C192.299 102.692 193.076 101.369 194.567 101.369C196.058 101.369 196.856 102.692 196.856 104.645C196.856 106.598 196.058 107.9 194.567 107.9ZM194.588 110.336C198.053 110.336 200.321 107.879 200.321 104.645C200.321 101.411 198.053 98.954 194.588 98.954C191.144 98.954 188.834 101.411 188.834 104.645C188.834 107.879 191.144 110.336 194.588 110.336ZM201.478 110H204.901V105.17C204.901 102.839 206.245 101.81 208.345 102.104H208.429V99.164C208.282 99.101 208.072 99.08 207.757 99.08C206.455 99.08 205.573 99.647 204.817 100.928H204.754V99.248H201.478V110ZM209.517 110H212.898V106.703L213.927 105.611L216.51 110H220.479L216.258 103.28L220.038 99.248H216.09L212.898 102.881V94.985H209.517V110ZM225.436 110.336C228.25 110.336 230.329 109.118 230.329 106.766C230.329 104.015 228.103 103.532 226.213 103.217C224.848 102.965 223.63 102.86 223.63 102.104C223.63 101.432 224.281 101.117 225.121 101.117C226.066 101.117 226.717 101.411 226.843 102.377H229.993C229.825 100.256 228.187 98.933 225.142 98.933C222.601 98.933 220.501 100.109 220.501 102.377C220.501 104.897 222.496 105.401 224.365 105.716C225.793 105.968 227.095 106.073 227.095 107.039C227.095 107.732 226.444 108.11 225.415 108.11C224.281 108.11 223.567 107.585 223.441 106.514H220.207C220.312 108.887 222.286 110.336 225.436 110.336ZM231.44 110H234.863V104.057C234.863 102.734 235.619 101.789 236.753 101.789C237.866 101.789 238.433 102.566 238.433 103.7V110H241.856V103.007C241.856 100.613 240.47 98.933 238.118 98.933C236.627 98.933 235.703 99.542 234.926 100.571H234.863V94.985H231.44V110ZM248.667 107.9C247.176 107.9 246.399 106.598 246.399 104.645C246.399 102.692 247.176 101.369 248.667 101.369C250.158 101.369 250.956 102.692 250.956 104.645C250.956 106.598 250.158 107.9 248.667 107.9ZM248.688 110.336C252.153 110.336 254.421 107.879 254.421 104.645C254.421 101.411 252.153 98.954 248.688 98.954C245.244 98.954 242.934 101.411 242.934 104.645C242.934 107.879 245.244 110.336 248.688 110.336ZM255.578 113.549H259.001V108.887H259.043C259.715 109.79 260.702 110.336 262.088 110.336C264.902 110.336 266.771 108.11 266.771 104.624C266.771 101.39 265.028 98.933 262.172 98.933C260.702 98.933 259.652 99.584 258.917 100.55H258.854V99.248H255.578V113.549ZM261.206 107.69C259.736 107.69 258.896 106.493 258.896 104.75C258.896 103.007 259.652 101.684 261.143 101.684C262.613 101.684 263.306 102.902 263.306 104.75C263.306 106.577 262.508 107.69 261.206 107.69ZM272.501 110.336C275.315 110.336 277.394 109.118 277.394 106.766C277.394 104.015 275.168 103.532 273.278 103.217C271.913 102.965 270.695 102.86 270.695 102.104C270.695 101.432 271.346 101.117 272.186 101.117C273.131 101.117 273.782 101.411 273.908 102.377H277.058C276.89 100.256 275.252 98.933 272.207 98.933C269.666 98.933 267.566 100.109 267.566 102.377C267.566 104.897 269.561 105.401 271.43 105.716C272.858 105.968 274.16 106.073 274.16 107.039C274.16 107.732 273.509 108.11 272.48 108.11C271.346 108.11 270.632 107.585 270.506 106.514H267.272C267.377 108.887 269.351 110.336 272.501 110.336ZM287.961 110.357C291.426 110.357 294.114 108.614 294.114 105.464C294.114 102.251 291.594 101.39 288.801 100.739C286.554 100.235 285.399 99.983 285.399 98.933C285.399 98.093 286.26 97.526 287.562 97.526C288.948 97.526 289.83 98.177 289.977 99.332H293.61C293.463 96.182 290.943 94.712 287.688 94.712C284.328 94.712 281.724 96.119 281.724 99.332C281.724 102.482 284.475 103.28 287.079 103.889C289.137 104.393 290.355 104.645 290.355 105.842C290.355 106.976 289.158 107.417 287.94 107.417C286.155 107.417 285.168 106.787 285 105.275H281.262C281.346 108.593 283.971 110.357 287.961 110.357ZM300.777 110.315C302.142 110.315 303.234 109.958 304.137 109.328C305.082 108.677 305.712 107.753 305.943 106.787H302.604C302.31 107.459 301.722 107.858 300.819 107.858C299.412 107.858 298.614 106.955 298.404 105.506H306.132C306.153 103.322 305.523 101.453 304.242 100.277C303.318 99.437 302.1 98.933 300.567 98.933C297.291 98.933 295.044 101.39 295.044 104.603C295.044 107.858 297.228 110.315 300.777 110.315ZM298.425 103.469C298.656 102.188 299.328 101.369 300.63 101.369C301.743 101.369 302.541 102.188 302.667 103.469H298.425ZM311.856 110.336C314.67 110.336 316.749 109.118 316.749 106.766C316.749 104.015 314.523 103.532 312.633 103.217C311.268 102.965 310.05 102.86 310.05 102.104C310.05 101.432 310.701 101.117 311.541 101.117C312.486 101.117 313.137 101.411 313.263 102.377H316.413C316.245 100.256 314.607 98.933 311.562 98.933C309.021 98.933 306.921 100.109 306.921 102.377C306.921 104.897 308.916 105.401 310.785 105.716C312.213 105.968 313.515 106.073 313.515 107.039C313.515 107.732 312.864 108.11 311.835 108.11C310.701 108.11 309.987 107.585 309.861 106.514H306.627C306.732 108.887 308.706 110.336 311.856 110.336ZM322.541 110.336C325.355 110.336 327.434 109.118 327.434 106.766C327.434 104.015 325.208 103.532 323.318 103.217C321.953 102.965 320.735 102.86 320.735 102.104C320.735 101.432 321.386 101.117 322.226 101.117C323.171 101.117 323.822 101.411 323.948 102.377H327.098C326.93 100.256 325.292 98.933 322.247 98.933C319.706 98.933 317.606 100.109 317.606 102.377C317.606 104.897 319.601 105.401 321.47 105.716C322.898 105.968 324.2 106.073 324.2 107.039C324.2 107.732 323.549 108.11 322.52 108.11C321.386 108.11 320.672 107.585 320.546 106.514H317.312C317.417 108.887 319.391 110.336 322.541 110.336ZM328.545 110H331.968V99.248H328.545V110ZM328.545 97.757H331.968V94.985H328.545V97.757ZM338.86 107.9C337.369 107.9 336.592 106.598 336.592 104.645C336.592 102.692 337.369 101.369 338.86 101.369C340.351 101.369 341.149 102.692 341.149 104.645C341.149 106.598 340.351 107.9 338.86 107.9ZM338.881 110.336C342.346 110.336 344.614 107.879 344.614 104.645C344.614 101.411 342.346 98.954 338.881 98.954C335.437 98.954 333.127 101.411 333.127 104.645C333.127 107.879 335.437 110.336 338.881 110.336ZM345.771 110H349.194V104.057C349.194 102.734 349.95 101.789 351.084 101.789C352.197 101.789 352.764 102.566 352.764 103.7V110H356.187V103.007C356.187 100.613 354.801 98.933 352.449 98.933C350.958 98.933 349.929 99.563 349.131 100.718H349.068V99.248H345.771V110ZM363.822 110H367.371V95.489H364.557C364.2 97.442 362.646 98.345 360.735 98.408V100.802H363.822V110ZM171.029 170H174.368V162.461C174.368 161.852 174.305 159.437 174.305 159.437H174.347C174.347 159.437 174.872 161.705 175.04 162.251L177.182 170H180.248L182.411 162.23C182.579 161.684 183.104 159.437 183.104 159.437H183.146C183.146 159.437 183.083 161.831 183.083 162.44V170H186.485V154.985H181.445L179.597 161.558C179.345 162.503 178.757 164.981 178.757 164.981H178.715C178.715 164.981 178.127 162.503 177.854 161.558L176.027 154.985H171.029V170ZM187.493 170H191.231L192.092 167.291H197.342L198.224 170H202.13L196.712 154.985H192.89L187.493 170ZM192.953 164.624L194.108 160.991C194.36 160.214 194.717 158.87 194.717 158.87H194.759C194.759 158.87 195.095 160.214 195.347 160.991L196.481 164.624H192.953ZM208.863 170.357C212.328 170.357 215.016 168.614 215.016 165.464C215.016 162.251 212.496 161.39 209.703 160.739C207.456 160.235 206.301 159.983 206.301 158.933C206.301 158.093 207.162 157.526 208.464 157.526C209.85 157.526 210.732 158.177 210.879 159.332H214.512C214.365 156.182 211.845 154.712 208.59 154.712C205.23 154.712 202.626 156.119 202.626 159.332C202.626 162.482 205.377 163.28 207.981 163.889C210.039 164.393 211.257 164.645 211.257 165.842C211.257 166.976 210.06 167.417 208.842 167.417C207.057 167.417 206.07 166.787 205.902 165.275H202.164C202.248 168.593 204.873 170.357 208.863 170.357ZM219.797 170H230.255V166.85H223.514V154.985H219.797V170ZM235.157 170.315C236.648 170.315 237.593 169.727 238.37 168.677H238.433V170H241.709V159.248H238.286V165.254C238.286 166.535 237.572 167.417 236.396 167.417C235.304 167.417 234.779 166.766 234.779 165.59V159.248H231.377V166.304C231.377 168.698 232.679 170.315 235.157 170.315ZM243.355 170H246.778V164.057C246.778 162.734 247.534 161.789 248.668 161.789C249.781 161.789 250.348 162.566 250.348 163.7V170H253.771V163.007C253.771 160.613 252.385 158.933 250.033 158.933C248.542 158.933 247.513 159.563 246.715 160.718H246.652V159.248H243.355V170ZM260.561 170.336C263.606 170.336 265.58 168.404 265.664 165.926H262.388C262.241 167.144 261.59 167.774 260.519 167.774C259.049 167.774 258.314 166.556 258.314 164.645C258.314 162.692 259.049 161.474 260.519 161.474C261.485 161.474 262.073 162.104 262.283 163.07H265.58C265.265 160.655 263.396 158.954 260.477 158.954C257.075 158.954 254.849 161.411 254.849 164.645C254.849 167.879 257.096 170.336 260.561 170.336ZM266.755 170H270.178V164.057C270.178 162.734 270.934 161.789 272.068 161.789C273.181 161.789 273.748 162.566 273.748 163.7V170H277.171V163.007C277.171 160.613 275.785 158.933 273.433 158.933C271.942 158.933 271.018 159.542 270.241 160.571H270.178V154.985H266.755V170ZM285.646 168.341H288.586V164.456H292.219V161.705H288.586V157.841H285.646V161.705H282.013V164.456H285.646V168.341ZM303.573 170.336C305.337 170.336 306.786 169.916 308.046 168.971C309.285 168.026 310.146 166.598 310.545 164.792H306.87C306.429 166.409 305.274 167.312 303.699 167.312C301.494 167.312 300.738 165.611 300.738 163.721C300.738 160.928 301.998 157.757 304.938 157.757C306.576 157.757 307.374 158.639 307.458 160.151H311.112C311.007 158.261 310.377 156.812 309.18 155.888C308.172 155.09 306.807 154.691 305.085 154.691C300.066 154.691 297 159.101 297 163.805C297 167.858 299.52 170.336 303.573 170.336ZM310.678 170H314.038L314.941 165.296C315.445 162.713 316.747 161.873 318.91 162.188H318.973L319.561 159.164C319.435 159.122 319.162 159.08 318.805 159.08C317.461 159.08 316.474 159.752 315.697 161.012H315.634L315.991 159.248H312.757L310.678 170ZM321.978 170.273C323.238 170.273 324.204 169.664 324.918 168.824H324.96C324.96 169.286 325.002 169.748 325.128 170H328.362V169.853C328.173 169.622 328.131 169.139 328.299 168.32L329.265 163.364C329.601 161.6 329.118 160.466 328.236 159.815C327.396 159.164 326.22 158.954 324.981 158.954C321.852 158.954 320.172 160.424 319.773 162.65H322.902C323.133 161.705 323.784 161.243 324.813 161.243C325.716 161.243 326.157 161.663 326.157 162.272C326.157 163.322 325.296 163.448 323.175 163.595C320.55 163.784 318.597 164.54 318.597 167.165C318.597 169.181 320.109 170.273 321.978 170.273ZM323.238 168.089C322.419 168.089 321.852 167.711 321.852 166.871C321.852 165.632 323.049 165.569 323.91 165.422C324.708 165.296 325.254 165.17 325.737 164.939L325.485 166.262C325.233 167.438 324.393 168.089 323.238 168.089ZM329.208 170H338.532L339.036 167.417H335.235C334.752 167.417 333.765 167.438 333.765 167.438V167.375C333.765 167.375 334.563 166.724 335.151 166.157L339.792 161.726L340.254 159.269H331.644L331.14 161.81H334.374C334.71 161.81 335.697 161.789 335.697 161.789V161.852C335.697 161.852 334.899 162.524 334.584 162.839L329.67 167.522L329.208 170ZM339.551 173.549H341.819C343.919 173.549 345.095 172.625 346.145 170.546L351.815 159.248H348.434L346.313 163.847C345.809 164.918 345.263 166.388 345.263 166.388H345.221C345.221 166.388 345.095 164.834 344.969 163.784L344.381 159.248H340.874L342.512 167.522C342.68 168.32 342.785 168.95 342.785 169.37C342.785 170.462 342.155 170.903 341.21 170.903H340.076L339.551 173.549ZM352.986 170H356.703L358.026 167.27H363.108L363.486 170H367.287L364.662 154.985H360.924L352.986 170ZM361.092 160.991C361.449 160.235 362.037 158.849 362.037 158.849H362.079C362.079 158.849 362.184 160.214 362.289 161.012L362.772 164.624H359.328L361.092 160.991ZM368.228 170H371.777L373.625 160.445H373.667C373.667 160.445 374.024 161.81 374.402 162.839L376.964 170H380.639L383.537 154.985H379.988L378.14 164.477H378.098C378.098 164.477 377.846 163.511 377.426 162.356L374.801 154.985H371.126L368.228 170ZM382.645 170H389.197C391.633 170 393.712 169.16 395.077 167.711C396.505 166.178 397.261 164.099 397.261 161.39C397.261 157.253 394.72 154.985 390.919 154.985H385.543L382.645 170ZM386.908 166.892L388.609 158.072H390.352C392.431 158.072 393.523 159.29 393.523 161.579C393.523 164.792 391.969 166.892 389.197 166.892H386.908ZM177.245 196.336C179.009 196.336 180.458 195.916 181.718 194.971C182.957 194.026 183.818 192.598 184.217 190.792H180.542C180.101 192.409 178.946 193.312 177.371 193.312C175.166 193.312 174.41 191.611 174.41 189.721C174.41 186.928 175.67 183.757 178.61 183.757C180.248 183.757 181.046 184.639 181.13 186.151H184.784C184.679 184.261 184.049 182.812 182.852 181.888C181.844 181.09 180.479 180.691 178.757 180.691C173.738 180.691 170.672 185.101 170.672 189.805C170.672 193.858 173.192 196.336 177.245 196.336ZM190.33 193.942C188.944 193.942 188.461 192.829 188.461 191.548C188.44 189.826 189.196 187.348 191.128 187.348C192.514 187.348 193.018 188.503 193.018 189.742C193.039 191.506 192.283 193.942 190.33 193.942ZM190.267 196.336C194.026 196.336 196.42 193.417 196.42 189.847C196.399 186.55 193.984 184.954 191.233 184.954C187.495 184.954 185.08 187.873 185.08 191.401C185.08 194.719 187.537 196.336 190.267 196.336ZM202.245 193.942C200.859 193.942 200.376 192.829 200.376 191.548C200.355 189.826 201.111 187.348 203.043 187.348C204.429 187.348 204.933 188.503 204.933 189.742C204.954 191.506 204.198 193.942 202.245 193.942ZM202.182 196.336C205.941 196.336 208.335 193.417 208.335 189.847C208.314 186.55 205.899 184.954 203.148 184.954C199.41 184.954 196.995 187.873 196.995 191.401C196.995 194.719 199.452 196.336 202.182 196.336ZM208.406 196H211.829L214.727 180.985H211.304L208.406 196ZM217.992 196H221.772V190.981H225.279C228.366 190.981 230.361 188.944 230.361 186.067C230.361 184.555 229.815 183.274 228.849 182.371C227.925 181.489 226.581 180.985 224.754 180.985H217.992V196ZM221.772 188.041V184.114H224.523C225.846 184.114 226.623 184.849 226.623 186.046C226.623 187.243 225.867 188.041 224.523 188.041H221.772ZM231.481 196H234.904V185.248H231.481V196ZM231.481 183.757H234.904V180.985H231.481V183.757ZM240.81 196.126C241.734 196.126 242.385 196.042 242.679 195.958V193.459C242.553 193.459 242.217 193.48 241.923 193.48C241.188 193.48 240.726 193.27 240.726 192.43V187.39H242.679V185.248H240.726V181.846H237.387V185.248H235.959V187.39H237.387V193.165C237.387 195.475 238.815 196.126 240.81 196.126ZM249.035 196.336C252.08 196.336 254.054 194.404 254.138 191.926H250.862C250.715 193.144 250.064 193.774 248.993 193.774C247.523 193.774 246.788 192.556 246.788 190.645C246.788 188.692 247.523 187.474 248.993 187.474C249.959 187.474 250.547 188.104 250.757 189.07H254.054C253.739 186.655 251.87 184.954 248.951 184.954C245.549 184.954 243.323 187.411 243.323 190.645C243.323 193.879 245.57 196.336 249.035 196.336ZM255.229 196H258.652V190.057C258.652 188.734 259.408 187.789 260.542 187.789C261.655 187.789 262.222 188.566 262.222 189.7V196H265.645V189.007C265.645 186.613 264.259 184.933 261.907 184.933C260.416 184.933 259.492 185.542 258.715 186.571H258.652V180.985H255.229V196ZM276.661 196.357C280.126 196.357 282.814 194.614 282.814 191.464C282.814 188.251 280.294 187.39 277.501 186.739C275.254 186.235 274.099 185.983 274.099 184.933C274.099 184.093 274.96 183.526 276.262 183.526C277.648 183.526 278.53 184.177 278.677 185.332H282.31C282.163 182.182 279.643 180.712 276.388 180.712C273.028 180.712 270.424 182.119 270.424 185.332C270.424 188.482 273.175 189.28 275.779 189.889C277.837 190.393 279.055 190.645 279.055 191.842C279.055 192.976 277.858 193.417 276.64 193.417C274.855 193.417 273.868 192.787 273.7 191.275H269.962C270.046 194.593 272.671 196.357 276.661 196.357ZM289.477 196.315C290.842 196.315 291.934 195.958 292.837 195.328C293.782 194.677 294.412 193.753 294.643 192.787H291.304C291.01 193.459 290.422 193.858 289.519 193.858C288.112 193.858 287.314 192.955 287.104 191.506H294.832C294.853 189.322 294.223 187.453 292.942 186.277C292.018 185.437 290.8 184.933 289.267 184.933C285.991 184.933 283.744 187.39 283.744 190.603C283.744 193.858 285.928 196.315 289.477 196.315ZM287.125 189.469C287.356 188.188 288.028 187.369 289.33 187.369C290.443 187.369 291.241 188.188 291.367 189.469H287.125ZM300.556 196.336C303.37 196.336 305.449 195.118 305.449 192.766C305.449 190.015 303.223 189.532 301.333 189.217C299.968 188.965 298.75 188.86 298.75 188.104C298.75 187.432 299.401 187.117 300.241 187.117C301.186 187.117 301.837 187.411 301.963 188.377H305.113C304.945 186.256 303.307 184.933 300.262 184.933C297.721 184.933 295.621 186.109 295.621 188.377C295.621 190.897 297.616 191.401 299.485 191.716C300.913 191.968 302.215 192.073 302.215 193.039C302.215 193.732 301.564 194.11 300.535 194.11C299.401 194.11 298.687 193.585 298.561 192.514H295.327C295.432 194.887 297.406 196.336 300.556 196.336ZM311.241 196.336C314.055 196.336 316.134 195.118 316.134 192.766C316.134 190.015 313.908 189.532 312.018 189.217C310.653 188.965 309.435 188.86 309.435 188.104C309.435 187.432 310.086 187.117 310.926 187.117C311.871 187.117 312.522 187.411 312.648 188.377H315.798C315.63 186.256 313.992 184.933 310.947 184.933C308.406 184.933 306.306 186.109 306.306 188.377C306.306 190.897 308.301 191.401 310.17 191.716C311.598 191.968 312.9 192.073 312.9 193.039C312.9 193.732 312.249 194.11 311.22 194.11C310.086 194.11 309.372 193.585 309.246 192.514H306.012C306.117 194.887 308.091 196.336 311.241 196.336ZM317.245 196H320.668V185.248H317.245V196ZM317.245 183.757H320.668V180.985H317.245V183.757ZM327.56 193.9C326.069 193.9 325.292 192.598 325.292 190.645C325.292 188.692 326.069 187.369 327.56 187.369C329.051 187.369 329.849 188.692 329.849 190.645C329.849 192.598 329.051 193.9 327.56 193.9ZM327.581 196.336C331.046 196.336 333.314 193.879 333.314 190.645C333.314 187.411 331.046 184.954 327.581 184.954C324.137 184.954 321.827 187.411 321.827 190.645C321.827 193.879 324.137 196.336 327.581 196.336ZM334.471 196H337.894V190.057C337.894 188.734 338.65 187.789 339.784 187.789C340.897 187.789 341.464 188.566 341.464 189.7V196H344.887V189.007C344.887 186.613 343.501 184.933 341.149 184.933C339.658 184.933 338.629 185.563 337.831 186.718H337.768V185.248H334.471V196ZM171.029 252H178.442C180.017 252 181.256 251.622 182.138 250.929C183.125 250.173 183.671 249.081 183.671 247.569C183.671 245.784 182.621 244.398 180.983 243.894V243.831C182.306 243.327 183.083 242.382 183.083 240.891C183.083 239.694 182.642 238.728 181.781 238.014C180.983 237.363 179.828 236.985 178.274 236.985H171.029V252ZM174.704 249.018V245.448H177.98C179.114 245.448 179.996 246.057 179.996 247.254C179.996 248.325 179.24 249.018 178.022 249.018H174.704ZM174.704 242.928V239.925H177.749C178.841 239.925 179.534 240.471 179.534 241.416C179.534 242.403 178.799 242.928 177.728 242.928H174.704ZM184.908 252H188.331V247.17C188.331 244.839 189.675 243.81 191.775 244.104H191.859V241.164C191.712 241.101 191.502 241.08 191.187 241.08C189.885 241.08 189.003 241.647 188.247 242.928H188.184V241.248H184.908V252ZM197.992 252.315C199.357 252.315 200.449 251.958 201.352 251.328C202.297 250.677 202.927 249.753 203.158 248.787H199.819C199.525 249.459 198.937 249.858 198.034 249.858C196.627 249.858 195.829 248.955 195.619 247.506H203.347C203.368 245.322 202.738 243.453 201.457 242.277C200.533 241.437 199.315 240.933 197.782 240.933C194.506 240.933 192.259 243.39 192.259 246.603C192.259 249.858 194.443 252.315 197.992 252.315ZM195.64 245.469C195.871 244.188 196.543 243.369 197.845 243.369C198.958 243.369 199.756 244.188 199.882 245.469H195.64ZM207.664 252.273C209.281 252.273 210.226 251.706 210.856 250.803H210.898C210.982 251.349 211.087 251.769 211.255 252H214.573V251.853C214.279 251.664 214.195 251.181 214.195 250.32V244.902C214.195 243.558 213.754 242.508 212.83 241.836C212.053 241.248 210.961 240.954 209.344 240.954C206.089 240.954 204.556 242.655 204.472 244.65H207.622C207.727 243.747 208.273 243.264 209.365 243.264C210.394 243.264 210.835 243.726 210.835 244.419C210.835 245.154 210.121 245.364 208.105 245.616C205.879 245.91 203.989 246.624 203.989 248.997C203.989 251.118 205.522 252.273 207.664 252.273ZM208.756 250.089C207.916 250.089 207.286 249.753 207.286 248.892C207.286 248.073 207.832 247.737 209.155 247.443C209.848 247.275 210.478 247.107 210.919 246.876V248.157C210.919 249.312 210.037 250.089 208.756 250.089ZM215.854 252H219.235V248.703L220.264 247.611L222.847 252H226.816L222.595 245.28L226.375 241.248H222.427L219.235 244.881V236.985H215.854V252ZM174.116 312H177.77L179.345 304.797C179.597 303.6 179.849 302.004 179.849 302.004H179.891C179.891 302.004 180.143 303.6 180.416 304.797L181.991 312H185.624L189.74 296.985H186.002L184.511 303.243C184.175 304.734 183.755 307.002 183.755 307.002H183.713C183.713 307.002 183.335 304.923 182.999 303.39L181.592 296.985H178.148L176.741 303.432C176.405 304.944 176.006 307.002 176.006 307.002H175.964C175.964 307.002 175.607 304.734 175.271 303.285L173.759 296.985H170L174.116 312ZM194.567 309.9C193.076 309.9 192.299 308.598 192.299 306.645C192.299 304.692 193.076 303.369 194.567 303.369C196.058 303.369 196.856 304.692 196.856 306.645C196.856 308.598 196.058 309.9 194.567 309.9ZM194.588 312.336C198.053 312.336 200.321 309.879 200.321 306.645C200.321 303.411 198.053 300.954 194.588 300.954C191.144 300.954 188.834 303.411 188.834 306.645C188.834 309.879 191.144 312.336 194.588 312.336ZM201.478 312H204.901V307.17C204.901 304.839 206.245 303.81 208.345 304.104H208.429V301.164C208.282 301.101 208.072 301.08 207.757 301.08C206.455 301.08 205.573 301.647 204.817 302.928H204.754V301.248H201.478V312ZM209.517 312H212.898V308.703L213.927 307.611L216.51 312H220.479L216.258 305.28L220.038 301.248H216.09L212.898 304.881V296.985H209.517V312ZM225.436 312.336C228.25 312.336 230.329 311.118 230.329 308.766C230.329 306.015 228.103 305.532 226.213 305.217C224.848 304.965 223.63 304.86 223.63 304.104C223.63 303.432 224.281 303.117 225.121 303.117C226.066 303.117 226.717 303.411 226.843 304.377H229.993C229.825 302.256 228.187 300.933 225.142 300.933C222.601 300.933 220.501 302.109 220.501 304.377C220.501 306.897 222.496 307.401 224.365 307.716C225.793 307.968 227.095 308.073 227.095 309.039C227.095 309.732 226.444 310.11 225.415 310.11C224.281 310.11 223.567 309.585 223.441 308.514H220.207C220.312 310.887 222.286 312.336 225.436 312.336ZM231.44 312H234.863V306.057C234.863 304.734 235.619 303.789 236.753 303.789C237.866 303.789 238.433 304.566 238.433 305.7V312H241.856V305.007C241.856 302.613 240.47 300.933 238.118 300.933C236.627 300.933 235.703 301.542 234.926 302.571H234.863V296.985H231.44V312ZM248.667 309.9C247.176 309.9 246.399 308.598 246.399 306.645C246.399 304.692 247.176 303.369 248.667 303.369C250.158 303.369 250.956 304.692 250.956 306.645C250.956 308.598 250.158 309.9 248.667 309.9ZM248.688 312.336C252.153 312.336 254.421 309.879 254.421 306.645C254.421 303.411 252.153 300.954 248.688 300.954C245.244 300.954 242.934 303.411 242.934 306.645C242.934 309.879 245.244 312.336 248.688 312.336ZM255.578 315.549H259.001V310.887H259.043C259.715 311.79 260.702 312.336 262.088 312.336C264.902 312.336 266.771 310.11 266.771 306.624C266.771 303.39 265.028 300.933 262.172 300.933C260.702 300.933 259.652 301.584 258.917 302.55H258.854V301.248H255.578V315.549ZM261.206 309.69C259.736 309.69 258.896 308.493 258.896 306.75C258.896 305.007 259.652 303.684 261.143 303.684C262.613 303.684 263.306 304.902 263.306 306.75C263.306 308.577 262.508 309.69 261.206 309.69ZM272.501 312.336C275.315 312.336 277.394 311.118 277.394 308.766C277.394 306.015 275.168 305.532 273.278 305.217C271.913 304.965 270.695 304.86 270.695 304.104C270.695 303.432 271.346 303.117 272.186 303.117C273.131 303.117 273.782 303.411 273.908 304.377H277.058C276.89 302.256 275.252 300.933 272.207 300.933C269.666 300.933 267.566 302.109 267.566 304.377C267.566 306.897 269.561 307.401 271.43 307.716C272.858 307.968 274.16 308.073 274.16 309.039C274.16 309.732 273.509 310.11 272.48 310.11C271.346 310.11 270.632 309.585 270.506 308.514H267.272C267.377 310.887 269.351 312.336 272.501 312.336ZM287.961 312.357C291.426 312.357 294.114 310.614 294.114 307.464C294.114 304.251 291.594 303.39 288.801 302.739C286.554 302.235 285.399 301.983 285.399 300.933C285.399 300.093 286.26 299.526 287.562 299.526C288.948 299.526 289.83 300.177 289.977 301.332H293.61C293.463 298.182 290.943 296.712 287.688 296.712C284.328 296.712 281.724 298.119 281.724 301.332C281.724 304.482 284.475 305.28 287.079 305.889C289.137 306.393 290.355 306.645 290.355 307.842C290.355 308.976 289.158 309.417 287.94 309.417C286.155 309.417 285.168 308.787 285 307.275H281.262C281.346 310.593 283.971 312.357 287.961 312.357ZM300.777 312.315C302.142 312.315 303.234 311.958 304.137 311.328C305.082 310.677 305.712 309.753 305.943 308.787H302.604C302.31 309.459 301.722 309.858 300.819 309.858C299.412 309.858 298.614 308.955 298.404 307.506H306.132C306.153 305.322 305.523 303.453 304.242 302.277C303.318 301.437 302.1 300.933 300.567 300.933C297.291 300.933 295.044 303.39 295.044 306.603C295.044 309.858 297.228 312.315 300.777 312.315ZM298.425 305.469C298.656 304.188 299.328 303.369 300.63 303.369C301.743 303.369 302.541 304.188 302.667 305.469H298.425ZM311.856 312.336C314.67 312.336 316.749 311.118 316.749 308.766C316.749 306.015 314.523 305.532 312.633 305.217C311.268 304.965 310.05 304.86 310.05 304.104C310.05 303.432 310.701 303.117 311.541 303.117C312.486 303.117 313.137 303.411 313.263 304.377H316.413C316.245 302.256 314.607 300.933 311.562 300.933C309.021 300.933 306.921 302.109 306.921 304.377C306.921 306.897 308.916 307.401 310.785 307.716C312.213 307.968 313.515 308.073 313.515 309.039C313.515 309.732 312.864 310.11 311.835 310.11C310.701 310.11 309.987 309.585 309.861 308.514H306.627C306.732 310.887 308.706 312.336 311.856 312.336ZM322.541 312.336C325.355 312.336 327.434 311.118 327.434 308.766C327.434 306.015 325.208 305.532 323.318 305.217C321.953 304.965 320.735 304.86 320.735 304.104C320.735 303.432 321.386 303.117 322.226 303.117C323.171 303.117 323.822 303.411 323.948 304.377H327.098C326.93 302.256 325.292 300.933 322.247 300.933C319.706 300.933 317.606 302.109 317.606 304.377C317.606 306.897 319.601 307.401 321.47 307.716C322.898 307.968 324.2 308.073 324.2 309.039C324.2 309.732 323.549 310.11 322.52 310.11C321.386 310.11 320.672 309.585 320.546 308.514H317.312C317.417 310.887 319.391 312.336 322.541 312.336ZM328.545 312H331.968V301.248H328.545V312ZM328.545 299.757H331.968V296.985H328.545V299.757ZM338.86 309.9C337.369 309.9 336.592 308.598 336.592 306.645C336.592 304.692 337.369 303.369 338.86 303.369C340.351 303.369 341.149 304.692 341.149 306.645C341.149 308.598 340.351 309.9 338.86 309.9ZM338.881 312.336C342.346 312.336 344.614 309.879 344.614 306.645C344.614 303.411 342.346 300.954 338.881 300.954C335.437 300.954 333.127 303.411 333.127 306.645C333.127 309.879 335.437 312.336 338.881 312.336ZM345.771 312H349.194V306.057C349.194 304.734 349.95 303.789 351.084 303.789C352.197 303.789 352.764 304.566 352.764 305.7V312H356.187V305.007C356.187 302.613 354.801 300.933 352.449 300.933C350.958 300.933 349.929 301.563 349.131 302.718H349.068V301.248H345.771V312ZM360.651 312H371.823V309.081H365.565V309.06C366.573 307.989 368.127 307.107 369.408 306.057C370.689 305.07 371.802 303.915 371.802 301.92C371.802 299.379 369.933 297.321 366.468 297.321C364.221 297.321 362.667 298.119 361.848 299.295C361.155 300.24 360.861 301.269 360.861 302.949H364.179C364.2 301.962 364.41 301.311 364.83 300.828C365.187 300.387 365.712 300.177 366.384 300.177C367.602 300.177 368.253 300.933 368.253 302.046C368.253 302.76 367.896 303.306 367.308 303.831C366.174 304.839 364.494 305.889 363.192 307.002C361.764 308.199 360.693 309.585 360.651 312ZM171.029 372H178.442C180.017 372 181.256 371.622 182.138 370.929C183.125 370.173 183.671 369.081 183.671 367.569C183.671 365.784 182.621 364.398 180.983 363.894V363.831C182.306 363.327 183.083 362.382 183.083 360.891C183.083 359.694 182.642 358.728 181.781 358.014C180.983 357.363 179.828 356.985 178.274 356.985H171.029V372ZM174.704 369.018V365.448H177.98C179.114 365.448 179.996 366.057 179.996 367.254C179.996 368.325 179.24 369.018 178.022 369.018H174.704ZM174.704 362.928V359.925H177.749C178.841 359.925 179.534 360.471 179.534 361.416C179.534 362.403 178.799 362.928 177.728 362.928H174.704ZM184.908 372H188.331V367.17C188.331 364.839 189.675 363.81 191.775 364.104H191.859V361.164C191.712 361.101 191.502 361.08 191.187 361.08C189.885 361.08 189.003 361.647 188.247 362.928H188.184V361.248H184.908V372ZM197.992 372.315C199.357 372.315 200.449 371.958 201.352 371.328C202.297 370.677 202.927 369.753 203.158 368.787H199.819C199.525 369.459 198.937 369.858 198.034 369.858C196.627 369.858 195.829 368.955 195.619 367.506H203.347C203.368 365.322 202.738 363.453 201.457 362.277C200.533 361.437 199.315 360.933 197.782 360.933C194.506 360.933 192.259 363.39 192.259 366.603C192.259 369.858 194.443 372.315 197.992 372.315ZM195.64 365.469C195.871 364.188 196.543 363.369 197.845 363.369C198.958 363.369 199.756 364.188 199.882 365.469H195.64ZM207.664 372.273C209.281 372.273 210.226 371.706 210.856 370.803H210.898C210.982 371.349 211.087 371.769 211.255 372H214.573V371.853C214.279 371.664 214.195 371.181 214.195 370.32V364.902C214.195 363.558 213.754 362.508 212.83 361.836C212.053 361.248 210.961 360.954 209.344 360.954C206.089 360.954 204.556 362.655 204.472 364.65H207.622C207.727 363.747 208.273 363.264 209.365 363.264C210.394 363.264 210.835 363.726 210.835 364.419C210.835 365.154 210.121 365.364 208.105 365.616C205.879 365.91 203.989 366.624 203.989 368.997C203.989 371.118 205.522 372.273 207.664 372.273ZM208.756 370.089C207.916 370.089 207.286 369.753 207.286 368.892C207.286 368.073 207.832 367.737 209.155 367.443C209.848 367.275 210.478 367.107 210.919 366.876V368.157C210.919 369.312 210.037 370.089 208.756 370.089ZM215.854 372H219.235V368.703L220.264 367.611L222.847 372H226.816L222.595 365.28L226.375 361.248H222.427L219.235 364.881V356.985H215.854V372ZM174.116 432H177.77L179.345 424.797C179.597 423.6 179.849 422.004 179.849 422.004H179.891C179.891 422.004 180.143 423.6 180.416 424.797L181.991 432H185.624L189.74 416.985H186.002L184.511 423.243C184.175 424.734 183.755 427.002 183.755 427.002H183.713C183.713 427.002 183.335 424.923 182.999 423.39L181.592 416.985H178.148L176.741 423.432C176.405 424.944 176.006 427.002 176.006 427.002H175.964C175.964 427.002 175.607 424.734 175.271 423.285L173.759 416.985H170L174.116 432ZM194.567 429.9C193.076 429.9 192.299 428.598 192.299 426.645C192.299 424.692 193.076 423.369 194.567 423.369C196.058 423.369 196.856 424.692 196.856 426.645C196.856 428.598 196.058 429.9 194.567 429.9ZM194.588 432.336C198.053 432.336 200.321 429.879 200.321 426.645C200.321 423.411 198.053 420.954 194.588 420.954C191.144 420.954 188.834 423.411 188.834 426.645C188.834 429.879 191.144 432.336 194.588 432.336ZM201.478 432H204.901V427.17C204.901 424.839 206.245 423.81 208.345 424.104H208.429V421.164C208.282 421.101 208.072 421.08 207.757 421.08C206.455 421.08 205.573 421.647 204.817 422.928H204.754V421.248H201.478V432ZM209.517 432H212.898V428.703L213.927 427.611L216.51 432H220.479L216.258 425.28L220.038 421.248H216.09L212.898 424.881V416.985H209.517V432ZM225.436 432.336C228.25 432.336 230.329 431.118 230.329 428.766C230.329 426.015 228.103 425.532 226.213 425.217C224.848 424.965 223.63 424.86 223.63 424.104C223.63 423.432 224.281 423.117 225.121 423.117C226.066 423.117 226.717 423.411 226.843 424.377H229.993C229.825 422.256 228.187 420.933 225.142 420.933C222.601 420.933 220.501 422.109 220.501 424.377C220.501 426.897 222.496 427.401 224.365 427.716C225.793 427.968 227.095 428.073 227.095 429.039C227.095 429.732 226.444 430.11 225.415 430.11C224.281 430.11 223.567 429.585 223.441 428.514H220.207C220.312 430.887 222.286 432.336 225.436 432.336ZM231.44 432H234.863V426.057C234.863 424.734 235.619 423.789 236.753 423.789C237.866 423.789 238.433 424.566 238.433 425.7V432H241.856V425.007C241.856 422.613 240.47 420.933 238.118 420.933C236.627 420.933 235.703 421.542 234.926 422.571H234.863V416.985H231.44V432ZM248.667 429.9C247.176 429.9 246.399 428.598 246.399 426.645C246.399 424.692 247.176 423.369 248.667 423.369C250.158 423.369 250.956 424.692 250.956 426.645C250.956 428.598 250.158 429.9 248.667 429.9ZM248.688 432.336C252.153 432.336 254.421 429.879 254.421 426.645C254.421 423.411 252.153 420.954 248.688 420.954C245.244 420.954 242.934 423.411 242.934 426.645C242.934 429.879 245.244 432.336 248.688 432.336ZM255.578 435.549H259.001V430.887H259.043C259.715 431.79 260.702 432.336 262.088 432.336C264.902 432.336 266.771 430.11 266.771 426.624C266.771 423.39 265.028 420.933 262.172 420.933C260.702 420.933 259.652 421.584 258.917 422.55H258.854V421.248H255.578V435.549ZM261.206 429.69C259.736 429.69 258.896 428.493 258.896 426.75C258.896 425.007 259.652 423.684 261.143 423.684C262.613 423.684 263.306 424.902 263.306 426.75C263.306 428.577 262.508 429.69 261.206 429.69ZM272.501 432.336C275.315 432.336 277.394 431.118 277.394 428.766C277.394 426.015 275.168 425.532 273.278 425.217C271.913 424.965 270.695 424.86 270.695 424.104C270.695 423.432 271.346 423.117 272.186 423.117C273.131 423.117 273.782 423.411 273.908 424.377H277.058C276.89 422.256 275.252 420.933 272.207 420.933C269.666 420.933 267.566 422.109 267.566 424.377C267.566 426.897 269.561 427.401 271.43 427.716C272.858 427.968 274.16 428.073 274.16 429.039C274.16 429.732 273.509 430.11 272.48 430.11C271.346 430.11 270.632 429.585 270.506 428.514H267.272C267.377 430.887 269.351 432.336 272.501 432.336ZM287.961 432.357C291.426 432.357 294.114 430.614 294.114 427.464C294.114 424.251 291.594 423.39 288.801 422.739C286.554 422.235 285.399 421.983 285.399 420.933C285.399 420.093 286.26 419.526 287.562 419.526C288.948 419.526 289.83 420.177 289.977 421.332H293.61C293.463 418.182 290.943 416.712 287.688 416.712C284.328 416.712 281.724 418.119 281.724 421.332C281.724 424.482 284.475 425.28 287.079 425.889C289.137 426.393 290.355 426.645 290.355 427.842C290.355 428.976 289.158 429.417 287.94 429.417C286.155 429.417 285.168 428.787 285 427.275H281.262C281.346 430.593 283.971 432.357 287.961 432.357ZM300.777 432.315C302.142 432.315 303.234 431.958 304.137 431.328C305.082 430.677 305.712 429.753 305.943 428.787H302.604C302.31 429.459 301.722 429.858 300.819 429.858C299.412 429.858 298.614 428.955 298.404 427.506H306.132C306.153 425.322 305.523 423.453 304.242 422.277C303.318 421.437 302.1 420.933 300.567 420.933C297.291 420.933 295.044 423.39 295.044 426.603C295.044 429.858 297.228 432.315 300.777 432.315ZM298.425 425.469C298.656 424.188 299.328 423.369 300.63 423.369C301.743 423.369 302.541 424.188 302.667 425.469H298.425ZM311.856 432.336C314.67 432.336 316.749 431.118 316.749 428.766C316.749 426.015 314.523 425.532 312.633 425.217C311.268 424.965 310.05 424.86 310.05 424.104C310.05 423.432 310.701 423.117 311.541 423.117C312.486 423.117 313.137 423.411 313.263 424.377H316.413C316.245 422.256 314.607 420.933 311.562 420.933C309.021 420.933 306.921 422.109 306.921 424.377C306.921 426.897 308.916 427.401 310.785 427.716C312.213 427.968 313.515 428.073 313.515 429.039C313.515 429.732 312.864 430.11 311.835 430.11C310.701 430.11 309.987 429.585 309.861 428.514H306.627C306.732 430.887 308.706 432.336 311.856 432.336ZM322.541 432.336C325.355 432.336 327.434 431.118 327.434 428.766C327.434 426.015 325.208 425.532 323.318 425.217C321.953 424.965 320.735 424.86 320.735 424.104C320.735 423.432 321.386 423.117 322.226 423.117C323.171 423.117 323.822 423.411 323.948 424.377H327.098C326.93 422.256 325.292 420.933 322.247 420.933C319.706 420.933 317.606 422.109 317.606 424.377C317.606 426.897 319.601 427.401 321.47 427.716C322.898 427.968 324.2 428.073 324.2 429.039C324.2 429.732 323.549 430.11 322.52 430.11C321.386 430.11 320.672 429.585 320.546 428.514H317.312C317.417 430.887 319.391 432.336 322.541 432.336ZM328.545 432H331.968V421.248H328.545V432ZM328.545 419.757H331.968V416.985H328.545V419.757ZM338.86 429.9C337.369 429.9 336.592 428.598 336.592 426.645C336.592 424.692 337.369 423.369 338.86 423.369C340.351 423.369 341.149 424.692 341.149 426.645C341.149 428.598 340.351 429.9 338.86 429.9ZM338.881 432.336C342.346 432.336 344.614 429.879 344.614 426.645C344.614 423.411 342.346 420.954 338.881 420.954C335.437 420.954 333.127 423.411 333.127 426.645C333.127 429.879 335.437 432.336 338.881 432.336ZM345.771 432H349.194V426.057C349.194 424.734 349.95 423.789 351.084 423.789C352.197 423.789 352.764 424.566 352.764 425.7V432H356.187V425.007C356.187 422.613 354.801 420.933 352.449 420.933C350.958 420.933 349.929 421.563 349.131 422.718H349.068V421.248H345.771V432ZM366.615 432.336C369.639 432.336 372.306 430.908 372.306 427.821C372.306 425.889 371.277 424.776 369.702 424.293V424.251C370.983 423.747 371.886 422.844 371.886 421.374C371.886 418.833 369.723 417.321 366.552 417.321C362.982 417.321 360.987 419.316 360.924 422.172H364.221C364.305 420.933 364.977 419.967 366.51 419.967C367.707 419.967 368.4 420.618 368.4 421.605C368.4 422.697 367.518 423.285 366.174 423.285H365.397V425.742H366.258C367.833 425.742 368.715 426.372 368.715 427.632C368.715 428.829 367.917 429.627 366.468 429.627C364.662 429.627 363.906 428.556 363.822 427.023H360.483C360.483 428.682 361.029 430.026 362.079 430.95C363.087 431.853 364.578 432.336 366.615 432.336ZM171.029 492H178.442C180.017 492 181.256 491.622 182.138 490.929C183.125 490.173 183.671 489.081 183.671 487.569C183.671 485.784 182.621 484.398 180.983 483.894V483.831C182.306 483.327 183.083 482.382 183.083 480.891C183.083 479.694 182.642 478.728 181.781 478.014C180.983 477.363 179.828 476.985 178.274 476.985H171.029V492ZM174.704 489.018V485.448H177.98C179.114 485.448 179.996 486.057 179.996 487.254C179.996 488.325 179.24 489.018 178.022 489.018H174.704ZM174.704 482.928V479.925H177.749C178.841 479.925 179.534 480.471 179.534 481.416C179.534 482.403 178.799 482.928 177.728 482.928H174.704ZM184.908 492H188.331V487.17C188.331 484.839 189.675 483.81 191.775 484.104H191.859V481.164C191.712 481.101 191.502 481.08 191.187 481.08C189.885 481.08 189.003 481.647 188.247 482.928H188.184V481.248H184.908V492ZM197.992 492.315C199.357 492.315 200.449 491.958 201.352 491.328C202.297 490.677 202.927 489.753 203.158 488.787H199.819C199.525 489.459 198.937 489.858 198.034 489.858C196.627 489.858 195.829 488.955 195.619 487.506H203.347C203.368 485.322 202.738 483.453 201.457 482.277C200.533 481.437 199.315 480.933 197.782 480.933C194.506 480.933 192.259 483.39 192.259 486.603C192.259 489.858 194.443 492.315 197.992 492.315ZM195.64 485.469C195.871 484.188 196.543 483.369 197.845 483.369C198.958 483.369 199.756 484.188 199.882 485.469H195.64ZM207.664 492.273C209.281 492.273 210.226 491.706 210.856 490.803H210.898C210.982 491.349 211.087 491.769 211.255 492H214.573V491.853C214.279 491.664 214.195 491.181 214.195 490.32V484.902C214.195 483.558 213.754 482.508 212.83 481.836C212.053 481.248 210.961 480.954 209.344 480.954C206.089 480.954 204.556 482.655 204.472 484.65H207.622C207.727 483.747 208.273 483.264 209.365 483.264C210.394 483.264 210.835 483.726 210.835 484.419C210.835 485.154 210.121 485.364 208.105 485.616C205.879 485.91 203.989 486.624 203.989 488.997C203.989 491.118 205.522 492.273 207.664 492.273ZM208.756 490.089C207.916 490.089 207.286 489.753 207.286 488.892C207.286 488.073 207.832 487.737 209.155 487.443C209.848 487.275 210.478 487.107 210.919 486.876V488.157C210.919 489.312 210.037 490.089 208.756 490.089ZM215.854 492H219.235V488.703L220.264 487.611L222.847 492H226.816L222.595 485.28L226.375 481.248H222.427L219.235 484.881V476.985H215.854V492ZM171.029 552H174.368V544.461C174.368 543.852 174.305 541.437 174.305 541.437H174.347C174.347 541.437 174.872 543.705 175.04 544.251L177.182 552H180.248L182.411 544.23C182.579 543.684 183.104 541.437 183.104 541.437H183.146C183.146 541.437 183.083 543.831 183.083 544.44V552H186.485V536.985H181.445L179.597 543.558C179.345 544.503 178.757 546.981 178.757 546.981H178.715C178.715 546.981 178.127 544.503 177.854 543.558L176.027 536.985H171.029V552ZM188.543 552H199.001V548.85H192.26V536.985H188.543V552ZM203.677 552H207.394V546.162H213.631V543.159H207.394V540.114H214.849V536.985H203.677V552ZM221.35 552.315C222.715 552.315 223.807 551.958 224.71 551.328C225.655 550.677 226.285 549.753 226.516 548.787H223.177C222.883 549.459 222.295 549.858 221.392 549.858C219.985 549.858 219.187 548.955 218.977 547.506H226.705C226.726 545.322 226.096 543.453 224.815 542.277C223.891 541.437 222.673 540.933 221.14 540.933C217.864 540.933 215.617 543.39 215.617 546.603C215.617 549.858 217.801 552.315 221.35 552.315ZM218.998 545.469C219.229 544.188 219.901 543.369 221.203 543.369C222.316 543.369 223.114 544.188 223.24 545.469H218.998ZM231.022 552.273C232.639 552.273 233.584 551.706 234.214 550.803H234.256C234.34 551.349 234.445 551.769 234.613 552H237.931V551.853C237.637 551.664 237.553 551.181 237.553 550.32V544.902C237.553 543.558 237.112 542.508 236.188 541.836C235.411 541.248 234.319 540.954 232.702 540.954C229.447 540.954 227.914 542.655 227.83 544.65H230.98C231.085 543.747 231.631 543.264 232.723 543.264C233.752 543.264 234.193 543.726 234.193 544.419C234.193 545.154 233.479 545.364 231.463 545.616C229.237 545.91 227.347 546.624 227.347 548.997C227.347 551.118 228.88 552.273 231.022 552.273ZM232.114 550.089C231.274 550.089 230.644 549.753 230.644 548.892C230.644 548.073 231.19 547.737 232.513 547.443C233.206 547.275 233.836 547.107 234.277 546.876V548.157C234.277 549.312 233.395 550.089 232.114 550.089ZM243.791 552.336C246.605 552.336 248.684 551.118 248.684 548.766C248.684 546.015 246.458 545.532 244.568 545.217C243.203 544.965 241.985 544.86 241.985 544.104C241.985 543.432 242.636 543.117 243.476 543.117C244.421 543.117 245.072 543.411 245.198 544.377H248.348C248.18 542.256 246.542 540.933 243.497 540.933C240.956 540.933 238.856 542.109 238.856 544.377C238.856 546.897 240.851 547.401 242.72 547.716C244.148 547.968 245.45 548.073 245.45 549.039C245.45 549.732 244.799 550.11 243.77 550.11C242.636 550.11 241.922 549.585 241.796 548.514H238.562C238.667 550.887 240.641 552.336 243.791 552.336ZM253.75 552.126C254.674 552.126 255.325 552.042 255.619 551.958V549.459C255.493 549.459 255.157 549.48 254.863 549.48C254.128 549.48 253.666 549.27 253.666 548.43V543.39H255.619V541.248H253.666V537.846H250.327V541.248H248.899V543.39H250.327V549.165C250.327 551.475 251.755 552.126 253.75 552.126Z" fill="black"/>
<path d="M119.019 271.863C129.046 270.101 137.178 264.479 140.288 254.504C145.078 239.118 135.552 220.296 119.019 212.471" stroke="#EE2F14" stroke-width="1.89" stroke-linecap="round" stroke-linejoin="round"/>
<path d="M119.019 71.392C129.046 69.6296 137.178 63.9901 140.288 54.0326C145.078 38.6471 135.552 19.8249 119.019 12" stroke="#EE2F14" stroke-width="1.89" stroke-linecap="round" stroke-linejoin="round"/>
<path d="M119.019 130.714C129.046 128.951 137.178 123.312 140.288 113.354C145.078 97.9688 135.552 79.1465 119.019 71.3215" stroke="#EE2F14" stroke-width="1.89" stroke-linecap="round" stroke-linejoin="round"/>
<path d="M119.019 390.63C129.046 388.868 137.178 383.228 140.288 373.27C145.078 357.885 135.552 339.063 119.019 331.238" stroke="#EE2F14" stroke-width="1.89" stroke-linecap="round" stroke-linejoin="round"/>
<path d="M119.019 509.555C129.046 507.793 137.178 502.171 140.288 492.196C145.078 476.81 135.552 457.988 119.019 450.163" stroke="#EE2F14" stroke-width="1.89" stroke-linecap="round" stroke-linejoin="round"/>
<path d="M119.019 331.273C129.046 329.511 137.178 323.871 140.288 313.914C145.078 298.528 135.552 279.706 119.019 271.881" stroke="#EE2F14" stroke-width="1.89" stroke-linecap="round" stroke-linejoin="round"/>
<path d="M119.018 212C129.246 209.626 137.556 202.869 140.734 189.101C145.629 167.827 135.894 141.82 119 131" stroke="#EE2F14" stroke-width="1.89" stroke-linecap="round" stroke-linejoin="round"/>
<path d="M119.019 450.075C129.046 448.313 137.178 442.673 140.288 432.716C145.078 417.33 135.552 398.508 119.019 390.683" stroke="#EE2F14" stroke-width="1.89" stroke-linecap="round" stroke-linejoin="round"/>
<path d="M119.019 569C129.046 567.238 137.178 561.598 140.288 551.641C145.078 536.255 135.552 517.433 119.019 509.608" stroke="#EE2F14" stroke-width="1.89" stroke-linecap="round" stroke-linejoin="round"/>
</svg>
