<svg width="283" height="108" viewBox="0 0 283 108" fill="none" xmlns="http://www.w3.org/2000/svg">
<path d="M3.5 40C3.5 19.8416 19.8416 3.5 40 3.5H243C263.158 3.5 279.5 19.8416 279.5 40V68C279.5 88.1584 263.158 104.5 243 104.5H40C19.8416 104.5 3.5 88.1584 3.5 68V40Z" stroke="#004D2B" stroke-width="7"/>
<path d="M37.1563 72.5523C39.7952 72.5523 42.3727 71.0794 43.8456 66.8449L45.0116 63.8378H57.6539L58.7585 66.7222C60.4769 71.0794 63.1772 72.491 65.8161 72.491C69.4983 72.491 72.8123 69.7293 72.3827 68.6246L59.0654 35.3621C58.4517 33.3983 57.0402 31.9868 51.4555 31.9868C45.8708 31.9868 44.2138 33.3983 43.6001 35.3621L30.8352 68.7474C30.4056 69.8521 33.7809 72.5523 37.1563 72.5523ZM47.0369 54.9391L51.2714 43.4629L55.4445 54.9391H47.0369ZM88.6821 84.9491C99.4833 84.9491 105.62 80.96 105.62 75.0071C105.62 69.7293 101.202 67.2745 96.9671 66.1085C93.8986 65.2493 91.6893 65.0038 90.7687 64.1446C90.0323 63.8378 89.5413 63.5309 89.4186 63.1627C89.8482 63.1627 90.2778 63.1013 90.7074 63.1013C98.8696 62.7331 103.902 58.6827 103.902 52.423C103.902 49.9068 102.859 47.6361 101.079 45.7336L106.357 40.824C106.664 40.6399 104.884 35.9144 100.833 35.9144C98.5627 35.9144 96.9057 36.9577 95.5556 39.7194L94.5123 41.9287C92.7939 41.315 90.8915 40.9468 88.9276 40.9468C80.2745 40.9468 74.1375 45.795 74.1375 52.4843C74.1375 57.4553 77.3287 61.0761 82.9134 62.4877C81.3791 63.2241 80.3972 64.6356 80.3972 66.1698C80.3972 67.2745 80.704 68.2564 81.3791 68.9315C75.9172 69.6066 72.1122 72.4296 72.1122 76.7255C72.1122 82.1874 77.0832 84.9491 88.6821 84.9491ZM88.989 56.9643C86.3501 56.9643 84.4476 55.1846 84.4476 52.3616C84.4476 49.5999 86.3501 47.8202 88.9276 47.8202C91.5665 47.8202 93.469 49.5999 93.469 52.3616C93.469 55.1846 91.5665 56.9643 88.989 56.9643ZM88.9276 79.6712C84.7545 79.6712 82.7293 78.5666 82.7293 76.7869C82.7293 74.823 85.0613 73.5342 88.7435 73.2274C89.6641 73.4729 90.4005 73.5956 91.1369 73.8411C93.469 74.4548 94.9419 75.1299 94.9419 76.6028C94.9419 78.4439 93.0394 79.6712 88.9276 79.6712ZM107.091 57.1485C107.091 66.9677 113.596 72.8592 123.968 72.8592C128.264 72.8592 131.516 72.1227 133.787 70.834C135.996 69.5452 137.224 67.7655 137.224 65.7403C137.224 61.2602 131.701 61.0761 131.639 61.1989C130.535 63.3468 128.018 64.8811 124.398 64.8811C120.899 64.8811 118.261 63.2241 117.401 60.3397C117.279 60.0942 117.217 59.7874 117.156 59.4805H136.549C138.39 59.4805 138.881 58.4372 138.942 56.6575V56.1052C138.942 47.3293 132.498 40.9468 123.232 40.9468C113.842 40.9468 107.091 47.8202 107.091 57.1485ZM128.448 54.0186H117.279C117.585 50.8273 119.918 48.4953 123.047 48.4953C126.3 48.4953 128.264 50.5205 128.448 54.0186ZM164.075 40.9468C159.288 40.9468 156.219 43.3402 154.071 46.5928C153.151 42.7879 150.451 41.2536 147.382 41.2536C144.927 41.2536 142.841 42.1742 142.841 42.6038V66.5994C142.841 70.9567 144.989 72.3069 148.18 72.3069H149.407C152.414 72.3069 154.624 70.8953 154.624 66.5994V52.9139C155.483 51.5024 157.14 50.5205 159.165 50.5205C161.62 50.5205 163.031 52.2389 163.031 54.9391V66.5994C163.031 70.9567 165.241 72.3069 168.371 72.3069H169.598C172.667 72.3069 174.814 70.834 174.814 66.5994V52.9139C174.814 46.6542 171.93 40.9468 164.075 40.9468ZM192.337 72.8592C196.448 72.8592 199.701 70.6499 201.297 67.2745C201.358 67.8882 201.481 68.5019 201.603 69.0542C202.278 71.509 204.12 72.3069 206.574 72.3069H207.74C210.809 72.3069 212.957 70.834 212.957 66.5994V37.7555C212.957 30.5752 209.091 28.7955 205.715 28.7955C203.322 28.7955 201.174 29.7161 201.174 30.1457V45.1199C199.394 42.6038 196.203 40.9468 192.398 40.9468C183.99 40.9468 178.528 47.0838 178.528 56.8416C178.528 66.2926 184.052 72.8592 192.337 72.8592ZM201.174 58.3759C201.174 61.6898 198.842 63.715 195.589 63.715C192.091 63.715 189.698 60.9534 189.698 56.903C189.698 52.6684 192.091 50.0909 195.773 50.0909C198.351 50.0909 200.192 51.441 201.174 53.4663V58.3759ZM216.943 63.8992C216.943 69.177 220.871 72.6137 227.008 72.6137C231.488 72.6137 235.293 70.7112 237.257 67.4586C237.379 68.1951 237.686 68.8701 237.993 69.4838C239.159 71.5704 241.184 72.5523 243.762 72.5523C246.032 72.5523 248.364 71.8773 248.364 71.2022V54.1413C248.364 45.4268 243.578 40.9468 232.654 40.9468C226.026 40.9468 221.791 42.1742 219.705 44.5676C218.6 45.7336 218.109 47.1451 218.109 48.7408C218.109 54.0186 225.842 53.098 225.903 52.9139C226.64 51.0728 228.235 49.2931 231.979 49.2931C234.679 49.2931 236.275 50.4591 236.581 52.9139C236.643 53.2208 236.704 53.589 236.704 53.9572H235.415C223.571 54.0186 216.943 57.3326 216.943 63.8992ZM236.704 60.9534C236.581 63.7764 234.434 65.6175 231.242 65.6175C229.156 65.6175 227.744 64.5129 227.744 62.6718C227.744 60.0942 230.444 59.0509 235.047 58.9896L236.704 58.9282V60.9534Z" fill="#004D2B"/>
</svg>
