<svg width="449" height="181" viewBox="0 0 449 181" fill="none" xmlns="http://www.w3.org/2000/svg">
<path fill-rule="evenodd" clip-rule="evenodd" d="M309.58 163.946C283.668 181.629 251.517 185.194 225.498 170.297C222.351 168.495 219.392 166.478 216.624 164.271C190.536 182.578 157.867 186.444 131.498 171.345C127.939 169.307 124.62 166.995 121.547 164.442C95.6278 182.15 63.4568 185.726 37.425 170.821C-0.917125 148.866 -11.4211 95.1296 13.9637 50.7965C39.3485 6.46335 91.0094 -11.6782 129.352 10.2763C132.911 12.3142 136.23 14.6261 139.303 17.1789C165.222 -0.528524 197.393 -4.10514 223.425 10.8004C226.572 12.6024 229.531 14.6185 232.299 16.8259C258.387 -1.48108 291.056 -5.3466 317.425 9.75208C320.971 11.7828 324.28 14.0854 327.343 16.6273C353.255 -1.05638 385.406 -4.62161 411.425 10.2763C449.767 32.2307 460.271 85.9674 434.886 130.3C409.501 174.634 357.84 192.775 319.498 170.821C315.952 168.79 312.644 166.487 309.58 163.946ZM131.346 103.369C129.873 107.604 127.295 109.076 124.656 109.076C121.281 109.076 117.906 106.376 118.335 105.272L131.1 71.8863C131.714 69.9224 133.371 68.5109 138.955 68.5109C144.54 68.5109 145.952 69.9224 146.565 71.8863L159.883 105.149C160.312 106.253 156.998 109.015 153.316 109.015C150.677 109.015 147.977 107.604 146.259 103.246L145.154 100.362H132.512L131.346 103.369ZM138.771 79.9871L134.537 91.4633H142.945L138.771 79.9871ZM193.12 111.531C193.12 117.484 186.983 121.473 176.182 121.473C164.583 121.473 159.612 118.712 159.612 113.25C159.612 108.954 163.417 106.131 168.879 105.456C168.204 104.781 167.897 103.799 167.897 102.694C167.897 101.16 168.879 99.7483 170.413 99.0118C164.829 97.6003 161.637 93.9795 161.637 89.0085C161.637 82.3192 167.774 77.4709 176.428 77.4709C178.391 77.4709 180.294 77.8392 182.012 78.4529L183.056 76.2435C184.406 73.4819 186.063 72.4386 188.333 72.4386C192.384 72.4386 194.164 77.1641 193.857 77.3482L188.579 82.2578C190.359 84.1603 191.402 86.431 191.402 88.9471C191.402 95.2069 186.37 99.2573 178.207 99.6255C177.993 99.6255 177.778 99.6409 177.563 99.6562C177.348 99.6715 177.133 99.6869 176.919 99.6869C177.041 100.055 177.532 100.362 178.269 100.669C178.907 101.264 180.164 101.565 181.897 101.98C182.665 102.163 183.525 102.369 184.467 102.633C188.702 103.799 193.12 106.253 193.12 111.531ZM171.948 88.8858C171.948 91.7088 173.85 93.4885 176.489 93.4885C179.067 93.4885 180.969 91.7088 180.969 88.8858C180.969 86.1241 179.067 84.3444 176.428 84.3444C173.85 84.3444 171.948 86.1241 171.948 88.8858ZM170.229 113.311C170.229 115.091 172.254 116.195 176.428 116.195C180.539 116.195 182.442 114.968 182.442 113.127C182.442 111.654 180.969 110.979 178.637 110.365C178.191 110.217 177.745 110.113 177.258 110C176.941 109.926 176.607 109.848 176.244 109.752C172.561 110.058 170.229 111.347 170.229 113.311ZM211.468 109.383C201.096 109.383 194.591 103.492 194.591 93.6726C194.591 84.3444 201.342 77.4709 210.732 77.4709C219.998 77.4709 226.442 83.8534 226.442 92.6293V93.1817C226.381 94.9614 225.89 96.0047 224.049 96.0047H204.656C204.717 96.3115 204.779 96.6184 204.901 96.8639C205.761 99.7483 208.399 101.405 211.898 101.405C215.518 101.405 218.035 99.871 219.139 97.7231C219.201 97.6003 224.724 97.7844 224.724 102.264C224.724 104.29 223.497 106.069 221.287 107.358C219.016 108.647 215.764 109.383 211.468 109.383ZM204.779 90.5428H215.948C215.764 87.0447 213.8 85.0195 210.547 85.0195C207.418 85.0195 205.085 87.3515 204.779 90.5428ZM241.571 83.117C243.719 79.8644 246.788 77.4709 251.575 77.4709C259.43 77.4709 262.314 83.1784 262.314 89.4381V103.124C262.314 107.358 260.167 108.831 257.098 108.831H255.871C252.741 108.831 250.531 107.481 250.531 103.124V91.4633C250.531 88.763 249.12 87.0447 246.665 87.0447C244.64 87.0447 242.983 88.0266 242.124 89.4381V103.124C242.124 107.42 239.914 108.831 236.907 108.831H235.68C232.489 108.831 230.341 107.481 230.341 103.124V79.1279C230.341 78.6983 232.427 77.7778 234.882 77.7778C237.951 77.7778 240.651 79.312 241.571 83.117ZM288.797 103.799C287.201 107.174 283.948 109.383 279.837 109.383C271.552 109.383 266.028 102.817 266.028 93.3658C266.028 83.6079 271.49 77.4709 279.898 77.4709C283.703 77.4709 286.894 79.1279 288.674 81.6441V66.6698C288.674 66.2402 290.822 65.3197 293.215 65.3197C296.591 65.3197 300.457 67.0994 300.457 74.2797V103.124C300.457 107.358 298.309 108.831 295.24 108.831H294.074C291.62 108.831 289.779 108.033 289.103 105.578C288.981 105.026 288.858 104.412 288.797 103.799ZM283.089 100.239C286.342 100.239 288.674 98.214 288.674 94.9V89.9904C287.692 87.9652 285.851 86.6151 283.273 86.6151C279.591 86.6151 277.198 89.1926 277.198 93.4271C277.198 97.4776 279.591 100.239 283.089 100.239ZM314.508 109.138C308.371 109.138 304.443 105.701 304.443 100.423C304.443 93.8567 311.071 90.5428 322.915 90.4814H324.204C324.204 90.1132 324.143 89.7449 324.081 89.4381C323.775 86.9833 322.179 85.8173 319.479 85.8173C315.735 85.8173 314.14 87.597 313.403 89.4381C313.342 89.6222 305.609 90.5428 305.609 85.2649C305.609 83.6693 306.1 82.2578 307.205 81.0918C309.291 78.6983 313.526 77.4709 320.154 77.4709C331.078 77.4709 335.865 81.951 335.865 90.6655V107.726C335.865 108.401 333.532 109.076 331.262 109.076C328.684 109.076 326.659 108.095 325.493 106.008C325.186 105.394 324.879 104.719 324.757 103.983C322.793 107.235 318.988 109.138 314.508 109.138ZM318.742 102.142C321.934 102.142 324.081 100.301 324.204 97.4776V95.4524L322.547 95.5137C317.944 95.5751 315.244 96.6184 315.244 99.1959C315.244 101.037 316.656 102.142 318.742 102.142Z" fill="black"/>
</svg>
