<svg width="286" height="187" viewBox="0 0 286 187" fill="none" xmlns="http://www.w3.org/2000/svg">
<g clip-path="url(#clip0_44_364)">
<path d="M240.08 20.2328C232.113 18.0891 230.666 18.324 222.976 19.0435C218.736 19.4399 213.59 19.0435 209.555 20.2475C205.52 21.4514 202.245 22.9344 198.488 24.2265C186.793 28.323 172.173 31.2449 162.539 40.2161C159.615 42.9617 157.539 46.5003 154.761 49.4222C151.691 52.6671 148.665 55.1484 145.814 58.7017C142.291 63.1065 137.964 66.4983 133.943 70.3305C130.566 73.5313 125.756 78.2738 124.178 82.6493C121.444 90.2697 119.792 98.4921 117.716 106.362C115.947 113.292 118.154 121.911 118.827 129.047C118.928 132.074 119.192 135.093 119.616 138.092C120.435 142.115 122.803 145.932 124.616 149.588C128.827 158.075 130.727 170.864 140.01 175.65C143.724 177.574 148.636 178.587 152.627 179.937C157.241 181.588 162.065 182.577 166.954 182.874C178.64 183.618 190.364 183.55 202.041 182.668C207.216 182.169 212.581 182.448 217.23 179.908C222.873 176.854 228.59 173.962 233.56 169.836C240.691 163.957 247.476 157.667 253.881 150.998C258.928 145.697 263.511 139.969 267.58 133.878C270.192 130.333 272.308 126.445 273.866 122.322C275.094 118.563 276.512 114.907 277.725 111.178C279.377 106.068 279.948 100.239 281.059 95.0269C282.227 90.3065 282.593 85.4218 282.141 80.5791C281.146 70.8297 280.299 61.0509 279.377 51.2869C278.983 47.0142 279.114 43.2701 276.907 39.5407C274.992 36.3104 271.936 32.1993 268.705 30.4227C264.217 27.8679 258.135 26.752 253.326 24.5495C249.203 22.6555 243.765 22.7142 240.08 20.2621" fill="#8CA54F"/>
<path d="M241.06 16.6944C237.399 15.5708 233.601 14.9581 229.774 14.8738C225.87 14.8738 221.982 15.4904 218.078 15.6226C213.486 15.6865 208.935 16.4946 204.599 18.0159C200.36 19.5722 196.178 21.1727 191.866 22.5382C184.22 24.9462 176.442 27.222 169.322 31.0101C165.618 32.938 162.223 35.4126 159.25 38.3515C156.033 41.6111 153.592 45.5167 150.332 48.7469C148.87 50.2152 147.291 51.6835 145.829 53.1518C144.367 54.6201 142.73 56.7931 141.092 58.5404C137.993 61.8734 134.455 64.7659 131.151 67.908C127.981 70.7575 125.155 73.9705 122.73 77.4812C120.289 81.2253 119.192 85.8504 118.008 90.1231C116.707 94.8509 115.625 99.6375 114.426 104.409C113.368 108.841 113.13 113.429 113.725 117.947C114.207 122.352 115.04 126.595 115.304 130.971C115.342 135.67 116.27 140.319 118.037 144.67C119.631 148.238 121.678 151.615 123.067 155.183C124.353 158.516 125.523 161.893 126.941 165.181C128.284 168.433 130.108 171.462 132.35 174.167C135.045 177.146 138.474 179.359 142.291 180.584C146.37 182.052 150.653 183.285 154.82 184.475C159.477 185.741 164.266 186.45 169.089 186.589C179.354 187.181 189.646 187.142 199.906 186.472C204.484 186.328 209.046 185.867 213.561 185.091C218.239 184.064 222.552 181.259 226.645 178.895C234.861 174.153 241.952 167.678 248.823 161.188C255.917 154.583 262.383 147.327 268.135 139.516C270.808 135.966 273.199 132.211 275.284 128.284C277.319 123.813 279.043 119.206 280.445 114.496C281.914 109.935 283.01 105.26 283.72 100.518C284.718 95.9098 285.455 91.2478 285.927 86.5551C285.946 81.5637 285.599 76.5776 284.889 71.6374C284.407 66.5131 283.953 61.3595 283.427 56.2792C283.018 51.7569 283.018 46.9263 281.965 42.4921C280.716 38.3251 278.485 34.5223 275.46 31.4066C272.416 28.1891 268.585 25.8298 264.349 24.5644C262.448 23.889 260.519 23.3164 258.618 22.6703C256.717 22.0243 254.715 21.0552 252.77 20.3798C249.218 19.1612 245.183 19.1024 241.937 17.0615C237.946 14.5507 234.277 20.8937 238.253 23.4045C241.689 25.5628 245.665 25.9886 249.481 27.0458C251.221 27.5303 252.814 28.3085 254.495 28.9546C256.557 29.7474 258.662 30.4229 260.752 31.0689C264.232 32.2142 267.404 33.4328 269.948 36.1638C272.57 38.7311 274.397 42.0044 275.211 45.5901C275.957 49.7747 276.015 54.1942 276.41 58.4229C276.848 63.2976 277.287 68.1869 277.755 73.1057C278.436 77.7814 278.724 82.5063 278.617 87.2306C278.31 91.5033 277.155 95.7172 276.483 99.9312C275.797 104.34 274.741 108.682 273.325 112.911C272.11 117.109 270.575 121.208 268.735 125.171C264.429 132.932 259.163 140.115 253.063 146.549C246.956 153.14 240.442 159.339 233.56 165.108C230.282 167.93 226.749 170.437 223.005 172.596C219.35 174.711 215.535 177.251 211.309 178.117C207.052 178.796 202.754 179.188 198.444 179.292C193.678 179.629 188.912 179.732 184.132 179.703C175.039 179.703 165.551 179.938 156.735 177.442C152.656 176.282 148.49 175.078 144.484 173.653C141.615 172.741 139.074 171.006 137.174 168.661C133.271 163.728 131.721 157.253 129.368 151.526C127.906 147.914 125.844 144.596 124.309 141.014C122.643 137.152 122.847 133.202 122.423 129.091C121.999 124.98 121.195 120.663 120.83 116.405C120.634 114.454 120.59 112.49 120.698 110.532C120.936 108.358 121.371 106.21 121.999 104.116C123.096 99.7109 124.134 95.218 125.391 90.8278C126.488 86.9369 127.511 83.0753 129.996 79.8304C134.967 73.3406 141.94 68.7449 147.291 62.6075C150.215 59.2745 153.27 56.1911 156.37 53.0343C159.469 49.8775 161.574 46.3096 164.6 43.329C169.79 38.2194 176.822 35.2829 183.606 32.9483C187.231 31.7003 190.915 30.599 194.57 29.4391C198.605 28.1617 202.538 26.62 206.514 25.1811C208.44 24.3989 210.438 23.8087 212.479 23.4191C214.535 23.155 216.605 23.0226 218.678 23.0227C222.362 22.8906 225.987 22.3326 229.73 22.2886C232.913 22.3156 236.075 22.8103 239.116 23.7568C243.662 24.9608 245.607 17.8837 241.06 16.6797V16.6944Z" fill="#004D2B"/>
<path d="M251.25 64.3252C249.992 64.3252 248.75 64.0756 247.493 64.149C246.884 64.1902 246.279 64.2687 245.68 64.3839C245.098 64.5184 244.534 64.7204 243.998 64.9859C242.938 65.499 242.053 66.3166 241.455 67.3352C241.128 67.8966 240.957 68.5351 240.957 69.1852C240.957 69.8353 241.128 70.4738 241.455 71.0352C241.769 71.5853 242.223 72.0414 242.77 72.3567C243.33 72.682 243.966 72.8541 244.612 72.8559C245.58 73.0029 246.56 73.0423 247.536 72.9733C248.551 72.911 249.544 72.6517 250.46 72.2099C251.138 71.8702 251.744 71.4014 252.244 70.8297C252.908 70.1264 253.289 69.2001 253.311 68.2308C253.313 67.7482 253.22 67.27 253.037 66.8238C252.854 66.3776 252.585 65.9722 252.245 65.6309C251.905 65.2897 251.501 65.0193 251.057 64.8356C250.613 64.6518 250.137 64.5582 249.656 64.5601C248.687 64.5632 247.758 64.948 247.069 65.6319C246.921 65.8115 246.755 65.9741 246.571 66.1165L247.317 65.5439C247.123 65.6869 246.912 65.8053 246.688 65.8963L247.566 65.5292C247.289 65.6432 246.999 65.7221 246.703 65.7641L247.668 65.6319C246.692 65.6945 245.712 65.6551 244.744 65.5145L247.902 71.0352C247.95 70.9454 248.009 70.8616 248.077 70.7856L247.493 71.5345C247.619 71.3783 247.761 71.2356 247.916 71.1086L247.186 71.6959C247.379 71.5478 247.59 71.4245 247.814 71.3289L246.937 71.6959C247.298 71.5533 247.677 71.4595 248.063 71.417L247.098 71.5491C248.527 71.4782 249.959 71.5175 251.381 71.6666C252.349 71.6574 253.276 71.2734 253.969 70.5947C254.651 69.9032 255.035 68.9695 255.036 67.9959C255.038 67.5134 254.944 67.0354 254.761 66.5893C254.578 66.1433 254.309 65.738 253.969 65.397C253.268 64.7307 252.346 64.3489 251.381 64.3252H251.25Z" fill="#004D2B"/>
<path d="M177.963 51.2136C177.838 52.9699 177.926 54.735 178.226 56.47C178.337 57.6265 178.689 58.7467 179.258 59.7584C179.827 60.77 180.601 61.6505 181.53 62.3431C182.175 62.754 182.898 63.0239 183.654 63.1353C184.41 63.2466 185.18 63.1968 185.916 62.9891C186.726 62.763 187.466 62.3328 188.064 61.7392C188.663 61.1457 189.101 60.4085 189.336 59.5974C189.629 58.4163 189.629 57.1812 189.336 56.0001C189.188 55.2384 188.957 54.4951 188.649 53.783C188.236 52.7214 187.748 51.691 187.187 50.6996C186.765 49.9218 186.239 49.2055 185.623 48.5706C184.929 47.8945 184.003 47.511 183.035 47.4988C182.555 47.4969 182.079 47.5905 181.635 47.7742C181.19 47.958 180.787 48.2284 180.447 48.5696C180.107 48.9108 179.838 49.3163 179.655 49.7625C179.472 50.2087 179.379 50.6869 179.381 51.1695C179.396 52.1403 179.777 53.0691 180.448 53.7683C180.566 53.8752 180.674 53.9932 180.769 54.1207L180.199 53.3719C180.918 54.3614 181.513 55.4365 181.968 56.5728L181.603 55.7065C181.957 56.5295 182.212 57.3921 182.363 58.276L182.231 57.3069C182.261 57.6145 182.261 57.9243 182.231 58.2319L182.363 57.2629C182.34 57.4293 182.296 57.5921 182.231 57.7474L182.612 56.8664L182.436 57.1894L183.006 56.4406L182.787 56.6462L183.533 56.0736C183.461 56.1285 183.382 56.173 183.299 56.2057L184.176 55.8386C184.049 55.8912 183.916 55.9305 183.781 55.9561L184.746 55.8239C184.566 55.8459 184.385 55.8459 184.205 55.8239L185.185 55.9561C185.012 55.9419 184.844 55.8971 184.687 55.8239L185.565 56.191C185.428 56.1643 185.295 56.1199 185.17 56.0589L185.901 56.6315C185.727 56.4938 185.57 56.3361 185.433 56.1616L186.018 56.8958C185.809 56.6212 185.637 56.32 185.506 56.0001L185.872 56.8664C185.553 56.0558 185.342 55.2068 185.243 54.3409L185.375 55.3247C185.187 53.9773 185.153 52.6128 185.272 51.2576C185.274 50.5307 185.06 49.8197 184.658 49.2148C184.257 48.61 183.686 48.1385 183.017 47.8601C182.348 47.5817 181.612 47.509 180.903 47.6512C180.193 47.7934 179.541 48.144 179.03 48.6587C178.38 49.3715 178.002 50.292 177.963 51.2576V51.2136Z" fill="#004D2B"/>
<path d="M206.792 75.2347C211.499 75.2347 211.514 67.8933 206.792 67.8933C202.07 67.8933 202.084 75.2347 206.792 75.2347Z" fill="#004D2B"/>
<path d="M203.269 83.9561C199.029 83.9561 194.848 84.2938 190.828 83.1485C188.591 82.5025 186.135 81.6803 183.869 80.9755C182.407 80.5937 181.193 80.7112 179.775 80.256C178.357 79.8009 176.705 79.0374 175.126 78.6556C172.115 77.9215 168.942 77.7306 165.96 76.7468C164.226 76.0012 162.386 75.5354 160.507 75.3666C159.177 75.3264 157.862 75.0634 156.618 74.5885C154.06 73.8551 151.463 73.2621 148.841 72.8119C145.566 71.9603 141.838 72.063 138.739 70.8884C134.046 69.1265 129.309 67.6141 124.602 66.0137C119.894 64.4133 115.07 62.1962 109.982 61.1244C107.058 60.5077 104.266 59.6561 101.401 58.9953C97.4387 57.9822 93.5938 54.0619 90.6553 51.3309C88.7255 49.5396 86.9419 47.5574 85.0999 45.6927C83.8718 44.4741 82.5415 43.2847 81.3719 42.0073C80.3896 40.7317 79.5558 39.3474 78.8866 37.8815C77.5332 35.2286 76.3609 32.4864 75.378 29.6738C74.8899 28.4432 74.4797 27.1829 74.1499 25.9003C73.6967 24.432 72.4541 23.0665 72.0447 21.4955C71.6354 19.9244 72.0447 18.4708 71.7085 16.9438C71.3801 15.7736 70.9897 14.6218 70.5389 13.4934C69.9834 11.8783 69.6617 10.2045 69.077 8.63339C68.4922 7.06233 68.0829 4.74243 67.0303 3.69995C66.1396 4.82527 65.4203 6.07717 64.8958 7.4147C63.988 8.83874 63.2006 10.3368 62.5421 11.893C60.7525 15.9406 59.2526 20.1113 58.0539 24.3733C55.13 36.5013 49.5308 48.2035 47.5718 60.537C46.1098 69.2586 42.9374 77.6572 40.9784 86.2172C40.1685 90.5232 39.129 94.7825 37.8645 98.9766C36.975 101.347 36.3522 103.809 36.0078 106.318C37.252 104.439 38.8697 102.84 40.7591 101.619C42.2706 100.336 43.8572 99.1446 45.5104 98.0516C48.5884 96.2651 51.8352 94.7896 55.2031 93.6467C61.1679 91.5471 66.5478 88.449 72.7464 86.8339C79.4497 85.2458 86.3286 84.5303 93.2137 84.7049C95.5089 84.7049 98.4767 84.1763 100.67 84.7049C101.766 84.9398 103.593 86.2613 103.696 87.4799C103.798 88.6986 100.903 91.0479 100.596 92.7658C100.246 95.4335 100.275 98.1379 100.684 100.797C101.634 106.289 106.108 109.798 110.757 112.074C112.745 113.043 114.529 114.438 116.605 115.23C118.681 116.023 120.742 116.155 122.686 116.934C127.055 118.627 131.534 120.015 136.092 121.089C141.779 122.557 147.627 122.219 153.533 122.219C156.297 122.219 158.782 122.484 161.326 121.25C164.337 119.782 167.846 117.418 168.358 113.836C168.869 110.253 168.358 106.054 168.358 102.383C168.358 101.223 167.831 97.9781 168.475 97.1559C169.41 95.8932 171.808 96.4658 173.197 96.4658C177.529 96.5197 181.843 97.0465 186.062 98.0369C190.579 98.9912 194.833 100.298 199.438 100.371" fill="#FFF34A"/>
<path d="M203.269 80.212C200.418 80.212 197.523 80.3882 194.687 80.1092C191.861 79.624 189.09 78.8617 186.412 77.8333C183.839 77.0405 181.252 76.8496 178.723 75.9099C175.935 75.0192 173.08 74.3612 170.185 73.9424C167.626 73.4432 165.229 72.298 162.67 71.8575C161.442 71.6519 160.185 71.7107 158.972 71.4023C157.51 71.0352 156.179 70.4773 154.732 70.1836C152.013 69.611 149.279 68.965 146.531 68.5979C143.871 68.3169 141.249 67.7508 138.709 66.9094C132.861 64.7657 127.014 63.0037 121.166 60.816C115.536 58.8268 109.801 57.1504 103.988 55.7945C101.7 55.2703 99.5606 54.231 97.7309 52.7552C95.6868 51.0189 93.7302 49.1812 91.8685 47.2491C89.8364 45.2229 87.892 43.1379 85.8453 41.1558C83.97 39.242 82.4545 37.0036 81.3717 34.5485C80.0636 31.8393 78.9829 29.0251 78.1409 26.1353C77.7104 24.6241 77.1018 23.1701 76.328 21.8039C75.7407 20.7019 75.4867 19.4516 75.5971 18.2066C75.4655 15.0938 74.0328 12.0838 73.1849 9.10321C72.3369 6.1226 71.6352 3.23009 69.7201 1.07172C69.0306 0.388457 68.101 0.00537109 67.1324 0.00537109C66.1638 0.00537109 65.2342 0.388457 64.5448 1.07172C63.5242 2.26113 62.6955 3.60378 62.0887 5.05079C61.3431 6.51907 60.4221 7.88457 59.7496 9.45562C58.2877 12.7739 56.8257 16.195 55.7293 19.6308C54.6328 23.0666 53.9018 26.4876 52.8054 29.9087C51.7089 33.3298 50.5832 36.7509 49.4283 40.1867C47.0439 46.9695 45.1769 53.9248 43.8437 60.9922C42.5279 68.3336 40.0134 75.396 38.1567 82.6052C37.148 86.5109 36.4755 90.5046 35.4667 94.4249C34.458 98.3452 32.8937 102.251 32.3966 106.435C31.9581 110.194 37.5134 111.237 39.2093 108.285C39.9888 107.129 40.9813 106.132 42.1332 105.349C43.6829 104.13 45.1887 102.809 46.826 101.722C49.7739 99.9029 52.9176 98.4252 56.1971 97.3174C63.5068 94.6452 70.2756 90.9157 78.0239 89.5502C81.8911 88.9146 85.801 88.5759 89.7194 88.5371C91.4299 88.5371 93.1404 88.5371 94.8509 88.4343C96.4196 88.2124 98.0068 88.1534 99.5876 88.2581C99.3683 88.2581 100.362 88.5958 100.26 88.6692V87.6561C100.435 86.5402 100.362 86.3053 100.07 86.966L99.8361 87.2891C98.7121 88.5364 97.7985 89.9598 97.1315 91.5031C96.4077 94.8311 96.4077 98.2768 97.1315 101.605C98.2864 108.623 103.944 112.588 109.719 115.744C111.181 116.552 112.643 117.536 114.105 118.24C115.954 118.977 117.861 119.557 119.806 119.973C123.622 120.986 127.277 122.631 131.107 123.673C134.922 124.793 138.841 125.521 142.803 125.846C146.94 126.11 151.092 125.964 155.229 125.993C158.849 126.104 162.417 125.111 165.463 123.144C168.444 121.456 170.664 118.68 171.661 115.392C172.641 111.325 171.939 106.876 171.837 102.765C171.837 102.119 171.837 101.487 171.734 100.856C171.791 100.12 171.757 99.3806 171.632 98.6536V98.448C171.629 98.6666 171.556 98.8784 171.425 99.0527C171.293 99.227 171.11 99.3546 170.901 99.4171C169.819 100.504 169.936 99.9603 170.477 100.078C171.194 100.176 171.918 100.215 172.641 100.195C176.991 100.354 181.32 100.889 185.579 101.796C190.053 102.999 194.629 103.776 199.248 104.116C203.956 104.248 203.956 96.9063 199.248 96.7742C195.293 96.457 191.377 95.7638 187.553 94.7039C183.468 93.7553 179.311 93.1561 175.126 92.9126C171.998 92.7804 168.123 92.0903 165.726 94.6305C163.621 96.8769 164.498 100.313 164.542 103.073C164.542 104.894 164.703 106.7 164.761 108.52C164.996 110.323 164.907 112.153 164.498 113.924C163.708 116.111 160.624 117.888 158.489 118.417C156.92 118.683 155.324 118.752 153.738 118.622C151.516 118.622 149.352 118.622 147.071 118.622C143.001 118.648 138.943 118.155 134.996 117.154C131.219 116.191 127.5 115.014 123.856 113.63C122.16 112.984 120.406 112.69 118.681 112.162C116.977 111.55 115.356 110.726 113.856 109.71C111.152 108.153 108.432 106.949 106.312 104.571C104.584 102.387 103.733 99.6308 103.93 96.8476C103.93 96.0253 104.076 95.1297 103.93 94.3074C103.783 93.4852 103.842 94.0432 104.061 93.632C104.69 92.4427 105.801 91.5324 106.459 90.3431C108.388 86.8192 106.005 83.222 102.716 81.7243C99.4267 80.2267 95.231 81.1516 91.6931 81.181C87.5434 81.1882 83.3982 81.453 79.2812 81.9739C74.7768 82.536 70.3581 83.6504 66.1237 85.2922C62.1033 86.878 58.2292 88.772 54.165 90.255C49.9484 91.6182 45.9353 93.5495 42.2355 95.996C38.9315 98.3893 34.9258 101.062 32.7914 104.673L39.604 106.524C39.9841 103.293 41.4022 100.254 42.2355 97.1265C43.1712 93.6761 43.7852 90.1522 44.6039 86.6724C46.2412 79.7568 48.6242 73.0468 50.1739 66.1165C50.9341 62.6807 51.4019 59.1862 52.2352 55.7651C53.0685 52.344 54.0919 49.0551 55.1591 45.7515C57.3082 39.247 59.6765 32.8012 61.3285 26.1353C62.301 22.4903 63.5272 18.9185 64.998 15.4462C65.6547 13.7506 66.4265 12.1023 67.3078 10.5128C67.9353 9.00847 68.7297 7.58005 69.6762 6.25474H64.5009C64.8448 6.95417 65.1002 7.69406 65.2611 8.45716C65.6559 9.73456 66.0652 10.9973 66.4307 12.2894C66.7962 13.5815 67.2494 14.8589 67.7026 16.151C68.0866 17.4513 68.2691 18.8032 68.2435 20.1593C68.4043 23.0959 70.1586 25.0634 70.9481 27.7651C71.8463 30.538 72.8857 33.2628 74.062 35.9287C75.1088 38.6858 76.5042 41.2962 78.2139 43.6959C80.1567 45.9653 82.216 48.1315 84.3833 50.1857C88.1405 54.0913 92.2194 58.5548 97.0438 61.139C99.7206 62.3606 102.533 63.2577 105.421 63.8113C108.345 64.5454 111.268 65.1474 114.192 66.1165C120.04 68.084 125.888 70.2717 131.736 72.2686C134.545 73.4115 137.427 74.3679 140.361 75.1317C143.08 75.6603 145.829 75.8952 148.548 76.4972C150.01 76.8203 151.384 77.0258 152.802 77.3341C154.22 77.6425 155.609 78.1858 157.042 78.5528C158.475 78.9199 159.776 78.8611 161.135 79.0814C162.26 79.3185 163.361 79.6576 164.425 80.0945C167.597 81.1663 170.93 81.3866 174.161 82.1941C175.623 82.5759 177.085 83.2219 178.547 83.6624C180.009 84.1029 181.471 84.1176 182.933 84.4846C186.31 85.3362 189.482 86.7752 192.947 87.2744C196.391 87.6169 199.854 87.7248 203.312 87.5974C208.02 87.5974 208.02 80.256 203.312 80.256L203.269 80.212Z" fill="#004D2B"/>
<path d="M143.431 90.123H122.306C119.382 90.123 114.66 90.6369 115.45 94.8069C115.825 96.3094 116.639 97.6646 117.789 98.6978C119.748 100.797 120.493 100.753 123.227 101.223C125.581 101.62 127.92 102.324 130.244 102.794C132.502 103.24 134.801 103.437 137.101 103.382C139.835 103.382 143.577 104.028 146.209 103.382C149.732 102.457 151.077 99.3732 151.238 96.0402C151.394 95.3456 151.374 94.6227 151.18 93.9378C150.986 93.253 150.624 92.6279 150.127 92.1199C148.712 90.8737 146.892 90.1897 145.01 90.1964" fill="#8CA54F"/>
<path d="M143.431 86.4522H130.727C127.19 86.3029 123.647 86.3372 120.113 86.555C117.19 86.8633 114.266 87.7443 112.628 90.3872C110.713 93.6174 111.97 97.4349 114.163 100.137C115.878 102.456 118.408 104.031 121.239 104.541C125.084 105.217 128.812 106.406 132.701 106.817C134.514 107.008 136.326 106.964 138.139 107.037C139.952 107.111 141.677 107.316 143.446 107.272C145.235 107.348 147.016 106.987 148.635 106.22C150.255 105.453 151.665 104.302 152.744 102.868C153.73 101.37 154.405 99.6874 154.729 97.9214C155.053 96.1555 155.019 94.3422 154.63 92.5896C153.563 88.7574 148.782 86.1145 144.981 86.3788C144.018 86.3976 143.099 86.7903 142.417 87.4747C141.736 88.1591 141.345 89.0818 141.326 90.0495C141.338 91.0195 141.726 91.9465 142.409 92.6324C143.092 93.3183 144.015 93.7087 144.981 93.7202C145.695 93.6981 146.4 93.8815 147.013 94.2488C147.247 94.3809 147.627 94.6892 147.554 94.6012C147.481 94.5131 147.554 94.6012 147.554 94.6012C147.554 94.6012 147.554 94.9829 147.554 95.1738C147.635 95.9135 147.56 96.662 147.333 97.3705C147.107 98.0789 146.733 98.7313 146.238 99.285C144.776 100.371 142.203 99.975 140.391 99.8723C137.774 99.7108 135.098 99.8723 132.511 99.4905C129.923 99.1087 127.131 98.2131 124.426 97.7286C123.476 97.5524 122.496 97.4496 121.502 97.1853C120.947 97.0238 121.619 97.3762 121.151 96.9945C121.532 97.3028 120.976 96.8476 120.947 96.8183C120.684 96.598 120.45 96.3337 120.216 96.0988C119.635 95.5219 119.178 94.8326 118.871 94.0726C118.739 93.7202 118.768 94.0726 118.871 93.9698C118.973 93.867 118.476 94.7627 118.578 94.3809C118.578 94.3075 118.958 94.146 119.017 94.1313C119.075 94.1166 118.564 94.2928 119.017 94.1313C119.372 94.0177 119.733 93.9246 120.099 93.8523C120.713 93.7202 119.631 93.8523 120.245 93.8523H120.801H122.043C129.148 93.7642 136.268 93.8523 143.373 93.8523C148.066 93.8523 148.08 86.5109 143.373 86.5109L143.431 86.4522Z" fill="#004D2B"/>
<path d="M221.923 123.908C211.485 123.908 201.061 124.451 190.623 124.04C188.338 123.82 186.077 123.393 183.869 122.763C181.738 122.304 179.664 121.61 177.685 120.692C175.784 119.782 173.927 118.769 172.027 117.859C170.395 116.855 168.954 115.568 167.773 114.056C164.469 110.694 159.293 115.891 162.597 119.254C164.092 121.084 165.857 122.673 167.831 123.967C169.761 124.98 171.735 125.949 173.679 126.903C175.926 128.033 178.282 128.928 180.711 129.576C183.248 130.36 185.844 130.934 188.474 131.293C199.541 132.218 210.798 131.293 221.894 131.293C226.601 131.293 226.601 123.952 221.894 123.952L221.923 123.908Z" fill="#004D2B"/>
<path d="M172.962 109.871C168.27 109.871 162.48 109.871 159.191 113.85C157.209 116.554 156.325 119.914 156.72 123.247C156.881 126.654 158.182 130.148 161.837 131C163.127 131.249 164.443 131.338 165.755 131.264C166.963 131.33 168.173 131.33 169.381 131.264C171.274 131.089 173.06 130.301 174.468 129.018C175.683 127.817 176.77 126.494 177.714 125.068C180.959 120.663 184.775 112.793 179.907 108.109C176.559 104.894 171.457 105.173 167.173 105.173C165.657 105.077 164.136 105.166 162.641 105.437C160.932 105.868 159.399 106.822 158.255 108.168C156.004 110.739 154.488 113.875 153.869 117.242C153.633 118.989 153.565 120.754 153.665 122.513C153.573 124.24 153.99 125.956 154.864 127.447C156.793 130.178 160.039 130.824 163.197 130.603C164.732 130.485 166.216 129.991 167.518 129.164C168.82 128.337 169.901 127.203 170.667 125.861C171.764 123.967 172.74 122.005 173.591 119.988C174.702 117.922 175.44 115.675 175.769 113.351C175.892 112.502 175.784 111.636 175.457 110.843C175.131 110.051 174.597 109.361 173.914 108.848C173.23 108.334 172.421 108.014 171.572 107.923C170.723 107.832 169.865 107.972 169.088 108.33C167.056 109.328 165.726 111.663 164.702 113.616C163.615 115.497 162.844 117.546 162.422 119.679C162.07 121.584 162.13 123.541 162.597 125.42C162.822 126.187 163.285 126.862 163.919 127.346C164.553 127.829 165.325 128.096 166.12 128.107C167.429 128.027 168.695 127.607 169.794 126.889C170.893 126.172 171.788 125.18 172.392 124.011C172.874 123.233 173.295 122.418 173.649 121.574C173.927 120.928 174.205 120.281 174.468 119.635L174.702 119.063C174.951 118.461 174.351 119.87 174.6 119.298C175.071 118.454 175.198 117.46 174.956 116.524C174.713 115.588 174.119 114.782 173.299 114.276C171.72 113.425 169.103 113.704 168.299 115.583C167.948 116.376 167.626 117.183 167.29 117.991C167.115 118.402 167.685 117.125 167.29 117.859L167.1 118.314C166.925 118.696 166.734 119.063 166.544 119.445C166.354 119.826 166.179 120.091 165.974 120.414C165.871 120.586 165.759 120.752 165.638 120.913C165.638 120.913 166.194 120.311 165.77 120.707C165.624 120.819 165.492 120.947 165.375 121.089C165.141 121.412 166.077 120.56 165.536 120.942C164.995 121.324 165.755 120.839 165.872 120.81C165.229 121.016 166.778 120.81 166.077 120.81L169.6 123.512C169.6 123.365 169.381 122.396 169.498 123.291C169.498 122.983 169.498 122.66 169.498 122.337C169.498 122.014 169.498 121.897 169.498 121.676C169.498 121.456 169.673 120.502 169.498 121.353C169.592 120.857 169.714 120.367 169.863 119.885C169.936 119.679 170.038 119.474 170.097 119.254C170.214 118.813 169.629 120.34 169.965 119.606C170.565 118.199 171.268 116.84 172.071 115.539C172.181 115.393 172.284 115.241 172.378 115.084C172.772 114.482 172.231 115.187 172.246 115.245C172.261 115.304 173.328 114.247 172.641 114.775C171.954 115.304 172.495 114.893 172.641 114.775C172.001 115.14 171.244 115.235 170.536 115.04C169.994 114.872 169.519 114.538 169.176 114.085C168.941 113.845 168.774 113.546 168.693 113.219C168.767 113.586 168.693 113.41 168.693 112.72V113.263C168.693 113.263 168.869 112.367 168.693 112.896C168.518 113.425 168.474 113.748 168.343 114.173L167.948 115.245C167.67 115.979 168.313 114.452 167.948 115.142C167.875 115.304 167.802 115.48 167.714 115.642C167.071 117.11 166.427 118.475 165.755 119.87C165.368 120.686 164.929 121.476 164.439 122.234L164.308 122.44C164.074 122.763 164.118 122.719 164.439 122.293C164.439 122.425 164.132 122.645 164.045 122.748L163.635 123.159C163.226 123.614 164.322 122.763 163.474 123.262C163.343 123.322 163.216 123.391 163.094 123.468L163.562 123.262L163.138 123.365H163.679H163.153H162.626C162.111 123.403 161.593 123.403 161.077 123.365C161.077 123.277 161.895 123.526 161.325 123.365C161.045 123.243 160.75 123.159 160.448 123.115L160.931 123.306L160.565 123.086C160.638 123.086 161.238 123.673 160.828 123.233L161.135 123.644C160.945 123.306 160.974 123.394 161.208 123.908L161.135 123.673C161.048 123.291 161.033 123.35 161.135 123.864C161.03 123.332 161.005 122.788 161.062 122.249C161.062 121.559 161.062 120.781 161.062 120.149C161.062 119.812 161.062 119.459 161.062 119.122C161.062 118.094 160.931 119.503 161.062 118.945C161.194 118.387 161.325 117.829 161.501 117.272C161.588 117.022 161.705 116.772 161.779 116.508C161.969 115.921 161.413 117.257 161.866 116.302C162.146 115.689 162.459 115.091 162.802 114.511C162.963 114.232 163.153 113.968 163.328 113.689C163.854 112.837 162.86 114.144 163.518 113.439C163.664 113.292 163.825 113.131 163.957 112.969C164.498 112.294 163.445 113.16 164.118 112.808L164.352 112.661C164.717 112.485 164.644 112.5 164.161 112.661C164.161 112.661 164.571 112.558 164.629 112.529C165.404 112.265 163.811 112.529 164.629 112.529H165.696C167.392 112.529 169.088 112.529 170.784 112.529C171.15 112.529 171.515 112.529 171.866 112.529L172.67 112.602C171.997 112.529 173.211 112.72 173.401 112.764C173.591 112.808 174.147 112.984 174.527 113.102C175.199 113.278 173.781 112.632 174.337 113.102L174.658 113.263C175.258 113.557 174.57 113.527 174.497 113.102C174.617 113.226 174.744 113.344 174.878 113.454C175.301 113.748 174.6 113.219 174.644 113.102C174.723 113.261 174.816 113.413 174.921 113.557C175.301 114.041 174.775 112.72 174.834 113.351C174.834 113.351 175.009 113.909 174.965 113.924C174.921 113.939 174.965 112.911 174.965 113.806C174.988 114.046 174.988 114.287 174.965 114.526C174.965 114.526 175.155 113.557 174.965 114.335C174.965 114.614 174.848 114.893 174.775 115.187C174.629 115.7 174.454 116.2 174.278 116.655C174.541 115.906 174.147 116.934 174.103 117.022C173.942 117.389 173.752 117.741 173.562 118.094C172.963 119.168 172.304 120.207 171.588 121.206C170.96 122.132 172.027 120.707 171.34 121.559L170.813 122.205C170.36 122.733 169.834 123.189 169.351 123.673C169.717 123.233 169.644 123.497 169.351 123.673C168.562 124.099 169.351 123.805 169.351 123.747C169.351 123.688 168.679 123.879 168.664 123.938C168.664 123.761 169.483 123.938 168.927 123.938C167.831 123.938 166.734 123.938 165.653 123.938H164.191C163.967 123.908 163.741 123.908 163.518 123.938C164.161 123.717 164.176 124.099 163.679 123.938C163.182 123.776 162.904 123.556 163.825 124.026C163.504 123.835 163.606 123.923 164.103 124.275C163.84 124.011 163.898 124.114 164.278 124.569C164.278 124.569 164.001 124.202 164.059 124.187C164.264 124.701 164.293 124.76 164.161 124.363C164.03 123.967 164.074 123.982 164.045 123.791C164.22 124.598 164.045 123.967 164.045 123.791C164.045 123.614 164.045 123.057 164.045 122.689C164.008 122.024 164.008 121.358 164.045 120.693C164.045 120.531 164.235 119.518 164.045 120.443C164.045 120.135 164.191 119.826 164.249 119.503C164.381 118.74 164.249 119.606 164.176 119.503C164.103 119.4 164.571 118.784 164.615 118.696C164.936 118.138 164.527 118.916 164.454 118.901C164.381 118.887 165.068 118.314 165.082 118.285C165.082 118.578 164.425 118.725 165.082 118.285L165.653 117.947C166.34 117.55 164.863 118.211 165.653 117.947C165.872 117.873 166.077 117.785 166.296 117.727C166.837 117.565 167.378 117.462 167.919 117.345C168.46 117.227 168.006 117.506 167.656 117.345C167.98 117.354 168.305 117.319 168.62 117.242C169.103 117.242 169.585 117.242 170.082 117.169C171.047 117.169 172.012 117.169 173.006 117.169C173.976 117.169 174.905 116.782 175.591 116.094C176.276 115.405 176.661 114.472 176.661 113.498C176.661 112.524 176.276 111.591 175.591 110.902C174.905 110.214 173.976 109.827 173.006 109.827L172.962 109.871Z" fill="#004D2B"/>
<path d="M114.836 131.235C115.084 131.029 114.631 131.235 114.543 131.338C113.982 131.535 113.443 131.791 112.935 132.101C112.453 132.409 112.043 132.821 111.59 133.158C111.137 133.496 111.254 133.452 111.166 133.467C111.751 133.379 111.02 133.467 110.786 133.467C110.552 133.467 109.894 133.467 109.456 133.467C108.623 133.467 107.789 133.349 106.956 133.334H105.903C105.728 133.334 104.558 133.188 105.435 133.334C105.143 133.334 104.851 133.276 104.558 133.158C104.339 133.158 103.564 132.762 104.368 133.158L103.667 132.762C104.164 133.055 103.886 132.982 103.667 132.644C104.061 133.129 103.783 132.762 103.667 132.439C103.316 131.866 103.667 132.909 103.564 132.13C103.135 128.328 103.052 124.495 103.316 120.678C103.316 118.666 103.096 116.64 103.213 114.643C103.33 112.881 104.237 110.914 104.12 108.946C104.097 107.98 103.705 107.059 103.025 106.376C102.344 105.692 101.427 105.298 100.465 105.276C99.4967 105.28 98.5693 105.667 97.8847 106.355C97.2002 107.043 96.8139 107.974 96.81 108.946C96.7831 109.946 96.6057 110.936 96.2837 111.883C96.004 113.14 95.8764 114.427 95.9036 115.715C95.9036 118.094 96.0206 120.443 95.9036 122.836C95.7574 125.443 95.7574 128.056 95.9036 130.662C95.9565 132.792 96.5341 134.875 97.5848 136.726C99.8947 140.235 103.74 140.661 107.585 140.793C109.924 140.793 112.292 141.234 114.485 140.162C115.1 139.844 115.678 139.46 116.21 139.017C116.21 139.017 117.087 138.341 116.678 138.606C117.847 138.004 118.98 137.332 120.07 136.594C120.756 135.905 121.141 134.97 121.141 133.995C121.141 133.02 120.756 132.086 120.07 131.396C119.383 130.707 118.452 130.32 117.482 130.32C116.511 130.32 115.581 130.707 114.894 131.396L114.836 131.235Z" fill="#004D2B"/>
<path d="M92.5704 99.8871C91.1855 102.428 90.4803 105.286 90.5236 108.183C90.2602 110.286 90.5474 112.422 91.3569 114.379C92.5704 116.523 94.8949 117.477 97.0878 118.255C99.3548 119.078 101.739 119.53 104.149 119.591C107.336 119.748 110.465 118.7 112.921 116.655C113.327 116.26 113.631 115.771 113.807 115.231C113.982 114.691 114.025 114.117 113.929 113.557C113.852 113.01 113.657 112.488 113.356 112.026C113.055 111.564 112.657 111.174 112.19 110.884C110.84 110.107 109.348 109.608 107.804 109.416C107.628 109.416 107.453 109.313 107.263 109.284C106.737 109.167 107.555 109.357 107.643 109.46C107.731 109.563 106.868 108.932 107.482 109.46C108.096 109.989 107.394 109.357 107.263 109.225C107.131 109.093 106.883 108.844 106.707 108.638C105.245 107.052 104.09 105.158 102.57 103.631C101.884 102.942 100.953 102.555 99.9824 102.555C99.0119 102.555 98.0811 102.942 97.3948 103.631C96.7085 104.32 96.3229 105.255 96.3229 106.23C96.3229 107.205 96.7085 108.14 97.3948 108.829C98.9591 110.4 100.129 112.353 101.664 113.968C102.625 115.064 103.847 115.897 105.216 116.391C105.885 116.575 106.563 116.722 107.248 116.831C107.585 116.831 107.921 116.993 108.257 117.066C108.593 117.139 108.082 117.066 107.994 116.919C108.16 117.042 108.336 117.15 108.52 117.242L107.687 111.413C107.394 111.663 107.453 111.604 107.892 111.252C107.776 111.343 107.653 111.427 107.526 111.501C107.365 111.604 106.854 111.765 106.751 111.927L107.029 111.81L106.605 111.942C106.322 112.031 106.034 112.104 105.742 112.162L105.304 112.25H105.611H104.704C104.164 112.287 103.622 112.287 103.082 112.25H102.629H102.906L102 112.074C101.415 111.956 100.816 111.809 100.246 111.648C99.6754 111.486 99.2807 111.34 98.7836 111.163C98.5232 111.042 98.2545 110.939 97.9796 110.855L98.2427 110.973L97.8918 110.796C97.6872 110.694 97.4825 110.561 97.2924 110.444C96.7661 110.15 98.0526 111.149 97.4825 110.576C96.9123 110.004 97.848 111.119 97.7018 110.884C97.3655 110.327 97.9649 111.824 97.848 111.281C97.8245 111.116 97.7854 110.954 97.731 110.796C98.0819 111.736 97.8187 111.589 97.731 111.075C97.6433 110.561 97.731 110.15 97.731 109.68C97.731 109.211 97.731 108.638 97.731 108.109C97.731 107.581 97.731 107.449 97.731 107.111V106.612C97.731 106.201 97.731 106.274 97.731 106.817C97.7347 106.123 97.8842 105.438 98.1696 104.806C98.2144 104.646 98.2681 104.489 98.3304 104.336C98.4766 103.954 98.4474 104.013 98.2427 104.512C98.2427 104.365 98.6374 103.778 98.7105 103.646C99.1915 102.803 99.3231 101.804 99.077 100.864C98.8308 99.9249 98.2266 99.1203 97.3948 98.6244C96.553 98.1527 95.5619 98.0268 94.6297 98.2732C93.6975 98.5196 92.8965 99.1191 92.3949 99.9458L92.5704 99.8871Z" fill="#004D2B"/>
<path d="M29.5895 25.9887C24.2827 25.9887 19.1659 26.7815 14.1514 24.6672C11.6978 23.3771 8.96804 22.7068 6.19846 22.7144C2.85061 22.9934 -0.161001 24.6819 -0.000186792 28.4113C0.219105 32.9336 3.39152 36.5896 6.52008 39.5409C7.98202 40.9357 9.57554 42.2278 11.0813 43.5933C12.5871 44.9588 13.6105 46.2069 14.9263 47.4843C18.0402 50.4208 22.9816 53.5336 23.9026 57.9531L26.4464 53.4308C19.5606 55.0312 5.61368 49.2021 2.82136 58.9809C1.71029 62.9012 3.84472 67.4969 6.81247 70.0077C9.45859 72.2395 13.0696 73.1792 15.4818 75.6165C18.8004 78.9789 23.9757 73.7811 20.6571 70.4188C18.4934 68.231 15.7742 67.0858 13.1719 65.5588C12.1841 65.0425 11.3285 64.3038 10.672 63.4004C10.3277 62.8712 10.0801 62.2844 9.94103 61.6679C9.78021 60.919 9.94103 61.9762 9.94103 61.3008C9.94103 61.198 9.86793 60.3317 9.94103 60.875C10.0141 61.4182 9.94103 60.596 9.94103 60.7428C9.94103 60.8897 9.67788 60.9777 9.64864 61.0071C9.98773 60.7537 10.3958 60.6103 10.8182 60.596C12.6371 60.4001 14.4728 60.4248 16.2859 60.6694C20.3081 61.2216 24.3911 61.1473 28.3907 60.4492C29.2913 60.1785 30.0561 59.5749 30.5309 58.7602C31.0057 57.9454 31.1551 56.9801 30.9492 56.059C30.1889 52.3736 27.6305 49.3784 24.999 46.8529C22.6015 44.5477 20.16 42.3453 17.8501 39.9667C15.5403 37.5881 13.1865 35.8996 10.979 33.7265C9.87503 32.7316 8.89344 31.6078 8.05512 30.3788C7.71437 29.9562 7.46977 29.4639 7.33845 28.9363C7.20713 28.4088 7.19227 27.8587 7.29491 27.3248L5.4821 30.4963C6.94404 29.63 8.65452 30.3642 10.1749 30.9808C12.0205 31.8483 13.9444 32.5366 15.9204 33.0364C20.4232 33.9468 24.9698 33.4182 29.5164 33.3888C34.0631 33.3594 34.2239 26.0474 29.5164 26.0474L29.5895 25.9887Z" fill="#004D2B"/>
<path d="M199.029 86.5992C197.811 86.5051 196.59 86.7417 195.494 87.2842C194.399 87.8267 193.468 88.655 192.801 89.6826C192.03 90.67 191.487 91.8172 191.212 93.0411C190.936 94.265 190.935 95.5351 191.207 96.7597C192.202 101.781 199.175 100.783 202.903 100.665C208.312 100.474 208.4 95.6585 208.356 91.4886C208.283 84.9547 201.602 85.0428 196.661 85.0428" fill="#FFF34A"/>
<path d="M199.029 82.9284C197.585 82.8791 196.146 83.1243 194.799 83.6492C193.452 84.1742 192.226 84.9679 191.193 85.9824C189.997 87.135 189.042 88.5157 188.385 90.0436C187.727 91.5714 187.379 93.2158 187.362 94.8802C187.281 96.381 187.575 97.8784 188.219 99.2354C188.862 100.592 189.835 101.766 191.047 102.647C193.067 103.881 195.393 104.518 197.757 104.483C199.562 104.524 201.367 104.47 203.166 104.321C204.629 104.303 206.065 103.917 207.341 103.199C208.618 102.481 209.696 101.453 210.476 100.21C211.575 98.0709 212.113 95.6858 212.04 93.2798C212.291 90.807 211.781 88.3162 210.578 86.1439C207.508 81.5335 201.69 81.3573 196.704 81.372C195.735 81.372 194.805 81.7588 194.12 82.4472C193.435 83.1356 193.049 84.0692 193.049 85.0427C193.049 86.0163 193.435 86.9499 194.12 87.6383C194.805 88.3267 195.735 88.7134 196.704 88.7134C198.298 88.7134 199.877 88.7134 201.47 88.875C202.113 88.875 200.622 88.7281 201.251 88.875L201.806 88.9631C202.201 89.0335 202.592 89.1266 202.976 89.242L203.473 89.4035C204.189 89.6384 202.815 89.0511 203.327 89.4035C203.839 89.7559 203.97 89.7999 204.292 89.9468C204.613 90.0936 203.882 89.6384 203.882 89.6238C203.882 89.6091 204.014 89.7413 204.072 89.8L204.423 90.1524C204.473 90.219 204.527 90.2827 204.584 90.3432C204.584 90.3432 204.131 89.6531 204.263 89.9468C204.394 90.2404 204.482 90.2992 204.57 90.4754C204.877 90.9599 204.336 89.6825 204.57 90.2698C204.57 90.4607 204.687 90.6369 204.73 90.8278C204.774 91.0186 204.73 91.0333 204.73 91.1214C204.862 91.4591 204.73 90.6809 204.73 90.6663C204.708 90.9301 204.708 91.1953 204.73 91.4591C204.73 92.296 204.73 93.133 204.73 93.9552C204.73 94.3516 204.73 94.748 204.643 95.1298C204.643 95.7758 204.803 94.2929 204.643 94.9243C204.643 95.1298 204.57 95.3501 204.526 95.5703C204.482 95.7905 204.306 96.2604 204.204 96.5981C204.102 96.9358 204.423 96.0989 204.409 96.1283C204.394 96.1576 204.336 96.2898 204.292 96.3632L203.985 96.8771C203.722 97.3469 204.555 96.3338 204.131 96.6715C203.99 96.7667 203.866 96.886 203.765 97.0239C203.882 96.7596 204.482 96.5247 203.926 96.8477L203.678 96.9798C203.4 97.2001 204.394 96.7596 204.029 96.833C203.663 96.9064 203.575 96.9945 203.342 97.0386H203.02C202.669 97.156 203.4 97.0386 203.415 97.0386C203.017 96.9881 202.614 96.9881 202.216 97.0386C201.485 97.0386 200.754 97.1267 199.994 97.1414C199.233 97.1561 198.386 97.1414 197.581 97.1414H196.997C196.836 97.1414 196.134 97.0386 196.821 97.1414C197.508 97.2442 196.821 97.1414 196.646 97.1414L196.017 97.0092L195.491 96.8477C194.935 96.6715 195.418 96.8477 195.71 96.9651C195.579 96.877 195.403 96.8184 195.257 96.7303C195.111 96.6422 194.541 96.231 195.052 96.6568C195.564 97.0826 194.336 95.7905 194.891 96.4806C195.447 97.1707 194.891 96.4806 194.891 96.3485C194.511 95.7318 195.052 96.9945 194.891 96.4659C194.891 96.231 194.789 95.9814 194.716 95.7612C194.643 95.5409 194.716 96.0108 194.716 96.0548C194.716 96.0989 194.716 95.629 194.716 95.5263C194.716 95.2032 194.716 94.8949 194.716 94.5719C194.73 94.4401 194.73 94.3072 194.716 94.1754C194.818 94.2635 194.57 94.983 194.716 94.1754C194.772 93.8666 194.85 93.5623 194.95 93.2651C194.987 93.1357 195.031 93.0082 195.082 92.8833C195.213 92.4282 194.775 93.4413 195.082 93.0302C195.389 92.6191 195.374 92.4869 195.535 92.2226C195.696 91.9583 195.842 91.7821 195.535 92.2226C195.228 92.6631 195.535 92.1492 195.666 92.0758C196.017 91.6647 196.397 91.2829 196.792 90.9012C197.187 90.5194 196.324 91.1802 196.792 90.9012L197.391 90.5488C198.049 90.1817 196.792 90.7103 197.391 90.5488L198.093 90.3726C198.883 90.1817 197.479 90.3726 198.093 90.3726H199.102C200.071 90.3726 201.001 89.9858 201.686 89.2975C202.372 88.6091 202.757 87.6754 202.757 86.7019C202.757 85.7284 202.372 84.7947 201.686 84.1063C201.001 83.4179 200.071 83.0312 199.102 83.0312L199.029 82.9284Z" fill="#004D2B"/>
<path d="M196.968 37.7495C196.968 38.9535 196.792 40.1722 196.968 41.3909C197.01 41.9727 197.088 42.5514 197.202 43.1234C197.345 43.6861 197.545 44.2323 197.801 44.7532C197.924 45.0251 198.071 45.2855 198.24 45.5314C198.582 46.0296 198.979 46.4876 199.424 46.8969C199.74 47.2498 200.144 47.513 200.593 47.6604C201.046 47.8886 201.549 47.9948 202.055 47.9687C203.01 47.9533 203.921 47.5614 204.591 46.8774C205.262 46.1934 205.637 45.2723 205.637 44.3127C205.642 43.8298 205.55 43.3508 205.367 42.9043C205.183 42.4578 204.912 42.053 204.57 41.7139C204.345 41.5345 204.143 41.3273 203.97 41.0972L204.54 41.8313C204.363 41.5909 204.216 41.3295 204.102 41.0532L204.467 41.9341C204.314 41.5528 204.211 41.153 204.16 40.7448L204.292 41.7139C204.219 40.3984 204.219 39.0798 204.292 37.7642C204.294 37.2816 204.201 36.8034 204.018 36.3572C203.835 35.911 203.566 35.5056 203.226 35.1643C202.886 34.8231 202.482 34.5528 202.038 34.369C201.594 34.1852 201.118 34.0916 200.637 34.0935C200.157 34.0919 199.681 34.1857 199.237 34.3697C198.792 34.5536 198.389 34.824 198.049 35.1654C197.38 35.8654 196.999 36.7937 196.982 37.7642L196.968 37.7495Z" fill="#004D2B"/>
<path d="M244.7 43.3877C242.332 42.771 239.934 43.9456 237.931 45.1056C236.592 45.9002 235.294 46.7627 234.042 47.6897C233.243 48.1977 232.648 48.9723 232.361 49.8775C232.232 50.3431 232.197 50.8297 232.256 51.3093C232.315 51.7889 232.467 52.2521 232.705 52.6723C232.943 53.0924 233.261 53.4613 233.641 53.7577C234.021 54.0542 234.455 54.2724 234.919 54.3998C235.387 54.535 235.878 54.5723 236.361 54.5091C236.844 54.446 237.309 54.2838 237.726 54.0327C239.537 52.6324 241.499 51.4405 243.574 50.4795L242.697 50.8465C243.128 50.6588 243.58 50.5209 244.042 50.4354L243.077 50.5676C243.262 50.5455 243.448 50.5455 243.633 50.5676L242.668 50.4354H242.814C243.762 50.6775 244.766 50.5462 245.621 50.0684C246.443 49.5788 247.045 48.79 247.302 47.8659C247.433 47.3955 247.469 46.9033 247.406 46.4189C247.343 45.9345 247.183 45.4678 246.937 45.0468C246.455 44.2226 245.674 43.6175 244.758 43.3583L244.7 43.3877Z" fill="#004D2B"/>
</g>
<defs>
<clipPath id="clip0_44_364">
<rect width="286" height="187" fill="white"/>
</clipPath>
</defs>
</svg>
