<svg width="252" height="200" viewBox="0 0 252 200" fill="none" xmlns="http://www.w3.org/2000/svg">
<g clip-path="url(#clip0_44_402)">
<path d="M83.7071 4.0304L60.2437 29.1389C55.507 75.3403 51.4449 120.586 53.2486 192.292L185.128 191.689C185.128 191.689 204.47 158.3 204.984 156.035C208.928 138.869 187.797 15.0181 187.797 15.0181C158.057 4.78056 124.24 4.47167 83.7071 4.0304Z" fill="#8CA54F"/>
<path d="M56.7684 29.6391C56.5227 34.5526 55.6605 39.4156 54.2021 44.1128C53.5022 46.5248 52.9681 48.9821 52.6036 51.4674C52.4179 54.0224 52.3787 56.586 52.4863 59.1456C52.4863 61.499 51.9437 63.7642 51.8704 66.0883C51.7677 68.7359 52.193 71.3983 51.8704 74.0459C51.2939 79.0647 51.0392 84.1154 51.1078 89.1669C51.2691 91.2917 51.2691 93.4258 51.1078 95.5507C50.6732 98.1802 50.3844 100.832 50.2426 103.494C50.2426 106.127 50.3306 108.759 50.2426 111.378C50.1546 113.996 49.3628 116.158 49.4361 118.732C49.5534 123.145 48.5122 127.558 47.9696 131.97C47.7885 134.418 47.7444 136.873 47.8376 139.325C47.8376 142.149 47.8376 144.973 47.8376 147.797V180.29C47.8376 182.29 47.8376 184.261 47.7057 186.174C47.5115 187.91 47.6207 189.667 48.0282 191.366C49.5974 196.867 55.1846 196.19 59.6426 197.044C61.9743 197.5 64.3207 197.426 66.6377 197.853C69.1403 198.373 71.6933 198.61 74.2486 198.559C79.7039 198.338 85.1592 198.441 90.5997 198.441H172.355C174.364 198.441 176.403 198.441 178.412 198.441C180.758 198.603 183.398 198.367 184.761 196.146C185.531 194.6 185.802 192.853 185.539 191.145C185.407 189.16 185.304 187.233 185.304 185.262V136.471C185.304 125.675 185.04 114.864 185.304 104.111C185.304 101.552 185.671 99.022 185.92 96.4626C185.961 95.2661 186.069 94.0728 186.242 92.8883C186.573 91.6083 186.808 90.3054 186.946 88.9904C186.946 87.946 186.844 86.9017 186.873 85.8426C186.956 84.667 187.113 83.4978 187.342 82.3418C187.655 79.8298 187.763 77.2963 187.665 74.7667C187.763 72.4274 188.022 70.0977 188.442 67.7945C188.75 65.1616 188.545 62.4698 188.765 59.8222C188.853 58.6896 189.043 57.5717 189.175 56.4391C189.337 55.0417 189.175 53.6737 189.263 52.2764C189.454 49.9229 190.261 47.7754 190.173 45.3484C190.003 43.3008 190.092 41.24 190.437 39.2147C190.79 37.2168 191.006 35.1969 191.082 33.1692C191.331 29.8156 191.859 25.3734 189.161 22.7993C187.416 21.1519 185.48 21.5196 183.295 21.1077C182.088 20.7724 180.857 20.5266 179.614 20.3723C178.618 20.3822 177.627 20.2281 176.681 19.9163C172.194 18.4454 167.164 19.5486 162.544 19.5486H113.99C108.916 19.5486 103.842 19.3132 98.7679 19.2691C96.3835 19.2298 94.0012 19.4269 91.6555 19.8575C89.2505 20.3429 86.9042 21.196 84.5432 21.8579C82.2704 22.6019 79.9475 23.1819 77.5922 23.5936C74.9555 23.7701 72.31 23.7701 69.6733 23.5936C67.4582 23.3153 65.2121 23.4147 63.0301 23.8878C61.1043 24.5838 59.3422 25.6703 57.8536 27.0797C57.1747 27.7752 56.7944 28.7098 56.7944 29.6832C56.7944 30.6566 57.1747 31.5912 57.8536 32.2867C58.5515 32.9531 59.4783 33.3247 60.4419 33.3247C61.4055 33.3247 62.3322 32.9531 63.0301 32.2867C63.4739 31.7864 64.0255 31.3939 64.6429 31.1391C65.2603 30.8842 65.9274 30.7737 66.5937 30.8158C68.9401 30.8158 71.2717 31.007 73.6181 31.0658C78.4566 30.9773 83.2533 30.1489 87.8428 28.6094C89.9894 27.8733 92.1846 27.2884 94.4125 26.859C96.7072 26.6212 99.0181 26.5818 101.32 26.7414C106.027 26.9179 110.72 26.9473 115.442 26.9473H162.559C166.533 26.9473 171.167 25.8147 174.995 27.1385C176.96 27.8298 178.954 27.5504 180.861 28.1093C181.832 28.4837 182.873 28.6394 183.911 28.5653C184.747 28.4035 184.6 28.8448 184.131 28.124C183.676 27.6239 183.573 27.5798 183.837 27.9916C183.676 27.6239 183.647 27.6533 183.837 28.0946C183.869 28.5844 183.869 29.0757 183.837 29.5655C183.837 30.3304 183.837 31.0364 183.735 31.8602C183.647 33.3311 183.735 34.949 183.442 36.4199C182.96 38.6099 182.69 40.8413 182.635 43.0832C182.635 44.1569 182.767 45.2454 182.767 46.3192C182.691 47.3754 182.504 48.4206 182.21 49.4375C181.946 51.6641 181.8 53.9029 181.77 56.1449C181.491 58.8367 181.183 61.4549 181.154 64.1614C181.091 66.2867 180.88 68.405 180.523 70.501C180.272 73.0177 180.203 75.5495 180.318 78.0762C180.176 80.2461 179.917 82.4067 179.541 84.5482C179.467 85.714 179.467 86.8832 179.541 88.049C179.499 89.124 179.332 90.1903 179.042 91.2262C178.558 93.609 178.544 96.1243 178.294 98.5807C178.02 101.141 177.878 103.713 177.869 106.288C177.869 111.407 177.869 116.511 177.869 121.63C177.972 142.605 177.869 163.58 177.869 184.556C177.869 186.335 177.869 188.1 177.986 189.88C177.986 190.601 178.133 191.351 178.148 192.072C178.111 192.468 178.111 192.867 178.148 193.263C177.84 191.998 181.476 191.484 179.731 191.189C177.826 190.996 175.909 190.956 173.998 191.072H134.843C114.195 191.072 93.5473 191.072 72.9142 191.234C70.8645 191.15 68.8246 190.904 66.8136 190.498C65.5965 190.336 64.4087 190.351 63.1915 190.248C61.9744 190.145 60.9771 189.836 59.8626 189.674C58.7481 189.513 57.487 189.542 56.2991 189.395C55.7688 189.332 55.2473 189.208 54.7447 189.027C54.5247 188.954 55.0526 189.174 55.0086 189.189C55.5219 188.983 54.6567 190.219 55.0966 189.086C54.9206 189.542 55.0966 188.512 55.0966 188.409C55.0966 187.542 55.0966 186.674 55.214 185.791C55.5366 181.378 55.3166 176.833 55.3166 172.362V156.402C55.3166 151.386 55.3166 146.356 55.3166 141.34C55.3166 138.781 55.2433 136.221 55.3166 133.662C55.3166 131.5 56.0205 129.396 56.1232 127.234C56.2258 125.072 56.8124 123.38 56.9297 121.424C56.8779 119.178 56.9955 116.931 57.2816 114.702C58.3375 109.774 57.2816 104.641 57.9269 99.6692C58.3087 97.5788 58.5585 95.4663 58.6748 93.3443C58.6748 90.9761 58.5135 88.6079 58.5135 86.2251C58.5135 83.8422 58.5134 81.2387 58.7334 78.7528C58.9534 76.267 59.408 73.8841 59.364 71.3982C59.2027 69.1948 59.2027 66.9825 59.364 64.7791C59.718 62.3438 59.8945 59.8857 59.892 57.4246C59.7348 55.0991 59.8579 52.7631 60.2586 50.4672C60.7719 48.1431 61.4317 45.8485 62.0183 43.5392C63.31 39.0031 64.039 34.3247 64.1887 29.6097C64.1594 24.9027 56.8271 24.9027 56.7684 29.6391Z" fill="#004D2B"/>
<path d="M66.3884 28.1975C66.4617 27.5797 66.0951 28.3152 66.3884 28.0799C66.6817 27.8445 66.8137 27.6827 67.0336 27.5209C67.8751 26.9341 68.7572 26.4081 69.6732 25.947C71.8786 24.6415 73.7551 22.8448 75.1578 20.6958C78.2374 16.2831 82.1822 12.7823 84.7778 8.06071C85.2911 7.14874 84.9391 7.44295 85.6284 7.39883C87.0033 7.36945 88.3789 7.41364 89.7491 7.5312C92.6821 7.63417 95.527 8.16371 98.4453 8.32551C104.707 8.67853 110.925 9.16389 117.201 9.16389C120.208 9.16389 123.184 9.07565 126.191 8.98739C129.197 8.89914 131.719 9.69342 134.579 9.89935C135.782 9.8671 136.987 9.90148 138.186 10.0023C139.556 10.3909 140.953 10.6761 142.366 10.8555C143.664 10.8017 144.965 10.8656 146.252 11.0467C147.85 11.385 149.464 11.6497 151.077 11.8704C157.324 12.7529 163.483 13.7679 169.657 15.1064C172.59 15.7242 175.376 16.4744 178.309 16.8715C181.025 17.0113 183.712 17.5058 186.301 18.3424C188.105 19.122 187.944 21.5343 187.944 23.3141C187.944 26.2559 187.445 29.0948 187.474 31.9925C187.474 34.6401 188.501 37.1848 188.442 39.803C188.354 41.1794 188.354 42.5599 188.442 43.9363C188.67 45.5816 188.993 47.2121 189.41 48.8197C190.466 53.2325 191.067 57.7923 192.064 62.2345C192.534 64.3379 193.091 66.4265 193.531 68.5446C194.88 75.4432 196.009 82.4154 197.27 89.3434C197.813 92.2852 197.828 95.433 198.267 98.463C198.707 101.493 199.734 103.994 199.734 106.891C199.734 109.789 200.452 112.907 200.643 115.923C200.834 118.938 201.318 122.13 201.332 125.263C201.332 131.823 201.332 138.398 201.332 144.973V154.593C201.332 155.637 201.42 157.152 201.332 157.947C201.259 158.52 200.848 158.976 200.232 159.741C198.529 162.088 197.023 164.572 195.731 167.169C194.425 169.52 192.913 171.75 191.214 173.833C187.606 178.437 184.453 182.776 182.635 188.38C182.272 189.266 181.692 190.045 180.949 190.645C180.171 191.513 179.893 192.896 179.145 193.661C175.86 197.073 181.037 202.28 184.321 198.868C185.093 197.797 185.793 196.676 186.418 195.514C186.712 195.131 187.254 194.837 187.577 194.469C188.194 193.773 188.69 192.978 189.043 192.116C189.909 189.582 190.979 187.122 192.24 184.761C195.379 179.775 199.573 175.583 202.374 170.361C203.727 167.803 205.261 165.345 206.964 163.007C208.591 160.786 208.694 158.3 208.694 155.652C208.694 148.871 208.694 142.105 208.694 135.324C208.694 131.97 208.694 128.617 208.694 125.263C208.694 121.909 208.181 118.82 207.99 115.584C207.799 112.348 207.213 109.142 207.081 105.891C206.949 102.64 205.776 99.7868 205.38 96.6538C204.984 93.5208 204.881 90.2259 204.28 87.0193L203.18 81.0327C202.447 76.9583 201.714 72.8985 201.01 68.8241C199.969 62.9405 198.311 57.2186 197.388 51.3203C196.962 48.5844 195.921 45.8337 195.731 43.0831C195.628 41.7005 195.906 40.3179 195.848 38.9352C195.705 37.4481 195.455 35.9733 195.1 34.5225C193.927 28.5506 196.669 22.3874 194.249 16.5185C191.83 10.6495 184.541 10.473 179.101 9.6346C172.81 8.6785 166.665 6.81044 160.374 5.81021C157.045 5.26598 153.672 4.95709 150.329 4.3393C148.774 4.05983 147.22 3.60385 145.636 3.47147C144.204 3.53376 142.77 3.45493 141.354 3.23612C138.524 2.41241 135.664 2.88312 132.819 2.25063C129.82 1.67489 126.757 1.50176 123.712 1.7358C117.221 2.00067 110.72 1.82373 104.252 1.20625C101.026 0.912068 97.8294 0.926776 94.6178 0.51492C91.7627 0.105506 88.8782 -0.0617838 85.995 0.0148153C84.5485 -0.0451534 83.1126 0.286511 81.838 0.97494C80.5633 1.66337 79.497 2.68319 78.7507 3.92745C77.4905 6.16823 76.0172 8.28149 74.3513 10.2377C72.3569 12.4882 70.5238 14.7828 68.7494 17.1951C67.416 18.6891 65.8012 19.9038 63.998 20.7694C62.0623 21.9903 59.76 23.7112 59.4374 26.2265C59.2143 27.1652 59.3534 28.1538 59.8266 28.9941C60.2998 29.8343 61.0723 30.464 61.989 30.7569C63.7047 31.2276 66.2417 30.1686 66.5056 28.1828L66.3884 28.1975Z" fill="#004D2B"/>
<path d="M122.29 42.5389H113.843C112.482 42.3531 111.098 42.484 109.796 42.9214C108.508 43.8066 107.177 44.6264 105.807 45.3778C101.305 47.0546 95.2189 51.3497 94.2364 56.6303C93.9941 59.4443 93.9941 62.274 94.2364 65.088C94.1161 68.0143 94.4475 70.9417 95.2189 73.7664C96.1438 75.977 97.2219 78.12 98.4451 80.1796C99.5156 82.4301 102.141 84.1363 104.091 85.8132C105.637 87.2699 107.386 88.4937 109.282 89.4463C111.699 90.318 114.18 90.9967 116.703 91.4762C119.416 92.1822 122.73 91.6527 125.501 91.6527C126.844 91.7334 128.191 91.7334 129.534 91.6527C130.913 91.4615 132.1 90.9761 133.538 90.6378C135.618 90.1327 137.499 89.0101 138.934 87.4165C139.776 86.6019 140.462 85.6398 140.958 84.5776C141.574 83.2391 141.808 81.8123 142.571 80.3561C145.328 75.0314 144.771 69.3831 144.771 63.4553C144.771 60.587 145.372 56.8509 144.184 54.4092C142.906 51.8017 140.97 49.5754 138.568 47.9519C136.266 46.2992 133.769 44.9404 131.133 43.9069C130.602 43.6753 130.058 43.474 129.505 43.3038C128.83 43.0685 127.848 42.6419 127.159 42.4801C125.692 42.1124 123.947 42.8184 122.436 42.3771C122.392 42.1859 122.348 41.9653 122.29 42.5389Z" fill="#D1C8E1"/>
<path d="M122.29 38.8617C118.902 38.8617 115.485 38.7587 112.024 38.8617C110.423 38.8496 108.847 39.2551 107.449 40.0384C106.379 40.6415 105.484 41.5093 104.384 42.0388C99.4715 44.407 94.5148 47.1723 91.9192 52.3352C90.6671 55.1034 90.1373 58.1454 90.3794 61.1754C90.4967 64.3379 90.3794 67.5592 90.834 70.7069C91.2923 73.9756 92.4046 77.1176 94.1042 79.9442C95.3465 82.4464 97.0595 84.6841 99.1488 86.5339C101.403 88.6564 103.859 90.5531 106.481 92.197C109.382 93.556 112.457 94.5063 115.617 95.0211C118.902 95.7565 122.099 95.3153 125.413 95.33C126.757 95.4035 128.103 95.4035 129.446 95.33C131.132 95.0874 132.795 94.7036 134.417 94.1827C137.363 93.3927 140.001 91.726 141.984 89.4022C144.067 86.9899 144.785 84.1658 146.076 81.3269C148.833 75.2226 148.158 68.8977 148.378 62.411C148.481 59.0279 148.759 55.7036 147.264 52.5558C145.949 49.9299 144.053 47.6406 141.72 45.8632C139.035 43.7575 136.074 42.0303 132.922 40.7297C131.49 40.0825 130.021 39.5225 128.522 39.0529C127.57 38.7796 126.579 38.6652 125.589 38.7146C124.834 38.8417 124.066 38.8812 123.302 38.8323L125.868 41.4064C125.711 40.7483 125.383 40.144 124.916 39.6554C124.45 39.1668 123.862 38.8116 123.214 38.6263C120.677 37.8614 118.814 39.906 118.579 42.1712V42.5095C118.587 43.4824 118.976 44.4133 119.662 45.1013C120.348 45.7892 121.276 46.1791 122.246 46.1868C123.212 46.168 124.134 45.7745 124.817 45.0889C125.501 44.4033 125.893 43.4789 125.912 42.5095V42.1712L121.263 45.7161L118.712 43.142V43.3332C118.873 43.9497 119.194 44.5124 119.642 44.9645C120.09 45.4165 120.649 45.7417 121.263 45.9073C122.563 46.1594 123.892 46.2139 125.208 46.0691C126.224 46.0666 127.228 46.2982 128.141 46.7458C130.356 47.5189 132.493 48.5041 134.52 49.6876C136.341 50.739 137.969 52.0974 139.33 53.7032C140.52 55.0964 141.147 56.8854 141.09 58.719C141.09 61.146 140.928 63.573 140.958 66C141.073 68.5277 140.99 71.0606 140.708 73.5752C140.084 76.1835 139.21 78.7253 138.098 81.1651C137.595 83.0446 136.486 84.7046 134.945 85.8867C133.088 87.0406 130.99 87.7503 128.815 87.9607C127.652 88.0098 126.486 87.9852 125.325 87.8872C123.947 87.8872 122.583 88.0049 121.205 88.049C116.069 88.3066 111.012 86.7097 106.95 83.548C105.134 82.2567 103.458 80.7777 101.95 79.1353C101.402 78.2514 100.912 77.3326 100.483 76.3847C99.8449 75.3708 99.2765 74.3141 98.7822 73.2222C98.0026 70.8879 97.6548 68.4303 97.7558 65.9706C97.5384 63.245 97.5041 60.5078 97.6531 57.7776C98.1957 53.5267 102.771 50.5407 106.291 48.9521C107.456 48.4938 108.571 47.9171 109.619 47.2312C110.326 46.5197 111.273 46.0999 112.274 46.0544C115.573 46.0544 118.873 46.0544 122.172 46.0544C127.041 46.2162 127.041 38.8617 122.29 38.8617Z" fill="#004D2B"/>
<path d="M116.776 111.069C111.629 111.069 106.408 110.76 101.73 111.863C99.634 112.585 97.5823 113.429 95.5855 114.393C94.5149 114.79 93.4444 115.614 92.3739 115.937C91.0934 116.25 89.8423 116.674 88.6344 117.202C84.7691 118.95 81.1935 121.282 78.0319 124.116C75.4716 126.586 73.3008 129.433 71.5941 132.559C70.8928 133.974 70.3234 135.451 69.8931 136.972C69.4936 137.81 69.2643 138.72 69.2185 139.649C69.2185 140.737 69.2185 141.826 69.2185 142.899C69.2185 147.121 69.2185 151.328 69.2185 155.549C69.1088 157.291 69.6295 159.015 70.6849 160.403C71.7078 161.861 72.9552 163.147 74.3804 164.213C76.7956 166.482 79.4008 168.539 82.1674 170.361C83.825 171.233 85.5515 171.966 87.3293 172.553C89.441 173.303 91.7287 172.994 94.0897 173.406C94.2804 173.406 94.7202 173.936 95.1015 174.009C95.4828 174.083 96.3041 173.891 96.8906 174.009C98.1225 174.141 98.3571 174.583 99.4276 174.789C101.965 175.303 105.484 174.789 108.109 174.789H123.243C128.42 174.789 133.142 174.921 137.908 173.435C142.307 172.067 146.384 171.258 150.475 169.184C152.101 168.518 153.572 167.521 154.794 166.255C156.016 164.989 156.962 163.482 157.573 161.83C158.291 159.903 158.717 158.006 159.289 156.049C159.597 154.975 160.051 153.872 160.389 152.784C160.726 151.695 160.682 150.636 161.019 149.533C162.222 145.562 161.635 141.09 161.694 136.898C161.803 135.954 161.58 135.002 161.063 134.206C160.403 133.088 160.081 131.764 159.333 130.72C158.736 129.962 158.084 129.249 157.382 128.587C156.503 127.832 155.549 127.166 154.537 126.602C150.402 123.895 145.9 121.38 141.984 118.453C138.155 115.816 134.031 113.638 129.695 111.966C124.753 109.583 119.196 109.627 116.776 111.069Z" fill="#F3BC61"/>
<path d="M116.776 107.362C111.643 107.362 106.511 107.068 101.378 108.142C99.1991 108.738 97.0901 109.566 95.087 110.613C94.0898 111.054 93.0926 111.466 92.1541 111.981C91.1044 112.441 90.0209 112.82 88.9132 113.113C79.9617 116.3 72.5504 122.777 68.1773 131.235C67.3177 133.089 66.5876 135.001 65.9923 136.957C65.4889 139.374 65.3407 141.851 65.5524 144.311C65.5524 146.65 65.5524 148.989 65.5524 151.328C65.3525 153.783 65.4608 156.254 65.875 158.682C67.0041 162.977 70.509 165.669 73.6912 168.434C77.2032 171.703 81.3248 174.242 85.8189 175.907C87.8758 176.63 90.0488 176.965 92.2274 176.892C93.6938 176.819 92.0221 176.539 92.8873 177.024C93.4382 177.321 94.0319 177.53 94.647 177.642C95.2121 177.708 95.783 177.708 96.3481 177.642C97.052 177.642 96.5828 177.642 97.184 177.819C101.246 179.393 106.056 178.378 110.382 178.378C120.325 178.378 130.693 179.334 140.342 176.495C148.76 174.009 157.94 171.714 161.283 162.654C162.075 160.55 162.5 158.344 163.19 156.226C164.031 153.682 164.693 151.082 165.169 148.445C165.55 146.132 165.698 143.786 165.609 141.443C165.777 139.062 165.678 136.669 165.316 134.309C164.916 133.225 164.425 132.177 163.849 131.176C163.35 129.958 162.695 128.811 161.899 127.764C160.358 125.963 158.529 124.432 156.488 123.233C151.912 120.291 147.381 117.423 142.923 114.408C138.588 111.51 133.882 109.214 128.933 107.583C124.607 106.112 119.064 105.641 114.943 107.936C110.822 110.23 114.503 116.673 118.668 114.334C119.92 113.903 121.249 113.738 122.569 113.849C124.722 114.02 126.831 114.562 128.801 115.452C133.114 117.207 137.213 119.453 141.017 122.145C145.123 125.087 149.537 127.617 153.804 130.352C155.032 131.11 156.042 132.175 156.737 133.441C157.231 134.334 157.667 135.258 158.042 136.207C158.262 136.795 158.042 136.295 158.042 136.207C158.108 137.063 158.108 137.924 158.042 138.781C158.368 143.576 157.821 148.391 156.429 152.99C155.168 156.594 154.831 161.271 151.839 163.904C148.847 166.537 144.14 167.714 140.21 168.832C138.015 169.544 135.783 170.133 133.523 170.597C131.215 170.911 128.886 171.049 126.557 171.008C120.691 171.008 114.738 171.008 108.828 171.008C106.423 171.008 104.032 171.317 101.627 171.259C100.787 171.278 99.954 171.102 99.1931 170.744C97.8625 170.374 96.4796 170.23 95.1016 170.317L96.964 170.817C96.3582 170.447 95.726 170.123 95.0723 169.846C94.1085 169.635 93.1259 169.522 92.1394 169.508C90.5278 169.466 88.9313 169.183 87.4026 168.67C84.4087 167.518 81.6576 165.812 79.2931 163.639C77.1521 161.771 74.2338 159.947 73.0607 157.241C73.2073 157.564 72.8261 156.27 72.8847 156.638C72.826 155.81 72.826 154.979 72.8847 154.152V148.18C72.8847 146.327 72.8847 144.459 72.8847 142.59C72.7643 141.181 72.8985 139.76 73.2807 138.398C74.1566 135.594 75.4896 132.955 77.2255 130.588C79.2401 127.876 81.7236 125.55 84.5578 123.719C86.0243 122.821 87.4907 122.012 88.9572 121.218C90.5227 120.51 92.1289 119.896 93.7671 119.379C97.184 118.056 100.22 115.879 103.886 115.231C108.158 114.67 112.473 114.498 116.776 114.717C121.601 114.79 121.601 107.362 116.776 107.362Z" fill="#004D2B"/>
<path d="M94.1484 123.719H93.7085C93.27 123.748 92.8339 123.807 92.4033 123.895C92.1568 123.969 91.9165 124.062 91.6848 124.175C91.4607 124.251 91.2446 124.35 91.0395 124.469C90.1235 125.03 89.4529 125.918 89.1624 126.955C88.8988 128.041 89.0561 129.187 89.6023 130.161C89.8758 130.643 90.2335 131.072 90.6582 131.426C91.3124 132.039 92.1088 132.479 92.9753 132.706C93.5451 132.822 94.1243 132.886 94.7057 132.897H95.6149L94.6324 132.765C94.9007 132.828 95.1651 132.906 95.4242 133C95.5965 133.058 95.773 133.102 95.9522 133.132C96.3399 133.208 96.7316 133.262 97.1253 133.294H97.2867C97.6275 133.274 97.966 133.225 98.2986 133.147C98.8041 133.028 99.2797 132.806 99.696 132.495C100.112 132.184 100.46 131.79 100.718 131.338C100.874 131.04 101.006 130.73 101.114 130.411C101.18 130.066 101.224 129.717 101.246 129.367C101.26 128.967 101.2 128.568 101.07 128.19C100.906 127.544 100.597 126.943 100.168 126.434C99.7386 125.924 99.1997 125.519 98.5918 125.248C97.7852 124.895 96.964 124.601 96.1575 124.263L97.0373 124.645H96.9347C96.5262 124.383 96.0553 124.236 95.5709 124.219C95.0909 124.087 94.5844 124.087 94.1044 124.219C93.6401 124.331 93.2115 124.559 92.8579 124.881C92.4589 125.134 92.1348 125.489 91.9194 125.91C91.6722 126.335 91.5124 126.805 91.4494 127.292C91.3864 127.78 91.4216 128.275 91.5528 128.749C91.6742 129.207 91.8844 129.636 92.1712 130.012C92.4581 130.388 92.816 130.704 93.2246 130.941C94.0018 131.309 94.8083 131.573 95.5855 131.897L94.7204 131.529C94.9641 131.617 95.1957 131.736 95.4096 131.882L94.6617 131.309H94.7496L94.1778 130.558C94.1778 130.676 94.3097 130.794 94.3683 130.911L94.0017 130.029V130.191L93.8698 129.22V129.426L94.0017 128.44L94.3683 127.558L94.9403 126.808L95.6882 126.234L96.5535 125.866H96.4361L97.4186 125.734H97.0814L98.0492 125.866C97.6798 125.793 97.3169 125.689 96.964 125.557H96.8321H96.7147C96.3041 125.557 95.9082 125.44 95.4976 125.41C95.0869 125.381 94.647 125.41 94.2217 125.41L95.1897 125.543L94.7057 125.41L95.5855 125.778C95.446 125.719 95.3133 125.645 95.1897 125.557L95.9375 126.131C95.8011 126.024 95.678 125.9 95.5709 125.763L96.1428 126.513C96.0839 126.433 96.0301 126.35 95.9815 126.263L96.3628 127.146C96.3497 127.098 96.3497 127.047 96.3628 126.999L96.4947 127.97C96.4802 127.927 96.4802 127.88 96.4947 127.837L96.3628 128.823C96.3564 128.794 96.3564 128.764 96.3628 128.734L95.9815 129.602L95.4096 130.338C95.4409 130.291 95.4807 130.251 95.5269 130.22L94.779 130.897L94.999 130.779L94.1191 131.147C94.2792 131.085 94.447 131.046 94.6177 131.029L93.6351 131.161C93.8206 131.147 94.0069 131.147 94.1924 131.161C94.6996 131.188 95.2049 131.081 95.6588 130.853C96.1099 130.705 96.5144 130.441 96.8321 130.088C97.4914 129.377 97.8763 128.454 97.9173 127.484C97.9119 126.507 97.5219 125.571 96.8321 124.881C96.1366 124.211 95.2153 123.827 94.2511 123.807L94.1484 123.719Z" fill="#004D2B"/>
<path d="M136.338 125.322H136.25C135.921 125.256 135.588 125.212 135.253 125.189H135.092C134.66 125.202 134.232 125.266 133.816 125.381C133.472 125.505 133.134 125.647 132.804 125.807L132.658 125.881C132.288 126.109 131.94 126.37 131.616 126.66C131.197 127.03 130.836 127.461 130.546 127.94C130.486 128.04 130.433 128.143 130.385 128.249C130.193 128.624 130.041 129.019 129.93 129.426C129.93 129.72 129.827 130.132 129.798 130.441C129.797 130.465 129.797 130.49 129.798 130.514C129.821 130.88 129.87 131.244 129.945 131.603C130.028 131.99 130.172 132.362 130.37 132.706C130.75 133.387 131.308 133.951 131.983 134.339C132.328 134.532 132.692 134.689 133.068 134.809L133.361 134.883C133.883 134.988 134.413 135.043 134.945 135.045C135.501 135.018 136.055 134.954 136.602 134.853L137.218 134.721C137.827 134.546 138.382 134.218 138.828 133.767C139.275 133.317 139.599 132.759 139.77 132.147L139.858 131.75C139.992 131.269 139.992 130.76 139.858 130.279C139.845 129.792 139.698 129.319 139.433 128.911C138.911 128.114 138.136 127.518 137.233 127.219L136.265 127.087C135.611 127.082 134.967 127.255 134.403 127.587L133.669 128.161C133.214 128.609 132.89 129.174 132.731 129.793L132.643 130.176L135.209 127.602C134.955 127.678 134.695 127.732 134.432 127.764L135.415 127.631C135.069 127.675 134.719 127.675 134.373 127.631L135.341 127.764C135.186 127.74 135.034 127.701 134.887 127.646L135.766 128.014C135.684 127.978 135.605 127.934 135.532 127.881L136.265 128.455L136.148 128.323L136.72 129.058C136.685 129.017 136.656 128.973 136.632 128.926L136.998 129.808V129.602L137.13 130.588C137.116 130.515 137.116 130.44 137.13 130.367L136.998 131.338C137.012 131.236 137.042 131.136 137.086 131.044L136.72 131.912C136.784 131.752 136.874 131.603 136.984 131.47L136.412 132.22C136.533 132.064 136.671 131.921 136.822 131.794L136.089 132.368C136.228 132.259 136.381 132.17 136.544 132.103L135.664 132.47C135.762 132.428 135.866 132.398 135.972 132.382L135.004 132.515H135.253L134.271 132.382H134.373C134.847 132.538 135.353 132.563 135.84 132.456C136.314 132.411 136.773 132.264 137.185 132.026C137.598 131.787 137.954 131.462 138.23 131.073C138.551 130.719 138.778 130.289 138.89 129.823L139.022 128.837C139.02 128.186 138.848 127.547 138.523 126.984L137.951 126.234C137.498 125.785 136.938 125.461 136.324 125.292L136.338 125.322Z" fill="#004D2B"/>
<path d="M114.283 134.589C110.265 134.589 106.1 134.206 102.272 135.707C98.495 137.141 95.4093 139.973 93.6496 143.62C92.0218 147.136 90.8634 152.107 92.6818 155.726C94.4492 159.173 97.1943 162.019 100.571 163.904C102.268 164.839 104.051 165.608 105.895 166.199C107.818 166.699 109.78 167.033 111.76 167.199C113.82 167.611 115.909 167.857 118.008 167.934C119.885 167.934 121.791 167.934 123.668 167.817C127.789 167.655 131.734 164.433 133.655 160.844C134.4 159.254 134.895 157.557 135.121 155.814C135.515 153.605 135.461 151.338 134.96 149.151C134.265 147.24 133.21 145.482 131.851 143.973C130.341 142.244 128.447 140.894 126.322 140.031C124.401 139.031 122.818 137.501 120.633 137.089C120.196 137.008 119.755 136.949 119.313 136.913C120.046 137.03 118.975 136.839 118.829 136.795C118.09 136.605 117.412 136.224 116.864 135.692C116.164 135.029 115.238 134.659 114.275 134.659C113.313 134.659 112.387 135.029 111.687 135.692C111.005 136.386 110.622 137.321 110.622 138.295C110.622 139.27 111.005 140.205 111.687 140.899C112.861 141.974 114.21 142.84 115.676 143.458C116.849 143.944 118.184 143.826 119.313 144.267C119.665 144.4 120.97 145.429 121.644 145.856C123.017 146.468 124.345 147.176 125.619 147.974C126.552 148.702 127.264 149.677 127.673 150.79C128.083 151.902 128.174 153.108 127.936 154.269C127.613 156.741 126.806 159.021 124.387 160.271C123.47 160.55 122.502 160.615 121.556 160.462C120.002 160.462 118.433 160.712 116.893 160.594C115.353 160.477 114.136 160.183 112.758 159.991C111.088 159.854 109.435 159.569 107.816 159.138C105.343 158.405 103.084 157.083 101.231 155.284C100.358 154.441 99.6469 153.444 99.1342 152.343C99.3248 152.843 99.1342 152.343 99.1342 152.078C99.1342 151.813 99.1342 151.357 99.1342 151.004C99.1357 150.33 99.2195 149.658 99.3835 149.004C99.6784 147.635 100.288 146.354 101.164 145.264C102.04 144.173 103.158 143.303 104.428 142.723C107.361 141.428 111.042 141.973 114.195 141.987C119.005 141.973 119.005 134.618 114.283 134.589Z" fill="#004D2B"/>
<path d="M112.377 132.676C117.084 132.676 117.099 125.322 112.377 125.322C107.655 125.322 107.64 132.676 112.377 132.676Z" fill="#004D2B"/>
<path d="M24.0956 104.788C22.4782 106.287 21.1029 108.028 20.0188 109.951C18.9227 112.122 18.1094 114.426 17.5991 116.805C17.3403 117.988 17.2563 119.202 17.3499 120.409C17.4231 121.279 17.3787 122.155 17.2178 123.013C16.893 125.622 16.7948 128.255 16.9245 130.882C16.9245 131.857 17.3108 132.793 17.9983 133.482C18.6859 134.172 19.6184 134.559 20.5907 134.559C21.563 134.559 22.4956 134.172 23.1831 133.482C23.8707 132.793 24.2569 131.857 24.2569 130.882C24.2569 129.72 24.2569 128.573 24.2569 127.411C24.2569 126.911 24.2569 126.396 24.2569 125.94C24.2232 125.632 24.2232 125.321 24.2569 125.013C24.5198 123.754 24.6672 122.474 24.6969 121.189C24.6969 120.806 24.6968 120.439 24.6235 120.071C24.5501 119.703 24.6235 118.438 24.6235 119.218C24.7834 118.272 25.0239 117.342 25.3421 116.438C25.588 115.557 25.9119 114.701 26.3099 113.878C27.0434 112.408 28.0661 111.102 29.3162 110.039C29.6668 109.7 29.9466 109.295 30.1394 108.847C30.3321 108.398 30.4339 107.916 30.4388 107.428C30.4438 106.939 30.3516 106.455 30.1679 106.003C29.9842 105.551 29.7126 105.14 29.3689 104.794C29.0252 104.448 28.6162 104.175 28.1659 103.989C27.7157 103.804 27.2331 103.71 26.7463 103.713C26.2595 103.717 25.7783 103.818 25.3307 104.01C24.8832 104.202 24.4783 104.481 24.1396 104.832L24.0956 104.788Z" fill="#004D2B"/>
<path d="M9.4309 95.1681C9.4309 94.7563 8.90299 96.0948 8.80033 96.3155C8.59503 96.7861 8.47772 97.3892 8.25775 97.7864C7.8618 98.5365 7.21656 99.1543 6.79128 99.9192C6.36601 100.684 5.92609 101.758 5.53015 102.699C4.06368 106.318 3.25709 110.127 1.92261 113.805C1.47759 115.673 1.28042 117.592 1.33608 119.512C1.1601 121.645 0.866733 123.748 0.705422 125.866C0.353471 130.191 0.485521 134.5 0.500185 138.825C0.500185 143.561 7.83251 143.561 7.83251 138.825C7.83251 134.618 7.68585 130.426 8.00847 126.219C8.16979 124.101 8.40439 121.983 8.62436 119.865C8.72702 118.894 8.62438 117.908 8.72703 116.923C8.86906 116.122 9.12075 115.345 9.47494 114.614C10.0317 112.879 10.4968 111.117 10.8681 109.333C11.3549 107.56 12.0181 105.84 12.8478 104.2C14.3143 101.258 16.5726 98.5513 16.734 95.1093C16.9686 90.3877 9.63627 90.3877 9.40163 95.1093L9.4309 95.1681Z" fill="#004D2B"/>
<path d="M219.062 105.979C219.081 107.094 219.305 108.196 219.722 109.23L220.132 110.216C220.323 110.701 220.499 111.186 220.646 111.687C220.924 112.584 221.129 113.481 221.32 114.393C221.511 115.305 221.657 116.114 221.716 116.776C221.925 118.867 222.253 120.944 222.699 122.998C222.699 123.439 222.699 123.469 222.699 123.101C222.699 123.351 222.699 123.601 222.699 123.851C222.699 124.101 222.699 124.631 222.772 125.013C222.843 125.719 222.95 126.421 223.095 127.116C223.095 127.572 223.095 127.617 223.095 127.278C223.109 127.538 223.109 127.798 223.095 128.058C223.095 129.033 223.481 129.968 224.168 130.658C224.856 131.348 225.788 131.735 226.761 131.735C227.733 131.735 228.666 131.348 229.353 130.658C230.041 129.968 230.427 129.033 230.427 128.058C230.427 126.822 230.075 125.631 229.943 124.41C230.016 125.057 229.943 123.851 229.943 123.851C229.943 123.145 229.796 122.454 229.694 121.762C229.591 121.071 229.386 120.071 229.195 119.232C229.012 118.425 228.899 117.603 228.858 116.776C228.663 114.655 228.29 112.554 227.743 110.495C227.506 109.616 227.217 108.752 226.878 107.906C226.702 107.509 226.541 107.112 226.365 106.7C226.511 107.068 226.511 107.053 226.365 106.7C226.218 106.347 226.233 106.288 226.189 106.082C226.189 106.509 226.189 106.48 226.189 106.009C226.189 105.034 225.803 104.098 225.115 103.409C224.427 102.719 223.495 102.332 222.523 102.332C221.55 102.332 220.618 102.719 219.93 103.409C219.243 104.098 218.856 105.034 218.856 106.009L219.062 105.979Z" fill="#004D2B"/>
<path d="M230.002 94.8446C230.631 94.7397 231.276 94.7736 231.891 94.9437C232.507 95.1139 233.078 95.4164 233.565 95.8301C234.662 96.81 235.646 97.9103 236.498 99.1103C237.407 100.316 238.463 101.42 239.431 102.626C240.356 103.992 241.096 105.476 241.631 107.038C242.202 108.509 243.009 109.892 243.522 111.451C243.901 112.863 244.113 114.314 244.153 115.776C244.49 119.438 244.256 123.13 244.27 126.881C244.27 131.617 251.602 131.617 251.602 126.881C251.737 122.677 251.644 118.469 251.324 114.275C251.201 112.068 250.731 109.893 249.931 107.833C249.183 106.082 248.464 104.361 247.716 102.596C246.25 99.0073 243.581 96.1978 241.22 93.1824C239.967 91.535 238.445 90.1126 236.718 88.9756C234.728 87.8131 232.427 87.2991 230.133 87.5047C225.411 87.5047 225.397 94.8593 230.133 94.8593L230.002 94.8446Z" fill="#004D2B"/>
<path d="M106.878 54.6739H104.297C103.333 54.7185 102.415 55.0982 101.701 55.7477C101.045 56.4589 100.665 57.3828 100.63 58.3512L100.762 59.322C100.927 59.9393 101.251 60.5024 101.701 60.9547L102.449 61.5284C103.01 61.8543 103.648 62.0267 104.297 62.0285H106.878C107.387 62.0588 107.894 61.9468 108.344 61.7049C108.791 61.547 109.197 61.2907 109.532 60.9547C109.867 60.6186 110.122 60.2115 110.28 59.7633C110.522 59.3129 110.634 58.8033 110.602 58.2924L110.47 57.3216C110.306 56.7043 109.982 56.1412 109.532 55.6888L108.784 55.1152C108.222 54.7893 107.585 54.6169 106.936 54.6151L106.878 54.6739Z" fill="#004D2B"/>
<path d="M125.677 50.6142H123.83C123.321 50.5694 122.811 50.6769 122.363 50.9231C121.907 51.0685 121.497 51.3323 121.175 51.6879C120.83 52.0127 120.569 52.4165 120.413 52.8647C120.185 53.32 120.079 53.8268 120.105 54.3356L120.237 55.3064C120.405 55.9179 120.729 56.4753 121.175 56.9244L121.923 57.4981C122.484 57.8285 123.121 58.006 123.771 58.0129H125.619C126.128 58.0432 126.636 57.9312 127.085 57.6893C127.525 57.5194 127.925 57.2587 128.258 56.9243C128.592 56.5899 128.852 56.1891 129.021 55.7477C129.262 55.2968 129.374 54.7876 129.344 54.2768L129.212 53.2912C129.038 52.6787 128.71 52.1215 128.258 51.6733L127.525 51.0996C126.966 50.767 126.327 50.5941 125.677 50.5995V50.6142Z" fill="#004D2B"/>
<path d="M33.8472 50.6583L34.1992 50.7466L31.7208 46.2309C31.6475 46.4515 31.5742 46.6722 31.4862 46.8781C31.4384 46.9826 31.3991 47.0908 31.3689 47.2017C31.2516 47.4517 31.3689 47.3341 31.5155 46.834C31.3317 47.1517 31.1795 47.4867 31.0609 47.8342C30.5916 48.8344 30.137 49.8493 29.7557 50.8937C29.4624 51.7174 29.1839 52.5411 28.9052 53.3795C28.6201 54.3392 28.4285 55.3245 28.3333 56.3213L28.4653 55.3506C28.4653 55.5565 28.392 55.7477 28.348 55.9536C28.3545 56.0368 28.3545 56.1204 28.348 56.2037C28.4549 55.7931 28.6672 55.4178 28.9639 55.1152H34.1551L32.9673 53.8355L32.3514 53.1L32.0434 52.7176C32.762 53.5266 32.3221 53.0706 32.1607 52.85C31.8313 52.3766 31.5278 51.8856 31.2515 51.3791C31.7355 52.2469 31.5155 52.041 31.4128 51.688L31.2809 51.1143C31.1802 50.6873 31.1018 50.2552 31.0462 49.8199L31.1782 50.8054C31.0914 49.082 30.8856 47.3668 30.5624 45.6719C29.8731 43.2155 27.6294 41.0092 24.9458 41.7446C23.9136 42.117 22.9865 42.7341 22.2435 43.5434C21.5005 44.3528 20.9634 45.3303 20.6783 46.3927C20.4437 46.9957 20.2677 47.6283 20.0477 48.2608C19.9451 48.5402 19.6518 49.0403 20.1504 48.0842C20.1504 48.1872 20.0478 48.3049 19.9891 48.4225L19.7105 48.8932C19.3879 49.4375 20.2824 48.2313 19.8278 48.7315C19.159 49.424 18.7881 50.3524 18.795 51.3166C18.802 52.2809 19.1863 53.2037 19.8651 53.8865C20.5439 54.5693 21.4628 54.9574 22.4241 54.9671C23.3854 54.9768 24.312 54.6074 25.0044 53.9385C26.1026 52.6577 26.9085 51.1516 27.3655 49.5257C27.4535 49.2462 27.5268 48.9815 27.6294 48.7167C27.6998 48.5815 27.754 48.4382 27.7907 48.2902C27.7907 48.2902 27.3948 49.1139 27.6294 48.6726L27.8493 48.2754C28.0546 47.9371 28.1573 48.1137 27.6587 48.4814C27.7576 48.4048 27.8463 48.3158 27.9226 48.2166C27.7052 48.4616 27.4269 48.6443 27.1161 48.7461C26.7495 48.8785 26.6762 48.908 26.8962 48.8638L25.9283 48.9962H25.855L24.8725 48.8638C25.2244 48.9374 25.0191 48.8638 24.2858 48.599C23.8688 48.3696 23.5236 48.0284 23.2887 47.6135C23.6113 48.3196 23.098 46.9369 23.2007 47.3047C23.3033 47.6724 23.406 48.0401 23.4646 48.4225L23.3327 47.437C23.6993 50.1582 23.6113 52.9235 24.8871 55.4094C25.9575 57.2093 27.27 58.8526 28.7879 60.2928C29.4795 60.9773 30.412 61.3611 31.3836 61.3611C32.3551 61.3611 33.2876 60.9773 33.9792 60.2928C35.0246 59.0198 35.6042 57.4263 35.6216 55.7771L35.5043 56.7626C35.822 55.2491 36.2887 53.7709 36.8975 52.3499C37.0441 51.9086 36.5015 53.203 36.8975 52.497L37.1321 51.9968C37.2787 51.6585 37.44 51.3202 37.5867 50.9966C38.0289 50.0373 38.4205 49.0554 38.7598 48.0548C39.0045 47.1131 38.8733 46.1129 38.394 45.2668C37.9148 44.4207 37.1253 43.7956 36.1935 43.5244L35.8416 43.4362C34.9065 43.1867 33.9112 43.315 33.0694 43.7935C32.2276 44.2721 31.6065 45.0627 31.3395 45.9955C31.0981 46.9351 31.229 47.9319 31.7048 48.7767C32.1806 49.6215 32.9642 50.2484 33.8912 50.5259L33.8472 50.6583Z" fill="#004D2B"/>
<path d="M216.892 54.2474L217.42 54.4239L216.554 54.0562C216.8 54.1699 217.032 54.3131 217.244 54.4827L216.496 53.9091C216.998 54.3391 217.442 54.8337 217.815 55.38L217.244 54.6298C217.962 55.5712 218.622 56.5567 219.399 57.4392C220.304 58.4605 221.455 59.2305 222.743 59.675C223.215 59.8058 223.709 59.8406 224.195 59.7775C224.681 59.7143 225.149 59.5545 225.573 59.3073C226.377 58.8013 226.975 58.0242 227.26 57.1156C227.467 56.3896 227.551 55.6339 227.509 54.8799C227.478 54.39 227.478 53.8988 227.509 53.409L227.377 54.3798C227.479 53.7031 227.699 53.0707 227.861 52.4087C228.088 51.5302 228.191 50.6242 228.169 49.7169C228.013 48.4632 227.944 47.2 227.963 45.9367L227.831 46.9075C227.87 46.612 227.939 46.3212 228.037 46.0397L227.67 46.9222L227.831 46.6427L227.26 47.3929C227.335 47.2846 227.424 47.1858 227.523 47.0987L226.79 47.6871C226.918 47.5814 227.061 47.497 227.215 47.437L226.336 47.8048C226.497 47.7452 226.664 47.7009 226.834 47.6724L225.852 47.8048C226.105 47.7826 226.361 47.7826 226.614 47.8048L225.646 47.6724C226.024 47.7321 226.393 47.8358 226.746 47.9813L225.866 47.6136C226.138 47.7285 226.394 47.8767 226.629 48.0548L225.896 47.4812C226.051 47.6031 226.194 47.7412 226.321 47.893L225.749 47.1576C225.846 47.2757 225.929 47.4039 225.998 47.54L225.632 46.6721C225.638 46.7505 225.638 46.8292 225.632 46.9075C225.895 47.8463 226.518 48.6431 227.363 49.1249C228.209 49.6068 229.209 49.7349 230.148 49.4816C231.072 49.2041 231.853 48.5794 232.329 47.7379C232.804 46.8965 232.937 45.9034 232.7 44.9659C231.879 41.5828 227.465 39.6559 224.312 40.715C223.104 41.0861 222.066 41.8726 221.379 42.9361C220.799 43.9531 220.491 45.1033 220.484 46.275C220.484 47.7459 220.866 49.2168 220.675 50.7613L220.807 49.7905C220.675 50.6142 220.367 51.4085 220.22 52.2322C220.084 52.8899 220.02 53.5608 220.03 54.2327C220.075 54.7219 220.075 55.2143 220.03 55.7036L220.162 54.718C220.162 54.8651 220.162 54.9975 220.059 55.1446L224.561 52.5705L224.356 52.497L225.221 52.8647C224.978 52.7454 224.747 52.6025 224.532 52.4381L225.265 53.0118C224.77 52.574 224.327 52.0804 223.945 51.5409L224.517 52.291C222.948 50.2318 221.438 47.7312 218.651 47.1428C217.695 46.9068 216.686 47.038 215.821 47.5106C215.001 48.0056 214.398 48.794 214.135 49.7169C213.89 50.6567 214.022 51.655 214.502 52.4987C214.981 53.3424 215.77 53.9647 216.701 54.2327L216.892 54.2474Z" fill="#004D2B"/>
<path d="M108.417 74.5901C110.303 74.4788 112.14 73.9515 113.799 73.0456C115.448 72.3337 117.132 71.7053 118.844 71.1629C119.284 71.0305 119.724 70.9422 120.163 70.8393C120.325 70.8393 120.882 70.751 120.163 70.8393H120.794L122.847 70.7216C123.214 70.7216 123.58 70.7216 123.947 70.7216C124.128 70.7344 124.309 70.7344 124.49 70.7216C124.49 70.7216 123.815 70.545 124.182 70.7216C124.339 70.7917 124.508 70.8316 124.68 70.8393C125.135 70.8393 124.079 70.5303 124.475 70.7657C124.871 71.001 123.947 70.2803 124.299 70.6333C124.651 70.9863 123.888 69.8537 124.211 70.5157C124.28 70.6673 124.359 70.8146 124.446 70.9569C124.651 71.3099 124.666 71.0746 124.446 70.8245C124.622 70.9863 124.68 71.5158 124.739 71.7659C124.798 72.0159 124.739 72.1336 124.856 72.3248C125.003 72.8397 124.856 71.6629 124.856 72.1777C124.885 72.5793 124.885 72.9824 124.856 73.3839C124.856 73.3839 125.047 72.4425 124.856 73.1044C124.666 73.7663 124.856 72.8985 124.959 72.8838C124.877 72.9909 124.804 73.104 124.739 73.2221C124.519 73.6634 125.149 72.7956 124.739 73.2221C124.328 73.6487 123.683 74.34 123.14 74.8843L123.287 74.7666C123.522 74.6048 123.492 74.6195 123.199 74.7666C123.287 74.6489 123.932 74.5607 123.272 74.693L122.261 74.8843L121.058 75.0902L120.515 75.1931C120.515 75.1931 119.313 75.3696 120.031 75.2814C119.137 75.3991 118.213 75.4579 117.319 75.4873H116.013C114.928 75.4873 116.013 75.4873 116.013 75.4873C116.013 75.4873 115.251 75.2814 115.148 75.252C115.046 75.2226 115.647 75.5168 115.324 75.252C115.002 74.9872 114.855 74.9872 114.635 74.8548C114.063 74.5165 114.459 74.7519 114.635 74.8548L113.916 74.2223C113.726 74.0311 113.124 73.5751 113.08 73.3251C113.08 73.3251 113.506 73.9723 113.3 73.5899L113.037 73.178C112.861 72.8691 112.714 72.5602 112.567 72.2513C112.476 72.1084 112.403 71.9554 112.347 71.7953C112.347 72.1631 112.553 72.3396 112.347 71.7953C112.142 71.2511 112.113 71.104 112.025 70.751C112.012 70.6058 111.983 70.4626 111.937 70.3244L112.025 70.8981C112.025 70.5009 112.025 70.6627 111.922 71.3835C112.155 70.4462 112.021 69.4547 111.546 68.6142C111.071 67.7737 110.292 67.1484 109.37 66.8678C107.611 66.4706 105.162 67.3973 104.854 69.4271C104.208 73.6781 106.789 77.9732 110.03 80.4884C112.167 82.1102 114.823 82.8899 117.495 82.6801C119.999 82.5956 122.489 82.2656 124.93 81.6945C127.208 80.9959 129.172 79.5243 130.487 77.5319C131.228 76.5159 131.735 75.3476 131.971 74.1114C132.206 72.8751 132.166 71.6017 131.851 70.3832C131.698 69.181 131.296 68.024 130.673 66.9857C130.049 65.9475 129.217 65.0508 128.229 64.3525C126.257 63.3667 124.031 63.0075 121.85 63.3229C119.311 63.4569 116.808 63.9828 114.43 64.882C113.286 65.3086 112.171 65.794 111.042 66.2353C110.5 66.4412 109.942 66.6324 109.414 66.853L108.857 67.0737L108.27 67.2796C108.769 67.2796 108.813 67.2796 108.388 67.2796C107.418 67.2873 106.49 67.6772 105.804 68.3652C105.118 69.0531 104.729 69.984 104.722 70.9569C104.748 71.924 105.142 72.8443 105.824 73.5284C106.506 74.2124 107.424 74.6082 108.388 74.6342L108.417 74.5901Z" fill="#004D2B"/>
</g>
<defs>
<clipPath id="clip0_44_402">
<rect width="251" height="200" fill="white" transform="translate(0.5 0.00012207)"/>
</clipPath>
</defs>
</svg>
