<svg width="264" height="213" viewBox="0 0 264 213" fill="none" xmlns="http://www.w3.org/2000/svg">
<g clip-path="url(#clip0_44_331)">
<path d="M14.5852 133.684V133.577L15.3504 135.415C15.2402 135.133 15.1582 134.84 15.1056 134.542L15.381 136.563C15.3428 136.274 15.3428 135.98 15.381 135.69L15.1056 137.727C15.1554 137.357 15.2585 136.996 15.4116 136.655L14.6311 138.493C14.8484 138.022 15.1151 137.575 15.4269 137.161L14.2332 138.692C14.9229 137.828 15.72 137.056 16.6053 136.395L15.0749 137.589C16.9073 136.212 18.908 135.075 21.0283 134.205L19.1918 134.971C19.8193 134.71 20.4468 134.465 21.0896 134.266L11.4019 126.884L12.4579 123.01L13.6516 121.478L15.1821 120.284C15.0468 120.365 14.9031 120.432 14.7535 120.483L16.5901 119.717C15.58 120.146 14.5393 120.498 13.5292 120.881C12.5191 121.264 11.4937 121.677 10.4683 122.137L10.1163 122.305L8.58589 123.515C8.31041 123.775 9.12153 122.795 7.9584 124.311C7.48581 124.78 7.14758 125.367 6.97895 126.011C6.63315 126.596 6.44832 127.262 6.44329 127.941L6.30555 128.967C6.38919 130.98 7.18683 132.896 8.55529 134.373C9.99029 135.809 11.9363 136.615 13.9654 136.615C15.9945 136.615 17.9404 135.809 19.3754 134.373L20.5692 132.842C21.2514 131.67 21.6106 130.338 21.6099 128.982L20.5692 132.842L19.3602 134.373L17.8297 135.583C17.9591 135.497 18.0977 135.425 18.2429 135.369L16.4217 136.15C17.4318 135.721 18.4572 135.369 19.4826 134.986C20.508 134.603 21.5181 134.174 22.5434 133.73L22.8955 133.562L24.4259 132.352C24.6861 132.091 23.8749 133.072 25.0534 131.555C25.8711 130.5 26.3987 129.248 26.5838 127.926C26.5838 127.589 26.6909 127.237 26.7215 126.9C26.7222 125.544 26.3631 124.212 25.6809 123.04C24.6105 121.364 22.9854 120.117 21.0896 119.518C19.7575 119.15 18.3507 119.15 17.0186 119.518C15.4191 120.051 13.8549 120.686 12.3355 121.417C9.42032 122.769 6.7431 124.584 4.40778 126.792C3.58363 127.637 2.83112 128.549 2.15804 129.518C1.52264 130.472 1.00853 131.501 0.627607 132.581C0.529955 132.831 0.44821 133.087 0.382779 133.347C0.181938 134.243 0.0640892 135.156 0.0307617 136.073C0.0555588 136.986 0.173521 137.895 0.382779 138.784C0.62594 139.671 0.964581 140.528 1.39282 141.342C1.86123 142.214 2.53981 142.957 3.3671 143.501C4.57947 144.399 6.02261 144.932 7.52713 145.038C9.03164 145.143 10.5351 144.818 11.861 144.098C13.59 143.087 14.8537 141.437 15.381 139.504L15.6565 137.467C15.6572 136.111 15.2981 134.779 14.6158 133.608L14.5852 133.684Z" fill="#8CA54F"/>
<path d="M108.875 8.40799C106.105 8.40799 103.136 8.08637 100.381 8.40799C95.9886 8.8368 91.4432 10.5061 87.1121 11.471C84.4161 11.8334 81.7509 12.3965 79.1385 13.1556C75.6645 14.4267 72.4812 16.3105 69.053 17.7501C64.4617 19.6338 61.3243 23.2022 56.9319 25.6679C51.194 29.0194 45.692 32.7599 40.4644 36.8631C35.567 40.5846 32.093 46.8638 28.6495 51.9789C23.8977 59.5924 20.7713 68.1073 19.4669 76.9882C18.6252 82.4557 18.6558 88.1069 17.5691 93.4824C16.2385 100.092 16.5433 106.927 18.4568 113.392C19.574 116.945 20.6147 120.712 21.9615 124.112C24.192 130.14 26.8516 136 29.9198 141.648C31.7869 145.017 34.6029 147.881 36.8679 150.975C41.1888 156.715 46.4208 161.707 52.3559 165.754C54.3001 167.167 56.318 168.475 58.4011 169.674C61.1865 171.037 63.6505 171.512 66.4053 173.365C69.6588 175.351 73.0857 177.038 76.6439 178.404C80.5553 180.335 84.6591 181.85 88.8874 182.922C92.2238 183.657 95.606 184.223 98.9424 185.096C106.166 186.98 116.588 187.884 123.827 185.571C128.378 184.269 133.024 183.332 137.724 182.768C142.172 182.083 146.412 180.414 150.135 177.883C156.15 173.932 162.103 170.899 167.23 165.738C171.757 161.557 175.677 156.763 178.877 151.495C181.095 147.478 182.999 143.295 184.57 138.983C188.476 128.964 191.833 118.739 194.625 108.353C195.803 104.098 196.698 99.7701 197.303 95.3968C197.24 93.5107 197.306 91.6225 197.502 89.7456C198.168 87.1032 198.476 84.3836 198.421 81.6593C198.421 77.5396 198.497 73.4045 198.421 69.2848C198.143 65.342 197.445 61.4401 196.339 57.6455C195.503 53.4974 193.832 49.5632 191.427 46.0827C189.896 43.9999 188.289 41.963 186.713 39.9567C184.677 37.3072 182.581 36.0361 180.163 33.8308C172.893 27.0309 166.618 18.5158 158.109 13.1709C153.62 10.6259 148.973 8.36999 144.197 6.41704C142.695 5.54449 141.016 5.02108 139.285 4.88555C137.405 5.01687 135.516 4.93984 133.653 4.65583C129.974 3.57793 126.058 3.62057 122.404 4.77834C118.44 5.8657 112.579 5.49814 109.625 8.71428" fill="#F3BC61"/>
<path d="M108.875 4.51807C106.273 4.51807 103.672 4.2424 101.085 4.41086C98.3719 4.62285 95.686 5.09988 93.0656 5.83515C90.5251 6.47838 87.9999 7.24413 85.4135 7.74952C82.9445 8.07245 80.5039 8.58445 78.1132 9.28101C75.7524 10.1727 73.443 11.1953 71.1957 12.344C68.9 13.4467 66.4514 14.3196 64.2628 15.6367C62.5199 16.756 60.8342 17.9623 59.2124 19.251C57.0575 20.8061 54.8198 22.2427 52.5091 23.5545C48.179 26.2304 43.9902 29.1288 39.9595 32.2381C36.2303 35.0215 32.979 38.3941 30.3331 42.2234C24.8134 49.6361 20.5669 57.9175 17.7682 66.7273C16.421 71.4152 15.5192 76.2199 15.0746 81.0774C14.8451 83.4818 14.6921 85.9016 14.4319 88.2907C14.1411 91.0627 13.4983 93.7581 13.1769 96.5148C12.0291 106.546 14.891 116.317 18.4875 125.613C20.3547 130.437 22.3136 135.231 24.6093 139.856C26.9747 144.212 29.7743 148.316 32.9654 152.108C35.698 155.753 38.7175 159.174 41.995 162.338C45.4771 165.46 49.1915 168.311 53.1059 170.869C56.932 173.518 61.3856 174.743 65.3494 177.194C69.5552 179.544 73.9229 181.591 78.4193 183.32C83.0861 185.267 87.9436 186.719 92.9126 187.654C97.6263 188.619 102.218 189.859 107.008 190.395C111.659 190.962 116.366 190.885 120.996 190.166C123 189.756 124.982 189.245 126.934 188.634C129.673 187.937 132.447 187.385 135.244 186.98C140.03 186.443 144.688 185.091 149.018 182.983C153.13 180.709 157.124 178.23 160.986 175.555C169.286 170.146 176.301 162.985 181.54 154.574C187.065 145.385 190.34 134.833 193.784 124.771C195.436 119.901 196.967 115 198.206 110.007C199.446 105.015 201.053 99.7922 201.267 94.6005C201.267 93.36 201.099 92.1195 201.267 90.8943C201.436 89.6691 201.742 88.7042 201.91 87.6015C202.241 85.1246 202.39 82.6266 202.354 80.1279C202.612 74.762 202.433 69.3839 201.818 64.0472C201.084 59.1075 199.758 54.2741 197.87 49.6512C195.88 45.0567 192.59 41.1054 189.468 37.1848C186.835 33.8462 183.224 31.3804 180.285 28.3634C177.01 25.0554 173.934 21.5483 170.628 18.2709C167.295 14.8597 163.565 11.862 159.517 9.34227C154.981 6.86349 150.305 4.64934 145.514 2.71091C143.558 1.73027 141.434 1.13248 139.254 0.949687C137.861 0.949687 136.408 1.1641 135.015 0.949687C133.622 0.735278 132.291 0.306458 130.883 0.122679C126.291 -0.459288 122.159 0.99563 117.721 1.65417C113.772 2.23614 109.809 2.95595 106.901 5.91173C103.427 9.40353 108.829 14.825 112.303 11.3179C114.461 9.15849 118.609 9.28102 121.486 8.76031C123.338 8.43869 125.144 7.78015 127.026 7.64231C129.132 7.62012 131.232 7.87761 133.27 8.40806C135.489 8.80625 137.861 8.27023 139.989 8.74499C142.11 9.4036 144.16 10.2706 146.111 11.3332C150.357 13.0578 154.418 15.2077 158.232 17.7502C165.18 22.6816 170.475 29.6958 176.52 35.5767C177.974 36.9704 179.581 38.2262 181.112 39.5586C182.809 41.1788 184.346 42.9584 185.703 44.8729C188.446 48.1175 190.559 51.847 191.932 55.869C193.413 60.1879 194.318 64.6832 194.625 69.239C194.748 74.1091 194.809 79.0864 194.625 83.9413C194.433 85.7781 194.142 87.6032 193.753 89.4087C193.34 91.9357 193.753 94.4933 193.324 97.0662C192.418 101.822 191.274 106.53 189.896 111.171C187.157 120.826 183.924 130.334 180.209 139.657C178.545 144.127 176.395 148.4 173.796 152.399C171.261 155.972 168.385 159.29 165.21 162.308C162.08 165.38 158.609 168.082 154.865 170.363C151.214 172.933 147.377 175.226 143.386 177.225C139.269 179.001 134.755 179.307 130.393 180.073C126.031 180.839 122.113 182.478 117.874 182.906C109.074 183.795 100.901 181.497 92.3769 179.751C88.0628 178.841 83.8602 177.465 79.8426 175.647C77.7766 174.728 75.6799 173.886 73.6291 172.952C71.3334 171.91 69.298 170.547 67.1247 169.322C65.2657 168.391 63.3546 167.568 61.4009 166.856C59.4432 165.945 57.5863 164.831 55.8608 163.533C52.3513 161.179 49.0489 158.53 45.9894 155.615C43.1281 152.642 40.4451 149.502 37.9547 146.212C35.0625 142.683 32.592 138.828 30.5933 134.726C28.619 130.652 26.9049 126.456 25.3286 122.229C23.5406 117.686 22.1278 113.004 21.1046 108.231C20.3116 104.045 20.2598 99.7532 20.9515 95.55C21.7932 90.4808 22.2524 85.4421 22.7727 80.3423C23.5909 71.8706 26.1603 63.6616 30.3178 56.2366C32.3074 52.7754 34.6183 49.3755 36.914 46.1134C39.3664 42.7249 42.3664 39.7694 45.7905 37.3686C49.5688 34.5127 53.5031 31.8693 57.5748 29.4508C61.4315 27.1995 64.7525 24.1365 68.6399 21.9465C70.5835 20.8438 72.7108 20.078 74.7616 19.1132C76.7383 18.0847 78.7838 17.1943 80.8833 16.4484C83.0684 15.8742 85.2866 15.4344 87.5254 15.1313C90.1118 14.6412 92.6371 13.8602 95.1776 13.2169C97.3517 12.5795 99.5895 12.1841 101.85 12.0377C104.222 11.9458 106.579 12.1602 108.951 12.1755C113.879 12.1755 113.879 4.51807 108.951 4.51807H108.875Z" fill="#004D2B"/>
<path d="M151.299 28.103C151.126 28.08 150.951 28.08 150.778 28.103C150.287 28.1294 149.8 28.2064 149.324 28.3327C148.886 28.4783 148.46 28.6628 148.054 28.884L147.901 28.9912C147.61 29.1903 147.335 29.4201 147.059 29.6345H146.983C146.672 29.9516 146.395 30.3007 146.157 30.6759C146.081 30.7687 146.019 30.8718 145.973 30.9822C145.769 31.366 145.61 31.7719 145.498 32.1921C145.388 32.6172 145.331 33.0545 145.33 33.4938C145.33 34.3488 145.569 35.1868 146.019 35.9136C146.403 36.536 146.927 37.0603 147.549 37.4451C147.919 37.6707 148.322 37.8361 148.743 37.9352C149.188 38.0481 149.646 38.0996 150.105 38.0883C150.591 38.0695 151.073 37.9976 151.544 37.8739H151.804L152.737 37.4757C153.309 37.1332 153.788 36.6545 154.13 36.0821L154.222 35.8983C154.413 35.5192 154.572 35.1247 154.696 34.719C154.807 34.2939 154.863 33.8565 154.865 33.4173C154.862 32.559 154.641 31.7156 154.222 30.9669C154.227 30.9211 154.227 30.8748 154.222 30.829C154.015 30.5252 153.79 30.2337 153.549 29.9561C153.489 29.869 153.417 29.7915 153.334 29.7264C153.015 29.4445 152.677 29.1836 152.324 28.9453L152.018 28.7768C151.53 28.5127 151.018 28.2972 150.488 28.1336L149.462 35.6532L150.227 35.7451C150.757 35.7814 151.287 35.6701 151.758 35.4235C152.23 35.263 152.655 34.9896 152.998 34.6271C153.673 33.8809 154.068 32.9224 154.115 31.9164L153.977 30.9056C153.801 30.2689 153.464 29.6886 152.998 29.221L152.217 28.6084C151.631 28.269 150.966 28.0895 150.289 28.0877L149.523 27.9958C148.992 27.9642 148.462 28.0809 147.993 28.3327C147.517 28.4841 147.089 28.7588 146.753 29.1291L146.157 29.8948C145.884 30.3214 145.731 30.8132 145.713 31.3191C145.621 31.655 145.621 32.0093 145.713 32.3452C145.728 32.8468 145.882 33.3344 146.157 33.7542L146.753 34.5352C147.226 35.0024 147.811 35.34 148.452 35.5154L148.957 35.6839L148.039 35.301C148.263 35.3969 148.473 35.5204 148.666 35.6686L147.886 35.0713C148.012 35.1624 148.126 35.2706 148.223 35.3929L147.626 34.6118C147.691 34.7034 147.747 34.8008 147.794 34.9028L147.396 33.9839C147.419 34.0796 147.419 34.1792 147.396 34.2749L147.274 33.2488C147.281 33.3559 147.281 33.4633 147.274 33.5704L147.411 32.5443C147.397 32.6754 147.367 32.804 147.32 32.9272L147.702 32.0083C147.667 32.0879 147.627 32.1647 147.58 32.238L149.875 30.4768C149.683 30.5493 149.482 30.6007 149.279 30.6299L150.289 30.4921C150.167 30.5069 150.043 30.5069 149.921 30.4921L150.931 30.6299H150.687L151.59 31.0128C151.531 30.9973 151.478 30.9654 151.436 30.9209L152.202 31.5182C152.154 31.4855 152.112 31.4439 152.079 31.3957L152.676 32.1767C152.634 32.1277 152.603 32.0703 152.584 32.0083L152.967 32.9272C152.953 32.8512 152.953 32.7734 152.967 32.6975L153.105 33.7082C153.089 33.6067 153.089 33.5035 153.105 33.4019L152.967 34.428C152.983 34.3074 153.014 34.1891 153.059 34.0758L152.676 34.9947C152.73 34.8628 152.802 34.7391 152.89 34.6271L152.294 35.4082C152.384 35.2856 152.492 35.1772 152.615 35.0866L151.834 35.6839C151.965 35.59 152.103 35.508 152.248 35.4388L151.329 35.837C151.505 35.7609 151.691 35.7093 151.88 35.6839L150.855 35.8217C151.038 35.7988 151.223 35.7988 151.406 35.8217C151.936 35.8579 152.466 35.7466 152.936 35.5001C153.408 35.3396 153.834 35.0662 154.176 34.7037C154.852 33.9575 155.247 32.999 155.293 31.993L155.155 30.9822C154.98 30.3455 154.642 29.7651 154.176 29.2975L153.395 28.6849C152.809 28.3456 152.144 28.1661 151.467 28.1642L151.299 28.103Z" fill="#004D2B"/>
<path d="M127.73 47.553C132.658 47.553 132.658 39.8955 127.73 39.8955C122.802 39.8955 122.802 47.553 127.73 47.553Z" fill="#004D2B"/>
<path d="M60.988 115.429C63.6663 116.853 66.0231 118.721 68.7779 120.023C71.8388 121.432 74.8997 122.642 78.0524 123.898C81.2051 125.154 83.6997 126.67 86.684 127.635C89.9877 128.547 93.3534 129.218 96.7543 129.641C99.8152 130.146 102.708 130.989 105.753 131.172C109.166 131.448 112.686 131.172 116.114 131.172C119.542 131.172 123.047 131.31 126.506 131.172C129.705 131.081 132.781 129.963 135.979 129.947C140.907 129.947 140.907 122.29 135.979 122.29C132.918 122.29 129.949 123.377 126.873 123.5C123.797 123.622 120.445 123.5 117.247 123.5C113.742 123.5 110.222 123.622 106.717 123.5C104.047 123.216 101.399 122.755 98.7898 122.121C95.6298 121.704 92.4972 121.101 89.4082 120.314C86.5615 119.28 83.7722 118.094 81.052 116.761C78.2513 115.613 75.4047 114.54 72.65 113.269C69.8952 111.998 67.523 110.114 64.8447 108.675C60.4983 106.378 56.6263 112.978 60.988 115.276V115.429Z" fill="#004D2B"/>
<path d="M196.906 100.68C198.803 102.717 201.772 103.468 204.405 104.08C207.466 104.785 210.526 105.612 213.694 105.979C221.852 107.128 230.3 106.515 238.503 106.515C243.431 106.515 243.431 98.858 238.503 98.858H227.025C223.365 98.9883 219.702 98.9116 216.051 98.6283C213.248 98.2305 210.468 97.6784 207.726 96.9742C206.593 96.7292 205.445 96.4842 204.313 96.1472C203.596 95.9991 202.918 95.7017 202.323 95.2743C198.956 91.66 193.554 97.0814 196.906 100.68Z" fill="#004D2B"/>
<path d="M250.288 91.7825C247.227 91.7825 243.676 91.6293 240.967 93.4211C239.235 94.577 237.924 96.2646 237.233 98.23C236.452 100.195 235.938 102.255 235.702 104.356C235.289 108.705 238.059 112.013 241.824 113.79C244.812 115.288 248.049 116.228 251.374 116.562C253.168 116.726 254.976 116.468 256.653 115.809C258.329 115.149 259.829 114.107 261.031 112.764C262.263 111.296 263.155 109.574 263.645 107.72C264.134 105.867 264.208 103.929 263.862 102.043C263.228 98.7014 261.57 95.6398 259.118 93.2833C257.92 91.915 256.457 90.8028 254.819 90.0133C253.181 89.2238 251.4 88.7734 249.584 88.6888C242.635 88.9033 239.161 96.2697 238.442 102.273C238.032 105.094 238.57 107.971 239.972 110.451C240.801 111.868 241.999 113.031 243.439 113.817C244.88 114.602 246.506 114.979 248.145 114.908C249.811 114.672 251.388 114.014 252.728 112.995C254.067 111.976 255.124 110.631 255.797 109.088C257.178 106.473 257.908 103.562 257.924 100.604C257.848 96.4995 255.047 92.3951 250.793 91.8284C249.626 91.6643 248.438 91.7831 247.327 92.1749C246.216 92.5667 245.216 93.22 244.411 94.0797C243.467 95.1513 242.805 96.4406 242.482 97.8319C241.671 100.895 241.549 104.739 243.844 107.235C244.565 107.972 245.475 108.496 246.474 108.75C247.473 109.004 248.522 108.978 249.507 108.675C250.378 108.382 251.176 107.906 251.849 107.28C252.522 106.655 253.054 105.893 253.41 105.045C254.833 101.86 255.17 97.7246 252.598 94.9986C251.801 94.1165 250.729 93.5305 249.556 93.3359C248.383 93.1412 247.179 93.3494 246.14 93.9265C244.726 94.7744 243.613 96.0436 242.957 97.5562C242.09 99.3813 241.786 101.423 242.084 103.422C242.329 105.198 244.242 106.056 245.773 106.224C249.553 106.684 252.445 102.809 252.308 99.3327C252.324 98.728 252.221 98.1261 252.004 97.5615C251.787 96.9968 251.461 96.4805 251.045 96.0423C250.628 95.604 250.129 95.2524 249.576 95.0076C249.023 94.7628 248.428 94.6296 247.824 94.6157C245.329 94.6157 243.722 96.4842 242.375 98.3679C241.868 99.2461 241.728 100.29 241.986 101.271C242.244 102.252 242.879 103.091 243.753 103.606C244.633 104.095 245.668 104.227 246.642 103.973C247.617 103.719 248.456 103.099 248.987 102.243C249.43 101.599 248.436 102.825 249.14 102.059L249.522 101.661C249.951 101.186 248.742 102.197 249.216 101.921C249.691 101.645 249.339 101.829 248.589 102.166C248.956 102.074 248.711 102.166 247.824 102.273C246.963 102.253 246.139 101.915 245.513 101.324C245.126 100.958 244.85 100.491 244.717 99.9759C244.946 100.604 244.717 98.9192 244.717 99.4246C244.701 99.5364 244.701 99.6497 244.717 99.7615C244.717 100.144 244.946 98.8273 244.717 99.2102C244.667 99.3452 244.626 99.4833 244.594 99.6237C244.594 99.8534 245.145 98.6282 244.747 99.2408C244.747 99.3327 244.579 99.4706 244.533 99.5624C244.9 98.7661 245.115 98.8579 244.747 99.2102C244.38 99.5624 245.712 98.567 245.053 98.9345C245.956 98.4291 245.865 98.6129 245.467 98.7048C246.66 98.4291 246.232 98.7048 245.773 98.567L249.461 101.385V101.722C249.461 102.12 249.461 102.166 249.461 101.875C249.461 101.584 249.461 101.661 249.461 101.584C249.461 101.507 249.461 102.074 249.385 102.12C249.308 102.166 249.385 101.829 249.461 101.722C249.538 101.615 249.568 101.308 249.629 101.109C249.69 100.98 249.741 100.847 249.782 100.711C249.782 100.849 249.4 101.477 249.645 101.033L250.012 100.405C250.077 100.329 250.133 100.247 250.18 100.16L249.997 100.405C249.782 100.68 249.782 100.711 249.997 100.497C249.997 100.497 250.15 100.359 250.18 100.313C250.211 100.267 249.767 100.634 249.752 100.65C250.211 100.374 249.247 100.834 249.247 100.834C249.737 100.696 248.65 100.834 248.65 100.834C248.65 100.834 247.533 100.619 248.068 100.834C247.751 100.732 247.452 100.583 247.181 100.389C246.722 100.098 246.951 100.206 247.074 100.389C246.446 99.7156 246.737 99.9147 246.875 100.16C247.242 100.849 246.722 99.394 246.768 99.8534C246.788 99.9518 246.813 100.049 246.844 100.144C247.012 100.573 246.844 99.685 246.844 99.6084C246.844 99.9913 246.844 100.497 246.844 100.895C246.844 101.538 247.028 100.007 246.844 100.65C246.844 100.91 246.737 101.171 246.66 101.431C246.584 101.691 246.308 102.365 246.66 101.707C247.012 101.048 246.66 101.707 246.523 101.906C246.466 101.979 246.415 102.055 246.37 102.135C246.247 102.442 246.722 101.691 246.706 101.707C246.155 102.334 247.242 101.385 246.875 101.615C246.507 101.844 247.38 101.4 247.364 101.4C247.349 101.4 246.89 101.492 247.579 101.4C248.267 101.308 247.946 101.4 247.762 101.4C248.558 101.4 248.65 101.553 248.313 101.4C247.977 101.247 249.232 101.798 248.895 101.63C248.558 101.461 249.629 102.273 249.339 101.967C249.339 101.967 249.89 102.825 249.568 102.197C250.104 103.253 249.798 102.779 249.706 102.411C249.699 102.329 249.699 102.248 249.706 102.166C249.538 101.63 249.798 102.579 249.706 102.641C249.844 102.457 249.706 101.538 249.706 101.262C249.706 100.987 249.813 100.236 249.706 100.971C249.599 101.707 249.706 100.864 249.706 100.696C249.79 100.271 249.897 99.8522 250.027 99.4399C250.027 99.2868 250.364 98.5823 250.027 99.3021C249.691 100.022 250.027 99.4246 250.027 99.3021C250.333 98.6436 249.323 100.007 249.782 99.6237L250.089 99.3174C250.089 99.4246 249.293 99.685 250.089 99.3174C250.333 99.2255 249.323 99.5471 250.089 99.3174C250.578 99.1949 249.247 99.4552 249.737 99.3174C249.813 99.3174 249.981 99.3174 250.058 99.3174C250.134 99.3174 249.155 99.3174 249.584 99.3174C249.721 99.3174 250.242 99.5624 249.66 99.3174C248.834 98.9652 250.548 99.8228 249.798 99.4093C249.308 99.1489 249.798 99.5624 250.012 99.6696C250.226 99.7768 249.66 99.0417 249.859 99.4552C249.92 99.5658 249.986 99.6732 250.058 99.7769C250.143 99.9152 250.219 100.058 250.288 100.206C250.211 100.206 250.073 99.4399 250.134 99.8687C250.156 99.995 250.192 100.118 250.242 100.236C250.471 100.818 250.242 99.8381 250.242 100.037C250.242 100.236 250.242 100.726 250.242 101.079V101.707C250.242 102.518 250.41 100.772 250.242 101.63C250.078 102.587 249.837 103.529 249.522 104.448C249.417 104.672 249.325 104.902 249.247 105.137C249.247 105.137 249.614 104.371 249.43 104.708C249.247 105.045 249.339 104.907 249.293 104.999C249.071 105.472 248.815 105.927 248.528 106.362C248.313 106.684 247.854 107.006 248.528 106.362C248.39 106.5 248.283 106.669 248.145 106.806C247.981 106.948 247.827 107.101 247.686 107.266C247.502 107.526 248.068 106.96 248.099 106.96C247.97 107.03 247.847 107.112 247.732 107.205L247.502 107.342C247.196 107.542 247.104 107.235 247.931 107.174C247.763 107.209 247.599 107.26 247.441 107.327C246.997 107.511 248.39 107.327 247.67 107.327H247.395C246.813 107.327 248.053 107.496 247.762 107.327C247.549 107.228 247.322 107.161 247.089 107.128C247.41 107.128 247.854 107.526 247.288 107.128C247.117 106.996 246.932 106.883 246.737 106.791C246.446 106.669 247.135 107.082 247.15 107.113C247.165 107.143 246.905 106.898 246.813 106.822C246.688 106.658 246.55 106.505 246.4 106.362C246.676 106.546 246.905 107.113 246.584 106.561L246.293 106.025C245.91 105.351 246.538 106.852 246.293 106.102C246.186 105.719 246.079 105.336 245.987 104.938C246.001 104.811 246.001 104.682 245.987 104.555C245.987 104.555 245.987 105.489 245.987 105.091C245.987 104.693 245.987 104.57 245.987 104.31C245.964 103.871 245.964 103.432 245.987 102.993C245.987 102.855 246.109 101.967 245.987 102.687C245.865 103.406 245.987 102.457 246.079 102.273C246.267 101.324 246.533 100.391 246.875 99.4859C247.15 98.7048 246.569 100.129 246.875 99.4859C246.982 99.2715 247.074 99.057 247.181 98.858C247.381 98.4516 247.606 98.0578 247.854 97.6787C247.961 97.4949 248.099 97.3111 248.221 97.1274C248.543 96.622 247.563 97.8778 248.114 97.2805C248.39 96.9895 248.65 96.7139 248.941 96.4382C249.476 95.9175 248.267 96.8364 248.711 96.5914L249.446 96.1778C249.767 95.9634 249.094 96.3616 249.063 96.3463L249.492 96.2085H249.828C250.18 96.0706 249.109 96.2085 249.461 96.2085C249.72 96.2389 249.982 96.2389 250.242 96.2085C250.242 96.2085 249.415 96.0247 249.782 96.2085C249.92 96.2085 250.089 96.2085 250.226 96.3004C250.491 96.3658 250.752 96.4477 251.007 96.5454C251.145 96.5454 251.497 96.6373 251.007 96.5454C250.517 96.4535 251.007 96.5454 251.099 96.5454C251.588 96.8211 252.063 97.1886 252.629 97.449C253.195 97.7093 252.338 97.2193 252.369 97.2346C252.511 97.3294 252.644 97.4371 252.767 97.5562L253.425 98.1535C253.853 98.567 254.251 99.0111 254.649 99.4706C255.047 99.93 254.374 99.0417 254.741 99.5778L255.292 100.374C255.552 100.803 255.782 101.232 256.011 101.676C256.409 102.442 255.766 100.941 256.011 101.676C256.118 102.013 256.226 102.334 256.317 102.671C256.409 103.008 256.425 103.161 256.486 103.406C256.639 104.08 256.486 102.61 256.486 103.406C256.486 103.697 256.486 103.973 256.486 104.264C256.448 104.58 256.448 104.898 256.486 105.214C256.486 105.214 256.654 104.387 256.486 104.77C256.486 104.877 256.486 104.999 256.486 105.106C256.434 105.37 256.367 105.631 256.287 105.887C256.287 105.995 256.287 106.102 256.18 106.209C256.011 106.806 256.256 105.995 256.317 105.918C256.162 106.174 256.023 106.44 255.904 106.715C255.797 106.914 255.675 107.097 255.552 107.281C255.231 107.787 256.118 106.699 255.552 107.281L255.017 107.817C254.909 107.924 254.603 108.093 255.017 107.817L254.864 107.909L254.282 108.261C254.141 108.309 254.007 108.376 253.884 108.46C253.884 108.46 254.619 108.231 254.251 108.292C253.982 108.354 253.717 108.431 253.456 108.522L253.104 108.614C252.445 108.751 252.981 108.522 253.257 108.614C252.701 108.568 252.143 108.568 251.588 108.614H251.328C250.747 108.614 251.757 108.614 251.772 108.69C251.512 108.614 251.221 108.598 250.946 108.537C249.825 108.317 248.72 108.02 247.64 107.649L246.905 107.388C246.798 107.388 245.834 106.975 246.4 107.205C246.967 107.434 246.048 107.036 245.926 106.975C245.622 106.837 245.326 106.684 245.038 106.515L244.334 106.087C244.196 106.087 243.584 105.551 244.074 105.949C244.564 106.347 243.952 105.811 243.829 105.704C243.767 105.634 243.7 105.567 243.63 105.505C243.125 105.015 243.844 105.642 243.829 105.78C243.754 105.622 243.662 105.473 243.554 105.336C243.248 104.938 243.63 105.842 243.554 105.336C243.554 105.336 243.401 104.923 243.446 104.877C243.492 104.831 243.446 105.642 243.446 105.137C243.401 104.781 243.401 104.421 243.446 104.065C243.446 104.157 243.278 104.907 243.446 104.157C243.446 103.958 243.538 103.743 243.6 103.544C243.768 102.855 243.982 102.197 244.166 101.523C244.258 101.201 244.365 100.864 244.457 100.527C244.625 99.93 244.457 100.772 244.349 100.711L244.564 100.282C244.656 100.129 245.176 99.4093 244.763 99.9147C244.349 100.42 244.916 99.7922 245.008 99.685C245.421 99.2408 244.334 100.083 244.87 99.7922C245.102 99.6848 245.327 99.562 245.543 99.4246C245.543 99.4246 244.747 99.685 245.099 99.6237L245.482 99.5012C245.712 99.4238 245.947 99.3624 246.186 99.3174C246.288 99.3248 246.39 99.3248 246.492 99.3174C246.875 99.2102 246.002 99.3174 246.018 99.3174C246.293 99.3174 246.614 99.3174 246.905 99.2408C248.038 99.2408 249.186 99.2408 250.318 99.2408C251.33 99.2328 252.299 98.8269 253.015 98.1106C253.731 97.3943 254.136 96.4251 254.144 95.4121C254.125 94.4028 253.715 93.4403 253.002 92.7265C252.289 92.0126 251.327 91.603 250.318 91.5834L250.288 91.7825Z" fill="#004D2B"/>
<path d="M104.345 198.145C103.595 191.129 103.687 184.049 104.621 177.056C104.728 176.168 104.789 175.249 104.957 174.376C104.529 176.704 105.064 173.671 105.141 173.212C105.432 171.252 105.768 169.322 106.12 167.377C106.778 163.839 107.528 160.301 108.37 156.794C109.671 151.327 111.14 145.89 112.961 140.576C113.268 139.703 113.574 138.845 113.895 137.988C114.216 137.13 114.936 136.012 113.62 138.6C113.788 138.294 113.895 137.957 114.063 137.651C115.701 134.373 117.828 131.234 119.741 128.11C120.935 126.149 122.175 124.22 123.506 122.351C123.782 121.984 124.042 121.601 124.333 121.248C123.338 122.535 124.776 120.728 124.868 120.621C125.633 119.717 126.399 118.829 127.21 117.94C129.982 114.683 132.968 111.613 136.148 108.751C136.545 108.415 136.959 108.093 137.357 107.741C138.887 106.454 136.515 108.292 137.525 107.618C138.535 106.944 139.163 106.454 140.035 105.918C140.907 105.382 141.749 104.999 142.591 104.525C143.432 104.05 140.647 105.214 142.713 104.525C143.373 104.335 144.021 104.11 144.657 103.851C144.657 104.325 142.407 103.391 142.331 103.361C143.478 103.927 141.78 103.116 141.841 102.962L142.162 103.284C142.682 103.897 142.591 103.759 141.871 102.886C142.078 103.154 142.267 103.436 142.438 103.728C142.866 104.463 143.218 105.26 143.601 105.979C144.381 107.511 142.989 104.341 143.601 105.842L144.06 107.036C145.289 110.365 146.231 113.793 146.876 117.282C147.132 118.111 147.276 118.972 147.304 119.839C147.626 119.38 147.105 118.201 147.304 119.61L147.442 120.896C147.61 122.811 147.687 124.725 147.672 126.624C147.656 128.523 147.519 130.07 147.366 131.8C147.243 133.01 147.366 131.28 147.366 131.295C147.366 131.31 147.136 132.704 147.105 132.827C146.952 133.745 146.753 134.649 146.524 135.568C146.111 137.207 145.468 138.753 144.993 140.361C144.687 141.418 145.82 138.646 145.085 140.162C144.902 140.53 144.733 140.913 144.55 141.28C144.136 142.107 143.693 142.904 143.218 143.7C142.744 144.496 142.3 145.094 141.825 145.783C140.831 147.223 142.958 144.512 141.825 145.783L141.152 146.564C140.586 147.192 139.989 147.804 139.361 148.386C138.979 148.754 138.581 149.076 138.198 149.428C136.882 150.638 139.377 148.586 138.198 149.428C137.8 149.719 134.234 152.338 134.066 152.077L134.984 151.694C134.678 151.802 134.372 151.878 134.066 151.955C134.066 151.848 136.071 151.802 134.77 151.786C135.901 151.754 137 152.167 137.831 152.935L138.459 153.762C138.316 153.551 138.189 153.331 138.076 153.103C139.025 153.976 138.535 154.635 138.336 153.639C138.299 153.3 138.222 152.965 138.106 152.644C138.765 154.053 138.198 154.176 138.229 153.18C138.229 152.812 138.229 152.445 138.229 152.062C138.229 151.679 138.305 151.281 138.305 150.898C138.305 149.857 137.908 152.889 138.305 151.266C138.52 150.286 138.703 149.321 138.979 148.341C139.101 147.927 140.708 143.608 140.662 143.562C140.616 143.516 139.974 145.094 140.463 144.052C140.662 143.624 140.846 143.195 141.06 142.766C141.428 142 141.81 141.234 142.223 140.469C142.985 139.063 143.828 137.702 144.749 136.395C145.009 136.012 145.284 135.66 145.544 135.292C146.845 133.454 144.596 136.426 146.019 134.664C146.83 133.669 147.626 132.673 148.452 131.693C151.406 128.186 154.207 124.526 157.298 121.141C158.722 119.576 160.229 118.088 161.813 116.685C162.609 115.965 163.435 115.291 164.262 114.617C165.899 113.254 163.022 115.505 164.751 114.234L165.976 113.331C167.001 112.55 168.011 111.799 169.037 110.941C169.128 110.865 170.567 109.839 169.496 110.559C168.424 111.278 169.94 110.252 170.016 110.191C170.752 109.638 171.518 109.126 172.312 108.66C172.541 108.537 173.704 107.588 172.817 108.338C171.608 109.349 173.888 107.741 173.796 108.078C173.704 108.415 172.036 108.169 173.184 108.185C174.837 108.185 171.409 107.679 172.985 108.185C171.455 107.679 171.975 107.787 172.48 108.047C174.01 108.797 171.256 106.914 172.48 108.047C173.704 109.18 172.128 107.695 172.189 107.588C172.25 107.48 172.893 108.721 172.954 108.813C173.016 108.905 173.368 109.701 173.383 109.701C172.939 108.629 172.863 108.476 173.153 109.257C173.261 109.563 173.368 109.885 173.46 110.206C173.896 111.779 174.249 113.374 174.516 114.985C174.684 115.98 174.868 116.991 175.036 118.048C175.112 118.507 175.189 118.966 175.25 119.441C175.311 119.916 175.403 120.345 175.464 120.804C175.572 121.601 175.602 121.723 175.464 121.157C175.327 119.993 175.587 122.183 175.587 122.152C175.587 122.719 175.694 123.27 175.74 123.821C175.832 124.924 175.893 126.027 175.924 127.129C175.924 128.232 175.924 129.319 175.924 130.422C175.924 130.973 175.924 131.525 175.816 132.061C175.709 132.597 175.556 134.052 175.816 132.689C175.451 135.003 174.893 137.282 174.148 139.504C173.842 140.438 173.505 141.372 173.169 142.291L172.526 143.93C171.822 145.752 173.245 142.398 172.388 144.236C171.594 145.973 170.678 147.651 169.649 149.259C169.465 149.55 168.409 151.189 169.511 149.566C169.297 149.872 169.006 150.163 168.776 150.439C167.996 151.306 167.169 152.129 166.297 152.904C164.935 154.191 167.185 152.368 166.19 152.996L165.073 153.747C164.66 153.992 164.246 154.237 163.833 154.451L163.573 154.589C162.792 154.957 162.854 154.926 163.757 154.589C163.757 154.589 161.767 155.14 163.098 154.865H163.573C162.701 154.865 162.854 154.865 164.017 154.987C164.914 155.247 165.707 155.782 166.282 156.519C166.706 156.943 167.013 157.471 167.169 158.05C167.292 159.398 167.338 159.582 167.261 158.801C167.185 158.02 167.261 157.269 167.338 156.473C167.43 154.941 167.338 156.473 167.338 156.657C167.402 156.045 167.52 155.44 167.69 154.849C167.919 153.869 168.241 152.92 168.547 151.94C168.975 150.607 168.547 151.832 168.44 152.093C168.751 151.349 169.104 150.623 169.496 149.918C169.97 149.03 170.491 148.157 171.026 147.314C171.332 146.855 173.077 144.496 171.96 145.905C173.22 144.295 174.574 142.761 176.015 141.311C177.286 140.04 178.586 138.815 179.964 137.651C180.392 137.258 180.842 136.89 181.311 136.548C179.964 137.452 180.882 136.87 181.173 136.671C182.152 135.997 183.117 135.323 184.157 134.726C184.662 134.419 185.198 134.174 185.688 133.883C186.177 133.592 186.774 133.102 185.458 133.96C186.309 133.55 187.217 133.271 188.152 133.133C189.896 132.673 186.514 133.041 188.289 133.133H189.391C191.136 133.133 187.861 132.581 189.529 133.133L190.019 133.271C190.784 133.546 190.662 133.47 189.636 133.041C190.513 133.342 191.331 133.792 192.054 134.373C192.452 134.649 192.835 134.94 193.233 135.2C194.228 135.859 191.886 134.021 193.34 135.292C194.794 136.563 196.584 138.187 198.161 139.703C201.33 142.944 204.893 145.774 208.767 148.126C213.23 150.795 218.307 152.267 223.505 152.399C228.338 152.223 233.045 150.804 237.172 148.279C244.086 144.297 249.752 138.463 253.532 131.433C257.306 124.414 259.357 116.598 259.516 108.629C259.669 100.589 257.985 91.66 253.256 85.0133C250.429 80.9657 246.778 77.5627 242.543 75.028C238.214 72.6757 233.531 71.0462 228.678 70.2038C226.062 69.5601 223.382 69.2108 220.689 69.1624C217.955 69.2783 215.265 69.8852 212.746 70.9542C208.311 72.4924 204.282 75.0162 200.961 78.336C195.023 84.8755 192.054 93.4518 189.866 101.86C187.022 112.173 185.49 122.804 185.305 133.5C185.306 143.671 186.192 153.822 187.953 163.839C188.274 165.677 188.657 167.469 189.101 169.276C189.315 170.118 189.514 170.945 189.682 171.788L189.789 172.293C189.927 173.135 189.912 172.952 189.789 171.757C189.786 172.27 189.822 172.782 189.896 173.289C189.844 173.767 189.844 174.25 189.896 174.728C189.896 174.728 190.141 172.722 189.896 174.07C189.652 175.417 190.692 172.538 189.896 173.947C189.682 174.345 189.039 174.988 190.202 173.564C189.192 174.805 191.626 172.921 190.004 173.779C189.82 173.871 189.055 174.437 188.932 174.376L189.667 174.1C189.3 174.238 188.932 174.361 188.55 174.468C188.167 174.575 186.468 175.295 188.274 174.636C187.3 174.843 186.294 174.843 185.32 174.636L186.162 174.759L185.274 174.606C184.785 174.514 184.295 174.391 183.744 174.253C183.193 174.116 182.78 173.962 182.305 173.794C181.831 173.625 180.775 173.687 182.214 173.794C181.757 173.65 181.331 173.421 180.959 173.12L180.239 172.676C179.551 172.201 179.627 172.262 180.454 172.89C179.829 172.223 179.17 171.589 178.479 170.991C177.5 169.996 178.479 171.144 178.632 171.252C178.261 170.845 177.952 170.386 177.714 169.889C177.127 169.166 176.681 168.34 176.398 167.454C176.398 168.418 176.781 168.48 176.52 167.729C176.26 166.979 176.015 166.336 175.816 165.616C175.557 164.76 175.343 163.891 175.174 163.012C175.148 162.712 175.096 162.415 175.021 162.124C175.663 163.885 175.158 163.181 175.021 162.338C174.906 160.681 174.906 159.018 175.021 157.361C175.021 156.274 175.572 156.733 175.021 157.713C175.114 157.395 175.165 157.065 175.174 156.733C175.327 155.921 175.495 155.125 175.709 154.329C175.924 153.532 176.153 152.797 176.413 151.924C176.566 151.449 176.75 150.99 176.918 150.515C177.485 148.861 176.168 152.047 176.918 150.515C177.614 149.008 178.412 147.549 179.306 146.15C179.566 145.737 179.857 145.339 180.132 144.925C180.79 143.96 179.949 145.385 179.826 145.308C179.704 145.232 181.586 143.317 181.754 143.133C182.39 142.648 182.984 142.11 183.53 141.525C183.53 142 182.106 142.49 183.3 141.724L184.28 141.066C184.953 140.652 185.642 140.316 186.346 139.948C187.708 139.243 185.06 140.193 186.024 140.101C186.679 139.944 187.324 139.745 187.953 139.504C188.366 139.381 188.794 139.289 189.223 139.198C189.652 139.106 191.626 138.922 189.774 139.075C190.876 138.983 191.947 138.907 193.049 138.922C194.151 138.937 195.253 139.029 196.34 139.121C194.809 138.983 195.942 139.121 196.34 139.121C197.197 139.305 198.069 139.458 198.926 139.672C201.012 140.255 203.057 140.977 205.048 141.832C205.338 141.954 206.41 142.398 205.048 141.832L206.823 142.597C207.894 143.072 208.966 143.562 210.022 144.129C211.932 145.064 213.773 146.134 215.531 147.33C215.853 147.559 217.062 148.417 215.791 147.468C216.22 147.805 216.633 148.157 217.046 148.509C217.673 149.228 218.348 149.903 219.066 150.531C217.857 149.734 218.332 149.535 218.898 150.423C219.071 150.68 219.229 150.946 219.373 151.22C219.495 151.434 219.816 152.368 220.015 152.476C219.434 152.154 219.51 151.021 219.77 151.97C219.893 152.43 220.031 152.904 220.168 153.333C220.551 154.528 220.061 152.904 220.168 152.675C220.123 153.118 220.123 153.564 220.168 154.007C220.245 155.539 220.459 152.185 220.168 153.685C219.878 155.186 221.071 152.154 220.245 153.394C220.367 153.226 221.515 152.093 220.612 152.858C222.433 151.327 220.199 153.073 219.633 153.394C219.066 153.716 218.01 154.298 217.169 154.696C216.832 154.849 215.194 155.799 216.878 154.849C216.345 155.104 215.792 155.314 215.225 155.477C211.284 156.876 207.235 157.952 203.119 158.693L200.349 159.183L199.278 159.367C197.487 159.674 201.023 159.367 199.278 159.367C198.957 159.367 198.574 159.367 198.253 159.367C196.6 159.49 199.89 159.857 198.253 159.367L197.288 159.122L196.34 158.785C197.319 159.214 197.564 159.306 197.044 159.046C196.71 158.798 196.351 158.588 195.972 158.418C194.671 157.667 196.569 159.291 196.156 158.54C196.156 158.418 195.222 157.729 195.284 157.652C195.345 157.575 196.171 159.184 195.452 157.805C195.375 157.652 194.763 156.794 194.84 156.687C194.916 156.58 195.406 158.341 194.993 156.84C194.579 155.339 194.993 157.039 194.993 157.039C194.958 156.53 194.958 156.018 194.993 155.508C194.993 153.885 194.488 157.177 194.993 155.63C195.092 155.324 195.174 155.012 195.238 154.696C195.59 153.165 194.396 156.228 195.238 154.696C195.406 154.405 195.544 154.099 195.712 153.823C195.88 153.548 196.248 152.966 196.523 152.552C197.319 151.312 196.263 152.874 196.263 152.874C196.263 152.368 197.992 150.99 198.421 150.607C198.849 150.224 199.217 149.903 199.615 149.55C200.013 149.198 200.395 148.586 199.324 149.765C199.969 149.164 200.689 148.649 201.466 148.233C202.983 147.262 204.563 146.392 206.196 145.63C206.333 145.63 207.726 145.094 206.639 145.431C205.553 145.768 207.267 145.216 207.343 145.186C208.231 144.864 209.119 144.588 210.022 144.343C210.45 144.236 212.256 143.593 212.669 143.792L211.674 143.93H212.455C213.051 143.899 213.649 143.899 214.246 143.93H215.256C216.985 143.93 213.526 143.501 215.256 143.93C216.067 144.088 216.865 144.308 217.643 144.588C217.643 144.742 216.113 143.838 217.199 144.405C217.658 144.65 218.102 144.864 218.546 145.14C218.858 145.294 219.151 145.484 219.418 145.706C218.577 145.032 218.485 144.956 219.143 145.492C219.418 145.737 219.694 145.982 219.954 146.242C220.214 146.503 220.505 146.778 220.765 147.069C221.025 147.36 222.143 148.831 221.087 147.376C221.668 148.187 222.219 149.014 222.724 149.887C223.229 150.76 223.658 151.649 224.117 152.522C224.27 152.828 224.76 153.854 224.117 152.353C224.405 153.002 224.655 153.666 224.867 154.344C225.536 156.27 226.048 158.247 226.397 160.256C226.489 160.761 226.902 162.001 226.397 160.332C226.497 160.836 226.543 161.35 226.535 161.864C226.627 162.969 226.657 164.078 226.627 165.187C226.627 166.198 226.535 167.193 226.443 168.25C226.29 170.241 226.795 166.611 226.443 168.556C226.351 168.939 226.29 169.322 226.198 169.705C225.785 171.619 225.295 173.518 224.775 175.402C224.255 177.286 223.796 178.833 223.245 180.533C222.954 181.375 222.648 182.217 222.326 183.044C222.326 183.182 221.546 184.759 222.097 183.611C222.648 182.462 221.699 184.453 221.607 184.637C220.849 186.228 219.98 187.763 219.005 189.231C218.84 189.539 218.639 189.827 218.408 190.089L218.975 189.369C218.76 189.63 218.546 189.905 218.317 190.166C217.644 190.964 216.918 191.716 216.143 192.417L215.363 193.106C214.016 194.301 216.755 192.248 215.225 193.198C214.445 193.673 213.695 194.193 212.899 194.622L211.904 195.128C210.083 196.031 213.434 194.668 211.43 195.311C210.343 195.679 209.272 196.062 208.154 196.353C207.037 196.644 206.104 196.843 205.094 197.042C204.59 197.165 204.079 197.252 203.563 197.302C205.262 197.302 203.823 197.302 203.38 197.302C201.237 197.547 199.079 197.67 196.921 197.731C192.59 197.854 188.274 197.731 183.943 197.731C181.913 197.731 179.967 198.538 178.532 199.974C177.097 201.41 176.291 203.358 176.291 205.389C176.291 207.42 177.097 209.367 178.532 210.803C179.967 212.239 181.913 213.046 183.943 213.046C194.059 213.046 204.65 213.72 214.399 210.488C219.077 208.95 223.375 206.432 227.006 203.102C230.637 199.772 233.518 195.707 235.457 191.176C239.192 182.799 242.298 173.013 242.069 163.747C241.824 153.594 238.182 141.832 230.33 134.925C222.479 128.018 211.751 127.267 202.155 131.065C193.233 134.649 184.203 140.79 180.897 150.27C180.089 152.815 179.836 155.504 180.154 158.155C180.473 160.806 181.356 163.358 182.744 165.638C184.132 167.919 185.993 169.875 188.201 171.374C190.409 172.874 192.913 173.882 195.544 174.33C200.686 175.096 205.951 173.871 210.986 172.722C215.901 171.637 220.684 170.019 225.249 167.898C229.917 165.692 234.432 162.354 235.457 156.902C236.307 151.791 235.132 146.549 232.182 142.291C229.01 137.926 224.851 134.374 220.046 131.923C215.319 129.311 210.353 127.158 205.216 125.491C195.36 122.428 183.484 122.811 175.005 129.228C167.803 134.827 162.837 142.816 161.002 151.756C159.119 160.776 160.038 170.869 165.44 178.603C172.205 188.297 185.336 193.137 196.401 187.899C199.096 186.658 201.382 184.673 202.989 182.177C204.597 179.681 205.46 176.778 205.476 173.809C205.568 169.307 203.946 164.927 203.15 160.547C202.936 159.398 202.752 158.234 202.568 157.085C202.461 156.381 202.354 155.676 202.262 154.972C202.507 156.702 202.186 154.359 202.17 154.176C201.818 151.327 201.558 148.463 201.359 145.599C200.939 140.153 200.831 134.686 201.038 129.228C201.145 126.563 201.359 123.898 201.665 121.233C201.665 121.095 202.002 118.706 201.757 120.375C201.834 119.901 201.91 119.411 201.972 118.936C202.232 117.251 202.522 115.567 202.859 113.897C203.815 108.796 205.119 103.766 206.762 98.8427C207.037 98.031 207.343 97.2193 207.649 96.4076C208.308 94.677 206.915 97.9391 207.649 96.2545C207.894 95.7644 208.109 95.259 208.353 94.723C208.751 93.896 209.18 93.0843 209.639 92.3032C209.914 91.8284 210.205 91.3537 210.496 90.8942C210.787 90.4348 210.894 90.297 211.108 90.006C211.598 89.3321 211.521 89.4087 210.879 90.2663C211.352 89.5148 211.953 88.8514 212.654 88.306C212.868 88.1069 213.511 87.3259 213.802 87.2952L213.067 87.8772C213.343 87.6781 213.633 87.4943 213.909 87.3259C214.698 86.865 215.51 86.4458 216.342 86.07L218.01 85.289C216.281 86.0547 218.776 85.0439 219.112 84.9521C219.679 84.6977 220.284 84.5423 220.903 84.4926C220.811 84.4926 219.097 84.4926 220.643 84.4926L222.479 84.5998C220.689 84.4467 222.954 84.6917 223.183 84.7223C225.946 85.2043 228.672 85.8798 231.341 86.7439C231.932 86.8533 232.505 87.0494 233.039 87.3259C232.948 87.234 231.509 86.5601 232.764 87.2187C233.788 87.7104 234.784 88.2574 235.748 88.8574C236.25 89.1343 236.722 89.4628 237.156 89.8375C236.116 88.7042 236.636 89.4087 236.957 89.6997C237.96 90.5882 238.915 91.5288 239.819 92.5176L240.202 92.9618C240.722 93.605 240.676 93.5437 240.049 92.7627C240.305 93.0515 240.526 93.3704 240.707 93.7122C241.451 94.5901 242.018 95.6043 242.375 96.6986L242.054 95.9022C242.191 96.2545 242.329 96.6067 242.452 96.9743C242.574 97.3418 242.681 97.6481 242.788 98.0004C243.125 99.1184 243.416 100.267 243.645 101.416C243.768 101.952 243.737 103.514 244.089 103.897L243.936 102.87C243.936 103.207 244.013 103.529 244.043 103.866C244.074 104.203 244.135 104.877 244.166 105.397C244.273 107.409 244.242 109.425 244.074 111.432C243.947 111.932 243.895 112.448 243.921 112.963C243.645 112.488 244.166 111.432 243.921 112.412C243.676 113.392 243.569 114.387 243.339 115.367C242.866 117.31 242.279 119.223 241.579 121.095C240.998 122.749 242.344 119.564 241.579 121.095C241.426 121.402 241.304 121.708 241.151 121.999C240.722 122.902 240.263 123.775 239.773 124.633C239.284 125.491 238.932 126.057 238.472 126.746C238.197 127.16 237.906 127.558 237.631 127.956C237.141 128.615 237.248 128.492 237.937 127.604L237.325 128.37C236.158 129.764 234.89 131.07 233.529 132.275C233.183 132.632 232.803 132.955 232.397 133.24C232.473 133.24 233.697 132.29 232.764 132.949C231.83 133.608 230.836 134.281 229.825 134.879C229.091 135.308 228.341 135.706 227.576 136.073L227.117 136.303C226.351 136.64 226.489 136.594 227.514 136.15C227.036 136.42 226.52 136.616 225.984 136.732C225.415 136.993 224.803 137.149 224.178 137.191L224.989 137.099H224.086C223.581 137.099 223.061 137.099 222.556 137.099C221.684 137.023 221.745 137.099 222.77 137.099C222.372 137.099 221.959 136.962 221.561 136.87C220.557 136.62 219.566 136.318 218.592 135.966C216.694 135.308 219.878 136.732 218.118 135.736C217.582 135.43 217 135.17 216.465 134.848C215.468 134.283 214.502 133.664 213.572 132.995C213.22 132.75 212.149 131.862 213.404 132.903C212.807 132.398 212.195 131.892 211.613 131.372C208.169 127.957 204.526 124.751 200.701 121.769C198.407 120.092 195.791 118.911 193.016 118.299C190.242 117.687 187.371 117.659 184.586 118.216C179.26 119.227 174.607 122.336 170.445 125.674C162.792 131.8 155.875 139.917 153.181 149.474C151.651 154.895 150.824 161.925 154.849 166.473C159.548 171.788 167.399 170.287 172.801 166.948C181.831 161.374 186.759 151.419 189.56 141.479C192.544 130.759 191.09 119.732 188.948 109.073C188.029 104.479 186.239 99.7309 182.642 96.6067C177.469 92.1194 171.041 92.1041 165.165 95.1977C163.026 96.4193 161.007 97.8397 159.135 99.44C158.721 99.7463 158.324 100.068 157.926 100.389C156.502 101.523 158.048 100.512 158.002 100.389C156.754 101.495 155.435 102.519 154.054 103.452C150.207 106.502 146.721 109.981 143.662 113.821C137.754 121.233 131.021 128.033 127.164 136.793C123.537 145.048 119.91 156.886 127.516 164.115C136.698 172.844 149.447 161.282 154.957 153.869C160.221 146.778 162.532 137.896 163.053 129.197C163.489 120.757 162.293 112.312 159.533 104.325C158.002 99.9913 156.257 95.3662 152.921 92.0735C147.35 86.6367 139.943 88.6276 133.837 91.951C129.338 94.5699 125.24 97.8247 121.67 101.615C117.971 105.316 114.529 109.266 111.37 113.438C108.326 117.75 105.502 122.212 102.906 126.808C101.535 129.044 100.363 131.396 99.4018 133.837C94.2901 147.023 91.5048 161.404 89.7601 175.371C88.6539 182.887 88.4945 190.512 89.2856 198.068C89.7754 202.035 92.4383 205.925 96.9378 205.726C100.641 205.557 105.126 202.326 104.59 198.068L104.345 198.145Z" fill="#8CA54F"/>
<path d="M144.06 119.043C142.919 118.762 141.8 118.404 140.708 117.971C139.794 117.685 138.832 117.588 137.88 117.686C136.927 117.783 136.005 118.073 135.168 118.538C134.087 119.269 133.162 120.208 132.445 121.298C131.728 122.389 131.233 123.611 130.99 124.893C129.75 129.488 129.337 136.318 134.418 138.907C137.831 140.637 141.136 138.539 143.172 135.844C144.716 133.692 145.762 131.222 146.233 128.615C146.876 125.694 146.829 122.663 146.095 119.763C145.223 116.7 143.157 113.331 139.973 112.381C136.79 111.432 133.928 113.422 132.245 116.026C130.86 118.552 129.884 121.281 129.352 124.112C128.391 127.55 128.187 131.155 128.755 134.68C129.321 137.666 131.219 140.806 134.601 140.806C139.193 140.882 142.254 135.369 143.019 131.448C143.784 127.528 144.243 122.657 141.994 119.196C140.295 116.562 136.224 114.602 133.53 117.006C131.854 118.693 130.683 120.815 130.148 123.132C129.443 125.495 129.289 127.988 129.697 130.42C130.106 132.852 131.066 135.158 132.505 137.161C133.287 138.177 134.297 138.995 135.454 139.548C136.61 140.101 137.881 140.375 139.162 140.346C140.658 140.151 142.089 139.618 143.349 138.787C144.608 137.957 145.662 136.851 146.432 135.553C147.923 133.513 148.832 131.105 149.061 128.589C149.29 126.072 148.831 123.54 147.733 121.264C145.468 116.577 139.162 113.606 134.51 116.838C130.76 119.411 129.046 124.832 129.459 129.227C129.522 130.557 129.882 131.855 130.512 133.026C131.143 134.198 132.027 135.213 133.102 135.997C134.27 136.821 135.589 137.405 136.984 137.715C138.379 138.025 139.822 138.055 141.228 137.804C142.665 137.497 143.997 136.822 145.094 135.844C146.192 134.867 147.016 133.621 147.488 132.229C147.885 131.203 148.162 130.134 148.314 129.044C148.437 128.247 148.528 127.512 148.62 126.655L148.712 125.904C148.712 125.705 148.712 125.521 148.712 125.322C148.636 125.873 148.636 125.935 148.712 125.506C149.507 122.583 149.554 119.508 148.85 116.562C148.281 114.948 147.357 113.483 146.147 112.274C144.936 111.065 143.47 110.144 141.856 109.578C140.507 109.007 139.05 108.741 137.586 108.799C136.123 108.857 134.691 109.238 133.392 109.915C131.455 111.122 129.937 112.898 129.046 115C127.197 119.02 126.442 123.458 126.857 127.864C126.994 130.551 128.011 133.118 129.75 135.17C130.946 136.392 132.517 137.178 134.212 137.403C135.907 137.628 137.628 137.278 139.101 136.41C140.321 135.611 141.363 134.568 142.162 133.347C142.422 132.964 142.667 132.581 142.912 132.199L143.371 131.494C143.493 131.326 144.075 130.621 143.371 131.402C144.068 130.675 144.457 129.707 144.457 128.699C144.457 127.692 144.068 126.723 143.371 125.996C142.647 125.287 141.675 124.89 140.662 124.89C139.649 124.89 138.677 125.287 137.953 125.996C137.228 126.888 136.559 127.824 135.948 128.799L135.489 129.473C135.336 129.702 135.061 129.855 135.596 129.35C135.425 129.485 135.276 129.645 135.152 129.825C134.954 130.009 135.045 129.947 135.443 129.641L135.015 129.901C135.015 129.901 135.749 129.61 135.183 129.809H134.923C135.459 129.733 135.489 129.702 135.03 129.718C135.137 129.641 135.826 129.963 135.107 129.718C134.387 129.473 135.856 129.794 134.984 129.626C134.984 129.626 135.719 130.146 135.152 129.626C135.719 130.085 135.351 129.978 135.152 129.626C134.954 129.273 134.938 129.212 134.831 128.998C135.244 129.84 134.831 128.998 134.831 128.814C134.693 128.37 134.601 127.926 134.494 127.482C134.28 126.517 134.494 128.37 134.494 127.328C134.448 126.461 134.448 125.592 134.494 124.725C134.494 124.281 134.494 123.852 134.586 123.408C134.571 123.229 134.571 123.05 134.586 122.872C134.265 123.592 134.586 123.316 134.586 122.872C134.743 121.916 134.952 120.971 135.214 120.039C135.336 119.594 135.489 119.166 135.642 118.737C135.642 118.66 136.04 117.894 135.734 118.461C135.428 119.028 135.841 118.277 135.872 118.216C136.055 117.848 136.254 117.481 136.469 117.129C136.571 117.009 136.663 116.881 136.744 116.746L136.56 116.976C136.668 116.868 136.759 116.746 136.867 116.654C136.974 116.562 137.096 116.455 137.188 116.348C137.647 115.827 136.606 116.639 136.989 116.501C137.147 116.433 137.297 116.346 137.433 116.24C137.433 116.547 136.469 116.531 137.341 116.332C137.616 116.332 138.183 116.332 137.341 116.332H137.968C138.902 116.256 137.295 116.118 138.213 116.332L139.162 116.593C140.126 116.868 138.81 116.348 139.315 116.593C139.545 116.73 139.805 116.838 140.035 116.976C140.264 117.113 140.907 117.557 140.448 117.221C139.989 116.884 140.754 117.512 140.769 117.527L141.182 117.971C140.631 117.343 141.32 118.231 141.381 118.354C141.764 119.012 141.473 118.584 141.381 118.354C141.381 118.538 141.672 119.885 141.596 119.074C141.623 119.584 141.623 120.095 141.596 120.605C141.596 120.896 141.596 121.202 141.596 121.509C141.596 120.774 141.596 121.509 141.596 121.738C141.366 123.025 141.167 124.296 141.014 125.583L140.83 127.114C140.968 126.103 140.723 127.711 140.677 127.926C140.57 128.416 140.432 128.891 140.279 129.365C140.126 129.84 140.279 129.365 140.279 129.258C140.279 129.151 139.652 130.284 139.989 129.825C140.325 129.365 139.759 130.024 139.728 130.07C140.203 129.534 140.035 129.886 139.728 130.07C139.422 130.254 140.662 129.871 139.851 130.07C139.686 130.123 139.517 130.164 139.346 130.192C139.346 130.192 140.279 130.192 139.346 130.192C139.163 130.215 138.978 130.215 138.795 130.192H139.269L138.718 130.085C138.443 130.085 138.167 129.932 137.907 129.855C137.127 129.626 138.229 130.162 137.907 129.855C137.719 129.725 137.519 129.612 137.31 129.518C136.744 129.197 137.31 129.518 137.448 129.641C137.586 129.763 136.897 129.212 136.897 129.074C136.897 129.304 137.356 129.656 137.066 129.227C136.606 128.538 137.249 130.085 137.142 129.427C137.142 129.212 136.836 128.048 136.974 128.753C137.111 129.457 136.974 128.354 136.974 128.14C136.974 127.926 136.974 127.328 136.974 126.915C136.974 126.042 136.79 127.818 136.974 126.915L137.066 126.41C137.173 125.904 137.31 125.399 137.463 124.878C137.463 124.725 137.586 124.556 137.632 124.403C137.907 123.561 137.234 125.138 137.632 124.403L138.229 123.347C138.428 122.994 138.229 123.086 138.045 123.561C138.045 123.392 138.382 123.193 138.504 123.056C138.595 122.942 138.704 122.844 138.826 122.765C138.32 123.132 138.244 123.209 138.565 122.994L138.749 122.887C139.422 122.52 137.861 123.132 138.611 122.887C139.361 122.642 138.229 122.887 138.213 122.887H139.086C139.728 122.887 138.841 122.887 138.871 122.887C139.133 122.924 139.39 122.991 139.637 123.086C139.637 123.086 138.78 122.611 139.422 123.086C139.514 123.086 140.08 123.392 140.08 123.484C140.08 123.316 139.484 122.948 140.08 123.484L140.432 123.867C141.029 124.48 140.05 123.178 140.432 123.867C140.647 124.265 140.861 124.633 141.06 125.031C140.647 124.158 141.06 125.276 141.198 125.628C141.335 125.981 141.274 125.981 141.32 126.149C141.534 126.961 141.32 125.414 141.32 126.149C141.32 126.578 141.32 127.007 141.32 127.436C141.32 128.309 141.55 126.593 141.32 127.436C141.32 127.589 141.32 127.742 141.213 127.91C141.106 128.339 140.953 128.737 140.815 129.166C140.54 130.009 141.121 128.691 140.815 129.166C140.644 129.463 140.49 129.77 140.356 130.085C140.096 130.56 139.744 130.973 139.499 131.448C139.254 131.923 140.08 130.851 139.499 131.448C139.3 131.647 139.086 131.846 138.902 132.061C138.336 132.704 139.575 131.724 138.902 132.061C138.81 132.061 138.275 132.49 138.244 132.444C138.213 132.398 139.101 132.137 138.351 132.321C138.045 132.398 138.183 132.321 138.764 132.321C138.336 132.321 138.428 132.321 139.04 132.321L138.535 132.199C139.468 132.413 138.627 132.107 138.397 132.03C138.167 131.954 138.963 132.689 138.535 132.137C138.412 131.969 138.198 131.8 138.06 131.647C137.494 131.065 138.474 132.382 138.06 131.647C137.953 131.433 137.815 131.234 137.693 131.019L137.479 130.575C137.708 131.111 137.739 131.188 137.586 130.805L137.417 130.315C137.292 129.902 137.19 129.483 137.111 129.059V128.799C137.035 128.37 137.111 128.446 137.111 129.013C137.081 128.748 137.081 128.481 137.111 128.217C137.081 127.671 137.081 127.124 137.111 126.578V126.042C137.111 125.246 136.928 126.838 137.111 125.843C137.219 125.368 137.31 124.893 137.433 124.419C137.509 124.174 137.586 123.929 137.678 123.683L137.769 123.438L137.678 123.668C137.678 123.668 138.336 122.458 138.366 122.397C138.581 122.045 138.366 122.198 138.183 122.627C138.183 122.412 138.627 122.121 138.795 121.968L136.086 123.101C136.086 123.101 135.198 122.933 135.596 123.101C135.994 123.27 136.147 123.331 135.596 123.101C134.816 122.688 136.071 123.561 135.413 122.979C134.755 122.397 135.581 123.178 135.581 123.178C135.581 123.178 135.152 122.458 135.26 122.795C135.331 122.952 135.418 123.1 135.52 123.239C135.841 123.745 135.306 122.474 135.443 123.086C135.443 123.347 135.596 123.592 135.657 123.837C135.719 124.082 135.749 124.755 135.657 124.128C135.566 123.5 135.657 124.51 135.657 124.679C135.706 125.813 135.671 126.95 135.55 128.079C135.459 128.86 135.55 127.757 135.55 127.972C135.55 128.186 135.474 128.462 135.428 128.707C135.382 128.952 135.26 129.549 135.152 129.978C135.152 130.177 135.045 130.391 134.969 130.59C134.892 130.79 134.601 131.402 134.877 130.897C135.152 130.391 134.739 131.172 134.663 131.326C134.513 131.627 134.344 131.918 134.158 132.199C134.158 132.199 133.729 132.796 133.744 132.811C133.76 132.826 134.341 132.137 133.668 132.811C133.546 132.934 132.979 133.378 133.5 133.01C134.28 132.49 132.612 133.454 133.5 133.01C133.922 132.836 134.387 132.79 134.835 132.877C135.284 132.964 135.698 133.181 136.025 133.5C135.596 133.117 136.484 134.205 136.025 133.5C135.841 133.148 136.132 133.715 136.147 133.745C136.147 133.531 136.009 133.317 135.948 133.102C135.887 132.888 135.826 132.597 135.78 132.336C135.78 132.336 135.688 131.678 135.78 132.015C135.872 132.352 135.78 131.678 135.78 131.693C135.78 131.417 135.78 131.142 135.78 130.866C135.78 130.591 135.78 130.039 135.78 129.61C135.78 129.182 135.78 129.059 135.78 128.783C135.78 129.182 135.78 128.661 135.78 128.538C136.126 126.601 136.596 124.688 137.188 122.811C137.402 122.091 137.662 121.386 137.877 120.666C137.999 120.268 137.8 120.85 137.785 120.896L137.968 120.483C138.137 120.161 138.412 119.809 138.55 119.472C138.688 119.135 138.412 119.625 138.366 119.686C138.32 119.748 138.611 119.426 138.703 119.303C139.116 118.783 138.167 119.594 138.703 119.303C138.887 119.196 139.101 119.212 138.703 119.303C138.596 119.303 137.509 119.487 137.968 119.487C138.428 119.487 137.479 119.411 137.509 119.487C137.295 119.487 136.836 119.15 137.295 119.411C136.683 119.074 137.05 119.242 137.295 119.411C137.54 119.579 137.693 119.839 137.494 119.594C137.295 119.349 137.708 119.901 137.693 119.885C137.678 119.87 137.923 120.238 138.03 120.421C138.137 120.605 138.397 121.279 138.167 120.651C138.321 121.052 138.454 121.461 138.565 121.876C138.642 122.198 138.688 122.52 138.764 122.841C138.581 122.029 138.764 123.086 138.764 123.316C138.764 124.112 138.764 124.847 138.764 125.69C138.764 126.532 138.887 125.092 138.764 125.69L138.672 126.195C138.672 126.593 138.519 126.976 138.428 127.359L138.152 128.309C138.152 128.477 138.045 128.63 137.999 128.783C137.953 128.936 137.662 129.718 137.846 129.227C138.03 128.737 137.586 129.794 137.509 129.917C137.433 130.039 137.219 130.468 137.066 130.728C136.912 130.989 136.897 131.004 136.805 131.127C136.713 131.249 136.316 131.739 136.637 131.372C136.958 131.004 136.285 131.708 136.163 131.831C135.688 132.321 136.729 131.494 136.01 131.908C135.642 132.107 136.407 131.724 136.392 131.739C136.117 131.846 135.765 131.739 136.775 131.739C137.063 131.767 137.346 131.834 137.616 131.938C138.091 132.061 137.815 132.061 137.616 131.938C137.693 131.938 138.351 132.474 137.785 132.03C138.06 132.245 138.03 132.428 137.785 132.03C137.708 131.877 137.616 131.693 137.525 131.54C137.203 131.004 137.693 132.382 137.647 131.785C137.647 131.632 137.448 130.82 137.571 131.494C137.693 132.168 137.571 131.127 137.571 130.927C137.571 130.728 137.571 130.223 137.571 129.871C137.571 129.518 137.571 129.212 137.647 128.891C137.724 128.569 137.769 128.155 137.647 129.044L137.739 128.477C137.859 127.775 138.017 127.079 138.213 126.394C138.32 126.057 138.458 125.736 138.55 125.399C138.642 125.062 138.412 125.782 138.397 125.736C138.459 125.559 138.542 125.389 138.642 125.23C138.703 125.142 138.76 125.05 138.81 124.955C139.04 124.434 138.627 125.322 138.535 125.261L138.948 124.847C138.948 124.939 138.458 125.123 138.443 125.138C138.688 125.016 139.086 125.138 138.275 125.138C137.999 125.138 137.647 124.97 138.122 125.138L139.285 125.521C140.084 125.862 140.914 126.124 141.764 126.302C142.743 126.542 143.777 126.398 144.653 125.9C145.529 125.401 146.182 124.587 146.478 123.622C146.733 122.642 146.596 121.6 146.096 120.719C145.596 119.838 144.772 119.188 143.799 118.905L144.06 119.043Z" fill="#004D2B"/>
<path d="M15.7481 43.1423C15.5798 52.3312 20.217 59.8662 24.7012 67.493C29.1969 75.0696 34.7699 81.9517 41.2452 87.9231C44.609 91.0117 48.1504 93.9009 51.8511 96.5761C55.2073 99.2157 58.7521 101.606 62.457 103.728C66.8647 106.041 71.9457 107.266 76.6747 108.797C81.4037 110.329 86.2246 111.677 91.0302 113.024C92.3589 113.405 93.6666 113.854 94.9481 114.372C93.6013 113.836 95.0247 114.372 95.3613 114.556L97.5958 115.521C100.211 116.649 102.882 117.641 105.6 118.492C110.652 120.348 115.969 121.382 121.348 121.555C123.378 121.555 125.324 120.748 126.759 119.312C128.194 117.876 129 115.928 129 113.897C129 111.866 128.194 109.919 126.759 108.483C125.324 107.047 123.378 106.24 121.348 106.24C120.325 106.297 119.299 106.246 118.287 106.087C119.955 106.439 117.752 105.949 117.155 105.826C115.027 105.367 112.931 104.739 110.849 104.096C109.028 103.514 107.176 102.978 105.401 102.304C105.478 102.304 103.381 101.462 104.391 101.89L103.381 101.446C101.85 100.818 100.473 100.175 99.0037 99.5931C94.7185 97.8778 90.1425 96.9283 85.7349 95.5959C81.3272 94.2635 77.0267 92.8392 72.6803 91.4149C72.1446 91.2311 71.609 91.0627 71.0733 90.8636C70.5377 90.6645 69.3439 90.0672 70.7519 90.8636C69.9714 90.4654 69.2215 90.0366 68.4869 89.5771C66.6657 88.4132 64.921 87.1267 63.1304 85.9169C61.6 84.8754 60.0695 83.7728 58.5391 82.6854C57.0087 81.598 59.3349 83.3286 58.3707 82.5629L57.1464 81.598C56.3506 80.9548 55.6159 80.2963 54.7742 79.6224C51.8115 77.0788 49.0105 74.3526 46.3874 71.4596C45.1478 70.0812 43.9694 68.6569 42.8062 67.2173C43.8316 68.4885 42.9286 67.3858 42.6838 67.0489L41.7808 65.8084C41.1686 64.966 40.5871 64.1237 40.0208 63.2508C37.6333 59.6518 35.5825 55.823 33.4858 52.0556C32.9961 51.1979 32.5217 50.325 32.0932 49.4367L31.986 49.1917C31.6493 48.4259 31.6953 48.5638 32.1391 49.5899C31.8636 49.3908 31.6953 48.38 31.6034 48.0584C31.2199 47.232 31.0115 46.3351 30.9913 45.4242L31.0984 46.3125C31.0984 46.0062 31.0984 45.7152 31.0984 45.4089C31.0984 44.6585 31.0984 43.8774 31.0984 43.1576C31.0984 41.1267 30.2922 39.179 28.8571 37.7429C27.4221 36.3069 25.4757 35.5001 23.4462 35.5001C21.4167 35.5001 19.4704 36.3069 18.0353 37.7429C16.6002 39.179 15.794 41.1267 15.794 43.1576L15.7481 43.1423Z" fill="#8CA54F"/>
<path d="M121.348 141.158C117.305 141.329 113.255 141.216 109.227 140.821C102.615 140.561 95.9887 140.27 89.3313 140.055C86.9744 139.979 84.6023 139.902 82.2454 139.902C81.572 139.902 80.9139 139.902 80.2405 139.902C79.5671 139.902 78.6336 140.086 77.8377 140.224L77.0878 140.377C77.2409 140.377 78.2663 140.254 77.3786 140.377C76.0942 140.462 74.8193 140.657 73.5678 140.959C70.6971 141.723 67.8842 142.69 65.1504 143.853L62.9925 144.757C64.2781 144.236 63.1761 144.68 62.9925 144.757L61.0794 145.431C59.6714 145.905 58.2481 146.288 56.8248 146.671C54.0548 147.406 51.2847 148.203 48.5146 148.831C47.8259 148.999 47.1219 149.167 46.4332 149.305C45.7445 149.443 44.3365 149.581 45.668 149.474C44.964 149.474 44.26 149.596 43.556 149.596C43.2193 149.596 42.8673 149.596 42.5153 149.596C42.1633 149.596 40.9849 149.428 41.7807 149.596C42.5765 149.765 41.2603 149.458 41.0461 149.413L39.6228 149.122C38.7963 148.968 37.9699 148.846 37.1435 148.662C35.5245 148.259 33.9343 147.747 32.3838 147.131C32.0471 147.008 31.7257 146.87 31.389 146.763C30.3177 146.426 32.2155 147.33 31.389 146.763C30.8075 146.35 30.1341 146.028 29.5372 145.614C28.2516 144.726 27.0273 143.746 25.6958 142.934C23.1094 141.403 20.6607 139.657 18.212 137.865C17.508 137.344 18.5946 138.171 18.6252 138.171C18.3803 138.171 17.9059 137.589 17.7222 137.436C17.2019 136.992 16.7122 136.533 16.1918 136.058L15.5949 135.43C14.7073 134.526 15.7174 135.66 15.7174 135.66C15.7174 135.66 14.6308 133.853 14.5696 133.715C14.0633 132.846 13.3909 132.085 12.5907 131.476C11.7906 130.867 10.8783 130.422 9.90619 130.166C8.93406 129.91 7.92106 129.848 6.92504 129.984C5.92903 130.12 4.96955 130.451 4.10139 130.958C2.38666 132.017 1.14435 133.695 0.631569 135.645C0.118791 137.595 0.374778 139.667 1.34658 141.433C4.00953 146.794 9.15182 150.194 13.8503 153.594C16.2377 155.324 18.8395 156.748 21.2576 158.479C24.1363 160.373 27.2907 161.809 30.6085 162.737C37.3384 165.014 44.5625 165.406 51.499 163.87C57.5315 162.653 63.4462 160.911 69.1755 158.663C71.012 157.882 69.956 158.341 69.5581 158.51L70.5528 158.111L72.8944 157.238C74.3483 156.733 75.8176 156.243 77.3174 155.845L78.3734 155.584C78.205 155.584 77.2103 155.584 78.0826 155.584C79.3737 155.599 80.6592 155.413 81.8934 155.033C82.3219 154.849 79.2304 155.217 80.4701 155.232C82.3984 155.232 84.3268 155.232 86.2398 155.232C92.8207 155.401 99.3862 155.692 105.952 155.967C109.319 156.105 112.686 156.243 116.037 156.35C117.799 156.498 119.568 156.524 121.333 156.427C125.297 156.013 129.184 153.195 128.985 148.769C128.817 144.971 125.587 140.668 121.333 141.112L121.348 141.158Z" fill="#8CA54F"/>
<path d="M58.7075 13.2015C59.0007 16.0347 60.0588 18.7347 61.7683 21.0122C61.9487 21.4178 62.1801 21.7986 62.457 22.1455L61.9826 20.9356C62.1663 21.7932 62.1969 21.7013 61.9826 20.6599C62.1713 22.6682 62.5557 24.6533 63.1304 26.5868C63.513 27.9805 63.8957 29.3588 64.2323 30.7678C64.4007 31.4876 64.5384 32.2074 64.7068 32.9119C65.1812 34.8875 64.7068 31.3804 64.7068 33.4632C64.7068 36.3577 64.6302 39.2522 64.5996 42.1468C64.5078 48.1043 64.5996 54.0465 64.5996 60.004C64.5996 62.8985 64.416 65.8083 64.1558 68.7028C64.1558 69.438 64.0334 70.1578 63.9568 70.8929C63.9568 71.0307 63.6202 73.4198 63.8497 71.7658C63.6202 73.4964 63.3293 75.1964 63.0386 76.9116C62.0285 83.0376 60.9113 89.1636 59.6104 95.1211C59.0748 97.6174 58.4014 100.083 57.6515 102.534C57.4525 103.192 57.2535 103.851 57.0393 104.509C57.0393 104.708 56.2281 106.837 56.8862 105.214C56.1363 107.067 55.1875 108.843 54.4988 110.727C54.0396 112.013 53.7795 113.361 53.3968 114.663C53.3968 114.847 52.601 116.975 53.1979 115.383C52.8 116.439 52.3256 117.435 51.9276 118.446C51.5297 119.457 51.04 121.019 50.5655 122.305C50.489 122.504 49.5707 124.495 50.3207 122.994L49.0657 125.383C47.8567 127.773 46.8313 130.254 45.4692 132.566C44.9029 133.516 44.2908 134.434 43.6633 135.323C43.5409 135.491 42.1328 137.222 43.2501 135.905C42.6838 136.594 42.1175 137.283 41.536 137.957C39.493 140.282 37.3215 142.491 35.0316 144.573L33.5012 145.875C34.8939 144.665 32.9043 146.273 32.5982 146.472C31.3739 147.284 30.0883 148.004 28.8027 148.708C23.4003 151.771 18.0897 156.151 19.6201 163.058C20.1777 165.005 21.475 166.657 23.2342 167.658C24.9934 168.66 27.0747 168.933 29.0323 168.418C30.9651 167.84 32.6005 166.538 33.5982 164.784C34.596 163.03 34.8792 160.958 34.3889 159V162.17C33.7461 163.472 33.639 163.701 34.0522 163.089C32.9503 164.85 33.4094 164.008 33.9297 163.472C35.0163 162.369 32.3993 164.421 33.7767 163.594L34.848 162.905C36.6692 161.787 38.5669 160.868 40.3422 159.689C47.4456 154.577 53.538 148.19 58.3095 140.851C59.84 138.386 60.9419 135.69 62.2581 133.194C63.6023 130.602 64.7681 127.92 65.7475 125.169C65.977 124.51 66.1913 123.867 66.4209 123.224C66.4209 123.056 67.2779 120.927 66.6504 122.519C67.4205 120.649 68.0848 118.737 68.64 116.792C68.8236 116.133 69.0226 115.49 69.2369 114.831C69.8643 112.779 68.5788 116.118 69.5123 114.188C70.2873 112.589 70.972 110.948 71.5631 109.272C72.5426 106.424 73.3384 103.498 74.0271 100.573C75.3739 94.8454 76.3993 89.0104 77.3941 83.2061C78.5587 76.9864 79.3357 70.7002 79.7203 64.384C80.0264 58.2581 79.9193 52.0249 79.9193 45.853C79.9193 39.1144 80.4549 32.6515 78.7868 25.9436C78.3888 24.3049 77.8991 22.6968 77.4706 21.0581C77.3788 20.7518 76.9655 18.5311 77.2563 20.614C77.1369 19.3357 76.9324 18.0669 76.6442 16.8159C76.1771 15.3906 75.4903 14.0471 74.6087 12.834C74.3332 12.4205 74.0577 12.007 73.7976 11.5782C73.5374 11.1493 73.4761 11.0268 73.3384 10.7512C73.759 11.4813 73.9707 12.3131 73.9506 13.1556C73.6751 9.17372 70.6295 5.31435 66.2984 5.49813C62.3958 5.68191 58.3554 8.88273 58.6462 13.1556L58.7075 13.2015Z" fill="#8CA54F"/>
<path d="M136.148 54.3528C134.487 53.8792 132.743 53.7695 131.036 54.0312C131.036 54.0312 130.179 54.1231 130.76 54.0312C130.363 54.0312 129.965 54.0312 129.567 54.0312C128.62 54.0585 127.677 54.1712 126.751 54.3682C124.378 54.997 122.117 55.9889 120.047 57.3086C118.85 58.0608 117.834 59.0688 117.072 60.2603C116.31 61.4518 115.821 62.7973 115.64 64.2003C115.089 67.5696 115.533 70.893 118.502 72.9911C120.508 74.2658 122.771 75.0816 125.128 75.3802C127.449 75.8114 129.811 75.9759 132.168 75.8703C134.95 75.8019 137.677 75.0778 140.127 73.7568C142.659 72.2013 144.474 69.7078 145.177 66.8192C146.126 63.4499 146.248 59.0698 143.647 56.3897C141.351 54.0465 138.198 54.1537 135.168 54.1231C134.156 54.1311 133.187 54.5371 132.472 55.2534C131.756 55.9697 131.35 56.9389 131.342 57.9518C131.362 58.9611 131.771 59.9236 132.484 60.6375C133.198 61.3513 134.159 61.761 135.168 61.7806C135.995 61.7806 136.806 61.7806 137.632 61.7806C137.887 61.794 138.142 61.794 138.397 61.7806C138.397 61.7806 137.448 61.5508 138.107 61.7806C138.256 61.8343 138.409 61.8753 138.566 61.9031C138.015 61.6581 137.923 61.6121 138.275 61.7959L138.474 61.9184L138.061 61.5968C138.275 61.8265 138.29 61.8265 138.061 61.5968L137.923 61.413C138.022 61.5589 138.109 61.7126 138.183 61.8725C138.091 61.704 137.954 61.1374 138.091 61.8725C138.229 62.6076 138.168 61.8725 138.091 61.7346C138.183 62.241 138.183 62.7598 138.091 63.2661C138.091 63.9706 138.091 63.3886 138.091 63.2661C138.091 63.603 137.969 63.9247 137.892 64.2463C137.816 64.5679 137.602 65.303 137.433 65.7778C137.433 66.0075 137.096 66.3444 137.433 65.7778C137.341 65.9309 137.28 66.1147 137.173 66.2832C137.066 66.4516 136.775 67.1102 137.035 66.5435C137.295 65.9769 136.943 66.6507 136.836 66.7579C136.729 66.8651 136.5 67.1255 136.454 67.1102C136.897 66.7886 136.943 66.7426 136.607 66.9876L136.392 67.1408C136.178 67.2633 134.862 67.8606 135.857 67.4777C135.511 67.6186 135.159 67.7412 134.801 67.8453C134.342 67.9831 133.867 68.0903 133.408 68.1822L132.827 68.2741C133.806 68.0903 132.827 68.2741 132.658 68.2741C131.771 68.3202 130.882 68.3202 129.995 68.2741C129.521 68.2741 129.046 68.2741 128.572 68.2741C128.098 68.2741 127.439 68.2741 127.21 68.1363C127.501 68.3813 127.975 68.2588 127.363 68.1363L126.843 68.0444L125.878 67.8453C124.96 67.6309 124.088 67.3399 123.2 67.0489C124.134 67.3552 122.925 66.8651 122.664 66.7273C122.404 66.5895 122.037 66.2678 122.863 66.9111C122.745 66.8212 122.637 66.7185 122.542 66.6048L122.894 67.0642C123.124 67.6768 123.185 67.83 123.078 67.5083C123.078 67.4165 122.863 66.9417 122.925 66.8804C122.986 66.8192 122.925 67.9065 122.925 67.0795C122.925 66.7885 122.925 66.4976 122.925 66.1913V65.594C122.833 66.4976 122.925 65.7931 122.925 65.594C123.022 65.1617 123.15 64.7369 123.307 64.3229C122.986 65.1805 123.185 64.5219 123.307 64.3229C123.858 63.7256 123.093 64.3229 123.215 64.3229C123.338 64.3229 123.537 63.94 123.537 63.9859C123.537 64.0319 122.756 64.5066 123.445 64.0931C124.318 63.5592 125.223 63.0785 126.154 62.6535L126.705 62.4085C125.848 62.7914 126.705 62.4085 126.888 62.4085C127.286 62.2553 127.684 62.1022 128.098 61.9797L128.618 61.8418C128.771 61.8418 128.74 61.8418 128.495 61.8418H129.092C130.04 61.8141 130.985 61.7323 131.924 61.5968C132.077 61.5968 132.383 61.5049 132.566 61.5049C131.434 61.5049 132.322 61.5049 132.566 61.5049C132.566 61.5049 133.531 61.5049 132.949 61.5049C132.367 61.5049 133.714 61.6887 133.837 61.7346C134.321 61.8684 134.827 61.9053 135.326 61.8434C135.824 61.7815 136.306 61.6219 136.743 61.3737C137.18 61.1256 137.564 60.7937 137.873 60.3971C138.181 60.0005 138.409 59.5469 138.543 59.0622C138.676 58.5775 138.713 58.0712 138.651 57.5722C138.59 57.0732 138.43 56.5913 138.182 56.154C137.934 55.7167 137.602 55.3326 137.206 55.0235C136.81 54.7145 136.357 54.4866 135.872 54.3528H136.148Z" fill="#004D2B"/>
<path d="M89.5764 39.9568L89.1631 40.6154C88.8193 41.2008 88.6346 41.8661 88.6274 42.545C88.6325 43.2243 88.8173 43.8902 89.1631 44.4747C89.1948 44.5463 89.236 44.6132 89.2856 44.6738C89.4692 44.9342 89.6988 45.2252 89.8977 45.4702L89.9896 45.5621C90.2702 45.8219 90.5722 46.0576 90.8925 46.2666H90.969C91.2751 46.4044 91.6271 46.5576 91.9332 46.6648H92.1168C92.5139 46.7553 92.9188 46.8066 93.3259 46.8179C93.7268 46.7934 94.1255 46.7422 94.5196 46.6648H94.7492L95.2696 46.4503C95.7445 46.2964 96.1716 46.022 96.5092 45.654C96.5265 45.6213 96.5531 45.5946 96.5857 45.5774C96.8519 45.2818 97.0925 44.9641 97.305 44.6279C97.479 44.2851 97.6323 43.9322 97.7641 43.5711C97.7728 43.5051 97.7728 43.4381 97.7641 43.3721C97.8513 42.984 97.9076 42.5897 97.9325 42.1928C97.919 41.9611 97.8883 41.7308 97.8407 41.5036C97.835 41.2702 97.7989 41.0386 97.7335 40.8145C97.6147 40.4457 97.4662 40.0872 97.2897 39.7424C97.1731 39.5437 97.0345 39.3587 96.8765 39.1911C96.755 38.992 96.6055 38.8115 96.4327 38.6551C96.1502 38.3864 95.8427 38.1454 95.5144 37.9352C95.1586 37.7444 94.7843 37.5905 94.3972 37.4758C93.8963 37.3383 93.3677 37.3383 92.8668 37.4758C92.3699 37.543 91.8935 37.7175 91.4707 37.9872C91.0478 38.257 90.6887 38.6155 90.4181 39.0379C90.083 39.4071 89.8461 39.8548 89.7294 40.3397L89.5916 41.3658C89.5988 42.0448 89.7835 42.7101 90.1273 43.2955L90.7242 44.0612C91.1906 44.5323 91.7703 44.8751 92.4076 45.0567H92.5148L91.5965 44.6738L91.8108 44.7963L91.0456 44.1991L91.2139 44.3828L90.617 43.6018C90.6774 43.6744 90.724 43.7575 90.7548 43.8468L90.3722 42.9432C90.4067 43.0218 90.4324 43.104 90.4487 43.1883L90.4181 42.1009C90.4335 42.1973 90.4335 42.2955 90.4181 42.3919L90.5558 41.3658C90.5446 41.4611 90.5188 41.554 90.4793 41.6415L90.8619 40.7226C90.8312 40.8119 90.7845 40.8949 90.7242 40.9676L91.321 40.1865L91.1986 40.3397L92.882 39.3442H92.576L93.6014 39.2064H93.28L94.2901 39.3442H94.0758L94.9788 39.7271L94.7798 39.6199L95.5603 40.2172C95.4815 40.1535 95.4097 40.0817 95.3461 40.0028L95.9429 40.7838L95.8052 40.5694V44.4288L96.2337 43.7702C96.5104 43.3457 96.664 42.8526 96.6775 42.346C96.818 41.8451 96.818 41.3153 96.6775 40.8145C96.3669 39.8718 95.7466 39.0621 94.9176 38.5172L93.9993 38.1343C93.3332 37.9504 92.6299 37.9504 91.9638 38.1343L91.0609 38.5172C90.4906 38.8501 90.0161 39.3249 89.6834 39.8956L89.5764 39.9568Z" fill="#004D2B"/>
</g>
<defs>
<clipPath id="clip0_44_331">
<rect width="264" height="213" fill="white"/>
</clipPath>
</defs>
</svg>
