<svg width="363" height="253" viewBox="0 0 363 253" fill="none" xmlns="http://www.w3.org/2000/svg">
<path d="M7.74188 118.265C7.74188 89.5934 5 48.7127 5 20.0412C56.7799 20.0412 109.27 17.1571 160.945 20.3209C172.698 21.0405 184.415 23.8174 196.19 23.8174C200.486 23.8174 199.996 24.3983 200.106 28.7126C200.733 53.1371 205.141 77.2282 205.141 101.79V118.503C205.141 127.28 206.31 136.935 204.512 145.567C203.929 148.367 201.994 148.084 200.106 148.434C179.895 148.434 159.072 146.065 138.707 145.916C96.9475 145.611 55.6192 143.159 14.021 139.692C9.54618 139.319 7.51747 140.043 7.51747 134.867L7.74188 118.265Z" fill="#FFD6F3"/>
<path d="M5 20.0412V15.8197H0.778504V20.0412H5ZM7.74188 118.265L11.963 118.322L11.9634 118.293V118.265H7.74188ZM160.945 20.3209L160.687 24.5345L160.945 20.3209ZM200.106 28.7126L204.326 28.6043V28.6043L200.106 28.7126ZM204.512 145.567L208.645 146.428L208.645 146.428L204.512 145.567ZM200.106 148.434V152.655H200.494L200.875 152.585L200.106 148.434ZM7.51747 134.867L3.29636 134.81L3.29598 134.839V134.867H7.51747ZM14.021 139.692L14.3716 135.485H14.3716L14.021 139.692ZM138.707 145.916L138.738 141.695L138.707 145.916ZM0.778504 20.0412C0.778504 34.4775 1.46826 51.9569 2.15272 69.3193C2.8392 86.733 3.52038 104.03 3.52038 118.265H11.9634C11.9634 103.829 11.2736 86.3492 10.5892 68.9867C9.90268 51.5731 9.2215 34.2763 9.2215 20.0412H0.778504ZM5 24.2627C57.107 24.2627 109.17 21.3803 160.687 24.5345L161.203 16.1073C109.371 12.9338 56.4527 15.8197 5 15.8197V24.2627ZM160.687 24.5345C166.371 24.8825 172.036 25.7266 178 26.5233C183.884 27.3093 189.998 28.0389 196.19 28.0389V19.5959C190.607 19.5959 184.975 18.9371 179.118 18.1547C173.342 17.383 167.273 16.4789 161.203 16.1073L160.687 24.5345ZM196.19 28.0389C196.69 28.0389 197.055 28.0477 197.33 28.0644C197.613 28.0817 197.711 28.1028 197.701 28.1005C197.689 28.0979 197.445 28.0459 197.115 27.8478C196.943 27.745 196.76 27.6095 196.583 27.4361C196.405 27.2621 196.257 27.0746 196.139 26.8861C195.908 26.5171 195.838 26.2194 195.823 26.1484C195.81 26.0873 195.824 26.1269 195.837 26.3617C195.85 26.591 195.856 26.8836 195.861 27.3184C195.867 27.729 195.872 28.2471 195.886 28.8208L204.326 28.6043C204.305 27.7821 204.307 26.6085 204.267 25.8935C204.228 25.1902 204.131 23.7418 203.297 22.4081C202.265 20.76 200.7 20.1126 199.497 19.8507C198.441 19.621 197.249 19.5959 196.19 19.5959V28.0389ZM195.886 28.8208C196.204 41.2168 197.482 53.5152 198.657 65.6081C199.838 77.7608 200.92 89.7378 200.92 101.79H209.363C209.363 89.2804 208.24 76.931 207.06 64.7914C205.875 52.5922 204.635 40.6328 204.326 28.6043L195.886 28.8208ZM200.92 101.79V118.503H209.363V101.79H200.92ZM200.92 118.503C200.92 122.762 201.219 128.012 201.28 132.151C201.346 136.638 201.184 140.845 200.379 144.706L208.645 146.428C209.639 141.657 209.791 136.72 209.722 132.027C209.648 126.988 209.363 123.021 209.363 118.503H200.92ZM200.379 144.706C200.33 144.942 200.317 144.801 200.524 144.539C200.625 144.409 200.751 144.289 200.889 144.189C201.023 144.092 201.138 144.037 201.205 144.01C201.298 143.972 201.275 144 200.901 144.055C200.706 144.083 200.55 144.101 200.258 144.14C200.002 144.174 199.681 144.219 199.338 144.283L200.875 152.585C201.263 152.513 201.393 152.515 202.118 152.409C202.655 152.331 203.506 152.189 204.392 151.828C205.35 151.438 206.345 150.795 207.162 149.755C207.954 148.747 208.402 147.591 208.645 146.428L200.379 144.706ZM3.52077 118.208L3.29636 134.81L11.7386 134.924L11.963 118.322L3.52077 118.208ZM3.29598 134.867C3.29598 136.347 3.42724 137.893 3.97225 139.288C4.60143 140.899 5.7185 142.144 7.26233 142.886C8.55227 143.506 9.90558 143.647 10.781 143.717C11.2595 143.755 11.7748 143.781 12.2302 143.806C12.7086 143.831 13.1772 143.858 13.6704 143.899L14.3716 135.485C13.7462 135.433 13.1724 135.401 12.6834 135.375C12.1713 135.347 11.794 135.328 11.4531 135.301C11.117 135.274 10.9256 135.247 10.8164 135.225C10.7106 135.205 10.7732 135.206 10.92 135.276C11.0892 135.358 11.3115 135.503 11.5164 135.728C11.7163 135.947 11.8071 136.141 11.8365 136.216C11.8613 136.28 11.739 135.976 11.739 134.867H3.29598ZM13.6704 143.899C55.3321 147.371 96.7742 149.832 138.676 150.138L138.738 141.695C97.1208 141.391 55.9063 138.947 14.3716 135.485L13.6704 143.899ZM138.676 150.138C148.728 150.211 158.91 150.832 169.214 151.445C179.477 152.055 189.857 152.655 200.106 152.655V144.212C190.145 144.212 180.008 143.628 169.715 143.017C159.464 142.407 149.051 141.77 138.738 141.695L138.676 150.138Z" fill="#EE2F14"/>
<path d="M25.9968 102.069C25.9968 103.427 25.0973 119.481 27.4708 119.481C34.13 119.481 40.3365 119.228 46.8396 117.638C47.5941 117.454 49.5969 117.426 49.6264 116.395C49.6732 114.754 49.539 113.22 49.3039 111.604C48.6501 107.109 48.7021 102.509 48.0603 98.016C47.7236 95.6591 47.6177 95.4365 45.4348 95.4365C41.0472 95.4365 37.0076 95.8968 32.6987 96.6572C31.006 96.9559 27.6422 97.9495 26.8259 99.5821" stroke="#EE2F14" stroke-width="8.44299" stroke-linecap="round"/>
<path d="M38.8481 41.5444C38.8481 50.4266 38.8481 59.3088 38.8481 68.191C38.8481 69.7735 44.7171 68.905 45.8034 68.905C49.5952 68.905 50.8368 69.0758 53.4036 66.3486C55.9226 63.6722 58.444 60.7343 60.405 57.6199C61.3388 56.1367 60.6922 53.9345 59.9674 52.5301C59.1199 50.8881 58.2294 49.2928 57.5261 47.5785C57.1454 46.6506 56.8631 45.0476 55.8449 44.5384C55.3744 44.3032 54.5932 44.4463 54.0945 44.4463C52.1006 44.4463 50.1614 44.143 48.1756 44.0548C45.3508 43.9292 42.5054 44.0318 39.6773 44.0318" stroke="#EE2F14" stroke-width="8.44299" stroke-linecap="round"/>
<path d="M115.955 39.4715C115.955 43.7553 115.955 48.039 115.955 52.3227C115.955 55.7303 116.224 55.2246 119.778 55.2246C124.338 55.2246 128.898 55.2246 133.458 55.2246C133.84 55.2246 135.713 55.5002 135.831 54.9712C136.298 52.8696 135.861 50.3383 136.061 48.1772C136.485 43.5998 137.097 39.1702 137.097 34.566C137.097 32.8634 136.954 32.7939 135.255 32.8387C130.662 32.9595 125.594 34.2528 121.183 35.5333C119.865 35.9159 115.826 36.5697 117.199 36.5697" stroke="#EE2F14" stroke-width="8.44299" stroke-linecap="round"/>
<path d="M112.639 104.971C112.639 107.027 111.372 127.771 113.468 127.771C117.704 127.771 121.899 127.654 126.089 128.393C128.623 128.84 131.397 130.299 131.8 127.403C132.414 122.995 133.603 118.649 134.61 114.321C135.189 111.835 135.755 109.346 136.43 106.882C136.507 106.598 137.652 103.854 137.259 103.382C137.017 103.092 135.467 103.313 135.163 103.313C131.567 103.313 127.985 102.919 124.384 102.898C122.82 102.889 114.547 101.569 113.468 103.727" stroke="#EE2F14" stroke-width="8.44299" stroke-linecap="round"/>
<path d="M163.214 70.1485C163.214 75.4302 163.214 80.7119 163.214 85.9936C163.214 87.5655 163.042 89.2452 163.237 90.8071C163.367 91.8459 166.841 91.2953 167.452 91.2907C172.282 91.2547 176.959 90.6514 181.685 89.6785C182.128 89.5873 185.147 89.5341 185.185 88.8034C185.382 85.0729 185.185 81.2767 185.185 77.5413C185.185 75.758 186.329 68.9048 183.32 68.9048C180.268 68.9048 177.27 68.4902 174.223 68.4902C171.375 68.4902 168.526 68.4902 165.678 68.4902C164.869 68.4902 160.838 69.0158 161.141 69.3193" stroke="#EE2F14" stroke-width="8.44299" stroke-linecap="round"/>
<path d="M77.4016 71.3924C77.4016 78.9005 77.4016 86.4085 77.4016 93.9165C77.4016 95.7452 77.9439 95.4366 79.6586 95.4366C83.474 95.4366 87.1077 96.5778 90.8976 96.6802C93.1019 96.7398 92.6318 96.1894 92.7631 94.285C93.2428 87.3288 94.8128 80.508 94.8128 73.5113C94.8128 72.6016 95.6825 65.9807 93.7765 67.0396C91.5078 68.3 73.1606 69.9579 73.6706 70.9779" stroke="#EE2F14" stroke-width="8.44299" stroke-linecap="round"/>
<path d="M49.6265 56.4683C57.1632 64.1557 65.123 70.9129 73.8548 77.242C76.2624 78.9871 79.0773 83.1077 81.9617 83.8288" stroke="#EE2F14" stroke-width="8.44299" stroke-linecap="round"/>
<path d="M48.7974 52.7373C73.1054 52.7373 98.0065 54.257 122.127 50.6646C125.702 50.1321 129.25 49.5498 132.86 49.4209C133.906 49.3835 132.754 49.0063 132.307 49.0063C130.082 49.0063 128.724 50.7327 127.125 52.0694C119.609 58.3513 112.598 65.0317 105.361 71.6226C101.258 75.3587 97.0264 78.9579 92.6019 82.3089C89.8172 84.4179 86.8562 86.2229 84.2648 88.5732C83.7583 89.0325 80.4232 91.4106 80.718 91.7054" stroke="#EE2F14" stroke-width="8.44299" stroke-linecap="round"/>
<path d="M84.8633 87.1455C88.2242 88.2125 91.1555 89.8924 94.2138 91.6365C101.051 95.5358 107.96 99.319 114.688 103.405C118.546 105.748 124.494 108.7 126.319 113.262" stroke="#EE2F14" stroke-width="8.44299" stroke-linecap="round"/>
<path d="M127.148 44.0317V129.43" stroke="#EE2F14" stroke-width="8.44299" stroke-linecap="round"/>
<path d="M126.733 89.6324C144.914 89.6324 163.543 90.9045 181.04 85.0723" stroke="#EE2F14" stroke-width="8.44299" stroke-linecap="round"/>
<path d="M36.3608 115.335C44.0841 114.324 51.5153 111.836 58.908 109.462C71.8953 105.292 84.5731 100.331 97.4845 95.9663C101.46 94.6223 106.394 93.9923 110.151 92.2123C113.522 90.6156 117.764 89.6988 121.344 88.8037" stroke="#EE2F14" stroke-width="8.44299" stroke-linecap="round"/>
<path d="M185.846 130.753C196.442 135.401 206.934 140.832 216.812 146.861C218.009 147.592 219.239 148.237 227.4 151.896" stroke="#EE2F14" stroke-width="8.44299" stroke-linecap="round"/>
<path d="M235.562 138.95C238.511 134.088 242.316 130.789 247.523 127.271C259.484 122.627 261.239 123.02 267.268 123.02C282.495 123.02 301.277 124.069 314.843 131.53C320.411 134.593 323.422 141.686 326.929 146.83C333.505 156.476 333.895 165.776 333.583 177.159L333.582 177.22C333.262 188.868 332.834 204.494 325.662 214.096C320.054 221.603 315.111 228.954 307.555 234.647C299.614 240.63 288.956 248.498 278.675 248.498C267.207 248.498 255.343 244.025 245.179 239.083C238.993 236.075 233.837 233.354 228.928 228.445L228.874 228.391C224.35 223.867 216.389 215.907 215.574 209.388C213.047 189.172 218.68 165.702 229.29 148.46C232.583 143.11 232.336 144.27 235.562 138.95Z" fill="#FFC778" stroke="#EE2F14" stroke-width="8.44299" stroke-linecap="round"/>
<path d="M248.076 157.241C249.257 155.617 251.756 151.892 249.298 154.842C248.164 156.203 249.56 158.346 250.52 156.426" stroke="#EE2F14" stroke-width="8.44299" stroke-linecap="round"/>
<path d="M308.37 155.612C308.282 152.092 306.74 149.914 306.74 154.344C306.74 156.76 308.37 154.576 308.37 153.167" stroke="#EE2F14" stroke-width="8.44299" stroke-linecap="round"/>
<path d="M267.902 98.0104C267.785 94.8501 267.902 91.6619 267.902 88.5026C265.046 90.407 259.803 83.8606 258.217 82.1008C252.546 75.8065 254.533 71.434 255.178 63.176C255.513 58.8847 257.09 55.7536 259.419 52.1929C261.493 49.0228 263.37 45.7904 266.796 43.8327C269.299 42.4022 273.203 43.2819 275.894 43.4228C279.497 43.6116 282.957 44.2675 286.488 44.9801C293.587 46.413 302.149 49.474 304.458 57.1312C305.577 60.8408 303.547 65.8459 301.835 69.0364C299.187 73.9711 295.576 81.3893 290.135 83.7897C289.79 83.9418 288.503 83.9356 288.393 84.343C287.879 86.2549 288.303 88.4923 288.475 90.4288C288.852 94.6683 287.634 99.3711 285.975 103.256C284.56 106.571 281.876 105.845 278.947 105.305C276.398 104.836 274.234 104.924 272.124 103.236C270.753 102.139 267.975 99.9614 267.902 98.0104Z" stroke="#EE2F14" stroke-width="8.44299" stroke-linecap="round"/>
<path d="M272.289 87.0262C271.338 81.6358 268.51 77.0825 268.51 71.6151C268.51 69.0197 273.552 69.771 275.313 69.771C276.443 69.771 279.403 69.7278 278.817 71.7791C278.716 72.1347 277.78 74.6654 277.731 73.8281C277.539 70.5627 283.327 67.1356 286.03 69.2382C287.961 70.7404 286.03 73.2708 286.03 75.372C286.03 77.2102 285.235 82.1062 285.235 83.9304" stroke="#EE2F14" stroke-width="5.62866" stroke-linecap="round"/>
<path d="M232.475 175.405C239.086 182.575 246.176 188.263 256.436 187.757C262.157 187.474 264.988 181.427 267.552 177.011C267.83 176.534 268.307 174.767 269.133 175.158C271.317 176.193 272.937 178.534 274.988 179.827C278.617 182.115 284.236 184.286 288.55 182.717C291.586 181.613 293.24 178.31 294.874 175.776C297.007 172.465 296.829 173.681 299.221 175.949C302.854 179.393 309.293 180.943 313.302 177.283C313.864 176.77 314.491 175.914 314.932 176.986C314.956 177.045 317.086 179.617 317.403 179.194C318.822 177.302 320.598 172.279 320.789 169.987C320.897 168.687 321.258 166.108 321.258 166.108" stroke="#EE2F14" stroke-width="8.44299" stroke-linecap="round"/>
<path d="M334.009 180.187C338.757 180.187 343.528 180.326 348.245 179.667C351.01 179.281 355.017 178.741 356.9 176.356C358.454 174.388 358.272 170.682 358.272 168.269" stroke="#EE2F14" stroke-width="8.44299" stroke-linecap="round"/>
<path d="M225.288 50.2637C228.28 50.2637 231.352 50.7342 234.228 50.7342" stroke="#EE2F14" stroke-width="8.44299" stroke-linecap="round"/>
<path d="M236.581 21.0894C238.542 22.5752 240.494 24.2224 242.698 25.3243" stroke="#EE2F14" stroke-width="8.44299" stroke-linecap="round"/>
<path d="M272.813 5.09082V14.0313" stroke="#EE2F14" stroke-width="8.44299" stroke-linecap="round"/>
<path d="M294.929 24.854C297.997 22.79 301.049 20.3825 304.34 18.7368" stroke="#EE2F14" stroke-width="8.44299" stroke-linecap="round"/>
<path d="M315.633 42.7347C317.685 42.4565 319.684 42.2642 321.75 42.2642" stroke="#EE2F14" stroke-width="8.44299" stroke-linecap="round"/>
<path d="M318.457 75.6733C320.031 75.8868 321.582 76.0224 323.162 76.1439" stroke="#EE2F14" stroke-width="8.44299" stroke-linecap="round"/>
</svg>
