<svg width="330" height="310" viewBox="0 0 330 310" fill="none" xmlns="http://www.w3.org/2000/svg">
<path d="M117.969 85.502C106.574 85.502 97.2176 87.7179 88.7207 95.0819C85.9141 97.5143 66.0657 118.802 72.2588 122.414C76.2636 124.75 80.6503 131.744 82.6208 136.178C84.286 139.925 79.9145 143.64 78.2414 146.384C75.2899 151.224 71.5919 155.299 68.1531 159.796C62.3586 167.373 56.7354 176.055 56.7354 185.798C56.7354 189.089 59.1289 192.428 61.6622 194.44C65.2562 197.294 67.4098 199.851 70.1864 203.512M98.6135 229.397C102.523 234.175 108.335 235.419 114.293 235.419C123.646 235.419 133.359 233.821 141.899 229.632C146.03 227.605 150.834 226.291 154.568 223.61C158.225 220.985 160.46 217.344 163.366 213.991C167.893 208.767 173.081 204.038 176.7 198.115C184.049 186.089 176.508 172.692 179.497 159.617C179.878 157.947 180.134 155.695 181.452 154.377C183.952 151.877 183.249 152.299 186.144 149.763C188.037 148.105 195.564 141.679 192.746 140.27" stroke="#EE2F14" stroke-width="7.03504" stroke-linecap="round"/>
<path d="M109.523 143.216C110.319 143.789 113.801 145.698 113.003 142.904C112.769 142.086 110.336 142.287 110.227 143.216C110.1 144.296 108.592 146.255 110.579 146.696C111.836 146.976 112.099 145.096 113.042 144.624" stroke="#EE2F14" stroke-width="7.03504" stroke-linecap="round"/>
<path d="M144.011 113.655C148.888 117.202 148.19 112.99 147.53 112.951C145.356 112.823 144.715 112.812 144.715 115.063" stroke="#EE2F14" stroke-width="7.03504" stroke-linecap="round"/>
<path d="M88.4077 153.774C89.4379 158.581 92.5548 162.982 96.5018 166.052C99.5691 168.437 103.578 168.682 107.098 169.962C111.174 171.444 116.147 170.666 120.471 170.666C127.91 170.666 137.957 167.892 144.05 163.628C149.129 160.072 155.894 158.318 160.199 153.774C166.685 146.927 171.123 139.02 175.136 130.547C177.212 126.163 178.693 107.855 172.868 105.913" stroke="#EE2F14" stroke-width="7.03504" stroke-linecap="round"/>
<path d="M193.435 139.853C191.558 141.731 191.182 130.512 191.117 127.353C197.19 117.745 204.295 106.649 212.006 98.2139C214.217 95.7958 216.312 92.3258 218.833 90.3203C220.077 89.3305 220.407 96.2696 222.059 97.9503C221.471 101.18 213.73 113.961 212.986 115.024C210.151 119.074 207.525 123.199 204.892 127.38C202.812 130.684 202.634 132.47 201.686 135.787C201.273 137.233 194.895 138.394 193.435 139.853Z" fill="#FFC778"/>
<path d="M191.104 126.552C191.104 126.987 191.286 142.003 193.435 139.853C194.895 138.394 201.273 137.233 201.686 135.787C202.634 132.47 202.812 130.684 204.892 127.38C207.525 123.199 210.151 119.074 212.986 115.024C213.818 113.835 223.411 97.974 221.941 97.2392M191.104 127.373C197.18 117.76 204.29 106.655 212.006 98.2139C214.217 95.7958 216.312 92.3258 218.833 90.3203C220.161 89.264 220.447 97.2377 222.41 98.2139" stroke="#EE2F14" stroke-width="7.03504" stroke-linecap="round"/>
<path d="M210.802 112.951C219.387 116.451 228.329 125.119 237.535 121.018" stroke="#EE2F14" stroke-width="7.03504" stroke-linecap="round"/>
<path d="M242.451 104.78C244.633 98.674 249.127 93.169 253.087 88.12C257.048 83.071 256.923 82.9267 262.574 79.7899C265.651 78.0815 272.885 79.5026 276.212 79.5026C282.947 79.5026 289.664 80.9748 295.952 83.2368C302.403 85.5573 309.911 87.5507 314.733 92.5883C320.12 98.2153 325.027 107.157 325.497 115.153C326.132 125.937 325.792 140.122 317.8 148.442C312.85 153.593 306.435 158.246 299.721 160.762C295.612 162.301 291.455 164.772 286.977 165.07C274.766 165.884 261.008 164.059 251.81 155.208C248.843 152.354 246.176 149.698 243.633 146.431C241.125 143.209 237.659 137.457 237.564 133.377C237.41 126.78 237.849 121.123 239.736 114.994C240.754 111.688 241.269 108.086 242.451 104.78Z" fill="#FFD6F3" stroke="#EE2F14" stroke-width="7.03504" stroke-linecap="round"/>
<path d="M276.463 165.714C276.463 172.19 282.56 178.306 282.56 184.708" stroke="#EE2F14" stroke-width="7.03504" stroke-linecap="round"/>
<path d="M297.125 162.899C297.125 167.537 296.553 171.926 300.759 176.349C301.81 177.455 303.665 179.108 303.665 180.253" stroke="#EE2F14" stroke-width="7.03504" stroke-linecap="round"/>
<path d="M255.263 110.371C255.263 110.205 255.726 108.248 254.607 108.521C253.894 108.696 253.952 109.083 253.952 109.411C253.952 110.156 254.561 110.76 255.263 109.731" stroke="#EE2F14" stroke-width="7.03504" stroke-linecap="round"/>
<path d="M276.463 112.013C272.966 112.89 276.143 114.524 276.143 113.084" stroke="#EE2F14" stroke-width="7.03504" stroke-linecap="round"/>
<path d="M251.84 123.503C254.327 127.323 261.643 131.067 266.273 128.752C267.436 128.17 270.979 127.211 271.521 126.127" stroke="#EE2F14" stroke-width="7.03504" stroke-linecap="round"/>
<path d="M12.5364 221.756C16.1856 218.207 17.1145 216.6 23.4359 213.52C28.9036 210.617 30.4915 209.814 35.3612 209.814C45.925 209.814 57.1467 210.611 66.6277 215.667C71.2723 218.144 77.5022 219.988 80.8932 224.227C83.8949 227.979 87.4143 233.208 88.8054 237.845C92.1105 248.862 92.8892 263.11 86.6582 273.347C84.8136 276.377 82.5999 279.467 80.3637 282.23C77.9086 285.263 76.2276 288.888 73.6575 291.848C68.2013 298.131 56.663 299.146 49.009 297.584C35.5782 294.843 25.0349 287.271 14.3012 279.053C3.37805 270.69 3.28994 255.726 4.53596 243.404C4.90718 239.733 5.98768 236.166 7.06551 232.639C7.74544 230.414 8.43549 229.339 9.48307 225.746C10.7805 223.716 11.3005 222.958 12.5364 221.756Z" fill="#FFD6F3" stroke="#EE2F14" stroke-width="7.03504" stroke-linecap="round"/>
<path d="M43.8283 225.98C45.0615 225.113 45.6929 224.517 43.8782 224.577C43.0832 224.604 43.2777 225.379 44.0528 225.379" stroke="#EE2F14" stroke-width="7.03504" stroke-linecap="round"/>
<path d="M65.646 241.032C67.0734 242.117 66.8174 240.786 66.7718 240.775C66.141 240.627 65.1597 241.303 66.159 241.303" stroke="#EE2F14" stroke-width="7.03504" stroke-linecap="round"/>
<path d="M58.6567 226.227C59.9578 226.227 61.8274 225.885 63.1276 226.256C63.6746 226.412 63.7752 227.462 64.2159 227.815C65.088 228.513 65.0841 229.551 65.5395 230.462" stroke="#EE2F14" stroke-width="7.03504" stroke-linecap="round"/>
<path d="M88.3052 236.286C88.7411 235.837 93.1579 229.758 92.0113 232.051" stroke="#EE2F14" stroke-width="7.03504" stroke-linecap="round"/>
<path d="M92.0115 219.344C91.7833 215.008 90.3418 207.694 89.9952 202.66C89.9648 202.689 89.9651 202.631 89.9651 202.179C89.9651 202.179 89.9651 202.179 89.9651 202.179C89.9651 200.824 90.773 199.317 91.4821 198.431C92.2214 197.507 95.695 196.102 96.2176 197.931C97.899 203.816 98.3648 209.515 98.3648 215.638C98.3648 217.682 98.2297 219.471 97.7177 221.462C97.4074 222.669 97.6293 224.374 97.0412 225.433C95.7434 227.769 95.1805 227.174 93.3351 225.697C92.3794 224.933 92.0794 220.634 92.0115 219.344Z" fill="#FFC778"/>
<path d="M89.9268 201.241C90.0453 206.221 91.7608 214.58 92.0115 219.344C92.0794 220.634 92.3794 224.933 93.3351 225.697C95.1805 227.174 95.7434 227.769 97.0412 225.433C97.6293 224.374 97.4074 222.669 97.7177 221.462C98.2297 219.471 98.3648 217.682 98.3648 215.638C98.3648 209.515 97.899 203.816 96.2176 197.931C95.695 196.102 92.2214 197.507 91.4821 198.431C90.773 199.317 89.9651 200.824 89.9651 202.179C89.9651 203.294 89.9636 202.012 90.4232 202.931" stroke="#EE2F14" stroke-width="7.03504" stroke-linecap="round"/>
<path d="M36.9493 293.466C36.4682 297.529 34.8315 301.599 34.8315 305.643" stroke="#EE2F14" stroke-width="7.03504" stroke-linecap="round"/>
<path d="M77.187 290.289C79.7937 294.344 82.6646 297.884 86.0699 301.29C86.9438 302.164 87.6712 303.137 88.8347 303.525" stroke="#EE2F14" stroke-width="7.03504" stroke-linecap="round"/>
<path d="M81.8267 21.1436C87.8743 7.07522 95.334 7.249 100.823 5.95754C101.445 4.71352 108.199 4.37256 110.068 4.37256C115.012 4.37256 119.93 4.80497 124.832 5.45856C127.472 5.81053 130.772 7.72803 133.168 8.83398C137.194 10.6922 141.059 13.0514 143.089 17.1111C149.133 29.2 147.215 36.4717 141.326 47.7979C138.621 52.9995 132.864 59.4315 128.03 62.6204C122.861 66.0297 118.574 66.0546 112.649 66.0546H95.4201C89.448 62.6204 88.4363 61.5121 85.8809 58.3057C81.645 52.9909 79.3638 42.8691 79.3638 35.7584C79.3638 28.6477 80.3348 24.6143 81.8267 21.1436Z" fill="#FAA694" stroke="#EE2F14" stroke-width="7.03504" stroke-linecap="round"/>
<path d="M101.759 39.7866C102.888 39.7866 102.435 39.7866 101.938 39.7866C101.735 39.7866 101.931 39.7866 102.219 39.7866" stroke="#EE2F14" stroke-width="7.03504" stroke-linecap="round"/>
<path d="M124.115 39.7862C124.605 39.0695 125.277 37.5804 124.024 37.9759C123.612 38.1058 123.29 39.5255 123.932 39.5255" stroke="#EE2F14" stroke-width="7.03504" stroke-linecap="round"/>
<path d="M102.932 52.6865C105.98 55.615 117.041 56.1681 119.838 50.5732" stroke="#EE2F14" stroke-width="7.03504" stroke-linecap="round"/>
<path d="M97.8484 69.811C96.2233 72.6711 95.2571 76.0268 93.9302 79.0493C93.5572 79.8988 92.9844 82.5949 92.9844 81.6671" stroke="#EE2F14" stroke-width="7.03504" stroke-linecap="round"/>
<path d="M117.304 69.5068C117.304 70.4337 116.725 74.3855 117.912 74.9788" stroke="#EE2F14" stroke-width="7.03504" stroke-linecap="round"/>
<path d="M137.368 57.0425C138.816 58.4899 140.285 59.8413 141.928 61.062C142.411 61.4205 143.194 61.7017 143.448 62.2105" stroke="#EE2F14" stroke-width="7.03504" stroke-linecap="round"/>
<path d="M142.562 64.6433C135.858 71.1377 129.775 75.389 121.458 84.6369C123.234 84.9944 127.931 86.8037 128.961 86.8037C130.615 86.8037 136.108 81.9373 137.403 81.0584C143.069 77.214 142.002 77.3704 146.826 72.5464C149.144 70.2288 151.977 68.4363 154.341 66.1624C155.149 65.3855 156.485 62.9656 157.736 62.8184C158.241 62.7591 153.989 57.4184 153.666 56.7722C152.821 55.0816 150.848 57.9043 150.001 58.63C147.616 60.6738 144.84 62.4372 142.562 64.6433Z" fill="#FFC778"/>
<path d="M120.988 85.1622C129.548 75.5476 135.733 71.2594 142.562 64.6433C144.84 62.4372 147.616 60.6738 150.001 58.63C150.848 57.9043 152.821 55.0816 153.666 56.7722C153.989 57.4184 158.241 62.7591 157.736 62.8184C156.485 62.9656 155.149 65.3855 154.341 66.1624C151.977 68.4363 149.144 70.2288 146.826 72.5464C142.002 77.3704 143.069 77.214 137.403 81.0584C136.108 81.9373 130.615 86.8037 128.961 86.8037C127.818 86.8037 122.16 84.5759 120.988 84.5759" stroke="#EE2F14" stroke-width="7.03504" stroke-linecap="round"/>
<path d="M171.371 207.82C175.698 214.456 182.654 219.076 186.962 225.538" stroke="#EE2F14" stroke-width="7.03504" stroke-linecap="round"/>
<path d="M60.1054 166.007C51.0423 166.007 43.3474 164.34 34.5923 162.464" stroke="#EE2F14" stroke-width="7.03504" stroke-linecap="round"/>
</svg>
