<svg id="Layer_1" data-name="Layer 1" xmlns="http://www.w3.org/2000/svg" viewBox="0 0 200 200"><defs><style>.cls-1{fill:#231f20;}</style></defs><path class="cls-1" d="M94.55,94.08c4.37,0,7.08-3,7.08-7.94s-2.71-8-7.08-8-7.14,2.91-7.14,8C87.41,91,90.12,94.08,94.55,94.08Z"/><path class="cls-1" d="M183.89,76.47c-7.49-16.15-15.49-23.95-26.11-38.26C145.78,22,128.18,7.52,108.53,8c-21.41.53-33.78,15.61-46.09,30.08-14.71,17.3-40.2,22.28-50.82,44-9.29,19-2.6,42.56,7.43,62,7.9,15.28,18.29,30,33,38.88,18.85,11.33,42.53,11.28,62.67,4.27S161.6,154,174.35,137C180.35,129,195.39,101.22,183.89,76.47ZM94.55,63.79c13.36,0,23,9.39,23,22.35s-9.59,22.42-23,22.42-23-9.39-23-22.42S81.19,63.79,94.55,63.79ZM53,109.67H45.9v6c0,4.89-2.45,7.47-7.08,7.47H36.18c-4.44,0-6.82-3.57-6.82-9.52V89c0-6,2.85-9,8.2-9H57.41c5.16,0,7.47,1.92,7.47,6.15v.34c0,4.43-2.31,6.41-7.47,6.41H45.24v4.5H53c5.36,0,7.48,1.92,7.48,5.82v.2C60.52,107.62,58.33,109.67,53,109.67Zm43.15,44.58c0,4-1.89,6.18-7.48,6.18H69.47C62,160.43,60,159.58,60,153v-2.86c0-6.76,7.54-11,12.87-13.32,4.62-2,7.8-2.67,7.8-4.42s-1.1-2.67-3.9-2.67a6.71,6.71,0,0,0-6.43,5.85c0,.07-10.21.59-10.21-6.95a9.23,9.23,0,0,1,4.62-8.19c3-2,7.41-2.92,13-2.92,12,0,18.26,5.2,18.26,14,0,8.25-5.33,10.65-11,12.6-3.44,1.17-7.08,1.82-9.55,3.06A12.85,12.85,0,0,0,74,148H88.71c5.53,0,7.48,2.08,7.48,5.78Zm46.07-7.34c0,4-1.89,6.17-7.48,6.17H115.55c-7.48,0-9.49-.84-9.49-7.47v-2.86c0-6.76,7.54-11,12.87-13.33,4.61-2,7.8-2.66,7.8-4.42s-1.11-2.66-3.91-2.66a6.71,6.71,0,0,0-6.43,5.85c0,.06-10.2.58-10.2-7A9.23,9.23,0,0,1,110.8,113c3-2,7.41-2.92,13-2.92,12,0,18.26,5.2,18.26,14,0,8.25-5.33,10.66-11.05,12.61-3.44,1.17-7.08,1.82-9.55,3a12.64,12.64,0,0,0-1.36.78h14.68c5.53,0,7.48,2.08,7.48,5.79Zm16-59.08c0,4.63-2.45,7.08-7.48,7.08H132.36c-5.36,0-8.2-2.91-8.2-8.87V59.26c0-5,2.38-7.48,6.81-7.48h2.32c4.62,0,7.07,2.45,7.07,7.48V81h10.45c5,0,7.48,2.25,7.48,6.68Z"/></svg>