<svg id="Layer_1" data-name="Layer 1" xmlns="http://www.w3.org/2000/svg" viewBox="0 0 180 180"><defs><style>.cls-1{fill:#221f20;}</style></defs><path class="cls-1" d="M85.31,84.8c3.83,0,6.21-2.67,6.21-7s-2.38-7-6.21-7S79,73.37,79,77.84C79,82.13,81.42,84.8,85.31,84.8Z"/><path class="cls-1" d="M163.71,69.35c-6.58-14.17-13.6-21-22.92-33.57-10.53-14.2-26-26.94-43.21-26.5C78.79,9.75,67.93,23,57.13,35.68,44.23,50.86,21.86,55.22,12.54,74.27c-8.15,16.66-2.28,37.34,6.52,54.36C26,142,35.11,155,48,162.75c16.55,9.94,37.32,9.89,55,3.74s41.13-29.13,52.32-44C160.6,115.48,173.8,91.07,163.71,69.35ZM85.31,58.22c11.73,0,20.14,8.24,20.14,19.62S97,97.51,85.31,97.51s-20.2-8.24-20.2-19.67S73.59,58.22,85.31,58.22ZM48.89,98.49H42.62v5.22c0,4.3-2.15,6.56-6.21,6.56H34.09c-3.89,0-6-3.13-6-8.36V80.38c0-5.22,2.49-7.89,7.19-7.89H52.72c4.52,0,6.55,1.68,6.55,5.4v.29c0,3.88-2,5.63-6.55,5.63H42v3.94h6.85c4.7,0,6.55,1.69,6.55,5.11V93C55.44,96.69,53.53,98.49,48.89,98.49Zm37.86,39.12c0,3.48-1.66,5.42-6.56,5.42H63.3c-6.55,0-8.32-.75-8.32-6.56V134c0-5.93,6.61-9.64,11.29-11.69,4-1.77,6.84-2.34,6.84-3.88s-1-2.34-3.42-2.34a5.88,5.88,0,0,0-5.64,5.13c0,.06-9,.52-9-6.1a8.11,8.11,0,0,1,4-7.19c2.62-1.71,6.5-2.56,11.41-2.56,10.49,0,16,4.56,16,12.32,0,7.24-4.67,9.35-9.69,11.06-3,1-6.22,1.6-8.39,2.68a13.61,13.61,0,0,0-1.19.68H80.19c4.84,0,6.56,1.83,6.56,5.08Zm22.63.64c-4.61,0-8.48-.85-11.16-2.39S94,132.1,94,129.48c0-6.89,8.14-6.61,8.26-6.15.73,3.08,3.24,4.61,6.94,4.61,2.85,0,4.5-1,4.5-2.56,0-1.42-.68-1.94-2.45-1.94h-.45c-4.45,0-6.38-1.36-6.38-4.38v-.74c0-3,2-4.45,6.26-4.45H112a1.51,1.51,0,0,0,1.6-1.53c0-1.43-1.71-2.34-4.56-2.34-5,0-6.21,2.79-6.49,4.61-.06.52-8,1-8-6.15,0-2.73,1.42-4.89,4-6.43s6.26-2.34,10.82-2.34c11.16,0,17,3.65,17,10.54,0,3.47-2.45,6-6.78,7.29,4.61,1.54,7.18,4.67,7.18,9.11C126.76,134.1,120.61,138.25,109.38,138.25Zm31.86-58.93c0,4.06-2.15,6.21-6.56,6.21H118.49c-4.7,0-7.2-2.55-7.2-7.78V54.25c0-4.41,2.09-6.56,6-6.56h2c4.06,0,6.21,2.15,6.21,6.56v19h9.17c4.41,0,6.56,2,6.56,5.87Z"/></svg>