<svg width="146" height="36" viewBox="0 0 146 36" fill="none" xmlns="http://www.w3.org/2000/svg">
<g clip-path="url(#clip0_201_46)">
<path d="M75.8806 8.21764V8.58947C75.8902 9.20284 76.1377 9.7884 76.5709 10.2222C77.004 10.6559 77.5887 10.9039 78.2012 10.9135C78.8177 10.9057 79.4074 10.6595 79.8468 10.2264C80.2863 9.79323 80.5414 9.2067 80.5589 8.58947C80.7384 7.02156 79.6926 5.18717 78.8324 3.95391C77.648 2.27194 75.9323 1.03848 73.9622 0.452442C72.2045 -0.132627 70.3069 -0.145641 68.5413 0.41526C66.8024 1.09076 65.4843 2.69586 64.6551 4.33814C64.2037 5.29285 63.8392 6.28637 63.5659 7.30664C63.4545 7.69087 63.3741 8.0813 63.2751 8.47172C63.238 8.63285 63.1699 8.80638 63.1389 8.9737C63.108 9.14103 63.1018 9.10385 63.2008 8.86215C63.3635 8.62812 63.6017 8.4574 63.8753 8.37876H64.0858C63.9455 8.37876 63.8032 8.37876 63.6588 8.37876C63.4422 8.37876 63.2256 8.31679 63.009 8.3044C62.5181 8.27833 62.0261 8.32426 61.5486 8.44074C60.6647 8.7076 59.7986 9.03051 58.9557 9.40751C57.2168 10.0706 55.5769 10.647 54.4444 12.2273C53.4019 13.7887 52.9278 15.6619 53.1016 17.5322C53.4976 21.7525 56.994 24.752 61.0659 25.3531L59.6735 24.281C59.5388 24.0536 59.4597 23.7975 59.4425 23.5337C59.4253 23.2699 59.4705 23.0057 59.5745 22.7627C59.4322 22.9734 59.4445 22.961 59.6116 22.7627C59.4569 22.9548 59.2898 23.1407 59.1289 23.3328C58.6582 23.8732 58.3061 24.5066 58.0955 25.192C57.7869 26.4394 57.6721 27.727 57.7551 29.0095C57.7379 30.4049 58.1914 31.7653 59.0423 32.8704C59.9254 33.8555 61.0758 34.5619 62.353 34.9031C64.9827 35.7355 67.8283 35.552 70.3297 34.3888C71.4543 33.9128 72.4758 33.2224 73.3372 32.356C73.6405 32.0214 73.9189 31.6681 74.2283 31.3459L74.5006 31.0732C74.6987 30.8997 74.6801 30.9059 74.4387 31.1042C74.9895 30.9493 73.5662 31.1042 74.0736 31.1971L72.0748 30.0445C73.1028 32.364 74.8938 34.2605 77.1492 35.4175C78.4058 36.0202 79.8228 36.2016 81.1904 35.9348C82.5579 35.668 83.8034 34.9673 84.7422 33.9363C87.923 30.5216 88.2448 24.814 86.3326 20.7114L85.5096 23.841C88.6903 21.8702 92.2362 18.8832 92.5023 14.8735C92.8055 10.2256 87.6321 6.75508 83.3808 7.00917C81.8895 7.10189 80.4374 7.52524 79.1295 8.24862C78.5546 8.58166 78.033 8.9995 77.5824 9.48808L77.0254 10.0458C77.0254 10.0768 76.7841 10.3309 76.9388 10.1388C77.044 10.0582 77.044 10.0644 76.9388 10.1388C76.8336 10.2194 76.8274 10.207 77.0873 10.0706L80.0268 12.3078C80.0268 11.998 79.9772 12.0414 79.9092 12.4256C79.8921 12.5786 79.8381 12.7251 79.7519 12.8525C79.6656 12.9799 79.5497 13.0844 79.4141 13.1569C79.9321 12.8321 80.3064 12.3213 80.4606 11.7291C80.6148 11.1369 80.537 10.5081 80.2433 9.97147C79.6616 8.9737 78.0836 8.39736 77.0688 9.14103C76.0539 9.88471 75.2123 10.9444 75.3855 12.3078C75.5526 13.789 76.7284 14.9789 78.3188 14.5513C79.5564 14.2104 80.3547 13.2498 81.2582 12.3946C80.9241 12.7107 81.3634 12.345 81.4686 12.2831C81.661 12.1572 81.8691 12.0572 82.0875 11.9856C82.335 11.8988 82.5825 11.8183 82.8424 11.7501C83.1023 11.6819 83.1828 11.6695 83.3499 11.6385C83.158 11.6385 83.2075 11.6385 83.4984 11.6385C83.7892 11.6385 83.9501 11.6385 84.1729 11.6385C84.3957 11.6385 84.4637 11.6385 84.21 11.6385L84.538 11.7067C84.7959 11.7609 85.0501 11.8313 85.2992 11.9174C85.3672 11.9174 85.918 12.1839 85.59 12.0166C85.8658 12.1449 86.1325 12.2919 86.3883 12.4566C86.4564 12.5 86.97 12.8718 86.6544 12.6177C86.8546 12.7861 87.0447 12.9661 87.2237 13.1569C87.298 13.2312 87.3722 13.318 87.4465 13.4048C87.3104 13.2188 87.3227 13.2436 87.4774 13.4605C87.6321 13.6774 87.7064 13.8324 87.793 14.0307C87.5826 13.5783 87.8426 14.3282 87.8735 14.4273C87.7312 13.9749 87.8735 14.3653 87.8735 14.5575C87.8799 14.6834 87.8799 14.8096 87.8735 14.9355C87.9168 14.6566 87.9168 14.607 87.8735 14.7806C87.7941 14.9809 87.734 15.1885 87.694 15.4003C87.5393 15.8837 87.8611 15.1586 87.6136 15.5614C87.4712 15.7907 87.3537 16.0262 87.2052 16.2493C87.2052 16.2865 86.7905 16.8195 87.0876 16.4476C86.4684 17.2103 85.7692 17.9042 85.0021 18.5175C84.965 18.5175 84.4328 18.9575 84.835 18.6539L84.2162 19.1125C83.8821 19.3479 83.5355 19.5711 83.189 19.7818C82.671 20.1065 82.2966 20.6173 82.1425 21.2095C81.9883 21.8017 82.066 22.4305 82.3597 22.9672C82.5949 23.4753 82.2112 22.4714 82.3597 23.0229C82.3969 23.1345 82.4402 23.246 82.4711 23.3514C82.5639 23.6427 82.6382 23.9339 82.7001 24.2252C82.7434 24.4111 82.7744 24.5908 82.8053 24.7768C82.8053 24.6962 82.7558 24.281 82.8053 24.7272C82.8548 25.1734 82.8672 25.508 82.8672 25.9047C82.8672 26.3013 82.8672 26.5678 82.83 26.8962C82.83 27.0326 82.83 27.1627 82.7929 27.2991C82.8486 26.7289 82.7929 27.3796 82.762 27.4726C82.7054 27.7987 82.631 28.1214 82.5392 28.4394C82.5103 28.5633 82.4732 28.6873 82.4278 28.8112C82.4278 28.8794 82.1555 29.5363 82.2731 29.2636C82.3907 28.9909 82.1555 29.4991 82.1555 29.5053L81.9761 29.8399C81.8832 30.0011 81.7718 30.1498 81.679 30.3109C81.4624 30.6642 81.6481 30.3543 81.71 30.3109C81.5119 30.5464 81.3015 30.7509 81.0911 30.9679C80.7013 31.3521 81.5553 30.7509 80.9364 31.0732C80.856 31.1166 80.2681 31.4079 80.6827 31.2467C80.5156 31.3087 80.3362 31.3335 80.1753 31.3893C79.8782 31.4946 80.6394 31.4388 80.0886 31.3893C80.0886 31.3893 79.4698 31.3335 79.804 31.3893C80.1381 31.445 79.5317 31.3149 79.5255 31.3087L79.148 31.1848C79.6307 31.3707 79.0181 31.098 78.9562 31.0608L78.6034 30.8439C78.4797 30.7633 78.3683 30.6828 78.2507 30.596C78.4116 30.7138 78.4302 30.7262 78.3002 30.596C78.0267 30.3562 77.7664 30.1018 77.5205 29.8337C77.3967 29.6974 77.2792 29.5611 77.1616 29.4185C77.4215 29.7284 77.1245 29.369 77.0688 29.2884C76.5923 28.6191 76.3076 27.7205 75.7321 27.1441C73.9622 25.3717 71.6664 27.1441 70.4411 28.5571C70.2493 28.7802 70.0265 28.9909 69.8223 29.2264C69.7604 29.307 69.4572 29.6354 69.9832 29.1397C69.8223 29.2681 69.6504 29.3822 69.4696 29.4805C68.8227 29.9262 68.1108 30.269 67.3593 30.4969C65.9964 30.8317 64.5634 30.7364 63.2565 30.2242C63.5845 30.3419 63.2565 30.2242 63.1884 30.1932C62.9871 30.0951 62.7928 29.9833 62.6068 29.8585C62.91 30.0816 62.6068 29.8585 62.6068 29.8028L62.4706 29.654C62.6377 29.8647 62.6501 29.8585 62.5139 29.654C62.6377 30.156 62.5758 29.654 62.5139 29.654C62.4706 29.4681 62.4149 29.2822 62.384 29.0901C62.384 29.5487 62.384 29.1954 62.384 29.0901C62.384 28.8856 62.384 28.6811 62.384 28.4704C62.384 28.0985 62.384 27.7329 62.4273 27.3672C62.4292 27.1208 62.4437 26.8747 62.4706 26.6298C62.4211 26.983 62.4706 26.5864 62.4706 26.5306L62.5387 26.2951C62.4644 26.4191 62.4644 26.4067 62.5387 26.2579C62.5387 26.1712 62.8976 25.9109 62.4768 26.3323C62.8338 25.9651 63.155 25.5645 63.436 25.1362C63.7666 24.6777 63.9656 24.1373 64.0114 23.5736C64.0572 23.0099 63.9481 22.4444 63.6959 21.9384C63.0771 20.8043 62.0065 20.7795 60.905 20.4573C60.7441 20.4139 60.5832 20.3519 60.4161 20.3023C59.7973 20.1226 60.6636 20.4325 60.3171 20.3023C60.0209 20.168 59.7336 20.0148 59.4569 19.8437L59.0547 19.5772C59.1599 19.664 59.4198 19.8251 59.0547 19.5772C58.776 19.3322 58.5134 19.0693 58.2688 18.7902C58.5906 19.162 58.3245 18.8646 58.2688 18.7468C58.2131 18.6291 58.1079 18.4927 58.0336 18.3564C58.0336 18.3564 57.7675 17.811 57.9098 18.1457C58.0522 18.4803 57.8418 17.9226 57.8356 17.904C57.7861 17.7614 57.6376 16.8504 57.6871 17.4268C57.6561 17.0328 57.6561 16.6371 57.6871 16.2431C57.5942 16.6955 57.6871 16.3423 57.6871 16.2431C57.7304 16.0262 57.7737 15.8155 57.8356 15.6234C57.8975 15.4313 57.9222 15.3383 57.9717 15.1958C58.1883 14.5203 57.8542 15.3693 58.0398 15.047C58.1203 14.9045 58.2007 14.7682 58.2873 14.6318C57.9965 15.0718 58.2131 14.6752 58.3307 14.6318C58.8319 14.3096 58.4482 14.5884 58.3307 14.6318C58.4792 14.5451 58.6153 14.4459 58.77 14.3653C58.9247 14.2848 59.3888 14.0803 58.8567 14.3034L59.2032 14.167L60.1438 13.82C60.9421 13.5163 61.7218 13.2003 62.5201 12.9028C62.9224 12.7602 62.6872 12.8594 62.5201 12.8656C62.7271 12.8608 62.9341 12.8733 63.1389 12.9028C63.4937 12.9503 63.8519 12.9669 64.2095 12.9524C64.8042 12.9199 65.3816 12.7404 65.8902 12.4301C66.3988 12.1197 66.8227 11.6881 67.1242 11.1737C67.5053 10.3232 67.7857 9.43092 67.9596 8.51511C68.1454 7.70774 68.4367 6.92843 68.826 6.19732C68.9559 5.99281 69.0921 5.7883 69.2344 5.5776C69.2344 5.53421 69.6985 4.95787 69.3644 5.38548C69.5824 5.12373 69.8203 4.87925 70.076 4.6542C69.6861 4.99505 69.8532 4.83392 69.977 4.75336C70.1998 4.64181 70.1503 4.6542 69.8285 4.79054C69.9256 4.75393 70.0248 4.7229 70.1255 4.69758C70.2307 4.6666 70.3421 4.648 70.4473 4.62321C69.8285 4.77195 70.4906 4.62321 70.6639 4.62321H71.2765C71.2765 4.62321 72.0191 4.67899 71.5736 4.62321C72.0324 4.70116 72.4852 4.81091 72.9288 4.95167C73.6095 5.14378 72.7617 4.85251 73.133 5.02604C73.3819 5.13933 73.6237 5.26764 73.857 5.41027C73.987 5.49083 74.1231 5.5776 74.2469 5.67056C73.9684 5.46605 74.513 5.93704 74.5749 5.99901C74.6368 6.06098 74.7853 6.2407 74.8967 6.35226C74.4697 5.92464 74.7977 6.23451 74.8967 6.38944C75.1208 6.7106 75.3274 7.04367 75.5155 7.3872C75.596 7.54213 75.6702 7.69706 75.7507 7.8458C75.8311 7.99453 75.8063 7.96975 75.7135 7.75284C75.763 7.87059 75.8063 7.98834 75.8497 8.10609C75.893 8.22383 75.9054 8.33538 75.9425 8.44693C76.0848 8.85596 75.9858 7.95115 75.9425 8.5337H80.5589V8.16186C80.5589 7.5455 80.3145 6.95439 79.8793 6.51856C79.4441 6.08273 78.8538 5.83788 78.2383 5.83788C77.6229 5.83788 77.0326 6.08273 76.5974 6.51856C76.1622 6.95439 75.9177 7.5455 75.9177 8.16186L75.8806 8.21764Z" fill="#004D2B"/>
<path d="M132.794 29.1459C133.079 29.0157 132.609 29.2202 132.534 29.245C132.342 29.3132 132.138 29.369 131.916 29.4185L131.427 29.5239C131.742 29.4681 131.34 29.5239 131.297 29.5239C130.87 29.5239 130.461 29.5239 130.059 29.5239C130.028 29.5239 129.607 29.4805 129.923 29.5239C129.668 29.4899 129.416 29.4402 129.168 29.3752C127.821 29.0493 126.568 28.4126 125.511 27.516C124.892 27.0078 124.304 26.4686 123.685 25.9667C123.301 25.6568 122.912 25.3469 122.509 25.0681L122.126 24.8016C121.705 24.5165 122.212 24.9193 121.872 24.6095C121.736 24.4793 121.587 24.3492 121.464 24.2066C121.216 23.9216 121.662 24.6157 121.309 23.9711C121.136 23.6489 120.95 23.3514 120.77 23.023C120.337 22.2483 119.916 21.4612 119.533 20.6556C118.792 19.2251 118.277 17.6887 118.004 16.1006C117.819 14.762 118.004 13.002 117.942 11.4898C117.942 11.3287 118.041 11.0188 117.911 11.3535C117.676 11.9732 118.19 10.7337 117.8 11.7191C117.8 11.7687 117.478 12.1963 117.8 11.7997C117.571 12.0848 117.565 11.936 117.732 11.874C117.732 11.874 118.239 11.6324 117.936 11.7687C117.633 11.905 118.233 11.6571 118.227 11.6571C118.543 11.5394 118.846 11.434 119.186 11.3287C119.527 11.2233 119.712 11.1552 119.985 11.0808C120.362 10.9692 119.508 11.0436 120.164 11.0436H120.603C120.523 11.0436 120.207 11.0436 120.603 11.0436C120.684 11.0436 120.95 11.1366 121.123 11.1985C121.476 11.3287 120.715 10.9321 121.265 11.2791C121.457 11.3969 121.655 11.496 121.847 11.62L122.218 11.8864C121.909 11.6509 122.466 12.1033 122.466 12.1033C122.757 12.3636 123.042 12.6363 123.314 12.9152C123.964 13.5349 124.551 14.2414 125.201 14.9045C126.693 16.4786 128.215 18.0032 129.731 19.5649C130.913 20.8043 133.221 20.259 133.611 18.5423C133.817 17.5345 133.844 16.4982 133.692 15.4809C133.655 15.2485 133.683 15.0105 133.772 14.793C133.896 14.3158 134.081 13.8572 134.193 13.3738C134.354 12.6735 134.416 11.9484 134.576 11.2419C134.661 10.8692 134.764 10.501 134.886 10.1388C134.935 9.99627 134.985 9.85373 135.041 9.71119C134.886 10.1016 135.14 9.51908 135.177 9.44471C135.352 9.10336 135.559 8.77961 135.796 8.47794C135.585 8.75062 135.839 8.47794 135.87 8.40977C136.012 8.27343 136.148 8.12469 136.291 7.98835C136.433 7.85201 136.581 7.72806 136.73 7.61032C136.433 7.84581 136.73 7.61032 136.792 7.61032C137.182 7.36862 137.565 7.13932 137.968 6.91622C138.017 6.91622 138.376 6.7365 138.048 6.86664C138.184 6.81087 138.333 6.76129 138.475 6.71171C138.617 6.66213 138.908 6.59396 139.131 6.53818C139.23 6.53818 139.564 6.53818 139.168 6.53818H139.595C140.301 6.48861 139.137 6.60016 139.824 6.53818C139.886 6.53818 140.257 6.69312 139.874 6.53818C139.874 6.53818 140.455 6.89143 140.152 6.66213C140.299 6.78309 140.435 6.91573 140.561 7.05876C140.827 7.33764 140.344 6.64354 140.672 7.1951L140.882 7.56694C141.217 8.11849 140.82 7.33144 140.95 7.68469C141.053 7.98514 141.138 8.29141 141.204 8.60188C141.204 8.60188 141.297 9.27119 141.26 8.93034C141.223 8.58949 141.26 9.30217 141.291 9.37654C141.384 10.8887 141.346 12.438 141.291 13.9501C141.291 14.3839 141.241 14.8116 141.21 15.2392C141.21 15.2702 141.155 15.6916 141.21 15.3817C141.21 15.549 141.161 15.7164 141.13 15.8837C140.95 16.8505 140.647 17.7429 140.375 18.7158C139.855 20.5007 139.36 22.2917 138.735 24.0455C138.149 25.6424 137.313 27.1359 136.26 28.4704C136.291 28.4332 136.619 28.0861 136.359 28.3278C136.099 28.5695 136.841 28.0799 136.47 28.2597C137.046 27.9808 136.792 28.1295 136.606 28.1853C136.099 28.334 136.798 28.1853 136.513 28.2163C135.393 28.3154 134.44 28.7492 133.351 28.9352C132.114 29.1397 131.427 30.6704 131.736 31.7921C131.912 32.3782 132.306 32.8739 132.838 33.1762C133.369 33.4786 133.996 33.5644 134.589 33.4158C135.43 33.2733 136.229 32.9014 136.817 32.8271C137.834 32.7856 138.805 32.3862 139.558 31.6991C140.829 30.3405 141.834 28.7556 142.522 27.0264C143.333 25.0439 144.015 23.0111 144.564 20.9407C145.249 18.8398 145.701 16.6702 145.913 14.4707C146.022 12.7392 146.022 11.0027 145.913 9.27119C145.771 7.20749 145.22 5.21817 143.754 3.69364C140.616 0.421471 135.517 2.13192 132.739 4.98886C131.269 6.5881 130.304 8.58688 129.966 10.7337C129.873 11.2543 129.824 11.7811 129.694 12.2955C129.564 12.8098 129.354 13.318 129.242 13.8448C129.094 14.482 129.037 15.1374 129.075 15.7907C129.075 16.0634 129.125 16.3299 129.143 16.6026C129.153 16.7842 129.153 16.9663 129.143 17.1479C129.143 17.4392 129.143 17.5074 129.112 17.34L132.992 16.3175C131.445 14.731 129.898 13.1569 128.363 11.5456C127.118 10.0897 125.711 8.78182 124.168 7.6475C123.33 7.06618 122.372 6.68084 121.365 6.51994C120.358 6.35905 119.328 6.4267 118.351 6.71791C116.723 7.21369 114.836 7.76525 113.846 9.26499C113.405 9.98994 113.203 10.8357 113.27 11.6819C113.27 12.6983 113.227 13.7084 113.27 14.7186C113.33 16.8818 113.792 19.015 114.632 21.0088C115.384 22.9533 116.32 24.8211 117.429 26.5864C118.057 27.4851 118.851 28.255 119.768 28.8546C120.449 29.3442 120.962 29.778 121.717 30.4225C123.467 32.071 125.591 33.2684 127.906 33.9116C130.315 34.5048 132.854 34.2555 135.102 33.2051C136.241 32.6783 136.526 31.036 135.938 30.0259C135.618 29.5042 135.109 29.1262 134.518 28.9704C133.927 28.8146 133.298 28.893 132.763 29.1892L132.794 29.1459Z" fill="#004D2B"/>
<path d="M17.3706 6.25308C17.5686 5.70772 17.253 6.40801 17.1849 6.52576C17.0364 6.73647 17.0364 6.73647 17.1849 6.52576L16.9065 6.82943C16.5485 7.19523 16.1704 7.54075 15.774 7.86438C14.9386 8.55227 14.0475 9.1782 13.2678 9.92807C11.2689 11.8554 9.36915 13.8881 7.38271 15.8279C5.76984 17.5134 4.31948 19.3477 3.05092 21.3063C1.86277 23.0043 0.495162 24.9007 0.0681706 26.9644C-0.0524648 27.4588 -0.0145676 27.9788 0.176486 28.4504C0.36754 28.9221 0.702049 29.3215 1.13255 29.592C4.41234 31.7239 8.55849 32.889 12.4323 33.4591C15.0438 33.8434 17.6305 33.6079 20.2605 33.6017C22.4346 33.5437 24.6068 33.7729 26.7211 34.2834C28.3177 34.6862 30.0256 35.0952 31.3375 33.7752C32.6495 32.4552 32.4514 29.8151 32.2348 28.0303C31.9013 25.6286 31.3672 23.2592 30.6383 20.9468C30.0194 18.846 29.4006 16.7327 28.7818 14.6256C27.6679 10.9072 24.9512 7.8086 23.5032 4.25136C23.0267 3.08627 21.9623 2.26203 20.6504 2.62767C19.5489 2.92514 18.5464 4.31953 19.0291 5.48462C19.8018 7.41766 20.7332 9.28324 21.8138 11.0622C22.5526 12.1769 23.2262 13.3336 23.8312 14.5265C23.8807 14.6318 24.0849 15.1462 23.8745 14.607L24.0663 15.109C24.1963 15.4808 24.3138 15.8589 24.4129 16.2369C24.6728 17.1975 24.9389 18.1519 25.2235 19.1062C25.8423 21.1575 26.5107 23.2026 27.0243 25.3035C27.1481 25.8179 27.2718 26.3385 27.3708 26.859C27.4265 27.1131 27.4699 27.3672 27.5132 27.6275C27.5132 27.5965 27.6431 28.4331 27.5874 28.0241C27.707 29.0129 27.7463 30.0098 27.705 31.005C27.705 31.5504 27.7545 30.5836 27.705 30.8997C27.6728 30.9931 27.646 31.0883 27.6246 31.1847L27.7793 30.8067C27.6555 31.005 27.7236 30.9183 27.9835 30.5402C28.0639 30.4597 28.856 30.0692 28.6642 30.1188C29.283 29.9577 29.184 30.0568 28.9179 30.0568C28.5033 30.0568 29.5367 30.2056 29.0912 30.0568C28.7694 29.9577 28.429 29.9019 28.1073 29.8213C25.9931 29.2891 23.8261 28.996 21.6467 28.9475C19.3199 28.8917 16.9869 29.1272 14.6601 29.0281C14.3693 29.0281 14.0784 28.9909 13.7938 28.9661C13.5091 28.9413 13.4101 28.9227 13.6452 28.9661L13.2554 28.9103C12.7727 28.8298 12.29 28.7368 11.8073 28.6377C10.8172 28.4269 9.83946 28.1791 8.87409 27.894C7.80867 27.5848 6.76123 27.2165 5.73663 26.7909C6.15124 26.9644 5.47672 26.6731 5.45816 26.6669L4.67843 26.2827C4.25346 26.0675 3.84032 25.8295 3.44078 25.57L4.50516 28.1977C4.54848 27.9869 4.60418 27.7886 4.66606 27.5779C4.70319 27.4664 4.74651 27.361 4.78982 27.2557C4.67225 27.5283 4.66606 27.5407 4.78982 27.299C5.00641 26.8714 5.21682 26.45 5.45816 26.0596C6.02129 25.1114 6.64631 24.2004 7.31464 23.308C7.87159 22.5209 8.42234 21.7215 8.99166 20.9406C8.88027 21.0956 9.25157 20.6246 9.29489 20.575C9.52385 20.3023 9.7652 20.042 10.0127 19.7817C10.4769 19.3046 10.9657 18.8398 11.4484 18.3812C13.3853 16.522 15.1181 14.4087 17.1664 12.6859C19.0229 11.1241 20.9845 9.8599 21.8571 7.48634C22.0169 6.89228 21.9363 6.25907 21.6327 5.72417C21.3292 5.18928 20.8272 4.79589 20.2358 4.6294C19.6431 4.48394 19.0174 4.57112 18.4869 4.87305C17.9564 5.17497 17.5614 5.66875 17.383 6.25308H17.3706Z" fill="#004D2B"/>
</g>
<defs>
<clipPath id="clip0_201_46">
<rect width="146" height="36" fill="white"/>
</clipPath>
</defs>
</svg>
