<svg width="478" height="327" viewBox="0 0 478 327" fill="none" xmlns="http://www.w3.org/2000/svg">
<path d="M359.291 113.574C363.994 114.28 388.688 124.045 389.902 117.977C391.723 108.873 383.31 98.5224 377.471 92.2347C372.933 87.3481 360.971 88.4018 355.044 88.4018C343.51 88.4018 340.272 98.072 336.19 107.566C335.09 110.124 325.613 123.678 330.493 124.762C331.606 125.01 341.083 128.096 338.676 128.44C330.173 129.654 328.908 123.472 322.931 120.308C318.105 117.753 321.46 135.863 315.058 134.034C308.695 132.216 326.718 103.953 327.592 102.594C333.59 93.2645 336.617 82.2772 344.84 74.0545C348.681 70.2137 339.074 78.9783 338.883 79.1823C333.5 84.9472 325.716 91.4128 322.931 99.0717C322.505 100.242 321.886 101 321.066 101.869C320.065 102.929 318.269 107.445 318.269 104.251C318.269 100.537 321.543 98.6611 323.397 95.8086C328.814 87.4735 337.42 77.1256 347.378 73.692C352.871 71.7977 359.171 71.1786 364.47 68.8232C367.753 67.3644 370.408 67.8104 373.276 65.0939C374.345 64.0808 379.561 58.5677 375.606 58.5677C372.074 58.5677 365.689 63.3094 362.502 65.0939C358.613 67.272 345.519 69.4774 349.968 69.7555C353.909 70.0018 357.666 68.8942 361.57 68.8232C363.62 68.7859 372.81 67.0729 371.307 71.2058C369.481 76.2278 362.845 81.2031 359.602 85.5013C355.584 90.8265 350.503 96.5356 347.792 102.697C345.643 107.581 350.042 106.359 352.765 108.498C357.696 112.373 358.154 119.027 359.291 124.71C360.644 131.477 361.943 138.194 362.813 145.066C363.113 147.435 363.347 149.914 364.004 152.214C364.821 155.074 376.706 144.89 377.108 144.548C384.728 138.076 400.683 122.567 387.83 113.626C383.788 110.814 383.989 109.148 384.981 104.044C385.919 99.2211 387.596 94.5977 388.555 89.8003C389.465 85.2497 388.743 80.6398 389.332 76.0745C389.619 73.8486 391.572 66.5212 389.85 64.3688C388.079 62.1545 387.645 53.3921 392.129 57.4282C396.07 60.9754 399.761 64.8732 404.974 66.9586C409.105 68.6107 412.382 73.4635 413.572 77.6284C414.598 81.2178 417.716 83.6354 418.959 87.0552C420.195 90.4526 421.385 93.6978 423.155 96.8445C429.279 107.732 433.888 119.199 438.538 130.822C442.937 141.821 442.297 153.166 444.65 164.593C446.137 171.819 442.635 157.894 442.267 156.565C437.491 139.286 433.908 122.207 420.617 109.12C415.921 104.497 412.067 103.022 408.652 97.2588C406.401 93.4603 404.009 89.6178 401.452 86.0193C398.948 82.4954 402.258 94.6955 403.576 98.8127C410.246 119.657 416.384 140.746 423.517 161.433C425.769 167.965 429.655 186.258 437.916 189.196C441.529 190.48 439.643 173.344 439.263 171.844C437.08 163.234 431.728 156.252 426.21 149.52C423.41 146.104 421.069 142.417 418.493 138.851C415.847 135.187 414.145 146.849 412.847 151.178C406.18 173.415 400.028 195.985 394.822 218.615C394.222 221.224 393.017 229.123 393.89 226.592C395.678 221.406 395.548 215.018 395.548 209.603C395.548 203.058 394.217 197.405 388.4 193.65C384.755 191.297 379.264 191.042 376.383 194.686C368.477 204.688 364.133 220.26 360.897 232.445C358.604 241.073 359.329 237.566 359.291 230.321C359.226 217.932 358.602 205.751 356.08 193.598C354.685 186.881 355.041 183.92 356.494 177.593C357.538 173.048 360.088 171.895 364.574 170.964C370.838 169.663 376.46 168.902 381.666 164.852C385.666 161.741 387.33 157.554 389.85 153.353C390.292 152.617 390.886 151.44 390.886 153.146C390.886 161.35 389.195 169.747 387.623 177.749C386.111 185.445 384.272 193.081 382.392 200.694C381.303 205.101 376.988 217.87 379.284 213.954C387.005 200.782 389.232 182.644 392.129 167.96C394.123 157.855 395.69 146.809 394.512 136.468C394.507 136.424 394.06 132.9 393.269 134.914C391.819 138.605 391.619 142.671 390.886 146.568C387.376 165.223 385.224 177.288 380.89 196.706C378.781 206.151 376.68 215.606 374.104 224.934C373.297 227.86 369.853 242.512 364.781 246.688C364.32 247.068 359.576 246.238 358.773 245.756C357.298 244.871 358.059 235.597 357.892 233.999C357.667 231.839 358.976 223.208 355.562 223.588C352.393 223.94 347.768 241.254 346.446 244.824C344.337 250.516 338.984 254.861 337.796 261.398C337.214 264.599 335.915 266.106 338.676 268.443C343.503 272.526 346.31 278.604 352.557 275.072C362.1 269.679 369.673 269.149 370.427 255.96C370.593 253.053 369.958 249.714 366.231 252.386C362.232 255.253 357.626 263.566 357.789 268.443C358.078 277.126 367.21 281.112 374.467 282.997C384.564 285.62 388.04 278.991 388.193 269.686C388.238 266.928 387.464 259.307 382.547 262.175C377.513 265.112 375.605 275.014 376.487 280.252C376.85 282.405 378.663 286.786 381.666 284.706C386.513 281.351 388.165 272.17 388.659 266.733C389.575 256.658 389.472 246.194 388.711 236.122C388.201 229.382 387.661 218.403 383.997 212.296C383.475 211.425 382.589 213.89 382.392 214.886C381.151 221.135 380.737 227.604 380.372 233.947C379.605 247.24 377.688 265.709 383.738 278.18C387.257 285.433 397.463 288.219 404.094 283.826C419.807 273.416 420.592 246.559 420.824 229.907C420.909 223.824 422.574 209.799 417.509 204.734C413.743 200.968 404.588 215.112 403.42 216.854C395.385 228.844 392.026 240.626 392.026 254.976C392.026 258.383 391.647 271.875 397.93 271.965C405.877 272.078 408.172 250.725 409.014 245.86C410.743 235.874 411.501 225.637 411.501 215.508C411.501 213.372 411.199 209.389 407.771 210.742C401.141 213.36 399.526 229.797 398.604 235.449C397.622 241.458 395.34 252.217 400.106 257.255C404.774 262.19 415.979 262.449 422.17 262.331C430.828 262.165 436.242 258.893 437.968 250.262C438.512 247.54 440.093 241.077 435.534 241.302C424.944 241.823 419.891 260.332 419.891 268.701C419.891 276.651 418.825 272.883 422.119 268.857C424.992 265.345 419.401 274.535 419.114 276.108C418.842 277.606 428.548 273.958 429.629 273.467C431.931 272.42 423.2 280.174 424.76 279.112C428.958 276.258 434.644 272.34 437.605 268.132C442.28 261.488 443.513 252 446.462 244.461C450.325 234.591 450.441 223.674 451.59 213.332C451.836 211.119 454.402 213.461 454.957 214.161C458.628 218.789 460.665 224.927 461.846 230.632C462.569 234.129 463.792 239.709 462.571 243.374C460.546 249.448 456.154 254.256 454.439 260.259C453.968 261.907 452.9 257.193 452.056 255.701C449.45 251.09 447.521 246.078 444.96 241.405C440.816 233.844 435.94 226.818 431.597 219.392C428.872 214.733 427.815 209.713 425.485 204.941C423.654 201.191 420.749 198.169 417.561 195.618C415.623 194.068 416.162 189.006 416.162 186.865C416.162 180.784 434.696 190.458 436.311 191.837C443.284 197.796 448.157 205.301 452.108 213.436C453.059 215.394 453.269 216.347 454.853 217.579C459.202 220.962 459.049 214.36 459.049 210.95C459.049 204.601 454.284 197.011 452.522 190.749C450.357 183.05 447.062 174.385 447.913 166.302C448.197 163.598 448.375 160.05 449 157.393C449.254 156.314 449.822 150.752 450.451 151.799C452.7 155.549 453.455 159.494 453.455 164.127C453.455 168.929 454.032 174.098 455.268 178.422C455.821 180.358 456.132 182.399 456.252 184.43C456.332 185.789 457.359 180.862 456.459 178.837C455.261 176.141 455.319 170.604 455.319 167.701C455.319 161.854 454.013 156.194 453.403 150.401C452.871 145.346 449.275 140.901 447.861 135.95C445.355 127.181 440.805 116.555 435.223 109.379C431.222 104.235 425.744 97.9835 425.485 90.9916C425.348 87.2792 424.704 83.9658 422.481 80.9433C421.016 78.9502 418.027 73.5566 418.027 79.0787" stroke="#FFD6F3" stroke-width="24.221" stroke-linecap="round"/>
<path d="M349.036 95.8603C343.65 99.4067 326.95 115.567 341.991 118.029C355.642 120.262 369.748 100.213 361.466 88.4018C357.18 82.2883 348.086 80.0175 341.111 82.6525C329.644 86.9844 324.464 108.281 321.998 118.547C321.25 121.662 314.709 142.142 319.46 144.755C323.018 146.712 329.419 146.96 332.979 144.859C339.75 140.863 341.95 131.582 342.406 124.4C342.723 119.399 343.593 109.574 336.915 108.188C322.433 105.182 312.806 118.685 312.675 131.496C312.57 141.816 312.385 148.726 323.863 148.07C332.587 147.572 330.726 128.26 323.915 125.28C315.156 121.448 308.014 147.708 308.014 153.56C308.014 158.58 319.646 153.997 320.082 149.417C320.591 144.074 310.276 134.774 308.532 141.751C305.66 153.237 327.785 166.17 331.84 152.939C332.793 149.828 332.862 143.764 329.457 142.062C324.428 139.547 323.387 150.632 323.138 153.25C322.698 157.872 321.036 165.304 327.592 164.8C335.03 164.228 335.962 155.74 337.433 150.038C337.805 148.598 337.848 143.287 337.848 147.759C337.848 152.234 337.07 156.367 342.302 157.911C345.072 158.728 351.293 159.247 354.112 158.222C358.654 156.57 353.218 149.66 350.952 148.64C345.086 146 345.23 155.432 345.306 158.843C345.449 165.174 352.884 173.028 359.498 168.218C363.155 165.559 363.343 157.894 363.849 154.026C364.762 147.049 365.395 139.674 364.678 132.635C364.129 127.249 359.08 120.942 355.096 128.025C349.416 138.123 348.004 152.338 349.243 163.712C349.532 166.372 350.295 169.504 352.972 170.756C359.638 173.875 364.528 164.465 367.06 160.138C369.287 156.334 382.165 132.33 371.929 128.181C361.355 123.894 351.251 137.77 349.709 146.309C347.96 155.995 348.072 167.913 354.629 175.832C358.022 179.929 361.984 181.197 361.984 174.486C361.984 165.125 353.174 153.989 342.976 159.31C333.062 164.482 346.759 166.305 350.434 169.979C351.021 170.567 352.912 173.067 351.625 173.968C350.755 174.577 348.608 171.883 348.155 171.43C347.499 170.773 345.217 169.376 346.135 169.513C353.278 170.585 360.881 179.494 365.714 184.327C370.37 188.983 372.854 193.361 373.276 183.498C374.315 159.228 368.65 134.374 360.897 111.451C360.36 109.864 358.925 105.074 359.654 106.582C364.88 117.408 369.192 128.728 373.897 139.783C378.924 151.593 384.247 163.265 389.436 175.004C392.115 181.064 394.258 188.35 398.759 193.391C401.162 196.082 401.177 193.536 400.935 190.957C399.591 176.68 395.312 162.84 390.472 149.417C387.555 141.327 384.559 133.261 381.356 125.28C378.983 119.367 378.867 117.851 381.977 125.332C389.681 143.857 393.397 163.147 397.879 182.566C397.969 182.957 398.372 184.054 398.397 183.653C398.58 180.625 398.31 176.944 397.982 174.123C396.143 158.284 391.047 143.229 387.053 127.87C386.398 125.348 367.211 105.306 369.079 102.651C370.063 101.253 386.307 113.371 387.364 114.714C393.067 121.954 398.584 129.34 404.301 136.571C405.938 138.641 430.97 173.231 434.912 169.928C437.998 167.343 434.477 155.414 433.876 153.042C430.733 140.631 425.344 128.887 420.461 117.096C418.745 112.952 416.345 108.672 415.075 104.355C413.831 100.125 419.146 112.179 421.031 116.164C423.597 121.589 426.117 127.061 428.8 132.428C429.252 133.33 431.966 138.909 430.251 134.033C425.428 120.327 419.229 107.148 413.78 93.6849C410.145 84.7044 420.219 111.961 423.621 121.033" stroke="#FFD6F3" stroke-width="12.3157" stroke-linecap="round"/>
<path d="M102.962 110.068C98.0912 116.511 93.1247 122.88 88.2649 129.332C84.4734 134.366 79.8447 139.481 79.3893 146.085C79.0318 151.268 78.2623 159.334 81.7295 163.579C90.3269 174.103 100.574 164.108 105.531 155.702C111.812 145.052 114.242 132.732 114.663 120.514C114.872 114.469 113.998 110.982 109.526 106.986C105.065 103 99.297 103.174 94.1725 106.358C88.7744 109.713 84.867 114.965 81.6724 120.342C76.4957 129.056 72.2103 138.463 68.4304 147.854C66.4212 152.846 64.6979 157.93 63.2934 163.122C62.6746 165.41 60.7405 170.055 61.7523 172.483C63.6452 177.026 76.3658 168.294 77.5914 167.574C86.0758 162.594 93.8564 156.963 100.537 149.709C108.309 141.269 116.256 129.748 114.093 117.489C112.756 109.916 101.969 107.545 95.7421 107.643C73.676 107.987 60.3045 130.35 56.6438 149.738C55.9158 153.594 53.7113 164.148 56.8151 167.717C60.0239 171.407 67.6182 167.782 70.314 165.377C80.5937 156.204 74.6508 142.13 65.9761 133.927C60.5059 128.754 52.9386 132.576 48.7386 137.409C40.9184 146.407 36.508 158.893 32.8139 170.057C29.6068 179.75 27.9867 190.228 27.2488 200.394C26.7351 207.471 25.3778 216.487 29.5034 222.711C32.293 226.92 36.289 231.665 41.4612 232.814C41.5285 232.829 44.127 233.642 43.0308 233.842C38.8978 234.593 38.0889 231.113 35.6678 228.334C30.9957 222.969 27.4294 218.044 25.1084 211.21C21.6736 201.097 16.0874 191.475 18.3161 180.331C19.1556 176.134 21.2916 171.945 22.5684 167.831C24.7682 160.743 25.4514 153.007 27.2203 145.771C29.5751 136.137 32.0835 128.156 37.4372 119.772C42.6108 111.67 47.2423 103.148 52.3345 94.9714C55.5146 89.8653 57.3563 83.343 61.3528 78.847C65.235 74.4794 73.5667 73.5958 78.9898 73.5958C80.0174 73.5958 82.9642 73.1431 82.072 73.6529C78.6089 75.6318 76.2845 80.4337 74.5662 83.7557C69.5604 93.4336 64.904 103.239 58.927 112.38C58.4457 113.116 56.6777 114.635 57.5571 114.635C58.1286 114.635 58.2958 114.284 58.1279 115.32C57.0978 121.672 54.2391 127.907 52.6769 134.155C52.3836 135.329 50.5796 140.541 53.1336 136.838C62.6774 122.999 72.4852 109.345 81.9578 95.4566C89.9721 83.7062 97.0816 70.9951 105.702 59.6689C106.008 59.2674 106.293 58.7169 106.787 58.6129C107.057 58.5561 106.893 59.1858 106.787 59.4405C105.628 62.2295 102.157 67.6997 100.965 69.5433C92.3767 82.82 82.998 95.5898 73.2249 108.014C69.6052 112.615 66.0292 117.892 61.8665 122.055C57.7695 126.152 68.1762 112.334 71.4555 107.557C75.8612 101.14 80.2961 94.7423 84.6976 88.3219C91.0911 78.9955 97.1012 69.0469 101.478 58.5844C102.707 55.6479 99.3373 56.6437 97.3117 56.6437C90.8533 56.6437 86.5483 59.0679 81.1587 62.5227C77.1249 65.1086 76.36 67.5681 73.9669 71.4839C73.1257 72.8605 71.6267 74.8221 71.6267 72.0547C71.6267 69.9409 73.8356 67.8658 75.0514 66.3184C78.2822 62.2066 81.7032 58.5032 85.6964 55.1312C91.0412 50.6178 97.2951 48.9382 104.218 48.9382C109.37 48.9382 114.279 48.2075 119.372 47.9394C119.994 47.9067 127.336 47.3032 127.591 48.1962C128.432 51.1372 123.722 47.6828 123.51 47.5113C122.198 46.4465 118.578 43.3404 116.832 43.2875C113.901 43.1987 111.444 44.3228 108.727 45.2282C108.057 45.4515 107.255 45.3423 106.558 45.3423C106.556 45.3423 110.561 45.3423 111.524 45.3423C121.617 45.3423 131.711 45.3423 141.804 45.3423C147.258 45.3423 152.619 45.8652 158.042 46.3697C159.148 46.4726 160.908 47.5597 159.384 47.0832C147.911 43.498 135.87 46.3697 124.081 46.3697C117.067 46.3697 110.292 47.3309 103.305 47.7967C100.996 47.9506 92.9995 49.7056 93.2021 45.856C93.2998 44.0007 95.5387 44.3149 96.798 44.3149C103.438 44.3149 110.078 44.3149 116.718 44.3149C122.187 44.3149 128.027 42.8738 133.328 44.7145C141.777 47.6481 149.604 52.968 157.529 57.0147C164.452 60.55 171.157 62.208 178.391 64.8915C192.073 69.9672 205.087 76.6192 215.577 86.952C219.285 90.6053 222.819 95.402 224.081 100.594C224.408 101.937 217.821 95.5585 217.175 94.9429C211.72 89.7407 206.567 84.289 201.479 78.7328C196.629 73.4376 190.153 68.6328 186.41 62.4942C184.483 59.3338 182.831 55.6075 180.417 52.791C177.639 49.55 173.218 47.8026 169.287 46.4268C167.435 45.7788 163.748 44.1946 163.094 47.1403C162.907 47.9801 164.096 49.3052 164.464 49.8515C167.321 54.0943 170.897 57.7845 174.395 61.4953C183.963 71.6446 193.929 81.5757 202.506 92.6027C207.393 98.8863 211.908 105.617 214.606 113.151C214.995 114.236 216.889 117.84 216.376 119.087C216.078 119.811 211.655 116.633 211.581 116.575C203.862 110.49 196.703 103.789 189.892 96.7123C185.318 91.96 180.418 87.1463 174.995 83.3561C174.789 83.2128 170.682 80.0325 170.371 80.9018C170.049 81.8027 173.542 86.9607 173.568 87.0091C179.247 97.6082 184.466 108.447 190.177 119.03C194.784 127.565 199.61 136.053 205.474 143.801C206.103 144.633 208.19 146.752 207.928 145.742C206.976 142.067 204.5 138.197 202.763 134.983C196.081 122.619 189.039 110.43 181.187 98.7671C175.236 89.9261 168.842 81.3261 161.981 73.1677C158.792 69.3758 155.495 65.228 151.564 62.1517C149.499 60.5352 148.47 61.479 147.654 63.6358C145.867 68.3586 145.124 73.4831 143.602 78.3047C140.91 86.8301 145.259 93.3886 152.848 98.1107C153.67 98.6219 164.093 103.618 164.093 102.106C164.093 100.991 161.278 99.5812 160.782 99.2523C155.903 96.0175 150.967 92.8454 145.999 89.7488C137.904 84.7031 129.299 79.5265 119.915 77.3059C117.363 76.702 114.653 75.2501 113.008 77.7625C108.384 84.8251 105.197 93.1345 104.218 101.507C103.52 107.481 101.738 117.656 109.241 120.114C124.378 125.073 134.378 100.376 134.783 88.8356C134.974 83.3899 130.879 82.1891 126.336 80.4737C121.528 78.6586 115.117 75.7648 109.812 75.7648C106.448 75.7648 106.176 87.4617 105.988 89.2922C104.728 101.525 105.948 117.73 116.661 125.537C122.886 130.073 134.627 138.142 141.376 129.418C146.545 122.736 146.549 110.882 145.885 102.877C145.035 92.6401 140.295 84.1464 134.298 76.0502C133.371 74.7979 130.191 69.8235 128.02 70.6278C127.112 70.9638 126.711 72.1191 126.364 72.9109C124.338 77.5435 122.681 82.3822 121.284 87.2374C119.297 94.1462 118.023 101.179 117.574 108.356C117.298 112.773 116.922 117.902 118.43 122.169C120.551 128.165 126.676 131.315 132.586 132.3C134.359 132.596 137.005 133.134 138.379 131.558C140.813 128.767 141.063 123.631 141.404 120.2C142.537 108.802 141.418 96.8952 136.81 86.2956C135.299 82.8208 132.28 76.5162 128.305 75.2796C123.489 73.7814 119.777 75.2897 117.403 79.8173C114.506 85.3423 114.539 92.1383 114.378 98.1963C114.188 105.365 113.792 113.059 115.691 120.057C118.593 130.752 125.94 141.447 137.152 144.315C148.764 147.286 157.696 138.638 163.065 129.532C171.33 115.515 176.074 97.2308 169.315 81.6438C165.307 72.4004 154.282 63.0434 143.602 66.775C138.705 68.4859 135.721 71.9746 130.36 69.0296C126.671 67.0036 123.222 62.2944 118.716 62.2944C117.036 62.2944 117.86 57.9194 117.86 56.815C117.86 55.0326 118.128 55.6854 119.144 57.1004C124.248 64.2059 129.796 70.941 135.268 77.7625C149.779 95.8491 162.259 114.834 172.74 135.497C174.026 138.032 178.917 149.703 183.756 147.911C185.3 147.339 185.642 144.625 185.668 143.231C185.726 140.083 184.805 138.15 182.072 136.381C178.775 134.248 178.395 137.175 177.963 140.206C177.767 141.578 176.914 144.658 177.449 146.027C178.553 148.854 185.807 149.762 188.179 150.365C191.116 151.112 194.213 151.319 196.855 152.934C197.299 153.205 199.064 155.586 197.854 154.618C190.516 148.747 179.217 151.121 171.056 154.247C163.459 157.156 155.609 160.417 149.195 165.548C148.662 165.975 149.344 163.914 149.195 163.493C147.977 160.042 128.334 168.519 127.106 169.087C119.554 172.581 110.967 176.442 105.474 182.957C101.321 187.881 98.0152 194.206 96.3414 200.423C95.1588 204.815 93.376 213.947 101.136 211.153C106.295 209.296 110.159 203.778 113.465 199.738C119.364 192.527 124.563 184.881 128.99 176.678C132.277 170.587 135.031 164.229 138.065 158.014C138.704 156.706 139.756 152.633 139.949 154.075C140.824 160.638 137.703 168.583 136.695 174.994C135.484 182.698 136.263 191.259 134.184 198.767C133.563 201.011 132.66 203.304 131.558 205.36C130.979 206.441 130.66 205.718 130.931 204.818C132.038 201.124 135.387 197.851 137.751 194.972C141.096 190.898 144.948 186.861 147.369 182.129C148.713 179.502 147.881 173.66 151.336 173.254C153.254 173.028 158.789 172.663 156.987 171.969C153.955 170.803 149.853 171.181 146.713 170.913C140.939 170.42 135.263 169.107 129.618 167.86C124.236 166.671 118.808 164.857 113.351 164.121C110.886 163.789 109.726 163.612 109.127 166.176C108.598 168.437 107.38 175.25 108.214 173.082C111.579 164.332 119.098 156.953 125.223 150.08C128.439 146.471 131.752 142.954 135.154 139.521C135.988 138.68 138.298 136.008 137.666 137.009C128.966 150.784 119.881 164.335 111.239 178.162C104.04 189.679 97.376 201.601 89.435 212.637C88.6647 213.708 84.1999 221.014 82.0149 219.886C81.1038 219.416 80.5615 217.208 80.3596 216.518C79.0802 212.147 78.8355 207.55 78.9042 203.02C79.0676 192.231 81.387 181.532 81.387 170.742C81.387 164.376 97.5384 167.946 100.337 168.801C102.289 169.398 109.908 171.463 110.383 174.309C110.788 176.74 104.175 180.065 102.848 181.016C87.0147 192.361 72.7287 204.651 52.6769 206.929C52.1737 206.987 47.024 207.851 46.9692 206.644C46.7343 201.477 48.2198 196.632 49.5947 191.69C51.4542 185.006 59.154 165.696 57.4715 172.426C55.6716 179.625 56.5487 188.331 57.0719 195.657C57.7277 204.837 58.8497 215.021 62.8653 223.453C66.5087 231.105 67.896 221.885 68.7443 217.774C69.2779 215.188 70.8395 209.122 69.0012 206.758C67.582 204.934 63.5331 206.582 62.1518 207.472C57.9684 210.168 51.6982 215.243 51.5925 220.742C51.4808 226.549 52.7235 228.761 58.3847 231.987C59.3437 232.533 68.5446 236.996 68.5446 234.897C68.5446 233.13 68.333 233.36 66.5468 234.498C58.6432 239.533 50.1027 242.555 42.0034 247.055C40.9684 247.63 44.6608 246.799 46.9692 247.055C55.9935 248.058 54.3534 258.122 59.7546 264.635C63.5086 269.162 66.4613 272.384 72.5685 272.854C75.3772 273.07 75.8193 274.011 75.7649 272.569C75.5802 267.675 75.8153 262.768 75.6793 257.871C75.6171 255.634 75.9894 251.118 74.1952 249.224C72.1047 247.017 71.639 254.226 71.7694 255.074C72.0322 256.782 73.9437 257.56 75.3939 258.014C82.9689 260.388 91.6345 260.39 99.4807 260.468C108.007 260.553 116.397 260.67 122.369 253.562C125.551 249.775 133.322 238.15 129.618 232.671C125.397 226.429 114.808 234.019 111.467 236.724C104.634 242.258 98.2532 249.481 93.5446 256.93C91.351 260.4 92.2847 264.675 93.2021 268.459C93.5921 270.068 93.4511 270.51 92.1177 271.399C88.6811 273.69 93.8472 274.173 96.0846 274.652C99.0139 275.28 101.767 274.588 104.646 273.91C111.258 272.354 118.04 272.015 124.681 270.657C127.202 270.141 129.756 270.521 132.3 270.114C135.91 269.538 137.273 266.528 140.348 265.32C140.903 265.102 140.833 265.507 141.205 265.719C142.727 266.59 145.319 266.221 146.969 266.233C148.851 266.248 150.866 265.663 152.163 267.261C153.036 268.335 153.266 267.928 154.332 268.402C155.653 268.989 154.852 267.888 155.873 267.774C156.47 267.708 157.876 268.141 157.928 267.261C158.034 265.47 156.141 263.448 155.474 261.838C154.603 259.737 153.09 258.129 152.021 256.13C148.871 250.242 146.253 243.925 143.373 237.894C139.831 230.475 138.152 226.156 137.637 217.917C137.361 213.496 137.803 208.429 136.61 204.133C136.169 202.544 135.802 203.432 135.04 204.332C132.04 207.878 125.364 209.663 121.313 211.296C113.538 214.429 105.163 216.897 98.225 221.741C90.7385 226.967 97.8288 241.576 85.8962 241.576C82.7667 241.576 84.0237 237.956 84.5834 235.811C85.0446 234.043 86.3751 232.329 84.0697 232.329C83.4464 232.329 82.5398 232.392 83.4418 232.843" stroke="#FAA694" stroke-width="24.221" stroke-linecap="round"/>
<path d="M183.828 124.315C198.87 142.776 212.306 162.811 212.306 187.03C218.59 197.085 226.341 204.308 237.504 204.308L246.332 202.203C251.669 200.766 257.078 198.477 259.264 195.634C265.905 186.995 264.142 185.422 264.142 174.071C264.142 164.772 261.68 155.951 264.941 147.353C267.673 140.151 272.253 129.963 277.74 124.475L277.743 124.473C280.129 122.087 282.285 119.93 277.1 121.115C265.837 123.69 258.541 125.609 251.263 114.236C249.537 111.54 245.284 98.4994 249.103 96.3173C252.79 94.2106 255.816 92.7715 259.822 91.3577C273.288 86.6049 272.722 67.3918 264.702 57.5205C261.579 53.6773 251.547 53.4283 247.023 54.7208C243.886 55.6171 245.423 65.3139 245.423 67.8397C245.423 73.4895 243.309 74.7386 241.103 68.6396C237.72 59.2845 237.909 47.3642 236.064 37.5222C233.12 21.8199 227.268 3.97773 207.906 7.20471C194.649 9.4142 173.287 27.1675 179.189 41.9218C183.042 51.555 189.893 59.3852 195.347 68.1597C201.718 78.4079 206.962 89.2462 210.786 100.717C212.64 106.278 218.297 116.746 216.546 122.875C216.301 123.73 210.556 119.611 209.426 119.035C199.821 114.142 187.432 103.88 175.749 106.476C168.143 108.167 182.678 122.903 183.828 124.315Z" fill="#FFC778"/>
<path d="M212.306 187.03H206.148V188.796L207.084 190.294L212.306 187.03ZM183.828 124.315L188.602 120.425L188.602 120.425L183.828 124.315ZM175.749 106.476L177.085 112.488H177.085L175.749 106.476ZM209.426 119.035L206.631 124.522L206.631 124.522L209.426 119.035ZM216.546 122.875L222.466 124.567L222.466 124.567L216.546 122.875ZM210.786 100.717L216.628 98.7697L210.786 100.717ZM195.347 68.1597L190.117 71.4106H190.117L195.347 68.1597ZM179.189 41.9218L184.906 39.6349H184.906L179.189 41.9218ZM207.906 7.20471L208.919 13.2788L207.906 7.20471ZM236.064 37.5222L242.116 36.3874L236.064 37.5222ZM241.103 68.6396L235.313 70.7341V70.7341L241.103 68.6396ZM247.023 54.7208L245.331 48.7998H245.331L247.023 54.7208ZM264.702 57.5205L269.481 53.6374V53.6374L264.702 57.5205ZM259.822 91.3577L257.772 85.5509H257.772L259.822 91.3577ZM249.103 96.3173L252.158 101.664L249.103 96.3173ZM251.263 114.236L246.076 117.555V117.555L251.263 114.236ZM277.1 121.115L278.473 127.118L278.473 127.118L277.1 121.115ZM277.74 124.475L282.095 128.829H282.095L277.74 124.475ZM264.941 147.353L270.699 149.537L264.941 147.353ZM259.264 195.634L254.381 191.882L254.381 191.882L259.264 195.634ZM237.504 204.308V210.466H238.228L238.932 210.298L237.504 204.308ZM246.332 202.203L247.761 208.193L247.847 208.172L247.933 208.149L246.332 202.203ZM218.464 187.03C218.464 160.488 203.718 138.976 188.602 120.425L179.054 128.205C194.023 146.575 206.148 165.135 206.148 187.03H218.464ZM188.602 120.425C187.381 118.927 184.285 115.909 181.563 111.989C180.954 111.111 180.472 110.328 180.133 109.67C179.966 109.345 179.851 109.086 179.777 108.891C179.701 108.69 179.687 108.608 179.691 108.632C179.694 108.65 179.736 108.867 179.7 109.228C179.663 109.608 179.538 110.161 179.196 110.753C178.416 112.102 177.27 112.447 177.085 112.488L174.413 100.465C172.326 100.929 169.971 102.103 168.535 104.587C167.185 106.921 167.287 109.325 167.591 110.925C168.163 113.945 169.988 116.91 171.447 119.012C174.378 123.235 179.125 128.292 179.054 128.205L188.602 120.425ZM177.085 112.488C180.804 111.661 185.211 112.779 190.633 115.465C193.27 116.772 195.896 118.317 198.597 119.93C201.212 121.492 204 123.182 206.631 124.522L212.221 113.549C210.05 112.442 207.687 111.014 204.913 109.357C202.225 107.752 199.222 105.976 196.1 104.43C190.006 101.41 182.377 98.6956 174.413 100.465L177.085 112.488ZM206.631 124.522C206.554 124.483 206.779 124.614 207.636 125.169C208.309 125.604 209.207 126.19 210.078 126.729C210.9 127.237 211.943 127.859 212.89 128.3C213.28 128.481 214.137 128.867 215.156 129.045C215.617 129.126 216.801 129.298 218.201 128.879C220.006 128.34 221.802 126.892 222.466 124.567L210.625 121.183C210.892 120.246 211.416 119.288 212.252 118.489C213.066 117.712 213.954 117.295 214.674 117.079C215.962 116.694 216.997 116.865 217.275 116.913C217.929 117.027 218.288 117.228 218.087 117.134C217.854 117.026 217.344 116.742 216.558 116.255C215.821 115.799 215.056 115.301 214.326 114.829C213.78 114.475 212.864 113.876 212.221 113.549L206.631 124.522ZM222.466 124.567C223.252 121.817 223.109 119.003 222.724 116.623C222.329 114.19 221.601 111.753 220.83 109.549C220.055 107.334 219.168 105.169 218.41 103.324C217.613 101.383 217.009 99.9141 216.628 98.7697L204.944 102.664C205.49 104.301 206.288 106.225 207.018 108.003C207.787 109.876 208.553 111.754 209.205 113.617C209.861 115.491 210.335 117.167 210.567 118.595C210.807 120.076 210.714 120.869 210.625 121.183L222.466 124.567ZM216.628 98.7697C212.637 86.7974 207.176 75.5242 200.577 64.9087L190.117 71.4106C196.26 81.2916 201.288 91.695 204.944 102.664L216.628 98.7697ZM200.577 64.9087C197.785 60.4179 194.427 55.849 191.77 51.9162C188.976 47.7783 186.588 43.8408 184.906 39.6349L173.471 44.2088C175.642 49.6361 178.607 54.4302 181.565 58.8093C184.661 63.3935 187.455 67.1269 190.117 71.4106L200.577 64.9087ZM184.906 39.6349C183.356 35.7587 185.017 30.1883 190.817 24.1106C196.423 18.2371 203.939 14.1087 208.919 13.2788L206.894 1.13062C198.616 2.51024 188.822 8.36314 181.908 15.6073C175.189 22.6472 169.12 33.3306 173.471 44.2088L184.906 39.6349ZM208.919 13.2788C212.765 12.6377 215.519 13.0989 217.574 14.0058C219.653 14.9239 221.478 16.5034 223.112 18.8171C226.533 23.6615 228.554 30.8822 230.011 38.657L242.116 36.3874C240.63 28.4599 238.253 18.9084 233.172 11.7128C230.555 8.00663 227.101 4.74926 222.547 2.73881C217.967 0.717182 212.728 0.158242 206.894 1.13062L208.919 13.2788ZM230.011 38.657C230.879 43.283 231.245 48.2517 231.888 53.9531C232.5 59.3881 233.357 65.3266 235.313 70.7341L246.894 66.5451C245.466 62.5976 244.726 57.8983 244.126 52.5739C243.556 47.5158 243.094 41.6034 242.116 36.3874L230.011 38.657ZM235.313 70.7341C235.952 72.5024 236.762 74.2683 237.852 75.6675C238.58 76.6016 241.507 79.931 245.959 78.5129C247.922 77.8878 249.113 76.5642 249.748 75.6198C250.392 74.6626 250.758 73.6754 250.98 72.8935C251.428 71.3215 251.581 69.5582 251.581 67.8397H239.265C239.265 68.3598 239.241 68.7685 239.207 69.0711C239.173 69.384 239.136 69.5202 239.136 69.5183C239.138 69.5128 239.158 69.4422 239.209 69.3234C239.259 69.2082 239.357 69.0022 239.528 68.7477C239.838 68.287 240.661 67.2751 242.222 66.778C243.937 66.2316 245.456 66.646 246.37 67.1406C247.161 67.5683 247.531 68.0518 247.566 68.0968C247.64 68.1915 247.358 67.8263 246.894 66.5451L235.313 70.7341ZM251.581 67.8397C251.581 66.9048 251.45 65.4279 251.373 64.3934C251.28 63.1418 251.201 61.862 251.204 60.6861C251.208 59.4243 251.31 58.7061 251.385 58.4342C251.546 57.8519 251.188 59.935 248.715 60.6417L245.331 48.7998C241.289 49.9547 239.947 53.5861 239.514 55.1529C238.995 57.0302 238.893 59.0621 238.889 60.6523C238.884 62.3283 238.994 64.0023 239.091 65.3072C239.204 66.8293 239.265 67.5117 239.265 67.8397H251.581ZM248.715 60.6417C250.028 60.2665 252.833 59.9987 255.714 60.3157C257.101 60.4683 258.259 60.7319 259.097 61.0461C260.002 61.3854 260.095 61.6165 259.922 61.4037L269.481 53.6374C267.746 51.5029 265.415 50.2617 263.419 49.5138C261.357 48.7408 259.138 48.3024 257.061 48.0738C253.014 47.6286 248.542 47.8825 245.331 48.7998L248.715 60.6417ZM259.922 61.4037C262.869 65.03 264.601 70.7062 264.182 75.8595C263.774 80.8684 261.545 84.2193 257.772 85.5509L261.871 97.1646C271.565 93.7433 275.786 85.1112 276.457 76.8576C277.116 68.7483 274.555 59.8824 269.481 53.6374L259.922 61.4037ZM257.772 85.5509C253.37 87.1047 250.007 88.7081 246.048 90.9708L252.158 101.664C255.572 99.7131 258.263 98.4383 261.871 97.1646L257.772 85.5509ZM246.048 90.9708C242.246 93.1434 241.585 97.238 241.444 99.2235C241.275 101.607 241.623 104.157 242.074 106.333C242.54 108.581 243.196 110.806 243.858 112.669C244.471 114.393 245.249 116.263 246.076 117.555L256.449 110.916C256.479 110.963 256.37 110.79 256.149 110.289C255.948 109.835 255.711 109.242 255.462 108.542C254.961 107.134 254.469 105.456 254.134 103.835C253.783 102.141 253.675 100.853 253.729 100.094C253.811 98.9361 254.051 100.582 252.158 101.664L246.048 90.9708ZM246.076 117.555C250.379 124.279 255.4 128.041 261.776 128.996C267.332 129.828 273.295 128.302 278.473 127.118L275.728 115.112C269.643 116.503 266.326 117.224 263.599 116.816C261.692 116.53 259.425 115.565 256.449 110.916L246.076 117.555ZM278.473 127.118C278.987 127.001 279.284 126.954 279.419 126.939C279.61 126.917 279.336 126.972 278.818 126.895C278.433 126.838 276.676 126.533 275.329 124.78C273.795 122.784 274.088 120.678 274.323 119.824C274.444 119.382 274.594 119.065 274.68 118.9C274.771 118.725 274.845 118.613 274.871 118.575C274.916 118.509 274.898 118.544 274.755 118.708C274.455 119.048 274.027 119.48 273.389 120.118L282.097 128.827C282.652 128.272 283.388 127.54 284.002 126.842C284.315 126.486 284.691 126.033 285.039 125.524C285.339 125.085 285.886 124.225 286.199 123.085C286.528 121.887 286.797 119.492 285.094 117.275C283.577 115.302 281.504 114.844 280.629 114.713C278.881 114.453 277.028 114.815 275.728 115.112L278.473 127.118ZM273.389 120.118L273.386 120.121L282.095 128.829L282.097 128.827L273.389 120.118ZM273.386 120.121C269.999 123.507 267.142 128.058 264.856 132.407C262.532 136.83 260.605 141.423 259.184 145.169L270.699 149.537C272.01 146.081 273.739 141.979 275.758 138.136C277.817 134.218 279.994 130.93 282.095 128.829L273.386 120.121ZM259.184 145.169C257.115 150.624 256.944 155.962 257.167 160.737C257.277 163.09 257.498 165.504 257.669 167.669C257.847 169.905 257.984 172.001 257.984 174.071H270.299C270.299 171.492 270.129 168.997 269.947 166.696C269.758 164.323 269.567 162.251 269.47 160.162C269.278 156.052 269.507 152.681 270.699 149.537L259.184 145.169ZM257.984 174.071C257.984 177.042 258.101 179.439 258.159 181.215C258.22 183.086 258.21 184.16 258.09 185.048C257.912 186.371 257.445 187.896 254.381 191.882L264.146 199.387C267.723 194.734 269.695 191.152 270.296 186.691C270.566 184.686 270.53 182.699 270.468 180.812C270.403 178.831 270.299 176.775 270.299 174.071H257.984ZM207.084 190.294C213.752 200.963 223.12 210.466 237.504 210.466V198.151C229.561 198.151 223.428 193.206 217.528 183.766L207.084 190.294ZM238.932 210.298L247.761 208.193L244.903 196.213L236.075 198.319L238.932 210.298ZM247.933 208.149C250.856 207.362 253.925 206.31 256.657 204.991C259.246 203.741 262.177 201.948 264.146 199.387L254.381 191.882C254.165 192.163 253.298 192.937 251.302 193.901C249.449 194.796 247.145 195.607 244.731 196.257L247.933 208.149Z" fill="#EE2F14"/>
<path d="M205.107 165.432C193.458 165.674 181.955 165.716 170.71 169.111C169.398 169.507 164.09 170.408 163.35 172.071C158.818 182.27 151.358 191.267 148.312 202.068C146.619 208.072 148.312 212.466 151.351 214.467M151.351 214.467C163.18 215.414 174.002 221.431 185.589 223.667C210.202 228.417 233.844 231.666 259.023 231.666C279.868 231.666 297.502 232.097 316.778 224.387C326.36 220.554 338.989 214.816 346.215 207.188M151.351 214.467C152.983 247.505 169.164 255.529 179.622 285.334C181.381 290.347 191.972 310.949 197.332 313.629C206.214 316.512 213.298 314.717 222.406 315.828C226.28 316.301 230.094 316.21 233.989 316.268C244.262 316.421 254.351 318.659 264.587 319.396C277.347 320.315 290.581 321.54 301.098 313.189C304.134 310.778 308.71 308.002 310.825 304.831C312.176 299.021 315.309 293.918 316.788 288.115C318.807 280.185 321.522 272.87 324.021 265.093C326.364 257.804 328.379 251.997 330.696 244.692C331.964 240.693 335.467 235.826 336.238 231.666C337.955 222.392 343.223 216.167 346.215 207.188M346.215 207.188C350.636 202.522 350.669 195.63 350.535 189.59C350.385 182.82 342.984 179.975 337.576 177.271C324.41 170.688 306.058 165.684 291.18 165.432C286.807 165.357 268.842 163.231 267.022 166.871" stroke="#EE2F14" stroke-width="12.3157" stroke-linecap="round"/>
<path d="M174.49 281.791C145.808 281.791 102.036 294.088 75.3925 281.791C46.7106 268.553 21.937 244.019 12.5463 213.499C-4.72345 157.372 20.0264 94.2301 63.1936 56.7642C74.8254 46.6687 89.0742 33.6855 104.365 29.3167C116.801 25.7634 129.678 26.9205 142.595 26.9205C149.932 26.9205 154.327 30.4969 160.24 33.7824C168.227 38.2196 171.001 38.4036 181.059 44.972" stroke="#EE2F14" stroke-width="12.3157" stroke-linecap="round"/>
<path d="M298.263 165.256C294.545 140.623 302.301 112.459 312.073 89.9845C317.507 77.4855 323.212 67.7982 334.837 60.3585C352.125 49.2943 384.439 38.3964 404.763 46.5258C416.413 51.186 422.672 61.9697 428.943 72.1218C441.434 92.3454 453.952 114.972 461.836 137.364C471.771 165.577 470.986 191.51 470.986 221.014C470.986 246.303 463.432 268.18 442.558 283.642C424.502 297.017 402.804 297.475 381.236 297.475C368.283 297.475 354.215 293.085 343.441 286.801C339.28 284.374 337.424 282.677 333.312 279.83C329.48 277.177 326.911 271.51 323.945 270.027" stroke="#EE2F14" stroke-width="12.3157" stroke-linecap="round"/>
<path d="M74.732 111.78C73.9842 110.668 72.7346 109.066 70.4585 109.828C69.6669 110.093 69.7127 110.991 69.9837 111.462C70.3921 112.173 73.511 114.488 73.511 112.597" stroke="#EE2F14" stroke-width="12.3157" stroke-linecap="round"/>
<path d="M172.027 81.6902C172.677 81.6724 174.664 81.9666 174.878 80.8818C175.011 80.2114 174.542 80.0955 174.052 80.0735C173.205 80.0354 172.496 80.6064 173.466 81.1513" stroke="#EE2F14" stroke-width="12.3157" stroke-linecap="round"/>
<path d="M331.099 98.5515C330.856 99.4768 330.042 101.315 330.928 102.201C331.295 102.568 332.444 102.531 332.795 102.179C333.125 101.85 333.475 100.629 333.332 100.183C333.179 99.7059 332.25 99.7107 332.645 99.7107" stroke="#EE2F14" stroke-width="12.3157" stroke-linecap="round"/>
<path d="M414.561 120.962C415.678 121.141 417.8 122.035 418.21 120.511C418.535 119.304 418.284 117.847 417.179 117.098C415.72 116.108 414.561 117.094 414.561 118.644" stroke="#EE2F14" stroke-width="12.3157" stroke-linecap="round"/>
<path d="M358.92 132.168C356.914 132.168 354.425 131.689 352.738 133.026C351.189 134.254 349.812 136.122 349.088 137.963C347.792 141.264 347.491 144.491 349.668 147.43C351.863 150.393 354.837 153.596 358.276 155.094C363.685 157.449 371.238 158.333 375.749 153.977C378.69 151.138 380.682 147.148 378.819 143.008C377.38 139.81 376.143 137.108 372.873 135.473C369.297 133.685 366.268 133.327 362.397 133.327" stroke="#EE2F14" stroke-width="12.3157" stroke-linecap="round"/>
<path d="M110.602 123.006C110.602 126.405 110.093 130.296 111.588 133.459C113.063 136.58 115.914 139.187 118.811 140.953C124.286 144.292 131.783 146.653 138.14 144.479C145.671 141.902 147.878 133.895 147.878 126.753C147.878 122.41 146.604 119.571 144.771 115.906" stroke="#EE2F14" stroke-width="12.3157" stroke-linecap="round"/>
<path d="M62.1924 189.095C62.5852 204.809 68.9841 201.054 79.9239 201.054C86.6367 201.054 92.9529 199.945 98.5419 199.945" stroke="#EE2F14" stroke-width="12.3157" stroke-linecap="round"/>
<path d="M427.753 209.507C417.632 213.457 405.265 214.603 396.207 220.641" stroke="#EE2F14" stroke-width="12.3157" stroke-linecap="round"/>
<path d="M393.296 191.091C393.296 199.933 393.296 208.775 393.296 217.616C393.296 221.758 390.06 222.391 386.731 224.509C382.256 227.357 378.028 230.582 373.633 233.55C369.827 236.119 365.207 238.143 361.668 241.039C361.038 241.554 358.982 243.065 358.982 244.023C358.982 245.196 361.083 246.66 361.727 247.215C365.546 250.505 369.536 253.649 373.543 256.704C374.669 257.562 390.035 266.97 390.073 266.282C390.26 262.922 393.371 260.036 394.37 256.763C397.385 246.88 397.055 235.771 397.055 225.464" stroke="#EE2F14" stroke-width="12.3157" stroke-linecap="round"/>
</svg>
