<svg width="307" height="265" viewBox="0 0 307 265" fill="none" xmlns="http://www.w3.org/2000/svg">
<path d="M207.344 88.7468C207.344 73.901 209.064 49.7039 210.689 44.5981C211.86 38.7399 215.176 33.875 215.625 33.0669C218.248 28.3453 222.886 24.7824 227.486 21.8548C230.87 19.7017 237.199 19.1791 241.199 19.1791C246.916 19.1791 252.465 19.9901 257.885 21.8919C262.356 23.4606 267.486 25.0587 271.561 27.5034C275.504 29.8697 279.072 33.5406 282.523 36.571C289.053 42.3042 292.81 50.369 296.273 58.1623C300.229 67.0629 303 77.0948 303 86.8887C303 102.412 302.827 118.267 297.797 133.119C292.772 147.953 276.862 156.613 263.311 162.7C257.41 165.35 251.479 164.276 245.398 162.848C239.156 161.383 233.037 159.574 228.601 154.821C222.343 148.116 215.611 138.74 212.993 129.923C209.091 116.78 207.344 102.407 207.344 88.7468Z" fill="#FAA694" stroke="#EE2F14" stroke-width="7.02973" stroke-linecap="round"/>
<path d="M20.864 37.5743C33.509 26.3686 47.4212 23.8615 63.5262 23.8615C67.8535 23.8615 83.0715 26.2603 91.1006 26.5371C96.4791 26.7226 104.603 30.7397 108.641 34.0439C118.96 42.4864 125.182 57.5168 129.601 69.6453C138.334 93.6141 118.006 111.398 102.175 127.024C92.2141 136.855 81.9347 144.571 67.5026 144.899C55.7407 145.166 44.4563 142.731 33.4992 138.47C21.2664 133.713 13.1256 126.571 8.37748 114.314C3.26404 101.115 3.75406 87.5234 3.99233 73.5845C4.22646 59.8881 10.5977 46.6721 20.864 37.5743Z" fill="#FFD6F3" stroke="#EE2F14" stroke-width="7.02973" stroke-linecap="round"/>
<path d="M219.374 35.5727C220.214 35.2061 221.943 36.1371 222.024 34.9236C222.074 34.1773 221.75 33.2143 220.873 33.3296C219.549 33.5036 218.496 34.7637 219.875 35.5728" stroke="#EE2F14" stroke-width="7.02973" stroke-linecap="round"/>
<path d="M61.4395 84.5012C63.6355 96.0247 72.6886 99.3863 79.9014 104.462C81.477 105.259 83.9378 106.059 85.0849 106.059C86.232 106.059 90.6235 106.059 93.3928 106.059C94.9136 106.059 95.7728 106.059 96.5881 104.462" stroke="#EE2F14" stroke-width="7.02973" stroke-linecap="round"/>
<path d="M98.5796 100.118C91.9923 99.615 88.2954 96.3025 89.2793 92.7602C89.739 91.1055 90.2301 87.0779 91.9922 86.071C94.5254 84.6235 99.1613 83.4153 101.654 84.8818C103.955 86.2353 105.668 91.921 105.668 94.4325C105.668 98.102 101.654 99.4494 99.6476 100.118" stroke="#EE2F14" stroke-width="7.02973" stroke-linecap="round"/>
<path d="M111.02 102.794C116.925 98.1804 117.709 92.6206 117.709 85.402" stroke="#EE2F14" stroke-width="7.02973" stroke-linecap="round"/>
<path d="M79.0142 70.8989C85.3391 73.2708 80.352 67.808 80.352 72.2367" stroke="#EE2F14" stroke-width="7.02973" stroke-linecap="round"/>
<path d="M108.656 66.5706C108.67 67.164 108.773 68.0743 109.615 67.6536C110.144 67.3886 110.278 66.8901 109.615 66.8901" stroke="#EE2F14" stroke-width="7.02973" stroke-linecap="round"/>
<path d="M195.098 84.5002C201.975 80.3145 208.997 75.07 216.562 72.0988C214.632 73.0636 214.687 73.6049 212.227 77.3541C210.352 80.7518 207.341 83.4468 205.253 86.6957C202.013 91.7349 197.715 95.6882 193.208 99.5946C191.602 100.986 190.33 102.562 188.756 103.986C186.848 105.712 185.139 108.269 183.288 109.925C181.062 111.917 177.656 106.971 176.314 105.48C174.25 103.186 171.736 102.544 173.143 100.936C175.627 98.0978 178.466 95.7243 181.712 93.8008C186.431 91.0041 190.424 87.3452 195.098 84.5002Z" fill="#FFD6F3"/>
<path d="M218.701 71.3269C210.313 74.0789 202.619 79.9227 195.098 84.5002C190.424 87.3452 186.431 91.0041 181.712 93.8008C178.466 95.7243 175.627 98.0978 173.143 100.936C171.736 102.544 174.25 103.186 176.314 105.48C177.656 106.971 181.062 111.917 183.288 109.925C185.139 108.269 186.848 105.712 188.756 103.986C190.33 102.562 191.602 100.986 193.208 99.5946C197.715 95.6882 202.013 91.7349 205.253 86.6957C207.341 83.4468 210.352 80.7518 212.227 77.3541C214.687 73.6049 214.632 73.0636 216.562 72.0988" stroke="#EE2F14" stroke-width="7.02973" stroke-linecap="round"/>
<path d="M247.243 91.6357C243.731 94.6459 241.667 97.6735 236.814 97.6735C231.651 97.6735 226.462 97.4895 221.323 97.0026C217.417 96.6326 213.778 94.7865 209.918 94.3802C208.919 94.275 206.477 93.5343 206.076 92.7335" stroke="#EE2F14" stroke-width="7.02973" stroke-linecap="round"/>
<path d="M207.723 115.787C204.317 115.787 200.919 116.312 197.843 114.689C195.52 113.463 193.115 111.608 191.256 109.749" stroke="#EE2F14" stroke-width="7.02973" stroke-linecap="round"/>
<path d="M254.378 57.0559C255.12 57.5948 256.584 59.1244 257.672 58.5805C258.341 58.246 259.008 57.4799 258.465 56.7814C257.645 55.7274 256.025 55.4564 256.025 57.0559" stroke="#EE2F14" stroke-width="7.02973" stroke-linecap="round"/>
<path d="M98.4038 172.757C100.455 169.092 102.975 165.566 106.782 162.18C110.557 157.682 115.846 155.622 119.616 154.165C122.689 152.978 125.026 151.45 127.97 150.111C132.496 148.054 138.206 149.006 143.04 149.006C160.539 149.006 179.723 157.971 188.782 173.371C195.096 184.105 206.432 192.764 206.432 206.091C206.432 217.116 203.896 228.545 199.061 238.483C193.768 249.363 179.77 254.751 169.003 258.099C151.491 263.543 132.188 260.514 116.832 250.686C109.641 246.084 103.809 239.202 98.8133 232.299C94.3876 226.184 89.9679 218.155 89.9679 210.473C89.9679 205.554 89.472 200.326 90.1317 195.444C90.7918 190.559 93.5302 186.111 94.9639 181.439C95.8782 178.459 96.4713 176.942 98.4038 172.757Z" fill="#FFC778" stroke="#EE2F14" stroke-width="7.02973" stroke-linecap="round"/>
<path d="M115.099 172.857C115.335 172.445 116.843 171.313 114.77 171.717C113.98 171.872 114.567 172.857 115.381 172.857" stroke="#EE2F14" stroke-width="7.02973" stroke-linecap="round"/>
<path d="M146.832 166.311C145.858 167.778 147.323 167.173 147.408 166.523C147.551 165.444 147.128 165.778 146.636 166.311" stroke="#EE2F14" stroke-width="7.02973" stroke-linecap="round"/>
<path d="M115.767 202.078C113.822 207.798 109.87 214.024 109.87 220.137C109.87 223.51 117.186 226.132 119.821 226.361C126.012 226.9 134.251 224.645 139.354 221.243" stroke="#EE2F14" stroke-width="7.02973" stroke-linecap="round"/>
<path d="M143.941 219.604C145.731 226.913 151.034 234.231 157.161 238.512C154.702 231.134 152.24 221.698 151.148 213.871C151.148 210.25 147.586 206.658 145.988 203.552C144.256 200.183 141.975 196.736 139.354 193.969C138.753 193.335 135.036 189.246 134.931 191.021C134.754 194.041 136.196 198.447 137.134 201.313L137.143 201.34C139.168 207.529 142.383 213.242 143.941 219.604Z" fill="#FFD6F3"/>
<path d="M157.782 238.933C151.395 234.724 145.791 227.159 143.941 219.604C142.383 213.242 139.168 207.529 137.143 201.34C136.205 198.474 134.753 194.05 134.931 191.021C135.036 189.246 138.753 193.335 139.354 193.969C141.975 196.736 144.256 200.183 145.988 203.552C147.586 206.658 151.148 210.25 151.148 213.871C152.24 221.698 154.702 231.134 157.161 238.512" stroke="#EE2F14" stroke-width="7.02973" stroke-linecap="round"/>
<path d="M157.782 191.758C158.568 207.485 167.488 220.033 172.131 234.703C172.131 232.382 171.787 225.784 171.787 223.823C171.787 220.169 171.676 216.689 170.886 213.134C169.675 207.683 168.524 201.306 166.3 196.222C164.97 193.182 163.569 189.556 162.369 186.434C158.965 177.585 157.556 187.246 157.782 191.758Z" fill="#FFD6F3"/>
<path d="M172.524 235.985C168.013 220.758 158.591 207.941 157.782 191.758C157.556 187.246 158.965 177.585 162.369 186.434C163.569 189.556 164.97 193.182 166.3 196.222C168.524 201.306 169.675 207.683 170.886 213.134C171.676 216.689 171.787 220.169 171.787 223.823C171.787 225.784 172.131 232.382 172.131 234.703" stroke="#EE2F14" stroke-width="7.02973" stroke-linecap="round"/>
<path d="M169.576 207.238C173.879 203.978 174.003 201.463 176.21 196.918C177.148 194.986 178.422 192.985 178.422 190.857C178.422 188.3 179.159 186.082 179.159 183.486C179.159 178.076 177.053 175.123 175.473 170.382" stroke="#EE2F14" stroke-width="7.02973" stroke-linecap="round"/>
<path d="M124.707 177.397C127.167 179.234 130.448 182.214 134.882 179.234C136.306 178.465 138.064 176.005 137.934 175.419" stroke="#EE2F14" stroke-width="7.02973" stroke-linecap="round"/>
<path d="M28.6176 197.067C20.0996 201.56 12.8733 208.103 5.20215 213.856" stroke="#EE2F14" stroke-width="7.02973" stroke-linecap="round"/>
<path d="M26.4082 215.181C23.3896 218.979 20.0712 222.683 16.7867 226.251C15.4161 227.739 13.164 228.857 12.2705 230.644" stroke="#EE2F14" stroke-width="7.02973" stroke-linecap="round"/>
<path d="M272.05 204.136C280.524 206.589 288.086 211.641 296.349 214.739" stroke="#EE2F14" stroke-width="7.02973" stroke-linecap="round"/>
<path d="M278.677 218.716C282.706 221.099 287.067 222.543 291.489 224.017" stroke="#EE2F14" stroke-width="7.02973" stroke-linecap="round"/>
<path d="M152.763 13.2778C152.763 19.4958 152.763 25.7137 152.763 31.9317C152.763 36.3547 154.069 38.4338 156.739 41.995" stroke="#EE2F14" stroke-width="7.02973" stroke-linecap="round"/>
<path d="M176.621 4C176.026 13.4442 175.737 22.821 175.737 32.2753" stroke="#EE2F14" stroke-width="7.02973" stroke-linecap="round"/>
</svg>
