<svg width="419" height="254" viewBox="0 0 419 254" fill="none" xmlns="http://www.w3.org/2000/svg">
<path d="M55.3535 67.0408C55.1505 61.155 52.5483 63.5359 50.1681 66.9653C48.4225 63.5166 48.9255 59.3643 50.5297 55.1191C53.316 47.7455 59.4248 40.0913 62.8447 35.356C66.7565 29.9396 70.9367 25.7176 76.3527 21.6555C84.56 15.5001 93.3671 10.1138 103.369 7.30087C114.206 4.25282 125.475 4.18363 136.658 4.18363C144.489 4.18363 151.474 2.61592 158.141 7.30083C160.758 9.13962 166.633 11.7975 168.33 14.5744C169.546 16.5636 171.136 18.3832 172.256 20.4625C175.287 26.0925 181.299 37.2627 183.625 43.4079C181.403 43.8972 179.184 43.324 177.039 42.3282C176.001 41.846 173.467 39.9578 172.899 41.9441C171.34 47.4004 170.474 54.345 164.96 57.3949C160.454 59.8875 156.189 53.3291 153.095 51.1633C149.505 48.6505 149.969 51.8829 149.382 54.3645C148.398 58.5163 148.468 69.3984 144.132 71.4799C140.468 73.2385 135.061 63.4112 132.522 61.5777C130.98 60.4638 127.485 67.4993 126.632 68.4068C123.72 71.5058 115.669 75.2537 112.632 70.2848C112.161 69.5125 111.568 66.3981 110.285 67.6812C105.343 72.6235 102.95 81.8089 94.7061 81.8089C90.7774 81.8089 88.3418 75.8931 86.5112 73.0164C85.1885 70.9379 85.0031 73.0996 84.3771 74.8091C81.9041 81.5622 78.7147 78.6692 75.7899 82.9243C75.7045 81.2776 75.5469 79.6613 75.2859 78.0954C75.1294 77.1562 70.984 83.8316 70.7189 85.2233C70.1642 88.1357 68.9157 87.0693 67.6458 85.6501C64.8602 82.5368 63.8792 77.7342 63.8045 73.6992C63.7934 73.1032 63.8805 65.9665 62.2252 68.4493C61.4775 69.5709 59.5899 74.4272 58.0424 74.0833C56.0774 73.6466 55.4068 68.5877 55.3535 67.0408Z" fill="#FFD6F3"/>
<path d="M26.9274 165.215L30.8169 165.215V165.163L30.8156 165.112L26.9274 165.215ZM23.4701 188.215L20.0701 186.326L23.4701 188.215ZM11.3912 209.342L7.91226 207.603L7.91226 207.603L11.3912 209.342ZM4.64746 223.171H0.757897V226.851L4.4317 227.055L4.64746 223.171ZM30.1712 230.854L28.765 234.48H28.765L30.1712 230.854ZM50.7012 240.841L49.7578 244.615H49.7578L50.7012 240.841ZM65.4264 244.341L67.4546 241.022L65.4264 244.341ZM72.8744 227.453L69.0728 228.275L69.0729 228.276L72.8744 227.453ZM72.853 227.354L69.0511 228.175L69.0514 228.176L72.853 227.354ZM68.7556 201.318L72.584 200.631L68.7556 201.318ZM67.0483 158.892L63.1744 158.544L67.0483 158.892ZM74.5603 119.454L78.4032 120.055L78.4317 119.872L78.4428 119.688L74.5603 119.454ZM21.5013 106.393C21.5013 108.542 23.2427 110.283 25.3908 110.283C27.539 110.283 29.2804 108.542 29.2804 106.393H21.5013ZM26.1591 64.1384L30.0415 64.3737V64.3737L26.1591 64.1384ZM29.5736 70.4554L26.5364 72.8851L29.5736 70.4554ZM40.6709 79.8454L38.6427 83.1642H38.6427L40.6709 79.8454ZM46.5183 73.0163L49.9044 74.9301L49.9044 74.9301L46.5183 73.0163ZM55.3535 67.0408L51.4662 67.1748V67.1748L55.3535 67.0408ZM58.0424 74.0833L57.1987 77.8802H57.1987L58.0424 74.0833ZM62.2252 68.4493L65.4616 70.6068V70.6068L62.2252 68.4493ZM63.8045 73.6992L59.9156 73.7712V73.7712L63.8045 73.6992ZM67.6458 85.6501L70.5445 83.0565L70.5445 83.0565L67.6458 85.6501ZM70.7189 85.2233L74.5398 85.9511V85.951L70.7189 85.2233ZM75.2859 78.0954L71.4492 78.7348V78.7348L75.2859 78.0954ZM75.3286 102.723L79.2177 102.782L79.2181 102.752V102.723H75.3286ZM75.1719 112.994L71.2828 112.935L71.2823 112.965V112.994H75.1719ZM70.983 83.6964C70.1397 85.6721 71.0577 87.9573 73.0334 88.8006C75.0091 89.6439 77.2943 88.7259 78.1376 86.7502L70.983 83.6964ZM84.3771 74.8091L88.0295 76.1465L84.3771 74.8091ZM86.5112 73.0164L89.7927 70.9282L89.7927 70.9282L86.5112 73.0164ZM110.285 67.6812L113.035 70.4315L110.285 67.6812ZM112.632 70.2848L109.314 72.313L109.314 72.313L112.632 70.2848ZM126.632 68.4068L123.798 65.7431L123.798 65.7431L126.632 68.4068ZM132.522 61.5777L130.245 64.7309V64.7309L132.522 61.5777ZM144.132 71.4799L142.449 67.9734L144.132 71.4799ZM149.382 54.3645L145.597 53.468V53.4681L149.382 54.3645ZM153.095 51.1633L155.325 47.9769V47.9769L153.095 51.1633ZM164.96 57.3949L166.843 60.7984L164.96 57.3949ZM172.899 41.9441L176.639 43.0126V43.0126L172.899 41.9441ZM177.039 42.3282L175.401 45.8561L175.401 45.8561L177.039 42.3282ZM185.362 42.7977L183.653 39.304L183.653 39.304L185.362 42.7977ZM189.801 40.3221H193.691V36.4326H189.801V40.3221ZM186.728 93.4183L190.498 94.3742H190.498L186.728 93.4183ZM184.039 126.796L187.919 127.069V127.069L184.039 126.796ZM189.844 177.16L192.99 174.872L189.844 177.16ZM196.289 192.013L199.929 190.642L196.289 192.013ZM196.784 204.139C197.305 206.223 199.416 207.49 201.5 206.969C203.584 206.448 204.852 204.337 204.331 202.253L196.784 204.139ZM76.0968 244.634C73.9487 244.634 72.2073 246.376 72.2073 248.524C72.2073 250.672 73.9487 252.414 76.0968 252.414V244.634ZM100.511 247.756L99.1879 244.098H99.1879L100.511 247.756ZM120.998 240.073L120.384 236.232H120.384L120.998 240.073ZM139.778 231.281L137.858 227.898L139.778 231.281ZM158.686 222.019L157.456 218.329L157.456 218.329L158.686 222.019ZM197.484 209.39C199.632 209.39 201.374 207.649 201.374 205.501C201.374 203.353 199.632 201.611 197.484 201.611V209.39ZM27.9702 58.4109C25.822 58.4109 24.0806 60.1523 24.0806 62.3004C24.0806 64.4486 25.822 66.19 27.9702 66.19V58.4109ZM43.1023 58.2157L46.9858 58.4315V58.4315L43.1023 58.2157ZM47.2045 69.6341C48.319 71.4705 50.7111 72.0558 52.5476 70.9414C54.384 69.8269 54.9693 67.4347 53.8548 65.5983L47.2045 69.6341ZM62.8447 35.356L65.9979 37.6333L65.9979 37.6333L62.8447 35.356ZM76.3527 21.6555L74.019 18.5439V18.5439L76.3527 21.6555ZM103.369 7.30087L102.316 3.55657V3.55657L103.369 7.30087ZM158.141 7.30083L155.905 10.4832V10.4832L158.141 7.30083ZM168.33 14.5744L171.649 12.5462V12.5462L168.33 14.5744ZM172.256 20.4625L168.831 22.3066V22.3066L172.256 20.4625ZM180.266 45.5508C180.969 47.5808 183.184 48.657 185.214 47.9545C187.244 47.2519 188.32 45.0368 187.617 43.0067L180.266 45.5508ZM114.149 32.2806C112.451 33.5957 112.14 36.0387 113.455 37.7373C114.77 39.4359 117.213 39.7468 118.912 38.4318L114.149 32.2806ZM113.744 32.2313C112.784 34.1526 113.562 36.489 115.484 37.4497C117.405 38.4104 119.741 37.6316 120.702 35.7102L113.744 32.2313ZM146.515 19.4018C145.734 21.403 146.724 23.6583 148.725 24.4393C150.726 25.2203 152.981 24.2311 153.762 22.2299L146.515 19.4018ZM145.955 20.7177C145.955 22.8658 147.696 24.6072 149.844 24.6072C151.992 24.6072 153.734 22.8658 153.734 20.7177H145.955ZM125.389 36.9618C123.241 36.9618 121.5 38.7032 121.5 40.8514C121.5 42.9995 123.241 44.7409 125.389 44.7409V36.9618ZM136.334 40.0602L137.417 43.796L136.334 40.0602ZM143.951 37.403L142.212 33.9241L142.212 33.9241L143.951 37.403ZM145.375 36.2845L143.013 33.1948L143.013 33.1948L145.375 36.2845ZM146.696 35.3024L144.329 32.2156L144.329 32.2156L146.696 35.3024ZM147.825 34.3257L145.15 31.5021V31.5021L147.825 34.3257ZM149.408 32.918L152.533 35.2332L152.533 35.2331L149.408 32.918ZM150.63 31.914L148.774 28.4957L148.774 28.4957L150.63 31.914ZM151.907 30.8555L148.709 28.6414L148.709 28.6416L151.907 30.8555ZM154.021 33.7379C156.058 33.0586 157.16 30.8559 156.48 28.818C155.801 26.7801 153.598 25.6787 151.561 26.358L154.021 33.7379ZM29.279 106.928C29.2223 104.78 27.4355 103.086 25.2881 103.142C23.1407 103.199 21.4459 104.986 21.5026 107.133L29.279 106.928ZM23.0378 165.215C23.0378 168.823 23.0344 172.814 22.6274 176.655C22.2159 180.537 21.424 183.889 20.0701 186.326L26.8702 190.104C28.9737 186.317 29.9104 181.747 30.3632 177.475C30.8205 173.16 30.817 168.763 30.8169 165.215L23.0378 165.215ZM20.0701 186.326C18.1457 189.79 16.0783 193.183 13.9713 196.729C11.8853 200.239 9.78525 203.857 7.91226 207.603L14.8701 211.082C16.6099 207.602 18.5886 204.186 20.6585 200.703C22.7073 197.256 24.8731 193.698 26.8702 190.104L20.0701 186.326ZM7.91226 207.603C7.54402 208.339 6.99186 209.237 6.26611 210.369C5.57907 211.441 4.73858 212.72 3.97214 214.003C2.53109 216.415 0.757897 219.758 0.757897 223.171H8.53703C8.53703 222.118 9.19147 220.434 10.6502 217.993C11.3336 216.849 12.061 215.744 12.8155 214.567C13.5312 213.45 14.2941 212.234 14.8701 211.082L7.91226 207.603ZM4.4317 227.055C12.251 227.489 20.3582 231.221 28.765 234.48L31.5774 227.227C23.9748 224.279 14.2701 219.81 4.86322 219.287L4.4317 227.055ZM28.765 234.48C31.8713 235.685 34.8651 237.522 38.3934 239.551C41.7625 241.488 45.5814 243.571 49.7578 244.615L51.6445 237.068C48.6255 236.313 45.6385 234.743 42.271 232.807C39.0628 230.962 35.3893 228.705 31.5774 227.227L28.765 234.48ZM49.7578 244.615C52.2136 245.229 54.6606 246.267 58.5973 246.267V238.488C55.9364 238.488 55.2393 237.967 51.6445 237.068L49.7578 244.615ZM58.5973 246.267C59.8952 246.267 60.566 246.365 61.0925 246.52C61.6325 246.678 62.2586 246.964 63.3982 247.66L67.4546 241.022C66.0936 240.191 64.7864 239.495 63.2777 239.054C61.7554 238.608 60.2619 238.488 58.5973 238.488V246.267ZM63.3982 247.66C63.8389 247.93 64.4734 248.371 65.3723 248.996C66.2193 249.586 67.2318 250.289 68.2737 250.954C69.3059 251.613 70.4585 252.294 71.6028 252.822C72.6563 253.307 74.1233 253.865 75.67 253.865V246.086C75.8461 246.086 75.6294 246.112 74.858 245.756C74.1774 245.443 73.3637 244.974 72.4599 244.397C71.5658 243.826 70.6724 243.207 69.8155 242.611C69.0104 242.051 68.1427 241.443 67.4546 241.022L63.3982 247.66ZM75.67 253.865C78.4699 253.865 79.5044 251.496 79.717 250.9C80.0059 250.092 80.0758 249.259 80.1004 248.693L72.3286 248.355C72.3135 248.702 72.2802 248.594 72.3914 248.283C72.4485 248.123 72.6369 247.639 73.1207 247.148C73.6931 246.567 74.5847 246.086 75.67 246.086V253.865ZM80.1004 248.693C80.2257 245.817 79.3803 240.521 78.5925 236.198C77.7681 231.674 76.8707 227.529 76.6759 226.63L69.0729 228.276C69.2642 229.159 70.1391 233.201 70.9394 237.593C71.7763 242.185 72.4079 246.534 72.3286 248.355L80.1004 248.693ZM76.676 226.63L76.6547 226.531L69.0514 228.176L69.0728 228.275L76.676 226.63ZM76.6549 226.533C75.7517 222.351 75.1341 218.143 74.5404 213.815C73.9522 209.527 73.3826 205.08 72.584 200.631L64.9272 202.005C65.6895 206.252 66.2317 210.486 66.8335 214.872C67.4298 219.22 68.0804 223.681 69.0511 228.175L76.6549 226.533ZM72.584 200.631C72.2648 198.853 71.7161 196.954 71.3744 195.578C70.9963 194.056 70.7671 192.824 70.7671 191.672H62.988C62.988 193.8 63.4086 195.779 63.8248 197.454C64.2774 199.276 64.6677 200.559 64.9272 202.005L72.584 200.631ZM70.7671 191.672C70.7671 180.45 69.9716 169.803 70.9222 159.241L63.1744 158.544C62.1842 169.546 62.988 181.236 62.988 191.672H70.7671ZM70.9222 159.241C71.3149 154.878 72.7775 147.552 74.3876 139.924C75.9612 132.469 77.668 124.76 78.4032 120.055L70.7174 118.854C70.0243 123.289 68.3927 130.659 66.7762 138.317C65.1963 145.802 63.6171 153.625 63.1744 158.544L70.9222 159.241ZM29.2804 106.393V75.3211H21.5013V106.393H29.2804ZM29.2804 75.3211C29.2804 71.5883 29.7823 68.6511 30.0415 64.3737L22.2767 63.9031C22.0793 67.16 21.5013 71.4066 21.5013 75.3211H29.2804ZM30.0415 64.3737C30.0355 64.4735 30.0173 64.6987 29.9448 64.9868C29.885 65.2245 29.7079 65.8438 29.1868 66.469C28.5494 67.2338 27.4949 67.8658 26.1877 67.8493C25.1103 67.8358 24.3675 67.381 24.0805 67.1835C23.7505 66.9565 23.5386 66.7309 23.4483 66.6302C23.3432 66.513 23.274 66.4187 23.2424 66.3742C23.1814 66.2884 23.1618 66.2484 23.1892 66.2969C23.3258 66.5391 23.5741 67.0673 23.9525 67.9066C24.2917 68.6591 24.7074 69.5964 25.0979 70.4091C25.4291 71.0984 25.9486 72.1503 26.5364 72.8851L32.6109 68.0256C32.6683 68.0973 32.5056 67.8642 32.1096 67.04C31.7728 66.3391 31.416 65.5342 31.0442 64.7094C30.7115 63.9714 30.31 63.087 29.9647 62.4749C29.8716 62.3098 29.742 62.0911 29.5832 61.8677C29.4928 61.7405 29.1226 61.2101 28.4898 60.7747C28.1667 60.5524 27.3916 60.0847 26.2854 60.0708C24.9493 60.054 23.8697 60.6982 23.211 61.4886C22.6686 62.1393 22.4741 62.7974 22.4009 63.0881C22.3151 63.4292 22.2877 63.7214 22.2767 63.9031L30.0415 64.3737ZM26.5364 72.8851C29.8511 77.0286 34.3905 80.5657 38.6427 83.1642L42.6991 76.5265C38.9301 74.2232 35.1834 71.2412 32.6109 68.0256L26.5364 72.8851ZM38.6427 83.1642C40.134 84.0756 42.3415 84.9717 44.678 84.0326C46.8611 83.1552 47.7866 81.1815 48.1845 80.1925C48.6181 79.1149 48.9539 77.7583 49.1799 76.9499C49.4606 75.9455 49.6795 75.3282 49.9044 74.9301L43.1322 71.1024C42.3993 72.3991 41.9749 73.8291 41.6879 74.8558C41.3461 76.0784 41.1898 76.7366 40.9676 77.2889C40.7097 77.9298 40.8159 77.2009 41.777 76.8146C42.8915 76.3667 43.4743 77.0002 42.6991 76.5265L38.6427 83.1642ZM49.9044 74.9301C50.588 73.7207 51.9382 71.2366 53.3634 69.1831L46.9727 64.7476C45.2882 67.1746 43.7181 70.0658 43.1322 71.1024L49.9044 74.9301ZM53.3634 69.1831C53.9053 68.4024 54.3867 67.7898 54.7761 67.3792C54.9688 67.176 55.0873 67.0776 55.1299 67.0457C55.1927 66.9987 55.0364 67.1343 54.6813 67.2394C54.2763 67.3593 53.5382 67.4526 52.7178 67.1007C51.9224 66.7595 51.5353 66.2071 51.4018 65.9697C51.2807 65.7543 51.3018 65.6906 51.3515 65.9469C51.3967 66.1805 51.4455 66.5734 51.4662 67.1748L59.2407 66.9068C59.1861 65.3234 58.9755 63.5676 58.1829 62.1577C57.7398 61.3694 56.9884 60.468 55.7845 59.9516C54.5557 59.4244 53.3649 59.5163 52.4732 59.7803C50.9394 60.2343 49.7861 61.3361 49.1317 62.0261C48.3575 62.8425 47.621 63.8135 46.9727 64.7475L53.3634 69.1831ZM51.4662 67.1748C51.5018 68.2063 51.7192 70.1672 52.2332 72.0188C52.4882 72.9374 52.8734 74.0426 53.4763 75.0354C54.0267 75.9415 55.1725 77.43 57.1987 77.8802L58.8862 70.2864C59.9299 70.5183 60.2549 71.2106 60.1252 70.9971C60.0481 70.8701 59.8938 70.5321 59.7289 69.9379C59.403 68.7642 59.2585 67.4222 59.2407 66.9068L51.4662 67.1748ZM57.1987 77.8802C59.7682 78.4513 61.5362 76.7358 62.0536 76.1953C62.7894 75.4266 63.3801 74.4901 63.8003 73.764C64.2445 72.9963 64.6472 72.1969 64.9471 71.6019C65.106 71.2866 65.2292 71.0422 65.3353 70.8409C65.4536 70.6164 65.4868 70.569 65.4616 70.6068L58.9889 66.2918C58.7768 66.6099 58.5874 66.9597 58.4534 67.2141C58.307 67.4917 58.148 67.808 58.0006 68.1003C57.6879 68.7206 57.3818 69.3241 57.0672 69.8677C56.7286 70.4529 56.5106 70.7361 56.4338 70.8163C56.3984 70.8533 56.5422 70.6866 56.8759 70.5173C57.2482 70.3284 57.9772 70.0844 58.8862 70.2864L57.1987 77.8802ZM65.4616 70.6068C65.4612 70.6074 65.3676 70.7518 65.1645 70.9408C64.9755 71.1165 64.5114 71.4996 63.7631 71.6977C62.904 71.9251 61.9795 71.8234 61.1858 71.4093C60.4938 71.0484 60.1156 70.5646 59.9564 70.3315C59.668 69.909 59.6279 69.611 59.6733 69.7947C59.6971 69.8912 59.7335 70.0835 59.7698 70.3849C59.9253 71.6756 59.9067 73.2941 59.9156 73.7712L67.6934 73.6272C67.6944 73.6834 67.6919 72.838 67.674 72.1735C67.6535 71.4139 67.6076 70.4049 67.4931 69.4545C67.4361 68.9817 67.3535 68.448 67.2255 67.9296C67.119 67.4985 66.8943 66.697 66.381 65.9452C66.1095 65.5475 65.6089 64.9427 64.7836 64.5122C63.8566 64.0286 62.7878 63.9088 61.7726 64.1775C60.1292 64.6125 59.2617 65.8827 58.9889 66.2918L65.4616 70.6068ZM59.9156 73.7712C59.9967 78.1537 61.0378 84.0978 64.7472 88.2436L70.5445 83.0565C68.6827 80.9757 67.7617 77.3146 67.6934 73.6272L59.9156 73.7712ZM64.7472 88.2436C65.0878 88.6244 65.5589 89.1333 66.0909 89.5774C66.5339 89.9473 67.5141 90.7064 68.881 90.9087C69.6591 91.0239 70.5481 90.9552 71.4246 90.5635C72.2781 90.1821 72.8855 89.5995 73.2984 89.0474C74.0484 88.0444 74.3662 86.8623 74.5398 85.9511L66.8981 84.4955C66.7943 85.0405 66.748 84.8173 67.0682 84.3891C67.2661 84.1244 67.6423 83.7332 68.2506 83.4614C68.882 83.1792 69.5121 83.1382 70.02 83.2134C70.4837 83.282 70.7947 83.4375 70.9204 83.5074C71.0528 83.5811 71.1075 83.6318 71.0765 83.606C70.9999 83.542 70.8387 83.3854 70.5445 83.0565L64.7472 88.2436ZM74.5398 85.951C74.4836 86.246 74.4162 86.3363 74.5412 86.0541C74.6302 85.8532 74.7691 85.5697 74.9578 85.2142C75.333 84.5074 75.8303 83.6566 76.3323 82.8613C76.8487 82.0431 77.2975 81.3991 77.5739 81.0555C77.7726 80.8086 77.6794 80.972 77.3695 81.2013C77.2668 81.2774 77.0499 81.4289 76.7369 81.5695C76.4565 81.6954 75.8235 81.939 74.977 81.8879C73.9752 81.8273 72.98 81.3659 72.2766 80.5252C71.678 79.8097 71.5065 79.0781 71.4492 78.7348L79.1225 77.456C79.0555 77.054 78.8664 76.2786 78.2429 75.5334C77.5146 74.6629 76.4873 74.1858 75.4464 74.1229C74.5609 74.0694 73.882 74.3239 73.5495 74.4733C73.1843 74.6374 72.9088 74.8249 72.7416 74.9486C72.174 75.3687 71.7293 75.9103 71.5132 76.1789C70.96 76.8663 70.3266 77.802 69.7539 78.7092C69.1669 79.6393 68.5684 80.6596 68.0869 81.5665C67.8473 82.0179 67.6176 82.4769 67.4285 82.9037C67.2755 83.2493 67.0205 83.8526 66.8981 84.4955L74.5398 85.951ZM71.4492 78.7348C71.6811 80.1259 71.826 81.592 71.9055 83.1257L79.6742 82.723C79.583 80.9632 79.4127 79.1968 79.1225 77.4559L71.4492 78.7348ZM71.9055 83.1257C72.0641 86.1862 71.958 89.4082 71.8009 92.7474C71.6469 96.0214 71.439 99.478 71.439 102.723H79.2181C79.2181 99.7174 79.4102 96.5419 79.5715 93.1129C79.7297 89.749 79.8543 86.1969 79.6742 82.723L71.9055 83.1257ZM71.4395 102.663L71.2828 112.935L79.061 113.054L79.2177 102.782L71.4395 102.663ZM71.2823 112.994C71.2823 113.441 71.2216 113.944 71.083 115.04C70.9523 116.075 70.7866 117.417 70.6778 119.22L78.4428 119.688C78.5361 118.143 78.6762 117.001 78.8007 116.016C78.9174 115.092 79.0614 114.039 79.0614 112.994H71.2823ZM78.1376 86.7502C78.4587 85.9978 78.7512 85.4827 78.9952 85.1276L72.5845 80.7211C71.9963 81.5769 71.4671 82.5621 70.983 83.6964L78.1376 86.7502ZM78.9953 85.1276C79.6904 84.1163 79.9372 84.1983 81.8296 83.3591C82.8341 82.9137 84.0713 82.2463 85.2522 80.9759C86.3966 79.7447 87.2916 78.1615 88.0295 76.1465L80.7247 73.4716C80.2261 74.8332 79.795 75.4208 79.5546 75.6795C79.3505 75.899 79.1438 76.0405 78.6762 76.2478C77.6245 76.7142 74.8141 77.4773 72.5845 80.7211L78.9953 85.1276ZM88.0295 76.1465C88.2332 75.5902 88.4159 74.9533 88.5069 74.6573C88.6542 74.1774 88.6601 74.2518 88.5379 74.4602C88.4718 74.5729 88.1712 75.0773 87.5135 75.4974C86.6809 76.0292 85.6141 76.2071 84.6066 75.9097C83.8053 75.6732 83.3668 75.2305 83.2786 75.14C83.1565 75.0146 83.1421 74.9669 83.2297 75.1046L89.7927 70.9282C89.5497 70.5463 89.2401 70.1115 88.8522 69.7132C88.4983 69.3497 87.8234 68.7483 86.809 68.4488C85.5883 68.0885 84.3315 68.2993 83.326 68.9415C82.4954 69.4721 82.039 70.1644 81.8279 70.5243C81.4157 71.227 81.1752 72.0324 81.0705 72.3737C80.9092 72.8988 80.834 73.1732 80.7247 73.4716L88.0295 76.1465ZM83.2297 75.1046C83.6201 75.7181 84.0249 76.4653 84.633 77.5311C85.1938 78.5142 85.8771 79.6735 86.6695 80.7698C88.0783 82.7191 90.6912 85.6984 94.7061 85.6984V77.9193C94.7056 77.9193 94.7059 77.9193 94.7065 77.9194C94.7072 77.9194 94.7071 77.9195 94.7057 77.9192C94.7038 77.9188 94.6916 77.9164 94.6673 77.9073C94.617 77.8885 94.5082 77.8381 94.3408 77.7141C93.98 77.4468 93.5208 76.9691 92.9743 76.213C92.4378 75.4708 91.9235 74.6117 91.39 73.6765C90.9037 72.8241 90.3176 71.7531 89.7927 70.9282L83.2297 75.1046ZM94.7061 85.6984C100.615 85.6984 104.279 82.2618 106.814 78.9731C108.039 77.3847 109.189 75.5755 110.151 74.1466C111.182 72.6158 112.083 71.3835 113.035 70.4315L107.535 64.9309C106.015 66.4501 104.764 68.2193 103.699 69.8008C102.565 71.4842 101.675 72.898 100.653 74.2237C98.6953 76.7633 97.0409 77.9193 94.7061 77.9193V85.6984ZM113.035 70.4315C112.893 70.574 112.458 70.9652 111.707 71.159C110.855 71.3792 110.016 71.2366 109.365 70.906C108.808 70.6231 108.51 70.2687 108.418 70.1524C108.312 70.0183 108.279 69.9418 108.304 69.9907C108.365 70.1088 108.446 70.3107 108.603 70.7312C108.666 70.9011 108.756 71.1444 108.847 71.3678C108.926 71.5612 109.083 71.9359 109.314 72.313L115.951 68.2566C116.08 68.4672 116.106 68.588 115.891 68.0122C115.764 67.6717 115.529 67.0303 115.222 66.4337C115.011 66.0236 114.329 64.7019 112.888 63.9702C111.994 63.516 110.895 63.3345 109.762 63.627C108.732 63.8931 107.998 64.4676 107.535 64.9309L113.035 70.4315ZM109.314 72.313C112.166 76.9807 117.238 77.0081 120.64 76.1401C124.095 75.2586 127.491 73.1722 129.467 71.0704L123.798 65.7431C122.861 66.7403 120.775 68.0774 118.717 68.6024C116.607 69.1408 116.135 68.5578 115.951 68.2566L109.314 72.313ZM129.467 71.0704C129.844 70.6686 130.166 70.1759 130.327 69.9278C130.541 69.5998 130.78 69.2105 131.012 68.8324C131.499 68.0381 132.013 67.1924 132.54 66.4145C133.101 65.5849 133.503 65.0962 133.715 64.8997C133.84 64.7842 133.65 65.0052 133.171 65.1766C132.534 65.4044 131.342 65.5233 130.245 64.7309L134.8 58.4245C133.317 57.3536 131.679 57.4487 130.552 57.8516C129.583 58.1981 128.86 58.7931 128.427 59.1947C127.523 60.0324 126.709 61.1505 126.098 62.0539C125.451 63.0091 124.836 64.0228 124.379 64.7681C124.139 65.1598 123.953 65.4604 123.806 65.6864C123.607 65.9924 123.633 65.9181 123.798 65.7431L129.467 71.0704ZM130.245 64.7309C130.224 64.7155 130.367 64.8249 130.713 65.2084C131.03 65.56 131.405 66.0136 131.855 66.5753C132.701 67.6337 133.834 69.1109 134.96 70.4162C136.071 71.7041 137.455 73.1651 138.983 74.176C140.436 75.1377 143.027 76.3245 145.815 74.9864L142.449 67.9734C143.404 67.5145 143.946 68.1324 143.276 67.6888C142.68 67.2945 141.867 66.5137 140.85 65.3355C139.849 64.1746 138.925 62.9612 137.929 61.7162C137.104 60.6842 135.95 59.2558 134.8 58.4245L130.245 64.7309ZM145.815 74.9864C148.099 73.8899 149.41 71.8453 150.191 70.1045C150.997 68.3103 151.493 66.2728 151.839 64.4061C152.188 62.5173 152.421 60.5806 152.617 58.9682C152.827 57.247 152.982 56.0393 153.166 55.2609L145.597 53.4681C145.289 54.7656 145.084 56.475 144.895 58.027C144.693 59.6877 144.487 61.38 144.189 62.9909C143.887 64.624 143.527 65.9567 143.095 66.9181C142.639 67.9329 142.332 68.0291 142.449 67.9734L145.815 74.9864ZM153.166 55.2609C153.36 54.4429 153.481 53.4942 153.548 53.0613C153.591 52.7855 153.623 52.6208 153.648 52.5152C153.677 52.3984 153.67 52.4757 153.584 52.6444C153.496 52.8195 153.248 53.2417 152.72 53.6094C152.138 54.0146 151.502 54.1555 150.987 54.1428C150.547 54.132 150.307 54.0135 150.352 54.0332C150.383 54.0471 150.545 54.1264 150.864 54.3498L155.325 47.9769C154.316 47.2705 152.864 46.4075 151.178 46.366C150.194 46.3419 149.173 46.6 148.275 47.2258C147.43 47.8141 146.932 48.5604 146.641 49.1376C146.121 50.1661 145.947 51.3174 145.861 51.8667C145.738 52.6593 145.697 53.0453 145.597 53.468L153.166 55.2609ZM150.864 54.3498C151.329 54.6752 151.939 55.2469 152.909 56.1897C153.776 57.0332 154.889 58.128 156.082 59.0738C158.296 60.8297 162.348 63.2852 166.843 60.7984L163.078 53.9914C163.067 53.9972 162.733 54.4198 160.915 52.9782C160.091 52.3253 159.275 51.5301 158.332 50.6127C157.491 49.7946 156.407 48.7343 155.325 47.9769L150.864 54.3498ZM166.843 60.7984C170.707 58.6612 172.762 55.2262 174.033 51.9951C175.216 48.9841 175.993 45.2749 176.639 43.0126L169.159 40.8755C168.247 44.0695 167.81 46.5608 166.793 49.1486C165.862 51.5164 164.728 53.0786 163.078 53.9914L166.843 60.7984ZM176.639 43.0126C176.584 43.2045 176.436 43.592 176.069 43.9939C175.68 44.4199 175.19 44.7012 174.702 44.8398C174.255 44.967 173.905 44.9484 173.745 44.9302C173.583 44.9118 173.506 44.8813 173.539 44.8924C173.626 44.922 173.816 45.0066 174.174 45.2011C174.364 45.3047 174.48 45.3718 174.704 45.4955C174.877 45.5908 175.135 45.7325 175.401 45.8561L178.677 38.8003C178.684 38.8033 178.636 38.7805 178.469 38.688C178.353 38.624 178.097 38.48 177.895 38.3697C177.467 38.1366 176.794 37.7829 176.046 37.5284C175.394 37.3064 174.064 36.9344 172.577 37.3568C170.697 37.8907 169.593 39.3575 169.159 40.8755L176.639 43.0126ZM175.401 45.8561C177.896 47.0143 181.044 47.9588 184.462 47.2065L182.789 39.6093C181.761 39.8356 180.472 39.6337 178.677 38.8003L175.401 45.8561ZM184.462 47.2065C185.345 47.012 186.218 46.7095 187.072 46.2914L183.653 39.304C183.35 39.452 183.064 39.5488 182.789 39.6093L184.462 47.2065ZM187.072 46.2914C187.768 45.9506 188.36 45.553 188.814 45.2273C189.043 45.0632 189.26 44.9 189.44 44.764C189.632 44.6196 189.78 44.5081 189.923 44.4042C190.063 44.303 190.166 44.2325 190.247 44.1813C190.287 44.1567 190.316 44.1394 190.337 44.1277C190.358 44.1161 190.368 44.1114 190.367 44.1116C190.367 44.1118 190.354 44.1178 190.33 44.1268C190.305 44.1359 190.268 44.1484 190.219 44.1611C190.118 44.1872 189.975 44.2117 189.801 44.2117V36.4326C187.671 36.4326 186.063 37.5946 185.358 38.1052C184.32 38.8576 184.083 39.0934 183.653 39.304L187.072 46.2914ZM185.912 40.3221C185.912 58.4304 187.187 75.7792 182.958 92.4625L190.498 94.3742C195.04 76.4613 193.691 57.624 193.691 40.3221H185.912ZM182.958 92.4625C181.492 98.2464 181.002 104.127 180.765 109.822C180.522 115.694 180.548 121 180.159 126.522L187.919 127.069C188.313 121.474 188.316 115.485 188.538 110.145C188.767 104.628 189.23 99.3782 190.498 94.3742L182.958 92.4625ZM180.159 126.522C179.383 137.548 179.793 158.306 179.793 159.669H187.572C187.572 157.921 187.168 137.73 187.919 127.069L180.159 126.522ZM179.793 159.669C179.793 167.863 182.196 173.257 186.698 179.448L192.99 174.872C189.184 169.64 187.572 165.813 187.572 159.669H179.793ZM186.698 179.448C188.004 181.244 189.001 183.349 189.925 185.751C190.386 186.95 190.813 188.18 191.258 189.468C191.696 190.737 192.155 192.073 192.649 193.385L199.929 190.642C199.481 189.453 199.061 188.23 198.612 186.929C198.169 185.649 197.701 184.299 197.185 182.958C196.154 180.279 194.87 177.459 192.99 174.872L186.698 179.448ZM192.649 193.385C193.378 195.319 194.283 197.341 194.997 199.052C195.749 200.856 196.376 202.509 196.784 204.139L204.331 202.253C203.778 200.043 202.969 197.958 202.177 196.058C201.346 194.065 200.597 192.416 199.929 190.642L192.649 193.385ZM76.0968 252.414C76.133 252.414 76.1686 252.414 76.2039 252.414L76.2251 244.635C76.1818 244.635 76.139 244.634 76.0968 244.634V252.414ZM76.2046 252.414C77.9031 252.418 79.7925 252.523 81.8774 252.649C83.9252 252.774 86.1551 252.918 88.3776 252.981C92.7496 253.104 97.6184 252.938 101.834 251.413L99.1879 244.098C96.4274 245.097 92.8022 245.324 88.597 245.205C86.531 245.147 84.4515 245.012 82.3486 244.884C80.2828 244.759 78.18 244.64 76.2244 244.635L76.2046 252.414ZM101.834 251.413C105.236 250.183 108.956 248.405 112.198 247.009C115.613 245.537 118.731 244.375 121.613 243.914L120.384 236.232C116.488 236.856 112.623 238.355 109.12 239.864C105.443 241.448 102.308 242.97 99.1879 244.098L101.834 251.413ZM121.613 243.914C125.446 243.3 129.197 241.66 132.521 239.918C135.769 238.216 139.159 236.105 141.699 234.663L137.858 227.898C134.85 229.606 132.06 231.377 128.91 233.027C125.836 234.638 122.971 235.818 120.384 236.232L121.613 243.914ZM141.699 234.663C147.773 231.214 153.791 227.75 159.916 225.709L157.456 218.329C150.465 220.659 143.745 224.556 137.858 227.898L141.699 234.663ZM159.916 225.709C168.853 222.73 177.253 217.447 184.626 213.76L181.147 206.802C172.768 210.992 165.715 215.576 157.456 218.329L159.916 225.709ZM184.626 213.76C186.57 212.788 188.971 211.667 191.37 210.795C193.845 209.896 195.978 209.39 197.484 209.39V201.611C194.599 201.611 191.437 202.494 188.714 203.484C185.913 204.501 183.211 205.77 181.147 206.802L184.626 213.76ZM27.9702 66.19C29.0329 66.19 33.3798 66.4882 37.0038 66.0952C38.8522 65.8948 41.0249 65.4821 42.8657 64.5097C44.8347 63.4695 46.8137 61.5306 46.9858 58.4315L39.2187 58C39.2449 57.5278 39.6453 57.413 39.2321 57.6313C38.6907 57.9173 37.6775 58.1974 36.1652 58.3614C33.068 58.6973 29.9948 58.4109 27.9702 58.4109V66.19ZM46.9858 58.4315C46.9352 59.3422 46.3547 59.8809 46.1573 60.0121C46.0946 60.0537 46.2591 59.9418 46.9096 59.7895C47.5219 59.6462 48.1929 59.545 49.0602 59.4043C49.7967 59.2849 50.848 59.1129 51.7597 58.809L49.2997 51.4291C49.084 51.501 48.6607 51.5884 47.8151 51.7255C47.1003 51.8414 46.0817 51.9939 45.1365 52.2152C44.2295 52.4275 42.9687 52.791 41.8525 53.5326C40.6017 54.3636 39.3394 55.8268 39.2187 58L46.9858 58.4315ZM53.8548 65.5983C53.7768 65.4697 53.7048 65.3399 53.6385 65.2088L46.6977 68.7218C46.8539 69.0304 47.0228 69.3347 47.2045 69.6341L53.8548 65.5983ZM53.6384 65.2088C52.6271 63.2107 52.7083 60.3571 54.1681 56.494L46.8912 53.7442C45.1426 58.3716 44.218 63.8225 46.6977 68.7218L53.6384 65.2088ZM54.1681 56.494C56.7189 49.7437 62.367 42.6607 65.9979 37.6333L59.6916 33.0787C56.4825 37.5219 49.9131 45.7472 46.8912 53.7442L54.1681 56.494ZM65.9979 37.6333C69.6728 32.545 73.5738 28.6017 78.6865 24.7672L74.019 18.5439C68.2996 22.8334 63.8403 27.3342 59.6915 33.0787L65.9979 37.6333ZM78.6865 24.7672C86.7214 18.741 95.0828 13.6718 104.422 11.0452L102.316 3.55657C91.6515 6.55588 82.3986 12.2592 74.019 18.5439L78.6865 24.7672ZM104.422 11.0452C114.665 8.16438 125.405 8.0732 136.658 8.0732V0.29407C125.544 0.29407 113.748 0.341248 102.316 3.55657L104.422 11.0452ZM136.658 8.0732C138.716 8.0732 140.735 7.96976 142.535 7.89839C144.383 7.82509 146.042 7.78307 147.624 7.86921C150.707 8.03698 153.344 8.68392 155.905 10.4832L160.377 4.11843C156.271 1.23283 152.082 0.321169 148.047 0.101576C146.071 -0.00596976 144.099 0.0511317 142.226 0.125371C140.306 0.201549 138.515 0.29407 136.658 0.29407V8.0732ZM155.905 10.4832C156.714 11.052 157.711 11.6416 158.639 12.1828C159.621 12.7549 160.587 13.3081 161.535 13.8942C162.481 14.479 163.302 15.0323 163.951 15.5549C164.636 16.1059 164.926 16.4629 165.011 16.6026L171.649 12.5462C170.886 11.2975 169.806 10.2809 168.829 9.49508C167.818 8.68089 166.688 7.93413 165.626 7.27741C164.566 6.62213 163.467 5.9925 162.557 5.46237C161.595 4.90122 160.876 4.46909 160.377 4.11842L155.905 10.4832ZM165.011 16.6026C165.713 17.7505 166.525 18.852 167.166 19.7482C167.85 20.7042 168.399 21.5042 168.831 22.3066L175.68 18.6185C174.993 17.3416 174.187 16.1922 173.492 15.2212C172.755 14.1905 172.163 13.3876 171.649 12.5462L165.011 16.6026ZM168.831 22.3066C171.923 28.0488 177.776 38.9414 179.988 44.7847L187.263 42.031C184.823 35.584 178.651 24.1361 175.68 18.6185L168.831 22.3066ZM179.988 44.7847C180.091 45.0578 180.184 45.3133 180.266 45.5508L187.617 43.0067C187.508 42.6897 187.389 42.3638 187.263 42.0311L179.988 44.7847ZM118.912 38.4318C119.778 37.7611 120.51 37.0583 121.048 36.3173C121.315 35.9495 121.601 35.481 121.806 34.9239C121.978 34.4529 122.265 33.4542 121.939 32.2695C121.519 30.7384 120.236 29.5605 118.599 29.3312C117.329 29.1532 116.345 29.6087 115.871 29.883C114.827 30.4877 114.152 31.4157 113.744 32.2313L120.702 35.7102C120.674 35.7672 120.444 36.2239 119.769 36.6147C119.48 36.7821 118.661 37.195 117.52 37.0351C116.891 36.947 116.179 36.6791 115.557 36.1261C114.937 35.5752 114.597 34.9108 114.438 34.3289C114.15 33.2797 114.419 32.4733 114.501 32.2477C114.615 31.9361 114.739 31.7661 114.754 31.7461C114.787 31.7008 114.653 31.891 114.149 32.2806L118.912 38.4318ZM153.762 22.2299C153.953 21.7399 154.211 20.9166 154.126 19.9464C154.083 19.4597 153.925 18.6264 153.315 17.8176C152.616 16.8916 151.474 16.2294 150.131 16.2299C148.946 16.2303 148.08 16.7421 147.601 17.126C147.097 17.5311 146.764 17.9916 146.549 18.3759C146.112 19.1557 145.955 19.9831 145.955 20.7177H153.734C153.734 21.0699 153.66 21.5982 153.337 22.1745C153.179 22.457 152.911 22.8396 152.471 23.1923C152.058 23.5239 151.258 24.0086 150.134 24.009C148.851 24.0095 147.763 23.3742 147.106 22.5037C146.537 21.7504 146.409 21.0011 146.376 20.6283C146.311 19.8862 146.512 19.4111 146.515 19.4018L153.762 22.2299ZM125.389 44.7409C128.634 44.7409 133.233 45.0088 137.417 43.796L135.252 36.3244C132.43 37.1424 129.364 36.9618 125.389 36.9618V44.7409ZM137.417 43.796C139.845 43.0924 142.9 42.2775 145.691 40.8819L142.212 33.9241C140.202 34.929 137.954 35.541 135.252 36.3244L137.417 43.796ZM145.691 40.882C146.418 40.5183 146.957 40.0619 147.249 39.8058C147.354 39.7138 147.582 39.5085 147.61 39.4839C147.698 39.4059 147.731 39.38 147.738 39.3742L143.013 33.1948C142.782 33.3712 142.585 33.5425 142.446 33.6661C142.377 33.7273 142.307 33.7904 142.257 33.8349C142.202 33.8844 142.162 33.9204 142.126 33.9522C141.961 34.0965 142.026 34.0171 142.212 33.9241L145.691 40.882ZM147.738 39.3742C147.919 39.2358 148.108 39.0975 148.335 38.9307C148.552 38.772 148.806 38.5856 149.062 38.3891L144.329 32.2156C144.15 32.3531 143.962 32.4912 143.736 32.6567C143.521 32.8142 143.267 33 143.013 33.1948L147.738 39.3742ZM149.062 38.3891C149.597 37.9791 150.088 37.5404 150.5 37.1493L145.15 31.5021C144.851 31.786 144.574 32.0276 144.329 32.2156L149.062 38.3891ZM150.5 37.1493C150.5 37.1493 150.501 37.1487 150.502 37.1474C150.504 37.1462 150.506 37.1443 150.509 37.1418C150.514 37.1367 150.523 37.1295 150.534 37.1197C150.558 37.0995 150.591 37.0726 150.639 37.0349C150.688 36.9957 150.741 36.9547 150.814 36.8985C150.881 36.8467 150.969 36.7795 151.058 36.7093C151.394 36.4441 152 35.9522 152.533 35.2332L146.282 30.6028C146.39 30.4566 146.461 30.4272 146.239 30.6018C146.189 30.6416 146.135 30.683 146.062 30.7397C145.994 30.7921 145.907 30.8595 145.817 30.9302C145.639 31.0712 145.4 31.2657 145.15 31.5021L150.5 37.1493ZM152.533 35.2331C152.479 35.3056 152.436 35.3554 152.413 35.3816C152.388 35.4091 152.372 35.4246 152.368 35.4285C152.364 35.4328 152.366 35.4309 152.374 35.4233C152.383 35.4158 152.395 35.4055 152.41 35.3931C152.443 35.3668 152.477 35.3421 152.504 35.3239C152.516 35.3153 152.523 35.3112 152.523 35.3112C152.522 35.3114 152.52 35.3132 152.514 35.3165C152.508 35.3197 152.499 35.3251 152.486 35.3324L148.774 28.4957C148.332 28.7358 147.897 29.0405 147.535 29.3314C147.203 29.5984 146.7 30.0392 146.282 30.6028L152.533 35.2331ZM152.486 35.3324C153.209 34.9398 154.269 34.2771 155.105 33.0694L148.709 28.6416C148.747 28.5858 148.788 28.5367 148.827 28.4958C148.866 28.4555 148.897 28.4291 148.913 28.416C148.929 28.4035 148.93 28.4046 148.907 28.419C148.884 28.4339 148.842 28.4586 148.774 28.4957L152.486 35.3324ZM155.105 33.0696C155.059 33.1353 155.025 33.1778 155.013 33.193C154.998 33.2113 154.991 33.2201 154.99 33.2201C154.99 33.2208 154.992 33.2184 154.996 33.2141C154.998 33.2121 155 33.2104 155.001 33.2089C155.002 33.2082 155.003 33.2076 155.003 33.2072C155.003 33.2067 155.004 33.2065 155.004 33.2065C155.004 33.2065 155.003 33.2068 155.003 33.2074C155.002 33.2079 155.001 33.2088 155 33.2101C154.997 33.2125 154.992 33.2168 154.985 33.2228C154.973 33.2333 154.944 33.2577 154.9 33.2912C154.858 33.3222 154.776 33.3813 154.658 33.4503C154.554 33.5118 154.333 33.6339 154.021 33.7379L151.561 26.358C150.896 26.5795 150.418 26.9286 150.243 27.0595C150 27.2411 149.791 27.4277 149.632 27.5797C149.346 27.8524 148.99 28.2348 148.709 28.6414L155.105 33.0696ZM21.5026 107.133L23.0392 165.317L30.8156 165.112L29.279 106.928L21.5026 107.133Z" fill="#EE2F14"/>
<path d="M270.191 66.0427C269.449 66.3725 268.539 65.7714 267.567 64.7569L269.189 48.6754C269.188 47.4621 269.539 46.4633 269.995 45.6098C270.582 44.511 271.513 43.6432 272.532 42.9269C278.851 38.4857 286.423 34.6095 293.877 33.0747C307.115 30.3494 323.187 37.9526 332.526 46.8857C336.461 50.6498 340.731 53.6057 343.998 58.0978C346.744 61.8738 347.774 66.6913 350.384 70.4608C353.217 74.5537 354.322 81.2979 354.423 86.4661C351.423 88.055 350.201 92.2055 346.114 91.734C343.666 91.4515 340.976 89.6405 339.097 88.1699C337.662 87.0464 336.896 83.7544 334.679 84.3087C330.983 85.2328 328.94 89.4351 325.62 91.0657C322.313 92.6905 320.514 89.057 318.604 87.2417C316.234 84.9911 313.99 87.6411 311.624 88.4297C303.145 91.2559 304.671 79.772 298.444 79.4823C292.093 79.1869 289.027 77.8616 284.262 73.0966C282.649 71.4835 280.933 67.8608 278.396 69.4583C277.391 70.0909 275.083 71.6252 274.386 69.978C273.921 68.8792 273.012 64.674 272.159 64.1864C271.103 63.5834 270.919 65.7191 270.191 66.0427Z" fill="#FAA694"/>
<path d="M224.587 198.065C222.537 198.708 221.397 200.891 222.04 202.94C222.683 204.99 224.866 206.13 226.915 205.487L224.587 198.065ZM233.102 200.439L232.874 196.557H232.874L233.102 200.439ZM234.104 197.284L230.28 196.575L230.28 196.575L234.104 197.284ZM238.077 110.78L241.955 111.075L238.077 110.78ZM243.275 63.1468L246.985 64.3141L243.275 63.1468ZM246.987 53.9395L243.324 52.6313L243.324 52.6313L246.987 53.9395ZM247.841 54.4593L251.668 53.7635L247.841 54.4593ZM254.487 62.4786L251.816 59.6508L251.816 59.6508L254.487 62.4786ZM261.169 57.5036L260.101 61.2436L260.101 61.2436L261.169 57.5036ZM270.191 66.0427L271.771 69.597L271.771 69.597L270.191 66.0427ZM272.159 64.1864L270.229 67.5634H270.229L272.159 64.1864ZM274.386 69.978L270.804 71.4936H270.804L274.386 69.978ZM278.396 69.4583L280.468 72.7498L280.468 72.7497L278.396 69.4583ZM284.262 73.0966L281.511 75.847H281.511L284.262 73.0966ZM298.444 79.4823L298.263 83.3677L298.444 79.4823ZM311.624 88.4297L312.854 92.1197L311.624 88.4297ZM318.604 87.2417L321.282 84.4218V84.4218L318.604 87.2417ZM325.62 91.0657L327.335 94.5568H327.335L325.62 91.0657ZM334.679 84.3087L335.622 88.0822L334.679 84.3087ZM339.097 88.1699L336.7 91.2329L339.097 88.1699ZM346.114 91.734L345.668 95.5979V95.5979L346.114 91.734ZM354.43 86.4621L352.615 83.0222L352.613 83.0234L354.43 86.4621ZM362.185 95.2012C364.223 95.8805 366.425 94.7791 367.105 92.7412C367.784 90.7033 366.683 88.5005 364.645 87.8212L362.185 95.2012ZM365.3 97.5257C365.3 95.3775 363.558 93.6361 361.41 93.6361C359.262 93.6361 357.52 95.3775 357.52 97.5257H365.3ZM371.434 86.9534C369.286 86.9534 367.544 88.6948 367.544 90.8429C367.544 92.9911 369.286 94.7325 371.434 94.7325V86.9534ZM386.656 86.165L390.489 86.8222L390.489 86.8222L386.656 86.165ZM386.953 78.2943L385.942 82.0501L386.953 78.2943ZM395.492 69.087L398.756 71.2025L398.756 71.2025L395.492 69.087ZM403.118 69.8903C405.202 69.3693 406.469 67.2576 405.948 65.1735C405.427 63.0895 403.315 61.8225 401.231 62.3435L403.118 69.8903ZM406.732 65.4486C406.732 63.3005 404.991 61.5591 402.843 61.5591C400.695 61.5591 398.953 63.3005 398.953 65.4486H406.732ZM403.214 148.277L399.389 148.982V148.982L403.214 148.277ZM406.704 170.738L410.57 170.309L406.704 170.738ZM409.674 196.95L405.863 197.729L405.863 197.729L409.674 196.95ZM409.9 198.102L406.083 198.852L406.083 198.852L409.9 198.102ZM413.788 211.124L417.574 210.234V210.234L413.788 211.124ZM413.869 215.847L413.025 212.05L413.025 212.05L413.869 215.847ZM402.323 221.007L401.052 217.331L401.052 217.331L402.323 221.007ZM402.064 221.097L403.335 224.773V224.773L402.064 221.097ZM359.071 232.479L358.649 228.613H358.649L359.071 232.479ZM354.022 215.29L357.422 217.179L357.422 217.179L354.022 215.29ZM356.677 210.398L353.312 208.447L353.312 208.447L356.677 210.398ZM228.582 198.558C226.435 198.471 224.625 200.14 224.538 202.287C224.451 204.433 226.12 206.243 228.267 206.33L228.582 198.558ZM254.672 208.756L255.848 205.048H255.848L254.672 208.756ZM278.619 217.517L276.942 221.027H276.942L278.619 217.517ZM318.529 229.472L318.095 233.337H318.095L318.529 229.472ZM269.189 48.6754L273.059 49.0656L273.078 48.8708L273.078 48.675L269.189 48.6754ZM269.995 45.6098L273.426 47.4417L273.426 47.4416L269.995 45.6098ZM272.532 42.9269L274.769 46.1091V46.1091L272.532 42.9269ZM293.877 33.0747L293.093 29.2651L293.877 33.0747ZM332.526 46.8857L335.214 44.0749L335.214 44.0749L332.526 46.8857ZM343.998 58.0978L340.852 60.3855L340.852 60.3855L343.998 58.0978ZM350.384 70.4608L347.186 72.6747L347.186 72.6747L350.384 70.4608ZM350.541 87.2417C350.541 89.3899 352.282 91.1313 354.43 91.1313C356.578 91.1313 358.32 89.3899 358.32 87.2417H350.541ZM288.052 47.5202C288.052 45.372 286.311 43.6306 284.163 43.6306C282.014 43.6306 280.273 45.372 280.273 47.5202H288.052ZM287.193 45.9285C286.314 43.9684 284.012 43.0921 282.052 43.9712C280.092 44.8503 279.216 47.1519 280.095 49.1119L287.193 45.9285ZM316.701 48.4012C317.474 46.397 316.476 44.1456 314.472 43.3726C312.468 42.5996 310.216 43.5977 309.443 45.6019L316.701 48.4012ZM313.153 47.5193L313.382 51.4021L313.382 51.4021L313.153 47.5193ZM317.354 47.1748C317.354 45.0266 315.612 43.2852 313.464 43.2852C311.316 43.2852 309.574 45.0266 309.574 47.1748H317.354ZM293.548 60.7341C293.919 58.6181 292.503 56.6026 290.387 56.2323C288.271 55.8619 286.256 57.2771 285.886 59.3931L293.548 60.7341ZM290.093 61.004L290.924 57.2043V57.2043L290.093 61.004ZM292.585 61.493L292.024 65.3418L292.585 61.493ZM298.143 61.0416L300.159 64.3679L298.143 61.0416ZM304.948 53.9699C304.948 51.8217 303.206 50.0803 301.058 50.0803C298.91 50.0803 297.168 51.8217 297.168 53.9699H304.948ZM356.451 57.5394L353.794 54.6986V54.6986L356.451 57.5394ZM360.854 55.8746L357.051 56.688L357.051 56.688L360.854 55.8746ZM365.557 64.1986L368.591 61.7652L368.591 61.7652L365.557 64.1986ZM371.487 60.2287L370.125 56.5857V56.5857L371.487 60.2287ZM378.946 62.5338L379.914 58.7667L378.946 62.5338ZM388.291 63.7183L390.124 60.2879L388.291 63.7183ZM399.553 69.5608C401.701 69.5608 403.443 67.8194 403.443 65.6713C403.443 63.5231 401.701 61.7817 399.553 61.7817V69.5608ZM371.227 95.5669C373.375 95.5669 375.116 93.8255 375.116 91.6774C375.116 89.5292 373.375 87.7878 371.227 87.7878V95.5669ZM360.244 90.5151C359.283 92.4365 360.062 94.7728 361.983 95.7335C363.904 96.6942 366.241 95.9155 367.201 93.9941L360.244 90.5151ZM263.568 65.6525C263.352 67.7898 264.91 69.6971 267.047 69.9126C269.185 70.1281 271.092 68.5702 271.307 66.4329L263.568 65.6525ZM226.915 205.487C229.133 204.791 231.033 204.457 233.33 204.322L232.874 196.557C229.973 196.727 227.442 197.169 224.587 198.065L226.915 205.487ZM233.33 204.322C235.465 204.197 236.619 202.722 237.08 201.859C237.516 201.042 237.68 200.208 237.756 199.738C237.842 199.209 237.882 198.691 237.906 198.368C237.941 197.897 237.945 197.908 237.929 197.992L230.28 196.575C230.228 196.856 230.202 197.125 230.188 197.283C230.173 197.453 230.159 197.65 230.148 197.788C230.124 198.116 230.104 198.33 230.078 198.491C230.042 198.712 230.041 198.526 230.219 198.192C230.322 197.999 230.556 197.623 231.004 197.268C231.499 196.876 232.148 196.599 232.874 196.557L233.33 204.322ZM237.929 197.992C239.859 187.568 238.996 176.361 238.996 166.729H231.217C231.217 177.232 232.037 187.087 230.28 196.575L237.929 197.992ZM238.996 166.729C238.996 148.095 240.525 129.866 241.955 111.075L234.199 110.485C232.777 129.167 231.217 147.732 231.217 166.729H238.996ZM241.955 111.075C242.266 106.99 242.441 102.915 242.604 98.9129C242.768 94.8898 242.92 90.9486 243.184 87.0285C243.712 79.1956 244.679 71.6441 246.985 64.3141L239.564 61.9795C236.991 70.1576 235.969 78.4067 235.423 86.5052C235.15 90.5509 234.994 94.6081 234.831 98.596C234.668 102.604 234.498 106.553 234.199 110.485L241.955 111.075ZM246.985 64.3141C247.414 62.9511 247.985 61.6014 248.649 60.0874C249.288 58.6284 250.035 56.969 250.65 55.2477L243.324 52.6313C242.824 54.0331 242.213 55.3931 241.524 56.9648C240.859 58.4814 240.132 60.1738 239.564 61.9795L246.985 64.3141ZM250.65 55.2477C250.681 55.1608 250.706 55.0951 250.725 55.0472C250.734 55.0236 250.741 55.006 250.747 54.9936C250.752 54.9811 250.754 54.9756 250.754 54.9759C250.754 54.9762 250.75 54.9848 250.742 55.0004C250.735 55.0157 250.722 55.0418 250.702 55.0762C250.671 55.1338 250.591 55.2726 250.458 55.4451C250.342 55.5945 250.062 55.9348 249.59 56.2469C249.087 56.5794 248.182 56.9909 247.018 56.8445C245.859 56.6989 245.09 56.0821 244.692 55.6506C244.316 55.2425 244.126 54.8526 244.048 54.6813C243.959 54.4838 243.912 54.3279 243.891 54.2576C243.869 54.1792 243.858 54.1261 243.855 54.1128C243.851 54.0933 243.856 54.1143 243.871 54.2202C243.89 54.348 243.95 54.7992 244.014 55.1551L251.668 53.7635C251.634 53.5768 251.622 53.4549 251.568 53.0874C251.556 53.0096 251.462 52.1975 251.139 51.4827C251.036 51.2536 250.818 50.8176 250.411 50.3767C249.983 49.9124 249.182 49.2762 247.988 49.1261C246.788 48.9753 245.845 49.3974 245.301 49.7572C244.787 50.0966 244.462 50.4809 244.299 50.6927C243.769 51.3795 243.466 52.235 243.324 52.6313L250.65 55.2477ZM244.014 55.1551C244.129 55.7857 244.372 56.4087 244.54 56.8117C244.742 57.2947 244.994 57.8285 245.272 58.3741C245.829 59.4622 246.561 60.7275 247.365 61.8996C248.123 63.0056 249.13 64.3023 250.276 65.218C250.831 65.6621 251.734 66.2761 252.913 66.5131C254.324 66.797 255.916 66.4784 257.157 65.3063L251.816 59.6508C252.593 58.9169 253.638 58.7241 254.447 58.8867C255.022 59.0024 255.266 59.248 255.133 59.1418C254.902 58.9569 254.415 58.4258 253.779 57.4989C253.189 56.638 252.624 55.6653 252.199 54.8327C251.987 54.4179 251.826 54.0707 251.72 53.8172C251.581 53.4838 251.623 53.5149 251.668 53.7635L244.014 55.1551ZM257.157 65.3063C257.949 64.5585 258.592 63.657 259.017 63.06C259.524 62.3472 259.835 61.8972 260.171 61.5139C260.494 61.1457 260.599 61.1318 260.498 61.1762C260.285 61.2694 260.084 61.2386 260.101 61.2436L262.238 53.7637C260.531 53.2761 258.87 53.3967 257.378 54.0501C255.997 54.6546 255.002 55.6097 254.323 56.3842C253.657 57.1436 253.063 58.0098 252.677 58.552C252.21 59.2098 251.974 59.5018 251.816 59.6508L257.157 65.3063ZM260.101 61.2436C259.432 61.0525 259.279 60.725 259.746 61.209C260.082 61.5573 260.509 62.0799 261.055 62.7957C262.01 64.0471 263.447 66.0796 264.759 67.4483L270.375 62.0655C269.467 61.1179 268.521 59.7567 267.239 58.077C266.667 57.3272 266.012 56.4999 265.343 55.8064C264.805 55.2488 263.722 54.1877 262.238 53.7637L260.101 61.2436ZM264.759 67.4483C265.347 68.0614 266.153 68.8114 267.133 69.3349C268.137 69.8708 269.877 70.4387 271.771 69.597L268.611 62.4883C269.135 62.2555 269.662 62.2104 270.091 62.2646C270.482 62.3139 270.727 62.4354 270.798 62.4729C270.872 62.5125 270.863 62.5187 270.767 62.4391C270.676 62.3636 270.546 62.2437 270.375 62.0655L264.759 67.4483ZM271.771 69.597C272.55 69.2505 273.07 68.7493 273.375 68.3992C273.683 68.0452 273.897 67.699 274.027 67.4732C274.161 67.2419 274.272 67.0179 274.337 66.8879C274.419 66.7231 274.447 66.6667 274.476 66.6129C274.503 66.5633 274.472 66.6279 274.389 66.7392C274.313 66.8418 274.093 67.1222 273.697 67.3922C273.256 67.692 272.621 67.9595 271.849 67.969C271.106 67.9782 270.545 67.7442 270.229 67.5634L274.088 60.8093C273.508 60.4778 272.711 60.1787 271.753 60.1905C270.766 60.2026 269.938 60.5406 269.32 60.9609C268.287 61.6637 267.768 62.6626 267.628 62.9213C267.523 63.1169 267.421 63.3245 267.373 63.4204C267.343 63.4806 267.323 63.5204 267.307 63.5521C267.291 63.5831 267.285 63.593 267.287 63.5895C267.289 63.5863 267.306 63.5571 267.337 63.511C267.368 63.4656 267.424 63.3872 267.508 63.2913C267.659 63.1177 268.014 62.7539 268.611 62.4883L271.771 69.597ZM270.229 67.5634C269.531 67.1649 269.229 66.6646 269.228 66.6635C269.174 66.5809 269.183 66.578 269.245 66.7172C269.366 66.9907 269.522 67.427 269.707 68.0175C269.889 68.5991 270.055 69.1787 270.231 69.7776C270.375 70.2664 270.583 70.9719 270.804 71.4936L277.968 68.4625C277.98 68.4897 277.957 68.4374 277.895 68.2442C277.839 68.07 277.773 67.8509 277.693 67.5787C277.542 67.0648 277.339 66.3566 277.129 65.6885C276.922 65.0294 276.662 64.2543 276.358 63.5678C276.207 63.227 276.002 62.807 275.733 62.3968C275.517 62.0681 274.999 61.3297 274.088 60.8093L270.229 67.5634ZM270.804 71.4936C271.429 72.9712 272.657 74.085 274.272 74.4662C275.61 74.7821 276.799 74.4929 277.478 74.2721C278.831 73.8322 280.116 72.9713 280.468 72.7498L276.323 66.1668C276.029 66.352 275.8 66.5 275.538 66.647C275.271 66.7972 275.12 66.859 275.073 66.8741C274.963 66.91 275.381 66.7351 276.059 66.8952C276.449 66.9872 276.881 67.1821 277.268 67.5181C277.648 67.8484 277.86 68.2068 277.968 68.4625L270.804 71.4936ZM280.468 72.7497C280.417 72.7821 280.248 72.8749 279.973 72.9224C279.69 72.9714 279.414 72.9515 279.183 72.892C278.792 72.7909 278.717 72.626 278.985 72.8825C279.236 73.1228 279.525 73.4706 279.968 74.0325C280.33 74.4912 280.907 75.2423 281.511 75.847L287.012 70.3463C286.81 70.1444 286.567 69.8377 286.075 69.2134C285.664 68.6923 285.063 67.9318 284.366 67.2644C283.686 66.6133 282.605 65.7414 281.129 65.36C279.459 64.9288 277.783 65.2481 276.323 66.1668L280.468 72.7497ZM281.511 75.847C284.044 78.3794 286.393 80.2748 289.171 81.5165C291.959 82.763 294.863 83.2095 298.263 83.3677L298.625 75.597C295.674 75.4597 293.869 75.0959 292.346 74.4147C290.811 73.7286 289.245 72.5789 287.012 70.3463L281.511 75.847ZM298.263 83.3677C298.376 83.3729 298.503 83.3368 298.91 83.841C299.514 84.5904 299.877 85.4149 300.811 87.0516C301.561 88.3666 302.78 90.3582 304.871 91.6054C307.228 93.0111 309.955 93.0858 312.854 92.1197L310.394 84.7398C309.685 84.9762 309.28 84.9955 309.098 84.9852C308.947 84.9767 308.894 84.9473 308.855 84.924C308.654 84.8038 308.275 84.4363 307.568 83.1973C307.045 82.2801 306.092 80.356 304.966 78.9589C303.642 77.3168 301.626 75.7366 298.625 75.597L298.263 83.3677ZM312.854 92.1197C313.834 91.793 314.708 91.3079 315.277 90.9904C315.961 90.6082 316.291 90.4183 316.607 90.2872C316.883 90.1721 316.782 90.2682 316.475 90.2388C316.073 90.2002 315.871 90.0109 315.925 90.0616L321.282 84.4218C320.151 83.3473 318.781 82.6452 317.218 82.4952C315.75 82.3543 314.495 82.7402 313.618 83.1049C312.78 83.4535 311.958 83.9334 311.482 84.1995C310.89 84.5304 310.597 84.6722 310.394 84.7398L312.854 92.1197ZM315.925 90.0616C316.218 90.3403 316.52 90.7026 317.088 91.3647C317.574 91.9318 318.261 92.7236 319.076 93.4132C319.903 94.1132 321.072 94.8923 322.592 95.2141C324.198 95.5543 325.815 95.3036 327.335 94.5568L323.905 87.5746C323.772 87.6402 323.924 87.5446 324.203 87.6037C324.396 87.6445 324.375 87.7064 324.1 87.4742C323.814 87.2317 323.486 86.8763 322.994 86.3023C322.584 85.8233 321.944 85.0507 321.282 84.4218L315.925 90.0616ZM327.335 94.5568C329.713 93.3888 331.603 91.3133 332.741 90.1903C334.148 88.8011 334.913 88.2594 335.622 88.0822L333.736 80.5353C330.749 81.2821 328.644 83.3036 327.276 84.6542C325.638 86.2711 324.847 87.112 323.905 87.5746L327.335 94.5568ZM335.622 88.0822C335.42 88.1327 335.136 88.1607 334.81 88.1065C334.488 88.0531 334.238 87.9388 334.074 87.8386C333.815 87.6801 333.799 87.5715 334.032 87.8924C334.13 88.0281 334.24 88.1926 334.387 88.4204C334.516 88.6207 334.706 88.918 334.886 89.1866C335.221 89.684 335.823 90.547 336.7 91.2329L341.494 85.1068C341.653 85.2311 341.621 85.2612 341.34 84.8428C341.217 84.6601 340.678 83.8064 340.331 83.3279C339.916 82.7547 339.203 81.8567 338.132 81.2018C336.898 80.447 335.369 80.1269 333.736 80.5353L335.622 88.0822ZM336.7 91.2329C337.724 92.0345 339.046 92.9906 340.508 93.8002C341.932 94.5887 343.728 95.3741 345.668 95.5979L346.56 87.87C346.052 87.8115 345.279 87.5501 344.277 86.9948C343.312 86.4606 342.349 85.7759 341.494 85.1068L336.7 91.2329ZM345.668 95.5979C349.433 96.0323 351.875 94.1562 353.41 92.6394C353.776 92.2778 354.119 91.909 354.405 91.6009C354.708 91.2736 354.95 91.0117 355.195 90.7649C355.686 90.2706 356.001 90.0315 356.243 89.9031L352.602 83.029C351.344 83.6951 350.383 84.5706 349.672 85.2867C349.317 85.645 348.978 86.0123 348.702 86.31C348.408 86.6269 348.172 86.8789 347.942 87.106C347.094 87.9437 346.881 87.9071 346.56 87.87L345.668 95.5979ZM356.244 89.9026C356.244 89.9026 356.245 89.9025 356.245 89.9022C356.246 89.9019 356.247 89.9014 356.248 89.9007L352.613 83.0234C352.61 83.0245 352.606 83.0269 352.601 83.0295L356.244 89.9026ZM356.246 89.9019C355.731 90.1733 355.258 90.0167 355.28 90.026C355.448 90.0963 355.837 90.3367 356.542 90.961C356.868 91.2502 357.202 91.5651 357.581 91.9249C357.942 92.2675 358.357 92.6634 358.773 93.0333C359.495 93.677 360.708 94.7087 362.185 95.2012L364.645 87.8212C364.833 87.8839 364.665 87.8645 363.947 87.2247C363.642 86.9528 363.322 86.6488 362.935 86.282C362.567 85.9324 362.141 85.5283 361.699 85.1376C360.869 84.402 359.689 83.4388 358.285 82.8505C356.734 82.2011 354.683 81.9308 352.615 83.0222L356.246 89.9019ZM357.52 97.5257V194.796H365.3V97.5257H357.52ZM371.434 94.7325C372.515 94.7325 373.736 94.8386 375.495 94.9257C377.103 95.0054 379.007 95.0547 380.862 94.8463C382.688 94.6413 384.815 94.1531 386.66 92.902C388.652 91.5516 390.03 89.5021 390.489 86.8222L382.822 85.5078C382.715 86.1307 382.51 86.3173 382.295 86.4633C381.933 86.7086 381.23 86.977 379.994 87.1158C378.788 87.2512 377.4 87.2314 375.88 87.1561C374.509 87.0882 372.764 86.9534 371.434 86.9534V94.7325ZM390.489 86.8222C390.575 86.324 390.585 85.8013 390.588 85.48C390.591 85.0944 390.581 84.6639 390.568 84.2401C390.555 83.8123 390.536 83.3485 390.518 82.8971C390.5 82.4381 390.482 81.9853 390.469 81.548C390.441 80.6269 390.441 79.9471 390.471 79.5526C390.491 79.2963 390.504 79.4632 390.389 79.794C390.344 79.9244 390.13 80.5407 389.52 81.1297C389.176 81.4624 388.658 81.83 387.956 82.032C387.234 82.2395 386.534 82.2095 385.942 82.0501L387.964 74.5385C386.439 74.1278 385.017 74.6633 384.115 75.535C383.426 76.2002 383.145 76.9415 383.041 77.2394C382.81 77.9054 382.744 78.5778 382.716 78.9486C382.649 79.8084 382.666 80.8688 382.693 81.782C382.708 82.2618 382.727 82.7498 382.745 83.206C382.764 83.6698 382.781 84.0959 382.793 84.4834C382.823 85.453 382.796 85.6622 382.822 85.5078L390.489 86.8222ZM385.942 82.0501C388.14 82.6419 390.314 82.5222 392.247 81.4366C394.038 80.4309 395.129 78.8625 395.831 77.5896C396.526 76.3283 397.085 74.8791 397.511 73.8288C397.991 72.643 398.359 71.8151 398.756 71.2025L392.228 66.9715C391.376 68.2854 390.765 69.7635 390.302 70.9052C389.784 72.1825 389.433 73.0822 389.019 73.8331C388.611 74.5724 388.392 74.6794 388.437 74.654C388.625 74.5488 388.618 74.7145 387.964 74.5385L385.942 82.0501ZM398.756 71.2025C398.972 70.8688 399.11 70.7638 399.147 70.7367C399.184 70.7102 399.261 70.6597 399.49 70.5939C399.773 70.5125 400.12 70.4504 400.784 70.3432C401.388 70.2459 402.215 70.1162 403.118 69.8903L401.231 62.3435C400.698 62.4767 400.191 62.5593 399.546 62.6632C398.963 62.7573 398.148 62.8852 397.338 63.1182C395.417 63.6712 393.654 64.7705 392.228 66.9715L398.756 71.2025ZM398.953 65.4486V130.642H406.732V65.4486H398.953ZM398.953 130.642C398.953 133.622 398.791 136.074 398.748 139.437C398.71 142.508 398.799 145.782 399.389 148.982L407.039 147.572C406.587 145.115 406.49 142.434 406.527 139.535C406.56 136.926 406.732 133.39 406.732 130.642H398.953ZM399.389 148.982C400.752 156.38 402.02 163.803 402.838 171.168L410.57 170.309C409.72 162.66 408.41 155.015 407.039 147.572L399.389 148.982ZM402.838 171.168C403.771 179.566 404.024 188.737 405.863 197.729L413.485 196.17C411.731 187.596 411.606 179.636 410.57 170.309L402.838 171.168ZM405.863 197.729C405.918 197.998 405.981 198.335 406.083 198.852L413.716 197.352C413.634 196.933 413.546 196.471 413.485 196.17L405.863 197.729ZM410.001 212.013C410.279 213.195 410.43 214.051 410.459 214.548C410.476 214.834 410.429 214.679 410.532 214.316C410.589 214.112 410.742 213.667 411.136 213.197C411.575 212.671 412.225 212.228 413.025 212.05L414.713 219.644C416.933 219.15 417.767 217.322 418.019 216.428C418.27 215.538 418.258 214.665 418.225 214.094C418.154 212.876 417.862 211.46 417.574 210.234L410.001 212.013ZM413.025 212.05C410.588 212.591 408.204 213.806 406.293 214.809C404.184 215.915 402.567 216.808 401.052 217.331L403.594 224.683C405.813 223.916 408.107 222.642 409.907 221.698C411.904 220.65 413.426 219.93 414.713 219.644L413.025 212.05ZM401.052 217.331L400.793 217.421L403.335 224.773L403.594 224.683L401.052 217.331ZM400.793 217.421C386.859 222.238 372.847 227.064 358.649 228.613L359.493 236.346C374.71 234.686 389.555 229.537 403.335 224.773L400.793 217.421ZM358.649 228.613C358.222 228.659 354.971 228.965 351.909 229.108C350.357 229.18 348.991 229.204 348.09 229.154C347.583 229.125 347.497 229.086 347.64 229.127C347.645 229.129 348.22 229.27 348.819 229.798C349.166 230.104 349.645 230.649 349.9 231.479C350.171 232.358 350.081 233.201 349.838 233.861L342.538 231.172C342.267 231.908 342.174 232.822 342.466 233.768C342.742 234.664 343.265 235.272 343.678 235.636C344.409 236.28 345.204 236.521 345.506 236.608C346.242 236.818 347.055 236.887 347.657 236.921C348.976 236.994 350.672 236.953 352.272 236.878C355.517 236.727 358.93 236.407 359.493 236.346L358.649 228.613ZM349.838 233.861C351.984 228.036 354.405 222.609 357.422 217.179L350.622 213.401C347.386 219.225 344.804 225.023 342.538 231.172L349.838 233.861ZM357.422 217.179C358.291 215.614 358.953 214.227 360.042 212.348L353.312 208.447C352.284 210.221 351.144 212.461 350.622 213.401L357.422 217.179ZM228.267 206.33C236.659 206.671 244.628 209.651 253.497 212.463L255.848 205.048C247.571 202.424 238.3 198.952 228.582 198.558L228.267 206.33ZM253.497 212.463C261.704 215.066 269.52 217.48 276.942 221.027L280.296 214.008C272.288 210.181 263.91 207.604 255.848 205.048L253.497 212.463ZM276.942 221.027C289.736 227.141 303.816 231.735 318.095 233.337L318.963 225.607C305.727 224.121 292.489 219.835 280.296 214.008L276.942 221.027ZM318.095 233.337C328.884 234.548 334.596 236.406 346.188 236.406V228.627C335.063 228.627 331.161 226.976 318.963 225.607L318.095 233.337ZM273.078 48.675C273.078 48.2621 273.185 47.8932 273.426 47.4417L266.564 43.7779C265.894 45.0334 265.299 46.6621 265.299 48.6758L273.078 48.675ZM274.769 46.1091C280.818 41.8574 287.897 38.2771 294.662 36.8844L293.093 29.2651C284.949 30.9418 276.884 35.1141 270.295 39.7448L274.769 46.1091ZM294.662 36.8844C300.312 35.7212 306.847 36.7261 313.246 39.2304C319.62 41.7248 325.539 45.5855 329.837 49.6964L335.214 44.0749C330.173 39.2528 323.387 34.8454 316.081 31.9862C308.8 29.137 300.681 27.7029 293.093 29.2651L294.662 36.8844ZM329.837 49.6964C331.832 51.6048 334.15 53.5255 335.91 55.1098C337.797 56.8074 339.451 58.4595 340.852 60.3855L347.143 55.81C345.277 53.2439 343.164 51.172 341.114 49.3277C338.939 47.3699 337.154 45.9306 335.214 44.0749L329.837 49.6964ZM340.852 60.3855C341.934 61.8723 342.724 63.6293 343.671 65.8231C344.559 67.881 345.618 70.411 347.186 72.6747L353.581 68.2468C352.539 66.7411 351.779 64.9776 350.813 62.7403C349.906 60.639 348.808 58.0992 347.143 55.81L340.852 60.3855ZM347.186 72.6747C349.347 75.7975 350.437 81.5786 350.534 86.5416L358.311 86.3906C358.207 81.0171 357.087 73.3099 353.581 68.2468L347.186 72.6747ZM350.534 86.5415C350.538 86.7795 350.541 87.0131 350.541 87.2417H358.32C358.32 86.9621 358.317 86.6782 358.311 86.3907L350.534 86.5415ZM280.273 47.5202C280.273 47.954 280.257 47.9213 280.286 47.7276C280.296 47.6592 280.326 47.4718 280.402 47.23C280.449 47.0773 280.651 46.4286 281.232 45.7979C281.562 45.4398 282.094 45.0017 282.861 44.7487C283.661 44.4842 284.452 44.5101 285.119 44.6975C286.257 45.0172 286.875 45.7517 287.006 45.906C287.221 46.1599 287.348 46.3803 287.391 46.4572C287.447 46.5552 287.481 46.6283 287.492 46.6523C287.512 46.6953 287.515 46.7064 287.484 46.6286C287.445 46.5328 287.323 46.2186 287.193 45.9285L280.095 49.1119C280.144 49.2204 280.176 49.3054 280.268 49.5343C280.302 49.6188 280.365 49.7737 280.438 49.9323C280.464 49.9884 280.675 50.4669 281.069 50.9322C281.221 51.1116 281.859 51.8618 283.015 52.1866C283.691 52.3767 284.491 52.4026 285.3 52.1353C286.075 51.8793 286.615 51.4357 286.953 51.069C287.55 50.4212 287.766 49.7438 287.827 49.5494C287.916 49.266 287.957 49.024 287.978 48.887C288.049 48.4187 288.052 47.8864 288.052 47.5202H280.273ZM309.443 45.6019C309.498 45.4609 309.555 45.3447 309.527 45.4041C309.524 45.4107 309.489 45.4836 309.454 45.5617C309.402 45.6816 309.228 46.075 309.131 46.5844C309.061 46.9495 308.818 48.4166 309.867 49.8073C311.048 51.3715 312.746 51.4396 313.382 51.4021L312.924 43.6365C313.368 43.6103 314.954 43.6337 316.076 45.1209C317.068 46.4345 316.82 47.7921 316.773 48.0393C316.698 48.4307 316.574 48.6975 316.57 48.7061C316.56 48.7286 316.55 48.7496 316.568 48.7111C316.573 48.6998 316.59 48.6649 316.608 48.6251C316.623 48.5902 316.661 48.5067 316.701 48.4012L309.443 45.6019ZM313.382 51.4021C314.762 51.3208 315.909 50.5982 316.6 49.5972C317.182 48.7534 317.354 47.8582 317.354 47.1748H309.574C309.574 46.6143 309.711 45.8843 310.198 45.1784C310.793 44.3154 311.785 43.7036 312.924 43.6365L313.382 51.4021ZM285.886 59.3931C285.88 59.425 285.875 59.4523 285.86 59.528C285.849 59.585 285.826 59.7052 285.806 59.8358C285.777 60.0258 285.671 60.6971 285.838 61.4938C286.052 62.5085 286.631 63.4133 287.495 64.0359C288.196 64.5408 288.902 64.725 289.262 64.8037L290.924 57.2043C290.985 57.2177 291.483 57.3208 292.042 57.7237C292.765 58.2443 293.269 59.026 293.451 59.8911C293.525 60.2451 293.529 60.5335 293.523 60.7028C293.517 60.8705 293.499 60.9886 293.495 61.0158C293.491 61.0425 293.489 61.0508 293.501 60.9873C293.51 60.9425 293.53 60.8406 293.548 60.7341L285.886 59.3931ZM289.262 64.8037C290.043 64.9746 291.021 65.1956 292.024 65.3418L293.146 57.6441C292.474 57.5461 291.795 57.3948 290.924 57.2043L289.262 64.8037ZM292.024 65.3418C293.539 65.5628 297.102 66.2204 300.159 64.3679L296.127 57.7153C296.075 57.7466 295.884 57.8434 295.344 57.8551C294.765 57.8677 294.102 57.7835 293.146 57.6441L292.024 65.3418ZM300.159 64.3679C302.339 63.0465 303.644 61.2396 304.311 59.194C304.914 57.3469 304.948 55.4262 304.948 53.9699H297.168C297.168 55.4353 297.095 56.2315 296.916 56.7804C296.802 57.1307 296.649 57.3988 296.127 57.7153L300.159 64.3679ZM343.998 61.9873C344.417 61.9873 345.159 62.0531 346.369 62.1668C347.477 62.271 348.843 62.3999 350.213 62.4612C351.564 62.5216 353.081 62.5256 354.49 62.3313C355.756 62.1569 357.657 61.7369 359.108 60.3802L353.794 54.6986C354.166 54.3511 354.295 54.5055 353.428 54.6251C352.705 54.7247 351.73 54.7421 350.561 54.6898C349.411 54.6384 348.231 54.5285 347.098 54.4219C346.067 54.325 344.875 54.2082 343.998 54.2082V61.9873ZM359.108 60.3802C359.528 59.9875 360.146 59.3553 360.447 59.0601C360.877 58.639 361.111 58.4437 361.215 58.3737C361.26 58.3431 361.134 58.4391 360.865 58.5294C360.592 58.6209 359.955 58.7773 359.148 58.5624C358.265 58.3273 357.675 57.7822 357.358 57.3195C357.088 56.9257 357.04 56.6365 357.051 56.688L364.658 55.0613C364.439 54.0362 363.693 51.7224 361.149 51.0451C359.035 50.4823 357.34 51.6021 356.848 51.9355C356.119 52.4298 355.458 53.0576 355.004 53.5031C354.42 54.0746 354.164 54.3526 353.794 54.6986L359.108 60.3802ZM357.051 56.688C357.986 61.0618 360.581 64.2105 362.522 66.6319L368.591 61.7652C366.5 59.1575 365.151 57.3685 364.658 55.0612L357.051 56.688ZM362.522 66.6319C363.92 68.3746 365.889 68.1229 366.252 68.0674C366.834 67.9784 367.287 67.7805 367.477 67.6934C367.919 67.4917 368.334 67.2301 368.616 67.0441C369.23 66.6404 369.965 66.093 370.615 65.6037C371.312 65.0779 371.939 64.5976 372.481 64.2035C372.748 64.0093 372.947 63.8709 373.083 63.7823C373.302 63.6402 373.167 63.7533 372.85 63.8717L370.125 56.5857C369.564 56.7954 369.07 57.1132 368.847 57.2579C368.542 57.4562 368.215 57.687 367.905 57.9125C367.293 58.3582 366.557 58.9209 365.933 59.3909C365.261 59.8973 364.716 60.2984 364.341 60.5453C364.129 60.6846 364.122 60.6738 364.246 60.6172C364.278 60.6026 364.597 60.4508 365.077 60.3775C365.337 60.3377 367.233 60.0714 368.591 61.7652L362.522 66.6319ZM372.85 63.8717C372.986 63.8207 372.963 63.8517 372.89 63.8394C372.885 63.8386 373.013 63.8587 373.411 64.0799C373.608 64.1899 373.821 64.3192 374.11 64.4971C374.378 64.6618 374.724 64.8758 375.085 65.0827C375.82 65.5031 376.792 65.9962 377.977 66.3009L379.914 58.7667C379.686 58.708 379.4 58.5885 378.948 58.3302C378.716 58.1977 378.486 58.0558 378.186 57.8709C377.907 57.6992 377.558 57.4852 377.191 57.2812C375.581 56.3858 373.169 55.4468 370.125 56.5857L372.85 63.8717ZM377.977 66.3009C379.94 66.8053 382.304 66.7447 383.626 66.7734C385.362 66.811 386.106 66.9608 386.458 67.1487L390.124 60.2879C387.928 59.1141 385.396 59.0308 383.795 58.9961C381.779 58.9524 380.745 58.9804 379.914 58.7667L377.977 66.3009ZM386.458 67.1487C391.223 69.6955 395.912 69.5608 399.553 69.5608V61.7817C395.608 61.7817 392.904 61.7738 390.124 60.2879L386.458 67.1487ZM371.227 87.7878C371.233 87.7878 371.142 87.7858 370.865 87.7648C370.608 87.7454 370.321 87.7205 369.941 87.6893C369.225 87.6306 368.294 87.5597 367.354 87.5395C366.455 87.5202 365.336 87.5403 364.294 87.7382C363.773 87.8373 363.099 88.0116 362.426 88.3562C361.756 88.6993 360.827 89.3485 360.244 90.5151L367.201 93.9941C366.797 94.8022 366.198 95.1645 365.972 95.2799C365.744 95.3968 365.629 95.4028 365.746 95.3806C365.982 95.3358 366.458 95.3012 367.188 95.3169C367.877 95.3316 368.609 95.3853 369.306 95.4424C369.864 95.4883 370.702 95.5669 371.227 95.5669V87.7878ZM271.307 66.4329L271.437 65.1471L263.697 64.3667L263.568 65.6525L271.307 66.4329ZM271.437 65.1471L273.059 49.0656L265.319 48.2852L263.697 64.3667L271.437 65.1471ZM273.426 47.4416C273.615 47.0886 274.01 46.6422 274.769 46.1091L270.295 39.7448C269.016 40.6442 267.549 41.9334 266.564 43.7779L273.426 47.4416ZM406.083 198.852C406.548 201.219 407.362 203.676 408.101 205.869C408.875 208.164 409.569 210.173 410.001 212.013L417.574 210.234C417.038 207.949 416.196 205.527 415.472 203.382C414.714 201.135 414.068 199.143 413.716 197.352L406.083 198.852ZM357.52 194.796C357.52 198.927 355.628 204.451 353.312 208.447L360.042 212.348C362.78 207.625 365.3 200.743 365.3 194.796H357.52Z" fill="#EE2F14"/>
</svg>
