<svg width="286" height="182" viewBox="0 0 286 182" fill="none" xmlns="http://www.w3.org/2000/svg">
<path d="M99.217 82.8443C105.079 69.9085 114.244 59.7341 126.214 52.2464C131.797 48.7545 132.681 47.9272 138.792 46.9553C146.302 46.1386 153.274 46.9109 160.481 48.3521C166.484 49.5528 173.233 52.4464 178.6 55.3359C184.603 58.5685 190.475 60.7954 195.516 65.6564C202.674 72.559 207.371 82.1113 212.122 90.7981C215.704 97.348 217.709 103.4 217.709 110.857C217.709 117.877 215.531 125.138 213.674 131.847C211.282 140.492 207.964 149.328 201.957 156.174C193.446 165.872 182.87 172.072 170.491 175.108C148.177 180.581 123.13 177.888 103.33 165.835C98.936 163.161 93.8611 158.015 91.1468 153.652C86.0215 145.415 85.0166 138.434 85.0166 128.743C85.0166 112.204 92.4927 97.6841 99.217 82.8443Z" fill="#FFC778" stroke="#EE2F14" stroke-width="8.25524" stroke-linecap="round"/>
<path d="M189.367 80.6732C193.788 76.8345 197.312 72.2128 201.426 68.0027C205.013 64.3322 205.944 57.7037 207.718 52.6767C210.283 45.4045 212.657 32.7665 209.815 25.363" stroke="#EE2F14" stroke-width="8.25524" stroke-linecap="round"/>
<path d="M96.9084 126.627C84.4116 129.314 70.7208 133.34 59.2095 137.634" stroke="#EE2F14" stroke-width="8.25524" stroke-linecap="round"/>
<path d="M113.419 103.788C114.657 102.037 113.419 101.96 113.419 103.538" stroke="#EE2F14" stroke-width="8.25524" stroke-linecap="round"/>
<path d="M153.983 72.1601C152.258 73.6498 152.066 76.2563 153.556 77.9818C155.046 79.7074 157.652 79.8986 159.378 78.4089L153.983 72.1601ZM161.519 74.4346C161.519 72.155 159.671 70.307 157.391 70.307C155.112 70.307 153.264 72.155 153.264 74.4346H161.519ZM159.378 78.4089C159.791 78.052 160.572 77.3647 161.053 76.465C161.197 76.1957 161.447 75.6683 161.539 74.9596C161.638 74.1988 161.57 72.9846 160.712 71.864C159.885 70.7831 158.797 70.4135 158.158 70.2919C157.526 70.1717 157.003 70.221 156.715 70.2629C155.709 70.4095 154.915 70.8727 154.465 71.1973C154.19 71.395 153.807 71.7101 153.45 72.1647C153.145 72.5525 152.493 73.5053 152.493 74.8903H160.749C160.749 76.1613 160.154 76.9936 159.942 77.2636C159.677 77.6004 159.422 77.8005 159.29 77.8952C159.126 78.0139 158.677 78.3195 157.905 78.432C157.676 78.4654 157.204 78.5138 156.615 78.4017C156.018 78.2882 154.963 77.9354 154.156 76.8815C153.319 75.7879 153.26 74.6107 153.352 73.8981C153.438 73.2377 153.667 72.7697 153.773 72.5723C153.896 72.3424 154.012 72.1861 154.066 72.116C154.127 72.0379 154.168 71.9932 154.175 71.9859C154.186 71.9744 154.136 72.0286 153.983 72.1601L159.378 78.4089ZM152.493 74.8903C152.493 75.4118 152.545 76.8832 153.669 78.1362C154.339 78.8827 155.336 79.4659 156.547 79.5595C157.677 79.6468 158.582 79.2783 159.156 78.928C160.236 78.2689 160.791 77.3162 161.059 76.6982C161.367 75.9855 161.519 75.211 161.519 74.4346H153.264C153.264 74.1457 153.319 73.7973 153.483 73.4183C153.606 73.1338 153.969 72.4223 154.857 71.8807C155.334 71.5892 156.143 71.2485 157.183 71.3288C158.304 71.4154 159.216 71.9569 159.814 72.6229C160.793 73.7149 160.749 74.8705 160.749 74.8903H152.493Z" fill="#EE2F14"/>
<path d="M207.233 23.2104C215.437 23.2104 224.548 24.2642 232.685 22.8612C234.726 22.5094 235.329 22.8612 237.385 22.8612" stroke="#EE2F14" stroke-width="8.25524" stroke-linecap="round"/>
<path d="M56.5411 137.626C56.271 124.121 53.6396 110.372 51.4973 97.0421C51.3031 95.8339 50.9541 92.1777 50.9541 92.231" stroke="#EE2F14" stroke-width="8.25524" stroke-linecap="round"/>
<path d="M5 40.3301C12.017 42.6691 14.6091 48.098 17.6114 52.6015" stroke="#EE2F14" stroke-width="8.25524" stroke-linecap="round"/>
<path d="M20.4048 34.4438C25.5004 38.8168 26.3725 44.2841 28.7854 49.1098" stroke="#EE2F14" stroke-width="8.25524" stroke-linecap="round"/>
<path d="M250.215 6.62152C254.8 4.00232 256.6 5.34318 258.581 5.34314C259.033 5.34314 259.588 5.57028 260.051 5.65117C263.341 6.2269 266.734 6.42774 269.94 7.45326C272.413 8.24441 275.031 9.51162 276.874 11.3963C278.766 13.3303 280.051 16.5203 280.655 19.0975C281.483 22.6312 280.642 26.3341 280.004 29.8253C279.291 33.7349 278.524 37.5444 275.389 40.2913C273.599 41.8601 271.397 43.0604 269.327 44.2035C267.515 45.2043 265.648 46.1253 263.686 46.7911C260.585 47.8435 257.651 47.4374 254.8 45.8978C250.801 43.7379 247.192 40.7868 243.824 37.7499C241.816 35.9383 239.684 34.1788 238.88 31.4965C238.048 28.7221 238.28 25.1777 238.972 22.3936C239.662 19.6165 240.938 16.8299 242.646 14.5384C244.86 11.5676 247.418 9.0275 250.215 6.62152Z" fill="#FFD6F3" stroke="#EE2F14" stroke-width="8.25524" stroke-linecap="round"/>
<path d="M250.456 20.3081C250.924 20.6487 251.6 21.0095 251.554 20.1668C251.533 19.7817 250.868 19.7328 250.868 20.1668" stroke="#EE2F14" stroke-width="8.25524" stroke-linecap="round"/>
<path d="M260.912 34.4438C260.93 35.0721 261.355 35.8635 262.246 35.4109C262.892 35.0824 262.426 34.8336 261.956 34.8336" stroke="#EE2F14" stroke-width="8.25524" stroke-linecap="round"/>
<path d="M262.563 16.8325C264.57 16.8325 265.033 16.8595 266.487 18.0931C267.745 19.1602 268.521 20.3361 269.127 21.813C269.738 23.3026 270.268 24.7288 270.268 26.3449C270.268 27.2587 269.412 27.8462 269.412 28.665" stroke="#EE2F14" stroke-width="8.25524" stroke-linecap="round"/>
<path d="M228.442 59.8053C231.325 59.8053 235.747 60.7024 238.268 58.9503C240.976 57.0676 243.365 54.7205 246.053 52.8804" stroke="#EE2F14" stroke-width="8.25524" stroke-linecap="round"/>
<path d="M237.248 72.7689C240.146 73.14 243.311 73.4118 246.244 73.1209C248.406 72.9064 251.376 68.4748 252.569 66.8889C253.614 65.499 254.721 63.8874 256.785 61.9612" stroke="#EE2F14" stroke-width="8.25524" stroke-linecap="round"/>
<path d="M25.1224 67.8734C28.1197 62.6227 30.6443 58.7165 37.2171 58.4583C41.4885 58.2906 42.8374 58.4583 43.9516 58.4583H51.3537C53.0982 58.4583 55.158 59.15 56.6549 60.0601C58.4472 61.1497 60.8855 62.2322 62.3096 63.7323C65.4078 66.996 64.4284 71.9755 63.6557 75.9041L63.6447 75.9602C62.5072 81.7439 60.6688 88.7419 55.5947 92.3878C53.3638 93.9907 51.4068 96.0127 48.4478 96.0796C46.6214 96.1209 45.0989 95.7457 42.8521 95.5522C40.2075 95.3244 37.8782 94.745 35.8034 94.0481C33.0643 92.7573 30.1119 91.8657 27.5178 90.3172C24.4717 88.499 20.96 85.485 20.96 81.5272C20.96 76.727 22.7777 71.981 25.1224 67.8734Z" fill="#FFD6F3"/>
<path d="M37.2171 58.4583L37.0551 54.3339H37.0551L37.2171 58.4583ZM25.1224 67.8734L28.7071 69.9197L25.1224 67.8734ZM27.5178 90.3172L29.6334 86.773L29.6334 86.773L27.5178 90.3172ZM35.8034 94.0481L34.0438 97.7819L34.2613 97.8844L34.4891 97.9609L35.8034 94.0481ZM42.8521 95.5522L42.4978 99.6646H42.4978L42.8521 95.5522ZM48.4478 96.0796L48.5411 100.206H48.5411L48.4478 96.0796ZM55.5947 92.3878L53.1862 89.0357L55.5947 92.3878ZM63.6447 75.9602L67.6947 76.7567L67.6947 76.7567L63.6447 75.9602ZM63.6557 75.9041L59.6057 75.1075L59.6057 75.1076L63.6557 75.9041ZM62.3096 63.7323L59.316 66.5742L62.3096 63.7323ZM56.6549 60.0601L54.5106 63.587L54.5106 63.587L56.6549 60.0601ZM37.0551 54.3339C32.8417 54.4994 29.6277 55.8928 27.0489 58.2427C24.6698 60.4105 22.9992 63.2669 21.5377 65.8272L28.7071 69.9197C30.2429 67.2292 31.3333 65.5071 32.609 64.3446C33.6849 63.3642 35.0197 62.6754 37.379 62.5828L37.0551 54.3339ZM21.5377 65.8272C19.0081 70.2587 16.8323 75.7292 16.8323 81.5272H25.0876C25.0876 77.7248 26.5472 73.7034 28.7071 69.9197L21.5377 65.8272ZM16.8323 81.5272C16.8323 84.7946 18.2924 87.4528 19.9563 89.4034C21.61 91.3419 23.6575 92.82 25.4022 93.8615L29.6334 86.773C28.3319 85.9962 27.1006 85.0582 26.2368 84.0457C25.3834 83.0453 25.0876 82.2177 25.0876 81.5272H16.8323ZM25.4022 93.8614C26.9726 94.7989 28.5922 95.5027 30.0361 96.0966C31.5643 96.7252 32.7992 97.1953 34.0438 97.7819L37.563 90.3143C36.0686 89.6101 34.4577 88.989 33.1764 88.462C31.8108 87.9003 30.6571 87.3841 29.6334 86.773L25.4022 93.8614ZM34.4891 97.9609C36.7992 98.7369 39.4555 99.4025 42.4978 99.6646L43.2063 91.4398C40.9594 91.2462 38.9572 90.7532 37.1177 90.1353L34.4891 97.9609ZM42.4978 99.6646C43.511 99.7518 44.2897 99.8721 45.2884 99.9988C46.2387 100.119 47.3174 100.234 48.5411 100.206L48.3545 91.953C47.7518 91.9666 47.1561 91.9142 46.3268 91.8091C45.546 91.7101 44.4399 91.546 43.2063 91.4398L42.4978 99.6646ZM48.5411 100.206C51.0144 100.15 52.9715 99.2579 54.4885 98.3057C55.2271 97.8422 55.8982 97.3405 56.462 96.9089C57.0714 96.4423 57.5133 96.0918 58.0032 95.7398L53.1862 89.0357C52.5606 89.4851 51.9213 89.9885 51.4439 90.354C50.9208 90.7544 50.4994 91.0629 50.1001 91.3136C49.3411 91.7899 48.8402 91.942 48.3545 91.953L48.5411 100.206ZM58.0032 95.7398C61.3723 93.319 63.4912 89.9151 64.8987 86.5809C66.3049 83.2496 67.1129 79.7151 67.6947 76.7567L59.5946 75.1637C59.039 77.9891 58.3592 80.8454 57.2932 83.3705C56.2286 85.8926 54.8912 87.8106 53.1862 89.0357L58.0032 95.7398ZM67.6947 76.7567L67.7058 76.7005L59.6057 75.1076L59.5946 75.1638L67.6947 76.7567ZM67.7057 76.7007C68.0762 74.8173 68.618 72.1475 68.5609 69.4806C68.5022 66.7331 67.8049 63.5259 65.3031 60.8905L59.316 66.5742C59.9124 67.2024 60.2746 68.1168 60.3076 69.6571C60.3422 71.278 60.008 73.0623 59.6057 75.1075L67.7057 76.7007ZM65.3031 60.8905C64.1766 59.7039 62.7962 58.8209 61.7112 58.1834C61.1487 57.8529 60.5773 57.539 60.0921 57.2707C59.583 56.9891 59.165 56.7555 58.7992 56.5331L54.5106 63.587C55.041 63.9095 55.5998 64.2198 56.0964 64.4945C56.6171 64.7825 57.0803 65.0373 57.5294 65.3011C58.4676 65.8524 59.0184 66.2607 59.316 66.5742L65.3031 60.8905ZM58.7992 56.5331C56.8044 55.3204 54.011 54.3307 51.3537 54.3307V62.586C52.1853 62.586 53.5116 62.9796 54.5106 63.587L58.7992 56.5331ZM51.3537 54.3307H43.9516V62.586H51.3537V54.3307ZM43.9516 54.3307C43.2341 54.3307 41.3742 54.1643 37.0551 54.3339L37.379 62.5828C41.6029 62.4169 42.4406 62.586 43.9516 62.586V54.3307Z" fill="#EE2F14"/>
<path d="M37.7456 83.9112C40.0853 84.5207 42.0236 84.7748 46.0008 84.2134C46.9996 84.0725 48.3598 83.7523 48.9246 83.3282C49.4893 82.9041 50.1285 82.7277 50.1285 81.7737" stroke="#EE2F14" stroke-width="8.25524" stroke-linecap="round"/>
<path d="M32.998 74.3441C35.6976 71.2484 31.2161 74.3441 33.43 74.3441" stroke="#EE2F14" stroke-width="8.25524" stroke-linecap="round"/>
<path d="M49.3032 69.7876C50.2184 71.013 50.9543 71.7794 50.9543 69.9603C50.9543 69.15 49.8751 69.4421 49.3032 69.4421" stroke="#EE2F14" stroke-width="8.25524" stroke-linecap="round"/>
<path d="M131.855 108.981C134.853 108.981 137.85 108.981 140.847 108.981C143.902 108.981 146.736 109.045 149.583 107.798C152.286 106.615 155.139 105.35 157.386 103.397C159.006 101.989 159.93 100.174 161.035 98.3872C162.22 96.4713 163.239 94.6892 163.265 92.3715C163.274 91.5634 163.385 90.6951 163.052 90.0291" stroke="#EE2F14" stroke-width="8.25524" stroke-linecap="round"/>
</svg>
