<svg width="179" height="45" viewBox="0 0 179 45" fill="none" xmlns="http://www.w3.org/2000/svg">
<rect width="178.5" height="45" rx="20" fill="#004D2B"/>
<path d="M19.86 29.11H20.498C21.774 29.11 22.434 28.362 22.434 27.064V25.018H24.128C28.132 25.018 30.266 23.324 30.266 19.936C30.266 16.526 28.044 14.766 23.996 14.766H20.256C18.804 14.766 17.99 15.646 17.99 17.23V27.064C17.99 28.406 18.672 29.11 19.86 29.11ZM23.952 21.784H22.368V18.088H23.864C25.25 18.088 25.976 18.748 25.976 19.958C25.976 21.124 25.272 21.784 23.952 21.784ZM38.2981 17.868C36.9561 17.868 36.0101 18.726 35.6581 19.958C35.5921 19.694 35.5261 19.452 35.4161 19.276C34.9321 18.264 34.0521 17.978 33.2381 17.978C32.3801 17.978 31.6321 18.308 31.6321 18.462V27.064C31.6321 28.626 32.4021 29.11 33.5461 29.11H33.9861C35.0641 29.11 35.8561 28.604 35.8561 27.064V24.468C35.8561 22.686 36.4501 21.784 37.7041 21.784C38.3201 21.784 38.8481 22.048 39.2001 22.356C39.2441 22.4 40.6081 21.85 40.6081 20.134C40.6081 18.748 39.7061 17.868 38.2981 17.868ZM40.6662 23.676C40.6662 27.196 42.9982 29.308 46.7162 29.308C48.2562 29.308 49.4222 29.044 50.2362 28.582C51.0282 28.12 51.4682 27.482 51.4682 26.756C51.4682 25.15 49.4882 25.084 49.4662 25.128C49.0702 25.898 48.1682 26.448 46.8702 26.448C45.6162 26.448 44.6702 25.854 44.3622 24.82C44.3182 24.732 44.2962 24.622 44.2742 24.512H51.2262C51.8862 24.512 52.0622 24.138 52.0842 23.5V23.302C52.0842 20.156 49.7742 17.868 46.4522 17.868C43.0862 17.868 40.6662 20.332 40.6662 23.676ZM48.3222 22.554H44.3182C44.4282 21.41 45.2642 20.574 46.3862 20.574C47.5522 20.574 48.2562 21.3 48.3222 22.554ZM60.1477 17.868C58.8057 17.868 57.8597 18.726 57.5077 19.958C57.4417 19.694 57.3757 19.452 57.2657 19.276C56.7817 18.264 55.9017 17.978 55.0877 17.978C54.2297 17.978 53.4817 18.308 53.4817 18.462V27.064C53.4817 28.626 54.2517 29.11 55.3957 29.11H55.8357C56.9137 29.11 57.7057 28.604 57.7057 27.064V24.468C57.7057 22.686 58.2997 21.784 59.5537 21.784C60.1697 21.784 60.6977 22.048 61.0497 22.356C61.0937 22.4 62.4577 21.85 62.4577 20.134C62.4577 18.748 61.5557 17.868 60.1477 17.868ZM62.5158 23.676C62.5158 27.196 64.8478 29.308 68.5658 29.308C70.1058 29.308 71.2718 29.044 72.0858 28.582C72.8778 28.12 73.3178 27.482 73.3178 26.756C73.3178 25.15 71.3378 25.084 71.3158 25.128C70.9198 25.898 70.0178 26.448 68.7198 26.448C67.4658 26.448 66.5198 25.854 66.2118 24.82C66.1678 24.732 66.1458 24.622 66.1238 24.512H73.0758C73.7358 24.512 73.9118 24.138 73.9338 23.5V23.302C73.9338 20.156 71.6238 17.868 68.3018 17.868C64.9358 17.868 62.5158 20.332 62.5158 23.676ZM70.1718 22.554H66.1678C66.2778 21.41 67.1138 20.574 68.2358 20.574C69.4018 20.574 70.1058 21.3 70.1718 22.554ZM80.2153 33.642C84.0873 33.642 86.2873 32.212 86.2873 30.078C86.2873 28.186 84.7033 27.306 83.1853 26.888C82.0853 26.58 81.2933 26.492 80.9633 26.184C80.6993 26.074 80.5233 25.964 80.4793 25.832C80.6333 25.832 80.7873 25.81 80.9413 25.81C83.8673 25.678 85.6713 24.226 85.6713 21.982C85.6713 21.08 85.2973 20.266 84.6593 19.584L86.5513 17.824C86.6613 17.758 86.0233 16.064 84.5713 16.064C83.7573 16.064 83.1633 16.438 82.6793 17.428L82.3053 18.22C81.6893 18 81.0073 17.868 80.3033 17.868C77.2013 17.868 75.0013 19.606 75.0013 22.004C75.0013 23.786 76.1453 25.084 78.1473 25.59C77.5973 25.854 77.2453 26.36 77.2453 26.91C77.2453 27.306 77.3553 27.658 77.5973 27.9C75.6393 28.142 74.2753 29.154 74.2753 30.694C74.2753 32.652 76.0573 33.642 80.2153 33.642ZM80.3253 23.61C79.3793 23.61 78.6973 22.972 78.6973 21.96C78.6973 20.97 79.3793 20.332 80.3033 20.332C81.2493 20.332 81.9313 20.97 81.9313 21.96C81.9313 22.972 81.2493 23.61 80.3253 23.61ZM80.3033 31.75C78.8073 31.75 78.0813 31.354 78.0813 30.716C78.0813 30.012 78.9173 29.55 80.2373 29.44C80.5673 29.528 80.8313 29.572 81.0953 29.66C81.9313 29.88 82.4593 30.122 82.4593 30.65C82.4593 31.31 81.7773 31.75 80.3033 31.75ZM87.1446 14.898C87.1446 16.13 88.0466 16.9 89.4106 16.9C90.8186 16.9 91.6546 16.108 91.6546 14.898C91.6546 13.644 90.7746 12.874 89.3886 12.874C88.0026 12.874 87.1446 13.666 87.1446 14.898ZM87.2766 27.064C87.2766 28.626 88.0686 29.11 89.2126 29.11H89.6526C90.7306 29.11 91.5006 28.582 91.5006 27.064V20.002C91.5006 18.44 90.7526 17.978 89.6086 17.978H89.1686C88.0906 17.978 87.2766 18.506 87.2766 20.002V27.064ZM93.9261 28.516C94.7181 28.978 95.9721 29.242 97.7101 29.242C101.054 29.242 102.814 27.9 102.814 25.612C102.814 23.016 100.218 22.532 98.8321 22.224C97.7101 21.96 96.9621 21.872 96.9621 21.366C96.9621 20.904 97.4241 20.64 98.2381 20.64C99.3601 20.64 100.636 21.256 101.428 22.026C101.494 22.092 102.55 21.366 102.55 20.376C102.55 20.002 102.462 19.672 102.264 19.364C101.714 18.418 100.262 17.89 97.9301 17.89C94.8721 17.89 93.1121 19.298 93.1121 21.498C93.1121 24.16 95.5981 24.622 96.9621 24.908C98.0181 25.15 98.7001 25.282 98.7001 25.81C98.7001 26.25 98.2381 26.492 97.3801 26.492C95.9281 26.492 94.6081 25.898 93.8601 25.216C93.7721 25.128 92.8481 25.81 92.8481 26.756C92.8481 27.504 93.1781 28.098 93.9261 28.516ZM109.134 29.308C110.322 29.308 111.268 28.956 111.818 28.384C112.214 27.966 112.412 27.482 112.412 26.91C112.412 25.898 111.642 25.348 111.488 25.348C111.202 25.744 110.85 26.03 110.3 26.03C109.662 26.03 109.376 25.656 109.376 24.93V21.278H110.652C111.774 21.278 112.346 20.75 112.346 19.76V19.518C112.346 18.572 111.818 18.088 110.696 18.088H109.442V17.032C109.442 15.47 108.716 15.008 107.572 15.008H107.198C105.988 15.008 105.306 15.69 105.306 17.032V18.088H105.02C103.898 18.088 103.37 18.66 103.37 19.606V19.848C103.37 20.772 103.942 21.278 105.02 21.278H105.306V25.414C105.306 28.01 106.56 29.308 109.134 29.308ZM112.961 23.676C112.961 27.196 115.293 29.308 119.011 29.308C120.551 29.308 121.717 29.044 122.531 28.582C123.323 28.12 123.763 27.482 123.763 26.756C123.763 25.15 121.783 25.084 121.761 25.128C121.365 25.898 120.463 26.448 119.165 26.448C117.911 26.448 116.965 25.854 116.657 24.82C116.613 24.732 116.591 24.622 116.569 24.512H123.521C124.181 24.512 124.357 24.138 124.379 23.5V23.302C124.379 20.156 122.069 17.868 118.747 17.868C115.381 17.868 112.961 20.332 112.961 23.676ZM120.617 22.554H116.613C116.723 21.41 117.559 20.574 118.681 20.574C119.847 20.574 120.551 21.3 120.617 22.554ZM132.443 17.868C131.101 17.868 130.155 18.726 129.803 19.958C129.737 19.694 129.671 19.452 129.561 19.276C129.077 18.264 128.197 17.978 127.383 17.978C126.525 17.978 125.777 18.308 125.777 18.462V27.064C125.777 28.626 126.547 29.11 127.691 29.11H128.131C129.209 29.11 130.001 28.604 130.001 27.064V24.468C130.001 22.686 130.595 21.784 131.849 21.784C132.465 21.784 132.993 22.048 133.345 22.356C133.389 22.4 134.753 21.85 134.753 20.134C134.753 18.748 133.851 17.868 132.443 17.868Z" fill="#FFF34A"/>
<path d="M142 22.5H161.5M161.5 22.5L153.5 30.5M161.5 22.5L153.5 14.5" stroke="#FFF34A" stroke-width="3" stroke-linecap="round" stroke-linejoin="round"/>
</svg>
