<svg width="263" height="50" viewBox="0 0 263 50" fill="none" xmlns="http://www.w3.org/2000/svg">
<path fill-rule="evenodd" clip-rule="evenodd" d="M0 25C0 11.1929 11.1929 0 25 0H238C251.807 0 263 11.1929 263 25C263 38.8071 251.807 50 238 50H25C11.1929 50 0 38.8071 0 25ZM28.375 34H32.125V27.525H36.525C40.275 27.525 42.5 25.25 42.5 21.875C42.5 20.225 41.9 18.825 40.9 17.8C39.85 16.725 38.3 16.125 36.225 16.125H28.375V34ZM32.125 19.275H35.925C37.725 19.275 38.775 20.225 38.775 21.9C38.775 23.525 37.775 24.575 35.875 24.575H32.125V19.275ZM44.293 34H47.918V26.825H50.843C53.093 26.825 54.193 27.925 54.343 29.875C54.368 30.1968 54.3903 30.5208 54.4122 30.8381C54.5209 32.4185 54.6182 33.8334 54.993 34H58.468V33.825C58.0127 33.6247 57.9421 32.5489 57.8407 31.0034C57.8029 30.4272 57.7609 29.7857 57.693 29.1C57.468 26.925 56.618 25.975 54.968 25.5V25.425C57.268 24.8 58.243 23.2 58.243 21.1C58.243 18.125 55.943 16.125 52.493 16.125H44.293V34ZM47.918 19.05H51.868C53.793 19.05 54.718 20.125 54.718 21.575C54.718 23 53.743 24.025 51.768 24.025H47.918V19.05ZM60.5771 34H73.8021V30.975H64.2021V26.15H72.5521V23.175H64.2021V19.175H73.7271V16.125H60.5771V34ZM75.5307 29.275H82.3057V26.35H75.5307V29.275ZM84.5273 34H88.1523V26.825H91.0773C93.3273 26.825 94.4273 27.925 94.5773 29.875C94.6024 30.1967 94.6247 30.5206 94.6465 30.8378L94.6465 30.838V30.8381C94.7552 32.4185 94.8526 33.8334 95.2273 34H98.7023V33.825C98.2471 33.6247 98.1765 32.5488 98.0751 31.0033C98.0373 30.4272 97.9952 29.7857 97.9273 29.1C97.7023 26.925 96.8523 25.975 95.2023 25.5V25.425C97.5023 24.8 98.4773 23.2 98.4773 21.1C98.4773 18.125 96.1773 16.125 92.7273 16.125H84.5273V34ZM88.1523 19.05H92.1023C94.0273 19.05 94.9523 20.125 94.9523 21.575C94.9523 23 93.9773 24.025 92.0023 24.025H88.1523V19.05ZM100.812 34H114.037V30.975H104.437V26.15H112.787V23.175H104.437V19.175H113.962V16.125H100.812V34ZM129.024 34H131.749V24.5H124.224V27.3H128.524V27.4C128.524 29.375 126.699 31.45 123.924 31.45C120.849 31.45 118.924 28.775 118.924 25.125C118.924 21.575 120.599 18.775 123.974 18.775C126.274 18.775 127.599 20.025 127.999 21.75H131.549C130.974 18.25 128.399 15.775 123.899 15.775C121.499 15.775 119.599 16.5 118.149 17.825C116.274 19.55 115.224 22.15 115.224 25.125C115.224 27.825 116.074 30.125 117.549 31.775C119.024 33.4 121.124 34.375 123.824 34.375C125.949 34.375 127.624 33.65 128.849 31.6H128.899L129.024 34ZM134.308 34H137.933V16.125H134.308V34ZM147.629 34.4C151.654 34.4 154.579 32.375 154.579 28.75C154.579 24.9 151.579 24.025 147.904 23.225C145.254 22.65 144.004 22.225 144.004 20.775C144.004 19.5 145.279 18.675 147.229 18.675C149.079 18.675 150.479 19.575 150.679 21.375H154.154C153.879 17.775 151.279 15.8 147.254 15.8C143.279 15.8 140.404 17.625 140.404 21.15C140.404 24.875 143.329 25.725 146.529 26.45L146.707 26.4909C149.328 27.0911 150.954 27.4635 150.954 29.175C150.954 30.825 149.329 31.475 147.479 31.475C144.929 31.475 143.704 30.625 143.454 28.475H139.904C140.029 32.25 142.779 34.4 147.629 34.4ZM155.062 19.175H160.437V34H164.062V19.175H169.437V16.125H155.062V19.175ZM171.271 34H184.496V30.975H174.896V26.15H183.246V23.175H174.896V19.175H184.421V16.125H171.271V34ZM186.749 34H190.374V26.825H193.299C195.549 26.825 196.649 27.925 196.799 29.875C196.824 30.1967 196.846 30.5206 196.868 30.8378V30.838C196.977 32.4184 197.074 33.8334 197.449 34H200.924V33.825C200.469 33.6247 200.398 32.5488 200.297 31.0033C200.259 30.4271 200.217 29.7857 200.149 29.1C199.924 26.925 199.074 25.975 197.424 25.5V25.425C199.724 24.8 200.699 23.2 200.699 21.1C200.699 18.125 198.399 16.125 194.949 16.125H186.749V34ZM190.374 19.05H194.324C196.249 19.05 197.174 20.125 197.174 21.575C197.174 23 196.199 24.025 194.224 24.025H190.374V19.05ZM238.061 23.9393L228.515 14.3934C227.929 13.8076 226.979 13.8076 226.393 14.3934C225.808 14.9792 225.808 15.9289 226.393 16.5147L233.379 23.5L210 23.5V26.5L233.379 26.5L226.393 33.4853C225.808 34.0711 225.808 35.0208 226.393 35.6066C226.979 36.1924 227.929 36.1924 228.515 35.6066L238.061 26.0607C238.646 25.4749 238.646 24.5251 238.061 23.9393Z" fill="black"/>
</svg>
