<svg width="395" height="218" viewBox="0 0 395 218" fill="none" xmlns="http://www.w3.org/2000/svg">
<path d="M43.9362 106.112C48.8198 91.0688 59.2145 69.7079 68.1394 65.0494C72.4364 63.6044 77.4005 62.937 81.0078 63.8778C83.2364 64.459 85.6396 64.6812 87.4819 65.0494C91.7252 65.8972 94.2924 66.9988 98.5153 67.9771C104.25 69.3056 110.538 69.8905 115.543 73.4908C121.283 77.6193 126.536 82.7058 131.941 87.2618C145.25 98.48 148.053 119.617 148.053 135.836C148.053 148.751 147.899 160.859 144.043 173.214C142.779 177.263 141.077 181.152 139.711 185.161C138.53 188.625 138.199 192.304 136.954 195.749C134.345 202.967 129.196 210.29 121.666 213.025C117.522 214.53 112.24 213.867 107.953 213.633C100.17 213.209 92.196 212.151 84.5732 210.557C73.2191 208.183 65.2034 201.394 57.6848 192.887C48.4476 182.436 39.604 167.034 38.6373 152.898C37.5633 137.194 39.0731 121.092 43.9362 106.112Z" fill="#FFD6F3" stroke="#EE2F14" stroke-width="7.15721" stroke-linecap="round"/>
<path d="M36.6055 110.606C36.6055 105.95 37.7339 104.433 42.3981 103.522C45.2742 104.241 47.7901 104.623 50.1217 106.456C57.0385 111.894 59.8644 120.193 66.4984 126.206C71.2928 130.552 74.2435 135.959 78.7631 140.482C81.0749 142.795 84.8235 142.844 87.3805 144.489C89.3917 145.783 87.0299 154.02 86.1648 153.613C84.8703 153.003 81.384 145.945 79.8715 147.459C78.5331 148.798 80.7417 152.933 77.154 149.856C75.3884 148.341 72.8936 144.538 73.328 149.319C73.7324 153.77 74.2423 157.83 73.4353 162.271C72.7939 165.801 71.4471 164.194 68.7868 162.271C64.9173 159.475 61.6951 156.778 58.4888 153.112C55.2874 149.451 52.0678 145.804 48.7629 142.235C44.8996 138.063 40.2103 134.365 37.9643 128.997C35.62 123.393 36.6055 116.566 36.6055 110.606Z" fill="#FFC778" stroke="#EE2F14" stroke-width="7.15721" stroke-linecap="round"/>
<path d="M137.026 118.879C139.166 115.224 140.746 112.326 141.552 108.071C143.569 104.051 152.662 111.176 153.691 113.225C156.274 118.374 155.774 123.708 155.774 129.652C155.774 134.586 156.492 139.831 154.804 144.504C153.349 148.531 151.351 152.368 149.956 156.386C148.998 159.142 147.793 162.148 147.406 165.047C147.35 165.46 147.528 168.367 146.22 167.194C145.733 166.757 145.43 164.905 145.43 166.371C145.43 167.417 144.636 167.617 143.814 166.98C142.877 166.253 139.938 161.822 139.289 162.613C137.605 164.664 137.378 171.12 134.081 170.523C132.138 170.17 130.608 169.145 128.91 168.662C125.883 167.8 126.753 165.319 126.683 162.327C126.616 159.469 125.39 156.982 125.39 153.952C125.39 149.94 125.318 146.151 126.037 142.214C127.134 136.199 130.331 130.378 132.824 124.856C133.81 122.674 135.793 120.986 137.026 118.879Z" fill="#FFC778" stroke="#EE2F14" stroke-width="7.15721" stroke-linecap="round"/>
<path d="M242.529 75.0811C242.857 76.5213 243.418 78.1054 244.518 79.1627C244.854 79.4859 244.344 78.2457 244.308 78.1759C243.959 77.4909 243.539 76.85 243.202 76.1575C243.049 75.8435 242.982 75.5333 243.337 75.8884C244.251 76.8023 245.422 77.4731 246.432 78.2806C247.587 79.2046 248.53 80.29 249.362 81.51C250.502 83.1815 250.977 84.9632 250.782 86.9298C250.556 89.2151 250.072 91.4956 249.661 93.755C249.556 94.3306 249.172 93.1539 249.168 93.142C248.673 91.9062 248.171 90.6706 247.717 89.4192C247.071 87.6374 246.505 85.8232 245.833 84.0517C245.762 83.8626 245.685 83.562 245.49 83.4537C245.448 83.4305 245.267 83.4238 245.303 83.4238C245.646 83.4238 245.711 83.3605 245.766 83.0276C245.874 82.3814 247.377 84.9107 247.381 84.9189C249.65 89.261 249.261 94.648 249.676 99.3916C249.847 101.343 250.342 105.087 252.861 105.566C253.67 105.721 253.279 103.681 253.242 103.428C252.864 100.84 252.007 98.32 251.321 95.8033C250.98 94.5545 250.622 93.3015 250.349 92.0356C250.33 91.9509 250.317 91.7184 250.266 91.7889C250.112 92.0047 250.2 92.9521 250.199 93.1121C250.181 97.3796 249.905 101.786 250.708 106C250.81 106.538 250.973 107.897 251.537 108.235C251.875 108.438 251.948 104.477 251.948 104.266C251.952 102.872 251.859 101.492 251.821 100.102C251.801 99.3341 251.87 98.5291 251.679 97.7768C251.191 95.8507 250.576 100.456 250.543 100.662C250.022 103.948 248.978 108.178 250.438 111.367C251.125 112.867 251.814 114.155 251.814 115.838C251.814 116.618 252.019 116.865 252.218 115.83C252.624 113.712 252.621 111.513 252.621 109.364C252.621 108.55 252.513 108.149 252.27 109.252C251.665 111.996 251.276 114.549 251.276 117.378C251.276 119.634 251.985 121.615 252.689 123.725C252.852 124.214 252.896 124.721 253.032 125.197C253.059 125.292 253.16 124.523 253.16 124.33" stroke="#FAA694" stroke-width="7.15721" stroke-linecap="round"/>
<path d="M36.6394 138.354C29.1539 143.434 23.2183 148.03 20.4703 154.389C19.329 157.03 16.6925 164.324 20.4703 166.267" stroke="#EE2F14" stroke-width="7.15721" stroke-linecap="round"/>
<path d="M154.495 148.612C154.495 156.679 164.992 164.545 164.992 172.47" stroke="#EE2F14" stroke-width="7.15721" stroke-linecap="round"/>
<path d="M73.6173 106.146C73.6018 106.146 73.258 106.146 73.4251 106.146C73.5531 106.146 73.6115 106.146 73.6173 106.146C73.6337 106.146 73.4842 106.146 73.4842 106.146" stroke="#EE2F14" stroke-width="7.15721" stroke-linecap="round"/>
<path d="M114.892 89.35C114.977 89.3992 115.127 89.6074 115.127 89.1952C115.127 89.0827 115.144 88.7807 115.101 88.7394C115.009 88.653 114.951 89.2159 115.033 89.35" stroke="#EE2F14" stroke-width="7.15721" stroke-linecap="round"/>
<path d="M91.8887 115.757C92.7515 111.73 94.6294 112.755 98.3208 112.755C98.9044 112.755 100.881 113.309 101.323 113.088C102.374 112.562 102.967 110.12 103.633 109.158C105.116 107.016 108.332 108.354 110.709 108.014C112.096 107.816 111.204 105.278 110.756 104.607" stroke="#EE2F14" stroke-width="7.15721" stroke-linecap="round"/>
<path d="M212.746 115.683V93.7962L212.746 82.7445C213.909 79.5039 213.971 77.2841 216.877 75.1317C220.008 72.8127 224.872 71.5772 228.599 70.871C231.397 70.3409 235.351 68.6642 236.926 71.4766C238.902 75.0065 240.448 78.7968 241.359 82.7445C242.349 87.0316 242.761 91.47 243.306 95.8292C243.897 100.561 243.95 105.306 244.712 110.038C245.47 114.75 247.121 119.227 247.912 123.902C249.221 131.634 244.988 137.935 237.055 139.257C231.106 140.249 222.568 139.627 217.893 135.927C216.512 134.833 213.246 132.383 213.135 130.39C212.863 125.495 212.746 120.59 212.746 115.683Z" fill="#FAA694" stroke="#EE2F14" stroke-width="7.15721" stroke-linecap="round"/>
<path d="M231.821 70.0491C239.081 70.0491 246.769 68.9198 251.286 75.8885C253.625 79.4972 254.999 84.2948 255.958 88.4325C256.864 92.3429 258.231 96.4604 258.293 100.501C258.399 107.363 259.112 114.805 257.818 121.566C257.445 123.509 256.559 125.856 255.179 127.276C253.569 128.931 251.667 129.4 249.729 130.476C248.572 131.119 247.55 132.569 246.615 133.504" stroke="#EE2F14" stroke-width="7.15721" stroke-linecap="round"/>
<path d="M236.882 140.512C236.882 143.169 236.882 143.602 239.239 145.356C241.886 146.569 244.623 147.269 247.177 148.773C250.464 150.71 268.858 152.162 272.349 150.998" stroke="#EE2F14" stroke-width="7.15721" stroke-linecap="round"/>
<path d="M273.014 117.874C275.129 98.0752 281.224 83.8064 292.151 67.2587C295.167 64.011 299.429 61.1697 302.205 59.9551C310.851 56.1725 321.057 55.7579 330.056 57.0108C350.963 59.922 371.082 74.7766 378.497 94.4626C381.941 103.608 386.177 112.419 388.641 121.917C391.18 131.705 391.355 141.154 390.625 151.173C389.61 165.101 386.068 178.398 373.755 186.456C367.749 190.388 362.017 194.742 354.827 195.461C346.285 196.315 337.536 195.792 328.953 195.792C319.745 195.792 310.382 196.31 301.462 193.513C292.131 190.587 285.539 182.001 281.468 173.519C277.069 164.356 272.593 154.058 272.243 143.712C271.951 135.11 272.1 126.434 273.014 117.874Z" fill="#FFC778" stroke="#EE2F14" stroke-width="7.15721" stroke-linecap="round"/>
<path d="M293.162 104.619C291.435 96.9418 290.626 107.109 292.516 103.328" stroke="#EE2F14" stroke-width="7.15721" stroke-linecap="round"/>
<path d="M328.137 108.177C328.303 108.603 328.581 110.753 329.441 110.507C329.926 110.369 329.413 109.555 329.311 109.35" stroke="#EE2F14" stroke-width="7.15721" stroke-linecap="round"/>
<path d="M284.319 118.263C284.319 120.456 283.062 127.02 286.113 127.766C289.04 128.482 293.43 128.294 296.423 127.766C300.218 127.097 304.055 124.326 307.72 123.104" stroke="#EE2F14" stroke-width="7.15721" stroke-linecap="round"/>
<path d="M250.429 129.56C262.913 142.044 276.715 146.505 294.002 146.505" stroke="#EE2F14" stroke-width="7.15721" stroke-linecap="round"/>
<path d="M28.3812 156.575L14.5281 154.52C13.0755 154.305 11.5976 155.24 11.7295 156.702C11.8248 157.759 12.1641 158.75 12.5927 160.046C13.107 161.6 13.4421 163.503 14.2823 164.917C14.7326 165.674 14.6601 166.861 14.8745 167.718C15.0146 168.279 12.3644 169.262 11.8814 169.664C8.71795 172.298 1.72789 178.451 5.12001 182.823C8.22732 186.829 13.3863 186.912 17.9702 187.035C20.6386 187.107 23.6857 187.184 26.0472 185.675C27.3485 184.844 28.638 183.701 29.808 182.676C30.559 182.018 30.7482 181.489 30.9945 180.521C31.7995 177.356 31.5906 174.55 28.8939 172.408C27.6018 171.382 26.0916 170.824 24.8987 169.671C24.4343 169.222 26.5551 166.022 26.8376 165.431C27.5015 164.044 28.9865 161.538 30.0146 159.411C30.6297 158.139 29.7794 156.782 28.3812 156.575Z" fill="#FAA694"/>
<path d="M14.5281 154.52L14.003 158.06L14.5281 154.52ZM28.3812 156.575L28.9062 153.035L28.3812 156.575ZM11.7295 156.702L8.16537 157.024L11.7295 156.702ZM12.5927 160.046L15.9902 158.922L12.5927 160.046ZM14.2823 164.917L11.2062 166.745L11.2062 166.745L14.2823 164.917ZM14.8745 167.718L11.4027 168.586L14.8745 167.718ZM11.8814 169.664L9.59124 166.914L9.59124 166.914L11.8814 169.664ZM5.12001 182.823L2.2925 185.017L2.29251 185.017L5.12001 182.823ZM17.9702 187.035L17.8737 190.613L17.8737 190.613L17.9702 187.035ZM26.0472 185.675L24.1203 182.66L24.1203 182.66L26.0472 185.675ZM29.808 182.676L27.4498 179.984L27.4498 179.984L29.808 182.676ZM28.8939 172.408L31.1196 169.606L28.8939 172.408ZM24.8987 169.671L22.4122 172.245L22.4122 172.245L24.8987 169.671ZM26.8376 165.431L30.0655 166.976L30.0655 166.976L26.8376 165.431ZM30.0146 159.411L33.2367 160.969L33.2367 160.968L30.0146 159.411ZM14.003 158.06L27.8562 160.115L28.9062 153.035L15.0531 150.981L14.003 158.06ZM8.16537 157.024C8.30557 158.578 8.80824 160 9.19512 161.169L15.9902 158.922C15.5199 157.5 15.344 156.94 15.2936 156.381L8.16537 157.024ZM9.19512 161.169C9.44821 161.935 9.54693 162.423 9.88657 163.559C10.1611 164.478 10.5549 165.65 11.2062 166.745L17.3585 163.088C17.1696 162.77 16.9757 162.285 16.744 161.509C16.5774 160.952 16.2514 159.711 15.9902 158.922L9.19512 161.169ZM11.2062 166.745C11.0931 166.555 11.0646 166.429 11.0704 166.451C11.0761 166.473 11.0934 166.552 11.1183 166.742C11.1302 166.834 11.1417 166.933 11.1558 167.058C11.1689 167.173 11.1855 167.322 11.2037 167.468C11.2392 167.753 11.2958 168.159 11.4027 168.586L18.3463 166.851C18.3481 166.858 18.3438 166.842 18.3355 166.792C18.3272 166.743 18.3177 166.676 18.3059 166.583C18.2938 166.485 18.2826 166.385 18.2675 166.252C18.2533 166.127 18.236 165.975 18.2155 165.818C18.1472 165.294 17.992 164.154 17.3585 163.088L11.2062 166.745ZM11.4027 168.586C11.0416 167.141 11.7198 166.102 11.9263 165.822C12.0612 165.639 12.1834 165.518 12.249 165.456C12.3188 165.391 12.3696 165.352 12.3866 165.34C12.4038 165.327 12.2967 165.401 11.9637 165.574C11.6299 165.747 11.3765 165.866 10.9696 166.069C10.799 166.155 10.5964 166.258 10.4032 166.367C10.2561 166.449 9.9189 166.641 9.59124 166.914L14.1715 172.414C13.9042 172.636 13.7286 172.692 14.1755 172.469C14.397 172.358 14.888 172.12 15.2595 171.927C15.6319 171.734 16.1914 171.433 16.6811 171.065C16.9123 170.892 17.3239 170.561 17.6855 170.071C18.012 169.629 18.7424 168.436 18.3463 166.851L11.4027 168.586ZM9.59124 166.914C8.00974 168.231 5.14248 170.686 3.12728 173.516C2.11961 174.931 1.14288 176.686 0.781497 178.643C0.394553 180.738 0.736302 183.011 2.2925 185.017L7.94752 180.63C7.80766 180.449 7.75112 180.314 7.81964 179.943C7.91371 179.434 8.24619 178.666 8.95745 177.668C10.3801 175.67 12.5896 173.731 14.1715 172.414L9.59124 166.914ZM2.29251 185.017C4.48684 187.845 7.37419 189.201 10.1612 189.866C12.8439 190.506 15.676 190.553 17.8737 190.613L18.0667 183.458C15.6804 183.394 13.6411 183.338 11.8216 182.904C10.1063 182.495 8.86049 181.807 7.94752 180.63L2.29251 185.017ZM17.8737 190.613C20.2853 190.678 24.5225 190.896 27.974 188.691L24.1203 182.66C22.8488 183.472 20.9918 183.537 18.0667 183.458L17.8737 190.613ZM27.974 188.691C29.5509 187.683 31.0588 186.338 32.1662 185.368L27.4498 179.984C26.2172 181.064 25.1461 182.004 24.1203 182.66L27.974 188.691ZM32.1662 185.368C32.8137 184.8 33.3595 184.158 33.775 183.348C34.1487 182.619 34.3378 181.894 34.4627 181.403L27.5264 179.639C27.4697 179.862 27.4353 179.982 27.4095 180.061C27.3869 180.131 27.3844 180.125 27.4061 180.082C27.4314 180.033 27.4641 179.983 27.4936 179.947C27.5184 179.916 27.515 179.927 27.4498 179.984L32.1662 185.368ZM34.4627 181.403C34.935 179.546 35.2051 177.452 34.7585 175.34C34.2895 173.123 33.0891 171.17 31.1196 169.606L26.6683 175.211C27.3955 175.788 27.6479 176.309 27.7562 176.822C27.8871 177.44 27.8591 178.331 27.5264 179.639L34.4627 181.403ZM31.1196 169.606C30.2398 168.907 29.2751 168.363 28.6972 168.017C28.0304 167.617 27.6635 167.366 27.3853 167.098L22.4122 172.245C23.3268 173.128 24.3115 173.733 25.021 174.158C25.8195 174.636 26.256 174.883 26.6683 175.211L31.1196 169.606ZM27.3853 167.098C28.0083 167.699 28.2535 168.384 28.3463 168.836C28.4353 169.269 28.4122 169.609 28.3954 169.765C28.3631 170.067 28.2924 170.225 28.3219 170.145C28.3662 170.025 28.4937 169.751 28.7295 169.318C28.9491 168.916 29.1961 168.496 29.4284 168.105C29.5384 167.919 29.6542 167.725 29.7489 167.561C29.8254 167.43 29.9597 167.197 30.0655 166.976L23.6098 163.886C23.6287 163.847 23.569 163.954 23.272 164.455C23.0416 164.843 22.7345 165.363 22.4466 165.89C22.175 166.388 21.8417 167.035 21.6102 167.659C21.5017 167.952 21.3393 168.439 21.2789 169.003C21.2413 169.354 21.0896 170.967 22.4122 172.245L27.3853 167.098ZM30.0655 166.976C30.3441 166.394 30.8178 165.534 31.4294 164.416C32.0084 163.357 32.6781 162.124 33.2367 160.969L26.7926 157.854C26.3231 158.826 25.7362 159.909 25.1497 160.982C24.5958 161.995 23.995 163.081 23.6098 163.886L30.0655 166.976ZM27.8562 160.115C27.5304 160.067 27.134 159.856 26.8741 159.418C26.5908 158.94 26.5634 158.328 26.7926 157.854L33.2367 160.968C35.0682 157.179 32.3021 153.539 28.9062 153.035L27.8562 160.115ZM15.0531 150.981C13.4505 150.743 11.7617 151.117 10.4268 152.09C9.0209 153.115 7.97121 154.871 8.16537 157.024L15.2936 156.381C15.3195 156.668 15.2658 156.994 15.1177 157.294C14.9768 157.581 14.7903 157.766 14.6424 157.874C14.3766 158.068 14.153 158.083 14.003 158.06L15.0531 150.981Z" fill="#EE2F14"/>
<path d="M169.312 159.828C165.478 160.944 161.622 162.161 157.67 162.765C157.073 162.856 156.777 163.637 157.138 164.122C158.503 165.956 160.266 168.888 161.309 169.93C161.838 170.46 159.935 171.401 159.56 171.787C157.286 174.123 155.178 177.528 154.529 180.772C154.22 182.318 156.07 182.896 157.139 183.664C163.413 188.174 170.612 186.687 176.146 181.579C177.243 180.566 177.4 178.021 177.706 176.643C177.84 176.04 177.814 175.072 177.706 174.477C177.426 172.934 174.475 170.852 173.065 170.415C172.328 170.186 170.01 170.573 170.752 170.361C171.348 170.19 171.921 166.969 172.029 166.473C172.356 164.984 172.827 163.491 173.24 162.021C173.307 161.784 173.362 161.43 173.408 161.039C173.575 159.599 172.433 158.976 171.032 159.346C170.367 159.521 169.744 159.702 169.36 159.814L169.312 159.828Z" fill="#FAA694"/>
<path d="M157.67 162.765L157.13 159.227L157.67 162.765ZM169.312 159.828L170.312 163.264L170.312 163.264L169.312 159.828ZM169.36 159.814L170.359 163.251L170.36 163.251L169.36 159.814ZM171.032 159.346L170.119 155.886V155.886L171.032 159.346ZM157.138 164.122L154.267 166.258L154.267 166.258L157.138 164.122ZM161.309 169.93L163.839 167.4L161.309 169.93ZM159.56 171.787L162.125 174.282L159.56 171.787ZM154.529 180.772L158.038 181.474H158.038L154.529 180.772ZM157.139 183.664L159.227 180.758H159.227L157.139 183.664ZM176.146 181.579L173.718 178.95L173.718 178.95L176.146 181.579ZM177.706 176.643L181.199 177.419V177.419L177.706 176.643ZM177.706 174.477L181.227 173.837V173.837L177.706 174.477ZM173.065 170.415L172.005 173.832H172.005L173.065 170.415ZM170.752 170.361L169.768 166.92H169.768L170.752 170.361ZM172.029 166.473L168.534 165.706L168.534 165.706L172.029 166.473ZM173.24 162.021L176.685 162.99V162.99L173.24 162.021ZM173.408 161.039L169.853 160.625V160.625L173.408 161.039ZM158.21 166.302C162.457 165.654 166.601 164.344 170.312 163.264L168.313 156.392C164.356 157.543 160.787 158.668 157.13 159.227L158.21 166.302ZM170.312 163.264L170.359 163.251L168.36 156.378L168.312 156.392L170.312 163.264ZM170.36 163.251C170.745 163.138 171.329 162.969 171.945 162.806L170.119 155.886C169.405 156.074 168.744 156.267 168.36 156.378L170.36 163.251ZM154.267 166.258C154.888 167.092 155.589 168.162 156.383 169.333C157.067 170.339 157.967 171.65 158.778 172.461L163.839 167.4C163.608 167.168 163.105 166.492 162.305 165.313C161.616 164.298 160.753 162.985 160.009 161.986L154.267 166.258ZM158.778 172.461C158.21 171.892 157.796 171.036 157.824 170.048C157.846 169.214 158.175 168.648 158.312 168.437C158.465 168.202 158.602 168.073 158.62 168.056C158.65 168.027 158.65 168.031 158.597 168.072C158.474 168.166 158.327 168.264 158.061 168.444C157.95 168.519 157.796 168.623 157.649 168.731C157.534 168.816 157.261 169.018 156.995 169.291L162.125 174.282C161.901 174.513 161.713 174.614 162.071 174.372C162.25 174.251 162.616 174.009 162.95 173.753C163.214 173.551 163.843 173.06 164.31 172.342C164.558 171.962 164.951 171.233 164.978 170.244C165.009 169.102 164.54 168.101 163.839 167.4L158.778 172.461ZM156.995 169.291C154.382 171.977 151.839 175.976 151.02 180.07L158.038 181.474C158.517 179.081 160.191 176.269 162.125 174.282L156.995 169.291ZM151.02 180.07C150.784 181.248 150.955 182.402 151.477 183.412C151.955 184.335 152.629 184.953 153.12 185.334C153.609 185.715 154.123 186.015 154.431 186.196C154.822 186.424 154.955 186.502 155.05 186.57L159.227 180.758C158.987 180.586 158.754 180.439 158.562 180.323C158.377 180.211 158.178 180.096 158.042 180.016C157.713 179.824 157.583 179.739 157.515 179.686C157.448 179.634 157.651 179.769 157.835 180.125C157.934 180.317 158.016 180.551 158.053 180.814C158.089 181.076 158.072 181.303 158.038 181.474L151.02 180.07ZM155.05 186.57C163.059 192.327 172.142 190.145 178.573 184.209L173.718 178.95C169.082 183.229 163.767 184.022 159.227 180.758L155.05 186.57ZM178.573 184.209C180.001 182.891 180.491 181.004 180.711 180.048C180.844 179.465 180.942 178.892 181.017 178.443C181.101 177.941 181.149 177.646 181.199 177.419L174.213 175.866C174.11 176.329 174.024 176.868 173.958 177.263C173.883 177.71 173.816 178.095 173.735 178.448C173.652 178.806 173.578 179.03 173.524 179.156C173.463 179.298 173.494 179.157 173.718 178.95L178.573 184.209ZM181.199 177.419C181.464 176.228 181.395 174.76 181.227 173.837L174.185 175.117C174.188 175.131 174.197 175.187 174.205 175.283C174.212 175.375 174.218 175.48 174.218 175.586C174.219 175.694 174.216 175.784 174.21 175.849C174.205 175.922 174.2 175.923 174.213 175.866L181.199 177.419ZM181.227 173.837C181.001 172.594 180.34 171.618 179.846 171.006C179.305 170.335 178.667 169.741 178.061 169.25C176.923 168.329 175.428 167.401 174.126 166.997L172.005 173.832C171.994 173.829 172.18 173.895 172.536 174.105C172.863 174.296 173.224 174.543 173.558 174.813C173.9 175.09 174.141 175.333 174.276 175.5C174.458 175.726 174.271 175.589 174.185 175.117L181.227 173.837ZM174.126 166.997C173.371 166.762 172.599 166.76 172.279 166.761C171.841 166.762 171.404 166.79 171.097 166.812C170.962 166.822 170.774 166.836 170.7 166.842C170.574 166.851 170.571 166.85 170.614 166.849C170.632 166.848 170.674 166.848 170.733 166.849C170.779 166.85 170.904 166.853 171.067 166.873C171.096 166.877 171.674 166.93 172.305 167.269C172.623 167.44 173.475 167.958 173.927 169.082C174.463 170.415 174.069 171.608 173.669 172.268C173.325 172.836 172.91 173.161 172.754 173.277C172.556 173.425 172.385 173.52 172.292 173.569C172.106 173.668 171.955 173.725 171.906 173.744C171.84 173.769 171.791 173.784 171.771 173.791C171.759 173.795 171.75 173.797 171.744 173.799C171.739 173.801 171.735 173.802 171.735 173.802L169.768 166.92C169.694 166.941 169.549 166.983 169.388 167.044C169.316 167.071 169.147 167.136 168.947 167.242C168.848 167.294 168.672 167.393 168.47 167.543C168.31 167.663 167.892 167.99 167.547 168.561C167.145 169.224 166.75 170.42 167.287 171.754C167.741 172.881 168.595 173.4 168.915 173.573C169.553 173.915 170.142 173.971 170.186 173.976C170.484 174.013 170.736 174.005 170.779 174.004C171.02 173.999 171.454 173.962 171.611 173.951C171.883 173.931 172.117 173.919 172.298 173.918C172.597 173.917 172.392 173.953 172.005 173.832L174.126 166.997ZM171.735 173.802C173.05 173.426 173.729 172.472 173.915 172.203C174.192 171.803 174.376 171.404 174.49 171.13C174.727 170.562 174.908 169.937 175.037 169.441C175.173 168.917 175.287 168.4 175.371 167.999C175.413 167.796 175.449 167.617 175.477 167.479C175.491 167.408 175.502 167.354 175.511 167.308C175.515 167.286 175.519 167.269 175.522 167.256C175.524 167.243 175.525 167.239 175.525 167.241L168.534 165.706C168.437 166.148 168.321 166.826 168.11 167.638C168.008 168.03 167.927 168.273 167.885 168.373C167.86 168.433 167.901 168.316 168.031 168.128C168.1 168.029 168.243 167.836 168.478 167.627C168.707 167.422 169.134 167.101 169.768 166.92L171.735 173.802ZM175.525 167.241C175.822 165.886 176.23 164.606 176.685 162.99L169.795 161.052C169.423 162.376 168.891 164.081 168.534 165.706L175.525 167.241ZM176.685 162.99C176.834 162.459 176.914 161.863 176.962 161.453L169.853 160.625C169.835 160.782 169.817 160.907 169.802 160.999C169.794 161.044 169.789 161.072 169.786 161.086C169.783 161.102 169.785 161.088 169.795 161.052L176.685 162.99ZM171.945 162.806C171.943 162.806 171.921 162.812 171.879 162.816C171.837 162.82 171.768 162.823 171.676 162.814C171.497 162.797 171.185 162.73 170.84 162.503C170.475 162.262 170.171 161.904 169.997 161.481C169.83 161.077 169.838 160.757 169.853 160.625L176.962 161.453C177.173 159.647 176.546 157.69 174.776 156.525C173.218 155.499 171.442 155.536 170.119 155.886L171.945 162.806ZM157.13 159.227C155.319 159.504 154.177 160.791 153.707 162.005C153.241 163.21 153.229 164.863 154.267 166.258L160.009 161.986C160.687 162.896 160.642 163.915 160.382 164.587C160.12 165.266 159.423 166.117 158.21 166.302L157.13 159.227Z" fill="#EE2F14"/>
<path d="M56.7328 47.8015C59.0162 47.8015 64.5039 48.8134 66.8158 47.6574C67.8109 47.1599 68.4028 44.2571 68.7244 43.2281C69.9881 39.1844 69.2525 31.7268 64.8352 29.6881C62.5558 28.636 55.6441 26.9236 53.5279 29.0399C52.2393 30.3285 52.2009 34.9127 53.816 35.8099C55.3693 36.6729 59.5152 38.0786 61.2702 38.0786C63.3816 38.0786 67.0125 33.0575 68.4003 31.5967C70.9098 28.9551 73.0232 21.9388 72.0014 18.6328C70.3633 13.3332 64.0169 6.15238 58.6774 4.37256" stroke="#EE2F14" stroke-width="7.15721" stroke-linecap="round"/>
</svg>
