<svg width="270" height="177" viewBox="0 0 270 177" fill="none" xmlns="http://www.w3.org/2000/svg">
<path d="M9.93347 78.4772C19.2073 54.0059 37.1645 26.3175 54.1211 16.5887C56.6337 14.8206 60.2636 12.4075 64.7525 9.89925C71.2122 6.28992 71.4512 7.12071 73.8125 6.28992C81.621 3.54263 95.2108 3.58971 103.17 6.28992C113.116 9.66428 117.77 22.0775 120.567 31.4235C125.298 47.2396 125.241 63.5551 123.72 79.9692C121.361 105.417 118.138 135.633 98.5486 153.247C85.4136 165.057 69.1612 175.415 51.4684 171.265C33.9667 167.16 18.2663 153.68 10.4771 137.237C2.2282 119.823 3.2309 96.1637 9.93347 78.4772Z" fill="#FAA694" stroke="#EE2F14" stroke-width="8.07455" stroke-linecap="round"/>
<path d="M172.207 35.8395C178.241 23.1873 188.62 12.122 201.044 5.02228C205.115 3.70933 215.747 4.3421 217.362 5.02196C222.705 7.27191 223.014 7.07373 228.261 10.2065C236.337 15.0278 243.087 18.3165 247.702 25.1111C252.288 31.8622 256.19 38.0517 259.51 45.6319C265.596 59.5222 265.66 75.9785 264.191 90.8857C262.756 105.44 261.419 120.172 253.822 133.007C251.051 137.689 247.452 142.178 243.814 146.22C241.233 149.087 238.595 152.693 235.065 154.392C228.552 157.528 222.242 159.9 214.977 159.9C207.668 159.9 198.942 158.91 192.08 156.336C189.128 155.229 186.344 152.98 184.794 150.397C182.093 145.895 181.12 143.644 178.2 139.362C176.633 137.064 174.606 132.116 173.755 129.515L173.682 129.291C170.348 119.107 166.804 108.276 165.871 97.5819C164.695 84.1087 164.519 69.5439 165.799 56.0363C166.494 48.6967 169.067 42.4233 172.207 35.8395Z" fill="#FFC778" stroke="#EE2F14" stroke-width="8.07455" stroke-linecap="round"/>
<path d="M164.204 76.3809C162.323 79.5632 158.525 81.1673 156.258 84.0817C154.35 86.5342 153.068 86.6812 150.174 87.6458C147.634 88.4925 143.356 91.21 140.777 91.21" stroke="#EE2F14" stroke-width="8.07455" stroke-linecap="round"/>
<path d="M38.4184 95.4766C38.4184 104.349 37.561 115.147 41.6585 123.342" stroke="#EE2F14" stroke-width="8.07455" stroke-linecap="round"/>
<path d="M116.833 90.9141C119.133 95.2685 122.006 98.6787 125.473 102.147C126.435 103.108 127.924 104.023 128.497 105.171" stroke="#EE2F14" stroke-width="8.07455" stroke-linecap="round"/>
<path d="M74.8457 64.7205C80.5492 64.8833 86.4925 67.0027 92.3065 65.7663C96.0587 64.9684 99.0968 59.9499 102.299 58.0771" stroke="#EE2F14" stroke-width="8.07455" stroke-linecap="round"/>
<path d="M74.5767 45.6973C73.7992 46.0343 72.3249 46.5543 73.9956 46.7604C74.718 46.8494 74.6631 46.4738 74.1893 46.3423" stroke="#EE2F14" stroke-width="8.07455" stroke-linecap="round"/>
<path d="M101.223 38.9678C102.096 41.9957 102.484 38.9678 101.224 38.9678" stroke="#EE2F14" stroke-width="8.07455" stroke-linecap="round"/>
<path d="M240.574 89.2646C240.574 90.3743 241.619 98.8298 240.214 99.6331C238.423 100.656 236.012 101.458 234.093 102.225" stroke="#EE2F14" stroke-width="8.07455" stroke-linecap="round"/>
<path d="M174.475 67.8809C178.603 73.8965 181.43 74.7658 187.868 76.9532C194.305 79.1407 195.039 78.0495 201.616 76.9532C203.29 76.6743 211.809 71.1018 212.382 69.3827" stroke="#EE2F14" stroke-width="8.07455" stroke-linecap="round"/>
<path d="M178.439 45.1585C176.158 43.9228 179.757 43.5365 178.439 45.1586" stroke="#EE2F14" stroke-width="8.07455" stroke-linecap="round"/>
<path d="M216.597 45.9662C215.071 47.1584 216.345 44.8012 215.984 46.7836C215.819 47.6926 216.219 47.8992 216.597 47.1437" stroke="#EE2F14" stroke-width="8.07455" stroke-linecap="round"/>
</svg>
