<svg width="318" height="232" viewBox="0 0 318 232" fill="none" xmlns="http://www.w3.org/2000/svg">
<path d="M184.657 98.7833C181.477 98.7833 181.421 100.416 180.508 103.348C180.28 104.079 177.315 112.197 178.206 112.364C178.763 112.469 178.692 113.757 178.206 113.987C177.396 114.371 174.54 114.2 174.472 113.044C173.895 103.234 176.818 93.5611 179.15 84.1458C179.664 82.0698 180.364 79.5579 180.244 77.3929C180.2 76.614 176.633 80.7859 176.32 81.1466C174.134 83.6639 171.51 86.4652 170.586 89.7669C170.204 91.1294 170.029 92.632 169.718 94.0299C169.369 95.6 169.039 97.2814 169.039 98.8964C169.039 100.085 169.946 100.821 170.397 101.914C171.851 105.435 173.136 109.058 174.887 112.364C175.427 113.385 175.934 114.348 176.773 115.156C177.272 115.637 177.787 115.877 178.47 116.024C180.296 116.415 183.465 106.652 183.865 105.668C186.567 99.0284 188.928 92.2574 191.58 85.5982C191.82 84.9953 194.382 79.8247 193.749 79.034C193.467 78.6812 190.05 84.8332 189.901 85.1455C187.788 89.5786 185.693 94.1477 184.224 98.8399C183.832 100.089 180.991 106.137 183.997 105.536C185.534 105.229 186.998 103.516 187.921 102.386C190.454 99.2843 192.33 95.5178 193.58 91.7286C194.212 89.8105 195.145 87.3407 195.145 85.2775C195.145 84.5784 194.384 87.9027 194.315 88.2767C194.019 89.8897 191.983 98.3704 194.108 99.236C197.745 100.718 203.903 96.7562 204.482 93.049C204.697 91.6763 203.891 91.3513 202.634 91.3513C201.59 91.3513 200.773 91.6887 199.936 92.3322C196.233 95.1791 193.187 99.0517 190.241 102.631C187.754 105.653 185.432 108.764 183.45 112.138C182.311 114.077 183.598 109.405 183.639 109.12C184.608 102.369 184.444 95.3966 184.242 88.5974C184.136 84.9976 183.851 81.0992 182.432 77.7324C182.172 77.1157 181.769 77.1996 181.526 76.7138C180.928 75.5176 180.535 74.2426 179.904 73.0545C179.256 71.8342 178.397 70.6341 177.942 69.3196C177.789 68.8761 178.482 70.0398 178.546 70.2628C178.789 71.112 180.207 74.3371 178.357 74.3371C177.444 74.3371 175.571 75.461 175.867 73.9787C176.167 72.4799 177.262 70.8734 177.905 69.5083C179.577 65.9537 181.698 62.6923 183.488 59.2092C183.847 58.51 185.336 55.1195 185.336 57.7756C185.336 59.7357 185.656 61.6645 185.676 63.6231C185.706 66.5546 185.679 69.4388 186.016 72.3C186.104 73.0527 186.32 71.8793 186.28 71.6209C186.123 70.621 185.656 69.694 185.412 68.716C184.967 66.9365 185.367 69.3445 185.751 70.0742C186.952 72.3505 188.879 75.8774 191.033 77.3929C192.637 78.5217 193.077 70.7711 193.146 70.0364C193.244 68.9904 194.703 60.1146 191.976 60.1146C191.254 60.1146 192.151 64.0711 192.316 64.4908C193.238 66.8391 195.899 67.721 198.239 67.8672C200.405 68.0026 203.643 68.3965 205.671 67.5277C206.874 67.0118 208.665 65.3737 207.595 63.8872C206.746 62.7084 201.564 63.4012 200.276 63.5476C199.015 63.6909 197.677 64.1105 196.616 64.8303C196.398 64.9785 195.967 65.5431 196.541 65.5094C197.52 65.4518 197.817 63.3897 197.22 62.7931C196.894 62.4673 196.019 61.6914 197.088 61.4539C200.452 60.7063 203.749 59.4964 207.161 58.7565C208.8 58.4009 211.985 57.0875 213.706 57.87C218.065 59.8515 223.809 59.8226 228.476 60.756C232.785 61.6179 237.205 62.4158 241.227 64.2833C244.404 65.7583 246.078 69.1671 247.395 72.2245C248.876 75.6629 250.939 78.8137 252.488 82.2218C253.485 84.4148 254.766 87.0543 254.525 89.5405C254.301 91.8519 253.276 94.5453 252.488 96.7461C251.585 99.2671 249.88 101.365 249.017 103.876C248.586 105.132 248.311 107.072 247.32 108.064C246.041 109.342 249.157 104.933 249.828 103.254C251.102 100.069 252.092 96.6813 252.205 93.2376C252.251 91.8395 252.514 89.9791 251.337 88.9558C250.514 88.2396 249.583 87.7274 248.847 86.8997C247.013 84.8358 245.771 80.748 242.642 84.2967C239.891 87.416 238.4 92.0478 237.511 96.0293C237.066 98.0232 236.232 101.751 237.247 103.725C238.285 105.745 240.733 104.443 241.698 103.159C244.527 99.3989 244.529 93.8574 244.679 89.3896C244.736 87.6859 245.134 83.5816 243.321 82.3727C241.516 81.1695 240.482 84.9142 240.189 85.8057C238.759 90.1587 238.327 94.494 238.303 99.0474C238.298 100.081 237.638 104.15 238.529 105.008C239.956 106.381 241.573 99.8691 241.661 99.4623C242.399 96.0398 242.883 91.3548 242.076 87.9183C240.511 81.2582 233.136 82.8614 229.4 86.5979C225.787 90.2104 223.095 95.0697 221.893 100.028C221.391 102.094 220.398 107.04 223.741 107.385C228.932 107.92 234.242 100.872 236.04 96.7838C238.501 91.1854 239.237 83.0311 235.87 77.657C234.809 75.964 232.504 72.5316 230.098 72.8093C226.145 73.2654 224.134 80.09 223.043 83.0329C221.644 86.8069 213.962 111.269 225.514 108.083C233.348 105.922 234.318 93.0748 234.549 86.4848C234.81 79.0474 226.091 91.0722 225.212 92.6717C224.129 94.6452 220.886 99.8777 223.251 102.065C227.03 105.562 232.949 100.142 235.134 97.4252C238.393 93.372 241.098 87.8226 241.812 82.6368C242.162 80.0938 242.253 76.378 239.925 74.6767C235.949 71.771 233.246 77.0133 232.946 80.4487C232.825 81.8407 232.606 84.6412 233.625 85.8057C235.21 87.6173 236.73 84.0581 237.058 83.0329C237.997 80.1033 238.265 76.6369 238.265 73.5638C238.265 71.2226 237.28 70.64 235.021 70.64C224.843 70.64 223.014 84.0297 223.175 91.7286C223.266 96.0634 224.018 102.185 229.06 103.518C235.078 105.109 239.305 97.9082 241.321 93.4451C243.666 88.2554 245.042 81.9787 244.66 76.2423C244.463 73.2866 242.651 73.1462 240.095 73.3751C234.304 73.8937 226.676 76.248 224.043 81.8822C222.639 84.8856 216.65 107.394 223.779 106.385C228.384 105.733 234.123 101.712 235.813 97.2743C236.68 94.9979 234.895 96.8962 234.342 97.7835C232.56 100.643 231.336 103.735 230.022 106.819C229.632 107.734 229.365 110.437 228.872 109.573C228.197 108.392 228.796 105.427 228.796 104.103C228.796 103.294 229.176 101.297 228.721 100.556C228.027 99.4286 226.594 98.4339 225.741 97.3497C223.678 94.7293 223.167 91.0449 221.666 88.0692C219.036 82.8545 216.394 78.1419 210.047 77.4495C208.019 77.2282 205.902 77.3929 203.86 77.3929C202.338 77.3929 204.328 83.8549 204.52 84.7305C204.957 86.7239 205.124 88.1158 206.199 89.8046C207.307 91.5459 208.615 92.9457 210.122 94.3694C211.747 95.904 212.402 94.9267 212.914 92.8981C213.3 91.3658 215.284 84.071 213.178 82.9008C212.233 82.3756 210.544 89.432 210.386 90.031C210.043 91.3375 209.734 92.5954 209.783 93.9544C209.791 94.1782 210.311 94.1455 210.311 94.3694C210.311 94.7724 208.344 96.4795 208.01 96.8215C206.804 98.0548 204.862 99.6091 204.086 101.16C203.742 101.848 204.607 103.835 203.935 103.461C203.16 103.031 203.589 101.72 203.482 100.839C203.217 98.6436 202.859 96.4764 202.502 94.2939C201.655 89.1326 200.883 83.9308 200.295 78.7322C200.114 77.1404 199.4 76.4929 198.918 75.1671C197.841 72.2056 200.592 70.3092 202.973 68.9047C206.388 66.8905 211.073 72.0374 212.159 74.7521C212.442 75.4581 212.127 77.211 213.178 77.0534C214.186 76.9022 215.475 75.2912 216.121 74.6389C217.731 73.0111 219.335 71.3033 219.969 69.0556C220.626 66.7207 219.998 66.8675 217.856 66.8675C215.975 66.8675 214.432 67.1935 212.631 67.7163C211.636 68.0051 210.049 68.5201 208.953 68.2067C207.06 67.6659 212.837 67.5278 214.8 67.3768C217.077 67.2016 221.364 66.3176 223.515 67.5465C224.348 68.023 224.701 68.4703 225.759 68.7349C227.552 69.1831 229.71 68.9047 231.531 68.9047C232.767 68.9047 236.686 68.1557 234.455 69.8289C231.737 71.8677 229.172 74.5451 225.741 75.3369C224.088 75.7182 222.487 76.2262 220.912 76.8647C219.833 77.3021 218.969 77.6171 219.365 76.0348C220.65 70.8928 226.345 65.1698 231.852 65.1698C232.026 65.1698 233.262 65.2206 232.682 65.0189C230.211 64.1596 227.15 64.161 224.571 63.9626C219.931 63.6057 215.438 64.0999 210.952 62.6045C209.668 62.1764 207.745 60.868 207.745 62.812C207.745 67.7301 206.394 72.7223 205.878 77.6004C205.571 80.5087 204.885 83.4413 204.709 86.3527C204.677 86.8813 204.576 87.8468 205.18 87.0695C205.413 86.7703 205.272 86.3063 205.576 86.0698C206.058 85.6949 206.594 85.6741 207.066 85.2021" stroke="#FAA694" stroke-width="8.62531" stroke-linecap="round"/>
<path d="M59.5366 66.1766C73.2176 56.8415 94.0252 53.512 109.88 57.7162C114.669 59.9705 123.841 69.9841 126.16 75.0711C129.984 83.4582 136.589 91.8816 142.578 98.9047C152.001 109.956 160.433 121.145 165.599 134.745C167.045 138.551 165.712 145.214 165.401 149.119C164.829 156.312 162.939 162.821 159.588 169.223C153.644 180.578 146.329 190.223 136.621 198.5C129.655 204.441 118.179 210.597 108.771 210.602C96.7549 210.608 88.6726 207.485 78.1052 202.35C62.9468 194.984 54.6143 179.72 45.1715 162.423L44.8037 161.749C35.208 144.175 32.297 124.337 35.208 108.164C36.919 98.6588 40.5123 91.3164 44.8037 83.6901C49.2159 75.8488 52.1676 71.2048 59.5366 66.1766Z" fill="#FFD6F3" stroke="#EE2F14" stroke-width="6.46898" stroke-linecap="round"/>
<path d="M114.776 140.941C124.595 140.941 144.426 146.763 157.04 146.763C164.048 146.763 175.19 142.249 177.938 137.493C178.923 135.787 178.874 134.399 180.784 133.763" stroke="#EE2F14" stroke-width="6.46898" stroke-linecap="round"/>
<path d="M140.146 96.6589C145.389 92.8465 154.133 91.3584 160.465 91.3584" stroke="#EE2F14" stroke-width="6.46898" stroke-linecap="round"/>
<path d="M178.526 128.854C177.775 128.103 177.064 127.339 176.392 126.562C176.851 117.398 183.524 112.755 190.698 108.143C197.433 103.813 204.822 101.076 212.783 101.076C218.771 101.076 224.413 101.635 230.255 101.959C232.433 102.08 236.765 102.238 238.648 103.284C242.777 105.578 246.187 106.658 249.249 110.401C251.036 112.586 256.686 123.876 252.832 124.977C248.583 126.191 244.277 129.345 239.531 129.345C236.213 129.345 229.718 132.039 226.918 133.762C219.48 138.339 208.727 137.296 200.219 137.296C192.043 137.296 184.455 134.784 178.526 128.854Z" fill="#FAA694"/>
<path d="M178.526 128.854L180.813 126.567L180.813 126.567L178.526 128.854ZM226.918 133.762L228.613 136.517L226.918 133.762ZM252.832 124.977L253.72 128.087L252.832 124.977ZM249.249 110.401L251.752 108.353L249.249 110.401ZM238.648 103.284L240.219 100.457H240.219L238.648 103.284ZM230.255 101.959L230.076 105.189L230.255 101.959ZM190.698 108.143L188.949 105.422L190.698 108.143ZM201.986 87.3336L204.895 85.9205L201.986 87.3336ZM198.751 102.758C198.751 104.545 200.2 105.993 201.986 105.993C203.772 105.993 205.22 104.545 205.22 102.758H198.751ZM186.178 52.6393C184.392 52.6393 182.944 54.0874 182.944 55.8738C182.944 57.6601 184.392 59.1083 186.178 59.1083V52.6393ZM241.053 58.868L242.327 55.895L241.053 58.868ZM257.2 81.1498L260.268 80.1269L257.2 81.1498ZM247.758 113.232C247.758 115.018 249.207 116.467 250.993 116.467C252.779 116.467 254.227 115.018 254.227 113.232H247.758ZM247.714 66.0344C249.5 66.0344 250.948 64.5863 250.948 62.7999C250.948 61.0135 249.5 59.5654 247.714 59.5654V66.0344ZM218.771 87.6282L216.064 85.8581L218.771 87.6282ZM211.384 99.29C210.393 100.776 210.794 102.785 212.281 103.775C213.767 104.766 215.775 104.365 216.766 102.878L211.384 99.29ZM183.487 54.484L186.092 56.4007L183.487 54.484ZM185.166 54.475L187.757 52.5381L185.166 54.475ZM180.881 52.5673C173.205 63.0024 166.57 76.1729 164.258 89.6237C161.936 103.137 163.963 117.144 173.946 128.679L178.837 124.445C170.44 114.743 168.547 102.861 170.634 90.7195C172.731 78.5153 178.835 66.2652 186.092 56.4007L180.881 52.5673ZM173.946 128.679C174.67 129.515 175.434 130.336 176.239 131.142L180.813 126.567C180.117 125.87 179.458 125.163 178.837 124.445L173.946 128.679ZM176.239 131.142C182.885 137.787 191.354 140.53 200.219 140.53V134.061C192.732 134.061 186.026 131.78 180.813 126.567L176.239 131.142ZM200.219 140.53C204.224 140.53 209.368 140.793 214.184 140.473C219.068 140.148 224.234 139.211 228.613 136.517L225.223 131.008C222.164 132.89 218.235 133.72 213.755 134.018C209.208 134.321 204.722 134.061 200.219 134.061V140.53ZM228.613 136.517C229.782 135.798 231.901 134.779 234.158 133.939C236.51 133.064 238.495 132.58 239.531 132.58V126.111C237.249 126.111 234.328 126.973 231.902 127.876C229.383 128.814 226.854 130.004 225.223 131.008L228.613 136.517ZM239.531 132.58C242.59 132.58 245.357 131.566 247.639 130.591C250.133 129.525 251.856 128.62 253.72 128.087L251.943 121.867C249.559 122.548 247.004 123.827 245.097 124.642C242.977 125.548 241.218 126.111 239.531 126.111V132.58ZM253.72 128.087C255.119 127.687 256.152 126.758 256.746 125.58C257.28 124.52 257.395 123.401 257.384 122.502C257.361 120.713 256.816 118.727 256.202 117.008C255.565 115.224 254.748 113.436 253.973 111.95C253.23 110.524 252.418 109.166 251.752 108.353L246.745 112.449C246.974 112.728 247.538 113.601 248.237 114.94C248.904 116.22 249.592 117.733 250.11 119.183C250.65 120.697 250.906 121.876 250.915 122.583C250.919 122.931 250.857 122.891 250.969 122.668C251.141 122.327 251.508 121.992 251.943 121.867L253.72 128.087ZM251.752 108.353C248.171 103.976 243.789 102.441 240.219 100.457L237.077 106.112C241.764 108.716 244.202 109.34 246.745 112.449L251.752 108.353ZM240.219 100.457C238.655 99.5883 236.508 99.2453 234.937 99.0622C233.223 98.8623 231.468 98.787 230.435 98.7297L230.076 105.189C231.22 105.252 232.72 105.317 234.188 105.488C235.798 105.675 236.758 105.934 237.077 106.112L240.219 100.457ZM230.435 98.7297C224.775 98.4152 218.887 97.8413 212.783 97.8413V104.31C218.655 104.31 224.052 104.854 230.076 105.189L230.435 98.7297ZM212.783 97.8413C204.052 97.8413 196.064 100.848 188.949 105.422L192.447 110.864C198.803 106.778 205.592 104.31 212.783 104.31V97.8413ZM188.949 105.422C181.941 109.927 173.713 115.382 173.161 126.401L179.622 126.724C179.988 119.413 185.107 115.583 192.447 110.864L188.949 105.422ZM173.161 126.401C173.161 126.408 173.161 126.413 173.161 126.417C173.16 126.421 173.16 126.422 173.16 126.422C173.16 126.422 173.16 126.421 173.16 126.42C173.16 126.419 173.161 126.417 173.161 126.414C173.161 126.409 173.162 126.397 173.163 126.381C173.164 126.369 173.167 126.335 173.172 126.292C173.174 126.27 173.179 126.232 173.186 126.185C173.189 126.16 173.195 126.127 173.202 126.087C173.208 126.05 173.219 125.991 173.236 125.92C173.245 125.884 173.256 125.837 173.271 125.783C173.286 125.73 173.308 125.658 173.338 125.574C173.35 125.539 173.379 125.463 173.395 125.423C173.415 125.377 173.46 125.277 173.486 125.224C173.518 125.161 173.593 125.024 173.637 124.952C173.693 124.864 173.83 124.674 173.911 124.574C174.018 124.453 174.282 124.2 174.44 124.073C174.651 123.927 175.152 123.667 175.444 123.563C175.79 123.478 176.516 123.425 176.887 123.462C177.234 123.536 177.848 123.772 178.114 123.923C178.321 124.066 178.663 124.36 178.8 124.505C178.903 124.627 179.073 124.857 179.141 124.964C179.193 125.052 179.281 125.216 179.318 125.292C179.346 125.356 179.396 125.474 179.416 125.528C179.433 125.575 179.463 125.663 179.476 125.703C179.487 125.739 179.506 125.806 179.514 125.837C179.534 125.912 179.548 125.977 179.557 126.025C179.567 126.074 179.574 126.117 179.58 126.151C179.585 126.185 179.589 126.215 179.593 126.24C179.599 126.289 179.603 126.329 179.606 126.358C179.608 126.388 179.61 126.413 179.612 126.432C179.614 126.47 179.616 126.5 179.616 126.519C179.617 126.539 179.618 126.556 179.618 126.568C179.619 126.59 179.619 126.608 179.619 126.617C179.619 126.635 179.619 126.647 179.619 126.648C179.619 126.651 179.619 126.647 179.619 126.637C179.619 126.627 179.62 126.624 179.619 126.628C179.619 126.63 179.619 126.643 179.618 126.663C179.617 126.673 179.616 126.694 179.614 126.72C179.613 126.734 179.611 126.754 179.609 126.778C179.606 126.8 179.602 126.839 179.596 126.888C179.593 126.913 179.588 126.948 179.581 126.989C179.575 127.028 179.564 127.089 179.547 127.165C179.538 127.203 179.527 127.253 179.511 127.311C179.495 127.368 179.472 127.447 179.439 127.54C179.425 127.578 179.393 127.662 179.375 127.707C179.353 127.759 179.301 127.872 179.271 127.932C179.233 128.004 179.142 128.161 179.088 128.245C179.018 128.346 178.847 128.565 178.743 128.681C178.605 128.819 178.262 129.099 178.055 129.234C177.787 129.378 177.167 129.601 176.817 129.668C176.438 129.696 175.697 129.621 175.344 129.522C175.047 129.404 174.541 129.116 174.332 128.957C174.175 128.819 173.918 128.548 173.815 128.419C173.738 128.313 173.61 128.114 173.557 128.022C173.517 127.946 173.448 127.805 173.419 127.74C173.396 127.686 173.356 127.583 173.339 127.536C173.3 127.424 173.274 127.33 173.257 127.265C173.24 127.197 173.227 127.14 173.219 127.096C173.202 127.011 173.191 126.942 173.186 126.9C173.179 126.855 173.175 126.817 173.173 126.79C173.17 126.763 173.168 126.739 173.166 126.721C173.163 126.686 173.162 126.657 173.161 126.639C173.159 126.605 173.158 126.578 173.158 126.567C173.157 126.544 173.157 126.531 173.157 126.536C173.157 126.539 173.157 126.547 173.157 126.562H179.626C179.626 126.535 179.626 126.508 179.626 126.482C179.626 126.459 179.625 126.424 179.624 126.387C179.624 126.368 179.623 126.336 179.621 126.296C179.62 126.276 179.618 126.245 179.615 126.208C179.613 126.189 179.611 126.165 179.608 126.137C179.606 126.109 179.601 126.071 179.595 126.026C179.589 125.983 179.579 125.913 179.562 125.828C179.553 125.784 179.541 125.726 179.523 125.659C179.507 125.594 179.48 125.499 179.441 125.388C179.424 125.34 179.384 125.238 179.361 125.183C179.332 125.118 179.264 124.977 179.223 124.901C179.171 124.809 179.043 124.61 178.965 124.504C178.862 124.375 178.605 124.104 178.448 123.966C178.239 123.807 177.733 123.519 177.436 123.401C177.083 123.302 176.342 123.227 175.963 123.255C175.613 123.322 174.993 123.544 174.725 123.688C174.518 123.824 174.175 124.104 174.037 124.242C173.933 124.358 173.761 124.577 173.692 124.678C173.638 124.762 173.547 124.919 173.509 124.991C173.479 125.051 173.427 125.164 173.405 125.216C173.386 125.261 173.354 125.345 173.34 125.384C173.307 125.477 173.284 125.556 173.269 125.612C173.253 125.671 173.241 125.721 173.232 125.76C173.216 125.835 173.205 125.897 173.198 125.937C173.191 125.978 173.186 126.014 173.183 126.039C173.176 126.089 173.172 126.13 173.17 126.154C173.167 126.18 173.166 126.202 173.164 126.217C173.162 126.248 173.16 126.274 173.159 126.29C173.158 126.322 173.156 126.35 173.156 126.369C173.154 126.407 173.153 126.446 173.152 126.478C173.151 126.511 173.151 126.549 173.15 126.587C173.15 126.606 173.15 126.633 173.15 126.663C173.15 126.679 173.15 126.702 173.151 126.729C173.151 126.743 173.152 126.762 173.153 126.784C173.154 126.805 173.155 126.837 173.158 126.876C173.159 126.896 173.161 126.922 173.164 126.952C173.167 126.981 173.171 127.023 173.177 127.072C173.181 127.097 173.185 127.127 173.19 127.162C173.196 127.196 173.203 127.239 173.213 127.288C173.222 127.336 173.236 127.401 173.256 127.477C173.265 127.508 173.284 127.575 173.294 127.61C173.307 127.651 173.337 127.738 173.354 127.785C173.375 127.84 173.424 127.958 173.453 128.022C173.489 128.097 173.577 128.262 173.629 128.35C173.698 128.457 173.867 128.687 173.97 128.809C174.108 128.954 174.449 129.248 174.656 129.391C174.922 129.542 175.537 129.778 175.883 129.852C176.254 129.889 176.981 129.836 177.327 129.751C177.619 129.647 178.12 129.387 178.33 129.241C178.489 129.114 178.753 128.861 178.86 128.74C178.941 128.64 179.077 128.45 179.134 128.362C179.178 128.289 179.253 128.153 179.285 128.09C179.311 128.037 179.356 127.937 179.376 127.89C179.392 127.85 179.421 127.775 179.433 127.74C179.463 127.655 179.485 127.583 179.5 127.53C179.515 127.476 179.527 127.429 179.535 127.392C179.552 127.321 179.563 127.262 179.57 127.224C179.577 127.184 179.582 127.15 179.586 127.125C179.593 127.076 179.598 127.036 179.601 127.012C179.606 126.964 179.609 126.926 179.611 126.906C179.614 126.864 179.617 126.827 179.618 126.804C179.619 126.778 179.621 126.751 179.622 126.724L173.161 126.401ZM182.576 56.412C185.958 60.9349 188.776 66.2864 191.419 71.9281C193.957 77.3471 196.562 83.5707 199.076 88.7468L204.895 85.9205C202.306 80.59 200.083 75.1733 197.277 69.1842C194.576 63.4178 191.537 57.5933 187.757 52.5381L182.576 56.412ZM199.076 88.7468C200.192 91.0429 200.181 92.5619 199.894 94.3469C199.607 96.1284 198.751 99.1512 198.751 102.758H205.22C205.22 99.8233 205.833 98.1577 206.281 95.3744C206.728 92.5947 206.718 89.6724 204.895 85.9205L199.076 88.7468ZM186.178 59.1083C190.6 59.1083 195.268 58.8576 199.948 58.5989C204.659 58.3386 209.393 58.0693 214.082 58.0125C223.5 57.8984 232.348 58.6565 239.779 61.8409L242.327 55.895C233.625 52.1658 223.672 51.4268 214.003 51.544C209.149 51.6028 204.268 51.8814 199.591 52.1398C194.884 52.4 190.392 52.6393 186.178 52.6393V59.1083ZM239.779 61.8409C244.867 64.0217 247.466 66.5314 249.265 69.532C251.216 72.7856 252.289 76.6465 254.131 82.1726L260.268 80.1269C258.596 75.1108 257.237 70.2486 254.814 66.2058C252.238 61.91 248.521 58.5498 242.327 55.895L239.779 61.8409ZM254.131 82.1726C254.909 84.5062 255.05 87.5506 254.919 91.0754C254.854 92.8103 254.731 94.5484 254.618 96.3166C254.508 98.0524 254.407 99.8178 254.407 101.468H260.876C260.876 100.046 260.963 98.4655 261.074 96.7283C261.183 95.0235 261.315 93.1617 261.383 91.3156C261.518 87.6784 261.438 83.6365 260.268 80.1269L254.131 82.1726ZM254.407 101.468C254.407 101.695 254.325 102.086 253.884 102.769C253.425 103.482 252.777 104.217 251.907 105.189C251.114 106.075 250.1 107.198 249.312 108.421C248.506 109.673 247.758 111.294 247.758 113.232H254.227C254.227 113.001 254.311 112.607 254.751 111.923C255.21 111.21 255.858 110.475 256.728 109.503C257.519 108.618 258.534 107.496 259.321 106.275C260.127 105.025 260.876 103.406 260.876 101.468H254.407ZM247.714 59.5654C240.098 59.5654 233.652 64.1217 228.582 69.3224C223.459 74.577 219.21 81.0455 216.064 85.8581L221.478 89.3982C224.667 84.5208 228.596 78.5752 233.214 73.8381C237.884 69.0472 242.742 66.0344 247.714 66.0344V59.5654ZM216.064 85.8581C214.193 88.7191 212.886 92.6698 212.886 96.217H219.355C219.355 94.0511 220.225 91.3154 221.478 89.3982L216.064 85.8581ZM212.886 96.217C212.886 96.396 212.823 96.7507 212.543 97.345C212.264 97.9341 211.87 98.5603 211.384 99.29L216.766 102.878C217.265 102.129 217.894 101.163 218.392 100.108C218.888 99.0587 219.355 97.719 219.355 96.217H212.886ZM186.092 56.4007C185.232 57.5702 183.462 57.5966 182.576 56.412L187.757 52.5381C186.026 50.224 182.577 50.2616 180.881 52.5673L186.092 56.4007Z" fill="#EE2F14"/>
<path d="M202 63.5171C202.183 63.3994 202.395 63.0538 202.242 63.2826C202.134 63.4447 202.072 63.581 202.08 63.7663C202.09 63.9864 202.646 64.2773 202.646 63.8469" stroke="#EE2F14" stroke-width="6.46898" stroke-linecap="round"/>
<path d="M225.175 63.9793C225.2 63.9284 225.66 63.2823 225.448 63.2315C225.251 63.1842 224.854 63.1934 224.727 63.3413C224.465 63.647 224.867 64.3077 225.063 63.9793" stroke="#EE2F14" stroke-width="6.46898" stroke-linecap="round"/>
<path d="M206.593 73.763C208.78 73.3741 211.079 73.5658 213.295 73.5658" stroke="#EE2F14" stroke-width="6.46898" stroke-linecap="round"/>
<path d="M173.6 113.443C173.755 106.457 175.01 91.3909 181.395 87.1348" stroke="#EE2F14" stroke-width="6.46898" stroke-linecap="round"/>
<path d="M187.241 125.135H221.344" stroke="#EE2F14" stroke-width="6.46898" stroke-linecap="round"/>
<path d="M232.062 94.9287H239.858" stroke="#EE2F14" stroke-width="6.46898" stroke-linecap="round"/>
<path d="M79.9513 98.3702C79.6885 98.7795 79.9513 99.7038 79.9513 98.8944C79.9513 98.5669 79.52 98.016 79.52 98.6323" stroke="#EE2F14" stroke-width="6.46898" stroke-linecap="round"/>
<path d="M107.984 76.5807C107.918 75.3957 106.69 75.4811 106.69 76.4842C106.69 76.9528 107.984 76.8531 107.984 76.3877" stroke="#EE2F14" stroke-width="6.46898" stroke-linecap="round"/>
<path d="M105.598 114.634C101.511 114.634 98.6386 112.87 94.9288 111.016C93.7937 110.448 91.8869 106.758 93.5191 105.825C95.2952 104.81 98.0156 104.078 99.8628 103.55C101.018 103.221 104.753 101.576 105.598 100.402C106.737 98.8209 109.278 96.118 109.278 94.5803C110.128 92.3701 110.177 89.1895 112.836 89.1895C114.98 89.1895 124.811 94.7603 124.911 97.463C125.038 100.888 121.442 109.95 118.766 112.478C116.691 114.437 108.372 114.634 105.598 114.634Z" stroke="#EE2F14" stroke-width="6.46898" stroke-linecap="round"/>
<path d="M220.674 8.43555C220.674 12.894 220.996 17.2231 223.587 19.7327C225.532 21.6168 224.328 23.6955 223.587 25.2214C223.097 26.2294 220.818 28.4692 220.707 29.1115C220.156 32.2886 221.123 33.8914 221.84 36.2522" stroke="#EE2F14" stroke-width="6.46898" stroke-linecap="round"/>
<path d="M200.226 4.12207C198.859 10.7293 199.892 9.8158 202.746 14.394C204.038 16.4663 206.123 17.8657 203.653 20.1958C201.429 22.2944 199.449 22.8935 201.839 25.7122C203.011 27.0951 203.915 31.4857 202.04 32.37" stroke="#EE2F14" stroke-width="6.46898" stroke-linecap="round"/>
<path d="M274.1 141.088C274.402 140.152 274.976 139.236 275.367 138.308C279.443 140.717 282.896 144.722 285.437 148.86C286.144 150.012 286.657 151.389 287.349 152.588C288.012 153.736 288.343 155.097 289.005 156.263C291.111 159.973 291.652 164.656 293.694 168.356C295.668 171.933 297.27 175.27 299.914 178.368C301.637 180.387 303.92 180.955 305.741 182.638C306.579 183.412 307.901 183.825 308.905 184.362C309.786 184.834 310.425 185.535 311.244 185.996C312.606 186.764 314.272 189.944 313.911 191.589C313.708 192.516 305.916 191.282 305.325 191.274C301.85 191.224 298.304 189.648 294.893 189.015C291.053 188.302 286.42 188.255 282.84 186.541C281.368 185.837 280.095 184.902 278.704 184.079C277.736 183.506 277.018 180.962 276.698 179.924C275.287 175.345 274.895 171 274.681 166.244L274.52 162.66C274.513 162.505 274.483 161.361 274.335 161.536C273.655 162.332 273.329 163.8 272.854 164.73C272.061 166.281 271.368 167.827 270.665 169.424C268.768 173.738 265.33 177.436 263.241 181.679C262.835 182.505 261.956 182.889 261.45 183.611C260.906 184.387 259.953 185.662 259.147 186.108C257.497 187.023 255.927 188.293 254.251 189.265C250.781 191.278 246.666 192.178 242.912 193.366C238.26 194.838 233.471 194.797 228.63 195.015C223.237 195.258 217.596 195.777 212.233 195.035C209.244 194.622 203.563 195.647 201.405 192.618C200.414 191.228 199.241 189.565 198.587 187.974C198.186 186.998 197.297 186.793 198.341 185.815C198.723 185.456 200.701 185.386 201.211 185.334C202.739 185.179 204.347 184.906 205.959 184.833C213.254 184.505 220.999 185.976 228.033 183.408C228.979 183.063 229.931 181.851 230.833 181.702C231.489 181.594 232.055 180.701 232.713 180.405C233.317 180.133 234.001 179.444 234.466 178.954C236.947 176.338 239.462 173.884 241.757 171.03C243.877 168.393 245.989 165.781 248.235 163.27C251.006 160.171 253.426 156.652 255.91 153.285C257.298 151.404 258.714 149.107 260.485 147.622C262.219 146.168 263.944 144.716 265.686 143.271C266.664 142.459 268.522 140.993 269.842 140.881C271.021 140.781 272.215 140.774 273.397 140.721C273.657 140.709 274.015 141.351 274.1 141.088Z" fill="#FFC778"/>
<path d="M272.802 136.439C273.239 134.852 274.25 133.48 274.534 131.861C274.773 130.502 275.474 128.533 276.213 127.445C277.677 125.291 279.12 127.777 279.194 129.401C279.247 130.583 278.203 131.155 277.977 132.185C277.824 132.884 277.361 133.636 276.996 134.24C276.319 135.362 275.921 136.916 275.429 138.156C275.04 139.136 274.419 140.101 274.1 141.088C274.015 141.351 273.657 140.709 273.397 140.721C272.215 140.774 271.021 140.781 269.842 140.881C268.522 140.993 266.664 142.459 265.686 143.271C263.944 144.716 262.219 146.168 260.485 147.622C258.714 149.107 257.298 151.404 255.91 153.285C253.426 156.652 251.006 160.171 248.235 163.27C245.989 165.781 243.877 168.393 241.757 171.03C239.462 173.884 236.947 176.338 234.466 178.954C234.001 179.444 233.317 180.133 232.713 180.405C232.055 180.701 231.489 181.594 230.833 181.702C229.931 181.851 228.979 183.063 228.033 183.408C220.999 185.976 213.254 184.505 205.959 184.833C204.347 184.906 202.739 185.179 201.211 185.334C200.701 185.386 198.723 185.456 198.341 185.815C197.297 186.793 198.186 186.998 198.587 187.974C199.241 189.565 200.414 191.228 201.405 192.618C203.563 195.647 209.244 194.622 212.233 195.035C217.596 195.777 223.237 195.258 228.63 195.015C233.471 194.797 238.26 194.838 242.912 193.366C246.666 192.178 250.781 191.278 254.251 189.265C255.927 188.293 257.497 187.023 259.147 186.108C259.953 185.662 260.906 184.387 261.45 183.611C261.956 182.889 262.835 182.505 263.241 181.679C265.33 177.436 268.768 173.738 270.665 169.424C271.368 167.827 272.061 166.281 272.854 164.73C273.329 163.8 273.655 162.332 274.335 161.536C274.483 161.361 274.513 162.505 274.52 162.66C274.573 163.855 274.627 165.049 274.681 166.244C274.895 171 275.287 175.345 276.698 179.924C277.018 180.962 277.736 183.506 278.704 184.079C280.095 184.902 281.368 185.837 282.84 186.541C286.42 188.255 291.053 188.302 294.893 189.015C298.304 189.648 301.85 191.224 305.325 191.274C305.916 191.282 313.708 192.516 313.911 191.589C314.272 189.944 312.606 186.764 311.244 185.996C310.425 185.535 309.786 184.834 308.905 184.362C307.901 183.825 306.579 183.412 305.741 182.638C303.92 180.955 301.637 180.387 299.914 178.368C297.27 175.27 295.668 171.933 293.694 168.356C291.652 164.656 291.111 159.973 289.005 156.263C288.343 155.097 288.012 153.736 287.349 152.588C286.657 151.389 286.144 150.012 285.437 148.86C282.602 144.243 278.631 139.79 273.925 137.538" stroke="#EE2F14" stroke-width="6.46898" stroke-linecap="round"/>
<path d="M265.331 155.489C265.381 155.642 265.392 155.702 265.496 155.698C265.554 155.695 265.574 155.692 265.534 155.61" stroke="#EE2F14" stroke-width="6.46898" stroke-linecap="round"/>
<path d="M248.943 174.239C248.943 174.383 248.943 174.455 248.943 174.455" stroke="#EE2F14" stroke-width="6.46898" stroke-linecap="round"/>
<path d="M258.497 173.358C258.571 172.674 258.981 172.065 259.254 171.456C259.615 170.655 260.199 170.076 260.722 169.395C261.164 168.82 261.705 168.306 262.099 167.691C262.185 167.557 262.257 167.407 262.36 167.285C262.417 167.218 262.492 167.172 262.531 167.091C262.553 167.047 262.694 166.96 262.739 166.908" stroke="#EE2F14" stroke-width="6.46898" stroke-linecap="round"/>
<path d="M274.23 161.931C274.671 158.657 276.474 155.553 277.422 152.409C278.189 149.867 279.041 147.387 279.72 144.848" stroke="#EE2F14" stroke-width="6.46898" stroke-linecap="round"/>
<path d="M281.339 161.612C280.819 160.463 280.012 158.567 279.111 157.691C278.537 157.132 277.607 155.443 277.572 154.658" stroke="#EE2F14" stroke-width="6.46898" stroke-linecap="round"/>
<path d="M269.1 19.0055C268.26 24.0477 270.817 26.7745 275.574 26.7745C278.416 26.7745 276.592 21.0812 275.833 19.7536C274.297 17.0653 269.649 17.4517 267.028 17.4517C265.008 17.4517 265.403 18.6496 265.474 20.4442C265.536 21.9884 267.459 22.5348 268.582 23.0339C269.651 23.5089 276.351 24.5349 276.351 22.89C276.351 19.563 271.559 19.5235 269.359 19.5235C267.766 19.5235 268.643 22.0286 269.618 22.516C271.024 23.2191 272.212 23.149 273.761 23.149C276.196 23.149 271.18 18.6374 270.136 18.0848C268.282 17.1035 268.078 12.872 268.611 11.0063C269.33 8.48776 273.161 9.1648 275.056 9.1648C278.653 9.1648 277.905 11.3098 277.905 14.3441C277.905 15.6486 277.905 16.953 277.905 18.2574C277.905 18.8819 277.734 16.767 278.25 16.4159C279.11 15.8314 280.05 15.9545 281.012 15.8979C283.848 15.7311 286.27 14.8163 289.069 16.4159C291.346 17.7171 291.499 22.0536 290.824 24.415C290.5 25.5497 286.702 26.4026 285.674 26.8896C284.391 27.4972 282.941 27.2924 281.53 27.2924C279.368 27.2924 275.315 27.2036 275.315 24.1848" stroke="#EE2F14" stroke-width="6.46898" stroke-linecap="round"/>
</svg>
